%TF.GenerationSoftware,KiCad,Pcbnew,5.1.7+dfsg1-1~bpo10+1*%
%TF.CreationDate,2020-11-15T21:32:29+00:00*%
%TF.ProjectId,mobo,6d6f626f-2e6b-4696-9361-645f70636258,rev?*%
%TF.SameCoordinates,Original*%
%TF.FileFunction,Plated,1,2,PTH,Mixed*%
%TF.FilePolarity,Positive*%
%FSLAX46Y46*%
G04 Gerber Fmt 4.6, Leading zero omitted, Abs format (unit mm)*
G04 Created by KiCad (PCBNEW 5.1.7+dfsg1-1~bpo10+1) date 2020-11-15 21:32:29*
%MOMM*%
%LPD*%
G01*
G04 APERTURE LIST*
%TA.AperFunction,ComponentDrill*%
%ADD10C,0.300000*%
%TD*%
%TA.AperFunction,ViaDrill*%
%ADD11C,0.400000*%
%TD*%
%TA.AperFunction,ComponentDrill*%
%ADD12C,0.500000*%
%TD*%
%TA.AperFunction,ComponentDrill*%
%ADD13C,0.800000*%
%TD*%
%TA.AperFunction,ComponentDrill*%
%ADD14C,0.920000*%
%TD*%
%TA.AperFunction,ComponentDrill*%
%ADD15C,0.950000*%
%TD*%
%TA.AperFunction,ComponentDrill*%
%ADD16C,1.000000*%
%TD*%
G04 aperture for slot hole*
%TA.AperFunction,ComponentDrill*%
%ADD17C,1.000000*%
%TD*%
%TA.AperFunction,ComponentDrill*%
%ADD18C,2.300000*%
%TD*%
%TA.AperFunction,ComponentDrill*%
%ADD19C,2.330000*%
%TD*%
%TA.AperFunction,ComponentDrill*%
%ADD20C,3.200000*%
%TD*%
G04 APERTURE END LIST*
D10*
%TO.C,U7*%
X17561000Y-29315000D03*
X17561000Y-30515000D03*
X17561000Y-31815000D03*
X17561000Y-32915000D03*
X18761000Y-29315000D03*
X18761000Y-30515000D03*
X18761000Y-31815000D03*
X18761000Y-32915000D03*
%TD*%
D11*
X889000Y-18542000D03*
X889000Y-19939000D03*
X889000Y-21209000D03*
X889000Y-22733000D03*
X889000Y-24130000D03*
X889000Y-25654000D03*
X1651000Y-43180000D03*
X2159000Y-20320000D03*
X2159000Y-21590000D03*
X2159000Y-23114000D03*
X2159000Y-24638000D03*
X2667000Y-40894000D03*
X2667000Y-45466000D03*
X2921000Y-19304000D03*
X3048000Y-25400000D03*
X3810000Y-43180000D03*
X7620000Y-16510000D03*
X8034000Y-43180000D03*
X9144000Y-16510000D03*
X10287000Y-18288000D03*
X11303000Y-16510000D03*
X13335000Y-32258000D03*
X13589000Y-29210000D03*
X13589000Y-53594000D03*
X14986000Y-47879000D03*
X18161000Y-53467000D03*
X19457500Y-58547000D03*
X20066000Y-59690000D03*
X22869768Y-54111768D03*
X23612232Y-54854232D03*
X24003000Y-49530000D03*
X27813000Y-47244000D03*
X29210000Y-16510000D03*
X30861000Y-16510000D03*
X31242000Y-48641000D03*
X31877000Y-18288000D03*
X33020000Y-16510000D03*
X34544000Y-42545000D03*
X35687000Y-37465000D03*
X35814000Y-39121846D03*
X35941000Y-50165000D03*
X36195000Y-48768000D03*
X36263153Y-40571847D03*
X37338000Y-53086000D03*
X37465000Y-36957000D03*
X37465000Y-51054000D03*
X39370000Y-38608000D03*
X39370000Y-39878000D03*
X39497000Y-41910000D03*
X39497000Y-45720000D03*
X39878000Y-47117000D03*
X40513000Y-43017000D03*
X40767000Y-45720000D03*
X41148000Y-34671000D03*
X41148000Y-53594000D03*
X41402000Y-37973000D03*
X41402000Y-48768000D03*
X41402000Y-49911000D03*
X41656000Y-41910000D03*
X41910000Y-44958000D03*
X42164000Y-38735000D03*
X42291000Y-53721000D03*
X42926000Y-42672000D03*
X43311653Y-48763347D03*
X43434000Y-38989000D03*
X43942000Y-53213000D03*
X44704000Y-38862000D03*
X45212000Y-34544000D03*
X45212000Y-49911000D03*
X45847000Y-38989000D03*
X46549730Y-47575036D03*
X46844625Y-40367625D03*
X46876680Y-32906680D03*
X47163001Y-37719000D03*
X47244000Y-38862000D03*
X47498000Y-34417000D03*
X47602442Y-48627747D03*
X48260000Y-49381153D03*
X49022000Y-37719000D03*
X49080847Y-50106153D03*
X49784000Y-53594000D03*
X50038000Y-47625000D03*
X50165000Y-39497000D03*
X50673000Y-33528000D03*
X50800000Y-16510000D03*
X50800000Y-54483000D03*
X51054000Y-48387000D03*
X51435000Y-39116000D03*
X51435000Y-47244000D03*
X52451000Y-16510000D03*
X52705000Y-33782000D03*
X53467000Y-18288000D03*
X54483000Y-16510000D03*
X54610000Y-37465000D03*
X54932153Y-45778847D03*
X55755018Y-45210607D03*
X56007000Y-34798000D03*
X56642000Y-58801000D03*
X57023000Y-44704000D03*
X57086500Y-57848500D03*
X57404000Y-59461982D03*
X57785000Y-43815000D03*
X58928000Y-43688000D03*
X58981542Y-42689433D03*
X59182000Y-31877000D03*
X59944000Y-42418000D03*
X61087000Y-50292000D03*
X62230000Y-35687000D03*
X62738000Y-32258000D03*
X64516000Y-42164000D03*
X64770000Y-31369000D03*
X69469000Y-50038000D03*
X70993000Y-41402000D03*
X71120000Y-29972000D03*
X72263000Y-16510000D03*
X74041000Y-16510000D03*
X75057000Y-18415000D03*
X76200000Y-16510000D03*
X77724000Y-63881000D03*
X77724000Y-65532000D03*
X81407000Y-64135000D03*
X92710000Y-61595000D03*
X92710000Y-64135000D03*
X92710000Y-65405000D03*
X93980000Y-16510000D03*
X95758000Y-16510000D03*
X96647000Y-18288000D03*
X97790000Y-16510000D03*
X110109000Y-38989000D03*
X110236000Y-26924000D03*
X111760000Y-49784000D03*
X111760000Y-61976000D03*
X112014000Y-16637000D03*
X112014000Y-18415000D03*
X113665000Y-16637000D03*
X114300000Y-18034000D03*
X114300000Y-19431000D03*
X114554000Y-34417000D03*
X114554000Y-46482000D03*
X114681000Y-70866000D03*
X114808000Y-58547000D03*
X117729000Y-34417000D03*
X117729000Y-46482000D03*
X118237000Y-58547000D03*
X118364000Y-70993000D03*
X122301000Y-26797000D03*
X122301000Y-34544000D03*
X122301000Y-38735000D03*
X122301000Y-46482000D03*
X122555000Y-50673000D03*
X122555000Y-58674000D03*
X122555000Y-62865000D03*
X122555000Y-70993000D03*
X125476000Y-66929000D03*
X125603000Y-30734000D03*
X125603000Y-42545000D03*
X125603000Y-54610000D03*
X128651000Y-26797000D03*
X128651000Y-34544000D03*
X128905000Y-38735000D03*
X128905000Y-46609000D03*
X128905000Y-70993000D03*
X129032000Y-50673000D03*
X129032000Y-58674000D03*
X129032000Y-62865000D03*
X131445000Y-10287000D03*
X133604000Y-22352000D03*
X134683500Y-23431500D03*
X135763000Y-24511000D03*
X136842500Y-25590500D03*
D12*
%TO.C,TP3*%
X33782000Y-58166000D03*
%TO.C,TP2*%
X36576000Y-58166000D03*
%TO.C,TP1*%
X30988000Y-58166000D03*
D13*
%TO.C,A1*%
X68580000Y-10160000D03*
X68580000Y-22860000D03*
X71120000Y-10160000D03*
X71120000Y-22860000D03*
X73660000Y-10160000D03*
X73660000Y-22860000D03*
X76200000Y-10160000D03*
X76200000Y-22860000D03*
X78740000Y-10160000D03*
X78740000Y-22860000D03*
X81280000Y-10160000D03*
X81280000Y-22860000D03*
X83820000Y-10160000D03*
X83820000Y-22860000D03*
X86360000Y-10160000D03*
X86360000Y-22860000D03*
%TO.C,A2*%
X111760000Y-10160000D03*
X111760000Y-22860000D03*
X114300000Y-10160000D03*
X114300000Y-22860000D03*
X116840000Y-10160000D03*
X116840000Y-22860000D03*
X119380000Y-10160000D03*
X119380000Y-22860000D03*
X121920000Y-10160000D03*
X121920000Y-22860000D03*
X124460000Y-10160000D03*
X124460000Y-22860000D03*
X127000000Y-10160000D03*
X127000000Y-22860000D03*
X129540000Y-10160000D03*
X129540000Y-22860000D03*
%TO.C,A3*%
X3810000Y-10160000D03*
X3810000Y-22860000D03*
X6350000Y-10160000D03*
X6350000Y-22860000D03*
X8890000Y-10160000D03*
X8890000Y-22860000D03*
X11430000Y-10160000D03*
X11430000Y-22860000D03*
X13970000Y-10160000D03*
X13970000Y-22860000D03*
X16510000Y-10160000D03*
X16510000Y-22860000D03*
X19050000Y-10160000D03*
X19050000Y-22860000D03*
X21590000Y-10160000D03*
X21590000Y-22860000D03*
%TO.C,A5*%
X46990000Y-10160000D03*
X46990000Y-22860000D03*
X49530000Y-10160000D03*
X49530000Y-22860000D03*
X52070000Y-10160000D03*
X52070000Y-22860000D03*
X54610000Y-10160000D03*
X54610000Y-22860000D03*
X57150000Y-10160000D03*
X57150000Y-22860000D03*
X59690000Y-10160000D03*
X59690000Y-22860000D03*
X62230000Y-10160000D03*
X62230000Y-22860000D03*
X64770000Y-10160000D03*
X64770000Y-22860000D03*
%TO.C,A4*%
X25400000Y-10160000D03*
X25400000Y-22860000D03*
X27940000Y-10160000D03*
X27940000Y-22860000D03*
X30480000Y-10160000D03*
X30480000Y-22860000D03*
X33020000Y-10160000D03*
X33020000Y-22860000D03*
X35560000Y-10160000D03*
X35560000Y-22860000D03*
X38100000Y-10160000D03*
X38100000Y-22860000D03*
X40640000Y-10160000D03*
X40640000Y-22860000D03*
X43180000Y-10160000D03*
X43180000Y-22860000D03*
%TO.C,A6*%
X90170000Y-10160000D03*
X90170000Y-22860000D03*
X92710000Y-10160000D03*
X92710000Y-22860000D03*
X95250000Y-10160000D03*
X95250000Y-22860000D03*
X97790000Y-10160000D03*
X97790000Y-22860000D03*
X100330000Y-10160000D03*
X100330000Y-22860000D03*
X102870000Y-10160000D03*
X102870000Y-22860000D03*
X105410000Y-10160000D03*
X105410000Y-22860000D03*
X107950000Y-10160000D03*
X107950000Y-22860000D03*
D14*
%TO.C,J41*%
X6255000Y-55285000D03*
X6255000Y-57785000D03*
X8255000Y-55285000D03*
X8255000Y-57785000D03*
%TO.C,J42*%
X15875000Y-66040000D03*
X15875000Y-68660000D03*
X18375000Y-66040000D03*
X18375000Y-68660000D03*
X20375000Y-66040000D03*
X20375000Y-68660000D03*
X22875000Y-66040000D03*
X22875000Y-68660000D03*
D15*
%TO.C,J60*%
X75692000Y-50880000D03*
X75692000Y-53380000D03*
X75692000Y-55880000D03*
%TO.C,J22*%
X106045000Y-48420000D03*
X106045000Y-50920000D03*
X106045000Y-53420000D03*
X106045000Y-55920000D03*
X106045000Y-58420000D03*
%TO.C,J16*%
X81026000Y-70612000D03*
X83526000Y-70612000D03*
X86026000Y-70612000D03*
X88526000Y-70612000D03*
%TO.C,J21*%
X98806000Y-48380000D03*
X98806000Y-50880000D03*
X98806000Y-53380000D03*
X98806000Y-55880000D03*
%TO.C,J20*%
X83566000Y-50880000D03*
X83566000Y-53380000D03*
X83566000Y-55880000D03*
%TO.C,J17*%
X95631000Y-70612000D03*
X98131000Y-70612000D03*
X100631000Y-70612000D03*
X103131000Y-70612000D03*
%TO.C,J66*%
X87249000Y-31623000D03*
X89749000Y-31623000D03*
X92249000Y-31623000D03*
%TO.C,J13*%
X54356000Y-62611000D03*
X56856000Y-62611000D03*
X59356000Y-62611000D03*
%TO.C,J7*%
X42291000Y-62611000D03*
X44791000Y-62611000D03*
X47291000Y-62611000D03*
%TO.C,J15*%
X66548000Y-70612000D03*
X69048000Y-70612000D03*
X71548000Y-70612000D03*
X74048000Y-70612000D03*
%TO.C,J23*%
X98806000Y-28775000D03*
X98806000Y-31275000D03*
X98806000Y-33775000D03*
X98806000Y-36275000D03*
X98806000Y-38775000D03*
X98806000Y-41275000D03*
%TO.C,J1*%
X73780000Y-5080000D03*
X76280000Y-5080000D03*
X78780000Y-5080000D03*
X81280000Y-5080000D03*
%TO.C,J12*%
X54356000Y-70612000D03*
X56856000Y-70612000D03*
X59356000Y-70612000D03*
%TO.C,J3*%
X11550000Y-5080000D03*
X14050000Y-5080000D03*
X16550000Y-5080000D03*
X19050000Y-5080000D03*
%TO.C,J19*%
X91313000Y-39196000D03*
X91313000Y-41696000D03*
X91313000Y-44196000D03*
%TO.C,J2*%
X116960000Y-5080000D03*
X119460000Y-5080000D03*
X121960000Y-5080000D03*
X124460000Y-5080000D03*
%TO.C,J65*%
X75819000Y-31623000D03*
X78319000Y-31623000D03*
X80819000Y-31623000D03*
%TO.C,J4*%
X30600000Y-5080000D03*
X33100000Y-5080000D03*
X35600000Y-5080000D03*
X38100000Y-5080000D03*
%TO.C,J62*%
X75692000Y-39196000D03*
X75692000Y-41696000D03*
X75692000Y-44196000D03*
%TO.C,J6*%
X42291000Y-70612000D03*
X44791000Y-70612000D03*
X47291000Y-70612000D03*
%TO.C,J18*%
X83566000Y-39196000D03*
X83566000Y-41696000D03*
X83566000Y-44196000D03*
%TO.C,J61*%
X91353000Y-50880000D03*
X91353000Y-53380000D03*
X91353000Y-55880000D03*
%TO.C,J38*%
X95370000Y-5080000D03*
X97870000Y-5080000D03*
X100370000Y-5080000D03*
X102870000Y-5080000D03*
%TO.C,J37*%
X52190000Y-5080000D03*
X54690000Y-5080000D03*
X57190000Y-5080000D03*
X59690000Y-5080000D03*
%TO.C,J24*%
X106045000Y-28775000D03*
X106045000Y-31275000D03*
X106045000Y-33775000D03*
X106045000Y-36275000D03*
X106045000Y-38775000D03*
X106045000Y-41275000D03*
%TO.C,J48*%
X135382000Y-11677000D03*
X135382000Y-14177000D03*
X135382000Y-16677000D03*
X135382000Y-19177000D03*
D16*
%TO.C,J8*%
X133985000Y-29250000D03*
X133985000Y-31750000D03*
%TO.C,J11*%
X133985000Y-59730000D03*
X133985000Y-62230000D03*
D17*
%TO.C,J45*%
X4160000Y-32115000D02*
X4160000Y-30115000D01*
X8160000Y-35815000D02*
X6160000Y-35815000D01*
X10160000Y-32115000D02*
X10160000Y-30115000D01*
D16*
%TO.C,J14*%
X32512000Y-70612000D03*
X35012000Y-70612000D03*
%TO.C,J9*%
X133985000Y-39410000D03*
X133985000Y-41910000D03*
%TO.C,J10*%
X134025000Y-49570000D03*
X134025000Y-52070000D03*
D18*
%TO.C,J42*%
X12805000Y-65690000D03*
X12805000Y-71370000D03*
X25945000Y-65690000D03*
X25945000Y-71370000D03*
D19*
%TO.C,J41*%
X3545000Y-50515000D03*
X3545000Y-62555000D03*
D20*
%TO.C,H1*%
X4445000Y-4445000D03*
%TO.C,H2*%
X4445000Y-70485000D03*
%TO.C,H3*%
X135255000Y-70583001D03*
%TO.C,H4*%
X135255000Y-4445000D03*
M02*
