%TF.GenerationSoftware,KiCad,Pcbnew,5.1.7+dfsg1-1~bpo10+1*%
%TF.CreationDate,2020-11-15T21:32:29+00:00*%
%TF.ProjectId,mobo,6d6f626f-2e6b-4696-9361-645f70636258,rev?*%
%TF.SameCoordinates,Original*%
%TF.FileFunction,Other,User*%
%FSLAX45Y45*%
G04 Gerber Fmt 4.5, Leading zero omitted, Abs format (unit mm)*
G04 Created by KiCad (PCBNEW 5.1.7+dfsg1-1~bpo10+1) date 2020-11-15 21:32:29*
%MOMM*%
%LPD*%
G01*
G04 APERTURE LIST*
%TA.AperFunction,Profile*%
%ADD10C,0.050000*%
%TD*%
%ADD11C,0.050000*%
G04 APERTURE END LIST*
D10*
X0Y-7467600D02*
X13970000Y-7467600D01*
X13970000Y-7467600D02*
X13970000Y0D01*
X13970000Y0D02*
X0Y0D01*
X0Y0D02*
X0Y-7467600D01*
D11*
X5415800Y-5029800D02*
X5415800Y-4389800D01*
X5268800Y-5029800D02*
X5415800Y-5029800D01*
X5268800Y-5114800D02*
X5268800Y-5029800D01*
X5183800Y-5114800D02*
X5268800Y-5114800D01*
X5183800Y-5261800D02*
X5183800Y-5114800D01*
X4543800Y-5261800D02*
X5183800Y-5261800D01*
X3671800Y-5029800D02*
X3671800Y-4389800D01*
X3818800Y-5029800D02*
X3671800Y-5029800D01*
X3818800Y-5114800D02*
X3818800Y-5029800D01*
X3903800Y-5114800D02*
X3818800Y-5114800D01*
X3903800Y-5261800D02*
X3903800Y-5114800D01*
X4543800Y-5261800D02*
X3903800Y-5261800D01*
X5415800Y-3749800D02*
X5415800Y-4389800D01*
X5268800Y-3749800D02*
X5415800Y-3749800D01*
X5268800Y-3664800D02*
X5268800Y-3749800D01*
X5183800Y-3664800D02*
X5268800Y-3664800D01*
X5183800Y-3517800D02*
X5183800Y-3664800D01*
X4543800Y-3517800D02*
X5183800Y-3517800D01*
X3671800Y-3749800D02*
X3671800Y-4389800D01*
X3818800Y-3749800D02*
X3671800Y-3749800D01*
X3818800Y-3664800D02*
X3818800Y-3749800D01*
X3903800Y-3664800D02*
X3818800Y-3664800D01*
X3903800Y-3517800D02*
X3903800Y-3664800D01*
X4543800Y-3517800D02*
X3903800Y-3517800D01*
X-384000Y-3586500D02*
X-384000Y-2636500D01*
X516000Y-3586500D02*
X-384000Y-3586500D01*
X516000Y-3786500D02*
X516000Y-3586500D01*
X916000Y-3786500D02*
X516000Y-3786500D01*
X916000Y-3586500D02*
X916000Y-3786500D01*
X1116000Y-3586500D02*
X916000Y-3586500D01*
X1116000Y-3311500D02*
X1116000Y-3586500D01*
X1216000Y-3311500D02*
X1116000Y-3311500D01*
X1216000Y-2911500D02*
X1216000Y-3311500D01*
X1116000Y-2911500D02*
X1216000Y-2911500D01*
X1116000Y-2661500D02*
X1116000Y-2911500D01*
X1116000Y-2636500D02*
X-384000Y-2636500D01*
X1116000Y-2661500D02*
X1116000Y-2636500D01*
X5929100Y-2627200D02*
X5069100Y-2627200D01*
X5929100Y-3367200D02*
X5929100Y-2627200D01*
X5069100Y-3367200D02*
X5929100Y-3367200D01*
X5069100Y-2627200D02*
X5069100Y-3367200D01*
X10319500Y-4422500D02*
X10994500Y-4422500D01*
X10994500Y-4422500D02*
X10994500Y-2582500D01*
X10994500Y-2582500D02*
X10319500Y-2582500D01*
X10319500Y-2582500D02*
X10319500Y-4422500D01*
X9595600Y-4422500D02*
X10270600Y-4422500D01*
X10270600Y-4422500D02*
X10270600Y-2582500D01*
X10270600Y-2582500D02*
X9595600Y-2582500D01*
X9595600Y-2582500D02*
X9595600Y-4422500D01*
X10319500Y-6137000D02*
X10994500Y-6137000D01*
X10994500Y-6137000D02*
X10994500Y-4547000D01*
X10994500Y-4547000D02*
X10319500Y-4547000D01*
X10319500Y-4547000D02*
X10319500Y-6137000D01*
X9595600Y-5883000D02*
X10270600Y-5883000D01*
X10270600Y-5883000D02*
X10270600Y-4543000D01*
X10270600Y-4543000D02*
X9595600Y-4543000D01*
X9595600Y-4543000D02*
X9595600Y-5883000D01*
X2998800Y-5716600D02*
X3198800Y-5716600D01*
X2998800Y-5716600D02*
X2998800Y-5916600D01*
X3198800Y-5916600D02*
X3198800Y-5716600D01*
X3198800Y-5916600D02*
X2998800Y-5916600D01*
X3278200Y-5716600D02*
X3478200Y-5716600D01*
X3278200Y-5716600D02*
X3278200Y-5916600D01*
X3478200Y-5916600D02*
X3478200Y-5716600D01*
X3478200Y-5916600D02*
X3278200Y-5916600D01*
X3557600Y-5716600D02*
X3757600Y-5716600D01*
X3557600Y-5716600D02*
X3557600Y-5916600D01*
X3757600Y-5916600D02*
X3757600Y-5716600D01*
X3757600Y-5916600D02*
X3557600Y-5916600D01*
X4397600Y-3454500D02*
X4397600Y-3339500D01*
X4187600Y-3454500D02*
X4397600Y-3454500D01*
X4187600Y-3339500D02*
X4187600Y-3454500D01*
X4397600Y-3339500D02*
X4532600Y-3339500D01*
X4052600Y-3339500D02*
X4187600Y-3339500D01*
X4052600Y-3339500D02*
X3937600Y-3224500D01*
X4532600Y-3339500D02*
X4647600Y-3224500D01*
X3937600Y-3224500D02*
X3937600Y-2629500D01*
X4647600Y-3224500D02*
X4647600Y-2629500D01*
X4397600Y-2629500D02*
X4647600Y-2629500D01*
X4397600Y-2514500D02*
X4397600Y-2629500D01*
X4187600Y-2514500D02*
X4397600Y-2514500D01*
X4187600Y-2629500D02*
X4187600Y-2514500D01*
X3937600Y-2629500D02*
X4187600Y-2629500D01*
X2689000Y-4800500D02*
X2689000Y-4915500D01*
X2899000Y-4800500D02*
X2689000Y-4800500D01*
X2899000Y-4915500D02*
X2899000Y-4800500D01*
X2689000Y-4915500D02*
X2554000Y-4915500D01*
X3034000Y-4915500D02*
X2899000Y-4915500D01*
X3034000Y-4915500D02*
X3149000Y-5030500D01*
X2554000Y-4915500D02*
X2439000Y-5030500D01*
X3149000Y-5030500D02*
X3149000Y-5625500D01*
X2439000Y-5030500D02*
X2439000Y-5625500D01*
X2689000Y-5625500D02*
X2439000Y-5625500D01*
X2689000Y-5740500D02*
X2689000Y-5625500D01*
X2899000Y-5740500D02*
X2689000Y-5740500D01*
X2899000Y-5625500D02*
X2899000Y-5740500D01*
X3149000Y-5625500D02*
X2899000Y-5625500D01*
X1003400Y-4213000D02*
X888400Y-4213000D01*
X1003400Y-4423000D02*
X1003400Y-4213000D01*
X888400Y-4423000D02*
X1003400Y-4423000D01*
X888400Y-4213000D02*
X888400Y-4078000D01*
X888400Y-4558000D02*
X888400Y-4423000D01*
X888400Y-4558000D02*
X773400Y-4673000D01*
X888400Y-4078000D02*
X773400Y-3963000D01*
X773400Y-4673000D02*
X178400Y-4673000D01*
X773400Y-3963000D02*
X178400Y-3963000D01*
X178400Y-4213000D02*
X178400Y-3963000D01*
X63400Y-4213000D02*
X178400Y-4213000D01*
X63400Y-4423000D02*
X63400Y-4213000D01*
X178400Y-4423000D02*
X63400Y-4423000D01*
X178400Y-4673000D02*
X178400Y-4423000D01*
X6769000Y-1756000D02*
X6884000Y-1756000D01*
X6769000Y-1546000D02*
X6769000Y-1756000D01*
X6884000Y-1546000D02*
X6769000Y-1546000D01*
X6884000Y-1756000D02*
X6884000Y-1891000D01*
X6884000Y-1411000D02*
X6884000Y-1546000D01*
X6884000Y-1411000D02*
X6999000Y-1296000D01*
X6884000Y-1891000D02*
X6999000Y-2006000D01*
X6999000Y-1296000D02*
X7594000Y-1296000D01*
X6999000Y-2006000D02*
X7594000Y-2006000D01*
X7594000Y-1756000D02*
X7594000Y-2006000D01*
X7709000Y-1756000D02*
X7594000Y-1756000D01*
X7709000Y-1546000D02*
X7709000Y-1756000D01*
X7594000Y-1546000D02*
X7709000Y-1546000D01*
X7594000Y-1296000D02*
X7594000Y-1546000D01*
X292000Y-1756000D02*
X407000Y-1756000D01*
X292000Y-1546000D02*
X292000Y-1756000D01*
X407000Y-1546000D02*
X292000Y-1546000D01*
X407000Y-1756000D02*
X407000Y-1891000D01*
X407000Y-1411000D02*
X407000Y-1546000D01*
X407000Y-1411000D02*
X522000Y-1296000D01*
X407000Y-1891000D02*
X522000Y-2006000D01*
X522000Y-1296000D02*
X1117000Y-1296000D01*
X522000Y-2006000D02*
X1117000Y-2006000D01*
X1117000Y-1756000D02*
X1117000Y-2006000D01*
X1232000Y-1756000D02*
X1117000Y-1756000D01*
X1232000Y-1546000D02*
X1232000Y-1756000D01*
X1117000Y-1546000D02*
X1232000Y-1546000D01*
X1117000Y-1296000D02*
X1117000Y-1546000D01*
X4610000Y-1756000D02*
X4725000Y-1756000D01*
X4610000Y-1546000D02*
X4610000Y-1756000D01*
X4725000Y-1546000D02*
X4610000Y-1546000D01*
X4725000Y-1756000D02*
X4725000Y-1891000D01*
X4725000Y-1411000D02*
X4725000Y-1546000D01*
X4725000Y-1411000D02*
X4840000Y-1296000D01*
X4725000Y-1891000D02*
X4840000Y-2006000D01*
X4840000Y-1296000D02*
X5435000Y-1296000D01*
X4840000Y-2006000D02*
X5435000Y-2006000D01*
X5435000Y-1756000D02*
X5435000Y-2006000D01*
X5550000Y-1756000D02*
X5435000Y-1756000D01*
X5550000Y-1546000D02*
X5550000Y-1756000D01*
X5435000Y-1546000D02*
X5550000Y-1546000D01*
X5435000Y-1296000D02*
X5435000Y-1546000D01*
X8928000Y-1756000D02*
X9043000Y-1756000D01*
X8928000Y-1546000D02*
X8928000Y-1756000D01*
X9043000Y-1546000D02*
X8928000Y-1546000D01*
X9043000Y-1756000D02*
X9043000Y-1891000D01*
X9043000Y-1411000D02*
X9043000Y-1546000D01*
X9043000Y-1411000D02*
X9158000Y-1296000D01*
X9043000Y-1891000D02*
X9158000Y-2006000D01*
X9158000Y-1296000D02*
X9753000Y-1296000D01*
X9158000Y-2006000D02*
X9753000Y-2006000D01*
X9753000Y-1756000D02*
X9753000Y-2006000D01*
X9868000Y-1756000D02*
X9753000Y-1756000D01*
X9868000Y-1546000D02*
X9868000Y-1756000D01*
X9753000Y-1546000D02*
X9868000Y-1546000D01*
X9753000Y-1296000D02*
X9753000Y-1546000D01*
X2451000Y-1756000D02*
X2566000Y-1756000D01*
X2451000Y-1546000D02*
X2451000Y-1756000D01*
X2566000Y-1546000D02*
X2451000Y-1546000D01*
X2566000Y-1756000D02*
X2566000Y-1891000D01*
X2566000Y-1411000D02*
X2566000Y-1546000D01*
X2566000Y-1411000D02*
X2681000Y-1296000D01*
X2566000Y-1891000D02*
X2681000Y-2006000D01*
X2681000Y-1296000D02*
X3276000Y-1296000D01*
X2681000Y-2006000D02*
X3276000Y-2006000D01*
X3276000Y-1756000D02*
X3276000Y-2006000D01*
X3391000Y-1756000D02*
X3276000Y-1756000D01*
X3391000Y-1546000D02*
X3391000Y-1756000D01*
X3276000Y-1546000D02*
X3391000Y-1546000D01*
X3276000Y-1296000D02*
X3276000Y-1546000D01*
X11325000Y-1193700D02*
X11325000Y-1308700D01*
X11535000Y-1193700D02*
X11325000Y-1193700D01*
X11535000Y-1308700D02*
X11535000Y-1193700D01*
X11325000Y-1308700D02*
X11190000Y-1308700D01*
X11670000Y-1308700D02*
X11535000Y-1308700D01*
X11670000Y-1308700D02*
X11785000Y-1423700D01*
X11190000Y-1308700D02*
X11075000Y-1423700D01*
X11785000Y-1423700D02*
X11785000Y-2018700D01*
X11075000Y-1423700D02*
X11075000Y-2018700D01*
X11325000Y-2018700D02*
X11075000Y-2018700D01*
X11325000Y-2133700D02*
X11325000Y-2018700D01*
X11535000Y-2133700D02*
X11325000Y-2133700D01*
X11535000Y-2018700D02*
X11535000Y-2133700D01*
X11785000Y-2018700D02*
X11535000Y-2018700D01*
X1111500Y-4185500D02*
X1111500Y-3815500D01*
X1301500Y-4185500D02*
X1111500Y-4185500D01*
X1301500Y-3815500D02*
X1301500Y-4185500D01*
X1111500Y-3815500D02*
X1301500Y-3815500D01*
X2229700Y-2723900D02*
X1859700Y-2723900D01*
X2229700Y-2533900D02*
X2229700Y-2723900D01*
X1859700Y-2533900D02*
X2229700Y-2533900D01*
X1859700Y-2723900D02*
X1859700Y-2533900D01*
X2661500Y-2991100D02*
X2661500Y-3181100D01*
X2661500Y-3181100D02*
X2291500Y-3181100D01*
X2291500Y-3181100D02*
X2291500Y-2991100D01*
X2291500Y-2991100D02*
X2661500Y-2991100D01*
X2661500Y-2762500D02*
X2661500Y-2952500D01*
X2661500Y-2952500D02*
X2291500Y-2952500D01*
X2291500Y-2952500D02*
X2291500Y-2762500D01*
X2291500Y-2762500D02*
X2661500Y-2762500D01*
X1797900Y-2723900D02*
X1427900Y-2723900D01*
X1797900Y-2533900D02*
X1797900Y-2723900D01*
X1427900Y-2533900D02*
X1797900Y-2533900D01*
X1427900Y-2723900D02*
X1427900Y-2533900D01*
X2824000Y-4235700D02*
X3194000Y-4235700D01*
X2824000Y-4425700D02*
X2824000Y-4235700D01*
X3194000Y-4425700D02*
X2824000Y-4425700D01*
X3194000Y-4235700D02*
X3194000Y-4425700D01*
X3194000Y-4477000D02*
X3194000Y-4667000D01*
X3194000Y-4667000D02*
X2824000Y-4667000D01*
X2824000Y-4667000D02*
X2824000Y-4477000D01*
X2824000Y-4477000D02*
X3194000Y-4477000D01*
X3205900Y-4769100D02*
X3575900Y-4769100D01*
X3205900Y-4959100D02*
X3205900Y-4769100D01*
X3575900Y-4959100D02*
X3205900Y-4959100D01*
X3575900Y-4769100D02*
X3575900Y-4959100D01*
X5479800Y-5430100D02*
X5289800Y-5430100D01*
X5289800Y-5430100D02*
X5289800Y-5060100D01*
X5289800Y-5060100D02*
X5479800Y-5060100D01*
X5479800Y-5060100D02*
X5479800Y-5430100D01*
X1963000Y-4858000D02*
X1963000Y-5048000D01*
X1963000Y-5048000D02*
X1593000Y-5048000D01*
X1593000Y-5048000D02*
X1593000Y-4858000D01*
X1593000Y-4858000D02*
X1963000Y-4858000D01*
X2344000Y-5048000D02*
X1974000Y-5048000D01*
X2344000Y-4858000D02*
X2344000Y-5048000D01*
X1974000Y-4858000D02*
X2344000Y-4858000D01*
X1974000Y-5048000D02*
X1974000Y-4858000D01*
X1212000Y-4858000D02*
X1582000Y-4858000D01*
X1212000Y-5048000D02*
X1212000Y-4858000D01*
X1582000Y-5048000D02*
X1212000Y-5048000D01*
X1582000Y-4858000D02*
X1582000Y-5048000D01*
X5849200Y-3943100D02*
X5479200Y-3943100D01*
X5849200Y-3753100D02*
X5849200Y-3943100D01*
X5479200Y-3753100D02*
X5849200Y-3753100D01*
X5479200Y-3943100D02*
X5479200Y-3753100D01*
X5479200Y-3727200D02*
X5479200Y-3537200D01*
X5479200Y-3537200D02*
X5849200Y-3537200D01*
X5849200Y-3537200D02*
X5849200Y-3727200D01*
X5849200Y-3727200D02*
X5479200Y-3727200D01*
X2824900Y-3981700D02*
X3194900Y-3981700D01*
X2824900Y-4171700D02*
X2824900Y-3981700D01*
X3194900Y-4171700D02*
X2824900Y-4171700D01*
X3194900Y-3981700D02*
X3194900Y-4171700D01*
X3194900Y-3740400D02*
X3194900Y-3930400D01*
X3194900Y-3930400D02*
X2824900Y-3930400D01*
X2824900Y-3930400D02*
X2824900Y-3740400D01*
X2824900Y-3740400D02*
X3194900Y-3740400D01*
X7244500Y-6318000D02*
X7244500Y-6128000D01*
X7244500Y-6128000D02*
X7614500Y-6128000D01*
X7614500Y-6128000D02*
X7614500Y-6318000D01*
X7614500Y-6318000D02*
X7244500Y-6318000D01*
X9075000Y-6318000D02*
X8705000Y-6318000D01*
X9075000Y-6128000D02*
X9075000Y-6318000D01*
X8705000Y-6128000D02*
X9075000Y-6128000D01*
X8705000Y-6318000D02*
X8705000Y-6128000D01*
X10165500Y-6381500D02*
X10165500Y-6191500D01*
X10165500Y-6191500D02*
X10535500Y-6191500D01*
X10535500Y-6191500D02*
X10535500Y-6381500D01*
X10535500Y-6381500D02*
X10165500Y-6381500D01*
X2914400Y-2928200D02*
X2724400Y-2928200D01*
X2724400Y-2928200D02*
X2724400Y-2558200D01*
X2724400Y-2558200D02*
X2914400Y-2558200D01*
X2914400Y-2558200D02*
X2914400Y-2928200D01*
X2393100Y-5988300D02*
X2763100Y-5988300D01*
X2393100Y-6178300D02*
X2393100Y-5988300D01*
X2763100Y-6178300D02*
X2393100Y-6178300D01*
X2763100Y-5988300D02*
X2763100Y-6178300D01*
X3473200Y-5928000D02*
X3473200Y-6264000D01*
X3283200Y-5928000D02*
X3473200Y-5928000D01*
X3283200Y-6264000D02*
X3283200Y-5928000D01*
X3473200Y-6264000D02*
X3283200Y-6264000D01*
X749500Y-444500D02*
G75*
G03*
X749500Y-444500I-305000J0D01*
G01*
X749500Y-7048500D02*
G75*
G03*
X749500Y-7048500I-305000J0D01*
G01*
X13830500Y-7058300D02*
G75*
G03*
X13830500Y-7058300I-305000J0D01*
G01*
X13830500Y-444500D02*
G75*
G03*
X13830500Y-444500I-305000J0D01*
G01*
X-725500Y-6480500D02*
X1024500Y-6480500D01*
X-725500Y-4826500D02*
X-725500Y-6480500D01*
X1024500Y-4826500D02*
X-725500Y-4826500D01*
X1024500Y-6480500D02*
X1024500Y-4826500D01*
X1205500Y-6778000D02*
X1261500Y-6778000D01*
X1080500Y-6653000D02*
X1205500Y-6778000D01*
X1080500Y-6485000D02*
X1080500Y-6653000D01*
X1196500Y-6369000D02*
X1080500Y-6485000D01*
X1361500Y-6369000D02*
X1196500Y-6369000D01*
X1361500Y-6369000D02*
X1407500Y-6415000D01*
X2678500Y-6369000D02*
X2794500Y-6485000D01*
X2794500Y-6653000D02*
X2669500Y-6778000D01*
X1261500Y-7337000D02*
X1196500Y-7337000D01*
X1080500Y-7221000D02*
X1196500Y-7337000D01*
X1080500Y-7053000D02*
X1080500Y-7221000D01*
X1196500Y-6937000D02*
X1080500Y-7053000D01*
X1196500Y-6937000D02*
X1261500Y-6937000D01*
X2678500Y-6937000D02*
X2794500Y-7053000D01*
X2613500Y-7337000D02*
X2678500Y-7337000D01*
X2794500Y-6485000D02*
X2794500Y-6653000D01*
X2613500Y-6778000D02*
X2669500Y-6778000D01*
X2613500Y-6937000D02*
X2678500Y-6937000D01*
X2794500Y-7053000D02*
X2794500Y-7221000D01*
X1162500Y-8065000D02*
X1162500Y-8215000D01*
X1261500Y-8065000D02*
X1162500Y-8065000D01*
X1261500Y-7337000D02*
X1261500Y-8065000D01*
X1261500Y-6778000D02*
X1261500Y-6937000D01*
X2613500Y-6778000D02*
X2613500Y-6937000D01*
X2467500Y-6415000D02*
X1407500Y-6415000D01*
X2613500Y-7337000D02*
X2613500Y-8065000D01*
X1162500Y-8215000D02*
X2712500Y-8215000D01*
X2613500Y-8065000D02*
X2712500Y-8065000D01*
X2712500Y-8065000D02*
X2712500Y-8215000D01*
X2678500Y-6369000D02*
X2513500Y-6369000D01*
X2513500Y-6369000D02*
X2467500Y-6415000D01*
X2794500Y-7221000D02*
X2678500Y-7337000D01*
X7999000Y-1486000D02*
X7999000Y-1816000D01*
X7999000Y-1486000D02*
X7749000Y-1486000D01*
X7749000Y-1816000D02*
X7999000Y-1816000D01*
X7749000Y-1816000D02*
X7749000Y-1486000D01*
X8066500Y-1816000D02*
X8066500Y-1486000D01*
X8066500Y-1816000D02*
X8316500Y-1816000D01*
X8316500Y-1486000D02*
X8066500Y-1486000D01*
X8316500Y-1486000D02*
X8316500Y-1816000D01*
X8634000Y-1486000D02*
X8634000Y-1816000D01*
X8634000Y-1486000D02*
X8384000Y-1486000D01*
X8384000Y-1816000D02*
X8634000Y-1816000D01*
X8384000Y-1816000D02*
X8384000Y-1486000D01*
X12215400Y-1790800D02*
X12215400Y-2120800D01*
X12215400Y-1790800D02*
X11965400Y-1790800D01*
X11965400Y-2120800D02*
X12215400Y-2120800D01*
X11965400Y-2120800D02*
X11965400Y-1790800D01*
X12532900Y-1790800D02*
X12532900Y-2120800D01*
X12532900Y-1790800D02*
X12282900Y-1790800D01*
X12282900Y-2120800D02*
X12532900Y-2120800D01*
X12282900Y-2120800D02*
X12282900Y-1790800D01*
X12600400Y-2120800D02*
X12600400Y-1790800D01*
X12600400Y-2120800D02*
X12850400Y-2120800D01*
X12850400Y-1790800D02*
X12600400Y-1790800D01*
X12850400Y-1790800D02*
X12850400Y-2120800D01*
X1272000Y-1814500D02*
X1272000Y-1484500D01*
X1272000Y-1814500D02*
X1522000Y-1814500D01*
X1522000Y-1484500D02*
X1272000Y-1484500D01*
X1522000Y-1484500D02*
X1522000Y-1814500D01*
X1839500Y-1486000D02*
X1839500Y-1816000D01*
X1839500Y-1486000D02*
X1589500Y-1486000D01*
X1589500Y-1816000D02*
X1839500Y-1816000D01*
X1589500Y-1816000D02*
X1589500Y-1486000D01*
X1907000Y-1816000D02*
X1907000Y-1486000D01*
X1907000Y-1816000D02*
X2157000Y-1816000D01*
X2157000Y-1486000D02*
X1907000Y-1486000D01*
X2157000Y-1486000D02*
X2157000Y-1816000D01*
X3431000Y-1816000D02*
X3431000Y-1486000D01*
X3431000Y-1816000D02*
X3681000Y-1816000D01*
X3681000Y-1486000D02*
X3431000Y-1486000D01*
X3681000Y-1486000D02*
X3681000Y-1816000D01*
X3998500Y-1487500D02*
X3998500Y-1817500D01*
X3998500Y-1487500D02*
X3748500Y-1487500D01*
X3748500Y-1817500D02*
X3998500Y-1817500D01*
X3748500Y-1817500D02*
X3748500Y-1487500D01*
X4066000Y-1816000D02*
X4066000Y-1486000D01*
X4066000Y-1816000D02*
X4316000Y-1816000D01*
X4316000Y-1486000D02*
X4066000Y-1486000D01*
X4316000Y-1486000D02*
X4316000Y-1816000D01*
X5840000Y-1486000D02*
X5840000Y-1816000D01*
X5840000Y-1486000D02*
X5590000Y-1486000D01*
X5590000Y-1816000D02*
X5840000Y-1816000D01*
X5590000Y-1816000D02*
X5590000Y-1486000D01*
X5907500Y-1816000D02*
X5907500Y-1486000D01*
X5907500Y-1816000D02*
X6157500Y-1816000D01*
X6157500Y-1486000D02*
X5907500Y-1486000D01*
X6157500Y-1486000D02*
X6157500Y-1816000D01*
X6225000Y-1816000D02*
X6225000Y-1486000D01*
X6225000Y-1816000D02*
X6475000Y-1816000D01*
X6475000Y-1486000D02*
X6225000Y-1486000D01*
X6475000Y-1486000D02*
X6475000Y-1816000D01*
X10158000Y-1486000D02*
X10158000Y-1816000D01*
X10158000Y-1486000D02*
X9908000Y-1486000D01*
X9908000Y-1816000D02*
X10158000Y-1816000D01*
X9908000Y-1816000D02*
X9908000Y-1486000D01*
X10475500Y-1486000D02*
X10475500Y-1816000D01*
X10475500Y-1486000D02*
X10225500Y-1486000D01*
X10225500Y-1816000D02*
X10475500Y-1816000D01*
X10225500Y-1816000D02*
X10225500Y-1486000D01*
X10543000Y-1816000D02*
X10543000Y-1486000D01*
X10543000Y-1816000D02*
X10793000Y-1816000D01*
X10793000Y-1486000D02*
X10543000Y-1486000D01*
X10793000Y-1486000D02*
X10793000Y-1816000D01*
X2745500Y-3552500D02*
X2745500Y-4702500D01*
X2670500Y-4777500D02*
X1520500Y-4777500D01*
X1445500Y-4702500D02*
X1445500Y-3552500D01*
X1520500Y-3477500D02*
X2670500Y-3477500D01*
X2670500Y-3477500D02*
G75*
G02*
X2745500Y-3552500I0J-75000D01*
G01*
X2745500Y-4702500D02*
G75*
G02*
X2670500Y-4777500I-75000J0D01*
G01*
X1520500Y-4777500D02*
G75*
G02*
X1445500Y-4702500I0J75000D01*
G01*
X1445500Y-3552500D02*
G75*
G02*
X1520500Y-3477500I75000J0D01*
G01*
X11360000Y-2495700D02*
X11360000Y-3625700D01*
X11360000Y-3625700D02*
X13024000Y-3625700D01*
X13024000Y-3625700D02*
X13024000Y-2495700D01*
X13024000Y-2495700D02*
X11360000Y-2495700D01*
X13015500Y-3687600D02*
X11351500Y-3687600D01*
X13015500Y-4817600D02*
X13015500Y-3687600D01*
X11351500Y-4817600D02*
X13015500Y-4817600D01*
X11351500Y-3687600D02*
X11351500Y-4817600D01*
X13056000Y-4894100D02*
X11392000Y-4894100D01*
X13056000Y-6024100D02*
X13056000Y-4894100D01*
X11392000Y-6024100D02*
X13056000Y-6024100D01*
X11392000Y-4894100D02*
X11392000Y-6024100D01*
X11390800Y-6127900D02*
X11390800Y-7257900D01*
X11390800Y-7257900D02*
X13054800Y-7257900D01*
X13054800Y-7257900D02*
X13054800Y-6127900D01*
X13054800Y-6127900D02*
X11390800Y-6127900D01*
X11081000Y-2979000D02*
X11081000Y-2609000D01*
X11271000Y-2979000D02*
X11081000Y-2979000D01*
X11271000Y-2609000D02*
X11271000Y-2979000D01*
X11081000Y-2609000D02*
X11271000Y-2609000D01*
X11081000Y-3815500D02*
X11271000Y-3815500D01*
X11271000Y-3815500D02*
X11271000Y-4185500D01*
X11271000Y-4185500D02*
X11081000Y-4185500D01*
X11081000Y-4185500D02*
X11081000Y-3815500D01*
X11081000Y-5392000D02*
X11081000Y-5022000D01*
X11271000Y-5392000D02*
X11081000Y-5392000D01*
X11271000Y-5022000D02*
X11271000Y-5392000D01*
X11081000Y-5022000D02*
X11271000Y-5022000D01*
X11081000Y-6623000D02*
X11081000Y-6253000D01*
X11271000Y-6623000D02*
X11081000Y-6623000D01*
X11271000Y-6253000D02*
X11271000Y-6623000D01*
X11081000Y-6253000D02*
X11271000Y-6253000D01*
X11271000Y-3487000D02*
X11081000Y-3487000D01*
X11081000Y-3487000D02*
X11081000Y-3117000D01*
X11081000Y-3117000D02*
X11271000Y-3117000D01*
X11271000Y-3117000D02*
X11271000Y-3487000D01*
X11271000Y-4323500D02*
X11271000Y-4693500D01*
X11081000Y-4323500D02*
X11271000Y-4323500D01*
X11081000Y-4693500D02*
X11081000Y-4323500D01*
X11271000Y-4693500D02*
X11081000Y-4693500D01*
X11271000Y-5530000D02*
X11271000Y-5900000D01*
X11081000Y-5530000D02*
X11271000Y-5530000D01*
X11081000Y-5900000D02*
X11081000Y-5530000D01*
X11271000Y-5900000D02*
X11081000Y-5900000D01*
X11271000Y-7106500D02*
X11081000Y-7106500D01*
X11081000Y-7106500D02*
X11081000Y-6736500D01*
X11081000Y-6736500D02*
X11271000Y-6736500D01*
X11271000Y-6736500D02*
X11271000Y-7106500D01*
X7244500Y-6635500D02*
X7244500Y-6445500D01*
X7244500Y-6445500D02*
X7614500Y-6445500D01*
X7614500Y-6445500D02*
X7614500Y-6635500D01*
X7614500Y-6635500D02*
X7244500Y-6635500D01*
X9075000Y-6635500D02*
X8705000Y-6635500D01*
X9075000Y-6445500D02*
X9075000Y-6635500D01*
X8705000Y-6445500D02*
X9075000Y-6445500D01*
X8705000Y-6635500D02*
X8705000Y-6445500D01*
X10535500Y-6699000D02*
X10165500Y-6699000D01*
X10535500Y-6509000D02*
X10535500Y-6699000D01*
X10165500Y-6509000D02*
X10535500Y-6509000D01*
X10165500Y-6699000D02*
X10165500Y-6509000D01*
X2662400Y-2533900D02*
X2662400Y-2723900D01*
X2662400Y-2723900D02*
X2292400Y-2723900D01*
X2292400Y-2723900D02*
X2292400Y-2533900D01*
X2292400Y-2533900D02*
X2662400Y-2533900D01*
X2724400Y-3002700D02*
X2914400Y-3002700D01*
X2914400Y-3002700D02*
X2914400Y-3372700D01*
X2914400Y-3372700D02*
X2724400Y-3372700D01*
X2724400Y-3372700D02*
X2724400Y-3002700D01*
X2291500Y-3409700D02*
X2291500Y-3219700D01*
X2291500Y-3219700D02*
X2661500Y-3219700D01*
X2661500Y-3219700D02*
X2661500Y-3409700D01*
X2661500Y-3409700D02*
X2291500Y-3409700D01*
X2114800Y-5898300D02*
X2304800Y-5898300D01*
X2304800Y-5898300D02*
X2304800Y-6268300D01*
X2304800Y-6268300D02*
X2114800Y-6268300D01*
X2114800Y-6268300D02*
X2114800Y-5898300D01*
X3283200Y-6687400D02*
X3283200Y-6317400D01*
X3473200Y-6687400D02*
X3283200Y-6687400D01*
X3473200Y-6317400D02*
X3473200Y-6687400D01*
X3283200Y-6317400D02*
X3473200Y-6317400D01*
X6964300Y-3367200D02*
X6964300Y-2627200D01*
X5964300Y-3367200D02*
X6964300Y-3367200D01*
X5964300Y-2627200D02*
X5964300Y-3367200D01*
X6964300Y-2627200D02*
X5964300Y-2627200D01*
X6421500Y-6620000D02*
X7167500Y-6620000D01*
X6421500Y-6080000D02*
X7167500Y-6080000D01*
X7167500Y-6080000D02*
X7167500Y-6620000D01*
X6421500Y-6080000D02*
X6421500Y-6620000D01*
X7882000Y-6080000D02*
X7882000Y-6620000D01*
X8628000Y-6080000D02*
X8628000Y-6620000D01*
X7882000Y-6080000D02*
X8628000Y-6080000D01*
X7882000Y-6620000D02*
X8628000Y-6620000D01*
X9342500Y-6620000D02*
X10088500Y-6620000D01*
X9342500Y-6080000D02*
X10088500Y-6080000D01*
X10088500Y-6080000D02*
X10088500Y-6620000D01*
X9342500Y-6080000D02*
X9342500Y-6620000D01*
X3001700Y-2611800D02*
X3001700Y-3331800D01*
X3001700Y-3331800D02*
X3881700Y-3331800D01*
X3881700Y-3331800D02*
X3881700Y-2611800D01*
X3881700Y-2611800D02*
X3001700Y-2611800D01*
X1441100Y-3386500D02*
X2191100Y-3386500D01*
X1441100Y-2836500D02*
X2191100Y-2836500D01*
X2191100Y-2836500D02*
X2191100Y-3386500D01*
X1441100Y-2836500D02*
X1441100Y-3386500D01*
X2298000Y-5806000D02*
X2298000Y-5116000D01*
X1258000Y-5806000D02*
X1258000Y-5116000D01*
X1258000Y-5116000D02*
X2298000Y-5116000D01*
X1258000Y-5806000D02*
X2298000Y-5806000D01*
X6359800Y-6776200D02*
X6359800Y-7451200D01*
X6359800Y-7451200D02*
X7699800Y-7451200D01*
X7699800Y-7451200D02*
X7699800Y-6776200D01*
X7699800Y-6776200D02*
X6359800Y-6776200D01*
X9147600Y-6776200D02*
X7807600Y-6776200D01*
X9147600Y-7451200D02*
X9147600Y-6776200D01*
X7807600Y-7451200D02*
X9147600Y-7451200D01*
X7807600Y-6776200D02*
X7807600Y-7451200D01*
X9268100Y-6776200D02*
X9268100Y-7451200D01*
X9268100Y-7451200D02*
X10608100Y-7451200D01*
X10608100Y-7451200D02*
X10608100Y-6776200D01*
X10608100Y-6776200D02*
X9268100Y-6776200D01*
X7083000Y-793000D02*
X8423000Y-793000D01*
X7083000Y-118000D02*
X7083000Y-793000D01*
X8423000Y-118000D02*
X7083000Y-118000D01*
X8423000Y-793000D02*
X8423000Y-118000D01*
X12741000Y-793000D02*
X12741000Y-118000D01*
X12741000Y-118000D02*
X11401000Y-118000D01*
X11401000Y-118000D02*
X11401000Y-793000D01*
X11401000Y-793000D02*
X12741000Y-793000D01*
X2200000Y-793000D02*
X2200000Y-118000D01*
X2200000Y-118000D02*
X860000Y-118000D01*
X860000Y-118000D02*
X860000Y-793000D01*
X860000Y-793000D02*
X2200000Y-793000D01*
X4105000Y-793000D02*
X4105000Y-118000D01*
X4105000Y-118000D02*
X2765000Y-118000D01*
X2765000Y-118000D02*
X2765000Y-793000D01*
X2765000Y-793000D02*
X4105000Y-793000D01*
X3934100Y-6776200D02*
X3934100Y-7451200D01*
X3934100Y-7451200D02*
X5024100Y-7451200D01*
X5024100Y-7451200D02*
X5024100Y-6776200D01*
X5024100Y-6776200D02*
X3934100Y-6776200D01*
X3934100Y-5976100D02*
X3934100Y-6651100D01*
X3934100Y-6651100D02*
X5024100Y-6651100D01*
X5024100Y-6651100D02*
X5024100Y-5976100D01*
X5024100Y-5976100D02*
X3934100Y-5976100D01*
X13113500Y-2630000D02*
X13113500Y-3470000D01*
X13788500Y-2630000D02*
X13113500Y-2630000D01*
X13788500Y-3470000D02*
X13788500Y-2630000D01*
X13113500Y-3470000D02*
X13788500Y-3470000D01*
X13113500Y-4486000D02*
X13788500Y-4486000D01*
X13788500Y-4486000D02*
X13788500Y-3646000D01*
X13788500Y-3646000D02*
X13113500Y-3646000D01*
X13113500Y-3646000D02*
X13113500Y-4486000D01*
X13117500Y-4662000D02*
X13117500Y-5502000D01*
X13792500Y-4662000D02*
X13117500Y-4662000D01*
X13792500Y-5502000D02*
X13792500Y-4662000D01*
X13117500Y-5502000D02*
X13792500Y-5502000D01*
X13113500Y-6518000D02*
X13788500Y-6518000D01*
X13788500Y-6518000D02*
X13788500Y-5678000D01*
X13788500Y-5678000D02*
X13113500Y-5678000D01*
X13113500Y-5678000D02*
X13113500Y-6518000D01*
X5140600Y-6776200D02*
X5140600Y-7451200D01*
X5140600Y-7451200D02*
X6230600Y-7451200D01*
X6230600Y-7451200D02*
X6230600Y-6776200D01*
X6230600Y-6776200D02*
X5140600Y-6776200D01*
X6230600Y-5976100D02*
X5140600Y-5976100D01*
X6230600Y-6651100D02*
X6230600Y-5976100D01*
X5140600Y-6651100D02*
X6230600Y-6651100D01*
X5140600Y-5976100D02*
X5140600Y-6651100D01*
X8071600Y-4714600D02*
X8746600Y-4714600D01*
X8746600Y-4714600D02*
X8746600Y-3624600D01*
X8746600Y-3624600D02*
X8071600Y-3624600D01*
X8071600Y-3624600D02*
X8071600Y-4714600D01*
X8846300Y-3624600D02*
X8846300Y-4714600D01*
X9521300Y-3624600D02*
X8846300Y-3624600D01*
X9521300Y-4714600D02*
X9521300Y-3624600D01*
X8846300Y-4714600D02*
X9521300Y-4714600D01*
X8071600Y-4793000D02*
X8071600Y-5883000D01*
X8746600Y-4793000D02*
X8071600Y-4793000D01*
X8746600Y-5883000D02*
X8746600Y-4793000D01*
X8071600Y-5883000D02*
X8746600Y-5883000D01*
X4924000Y-793000D02*
X6264000Y-793000D01*
X4924000Y-118000D02*
X4924000Y-793000D01*
X6264000Y-118000D02*
X4924000Y-118000D01*
X6264000Y-793000D02*
X6264000Y-118000D01*
X9242000Y-793000D02*
X10582000Y-793000D01*
X9242000Y-118000D02*
X9242000Y-793000D01*
X10582000Y-118000D02*
X9242000Y-118000D01*
X10582000Y-793000D02*
X10582000Y-118000D01*
X13253200Y-2212700D02*
X13928200Y-2212700D01*
X13928200Y-2212700D02*
X13928200Y-872700D01*
X13928200Y-872700D02*
X13253200Y-872700D01*
X13253200Y-872700D02*
X13253200Y-2212700D01*
X7284200Y-4793000D02*
X7284200Y-5883000D01*
X7959200Y-4793000D02*
X7284200Y-4793000D01*
X7959200Y-5883000D02*
X7959200Y-4793000D01*
X7284200Y-5883000D02*
X7959200Y-5883000D01*
X8850300Y-5883000D02*
X9525300Y-5883000D01*
X9525300Y-5883000D02*
X9525300Y-4793000D01*
X9525300Y-4793000D02*
X8850300Y-4793000D01*
X8850300Y-4793000D02*
X8850300Y-5883000D01*
X7284200Y-3624600D02*
X7284200Y-4714600D01*
X7959200Y-3624600D02*
X7284200Y-3624600D01*
X7959200Y-4714600D02*
X7959200Y-3624600D01*
X7284200Y-4714600D02*
X7959200Y-4714600D01*
X8376900Y-2877300D02*
X7286900Y-2877300D01*
X8376900Y-3552300D02*
X8376900Y-2877300D01*
X7286900Y-3552300D02*
X8376900Y-3552300D01*
X7286900Y-2877300D02*
X7286900Y-3552300D01*
X8429900Y-2877300D02*
X8429900Y-3552300D01*
X8429900Y-3552300D02*
X9519900Y-3552300D01*
X9519900Y-3552300D02*
X9519900Y-2877300D01*
X9519900Y-2877300D02*
X8429900Y-2877300D01*
X4751800Y-2933600D02*
X4751800Y-2603600D01*
X4751800Y-2933600D02*
X5001800Y-2933600D01*
X5001800Y-2603600D02*
X4751800Y-2603600D01*
X5001800Y-2603600D02*
X5001800Y-2933600D01*
X4002500Y-5753000D02*
X4002500Y-5423000D01*
X4002500Y-5753000D02*
X4252500Y-5753000D01*
X4252500Y-5423000D02*
X4002500Y-5423000D01*
X4252500Y-5423000D02*
X4252500Y-5753000D01*
X4273800Y-5403000D02*
X4463800Y-5403000D01*
X4463800Y-5403000D02*
X4463800Y-5773000D01*
X4463800Y-5773000D02*
X4273800Y-5773000D01*
X4273800Y-5773000D02*
X4273800Y-5403000D01*
X4781800Y-3360000D02*
X4781800Y-2990000D01*
X4971800Y-3360000D02*
X4781800Y-3360000D01*
X4971800Y-2990000D02*
X4971800Y-3360000D01*
X4781800Y-2990000D02*
X4971800Y-2990000D01*
X3505900Y-4162400D02*
X3275900Y-4162400D01*
X3505900Y-3762400D02*
X3275900Y-3762400D01*
X3275900Y-3762400D02*
X3275900Y-4162400D01*
X3505900Y-3762400D02*
X3505900Y-4162400D01*
X3560900Y-4239300D02*
X3220900Y-4239300D01*
X3220900Y-4239300D02*
X3220900Y-4659300D01*
X3220900Y-4659300D02*
X3560900Y-4659300D01*
X3560900Y-4659300D02*
X3560900Y-4239300D01*
X1683200Y-5913300D02*
X1263200Y-5913300D01*
X1683200Y-6253300D02*
X1683200Y-5913300D01*
X1263200Y-6253300D02*
X1683200Y-6253300D01*
X1263200Y-5913300D02*
X1263200Y-6253300D01*
X3193800Y-6264000D02*
X3003800Y-6264000D01*
X3003800Y-6264000D02*
X3003800Y-5928000D01*
X3003800Y-5928000D02*
X3193800Y-5928000D01*
X3193800Y-5928000D02*
X3193800Y-6264000D01*
X3752600Y-5928000D02*
X3752600Y-6264000D01*
X3562600Y-5928000D02*
X3752600Y-5928000D01*
X3562600Y-6264000D02*
X3562600Y-5928000D01*
X3752600Y-6264000D02*
X3562600Y-6264000D01*
X3003800Y-6317400D02*
X3193800Y-6317400D01*
X3193800Y-6317400D02*
X3193800Y-6687400D01*
X3193800Y-6687400D02*
X3003800Y-6687400D01*
X3003800Y-6687400D02*
X3003800Y-6317400D01*
X3562600Y-6687400D02*
X3562600Y-6317400D01*
X3752600Y-6687400D02*
X3562600Y-6687400D01*
X3752600Y-6317400D02*
X3752600Y-6687400D01*
X3562600Y-6317400D02*
X3752600Y-6317400D01*
X8788000Y-863000D02*
X8788000Y-2437000D01*
X8788000Y-863000D02*
X6706000Y-863000D01*
X6706000Y-2437000D02*
X8788000Y-2437000D01*
X6706000Y-2437000D02*
X6706000Y-863000D01*
X11024000Y-2437000D02*
X11024000Y-863000D01*
X11024000Y-2437000D02*
X13106000Y-2437000D01*
X13106000Y-863000D02*
X11024000Y-863000D01*
X13106000Y-863000D02*
X13106000Y-2437000D01*
X229000Y-2437000D02*
X229000Y-863000D01*
X229000Y-2437000D02*
X2311000Y-2437000D01*
X2311000Y-863000D02*
X229000Y-863000D01*
X2311000Y-863000D02*
X2311000Y-2437000D01*
X4470000Y-863000D02*
X4470000Y-2437000D01*
X4470000Y-863000D02*
X2388000Y-863000D01*
X2388000Y-2437000D02*
X4470000Y-2437000D01*
X2388000Y-2437000D02*
X2388000Y-863000D01*
X4547000Y-2437000D02*
X4547000Y-863000D01*
X4547000Y-2437000D02*
X6629000Y-2437000D01*
X6629000Y-863000D02*
X4547000Y-863000D01*
X6629000Y-863000D02*
X6629000Y-2437000D01*
X10947000Y-863000D02*
X10947000Y-2437000D01*
X10947000Y-863000D02*
X8865000Y-863000D01*
X8865000Y-2437000D02*
X10947000Y-2437000D01*
X8865000Y-2437000D02*
X8865000Y-863000D01*
X3796200Y-6776200D02*
X2956200Y-6776200D01*
X3796200Y-7451200D02*
X3796200Y-6776200D01*
X2956200Y-7451200D02*
X3796200Y-7451200D01*
X2956200Y-6776200D02*
X2956200Y-7451200D01*
M02*
