M48
METRIC
T1C0.300
T2C0.400
T3C0.500
T4C0.800
T5C0.920
T6C0.950
T7C1.000
T8C2.300
T9C2.330
T10C3.200
%
G90
G05
T1
X17.561Y-29.315
X17.561Y-30.515
X17.561Y-31.815
X17.561Y-32.915
X18.761Y-29.315
X18.761Y-30.515
X18.761Y-31.815
X18.761Y-32.915
T2
X0.889Y-18.542
X0.889Y-19.939
X0.889Y-21.209
X0.889Y-22.733
X0.889Y-24.13
X0.889Y-25.654
X1.651Y-43.18
X2.159Y-20.32
X2.159Y-21.59
X2.159Y-23.114
X2.159Y-24.638
X2.667Y-40.894
X2.667Y-45.466
X2.921Y-19.304
X3.048Y-25.4
X3.81Y-43.18
X7.62Y-16.51
X8.034Y-43.18
X9.144Y-16.51
X10.287Y-18.288
X11.303Y-16.51
X13.335Y-32.258
X13.589Y-29.21
X13.589Y-53.594
X14.986Y-47.879
X18.161Y-53.467
X19.457Y-58.547
X20.066Y-59.69
X22.87Y-54.112
X23.612Y-54.854
X24.003Y-49.53
X27.813Y-47.244
X29.21Y-16.51
X30.861Y-16.51
X31.242Y-48.641
X31.877Y-18.288
X33.02Y-16.51
X34.544Y-42.545
X35.687Y-37.465
X35.814Y-39.122
X35.941Y-50.165
X36.195Y-48.768
X36.263Y-40.572
X37.338Y-53.086
X37.465Y-36.957
X37.465Y-51.054
X39.37Y-38.608
X39.37Y-39.878
X39.497Y-41.91
X39.497Y-45.72
X39.878Y-47.117
X40.513Y-43.017
X40.767Y-45.72
X41.148Y-34.671
X41.148Y-53.594
X41.402Y-37.973
X41.402Y-48.768
X41.402Y-49.911
X41.656Y-41.91
X41.91Y-44.958
X42.164Y-38.735
X42.291Y-53.721
X42.926Y-42.672
X43.312Y-48.763
X43.434Y-38.989
X43.942Y-53.213
X44.704Y-38.862
X45.212Y-34.544
X45.212Y-49.911
X45.847Y-38.989
X46.55Y-47.575
X46.845Y-40.368
X46.877Y-32.907
X47.163Y-37.719
X47.244Y-38.862
X47.498Y-34.417
X47.602Y-48.628
X48.26Y-49.381
X49.022Y-37.719
X49.081Y-50.106
X49.784Y-53.594
X50.038Y-47.625
X50.165Y-39.497
X50.673Y-33.528
X50.8Y-16.51
X50.8Y-54.483
X51.054Y-48.387
X51.435Y-39.116
X51.435Y-47.244
X52.451Y-16.51
X52.705Y-33.782
X53.467Y-18.288
X54.483Y-16.51
X54.61Y-37.465
X54.932Y-45.779
X55.755Y-45.211
X56.007Y-34.798
X56.642Y-58.801
X57.023Y-44.704
X57.087Y-57.848
X57.404Y-59.462
X57.785Y-43.815
X58.928Y-43.688
X58.982Y-42.689
X59.182Y-31.877
X59.944Y-42.418
X61.087Y-50.292
X62.23Y-35.687
X62.738Y-32.258
X64.516Y-42.164
X64.77Y-31.369
X69.469Y-50.038
X70.993Y-41.402
X71.12Y-29.972
X72.263Y-16.51
X74.041Y-16.51
X75.057Y-18.415
X76.2Y-16.51
X77.724Y-63.881
X77.724Y-65.532
X81.407Y-64.135
X92.71Y-61.595
X92.71Y-64.135
X92.71Y-65.405
X93.98Y-16.51
X95.758Y-16.51
X96.647Y-18.288
X97.79Y-16.51
X110.109Y-38.989
X110.236Y-26.924
X111.76Y-49.784
X111.76Y-61.976
X112.014Y-16.637
X112.014Y-18.415
X113.665Y-16.637
X114.3Y-18.034
X114.3Y-19.431
X114.554Y-34.417
X114.554Y-46.482
X114.681Y-70.866
X114.808Y-58.547
X117.729Y-34.417
X117.729Y-46.482
X118.237Y-58.547
X118.364Y-70.993
X122.301Y-26.797
X122.301Y-34.544
X122.301Y-38.735
X122.301Y-46.482
X122.555Y-50.673
X122.555Y-58.674
X122.555Y-62.865
X122.555Y-70.993
X125.476Y-66.929
X125.603Y-30.734
X125.603Y-42.545
X125.603Y-54.61
X128.651Y-26.797
X128.651Y-34.544
X128.905Y-38.735
X128.905Y-46.609
X128.905Y-70.993
X129.032Y-50.673
X129.032Y-58.674
X129.032Y-62.865
X131.445Y-10.287
X133.604Y-22.352
X134.683Y-23.431
X135.763Y-24.511
X136.843Y-25.59
T3
X33.782Y-58.166
X36.576Y-58.166
X30.988Y-58.166
T4
X68.58Y-10.16
X68.58Y-22.86
X71.12Y-10.16
X71.12Y-22.86
X73.66Y-10.16
X73.66Y-22.86
X76.2Y-10.16
X76.2Y-22.86
X78.74Y-10.16
X78.74Y-22.86
X81.28Y-10.16
X81.28Y-22.86
X83.82Y-10.16
X83.82Y-22.86
X86.36Y-10.16
X86.36Y-22.86
X111.76Y-10.16
X111.76Y-22.86
X114.3Y-10.16
X114.3Y-22.86
X116.84Y-10.16
X116.84Y-22.86
X119.38Y-10.16
X119.38Y-22.86
X121.92Y-10.16
X121.92Y-22.86
X124.46Y-10.16
X124.46Y-22.86
X127.0Y-10.16
X127.0Y-22.86
X129.54Y-10.16
X129.54Y-22.86
X3.81Y-10.16
X3.81Y-22.86
X6.35Y-10.16
X6.35Y-22.86
X8.89Y-10.16
X8.89Y-22.86
X11.43Y-10.16
X11.43Y-22.86
X13.97Y-10.16
X13.97Y-22.86
X16.51Y-10.16
X16.51Y-22.86
X19.05Y-10.16
X19.05Y-22.86
X21.59Y-10.16
X21.59Y-22.86
X46.99Y-10.16
X46.99Y-22.86
X49.53Y-10.16
X49.53Y-22.86
X52.07Y-10.16
X52.07Y-22.86
X54.61Y-10.16
X54.61Y-22.86
X57.15Y-10.16
X57.15Y-22.86
X59.69Y-10.16
X59.69Y-22.86
X62.23Y-10.16
X62.23Y-22.86
X64.77Y-10.16
X64.77Y-22.86
X25.4Y-10.16
X25.4Y-22.86
X27.94Y-10.16
X27.94Y-22.86
X30.48Y-10.16
X30.48Y-22.86
X33.02Y-10.16
X33.02Y-22.86
X35.56Y-10.16
X35.56Y-22.86
X38.1Y-10.16
X38.1Y-22.86
X40.64Y-10.16
X40.64Y-22.86
X43.18Y-10.16
X43.18Y-22.86
X90.17Y-10.16
X90.17Y-22.86
X92.71Y-10.16
X92.71Y-22.86
X95.25Y-10.16
X95.25Y-22.86
X97.79Y-10.16
X97.79Y-22.86
X100.33Y-10.16
X100.33Y-22.86
X102.87Y-10.16
X102.87Y-22.86
X105.41Y-10.16
X105.41Y-22.86
X107.95Y-10.16
X107.95Y-22.86
T5
X6.255Y-55.285
X6.255Y-57.785
X8.255Y-55.285
X8.255Y-57.785
X15.875Y-66.04
X15.875Y-68.66
X18.375Y-66.04
X18.375Y-68.66
X20.375Y-66.04
X20.375Y-68.66
X22.875Y-66.04
X22.875Y-68.66
T6
X75.692Y-50.88
X75.692Y-53.38
X75.692Y-55.88
X106.045Y-48.42
X106.045Y-50.92
X106.045Y-53.42
X106.045Y-55.92
X106.045Y-58.42
X81.026Y-70.612
X83.526Y-70.612
X86.026Y-70.612
X88.526Y-70.612
X98.806Y-48.38
X98.806Y-50.88
X98.806Y-53.38
X98.806Y-55.88
X83.566Y-50.88
X83.566Y-53.38
X83.566Y-55.88
X95.631Y-70.612
X98.131Y-70.612
X100.631Y-70.612
X103.131Y-70.612
X87.249Y-31.623
X89.749Y-31.623
X92.249Y-31.623
X54.356Y-62.611
X56.856Y-62.611
X59.356Y-62.611
X42.291Y-62.611
X44.791Y-62.611
X47.291Y-62.611
X66.548Y-70.612
X69.048Y-70.612
X71.548Y-70.612
X74.048Y-70.612
X98.806Y-28.775
X98.806Y-31.275
X98.806Y-33.775
X98.806Y-36.275
X98.806Y-38.775
X98.806Y-41.275
X73.78Y-5.08
X76.28Y-5.08
X78.78Y-5.08
X81.28Y-5.08
X54.356Y-70.612
X56.856Y-70.612
X59.356Y-70.612
X11.55Y-5.08
X14.05Y-5.08
X16.55Y-5.08
X19.05Y-5.08
X91.313Y-39.196
X91.313Y-41.696
X91.313Y-44.196
X116.96Y-5.08
X119.46Y-5.08
X121.96Y-5.08
X124.46Y-5.08
X75.819Y-31.623
X78.319Y-31.623
X80.819Y-31.623
X30.6Y-5.08
X33.1Y-5.08
X35.6Y-5.08
X38.1Y-5.08
X75.692Y-39.196
X75.692Y-41.696
X75.692Y-44.196
X42.291Y-70.612
X44.791Y-70.612
X47.291Y-70.612
X83.566Y-39.196
X83.566Y-41.696
X83.566Y-44.196
X91.353Y-50.88
X91.353Y-53.38
X91.353Y-55.88
X95.37Y-5.08
X97.87Y-5.08
X100.37Y-5.08
X102.87Y-5.08
X52.19Y-5.08
X54.69Y-5.08
X57.19Y-5.08
X59.69Y-5.08
X106.045Y-28.775
X106.045Y-31.275
X106.045Y-33.775
X106.045Y-36.275
X106.045Y-38.775
X106.045Y-41.275
X135.382Y-11.677
X135.382Y-14.177
X135.382Y-16.677
X135.382Y-19.177
T7
X133.985Y-29.25
X133.985Y-31.75
X133.985Y-59.73
X133.985Y-62.23
X32.512Y-70.612
X35.012Y-70.612
X133.985Y-39.41
X133.985Y-41.91
X134.025Y-49.57
X134.025Y-52.07
T8
X12.805Y-65.69
X12.805Y-71.37
X25.945Y-65.69
X25.945Y-71.37
T9
X3.545Y-50.515
X3.545Y-62.555
T10
X4.445Y-4.445
X4.445Y-70.485
X135.255Y-70.583
X135.255Y-4.445
T7
G00X4.16Y-30.115
M15
G01X4.16Y-32.115
M16
G05
G00X6.16Y-35.815
M15
G01X8.16Y-35.815
M16
G05
G00X10.16Y-30.115
M15
G01X10.16Y-32.115
M16
G05
T0
M30
