%TF.GenerationSoftware,KiCad,Pcbnew,5.1.7+dfsg1-1~bpo10+1*%
%TF.CreationDate,2020-11-15T21:32:24+00:00*%
%TF.ProjectId,mobo,6d6f626f-2e6b-4696-9361-645f70636258,rev?*%
%TF.SameCoordinates,Original*%
%TF.FileFunction,Paste,Top*%
%TF.FilePolarity,Positive*%
%FSLAX45Y45*%
G04 Gerber Fmt 4.5, Leading zero omitted, Abs format (unit mm)*
G04 Created by KiCad (PCBNEW 5.1.7+dfsg1-1~bpo10+1) date 2020-11-15 21:32:24*
%MOMM*%
%LPD*%
G01*
G04 APERTURE LIST*
%TA.AperFunction,Profile*%
%ADD10C,0.050000*%
%TD*%
%ADD11R,2.400000X0.740000*%
%ADD12R,2.900000X5.400000*%
%ADD13R,4.600000X1.100000*%
%ADD14R,4.550000X5.250000*%
%ADD15R,1.550000X1.300000*%
%ADD16R,1.550000X0.600000*%
%ADD17R,2.000000X1.500000*%
%ADD18R,2.000000X3.800000*%
%ADD19R,2.600000X3.100000*%
%ADD20R,0.400000X1.200000*%
%ADD21R,1.800000X1.000000*%
%ADD22R,1.200000X1.400000*%
%ADD23R,1.400000X1.200000*%
%ADD24R,1.524000X2.540000*%
G04 APERTURE END LIST*
D10*
X0Y-7467600D02*
X13970000Y-7467600D01*
X13970000Y-7467600D02*
X13970000Y0D01*
X13970000Y0D02*
X0Y0D01*
X0Y0D02*
X0Y-7467600D01*
G36*
G01*
X3928800Y-3694800D02*
X3928800Y-3549800D01*
G75*
G02*
X3936300Y-3542300I7500J0D01*
G01*
X3951300Y-3542300D01*
G75*
G02*
X3958800Y-3549800I0J-7500D01*
G01*
X3958800Y-3694800D01*
G75*
G02*
X3951300Y-3702300I-7500J0D01*
G01*
X3936300Y-3702300D01*
G75*
G02*
X3928800Y-3694800I0J7500D01*
G01*
G37*
G36*
G01*
X3978800Y-3694800D02*
X3978800Y-3549800D01*
G75*
G02*
X3986300Y-3542300I7500J0D01*
G01*
X4001300Y-3542300D01*
G75*
G02*
X4008800Y-3549800I0J-7500D01*
G01*
X4008800Y-3694800D01*
G75*
G02*
X4001300Y-3702300I-7500J0D01*
G01*
X3986300Y-3702300D01*
G75*
G02*
X3978800Y-3694800I0J7500D01*
G01*
G37*
G36*
G01*
X4028800Y-3694800D02*
X4028800Y-3549800D01*
G75*
G02*
X4036300Y-3542300I7500J0D01*
G01*
X4051300Y-3542300D01*
G75*
G02*
X4058800Y-3549800I0J-7500D01*
G01*
X4058800Y-3694800D01*
G75*
G02*
X4051300Y-3702300I-7500J0D01*
G01*
X4036300Y-3702300D01*
G75*
G02*
X4028800Y-3694800I0J7500D01*
G01*
G37*
G36*
G01*
X4078800Y-3694800D02*
X4078800Y-3549800D01*
G75*
G02*
X4086300Y-3542300I7500J0D01*
G01*
X4101300Y-3542300D01*
G75*
G02*
X4108800Y-3549800I0J-7500D01*
G01*
X4108800Y-3694800D01*
G75*
G02*
X4101300Y-3702300I-7500J0D01*
G01*
X4086300Y-3702300D01*
G75*
G02*
X4078800Y-3694800I0J7500D01*
G01*
G37*
G36*
G01*
X4128800Y-3694800D02*
X4128800Y-3549800D01*
G75*
G02*
X4136300Y-3542300I7500J0D01*
G01*
X4151300Y-3542300D01*
G75*
G02*
X4158800Y-3549800I0J-7500D01*
G01*
X4158800Y-3694800D01*
G75*
G02*
X4151300Y-3702300I-7500J0D01*
G01*
X4136300Y-3702300D01*
G75*
G02*
X4128800Y-3694800I0J7500D01*
G01*
G37*
G36*
G01*
X4178800Y-3694800D02*
X4178800Y-3549800D01*
G75*
G02*
X4186300Y-3542300I7500J0D01*
G01*
X4201300Y-3542300D01*
G75*
G02*
X4208800Y-3549800I0J-7500D01*
G01*
X4208800Y-3694800D01*
G75*
G02*
X4201300Y-3702300I-7500J0D01*
G01*
X4186300Y-3702300D01*
G75*
G02*
X4178800Y-3694800I0J7500D01*
G01*
G37*
G36*
G01*
X4228800Y-3694800D02*
X4228800Y-3549800D01*
G75*
G02*
X4236300Y-3542300I7500J0D01*
G01*
X4251300Y-3542300D01*
G75*
G02*
X4258800Y-3549800I0J-7500D01*
G01*
X4258800Y-3694800D01*
G75*
G02*
X4251300Y-3702300I-7500J0D01*
G01*
X4236300Y-3702300D01*
G75*
G02*
X4228800Y-3694800I0J7500D01*
G01*
G37*
G36*
G01*
X4278800Y-3694800D02*
X4278800Y-3549800D01*
G75*
G02*
X4286300Y-3542300I7500J0D01*
G01*
X4301300Y-3542300D01*
G75*
G02*
X4308800Y-3549800I0J-7500D01*
G01*
X4308800Y-3694800D01*
G75*
G02*
X4301300Y-3702300I-7500J0D01*
G01*
X4286300Y-3702300D01*
G75*
G02*
X4278800Y-3694800I0J7500D01*
G01*
G37*
G36*
G01*
X4328800Y-3694800D02*
X4328800Y-3549800D01*
G75*
G02*
X4336300Y-3542300I7500J0D01*
G01*
X4351300Y-3542300D01*
G75*
G02*
X4358800Y-3549800I0J-7500D01*
G01*
X4358800Y-3694800D01*
G75*
G02*
X4351300Y-3702300I-7500J0D01*
G01*
X4336300Y-3702300D01*
G75*
G02*
X4328800Y-3694800I0J7500D01*
G01*
G37*
G36*
G01*
X4378800Y-3694800D02*
X4378800Y-3549800D01*
G75*
G02*
X4386300Y-3542300I7500J0D01*
G01*
X4401300Y-3542300D01*
G75*
G02*
X4408800Y-3549800I0J-7500D01*
G01*
X4408800Y-3694800D01*
G75*
G02*
X4401300Y-3702300I-7500J0D01*
G01*
X4386300Y-3702300D01*
G75*
G02*
X4378800Y-3694800I0J7500D01*
G01*
G37*
G36*
G01*
X4428800Y-3694800D02*
X4428800Y-3549800D01*
G75*
G02*
X4436300Y-3542300I7500J0D01*
G01*
X4451300Y-3542300D01*
G75*
G02*
X4458800Y-3549800I0J-7500D01*
G01*
X4458800Y-3694800D01*
G75*
G02*
X4451300Y-3702300I-7500J0D01*
G01*
X4436300Y-3702300D01*
G75*
G02*
X4428800Y-3694800I0J7500D01*
G01*
G37*
G36*
G01*
X4478800Y-3694800D02*
X4478800Y-3549800D01*
G75*
G02*
X4486300Y-3542300I7500J0D01*
G01*
X4501300Y-3542300D01*
G75*
G02*
X4508800Y-3549800I0J-7500D01*
G01*
X4508800Y-3694800D01*
G75*
G02*
X4501300Y-3702300I-7500J0D01*
G01*
X4486300Y-3702300D01*
G75*
G02*
X4478800Y-3694800I0J7500D01*
G01*
G37*
G36*
G01*
X4528800Y-3694800D02*
X4528800Y-3549800D01*
G75*
G02*
X4536300Y-3542300I7500J0D01*
G01*
X4551300Y-3542300D01*
G75*
G02*
X4558800Y-3549800I0J-7500D01*
G01*
X4558800Y-3694800D01*
G75*
G02*
X4551300Y-3702300I-7500J0D01*
G01*
X4536300Y-3702300D01*
G75*
G02*
X4528800Y-3694800I0J7500D01*
G01*
G37*
G36*
G01*
X4578800Y-3694800D02*
X4578800Y-3549800D01*
G75*
G02*
X4586300Y-3542300I7500J0D01*
G01*
X4601300Y-3542300D01*
G75*
G02*
X4608800Y-3549800I0J-7500D01*
G01*
X4608800Y-3694800D01*
G75*
G02*
X4601300Y-3702300I-7500J0D01*
G01*
X4586300Y-3702300D01*
G75*
G02*
X4578800Y-3694800I0J7500D01*
G01*
G37*
G36*
G01*
X4628800Y-3694800D02*
X4628800Y-3549800D01*
G75*
G02*
X4636300Y-3542300I7500J0D01*
G01*
X4651300Y-3542300D01*
G75*
G02*
X4658800Y-3549800I0J-7500D01*
G01*
X4658800Y-3694800D01*
G75*
G02*
X4651300Y-3702300I-7500J0D01*
G01*
X4636300Y-3702300D01*
G75*
G02*
X4628800Y-3694800I0J7500D01*
G01*
G37*
G36*
G01*
X4678800Y-3694800D02*
X4678800Y-3549800D01*
G75*
G02*
X4686300Y-3542300I7500J0D01*
G01*
X4701300Y-3542300D01*
G75*
G02*
X4708800Y-3549800I0J-7500D01*
G01*
X4708800Y-3694800D01*
G75*
G02*
X4701300Y-3702300I-7500J0D01*
G01*
X4686300Y-3702300D01*
G75*
G02*
X4678800Y-3694800I0J7500D01*
G01*
G37*
G36*
G01*
X4728800Y-3694800D02*
X4728800Y-3549800D01*
G75*
G02*
X4736300Y-3542300I7500J0D01*
G01*
X4751300Y-3542300D01*
G75*
G02*
X4758800Y-3549800I0J-7500D01*
G01*
X4758800Y-3694800D01*
G75*
G02*
X4751300Y-3702300I-7500J0D01*
G01*
X4736300Y-3702300D01*
G75*
G02*
X4728800Y-3694800I0J7500D01*
G01*
G37*
G36*
G01*
X4778800Y-3694800D02*
X4778800Y-3549800D01*
G75*
G02*
X4786300Y-3542300I7500J0D01*
G01*
X4801300Y-3542300D01*
G75*
G02*
X4808800Y-3549800I0J-7500D01*
G01*
X4808800Y-3694800D01*
G75*
G02*
X4801300Y-3702300I-7500J0D01*
G01*
X4786300Y-3702300D01*
G75*
G02*
X4778800Y-3694800I0J7500D01*
G01*
G37*
G36*
G01*
X4828800Y-3694800D02*
X4828800Y-3549800D01*
G75*
G02*
X4836300Y-3542300I7500J0D01*
G01*
X4851300Y-3542300D01*
G75*
G02*
X4858800Y-3549800I0J-7500D01*
G01*
X4858800Y-3694800D01*
G75*
G02*
X4851300Y-3702300I-7500J0D01*
G01*
X4836300Y-3702300D01*
G75*
G02*
X4828800Y-3694800I0J7500D01*
G01*
G37*
G36*
G01*
X4878800Y-3694800D02*
X4878800Y-3549800D01*
G75*
G02*
X4886300Y-3542300I7500J0D01*
G01*
X4901300Y-3542300D01*
G75*
G02*
X4908800Y-3549800I0J-7500D01*
G01*
X4908800Y-3694800D01*
G75*
G02*
X4901300Y-3702300I-7500J0D01*
G01*
X4886300Y-3702300D01*
G75*
G02*
X4878800Y-3694800I0J7500D01*
G01*
G37*
G36*
G01*
X4928800Y-3694800D02*
X4928800Y-3549800D01*
G75*
G02*
X4936300Y-3542300I7500J0D01*
G01*
X4951300Y-3542300D01*
G75*
G02*
X4958800Y-3549800I0J-7500D01*
G01*
X4958800Y-3694800D01*
G75*
G02*
X4951300Y-3702300I-7500J0D01*
G01*
X4936300Y-3702300D01*
G75*
G02*
X4928800Y-3694800I0J7500D01*
G01*
G37*
G36*
G01*
X4978800Y-3694800D02*
X4978800Y-3549800D01*
G75*
G02*
X4986300Y-3542300I7500J0D01*
G01*
X5001300Y-3542300D01*
G75*
G02*
X5008800Y-3549800I0J-7500D01*
G01*
X5008800Y-3694800D01*
G75*
G02*
X5001300Y-3702300I-7500J0D01*
G01*
X4986300Y-3702300D01*
G75*
G02*
X4978800Y-3694800I0J7500D01*
G01*
G37*
G36*
G01*
X5028800Y-3694800D02*
X5028800Y-3549800D01*
G75*
G02*
X5036300Y-3542300I7500J0D01*
G01*
X5051300Y-3542300D01*
G75*
G02*
X5058800Y-3549800I0J-7500D01*
G01*
X5058800Y-3694800D01*
G75*
G02*
X5051300Y-3702300I-7500J0D01*
G01*
X5036300Y-3702300D01*
G75*
G02*
X5028800Y-3694800I0J7500D01*
G01*
G37*
G36*
G01*
X5078800Y-3694800D02*
X5078800Y-3549800D01*
G75*
G02*
X5086300Y-3542300I7500J0D01*
G01*
X5101300Y-3542300D01*
G75*
G02*
X5108800Y-3549800I0J-7500D01*
G01*
X5108800Y-3694800D01*
G75*
G02*
X5101300Y-3702300I-7500J0D01*
G01*
X5086300Y-3702300D01*
G75*
G02*
X5078800Y-3694800I0J7500D01*
G01*
G37*
G36*
G01*
X5128800Y-3694800D02*
X5128800Y-3549800D01*
G75*
G02*
X5136300Y-3542300I7500J0D01*
G01*
X5151300Y-3542300D01*
G75*
G02*
X5158800Y-3549800I0J-7500D01*
G01*
X5158800Y-3694800D01*
G75*
G02*
X5151300Y-3702300I-7500J0D01*
G01*
X5136300Y-3702300D01*
G75*
G02*
X5128800Y-3694800I0J7500D01*
G01*
G37*
G36*
G01*
X5231300Y-3797300D02*
X5231300Y-3782300D01*
G75*
G02*
X5238800Y-3774800I7500J0D01*
G01*
X5383800Y-3774800D01*
G75*
G02*
X5391300Y-3782300I0J-7500D01*
G01*
X5391300Y-3797300D01*
G75*
G02*
X5383800Y-3804800I-7500J0D01*
G01*
X5238800Y-3804800D01*
G75*
G02*
X5231300Y-3797300I0J7500D01*
G01*
G37*
G36*
G01*
X5231300Y-3847300D02*
X5231300Y-3832300D01*
G75*
G02*
X5238800Y-3824800I7500J0D01*
G01*
X5383800Y-3824800D01*
G75*
G02*
X5391300Y-3832300I0J-7500D01*
G01*
X5391300Y-3847300D01*
G75*
G02*
X5383800Y-3854800I-7500J0D01*
G01*
X5238800Y-3854800D01*
G75*
G02*
X5231300Y-3847300I0J7500D01*
G01*
G37*
G36*
G01*
X5231300Y-3897300D02*
X5231300Y-3882300D01*
G75*
G02*
X5238800Y-3874800I7500J0D01*
G01*
X5383800Y-3874800D01*
G75*
G02*
X5391300Y-3882300I0J-7500D01*
G01*
X5391300Y-3897300D01*
G75*
G02*
X5383800Y-3904800I-7500J0D01*
G01*
X5238800Y-3904800D01*
G75*
G02*
X5231300Y-3897300I0J7500D01*
G01*
G37*
G36*
G01*
X5231300Y-3947300D02*
X5231300Y-3932300D01*
G75*
G02*
X5238800Y-3924800I7500J0D01*
G01*
X5383800Y-3924800D01*
G75*
G02*
X5391300Y-3932300I0J-7500D01*
G01*
X5391300Y-3947300D01*
G75*
G02*
X5383800Y-3954800I-7500J0D01*
G01*
X5238800Y-3954800D01*
G75*
G02*
X5231300Y-3947300I0J7500D01*
G01*
G37*
G36*
G01*
X5231300Y-3997300D02*
X5231300Y-3982300D01*
G75*
G02*
X5238800Y-3974800I7500J0D01*
G01*
X5383800Y-3974800D01*
G75*
G02*
X5391300Y-3982300I0J-7500D01*
G01*
X5391300Y-3997300D01*
G75*
G02*
X5383800Y-4004800I-7500J0D01*
G01*
X5238800Y-4004800D01*
G75*
G02*
X5231300Y-3997300I0J7500D01*
G01*
G37*
G36*
G01*
X5231300Y-4047300D02*
X5231300Y-4032300D01*
G75*
G02*
X5238800Y-4024800I7500J0D01*
G01*
X5383800Y-4024800D01*
G75*
G02*
X5391300Y-4032300I0J-7500D01*
G01*
X5391300Y-4047300D01*
G75*
G02*
X5383800Y-4054800I-7500J0D01*
G01*
X5238800Y-4054800D01*
G75*
G02*
X5231300Y-4047300I0J7500D01*
G01*
G37*
G36*
G01*
X5231300Y-4097300D02*
X5231300Y-4082300D01*
G75*
G02*
X5238800Y-4074800I7500J0D01*
G01*
X5383800Y-4074800D01*
G75*
G02*
X5391300Y-4082300I0J-7500D01*
G01*
X5391300Y-4097300D01*
G75*
G02*
X5383800Y-4104800I-7500J0D01*
G01*
X5238800Y-4104800D01*
G75*
G02*
X5231300Y-4097300I0J7500D01*
G01*
G37*
G36*
G01*
X5231300Y-4147300D02*
X5231300Y-4132300D01*
G75*
G02*
X5238800Y-4124800I7500J0D01*
G01*
X5383800Y-4124800D01*
G75*
G02*
X5391300Y-4132300I0J-7500D01*
G01*
X5391300Y-4147300D01*
G75*
G02*
X5383800Y-4154800I-7500J0D01*
G01*
X5238800Y-4154800D01*
G75*
G02*
X5231300Y-4147300I0J7500D01*
G01*
G37*
G36*
G01*
X5231300Y-4197300D02*
X5231300Y-4182300D01*
G75*
G02*
X5238800Y-4174800I7500J0D01*
G01*
X5383800Y-4174800D01*
G75*
G02*
X5391300Y-4182300I0J-7500D01*
G01*
X5391300Y-4197300D01*
G75*
G02*
X5383800Y-4204800I-7500J0D01*
G01*
X5238800Y-4204800D01*
G75*
G02*
X5231300Y-4197300I0J7500D01*
G01*
G37*
G36*
G01*
X5231300Y-4247300D02*
X5231300Y-4232300D01*
G75*
G02*
X5238800Y-4224800I7500J0D01*
G01*
X5383800Y-4224800D01*
G75*
G02*
X5391300Y-4232300I0J-7500D01*
G01*
X5391300Y-4247300D01*
G75*
G02*
X5383800Y-4254800I-7500J0D01*
G01*
X5238800Y-4254800D01*
G75*
G02*
X5231300Y-4247300I0J7500D01*
G01*
G37*
G36*
G01*
X5231300Y-4297300D02*
X5231300Y-4282300D01*
G75*
G02*
X5238800Y-4274800I7500J0D01*
G01*
X5383800Y-4274800D01*
G75*
G02*
X5391300Y-4282300I0J-7500D01*
G01*
X5391300Y-4297300D01*
G75*
G02*
X5383800Y-4304800I-7500J0D01*
G01*
X5238800Y-4304800D01*
G75*
G02*
X5231300Y-4297300I0J7500D01*
G01*
G37*
G36*
G01*
X5231300Y-4347300D02*
X5231300Y-4332300D01*
G75*
G02*
X5238800Y-4324800I7500J0D01*
G01*
X5383800Y-4324800D01*
G75*
G02*
X5391300Y-4332300I0J-7500D01*
G01*
X5391300Y-4347300D01*
G75*
G02*
X5383800Y-4354800I-7500J0D01*
G01*
X5238800Y-4354800D01*
G75*
G02*
X5231300Y-4347300I0J7500D01*
G01*
G37*
G36*
G01*
X5231300Y-4397300D02*
X5231300Y-4382300D01*
G75*
G02*
X5238800Y-4374800I7500J0D01*
G01*
X5383800Y-4374800D01*
G75*
G02*
X5391300Y-4382300I0J-7500D01*
G01*
X5391300Y-4397300D01*
G75*
G02*
X5383800Y-4404800I-7500J0D01*
G01*
X5238800Y-4404800D01*
G75*
G02*
X5231300Y-4397300I0J7500D01*
G01*
G37*
G36*
G01*
X5231300Y-4447300D02*
X5231300Y-4432300D01*
G75*
G02*
X5238800Y-4424800I7500J0D01*
G01*
X5383800Y-4424800D01*
G75*
G02*
X5391300Y-4432300I0J-7500D01*
G01*
X5391300Y-4447300D01*
G75*
G02*
X5383800Y-4454800I-7500J0D01*
G01*
X5238800Y-4454800D01*
G75*
G02*
X5231300Y-4447300I0J7500D01*
G01*
G37*
G36*
G01*
X5231300Y-4497300D02*
X5231300Y-4482300D01*
G75*
G02*
X5238800Y-4474800I7500J0D01*
G01*
X5383800Y-4474800D01*
G75*
G02*
X5391300Y-4482300I0J-7500D01*
G01*
X5391300Y-4497300D01*
G75*
G02*
X5383800Y-4504800I-7500J0D01*
G01*
X5238800Y-4504800D01*
G75*
G02*
X5231300Y-4497300I0J7500D01*
G01*
G37*
G36*
G01*
X5231300Y-4547300D02*
X5231300Y-4532300D01*
G75*
G02*
X5238800Y-4524800I7500J0D01*
G01*
X5383800Y-4524800D01*
G75*
G02*
X5391300Y-4532300I0J-7500D01*
G01*
X5391300Y-4547300D01*
G75*
G02*
X5383800Y-4554800I-7500J0D01*
G01*
X5238800Y-4554800D01*
G75*
G02*
X5231300Y-4547300I0J7500D01*
G01*
G37*
G36*
G01*
X5231300Y-4597300D02*
X5231300Y-4582300D01*
G75*
G02*
X5238800Y-4574800I7500J0D01*
G01*
X5383800Y-4574800D01*
G75*
G02*
X5391300Y-4582300I0J-7500D01*
G01*
X5391300Y-4597300D01*
G75*
G02*
X5383800Y-4604800I-7500J0D01*
G01*
X5238800Y-4604800D01*
G75*
G02*
X5231300Y-4597300I0J7500D01*
G01*
G37*
G36*
G01*
X5231300Y-4647300D02*
X5231300Y-4632300D01*
G75*
G02*
X5238800Y-4624800I7500J0D01*
G01*
X5383800Y-4624800D01*
G75*
G02*
X5391300Y-4632300I0J-7500D01*
G01*
X5391300Y-4647300D01*
G75*
G02*
X5383800Y-4654800I-7500J0D01*
G01*
X5238800Y-4654800D01*
G75*
G02*
X5231300Y-4647300I0J7500D01*
G01*
G37*
G36*
G01*
X5231300Y-4697300D02*
X5231300Y-4682300D01*
G75*
G02*
X5238800Y-4674800I7500J0D01*
G01*
X5383800Y-4674800D01*
G75*
G02*
X5391300Y-4682300I0J-7500D01*
G01*
X5391300Y-4697300D01*
G75*
G02*
X5383800Y-4704800I-7500J0D01*
G01*
X5238800Y-4704800D01*
G75*
G02*
X5231300Y-4697300I0J7500D01*
G01*
G37*
G36*
G01*
X5231300Y-4747300D02*
X5231300Y-4732300D01*
G75*
G02*
X5238800Y-4724800I7500J0D01*
G01*
X5383800Y-4724800D01*
G75*
G02*
X5391300Y-4732300I0J-7500D01*
G01*
X5391300Y-4747300D01*
G75*
G02*
X5383800Y-4754800I-7500J0D01*
G01*
X5238800Y-4754800D01*
G75*
G02*
X5231300Y-4747300I0J7500D01*
G01*
G37*
G36*
G01*
X5231300Y-4797300D02*
X5231300Y-4782300D01*
G75*
G02*
X5238800Y-4774800I7500J0D01*
G01*
X5383800Y-4774800D01*
G75*
G02*
X5391300Y-4782300I0J-7500D01*
G01*
X5391300Y-4797300D01*
G75*
G02*
X5383800Y-4804800I-7500J0D01*
G01*
X5238800Y-4804800D01*
G75*
G02*
X5231300Y-4797300I0J7500D01*
G01*
G37*
G36*
G01*
X5231300Y-4847300D02*
X5231300Y-4832300D01*
G75*
G02*
X5238800Y-4824800I7500J0D01*
G01*
X5383800Y-4824800D01*
G75*
G02*
X5391300Y-4832300I0J-7500D01*
G01*
X5391300Y-4847300D01*
G75*
G02*
X5383800Y-4854800I-7500J0D01*
G01*
X5238800Y-4854800D01*
G75*
G02*
X5231300Y-4847300I0J7500D01*
G01*
G37*
G36*
G01*
X5231300Y-4897300D02*
X5231300Y-4882300D01*
G75*
G02*
X5238800Y-4874800I7500J0D01*
G01*
X5383800Y-4874800D01*
G75*
G02*
X5391300Y-4882300I0J-7500D01*
G01*
X5391300Y-4897300D01*
G75*
G02*
X5383800Y-4904800I-7500J0D01*
G01*
X5238800Y-4904800D01*
G75*
G02*
X5231300Y-4897300I0J7500D01*
G01*
G37*
G36*
G01*
X5231300Y-4947300D02*
X5231300Y-4932300D01*
G75*
G02*
X5238800Y-4924800I7500J0D01*
G01*
X5383800Y-4924800D01*
G75*
G02*
X5391300Y-4932300I0J-7500D01*
G01*
X5391300Y-4947300D01*
G75*
G02*
X5383800Y-4954800I-7500J0D01*
G01*
X5238800Y-4954800D01*
G75*
G02*
X5231300Y-4947300I0J7500D01*
G01*
G37*
G36*
G01*
X5231300Y-4997300D02*
X5231300Y-4982300D01*
G75*
G02*
X5238800Y-4974800I7500J0D01*
G01*
X5383800Y-4974800D01*
G75*
G02*
X5391300Y-4982300I0J-7500D01*
G01*
X5391300Y-4997300D01*
G75*
G02*
X5383800Y-5004800I-7500J0D01*
G01*
X5238800Y-5004800D01*
G75*
G02*
X5231300Y-4997300I0J7500D01*
G01*
G37*
G36*
G01*
X5128800Y-5229800D02*
X5128800Y-5084800D01*
G75*
G02*
X5136300Y-5077300I7500J0D01*
G01*
X5151300Y-5077300D01*
G75*
G02*
X5158800Y-5084800I0J-7500D01*
G01*
X5158800Y-5229800D01*
G75*
G02*
X5151300Y-5237300I-7500J0D01*
G01*
X5136300Y-5237300D01*
G75*
G02*
X5128800Y-5229800I0J7500D01*
G01*
G37*
G36*
G01*
X5078800Y-5229800D02*
X5078800Y-5084800D01*
G75*
G02*
X5086300Y-5077300I7500J0D01*
G01*
X5101300Y-5077300D01*
G75*
G02*
X5108800Y-5084800I0J-7500D01*
G01*
X5108800Y-5229800D01*
G75*
G02*
X5101300Y-5237300I-7500J0D01*
G01*
X5086300Y-5237300D01*
G75*
G02*
X5078800Y-5229800I0J7500D01*
G01*
G37*
G36*
G01*
X5028800Y-5229800D02*
X5028800Y-5084800D01*
G75*
G02*
X5036300Y-5077300I7500J0D01*
G01*
X5051300Y-5077300D01*
G75*
G02*
X5058800Y-5084800I0J-7500D01*
G01*
X5058800Y-5229800D01*
G75*
G02*
X5051300Y-5237300I-7500J0D01*
G01*
X5036300Y-5237300D01*
G75*
G02*
X5028800Y-5229800I0J7500D01*
G01*
G37*
G36*
G01*
X4978800Y-5229800D02*
X4978800Y-5084800D01*
G75*
G02*
X4986300Y-5077300I7500J0D01*
G01*
X5001300Y-5077300D01*
G75*
G02*
X5008800Y-5084800I0J-7500D01*
G01*
X5008800Y-5229800D01*
G75*
G02*
X5001300Y-5237300I-7500J0D01*
G01*
X4986300Y-5237300D01*
G75*
G02*
X4978800Y-5229800I0J7500D01*
G01*
G37*
G36*
G01*
X4928800Y-5229800D02*
X4928800Y-5084800D01*
G75*
G02*
X4936300Y-5077300I7500J0D01*
G01*
X4951300Y-5077300D01*
G75*
G02*
X4958800Y-5084800I0J-7500D01*
G01*
X4958800Y-5229800D01*
G75*
G02*
X4951300Y-5237300I-7500J0D01*
G01*
X4936300Y-5237300D01*
G75*
G02*
X4928800Y-5229800I0J7500D01*
G01*
G37*
G36*
G01*
X4878800Y-5229800D02*
X4878800Y-5084800D01*
G75*
G02*
X4886300Y-5077300I7500J0D01*
G01*
X4901300Y-5077300D01*
G75*
G02*
X4908800Y-5084800I0J-7500D01*
G01*
X4908800Y-5229800D01*
G75*
G02*
X4901300Y-5237300I-7500J0D01*
G01*
X4886300Y-5237300D01*
G75*
G02*
X4878800Y-5229800I0J7500D01*
G01*
G37*
G36*
G01*
X4828800Y-5229800D02*
X4828800Y-5084800D01*
G75*
G02*
X4836300Y-5077300I7500J0D01*
G01*
X4851300Y-5077300D01*
G75*
G02*
X4858800Y-5084800I0J-7500D01*
G01*
X4858800Y-5229800D01*
G75*
G02*
X4851300Y-5237300I-7500J0D01*
G01*
X4836300Y-5237300D01*
G75*
G02*
X4828800Y-5229800I0J7500D01*
G01*
G37*
G36*
G01*
X4778800Y-5229800D02*
X4778800Y-5084800D01*
G75*
G02*
X4786300Y-5077300I7500J0D01*
G01*
X4801300Y-5077300D01*
G75*
G02*
X4808800Y-5084800I0J-7500D01*
G01*
X4808800Y-5229800D01*
G75*
G02*
X4801300Y-5237300I-7500J0D01*
G01*
X4786300Y-5237300D01*
G75*
G02*
X4778800Y-5229800I0J7500D01*
G01*
G37*
G36*
G01*
X4728800Y-5229800D02*
X4728800Y-5084800D01*
G75*
G02*
X4736300Y-5077300I7500J0D01*
G01*
X4751300Y-5077300D01*
G75*
G02*
X4758800Y-5084800I0J-7500D01*
G01*
X4758800Y-5229800D01*
G75*
G02*
X4751300Y-5237300I-7500J0D01*
G01*
X4736300Y-5237300D01*
G75*
G02*
X4728800Y-5229800I0J7500D01*
G01*
G37*
G36*
G01*
X4678800Y-5229800D02*
X4678800Y-5084800D01*
G75*
G02*
X4686300Y-5077300I7500J0D01*
G01*
X4701300Y-5077300D01*
G75*
G02*
X4708800Y-5084800I0J-7500D01*
G01*
X4708800Y-5229800D01*
G75*
G02*
X4701300Y-5237300I-7500J0D01*
G01*
X4686300Y-5237300D01*
G75*
G02*
X4678800Y-5229800I0J7500D01*
G01*
G37*
G36*
G01*
X4628800Y-5229800D02*
X4628800Y-5084800D01*
G75*
G02*
X4636300Y-5077300I7500J0D01*
G01*
X4651300Y-5077300D01*
G75*
G02*
X4658800Y-5084800I0J-7500D01*
G01*
X4658800Y-5229800D01*
G75*
G02*
X4651300Y-5237300I-7500J0D01*
G01*
X4636300Y-5237300D01*
G75*
G02*
X4628800Y-5229800I0J7500D01*
G01*
G37*
G36*
G01*
X4578800Y-5229800D02*
X4578800Y-5084800D01*
G75*
G02*
X4586300Y-5077300I7500J0D01*
G01*
X4601300Y-5077300D01*
G75*
G02*
X4608800Y-5084800I0J-7500D01*
G01*
X4608800Y-5229800D01*
G75*
G02*
X4601300Y-5237300I-7500J0D01*
G01*
X4586300Y-5237300D01*
G75*
G02*
X4578800Y-5229800I0J7500D01*
G01*
G37*
G36*
G01*
X4528800Y-5229800D02*
X4528800Y-5084800D01*
G75*
G02*
X4536300Y-5077300I7500J0D01*
G01*
X4551300Y-5077300D01*
G75*
G02*
X4558800Y-5084800I0J-7500D01*
G01*
X4558800Y-5229800D01*
G75*
G02*
X4551300Y-5237300I-7500J0D01*
G01*
X4536300Y-5237300D01*
G75*
G02*
X4528800Y-5229800I0J7500D01*
G01*
G37*
G36*
G01*
X4478800Y-5229800D02*
X4478800Y-5084800D01*
G75*
G02*
X4486300Y-5077300I7500J0D01*
G01*
X4501300Y-5077300D01*
G75*
G02*
X4508800Y-5084800I0J-7500D01*
G01*
X4508800Y-5229800D01*
G75*
G02*
X4501300Y-5237300I-7500J0D01*
G01*
X4486300Y-5237300D01*
G75*
G02*
X4478800Y-5229800I0J7500D01*
G01*
G37*
G36*
G01*
X4428800Y-5229800D02*
X4428800Y-5084800D01*
G75*
G02*
X4436300Y-5077300I7500J0D01*
G01*
X4451300Y-5077300D01*
G75*
G02*
X4458800Y-5084800I0J-7500D01*
G01*
X4458800Y-5229800D01*
G75*
G02*
X4451300Y-5237300I-7500J0D01*
G01*
X4436300Y-5237300D01*
G75*
G02*
X4428800Y-5229800I0J7500D01*
G01*
G37*
G36*
G01*
X4378800Y-5229800D02*
X4378800Y-5084800D01*
G75*
G02*
X4386300Y-5077300I7500J0D01*
G01*
X4401300Y-5077300D01*
G75*
G02*
X4408800Y-5084800I0J-7500D01*
G01*
X4408800Y-5229800D01*
G75*
G02*
X4401300Y-5237300I-7500J0D01*
G01*
X4386300Y-5237300D01*
G75*
G02*
X4378800Y-5229800I0J7500D01*
G01*
G37*
G36*
G01*
X4328800Y-5229800D02*
X4328800Y-5084800D01*
G75*
G02*
X4336300Y-5077300I7500J0D01*
G01*
X4351300Y-5077300D01*
G75*
G02*
X4358800Y-5084800I0J-7500D01*
G01*
X4358800Y-5229800D01*
G75*
G02*
X4351300Y-5237300I-7500J0D01*
G01*
X4336300Y-5237300D01*
G75*
G02*
X4328800Y-5229800I0J7500D01*
G01*
G37*
G36*
G01*
X4278800Y-5229800D02*
X4278800Y-5084800D01*
G75*
G02*
X4286300Y-5077300I7500J0D01*
G01*
X4301300Y-5077300D01*
G75*
G02*
X4308800Y-5084800I0J-7500D01*
G01*
X4308800Y-5229800D01*
G75*
G02*
X4301300Y-5237300I-7500J0D01*
G01*
X4286300Y-5237300D01*
G75*
G02*
X4278800Y-5229800I0J7500D01*
G01*
G37*
G36*
G01*
X4228800Y-5229800D02*
X4228800Y-5084800D01*
G75*
G02*
X4236300Y-5077300I7500J0D01*
G01*
X4251300Y-5077300D01*
G75*
G02*
X4258800Y-5084800I0J-7500D01*
G01*
X4258800Y-5229800D01*
G75*
G02*
X4251300Y-5237300I-7500J0D01*
G01*
X4236300Y-5237300D01*
G75*
G02*
X4228800Y-5229800I0J7500D01*
G01*
G37*
G36*
G01*
X4178800Y-5229800D02*
X4178800Y-5084800D01*
G75*
G02*
X4186300Y-5077300I7500J0D01*
G01*
X4201300Y-5077300D01*
G75*
G02*
X4208800Y-5084800I0J-7500D01*
G01*
X4208800Y-5229800D01*
G75*
G02*
X4201300Y-5237300I-7500J0D01*
G01*
X4186300Y-5237300D01*
G75*
G02*
X4178800Y-5229800I0J7500D01*
G01*
G37*
G36*
G01*
X4128800Y-5229800D02*
X4128800Y-5084800D01*
G75*
G02*
X4136300Y-5077300I7500J0D01*
G01*
X4151300Y-5077300D01*
G75*
G02*
X4158800Y-5084800I0J-7500D01*
G01*
X4158800Y-5229800D01*
G75*
G02*
X4151300Y-5237300I-7500J0D01*
G01*
X4136300Y-5237300D01*
G75*
G02*
X4128800Y-5229800I0J7500D01*
G01*
G37*
G36*
G01*
X4078800Y-5229800D02*
X4078800Y-5084800D01*
G75*
G02*
X4086300Y-5077300I7500J0D01*
G01*
X4101300Y-5077300D01*
G75*
G02*
X4108800Y-5084800I0J-7500D01*
G01*
X4108800Y-5229800D01*
G75*
G02*
X4101300Y-5237300I-7500J0D01*
G01*
X4086300Y-5237300D01*
G75*
G02*
X4078800Y-5229800I0J7500D01*
G01*
G37*
G36*
G01*
X4028800Y-5229800D02*
X4028800Y-5084800D01*
G75*
G02*
X4036300Y-5077300I7500J0D01*
G01*
X4051300Y-5077300D01*
G75*
G02*
X4058800Y-5084800I0J-7500D01*
G01*
X4058800Y-5229800D01*
G75*
G02*
X4051300Y-5237300I-7500J0D01*
G01*
X4036300Y-5237300D01*
G75*
G02*
X4028800Y-5229800I0J7500D01*
G01*
G37*
G36*
G01*
X3978800Y-5229800D02*
X3978800Y-5084800D01*
G75*
G02*
X3986300Y-5077300I7500J0D01*
G01*
X4001300Y-5077300D01*
G75*
G02*
X4008800Y-5084800I0J-7500D01*
G01*
X4008800Y-5229800D01*
G75*
G02*
X4001300Y-5237300I-7500J0D01*
G01*
X3986300Y-5237300D01*
G75*
G02*
X3978800Y-5229800I0J7500D01*
G01*
G37*
G36*
G01*
X3928800Y-5229800D02*
X3928800Y-5084800D01*
G75*
G02*
X3936300Y-5077300I7500J0D01*
G01*
X3951300Y-5077300D01*
G75*
G02*
X3958800Y-5084800I0J-7500D01*
G01*
X3958800Y-5229800D01*
G75*
G02*
X3951300Y-5237300I-7500J0D01*
G01*
X3936300Y-5237300D01*
G75*
G02*
X3928800Y-5229800I0J7500D01*
G01*
G37*
G36*
G01*
X3696300Y-4997300D02*
X3696300Y-4982300D01*
G75*
G02*
X3703800Y-4974800I7500J0D01*
G01*
X3848800Y-4974800D01*
G75*
G02*
X3856300Y-4982300I0J-7500D01*
G01*
X3856300Y-4997300D01*
G75*
G02*
X3848800Y-5004800I-7500J0D01*
G01*
X3703800Y-5004800D01*
G75*
G02*
X3696300Y-4997300I0J7500D01*
G01*
G37*
G36*
G01*
X3696300Y-4947300D02*
X3696300Y-4932300D01*
G75*
G02*
X3703800Y-4924800I7500J0D01*
G01*
X3848800Y-4924800D01*
G75*
G02*
X3856300Y-4932300I0J-7500D01*
G01*
X3856300Y-4947300D01*
G75*
G02*
X3848800Y-4954800I-7500J0D01*
G01*
X3703800Y-4954800D01*
G75*
G02*
X3696300Y-4947300I0J7500D01*
G01*
G37*
G36*
G01*
X3696300Y-4897300D02*
X3696300Y-4882300D01*
G75*
G02*
X3703800Y-4874800I7500J0D01*
G01*
X3848800Y-4874800D01*
G75*
G02*
X3856300Y-4882300I0J-7500D01*
G01*
X3856300Y-4897300D01*
G75*
G02*
X3848800Y-4904800I-7500J0D01*
G01*
X3703800Y-4904800D01*
G75*
G02*
X3696300Y-4897300I0J7500D01*
G01*
G37*
G36*
G01*
X3696300Y-4847300D02*
X3696300Y-4832300D01*
G75*
G02*
X3703800Y-4824800I7500J0D01*
G01*
X3848800Y-4824800D01*
G75*
G02*
X3856300Y-4832300I0J-7500D01*
G01*
X3856300Y-4847300D01*
G75*
G02*
X3848800Y-4854800I-7500J0D01*
G01*
X3703800Y-4854800D01*
G75*
G02*
X3696300Y-4847300I0J7500D01*
G01*
G37*
G36*
G01*
X3696300Y-4797300D02*
X3696300Y-4782300D01*
G75*
G02*
X3703800Y-4774800I7500J0D01*
G01*
X3848800Y-4774800D01*
G75*
G02*
X3856300Y-4782300I0J-7500D01*
G01*
X3856300Y-4797300D01*
G75*
G02*
X3848800Y-4804800I-7500J0D01*
G01*
X3703800Y-4804800D01*
G75*
G02*
X3696300Y-4797300I0J7500D01*
G01*
G37*
G36*
G01*
X3696300Y-4747300D02*
X3696300Y-4732300D01*
G75*
G02*
X3703800Y-4724800I7500J0D01*
G01*
X3848800Y-4724800D01*
G75*
G02*
X3856300Y-4732300I0J-7500D01*
G01*
X3856300Y-4747300D01*
G75*
G02*
X3848800Y-4754800I-7500J0D01*
G01*
X3703800Y-4754800D01*
G75*
G02*
X3696300Y-4747300I0J7500D01*
G01*
G37*
G36*
G01*
X3696300Y-4697300D02*
X3696300Y-4682300D01*
G75*
G02*
X3703800Y-4674800I7500J0D01*
G01*
X3848800Y-4674800D01*
G75*
G02*
X3856300Y-4682300I0J-7500D01*
G01*
X3856300Y-4697300D01*
G75*
G02*
X3848800Y-4704800I-7500J0D01*
G01*
X3703800Y-4704800D01*
G75*
G02*
X3696300Y-4697300I0J7500D01*
G01*
G37*
G36*
G01*
X3696300Y-4647300D02*
X3696300Y-4632300D01*
G75*
G02*
X3703800Y-4624800I7500J0D01*
G01*
X3848800Y-4624800D01*
G75*
G02*
X3856300Y-4632300I0J-7500D01*
G01*
X3856300Y-4647300D01*
G75*
G02*
X3848800Y-4654800I-7500J0D01*
G01*
X3703800Y-4654800D01*
G75*
G02*
X3696300Y-4647300I0J7500D01*
G01*
G37*
G36*
G01*
X3696300Y-4597300D02*
X3696300Y-4582300D01*
G75*
G02*
X3703800Y-4574800I7500J0D01*
G01*
X3848800Y-4574800D01*
G75*
G02*
X3856300Y-4582300I0J-7500D01*
G01*
X3856300Y-4597300D01*
G75*
G02*
X3848800Y-4604800I-7500J0D01*
G01*
X3703800Y-4604800D01*
G75*
G02*
X3696300Y-4597300I0J7500D01*
G01*
G37*
G36*
G01*
X3696300Y-4547300D02*
X3696300Y-4532300D01*
G75*
G02*
X3703800Y-4524800I7500J0D01*
G01*
X3848800Y-4524800D01*
G75*
G02*
X3856300Y-4532300I0J-7500D01*
G01*
X3856300Y-4547300D01*
G75*
G02*
X3848800Y-4554800I-7500J0D01*
G01*
X3703800Y-4554800D01*
G75*
G02*
X3696300Y-4547300I0J7500D01*
G01*
G37*
G36*
G01*
X3696300Y-4497300D02*
X3696300Y-4482300D01*
G75*
G02*
X3703800Y-4474800I7500J0D01*
G01*
X3848800Y-4474800D01*
G75*
G02*
X3856300Y-4482300I0J-7500D01*
G01*
X3856300Y-4497300D01*
G75*
G02*
X3848800Y-4504800I-7500J0D01*
G01*
X3703800Y-4504800D01*
G75*
G02*
X3696300Y-4497300I0J7500D01*
G01*
G37*
G36*
G01*
X3696300Y-4447300D02*
X3696300Y-4432300D01*
G75*
G02*
X3703800Y-4424800I7500J0D01*
G01*
X3848800Y-4424800D01*
G75*
G02*
X3856300Y-4432300I0J-7500D01*
G01*
X3856300Y-4447300D01*
G75*
G02*
X3848800Y-4454800I-7500J0D01*
G01*
X3703800Y-4454800D01*
G75*
G02*
X3696300Y-4447300I0J7500D01*
G01*
G37*
G36*
G01*
X3696300Y-4397300D02*
X3696300Y-4382300D01*
G75*
G02*
X3703800Y-4374800I7500J0D01*
G01*
X3848800Y-4374800D01*
G75*
G02*
X3856300Y-4382300I0J-7500D01*
G01*
X3856300Y-4397300D01*
G75*
G02*
X3848800Y-4404800I-7500J0D01*
G01*
X3703800Y-4404800D01*
G75*
G02*
X3696300Y-4397300I0J7500D01*
G01*
G37*
G36*
G01*
X3696300Y-4347300D02*
X3696300Y-4332300D01*
G75*
G02*
X3703800Y-4324800I7500J0D01*
G01*
X3848800Y-4324800D01*
G75*
G02*
X3856300Y-4332300I0J-7500D01*
G01*
X3856300Y-4347300D01*
G75*
G02*
X3848800Y-4354800I-7500J0D01*
G01*
X3703800Y-4354800D01*
G75*
G02*
X3696300Y-4347300I0J7500D01*
G01*
G37*
G36*
G01*
X3696300Y-4297300D02*
X3696300Y-4282300D01*
G75*
G02*
X3703800Y-4274800I7500J0D01*
G01*
X3848800Y-4274800D01*
G75*
G02*
X3856300Y-4282300I0J-7500D01*
G01*
X3856300Y-4297300D01*
G75*
G02*
X3848800Y-4304800I-7500J0D01*
G01*
X3703800Y-4304800D01*
G75*
G02*
X3696300Y-4297300I0J7500D01*
G01*
G37*
G36*
G01*
X3696300Y-4247300D02*
X3696300Y-4232300D01*
G75*
G02*
X3703800Y-4224800I7500J0D01*
G01*
X3848800Y-4224800D01*
G75*
G02*
X3856300Y-4232300I0J-7500D01*
G01*
X3856300Y-4247300D01*
G75*
G02*
X3848800Y-4254800I-7500J0D01*
G01*
X3703800Y-4254800D01*
G75*
G02*
X3696300Y-4247300I0J7500D01*
G01*
G37*
G36*
G01*
X3696300Y-4197300D02*
X3696300Y-4182300D01*
G75*
G02*
X3703800Y-4174800I7500J0D01*
G01*
X3848800Y-4174800D01*
G75*
G02*
X3856300Y-4182300I0J-7500D01*
G01*
X3856300Y-4197300D01*
G75*
G02*
X3848800Y-4204800I-7500J0D01*
G01*
X3703800Y-4204800D01*
G75*
G02*
X3696300Y-4197300I0J7500D01*
G01*
G37*
G36*
G01*
X3696300Y-4147300D02*
X3696300Y-4132300D01*
G75*
G02*
X3703800Y-4124800I7500J0D01*
G01*
X3848800Y-4124800D01*
G75*
G02*
X3856300Y-4132300I0J-7500D01*
G01*
X3856300Y-4147300D01*
G75*
G02*
X3848800Y-4154800I-7500J0D01*
G01*
X3703800Y-4154800D01*
G75*
G02*
X3696300Y-4147300I0J7500D01*
G01*
G37*
G36*
G01*
X3696300Y-4097300D02*
X3696300Y-4082300D01*
G75*
G02*
X3703800Y-4074800I7500J0D01*
G01*
X3848800Y-4074800D01*
G75*
G02*
X3856300Y-4082300I0J-7500D01*
G01*
X3856300Y-4097300D01*
G75*
G02*
X3848800Y-4104800I-7500J0D01*
G01*
X3703800Y-4104800D01*
G75*
G02*
X3696300Y-4097300I0J7500D01*
G01*
G37*
G36*
G01*
X3696300Y-4047300D02*
X3696300Y-4032300D01*
G75*
G02*
X3703800Y-4024800I7500J0D01*
G01*
X3848800Y-4024800D01*
G75*
G02*
X3856300Y-4032300I0J-7500D01*
G01*
X3856300Y-4047300D01*
G75*
G02*
X3848800Y-4054800I-7500J0D01*
G01*
X3703800Y-4054800D01*
G75*
G02*
X3696300Y-4047300I0J7500D01*
G01*
G37*
G36*
G01*
X3696300Y-3997300D02*
X3696300Y-3982300D01*
G75*
G02*
X3703800Y-3974800I7500J0D01*
G01*
X3848800Y-3974800D01*
G75*
G02*
X3856300Y-3982300I0J-7500D01*
G01*
X3856300Y-3997300D01*
G75*
G02*
X3848800Y-4004800I-7500J0D01*
G01*
X3703800Y-4004800D01*
G75*
G02*
X3696300Y-3997300I0J7500D01*
G01*
G37*
G36*
G01*
X3696300Y-3947300D02*
X3696300Y-3932300D01*
G75*
G02*
X3703800Y-3924800I7500J0D01*
G01*
X3848800Y-3924800D01*
G75*
G02*
X3856300Y-3932300I0J-7500D01*
G01*
X3856300Y-3947300D01*
G75*
G02*
X3848800Y-3954800I-7500J0D01*
G01*
X3703800Y-3954800D01*
G75*
G02*
X3696300Y-3947300I0J7500D01*
G01*
G37*
G36*
G01*
X3696300Y-3897300D02*
X3696300Y-3882300D01*
G75*
G02*
X3703800Y-3874800I7500J0D01*
G01*
X3848800Y-3874800D01*
G75*
G02*
X3856300Y-3882300I0J-7500D01*
G01*
X3856300Y-3897300D01*
G75*
G02*
X3848800Y-3904800I-7500J0D01*
G01*
X3703800Y-3904800D01*
G75*
G02*
X3696300Y-3897300I0J7500D01*
G01*
G37*
G36*
G01*
X3696300Y-3847300D02*
X3696300Y-3832300D01*
G75*
G02*
X3703800Y-3824800I7500J0D01*
G01*
X3848800Y-3824800D01*
G75*
G02*
X3856300Y-3832300I0J-7500D01*
G01*
X3856300Y-3847300D01*
G75*
G02*
X3848800Y-3854800I-7500J0D01*
G01*
X3703800Y-3854800D01*
G75*
G02*
X3696300Y-3847300I0J7500D01*
G01*
G37*
G36*
G01*
X3696300Y-3797300D02*
X3696300Y-3782300D01*
G75*
G02*
X3703800Y-3774800I7500J0D01*
G01*
X3848800Y-3774800D01*
G75*
G02*
X3856300Y-3782300I0J-7500D01*
G01*
X3856300Y-3797300D01*
G75*
G02*
X3848800Y-3804800I-7500J0D01*
G01*
X3703800Y-3804800D01*
G75*
G02*
X3696300Y-3797300I0J7500D01*
G01*
G37*
D11*
X5694100Y-3251200D03*
X5304100Y-3251200D03*
X5694100Y-3124200D03*
X5304100Y-3124200D03*
X5694100Y-2997200D03*
X5304100Y-2997200D03*
X5694100Y-2870200D03*
X5304100Y-2870200D03*
X5694100Y-2743200D03*
X5304100Y-2743200D03*
G36*
G01*
X4347600Y-2889500D02*
X4237600Y-2889500D01*
G75*
G02*
X4212600Y-2864500I0J25000D01*
G01*
X4212600Y-2564500D01*
G75*
G02*
X4237600Y-2539500I25000J0D01*
G01*
X4347600Y-2539500D01*
G75*
G02*
X4372600Y-2564500I0J-25000D01*
G01*
X4372600Y-2864500D01*
G75*
G02*
X4347600Y-2889500I-25000J0D01*
G01*
G37*
G36*
G01*
X4347600Y-3429500D02*
X4237600Y-3429500D01*
G75*
G02*
X4212600Y-3404500I0J25000D01*
G01*
X4212600Y-3104500D01*
G75*
G02*
X4237600Y-3079500I25000J0D01*
G01*
X4347600Y-3079500D01*
G75*
G02*
X4372600Y-3104500I0J-25000D01*
G01*
X4372600Y-3404500D01*
G75*
G02*
X4347600Y-3429500I-25000J0D01*
G01*
G37*
G36*
G01*
X2739000Y-5365500D02*
X2849000Y-5365500D01*
G75*
G02*
X2874000Y-5390500I0J-25000D01*
G01*
X2874000Y-5690500D01*
G75*
G02*
X2849000Y-5715500I-25000J0D01*
G01*
X2739000Y-5715500D01*
G75*
G02*
X2714000Y-5690500I0J25000D01*
G01*
X2714000Y-5390500D01*
G75*
G02*
X2739000Y-5365500I25000J0D01*
G01*
G37*
G36*
G01*
X2739000Y-4825500D02*
X2849000Y-4825500D01*
G75*
G02*
X2874000Y-4850500I0J-25000D01*
G01*
X2874000Y-5150500D01*
G75*
G02*
X2849000Y-5175500I-25000J0D01*
G01*
X2739000Y-5175500D01*
G75*
G02*
X2714000Y-5150500I0J25000D01*
G01*
X2714000Y-4850500D01*
G75*
G02*
X2739000Y-4825500I25000J0D01*
G01*
G37*
G36*
G01*
X438400Y-4263000D02*
X438400Y-4373000D01*
G75*
G02*
X413400Y-4398000I-25000J0D01*
G01*
X113400Y-4398000D01*
G75*
G02*
X88400Y-4373000I0J25000D01*
G01*
X88400Y-4263000D01*
G75*
G02*
X113400Y-4238000I25000J0D01*
G01*
X413400Y-4238000D01*
G75*
G02*
X438400Y-4263000I0J-25000D01*
G01*
G37*
G36*
G01*
X978400Y-4263000D02*
X978400Y-4373000D01*
G75*
G02*
X953400Y-4398000I-25000J0D01*
G01*
X653400Y-4398000D01*
G75*
G02*
X628400Y-4373000I0J25000D01*
G01*
X628400Y-4263000D01*
G75*
G02*
X653400Y-4238000I25000J0D01*
G01*
X953400Y-4238000D01*
G75*
G02*
X978400Y-4263000I0J-25000D01*
G01*
G37*
G36*
G01*
X7334000Y-1706000D02*
X7334000Y-1596000D01*
G75*
G02*
X7359000Y-1571000I25000J0D01*
G01*
X7659000Y-1571000D01*
G75*
G02*
X7684000Y-1596000I0J-25000D01*
G01*
X7684000Y-1706000D01*
G75*
G02*
X7659000Y-1731000I-25000J0D01*
G01*
X7359000Y-1731000D01*
G75*
G02*
X7334000Y-1706000I0J25000D01*
G01*
G37*
G36*
G01*
X6794000Y-1706000D02*
X6794000Y-1596000D01*
G75*
G02*
X6819000Y-1571000I25000J0D01*
G01*
X7119000Y-1571000D01*
G75*
G02*
X7144000Y-1596000I0J-25000D01*
G01*
X7144000Y-1706000D01*
G75*
G02*
X7119000Y-1731000I-25000J0D01*
G01*
X6819000Y-1731000D01*
G75*
G02*
X6794000Y-1706000I0J25000D01*
G01*
G37*
G36*
G01*
X857000Y-1706000D02*
X857000Y-1596000D01*
G75*
G02*
X882000Y-1571000I25000J0D01*
G01*
X1182000Y-1571000D01*
G75*
G02*
X1207000Y-1596000I0J-25000D01*
G01*
X1207000Y-1706000D01*
G75*
G02*
X1182000Y-1731000I-25000J0D01*
G01*
X882000Y-1731000D01*
G75*
G02*
X857000Y-1706000I0J25000D01*
G01*
G37*
G36*
G01*
X317000Y-1706000D02*
X317000Y-1596000D01*
G75*
G02*
X342000Y-1571000I25000J0D01*
G01*
X642000Y-1571000D01*
G75*
G02*
X667000Y-1596000I0J-25000D01*
G01*
X667000Y-1706000D01*
G75*
G02*
X642000Y-1731000I-25000J0D01*
G01*
X342000Y-1731000D01*
G75*
G02*
X317000Y-1706000I0J25000D01*
G01*
G37*
G36*
G01*
X5175000Y-1706000D02*
X5175000Y-1596000D01*
G75*
G02*
X5200000Y-1571000I25000J0D01*
G01*
X5500000Y-1571000D01*
G75*
G02*
X5525000Y-1596000I0J-25000D01*
G01*
X5525000Y-1706000D01*
G75*
G02*
X5500000Y-1731000I-25000J0D01*
G01*
X5200000Y-1731000D01*
G75*
G02*
X5175000Y-1706000I0J25000D01*
G01*
G37*
G36*
G01*
X4635000Y-1706000D02*
X4635000Y-1596000D01*
G75*
G02*
X4660000Y-1571000I25000J0D01*
G01*
X4960000Y-1571000D01*
G75*
G02*
X4985000Y-1596000I0J-25000D01*
G01*
X4985000Y-1706000D01*
G75*
G02*
X4960000Y-1731000I-25000J0D01*
G01*
X4660000Y-1731000D01*
G75*
G02*
X4635000Y-1706000I0J25000D01*
G01*
G37*
G36*
G01*
X9493000Y-1706000D02*
X9493000Y-1596000D01*
G75*
G02*
X9518000Y-1571000I25000J0D01*
G01*
X9818000Y-1571000D01*
G75*
G02*
X9843000Y-1596000I0J-25000D01*
G01*
X9843000Y-1706000D01*
G75*
G02*
X9818000Y-1731000I-25000J0D01*
G01*
X9518000Y-1731000D01*
G75*
G02*
X9493000Y-1706000I0J25000D01*
G01*
G37*
G36*
G01*
X8953000Y-1706000D02*
X8953000Y-1596000D01*
G75*
G02*
X8978000Y-1571000I25000J0D01*
G01*
X9278000Y-1571000D01*
G75*
G02*
X9303000Y-1596000I0J-25000D01*
G01*
X9303000Y-1706000D01*
G75*
G02*
X9278000Y-1731000I-25000J0D01*
G01*
X8978000Y-1731000D01*
G75*
G02*
X8953000Y-1706000I0J25000D01*
G01*
G37*
G36*
G01*
X3016000Y-1706000D02*
X3016000Y-1596000D01*
G75*
G02*
X3041000Y-1571000I25000J0D01*
G01*
X3341000Y-1571000D01*
G75*
G02*
X3366000Y-1596000I0J-25000D01*
G01*
X3366000Y-1706000D01*
G75*
G02*
X3341000Y-1731000I-25000J0D01*
G01*
X3041000Y-1731000D01*
G75*
G02*
X3016000Y-1706000I0J25000D01*
G01*
G37*
G36*
G01*
X2476000Y-1706000D02*
X2476000Y-1596000D01*
G75*
G02*
X2501000Y-1571000I25000J0D01*
G01*
X2801000Y-1571000D01*
G75*
G02*
X2826000Y-1596000I0J-25000D01*
G01*
X2826000Y-1706000D01*
G75*
G02*
X2801000Y-1731000I-25000J0D01*
G01*
X2501000Y-1731000D01*
G75*
G02*
X2476000Y-1706000I0J25000D01*
G01*
G37*
G36*
G01*
X11375000Y-1758700D02*
X11485000Y-1758700D01*
G75*
G02*
X11510000Y-1783700I0J-25000D01*
G01*
X11510000Y-2083700D01*
G75*
G02*
X11485000Y-2108700I-25000J0D01*
G01*
X11375000Y-2108700D01*
G75*
G02*
X11350000Y-2083700I0J25000D01*
G01*
X11350000Y-1783700D01*
G75*
G02*
X11375000Y-1758700I25000J0D01*
G01*
G37*
G36*
G01*
X11375000Y-1218700D02*
X11485000Y-1218700D01*
G75*
G02*
X11510000Y-1243700I0J-25000D01*
G01*
X11510000Y-1543700D01*
G75*
G02*
X11485000Y-1568700I-25000J0D01*
G01*
X11375000Y-1568700D01*
G75*
G02*
X11350000Y-1543700I0J25000D01*
G01*
X11350000Y-1243700D01*
G75*
G02*
X11375000Y-1218700I25000J0D01*
G01*
G37*
G36*
G01*
X1161500Y-4045500D02*
X1251500Y-4045500D01*
G75*
G02*
X1276500Y-4070500I0J-25000D01*
G01*
X1276500Y-4135500D01*
G75*
G02*
X1251500Y-4160500I-25000J0D01*
G01*
X1161500Y-4160500D01*
G75*
G02*
X1136500Y-4135500I0J25000D01*
G01*
X1136500Y-4070500D01*
G75*
G02*
X1161500Y-4045500I25000J0D01*
G01*
G37*
G36*
G01*
X1161500Y-3840500D02*
X1251500Y-3840500D01*
G75*
G02*
X1276500Y-3865500I0J-25000D01*
G01*
X1276500Y-3930500D01*
G75*
G02*
X1251500Y-3955500I-25000J0D01*
G01*
X1161500Y-3955500D01*
G75*
G02*
X1136500Y-3930500I0J25000D01*
G01*
X1136500Y-3865500D01*
G75*
G02*
X1161500Y-3840500I25000J0D01*
G01*
G37*
G36*
G01*
X2089700Y-2673900D02*
X2089700Y-2583900D01*
G75*
G02*
X2114700Y-2558900I25000J0D01*
G01*
X2179700Y-2558900D01*
G75*
G02*
X2204700Y-2583900I0J-25000D01*
G01*
X2204700Y-2673900D01*
G75*
G02*
X2179700Y-2698900I-25000J0D01*
G01*
X2114700Y-2698900D01*
G75*
G02*
X2089700Y-2673900I0J25000D01*
G01*
G37*
G36*
G01*
X1884700Y-2673900D02*
X1884700Y-2583900D01*
G75*
G02*
X1909700Y-2558900I25000J0D01*
G01*
X1974700Y-2558900D01*
G75*
G02*
X1999700Y-2583900I0J-25000D01*
G01*
X1999700Y-2673900D01*
G75*
G02*
X1974700Y-2698900I-25000J0D01*
G01*
X1909700Y-2698900D01*
G75*
G02*
X1884700Y-2673900I0J25000D01*
G01*
G37*
G36*
G01*
X2636500Y-3041100D02*
X2636500Y-3131100D01*
G75*
G02*
X2611500Y-3156100I-25000J0D01*
G01*
X2546500Y-3156100D01*
G75*
G02*
X2521500Y-3131100I0J25000D01*
G01*
X2521500Y-3041100D01*
G75*
G02*
X2546500Y-3016100I25000J0D01*
G01*
X2611500Y-3016100D01*
G75*
G02*
X2636500Y-3041100I0J-25000D01*
G01*
G37*
G36*
G01*
X2431500Y-3041100D02*
X2431500Y-3131100D01*
G75*
G02*
X2406500Y-3156100I-25000J0D01*
G01*
X2341500Y-3156100D01*
G75*
G02*
X2316500Y-3131100I0J25000D01*
G01*
X2316500Y-3041100D01*
G75*
G02*
X2341500Y-3016100I25000J0D01*
G01*
X2406500Y-3016100D01*
G75*
G02*
X2431500Y-3041100I0J-25000D01*
G01*
G37*
G36*
G01*
X2636500Y-2812500D02*
X2636500Y-2902500D01*
G75*
G02*
X2611500Y-2927500I-25000J0D01*
G01*
X2546500Y-2927500D01*
G75*
G02*
X2521500Y-2902500I0J25000D01*
G01*
X2521500Y-2812500D01*
G75*
G02*
X2546500Y-2787500I25000J0D01*
G01*
X2611500Y-2787500D01*
G75*
G02*
X2636500Y-2812500I0J-25000D01*
G01*
G37*
G36*
G01*
X2431500Y-2812500D02*
X2431500Y-2902500D01*
G75*
G02*
X2406500Y-2927500I-25000J0D01*
G01*
X2341500Y-2927500D01*
G75*
G02*
X2316500Y-2902500I0J25000D01*
G01*
X2316500Y-2812500D01*
G75*
G02*
X2341500Y-2787500I25000J0D01*
G01*
X2406500Y-2787500D01*
G75*
G02*
X2431500Y-2812500I0J-25000D01*
G01*
G37*
G36*
G01*
X1657900Y-2673900D02*
X1657900Y-2583900D01*
G75*
G02*
X1682900Y-2558900I25000J0D01*
G01*
X1747900Y-2558900D01*
G75*
G02*
X1772900Y-2583900I0J-25000D01*
G01*
X1772900Y-2673900D01*
G75*
G02*
X1747900Y-2698900I-25000J0D01*
G01*
X1682900Y-2698900D01*
G75*
G02*
X1657900Y-2673900I0J25000D01*
G01*
G37*
G36*
G01*
X1452900Y-2673900D02*
X1452900Y-2583900D01*
G75*
G02*
X1477900Y-2558900I25000J0D01*
G01*
X1542900Y-2558900D01*
G75*
G02*
X1567900Y-2583900I0J-25000D01*
G01*
X1567900Y-2673900D01*
G75*
G02*
X1542900Y-2698900I-25000J0D01*
G01*
X1477900Y-2698900D01*
G75*
G02*
X1452900Y-2673900I0J25000D01*
G01*
G37*
G36*
G01*
X2964000Y-4285700D02*
X2964000Y-4375700D01*
G75*
G02*
X2939000Y-4400700I-25000J0D01*
G01*
X2874000Y-4400700D01*
G75*
G02*
X2849000Y-4375700I0J25000D01*
G01*
X2849000Y-4285700D01*
G75*
G02*
X2874000Y-4260700I25000J0D01*
G01*
X2939000Y-4260700D01*
G75*
G02*
X2964000Y-4285700I0J-25000D01*
G01*
G37*
G36*
G01*
X3169000Y-4285700D02*
X3169000Y-4375700D01*
G75*
G02*
X3144000Y-4400700I-25000J0D01*
G01*
X3079000Y-4400700D01*
G75*
G02*
X3054000Y-4375700I0J25000D01*
G01*
X3054000Y-4285700D01*
G75*
G02*
X3079000Y-4260700I25000J0D01*
G01*
X3144000Y-4260700D01*
G75*
G02*
X3169000Y-4285700I0J-25000D01*
G01*
G37*
G36*
G01*
X3169000Y-4527000D02*
X3169000Y-4617000D01*
G75*
G02*
X3144000Y-4642000I-25000J0D01*
G01*
X3079000Y-4642000D01*
G75*
G02*
X3054000Y-4617000I0J25000D01*
G01*
X3054000Y-4527000D01*
G75*
G02*
X3079000Y-4502000I25000J0D01*
G01*
X3144000Y-4502000D01*
G75*
G02*
X3169000Y-4527000I0J-25000D01*
G01*
G37*
G36*
G01*
X2964000Y-4527000D02*
X2964000Y-4617000D01*
G75*
G02*
X2939000Y-4642000I-25000J0D01*
G01*
X2874000Y-4642000D01*
G75*
G02*
X2849000Y-4617000I0J25000D01*
G01*
X2849000Y-4527000D01*
G75*
G02*
X2874000Y-4502000I25000J0D01*
G01*
X2939000Y-4502000D01*
G75*
G02*
X2964000Y-4527000I0J-25000D01*
G01*
G37*
G36*
G01*
X3345900Y-4819100D02*
X3345900Y-4909100D01*
G75*
G02*
X3320900Y-4934100I-25000J0D01*
G01*
X3255900Y-4934100D01*
G75*
G02*
X3230900Y-4909100I0J25000D01*
G01*
X3230900Y-4819100D01*
G75*
G02*
X3255900Y-4794100I25000J0D01*
G01*
X3320900Y-4794100D01*
G75*
G02*
X3345900Y-4819100I0J-25000D01*
G01*
G37*
G36*
G01*
X3550900Y-4819100D02*
X3550900Y-4909100D01*
G75*
G02*
X3525900Y-4934100I-25000J0D01*
G01*
X3460900Y-4934100D01*
G75*
G02*
X3435900Y-4909100I0J25000D01*
G01*
X3435900Y-4819100D01*
G75*
G02*
X3460900Y-4794100I25000J0D01*
G01*
X3525900Y-4794100D01*
G75*
G02*
X3550900Y-4819100I0J-25000D01*
G01*
G37*
G36*
G01*
X5429800Y-5405100D02*
X5339800Y-5405100D01*
G75*
G02*
X5314800Y-5380100I0J25000D01*
G01*
X5314800Y-5315100D01*
G75*
G02*
X5339800Y-5290100I25000J0D01*
G01*
X5429800Y-5290100D01*
G75*
G02*
X5454800Y-5315100I0J-25000D01*
G01*
X5454800Y-5380100D01*
G75*
G02*
X5429800Y-5405100I-25000J0D01*
G01*
G37*
G36*
G01*
X5429800Y-5200100D02*
X5339800Y-5200100D01*
G75*
G02*
X5314800Y-5175100I0J25000D01*
G01*
X5314800Y-5110100D01*
G75*
G02*
X5339800Y-5085100I25000J0D01*
G01*
X5429800Y-5085100D01*
G75*
G02*
X5454800Y-5110100I0J-25000D01*
G01*
X5454800Y-5175100D01*
G75*
G02*
X5429800Y-5200100I-25000J0D01*
G01*
G37*
G36*
G01*
X1938000Y-4908000D02*
X1938000Y-4998000D01*
G75*
G02*
X1913000Y-5023000I-25000J0D01*
G01*
X1848000Y-5023000D01*
G75*
G02*
X1823000Y-4998000I0J25000D01*
G01*
X1823000Y-4908000D01*
G75*
G02*
X1848000Y-4883000I25000J0D01*
G01*
X1913000Y-4883000D01*
G75*
G02*
X1938000Y-4908000I0J-25000D01*
G01*
G37*
G36*
G01*
X1733000Y-4908000D02*
X1733000Y-4998000D01*
G75*
G02*
X1708000Y-5023000I-25000J0D01*
G01*
X1643000Y-5023000D01*
G75*
G02*
X1618000Y-4998000I0J25000D01*
G01*
X1618000Y-4908000D01*
G75*
G02*
X1643000Y-4883000I25000J0D01*
G01*
X1708000Y-4883000D01*
G75*
G02*
X1733000Y-4908000I0J-25000D01*
G01*
G37*
G36*
G01*
X2204000Y-4998000D02*
X2204000Y-4908000D01*
G75*
G02*
X2229000Y-4883000I25000J0D01*
G01*
X2294000Y-4883000D01*
G75*
G02*
X2319000Y-4908000I0J-25000D01*
G01*
X2319000Y-4998000D01*
G75*
G02*
X2294000Y-5023000I-25000J0D01*
G01*
X2229000Y-5023000D01*
G75*
G02*
X2204000Y-4998000I0J25000D01*
G01*
G37*
G36*
G01*
X1999000Y-4998000D02*
X1999000Y-4908000D01*
G75*
G02*
X2024000Y-4883000I25000J0D01*
G01*
X2089000Y-4883000D01*
G75*
G02*
X2114000Y-4908000I0J-25000D01*
G01*
X2114000Y-4998000D01*
G75*
G02*
X2089000Y-5023000I-25000J0D01*
G01*
X2024000Y-5023000D01*
G75*
G02*
X1999000Y-4998000I0J25000D01*
G01*
G37*
G36*
G01*
X1352000Y-4908000D02*
X1352000Y-4998000D01*
G75*
G02*
X1327000Y-5023000I-25000J0D01*
G01*
X1262000Y-5023000D01*
G75*
G02*
X1237000Y-4998000I0J25000D01*
G01*
X1237000Y-4908000D01*
G75*
G02*
X1262000Y-4883000I25000J0D01*
G01*
X1327000Y-4883000D01*
G75*
G02*
X1352000Y-4908000I0J-25000D01*
G01*
G37*
G36*
G01*
X1557000Y-4908000D02*
X1557000Y-4998000D01*
G75*
G02*
X1532000Y-5023000I-25000J0D01*
G01*
X1467000Y-5023000D01*
G75*
G02*
X1442000Y-4998000I0J25000D01*
G01*
X1442000Y-4908000D01*
G75*
G02*
X1467000Y-4883000I25000J0D01*
G01*
X1532000Y-4883000D01*
G75*
G02*
X1557000Y-4908000I0J-25000D01*
G01*
G37*
G36*
G01*
X5709200Y-3893100D02*
X5709200Y-3803100D01*
G75*
G02*
X5734200Y-3778100I25000J0D01*
G01*
X5799200Y-3778100D01*
G75*
G02*
X5824200Y-3803100I0J-25000D01*
G01*
X5824200Y-3893100D01*
G75*
G02*
X5799200Y-3918100I-25000J0D01*
G01*
X5734200Y-3918100D01*
G75*
G02*
X5709200Y-3893100I0J25000D01*
G01*
G37*
G36*
G01*
X5504200Y-3893100D02*
X5504200Y-3803100D01*
G75*
G02*
X5529200Y-3778100I25000J0D01*
G01*
X5594200Y-3778100D01*
G75*
G02*
X5619200Y-3803100I0J-25000D01*
G01*
X5619200Y-3893100D01*
G75*
G02*
X5594200Y-3918100I-25000J0D01*
G01*
X5529200Y-3918100D01*
G75*
G02*
X5504200Y-3893100I0J25000D01*
G01*
G37*
G36*
G01*
X5504200Y-3677200D02*
X5504200Y-3587200D01*
G75*
G02*
X5529200Y-3562200I25000J0D01*
G01*
X5594200Y-3562200D01*
G75*
G02*
X5619200Y-3587200I0J-25000D01*
G01*
X5619200Y-3677200D01*
G75*
G02*
X5594200Y-3702200I-25000J0D01*
G01*
X5529200Y-3702200D01*
G75*
G02*
X5504200Y-3677200I0J25000D01*
G01*
G37*
G36*
G01*
X5709200Y-3677200D02*
X5709200Y-3587200D01*
G75*
G02*
X5734200Y-3562200I25000J0D01*
G01*
X5799200Y-3562200D01*
G75*
G02*
X5824200Y-3587200I0J-25000D01*
G01*
X5824200Y-3677200D01*
G75*
G02*
X5799200Y-3702200I-25000J0D01*
G01*
X5734200Y-3702200D01*
G75*
G02*
X5709200Y-3677200I0J25000D01*
G01*
G37*
G36*
G01*
X2964900Y-4031700D02*
X2964900Y-4121700D01*
G75*
G02*
X2939900Y-4146700I-25000J0D01*
G01*
X2874900Y-4146700D01*
G75*
G02*
X2849900Y-4121700I0J25000D01*
G01*
X2849900Y-4031700D01*
G75*
G02*
X2874900Y-4006700I25000J0D01*
G01*
X2939900Y-4006700D01*
G75*
G02*
X2964900Y-4031700I0J-25000D01*
G01*
G37*
G36*
G01*
X3169900Y-4031700D02*
X3169900Y-4121700D01*
G75*
G02*
X3144900Y-4146700I-25000J0D01*
G01*
X3079900Y-4146700D01*
G75*
G02*
X3054900Y-4121700I0J25000D01*
G01*
X3054900Y-4031700D01*
G75*
G02*
X3079900Y-4006700I25000J0D01*
G01*
X3144900Y-4006700D01*
G75*
G02*
X3169900Y-4031700I0J-25000D01*
G01*
G37*
G36*
G01*
X3169900Y-3790400D02*
X3169900Y-3880400D01*
G75*
G02*
X3144900Y-3905400I-25000J0D01*
G01*
X3079900Y-3905400D01*
G75*
G02*
X3054900Y-3880400I0J25000D01*
G01*
X3054900Y-3790400D01*
G75*
G02*
X3079900Y-3765400I25000J0D01*
G01*
X3144900Y-3765400D01*
G75*
G02*
X3169900Y-3790400I0J-25000D01*
G01*
G37*
G36*
G01*
X2964900Y-3790400D02*
X2964900Y-3880400D01*
G75*
G02*
X2939900Y-3905400I-25000J0D01*
G01*
X2874900Y-3905400D01*
G75*
G02*
X2849900Y-3880400I0J25000D01*
G01*
X2849900Y-3790400D01*
G75*
G02*
X2874900Y-3765400I25000J0D01*
G01*
X2939900Y-3765400D01*
G75*
G02*
X2964900Y-3790400I0J-25000D01*
G01*
G37*
G36*
G01*
X7269500Y-6268000D02*
X7269500Y-6178000D01*
G75*
G02*
X7294500Y-6153000I25000J0D01*
G01*
X7359500Y-6153000D01*
G75*
G02*
X7384500Y-6178000I0J-25000D01*
G01*
X7384500Y-6268000D01*
G75*
G02*
X7359500Y-6293000I-25000J0D01*
G01*
X7294500Y-6293000D01*
G75*
G02*
X7269500Y-6268000I0J25000D01*
G01*
G37*
G36*
G01*
X7474500Y-6268000D02*
X7474500Y-6178000D01*
G75*
G02*
X7499500Y-6153000I25000J0D01*
G01*
X7564500Y-6153000D01*
G75*
G02*
X7589500Y-6178000I0J-25000D01*
G01*
X7589500Y-6268000D01*
G75*
G02*
X7564500Y-6293000I-25000J0D01*
G01*
X7499500Y-6293000D01*
G75*
G02*
X7474500Y-6268000I0J25000D01*
G01*
G37*
G36*
G01*
X8935000Y-6268000D02*
X8935000Y-6178000D01*
G75*
G02*
X8960000Y-6153000I25000J0D01*
G01*
X9025000Y-6153000D01*
G75*
G02*
X9050000Y-6178000I0J-25000D01*
G01*
X9050000Y-6268000D01*
G75*
G02*
X9025000Y-6293000I-25000J0D01*
G01*
X8960000Y-6293000D01*
G75*
G02*
X8935000Y-6268000I0J25000D01*
G01*
G37*
G36*
G01*
X8730000Y-6268000D02*
X8730000Y-6178000D01*
G75*
G02*
X8755000Y-6153000I25000J0D01*
G01*
X8820000Y-6153000D01*
G75*
G02*
X8845000Y-6178000I0J-25000D01*
G01*
X8845000Y-6268000D01*
G75*
G02*
X8820000Y-6293000I-25000J0D01*
G01*
X8755000Y-6293000D01*
G75*
G02*
X8730000Y-6268000I0J25000D01*
G01*
G37*
G36*
G01*
X10190500Y-6331500D02*
X10190500Y-6241500D01*
G75*
G02*
X10215500Y-6216500I25000J0D01*
G01*
X10280500Y-6216500D01*
G75*
G02*
X10305500Y-6241500I0J-25000D01*
G01*
X10305500Y-6331500D01*
G75*
G02*
X10280500Y-6356500I-25000J0D01*
G01*
X10215500Y-6356500D01*
G75*
G02*
X10190500Y-6331500I0J25000D01*
G01*
G37*
G36*
G01*
X10395500Y-6331500D02*
X10395500Y-6241500D01*
G75*
G02*
X10420500Y-6216500I25000J0D01*
G01*
X10485500Y-6216500D01*
G75*
G02*
X10510500Y-6241500I0J-25000D01*
G01*
X10510500Y-6331500D01*
G75*
G02*
X10485500Y-6356500I-25000J0D01*
G01*
X10420500Y-6356500D01*
G75*
G02*
X10395500Y-6331500I0J25000D01*
G01*
G37*
G36*
G01*
X2864400Y-2903200D02*
X2774400Y-2903200D01*
G75*
G02*
X2749400Y-2878200I0J25000D01*
G01*
X2749400Y-2813200D01*
G75*
G02*
X2774400Y-2788200I25000J0D01*
G01*
X2864400Y-2788200D01*
G75*
G02*
X2889400Y-2813200I0J-25000D01*
G01*
X2889400Y-2878200D01*
G75*
G02*
X2864400Y-2903200I-25000J0D01*
G01*
G37*
G36*
G01*
X2864400Y-2698200D02*
X2774400Y-2698200D01*
G75*
G02*
X2749400Y-2673200I0J25000D01*
G01*
X2749400Y-2608200D01*
G75*
G02*
X2774400Y-2583200I25000J0D01*
G01*
X2864400Y-2583200D01*
G75*
G02*
X2889400Y-2608200I0J-25000D01*
G01*
X2889400Y-2673200D01*
G75*
G02*
X2864400Y-2698200I-25000J0D01*
G01*
G37*
G36*
G01*
X2533100Y-6038300D02*
X2533100Y-6128300D01*
G75*
G02*
X2508100Y-6153300I-25000J0D01*
G01*
X2443100Y-6153300D01*
G75*
G02*
X2418100Y-6128300I0J25000D01*
G01*
X2418100Y-6038300D01*
G75*
G02*
X2443100Y-6013300I25000J0D01*
G01*
X2508100Y-6013300D01*
G75*
G02*
X2533100Y-6038300I0J-25000D01*
G01*
G37*
G36*
G01*
X2738100Y-6038300D02*
X2738100Y-6128300D01*
G75*
G02*
X2713100Y-6153300I-25000J0D01*
G01*
X2648100Y-6153300D01*
G75*
G02*
X2623100Y-6128300I0J25000D01*
G01*
X2623100Y-6038300D01*
G75*
G02*
X2648100Y-6013300I25000J0D01*
G01*
X2713100Y-6013300D01*
G75*
G02*
X2738100Y-6038300I0J-25000D01*
G01*
G37*
G36*
G01*
X3423825Y-6051000D02*
X3332575Y-6051000D01*
G75*
G02*
X3308200Y-6026625I0J24375D01*
G01*
X3308200Y-5977875D01*
G75*
G02*
X3332575Y-5953500I24375J0D01*
G01*
X3423825Y-5953500D01*
G75*
G02*
X3448200Y-5977875I0J-24375D01*
G01*
X3448200Y-6026625D01*
G75*
G02*
X3423825Y-6051000I-24375J0D01*
G01*
G37*
G36*
G01*
X3423825Y-6238500D02*
X3332575Y-6238500D01*
G75*
G02*
X3308200Y-6214125I0J24375D01*
G01*
X3308200Y-6165375D01*
G75*
G02*
X3332575Y-6141000I24375J0D01*
G01*
X3423825Y-6141000D01*
G75*
G02*
X3448200Y-6165375I0J-24375D01*
G01*
X3448200Y-6214125D01*
G75*
G02*
X3423825Y-6238500I-24375J0D01*
G01*
G37*
D12*
X1610500Y-4127500D03*
X2580500Y-4127500D03*
D13*
X11614500Y-2806700D03*
X11614500Y-3060700D03*
X11614500Y-3314700D03*
D14*
X12772000Y-3338200D03*
X12287000Y-2783200D03*
X12772000Y-2783200D03*
X12287000Y-3338200D03*
X12278500Y-4530100D03*
X12763500Y-3975100D03*
X12278500Y-3975100D03*
X12763500Y-4530100D03*
D13*
X11606000Y-4506600D03*
X11606000Y-4252600D03*
X11606000Y-3998600D03*
D14*
X12319000Y-5736600D03*
X12804000Y-5181600D03*
X12319000Y-5181600D03*
X12804000Y-5736600D03*
D13*
X11646500Y-5713100D03*
X11646500Y-5459100D03*
X11646500Y-5205100D03*
X11645300Y-6438900D03*
X11645300Y-6692900D03*
X11645300Y-6946900D03*
D14*
X12802800Y-6970400D03*
X12317800Y-6415400D03*
X12802800Y-6415400D03*
X12317800Y-6970400D03*
G36*
G01*
X11131000Y-2839000D02*
X11221000Y-2839000D01*
G75*
G02*
X11246000Y-2864000I0J-25000D01*
G01*
X11246000Y-2929000D01*
G75*
G02*
X11221000Y-2954000I-25000J0D01*
G01*
X11131000Y-2954000D01*
G75*
G02*
X11106000Y-2929000I0J25000D01*
G01*
X11106000Y-2864000D01*
G75*
G02*
X11131000Y-2839000I25000J0D01*
G01*
G37*
G36*
G01*
X11131000Y-2634000D02*
X11221000Y-2634000D01*
G75*
G02*
X11246000Y-2659000I0J-25000D01*
G01*
X11246000Y-2724000D01*
G75*
G02*
X11221000Y-2749000I-25000J0D01*
G01*
X11131000Y-2749000D01*
G75*
G02*
X11106000Y-2724000I0J25000D01*
G01*
X11106000Y-2659000D01*
G75*
G02*
X11131000Y-2634000I25000J0D01*
G01*
G37*
G36*
G01*
X11131000Y-3840500D02*
X11221000Y-3840500D01*
G75*
G02*
X11246000Y-3865500I0J-25000D01*
G01*
X11246000Y-3930500D01*
G75*
G02*
X11221000Y-3955500I-25000J0D01*
G01*
X11131000Y-3955500D01*
G75*
G02*
X11106000Y-3930500I0J25000D01*
G01*
X11106000Y-3865500D01*
G75*
G02*
X11131000Y-3840500I25000J0D01*
G01*
G37*
G36*
G01*
X11131000Y-4045500D02*
X11221000Y-4045500D01*
G75*
G02*
X11246000Y-4070500I0J-25000D01*
G01*
X11246000Y-4135500D01*
G75*
G02*
X11221000Y-4160500I-25000J0D01*
G01*
X11131000Y-4160500D01*
G75*
G02*
X11106000Y-4135500I0J25000D01*
G01*
X11106000Y-4070500D01*
G75*
G02*
X11131000Y-4045500I25000J0D01*
G01*
G37*
G36*
G01*
X11131000Y-5252000D02*
X11221000Y-5252000D01*
G75*
G02*
X11246000Y-5277000I0J-25000D01*
G01*
X11246000Y-5342000D01*
G75*
G02*
X11221000Y-5367000I-25000J0D01*
G01*
X11131000Y-5367000D01*
G75*
G02*
X11106000Y-5342000I0J25000D01*
G01*
X11106000Y-5277000D01*
G75*
G02*
X11131000Y-5252000I25000J0D01*
G01*
G37*
G36*
G01*
X11131000Y-5047000D02*
X11221000Y-5047000D01*
G75*
G02*
X11246000Y-5072000I0J-25000D01*
G01*
X11246000Y-5137000D01*
G75*
G02*
X11221000Y-5162000I-25000J0D01*
G01*
X11131000Y-5162000D01*
G75*
G02*
X11106000Y-5137000I0J25000D01*
G01*
X11106000Y-5072000D01*
G75*
G02*
X11131000Y-5047000I25000J0D01*
G01*
G37*
G36*
G01*
X11131000Y-6483000D02*
X11221000Y-6483000D01*
G75*
G02*
X11246000Y-6508000I0J-25000D01*
G01*
X11246000Y-6573000D01*
G75*
G02*
X11221000Y-6598000I-25000J0D01*
G01*
X11131000Y-6598000D01*
G75*
G02*
X11106000Y-6573000I0J25000D01*
G01*
X11106000Y-6508000D01*
G75*
G02*
X11131000Y-6483000I25000J0D01*
G01*
G37*
G36*
G01*
X11131000Y-6278000D02*
X11221000Y-6278000D01*
G75*
G02*
X11246000Y-6303000I0J-25000D01*
G01*
X11246000Y-6368000D01*
G75*
G02*
X11221000Y-6393000I-25000J0D01*
G01*
X11131000Y-6393000D01*
G75*
G02*
X11106000Y-6368000I0J25000D01*
G01*
X11106000Y-6303000D01*
G75*
G02*
X11131000Y-6278000I25000J0D01*
G01*
G37*
G36*
G01*
X11221000Y-3462000D02*
X11131000Y-3462000D01*
G75*
G02*
X11106000Y-3437000I0J25000D01*
G01*
X11106000Y-3372000D01*
G75*
G02*
X11131000Y-3347000I25000J0D01*
G01*
X11221000Y-3347000D01*
G75*
G02*
X11246000Y-3372000I0J-25000D01*
G01*
X11246000Y-3437000D01*
G75*
G02*
X11221000Y-3462000I-25000J0D01*
G01*
G37*
G36*
G01*
X11221000Y-3257000D02*
X11131000Y-3257000D01*
G75*
G02*
X11106000Y-3232000I0J25000D01*
G01*
X11106000Y-3167000D01*
G75*
G02*
X11131000Y-3142000I25000J0D01*
G01*
X11221000Y-3142000D01*
G75*
G02*
X11246000Y-3167000I0J-25000D01*
G01*
X11246000Y-3232000D01*
G75*
G02*
X11221000Y-3257000I-25000J0D01*
G01*
G37*
G36*
G01*
X11221000Y-4463500D02*
X11131000Y-4463500D01*
G75*
G02*
X11106000Y-4438500I0J25000D01*
G01*
X11106000Y-4373500D01*
G75*
G02*
X11131000Y-4348500I25000J0D01*
G01*
X11221000Y-4348500D01*
G75*
G02*
X11246000Y-4373500I0J-25000D01*
G01*
X11246000Y-4438500D01*
G75*
G02*
X11221000Y-4463500I-25000J0D01*
G01*
G37*
G36*
G01*
X11221000Y-4668500D02*
X11131000Y-4668500D01*
G75*
G02*
X11106000Y-4643500I0J25000D01*
G01*
X11106000Y-4578500D01*
G75*
G02*
X11131000Y-4553500I25000J0D01*
G01*
X11221000Y-4553500D01*
G75*
G02*
X11246000Y-4578500I0J-25000D01*
G01*
X11246000Y-4643500D01*
G75*
G02*
X11221000Y-4668500I-25000J0D01*
G01*
G37*
G36*
G01*
X11221000Y-5670000D02*
X11131000Y-5670000D01*
G75*
G02*
X11106000Y-5645000I0J25000D01*
G01*
X11106000Y-5580000D01*
G75*
G02*
X11131000Y-5555000I25000J0D01*
G01*
X11221000Y-5555000D01*
G75*
G02*
X11246000Y-5580000I0J-25000D01*
G01*
X11246000Y-5645000D01*
G75*
G02*
X11221000Y-5670000I-25000J0D01*
G01*
G37*
G36*
G01*
X11221000Y-5875000D02*
X11131000Y-5875000D01*
G75*
G02*
X11106000Y-5850000I0J25000D01*
G01*
X11106000Y-5785000D01*
G75*
G02*
X11131000Y-5760000I25000J0D01*
G01*
X11221000Y-5760000D01*
G75*
G02*
X11246000Y-5785000I0J-25000D01*
G01*
X11246000Y-5850000D01*
G75*
G02*
X11221000Y-5875000I-25000J0D01*
G01*
G37*
G36*
G01*
X11221000Y-7081500D02*
X11131000Y-7081500D01*
G75*
G02*
X11106000Y-7056500I0J25000D01*
G01*
X11106000Y-6991500D01*
G75*
G02*
X11131000Y-6966500I25000J0D01*
G01*
X11221000Y-6966500D01*
G75*
G02*
X11246000Y-6991500I0J-25000D01*
G01*
X11246000Y-7056500D01*
G75*
G02*
X11221000Y-7081500I-25000J0D01*
G01*
G37*
G36*
G01*
X11221000Y-6876500D02*
X11131000Y-6876500D01*
G75*
G02*
X11106000Y-6851500I0J25000D01*
G01*
X11106000Y-6786500D01*
G75*
G02*
X11131000Y-6761500I25000J0D01*
G01*
X11221000Y-6761500D01*
G75*
G02*
X11246000Y-6786500I0J-25000D01*
G01*
X11246000Y-6851500D01*
G75*
G02*
X11221000Y-6876500I-25000J0D01*
G01*
G37*
G36*
G01*
X7269500Y-6585500D02*
X7269500Y-6495500D01*
G75*
G02*
X7294500Y-6470500I25000J0D01*
G01*
X7359500Y-6470500D01*
G75*
G02*
X7384500Y-6495500I0J-25000D01*
G01*
X7384500Y-6585500D01*
G75*
G02*
X7359500Y-6610500I-25000J0D01*
G01*
X7294500Y-6610500D01*
G75*
G02*
X7269500Y-6585500I0J25000D01*
G01*
G37*
G36*
G01*
X7474500Y-6585500D02*
X7474500Y-6495500D01*
G75*
G02*
X7499500Y-6470500I25000J0D01*
G01*
X7564500Y-6470500D01*
G75*
G02*
X7589500Y-6495500I0J-25000D01*
G01*
X7589500Y-6585500D01*
G75*
G02*
X7564500Y-6610500I-25000J0D01*
G01*
X7499500Y-6610500D01*
G75*
G02*
X7474500Y-6585500I0J25000D01*
G01*
G37*
G36*
G01*
X8935000Y-6585500D02*
X8935000Y-6495500D01*
G75*
G02*
X8960000Y-6470500I25000J0D01*
G01*
X9025000Y-6470500D01*
G75*
G02*
X9050000Y-6495500I0J-25000D01*
G01*
X9050000Y-6585500D01*
G75*
G02*
X9025000Y-6610500I-25000J0D01*
G01*
X8960000Y-6610500D01*
G75*
G02*
X8935000Y-6585500I0J25000D01*
G01*
G37*
G36*
G01*
X8730000Y-6585500D02*
X8730000Y-6495500D01*
G75*
G02*
X8755000Y-6470500I25000J0D01*
G01*
X8820000Y-6470500D01*
G75*
G02*
X8845000Y-6495500I0J-25000D01*
G01*
X8845000Y-6585500D01*
G75*
G02*
X8820000Y-6610500I-25000J0D01*
G01*
X8755000Y-6610500D01*
G75*
G02*
X8730000Y-6585500I0J25000D01*
G01*
G37*
G36*
G01*
X10395500Y-6649000D02*
X10395500Y-6559000D01*
G75*
G02*
X10420500Y-6534000I25000J0D01*
G01*
X10485500Y-6534000D01*
G75*
G02*
X10510500Y-6559000I0J-25000D01*
G01*
X10510500Y-6649000D01*
G75*
G02*
X10485500Y-6674000I-25000J0D01*
G01*
X10420500Y-6674000D01*
G75*
G02*
X10395500Y-6649000I0J25000D01*
G01*
G37*
G36*
G01*
X10190500Y-6649000D02*
X10190500Y-6559000D01*
G75*
G02*
X10215500Y-6534000I25000J0D01*
G01*
X10280500Y-6534000D01*
G75*
G02*
X10305500Y-6559000I0J-25000D01*
G01*
X10305500Y-6649000D01*
G75*
G02*
X10280500Y-6674000I-25000J0D01*
G01*
X10215500Y-6674000D01*
G75*
G02*
X10190500Y-6649000I0J25000D01*
G01*
G37*
G36*
G01*
X2637400Y-2583900D02*
X2637400Y-2673900D01*
G75*
G02*
X2612400Y-2698900I-25000J0D01*
G01*
X2547400Y-2698900D01*
G75*
G02*
X2522400Y-2673900I0J25000D01*
G01*
X2522400Y-2583900D01*
G75*
G02*
X2547400Y-2558900I25000J0D01*
G01*
X2612400Y-2558900D01*
G75*
G02*
X2637400Y-2583900I0J-25000D01*
G01*
G37*
G36*
G01*
X2432400Y-2583900D02*
X2432400Y-2673900D01*
G75*
G02*
X2407400Y-2698900I-25000J0D01*
G01*
X2342400Y-2698900D01*
G75*
G02*
X2317400Y-2673900I0J25000D01*
G01*
X2317400Y-2583900D01*
G75*
G02*
X2342400Y-2558900I25000J0D01*
G01*
X2407400Y-2558900D01*
G75*
G02*
X2432400Y-2583900I0J-25000D01*
G01*
G37*
G36*
G01*
X2774400Y-3027700D02*
X2864400Y-3027700D01*
G75*
G02*
X2889400Y-3052700I0J-25000D01*
G01*
X2889400Y-3117700D01*
G75*
G02*
X2864400Y-3142700I-25000J0D01*
G01*
X2774400Y-3142700D01*
G75*
G02*
X2749400Y-3117700I0J25000D01*
G01*
X2749400Y-3052700D01*
G75*
G02*
X2774400Y-3027700I25000J0D01*
G01*
G37*
G36*
G01*
X2774400Y-3232700D02*
X2864400Y-3232700D01*
G75*
G02*
X2889400Y-3257700I0J-25000D01*
G01*
X2889400Y-3322700D01*
G75*
G02*
X2864400Y-3347700I-25000J0D01*
G01*
X2774400Y-3347700D01*
G75*
G02*
X2749400Y-3322700I0J25000D01*
G01*
X2749400Y-3257700D01*
G75*
G02*
X2774400Y-3232700I25000J0D01*
G01*
G37*
G36*
G01*
X2316500Y-3359700D02*
X2316500Y-3269700D01*
G75*
G02*
X2341500Y-3244700I25000J0D01*
G01*
X2406500Y-3244700D01*
G75*
G02*
X2431500Y-3269700I0J-25000D01*
G01*
X2431500Y-3359700D01*
G75*
G02*
X2406500Y-3384700I-25000J0D01*
G01*
X2341500Y-3384700D01*
G75*
G02*
X2316500Y-3359700I0J25000D01*
G01*
G37*
G36*
G01*
X2521500Y-3359700D02*
X2521500Y-3269700D01*
G75*
G02*
X2546500Y-3244700I25000J0D01*
G01*
X2611500Y-3244700D01*
G75*
G02*
X2636500Y-3269700I0J-25000D01*
G01*
X2636500Y-3359700D01*
G75*
G02*
X2611500Y-3384700I-25000J0D01*
G01*
X2546500Y-3384700D01*
G75*
G02*
X2521500Y-3359700I0J25000D01*
G01*
G37*
G36*
G01*
X2164800Y-5923300D02*
X2254800Y-5923300D01*
G75*
G02*
X2279800Y-5948300I0J-25000D01*
G01*
X2279800Y-6013300D01*
G75*
G02*
X2254800Y-6038300I-25000J0D01*
G01*
X2164800Y-6038300D01*
G75*
G02*
X2139800Y-6013300I0J25000D01*
G01*
X2139800Y-5948300D01*
G75*
G02*
X2164800Y-5923300I25000J0D01*
G01*
G37*
G36*
G01*
X2164800Y-6128300D02*
X2254800Y-6128300D01*
G75*
G02*
X2279800Y-6153300I0J-25000D01*
G01*
X2279800Y-6218300D01*
G75*
G02*
X2254800Y-6243300I-25000J0D01*
G01*
X2164800Y-6243300D01*
G75*
G02*
X2139800Y-6218300I0J25000D01*
G01*
X2139800Y-6153300D01*
G75*
G02*
X2164800Y-6128300I25000J0D01*
G01*
G37*
G36*
G01*
X3333200Y-6547400D02*
X3423200Y-6547400D01*
G75*
G02*
X3448200Y-6572400I0J-25000D01*
G01*
X3448200Y-6637400D01*
G75*
G02*
X3423200Y-6662400I-25000J0D01*
G01*
X3333200Y-6662400D01*
G75*
G02*
X3308200Y-6637400I0J25000D01*
G01*
X3308200Y-6572400D01*
G75*
G02*
X3333200Y-6547400I25000J0D01*
G01*
G37*
G36*
G01*
X3333200Y-6342400D02*
X3423200Y-6342400D01*
G75*
G02*
X3448200Y-6367400I0J-25000D01*
G01*
X3448200Y-6432400D01*
G75*
G02*
X3423200Y-6457400I-25000J0D01*
G01*
X3333200Y-6457400D01*
G75*
G02*
X3308200Y-6432400I0J25000D01*
G01*
X3308200Y-6367400D01*
G75*
G02*
X3333200Y-6342400I25000J0D01*
G01*
G37*
D15*
X6066800Y-2772200D03*
X6861800Y-2772200D03*
X6066800Y-3222200D03*
X6861800Y-3222200D03*
D16*
X7064500Y-6159500D03*
X7064500Y-6286500D03*
X7064500Y-6413500D03*
X7064500Y-6540500D03*
X6524500Y-6540500D03*
X6524500Y-6413500D03*
X6524500Y-6286500D03*
X6524500Y-6159500D03*
X7985000Y-6159500D03*
X7985000Y-6286500D03*
X7985000Y-6413500D03*
X7985000Y-6540500D03*
X8525000Y-6540500D03*
X8525000Y-6413500D03*
X8525000Y-6286500D03*
X8525000Y-6159500D03*
X9985500Y-6159500D03*
X9985500Y-6286500D03*
X9985500Y-6413500D03*
X9985500Y-6540500D03*
X9445500Y-6540500D03*
X9445500Y-6413500D03*
X9445500Y-6286500D03*
X9445500Y-6159500D03*
D17*
X3126700Y-2741800D03*
X3126700Y-3201800D03*
X3126700Y-2971800D03*
D18*
X3756700Y-2971800D03*
D16*
X2086100Y-2921000D03*
X2086100Y-3048000D03*
X2086100Y-3175000D03*
X2086100Y-3302000D03*
X1546100Y-3302000D03*
X1546100Y-3175000D03*
X1546100Y-3048000D03*
X1546100Y-2921000D03*
D19*
X1816100Y-3111500D03*
D20*
X1365250Y-5201000D03*
X1428750Y-5201000D03*
X1492250Y-5201000D03*
X1555750Y-5201000D03*
X1619250Y-5201000D03*
X1682750Y-5201000D03*
X1746250Y-5201000D03*
X1809750Y-5201000D03*
X1873250Y-5201000D03*
X1936750Y-5201000D03*
X2000250Y-5201000D03*
X2063750Y-5201000D03*
X2127250Y-5201000D03*
X2190750Y-5201000D03*
X2190750Y-5721000D03*
X2127250Y-5721000D03*
X2063750Y-5721000D03*
X2000250Y-5721000D03*
X1936750Y-5721000D03*
X1873250Y-5721000D03*
X1809750Y-5721000D03*
X1746250Y-5721000D03*
X1682750Y-5721000D03*
X1619250Y-5721000D03*
X1555750Y-5721000D03*
X1492250Y-5721000D03*
X1428750Y-5721000D03*
X1365250Y-5721000D03*
G36*
G01*
X4323800Y-5633000D02*
X4413800Y-5633000D01*
G75*
G02*
X4438800Y-5658000I0J-25000D01*
G01*
X4438800Y-5723000D01*
G75*
G02*
X4413800Y-5748000I-25000J0D01*
G01*
X4323800Y-5748000D01*
G75*
G02*
X4298800Y-5723000I0J25000D01*
G01*
X4298800Y-5658000D01*
G75*
G02*
X4323800Y-5633000I25000J0D01*
G01*
G37*
G36*
G01*
X4323800Y-5428000D02*
X4413800Y-5428000D01*
G75*
G02*
X4438800Y-5453000I0J-25000D01*
G01*
X4438800Y-5518000D01*
G75*
G02*
X4413800Y-5543000I-25000J0D01*
G01*
X4323800Y-5543000D01*
G75*
G02*
X4298800Y-5518000I0J25000D01*
G01*
X4298800Y-5453000D01*
G75*
G02*
X4323800Y-5428000I25000J0D01*
G01*
G37*
G36*
G01*
X4831800Y-3015000D02*
X4921800Y-3015000D01*
G75*
G02*
X4946800Y-3040000I0J-25000D01*
G01*
X4946800Y-3105000D01*
G75*
G02*
X4921800Y-3130000I-25000J0D01*
G01*
X4831800Y-3130000D01*
G75*
G02*
X4806800Y-3105000I0J25000D01*
G01*
X4806800Y-3040000D01*
G75*
G02*
X4831800Y-3015000I25000J0D01*
G01*
G37*
G36*
G01*
X4831800Y-3220000D02*
X4921800Y-3220000D01*
G75*
G02*
X4946800Y-3245000I0J-25000D01*
G01*
X4946800Y-3310000D01*
G75*
G02*
X4921800Y-3335000I-25000J0D01*
G01*
X4831800Y-3335000D01*
G75*
G02*
X4806800Y-3310000I0J25000D01*
G01*
X4806800Y-3245000D01*
G75*
G02*
X4831800Y-3220000I25000J0D01*
G01*
G37*
D21*
X3390900Y-4087400D03*
X3390900Y-3837400D03*
D22*
X3475900Y-4339300D03*
X3475900Y-4559300D03*
X3305900Y-4559300D03*
X3305900Y-4339300D03*
D23*
X1363200Y-6168300D03*
X1583200Y-6168300D03*
X1583200Y-5998300D03*
X1363200Y-5998300D03*
G36*
G01*
X3144425Y-6051000D02*
X3053175Y-6051000D01*
G75*
G02*
X3028800Y-6026625I0J24375D01*
G01*
X3028800Y-5977875D01*
G75*
G02*
X3053175Y-5953500I24375J0D01*
G01*
X3144425Y-5953500D01*
G75*
G02*
X3168800Y-5977875I0J-24375D01*
G01*
X3168800Y-6026625D01*
G75*
G02*
X3144425Y-6051000I-24375J0D01*
G01*
G37*
G36*
G01*
X3144425Y-6238500D02*
X3053175Y-6238500D01*
G75*
G02*
X3028800Y-6214125I0J24375D01*
G01*
X3028800Y-6165375D01*
G75*
G02*
X3053175Y-6141000I24375J0D01*
G01*
X3144425Y-6141000D01*
G75*
G02*
X3168800Y-6165375I0J-24375D01*
G01*
X3168800Y-6214125D01*
G75*
G02*
X3144425Y-6238500I-24375J0D01*
G01*
G37*
G36*
G01*
X3703225Y-6238500D02*
X3611975Y-6238500D01*
G75*
G02*
X3587600Y-6214125I0J24375D01*
G01*
X3587600Y-6165375D01*
G75*
G02*
X3611975Y-6141000I24375J0D01*
G01*
X3703225Y-6141000D01*
G75*
G02*
X3727600Y-6165375I0J-24375D01*
G01*
X3727600Y-6214125D01*
G75*
G02*
X3703225Y-6238500I-24375J0D01*
G01*
G37*
G36*
G01*
X3703225Y-6051000D02*
X3611975Y-6051000D01*
G75*
G02*
X3587600Y-6026625I0J24375D01*
G01*
X3587600Y-5977875D01*
G75*
G02*
X3611975Y-5953500I24375J0D01*
G01*
X3703225Y-5953500D01*
G75*
G02*
X3727600Y-5977875I0J-24375D01*
G01*
X3727600Y-6026625D01*
G75*
G02*
X3703225Y-6051000I-24375J0D01*
G01*
G37*
G36*
G01*
X3053800Y-6547400D02*
X3143800Y-6547400D01*
G75*
G02*
X3168800Y-6572400I0J-25000D01*
G01*
X3168800Y-6637400D01*
G75*
G02*
X3143800Y-6662400I-25000J0D01*
G01*
X3053800Y-6662400D01*
G75*
G02*
X3028800Y-6637400I0J25000D01*
G01*
X3028800Y-6572400D01*
G75*
G02*
X3053800Y-6547400I25000J0D01*
G01*
G37*
G36*
G01*
X3053800Y-6342400D02*
X3143800Y-6342400D01*
G75*
G02*
X3168800Y-6367400I0J-25000D01*
G01*
X3168800Y-6432400D01*
G75*
G02*
X3143800Y-6457400I-25000J0D01*
G01*
X3053800Y-6457400D01*
G75*
G02*
X3028800Y-6432400I0J25000D01*
G01*
X3028800Y-6367400D01*
G75*
G02*
X3053800Y-6342400I25000J0D01*
G01*
G37*
G36*
G01*
X3612600Y-6342400D02*
X3702600Y-6342400D01*
G75*
G02*
X3727600Y-6367400I0J-25000D01*
G01*
X3727600Y-6432400D01*
G75*
G02*
X3702600Y-6457400I-25000J0D01*
G01*
X3612600Y-6457400D01*
G75*
G02*
X3587600Y-6432400I0J25000D01*
G01*
X3587600Y-6367400D01*
G75*
G02*
X3612600Y-6342400I25000J0D01*
G01*
G37*
G36*
G01*
X3612600Y-6547400D02*
X3702600Y-6547400D01*
G75*
G02*
X3727600Y-6572400I0J-25000D01*
G01*
X3727600Y-6637400D01*
G75*
G02*
X3702600Y-6662400I-25000J0D01*
G01*
X3612600Y-6662400D01*
G75*
G02*
X3587600Y-6637400I0J25000D01*
G01*
X3587600Y-6572400D01*
G75*
G02*
X3612600Y-6547400I25000J0D01*
G01*
G37*
D24*
X6985000Y-5486400D03*
X6731000Y-5486400D03*
X6477000Y-5486400D03*
X6223000Y-5486400D03*
X6223000Y-3810000D03*
X6477000Y-3810000D03*
X6731000Y-3810000D03*
X6985000Y-3810000D03*
M02*
