%TF.GenerationSoftware,KiCad,Pcbnew,5.1.7+dfsg1-1~bpo10+1*%
%TF.CreationDate,2020-11-15T21:32:29+00:00*%
%TF.ProjectId,mobo,6d6f626f-2e6b-4696-9361-645f70636258,rev?*%
%TF.SameCoordinates,Original*%
%TF.FileFunction,Other,Fab,Top*%
%FSLAX45Y45*%
G04 Gerber Fmt 4.5, Leading zero omitted, Abs format (unit mm)*
G04 Created by KiCad (PCBNEW 5.1.7+dfsg1-1~bpo10+1) date 2020-11-15 21:32:29*
%MOMM*%
%LPD*%
G01*
G04 APERTURE LIST*
%TA.AperFunction,Profile*%
%ADD10C,0.050000*%
%TD*%
%ADD11C,0.100000*%
%ADD12C,0.120000*%
%ADD13C,0.150000*%
G04 APERTURE END LIST*
D10*
X0Y-7467600D02*
X13970000Y-7467600D01*
X13970000Y-7467600D02*
X13970000Y0D01*
X13970000Y0D02*
X0Y0D01*
X0Y0D02*
X0Y-7467600D01*
D11*
X3843800Y-3789800D02*
X3943800Y-3689800D01*
X3843800Y-5089800D02*
X3843800Y-3789800D01*
X5243800Y-5089800D02*
X3843800Y-5089800D01*
X5243800Y-3689800D02*
X5243800Y-5089800D01*
X3943800Y-3689800D02*
X5243800Y-3689800D01*
X1016000Y-2661500D02*
X-354000Y-2661500D01*
X1096000Y-3561500D02*
X1096000Y-2736500D01*
X-354000Y-3561500D02*
X1096000Y-3561500D01*
X-354000Y-2661500D02*
X-354000Y-3561500D01*
X-4000Y-2661500D02*
X-4000Y-3561500D01*
X1015679Y-2660958D02*
X1096000Y-2736500D01*
X5774100Y-3271200D02*
X5669600Y-3271200D01*
X5774100Y-3231200D02*
X5774100Y-3271200D01*
X5669600Y-3231200D02*
X5774100Y-3231200D01*
X5224100Y-3271200D02*
X5328600Y-3271200D01*
X5224100Y-3231200D02*
X5224100Y-3271200D01*
X5328600Y-3231200D02*
X5224100Y-3231200D01*
X5774100Y-3144200D02*
X5669600Y-3144200D01*
X5774100Y-3104200D02*
X5774100Y-3144200D01*
X5669600Y-3104200D02*
X5774100Y-3104200D01*
X5224100Y-3144200D02*
X5328600Y-3144200D01*
X5224100Y-3104200D02*
X5224100Y-3144200D01*
X5328600Y-3104200D02*
X5224100Y-3104200D01*
X5774100Y-3017200D02*
X5669600Y-3017200D01*
X5774100Y-2977200D02*
X5774100Y-3017200D01*
X5669600Y-2977200D02*
X5774100Y-2977200D01*
X5224100Y-3017200D02*
X5328600Y-3017200D01*
X5224100Y-2977200D02*
X5224100Y-3017200D01*
X5328600Y-2977200D02*
X5224100Y-2977200D01*
X5774100Y-2890200D02*
X5669600Y-2890200D01*
X5774100Y-2850200D02*
X5774100Y-2890200D01*
X5669600Y-2850200D02*
X5774100Y-2850200D01*
X5224100Y-2890200D02*
X5328600Y-2890200D01*
X5224100Y-2850200D02*
X5224100Y-2890200D01*
X5328600Y-2850200D02*
X5224100Y-2850200D01*
X5774100Y-2763200D02*
X5669600Y-2763200D01*
X5774100Y-2723200D02*
X5774100Y-2763200D01*
X5669600Y-2723200D02*
X5774100Y-2723200D01*
X5224100Y-2763200D02*
X5328600Y-2763200D01*
X5224100Y-2723200D02*
X5224100Y-2763200D01*
X5328600Y-2723200D02*
X5224100Y-2723200D01*
X5669600Y-2679700D02*
X5669600Y-3314700D01*
X5328600Y-2723200D02*
X5372100Y-2679700D01*
X5328600Y-3314700D02*
X5328600Y-2723200D01*
X5372100Y-2679700D02*
X5669600Y-2679700D01*
X5669600Y-3314700D02*
X5328600Y-3314700D01*
X10369500Y-4372500D02*
X10944500Y-4372500D01*
X10944500Y-4372500D02*
X10944500Y-2632500D01*
X10944500Y-2632500D02*
X10369500Y-2632500D01*
X10369500Y-2632500D02*
X10369500Y-4372500D01*
X10369500Y-4190000D02*
X10469500Y-4127500D01*
X10469500Y-4127500D02*
X10369500Y-4065000D01*
X9645600Y-4372500D02*
X10220600Y-4372500D01*
X10220600Y-4372500D02*
X10220600Y-2632500D01*
X10220600Y-2632500D02*
X9645600Y-2632500D01*
X9645600Y-2632500D02*
X9645600Y-4372500D01*
X9645600Y-4190000D02*
X9745600Y-4127500D01*
X9745600Y-4127500D02*
X9645600Y-4065000D01*
X10369500Y-6087000D02*
X10944500Y-6087000D01*
X10944500Y-6087000D02*
X10944500Y-4597000D01*
X10944500Y-4597000D02*
X10369500Y-4597000D01*
X10369500Y-4597000D02*
X10369500Y-6087000D01*
X10369500Y-5904500D02*
X10469500Y-5842000D01*
X10469500Y-5842000D02*
X10369500Y-5779500D01*
X9645600Y-5833000D02*
X10220600Y-5833000D01*
X10220600Y-5833000D02*
X10220600Y-4593000D01*
X10220600Y-4593000D02*
X9645600Y-4593000D01*
X9645600Y-4593000D02*
X9645600Y-5833000D01*
X9645600Y-5650500D02*
X9745600Y-5588000D01*
X9745600Y-5588000D02*
X9645600Y-5525500D01*
X4128100Y-3223484D02*
X4191100Y-3223484D01*
X4159600Y-3254984D02*
X4159600Y-3191984D01*
X4522600Y-3314500D02*
X4622600Y-3214500D01*
X4062600Y-3314500D02*
X3962600Y-3214500D01*
X4062600Y-3314500D02*
X4522600Y-3314500D01*
X4622600Y-3214500D02*
X4622600Y-2654500D01*
X3962600Y-3214500D02*
X3962600Y-2654500D01*
X3962600Y-2654500D02*
X4622600Y-2654500D01*
X4607600Y-2984500D02*
G75*
G03*
X4607600Y-2984500I-315000J0D01*
G01*
X2958500Y-5031516D02*
X2895500Y-5031516D01*
X2927000Y-5000016D02*
X2927000Y-5063016D01*
X2564000Y-4940500D02*
X2464000Y-5040500D01*
X3024000Y-4940500D02*
X3124000Y-5040500D01*
X3024000Y-4940500D02*
X2564000Y-4940500D01*
X2464000Y-5040500D02*
X2464000Y-5600500D01*
X3124000Y-5040500D02*
X3124000Y-5600500D01*
X3124000Y-5600500D02*
X2464000Y-5600500D01*
X3109000Y-5270500D02*
G75*
G03*
X3109000Y-5270500I-315000J0D01*
G01*
X772384Y-4482500D02*
X772384Y-4419500D01*
X803884Y-4451000D02*
X740884Y-4451000D01*
X863400Y-4088000D02*
X763400Y-3988000D01*
X863400Y-4548000D02*
X763400Y-4648000D01*
X863400Y-4548000D02*
X863400Y-4088000D01*
X763400Y-3988000D02*
X203400Y-3988000D01*
X763400Y-4648000D02*
X203400Y-4648000D01*
X203400Y-4648000D02*
X203400Y-3988000D01*
X848400Y-4318000D02*
G75*
G03*
X848400Y-4318000I-315000J0D01*
G01*
X7000016Y-1486500D02*
X7000016Y-1549500D01*
X6968516Y-1518000D02*
X7031516Y-1518000D01*
X6909000Y-1881000D02*
X7009000Y-1981000D01*
X6909000Y-1421000D02*
X7009000Y-1321000D01*
X6909000Y-1421000D02*
X6909000Y-1881000D01*
X7009000Y-1981000D02*
X7569000Y-1981000D01*
X7009000Y-1321000D02*
X7569000Y-1321000D01*
X7569000Y-1321000D02*
X7569000Y-1981000D01*
X7554000Y-1651000D02*
G75*
G03*
X7554000Y-1651000I-315000J0D01*
G01*
X523016Y-1486500D02*
X523016Y-1549500D01*
X491516Y-1518000D02*
X554516Y-1518000D01*
X432000Y-1881000D02*
X532000Y-1981000D01*
X432000Y-1421000D02*
X532000Y-1321000D01*
X432000Y-1421000D02*
X432000Y-1881000D01*
X532000Y-1981000D02*
X1092000Y-1981000D01*
X532000Y-1321000D02*
X1092000Y-1321000D01*
X1092000Y-1321000D02*
X1092000Y-1981000D01*
X1077000Y-1651000D02*
G75*
G03*
X1077000Y-1651000I-315000J0D01*
G01*
X4841016Y-1486500D02*
X4841016Y-1549500D01*
X4809516Y-1518000D02*
X4872516Y-1518000D01*
X4750000Y-1881000D02*
X4850000Y-1981000D01*
X4750000Y-1421000D02*
X4850000Y-1321000D01*
X4750000Y-1421000D02*
X4750000Y-1881000D01*
X4850000Y-1981000D02*
X5410000Y-1981000D01*
X4850000Y-1321000D02*
X5410000Y-1321000D01*
X5410000Y-1321000D02*
X5410000Y-1981000D01*
X5395000Y-1651000D02*
G75*
G03*
X5395000Y-1651000I-315000J0D01*
G01*
X9159016Y-1486500D02*
X9159016Y-1549500D01*
X9127516Y-1518000D02*
X9190516Y-1518000D01*
X9068000Y-1881000D02*
X9168000Y-1981000D01*
X9068000Y-1421000D02*
X9168000Y-1321000D01*
X9068000Y-1421000D02*
X9068000Y-1881000D01*
X9168000Y-1981000D02*
X9728000Y-1981000D01*
X9168000Y-1321000D02*
X9728000Y-1321000D01*
X9728000Y-1321000D02*
X9728000Y-1981000D01*
X9713000Y-1651000D02*
G75*
G03*
X9713000Y-1651000I-315000J0D01*
G01*
X2682016Y-1486500D02*
X2682016Y-1549500D01*
X2650516Y-1518000D02*
X2713516Y-1518000D01*
X2591000Y-1881000D02*
X2691000Y-1981000D01*
X2591000Y-1421000D02*
X2691000Y-1321000D01*
X2591000Y-1421000D02*
X2591000Y-1881000D01*
X2691000Y-1981000D02*
X3251000Y-1981000D01*
X2691000Y-1321000D02*
X3251000Y-1321000D01*
X3251000Y-1321000D02*
X3251000Y-1981000D01*
X3236000Y-1651000D02*
G75*
G03*
X3236000Y-1651000I-315000J0D01*
G01*
X11594500Y-1424716D02*
X11531500Y-1424716D01*
X11563000Y-1393216D02*
X11563000Y-1456216D01*
X11200000Y-1333700D02*
X11100000Y-1433700D01*
X11660000Y-1333700D02*
X11760000Y-1433700D01*
X11660000Y-1333700D02*
X11200000Y-1333700D01*
X11100000Y-1433700D02*
X11100000Y-1993700D01*
X11760000Y-1433700D02*
X11760000Y-1993700D01*
X11760000Y-1993700D02*
X11100000Y-1993700D01*
X11745000Y-1663700D02*
G75*
G03*
X11745000Y-1663700I-315000J0D01*
G01*
X1146500Y-4100500D02*
X1146500Y-3900500D01*
X1266500Y-4100500D02*
X1146500Y-4100500D01*
X1266500Y-3900500D02*
X1266500Y-4100500D01*
X1146500Y-3900500D02*
X1266500Y-3900500D01*
X2144700Y-2688900D02*
X1944700Y-2688900D01*
X2144700Y-2568900D02*
X2144700Y-2688900D01*
X1944700Y-2568900D02*
X2144700Y-2568900D01*
X1944700Y-2688900D02*
X1944700Y-2568900D01*
X2576500Y-3026100D02*
X2576500Y-3146100D01*
X2576500Y-3146100D02*
X2376500Y-3146100D01*
X2376500Y-3146100D02*
X2376500Y-3026100D01*
X2376500Y-3026100D02*
X2576500Y-3026100D01*
X2576500Y-2797500D02*
X2576500Y-2917500D01*
X2576500Y-2917500D02*
X2376500Y-2917500D01*
X2376500Y-2917500D02*
X2376500Y-2797500D01*
X2376500Y-2797500D02*
X2576500Y-2797500D01*
X1712900Y-2688900D02*
X1512900Y-2688900D01*
X1712900Y-2568900D02*
X1712900Y-2688900D01*
X1512900Y-2568900D02*
X1712900Y-2568900D01*
X1512900Y-2688900D02*
X1512900Y-2568900D01*
X2909000Y-4270700D02*
X3109000Y-4270700D01*
X2909000Y-4390700D02*
X2909000Y-4270700D01*
X3109000Y-4390700D02*
X2909000Y-4390700D01*
X3109000Y-4270700D02*
X3109000Y-4390700D01*
X3109000Y-4512000D02*
X3109000Y-4632000D01*
X3109000Y-4632000D02*
X2909000Y-4632000D01*
X2909000Y-4632000D02*
X2909000Y-4512000D01*
X2909000Y-4512000D02*
X3109000Y-4512000D01*
X3290900Y-4804100D02*
X3490900Y-4804100D01*
X3290900Y-4924100D02*
X3290900Y-4804100D01*
X3490900Y-4924100D02*
X3290900Y-4924100D01*
X3490900Y-4804100D02*
X3490900Y-4924100D01*
X5444800Y-5345100D02*
X5324800Y-5345100D01*
X5324800Y-5345100D02*
X5324800Y-5145100D01*
X5324800Y-5145100D02*
X5444800Y-5145100D01*
X5444800Y-5145100D02*
X5444800Y-5345100D01*
X1878000Y-4893000D02*
X1878000Y-5013000D01*
X1878000Y-5013000D02*
X1678000Y-5013000D01*
X1678000Y-5013000D02*
X1678000Y-4893000D01*
X1678000Y-4893000D02*
X1878000Y-4893000D01*
X2259000Y-5013000D02*
X2059000Y-5013000D01*
X2259000Y-4893000D02*
X2259000Y-5013000D01*
X2059000Y-4893000D02*
X2259000Y-4893000D01*
X2059000Y-5013000D02*
X2059000Y-4893000D01*
X1297000Y-4893000D02*
X1497000Y-4893000D01*
X1297000Y-5013000D02*
X1297000Y-4893000D01*
X1497000Y-5013000D02*
X1297000Y-5013000D01*
X1497000Y-4893000D02*
X1497000Y-5013000D01*
X5764200Y-3908100D02*
X5564200Y-3908100D01*
X5764200Y-3788100D02*
X5764200Y-3908100D01*
X5564200Y-3788100D02*
X5764200Y-3788100D01*
X5564200Y-3908100D02*
X5564200Y-3788100D01*
X5564200Y-3692200D02*
X5564200Y-3572200D01*
X5564200Y-3572200D02*
X5764200Y-3572200D01*
X5764200Y-3572200D02*
X5764200Y-3692200D01*
X5764200Y-3692200D02*
X5564200Y-3692200D01*
X2909900Y-4016700D02*
X3109900Y-4016700D01*
X2909900Y-4136700D02*
X2909900Y-4016700D01*
X3109900Y-4136700D02*
X2909900Y-4136700D01*
X3109900Y-4016700D02*
X3109900Y-4136700D01*
X3109900Y-3775400D02*
X3109900Y-3895400D01*
X3109900Y-3895400D02*
X2909900Y-3895400D01*
X2909900Y-3895400D02*
X2909900Y-3775400D01*
X2909900Y-3775400D02*
X3109900Y-3775400D01*
X7329500Y-6283000D02*
X7329500Y-6163000D01*
X7329500Y-6163000D02*
X7529500Y-6163000D01*
X7529500Y-6163000D02*
X7529500Y-6283000D01*
X7529500Y-6283000D02*
X7329500Y-6283000D01*
X8990000Y-6283000D02*
X8790000Y-6283000D01*
X8990000Y-6163000D02*
X8990000Y-6283000D01*
X8790000Y-6163000D02*
X8990000Y-6163000D01*
X8790000Y-6283000D02*
X8790000Y-6163000D01*
X10250500Y-6346500D02*
X10250500Y-6226500D01*
X10250500Y-6226500D02*
X10450500Y-6226500D01*
X10450500Y-6226500D02*
X10450500Y-6346500D01*
X10450500Y-6346500D02*
X10250500Y-6346500D01*
X2879400Y-2843200D02*
X2759400Y-2843200D01*
X2759400Y-2843200D02*
X2759400Y-2643200D01*
X2759400Y-2643200D02*
X2879400Y-2643200D01*
X2879400Y-2643200D02*
X2879400Y-2843200D01*
X2478100Y-6023300D02*
X2678100Y-6023300D01*
X2478100Y-6143300D02*
X2478100Y-6023300D01*
X2678100Y-6143300D02*
X2478100Y-6143300D01*
X2678100Y-6023300D02*
X2678100Y-6143300D01*
X3438200Y-5996000D02*
X3318200Y-5996000D01*
X3438200Y-6196000D02*
X3438200Y-5996000D01*
X3348200Y-6196000D02*
X3438200Y-6196000D01*
X3318200Y-6166000D02*
X3348200Y-6196000D01*
X3318200Y-5996000D02*
X3318200Y-6166000D01*
X974500Y-6158500D02*
X874500Y-6258500D01*
X974500Y-5048500D02*
X974500Y-6158500D01*
X-675500Y-5048500D02*
X974500Y-5048500D01*
X-675500Y-6258500D02*
X-675500Y-5048500D01*
X874500Y-6258500D02*
X-675500Y-6258500D01*
X2562500Y-6465000D02*
X2562500Y-8115000D01*
X2662500Y-8165000D02*
X1212500Y-8165000D01*
X1312500Y-6465000D02*
X1312500Y-8115000D01*
X2562500Y-6465000D02*
X1312500Y-6465000D01*
X1312500Y-8115000D02*
X1212500Y-8115000D01*
X1212500Y-8115000D02*
X1212500Y-8165000D01*
X2562500Y-8115000D02*
X2662500Y-8115000D01*
X2662500Y-8115000D02*
X2662500Y-8165000D01*
D12*
X1587500Y-6494000D02*
X1617500Y-6466000D01*
X1587500Y-6494000D02*
X1557500Y-6466000D01*
D11*
X2495500Y-3927500D02*
X2495500Y-4327500D01*
X2720500Y-3552500D02*
X2720500Y-4702500D01*
X2670500Y-4752500D02*
X1520500Y-4752500D01*
X1470500Y-3552500D02*
X1470500Y-4702500D01*
X1695500Y-4327500D02*
X1695500Y-3927500D01*
X1520500Y-3502500D02*
X2670500Y-3502500D01*
X2655500Y-4127500D02*
G75*
G03*
X2655500Y-4127500I-560000J0D01*
G01*
X1520500Y-4752500D02*
G75*
G02*
X1470500Y-4702500I0J50000D01*
G01*
X2720500Y-4702500D02*
G75*
G02*
X2670500Y-4752500I-50000J0D01*
G01*
X2670500Y-3502500D02*
G75*
G02*
X2720500Y-3552500I0J-50000D01*
G01*
X1470500Y-3552500D02*
G75*
G02*
X1520500Y-3502500I50000J0D01*
G01*
X12842000Y-2560700D02*
X12942000Y-2560700D01*
X12942000Y-2560700D02*
X12942000Y-3560700D01*
X12942000Y-3560700D02*
X12842000Y-3560700D01*
X12842000Y-2560700D02*
X12842000Y-3560700D01*
X12842000Y-3560700D02*
X11917000Y-3560700D01*
X11917000Y-3560700D02*
X11917000Y-2660700D01*
X11917000Y-2660700D02*
X12017000Y-2560700D01*
X12017000Y-2560700D02*
X12842000Y-2560700D01*
X11917000Y-2756700D02*
X11447000Y-2756700D01*
X11447000Y-2756700D02*
X11447000Y-2856700D01*
X11447000Y-2856700D02*
X11917000Y-2856700D01*
X11917000Y-3010700D02*
X11447000Y-3010700D01*
X11447000Y-3010700D02*
X11447000Y-3110700D01*
X11447000Y-3110700D02*
X11917000Y-3110700D01*
X11917000Y-3264700D02*
X11447000Y-3264700D01*
X11447000Y-3264700D02*
X11447000Y-3364700D01*
X11447000Y-3364700D02*
X11917000Y-3364700D01*
X11438500Y-4556600D02*
X11908500Y-4556600D01*
X11438500Y-4456600D02*
X11438500Y-4556600D01*
X11908500Y-4456600D02*
X11438500Y-4456600D01*
X11438500Y-4302600D02*
X11908500Y-4302600D01*
X11438500Y-4202600D02*
X11438500Y-4302600D01*
X11908500Y-4202600D02*
X11438500Y-4202600D01*
X11438500Y-4048600D02*
X11908500Y-4048600D01*
X11438500Y-3948600D02*
X11438500Y-4048600D01*
X11908500Y-3948600D02*
X11438500Y-3948600D01*
X12008500Y-3752600D02*
X12833500Y-3752600D01*
X11908500Y-3852600D02*
X12008500Y-3752600D01*
X11908500Y-4752600D02*
X11908500Y-3852600D01*
X12833500Y-4752600D02*
X11908500Y-4752600D01*
X12833500Y-3752600D02*
X12833500Y-4752600D01*
X12933500Y-4752600D02*
X12833500Y-4752600D01*
X12933500Y-3752600D02*
X12933500Y-4752600D01*
X12833500Y-3752600D02*
X12933500Y-3752600D01*
X11479000Y-5763100D02*
X11949000Y-5763100D01*
X11479000Y-5663100D02*
X11479000Y-5763100D01*
X11949000Y-5663100D02*
X11479000Y-5663100D01*
X11479000Y-5509100D02*
X11949000Y-5509100D01*
X11479000Y-5409100D02*
X11479000Y-5509100D01*
X11949000Y-5409100D02*
X11479000Y-5409100D01*
X11479000Y-5255100D02*
X11949000Y-5255100D01*
X11479000Y-5155100D02*
X11479000Y-5255100D01*
X11949000Y-5155100D02*
X11479000Y-5155100D01*
X12049000Y-4959100D02*
X12874000Y-4959100D01*
X11949000Y-5059100D02*
X12049000Y-4959100D01*
X11949000Y-5959100D02*
X11949000Y-5059100D01*
X12874000Y-5959100D02*
X11949000Y-5959100D01*
X12874000Y-4959100D02*
X12874000Y-5959100D01*
X12974000Y-5959100D02*
X12874000Y-5959100D01*
X12974000Y-4959100D02*
X12974000Y-5959100D01*
X12874000Y-4959100D02*
X12974000Y-4959100D01*
X12872800Y-6192900D02*
X12972800Y-6192900D01*
X12972800Y-6192900D02*
X12972800Y-7192900D01*
X12972800Y-7192900D02*
X12872800Y-7192900D01*
X12872800Y-6192900D02*
X12872800Y-7192900D01*
X12872800Y-7192900D02*
X11947800Y-7192900D01*
X11947800Y-7192900D02*
X11947800Y-6292900D01*
X11947800Y-6292900D02*
X12047800Y-6192900D01*
X12047800Y-6192900D02*
X12872800Y-6192900D01*
X11947800Y-6388900D02*
X11477800Y-6388900D01*
X11477800Y-6388900D02*
X11477800Y-6488900D01*
X11477800Y-6488900D02*
X11947800Y-6488900D01*
X11947800Y-6642900D02*
X11477800Y-6642900D01*
X11477800Y-6642900D02*
X11477800Y-6742900D01*
X11477800Y-6742900D02*
X11947800Y-6742900D01*
X11947800Y-6896900D02*
X11477800Y-6896900D01*
X11477800Y-6896900D02*
X11477800Y-6996900D01*
X11477800Y-6996900D02*
X11947800Y-6996900D01*
X11116000Y-2894000D02*
X11116000Y-2694000D01*
X11236000Y-2894000D02*
X11116000Y-2894000D01*
X11236000Y-2694000D02*
X11236000Y-2894000D01*
X11116000Y-2694000D02*
X11236000Y-2694000D01*
X11116000Y-3900500D02*
X11236000Y-3900500D01*
X11236000Y-3900500D02*
X11236000Y-4100500D01*
X11236000Y-4100500D02*
X11116000Y-4100500D01*
X11116000Y-4100500D02*
X11116000Y-3900500D01*
X11116000Y-5307000D02*
X11116000Y-5107000D01*
X11236000Y-5307000D02*
X11116000Y-5307000D01*
X11236000Y-5107000D02*
X11236000Y-5307000D01*
X11116000Y-5107000D02*
X11236000Y-5107000D01*
X11116000Y-6538000D02*
X11116000Y-6338000D01*
X11236000Y-6538000D02*
X11116000Y-6538000D01*
X11236000Y-6338000D02*
X11236000Y-6538000D01*
X11116000Y-6338000D02*
X11236000Y-6338000D01*
X11236000Y-3402000D02*
X11116000Y-3402000D01*
X11116000Y-3402000D02*
X11116000Y-3202000D01*
X11116000Y-3202000D02*
X11236000Y-3202000D01*
X11236000Y-3202000D02*
X11236000Y-3402000D01*
X11236000Y-4408500D02*
X11236000Y-4608500D01*
X11116000Y-4408500D02*
X11236000Y-4408500D01*
X11116000Y-4608500D02*
X11116000Y-4408500D01*
X11236000Y-4608500D02*
X11116000Y-4608500D01*
X11236000Y-5615000D02*
X11236000Y-5815000D01*
X11116000Y-5615000D02*
X11236000Y-5615000D01*
X11116000Y-5815000D02*
X11116000Y-5615000D01*
X11236000Y-5815000D02*
X11116000Y-5815000D01*
X11236000Y-7021500D02*
X11116000Y-7021500D01*
X11116000Y-7021500D02*
X11116000Y-6821500D01*
X11116000Y-6821500D02*
X11236000Y-6821500D01*
X11236000Y-6821500D02*
X11236000Y-7021500D01*
X7329500Y-6600500D02*
X7329500Y-6480500D01*
X7329500Y-6480500D02*
X7529500Y-6480500D01*
X7529500Y-6480500D02*
X7529500Y-6600500D01*
X7529500Y-6600500D02*
X7329500Y-6600500D01*
X8990000Y-6600500D02*
X8790000Y-6600500D01*
X8990000Y-6480500D02*
X8990000Y-6600500D01*
X8790000Y-6480500D02*
X8990000Y-6480500D01*
X8790000Y-6600500D02*
X8790000Y-6480500D01*
X10450500Y-6664000D02*
X10250500Y-6664000D01*
X10450500Y-6544000D02*
X10450500Y-6664000D01*
X10250500Y-6544000D02*
X10450500Y-6544000D01*
X10250500Y-6664000D02*
X10250500Y-6544000D01*
X2577400Y-2568900D02*
X2577400Y-2688900D01*
X2577400Y-2688900D02*
X2377400Y-2688900D01*
X2377400Y-2688900D02*
X2377400Y-2568900D01*
X2377400Y-2568900D02*
X2577400Y-2568900D01*
X2759400Y-3087700D02*
X2879400Y-3087700D01*
X2879400Y-3087700D02*
X2879400Y-3287700D01*
X2879400Y-3287700D02*
X2759400Y-3287700D01*
X2759400Y-3287700D02*
X2759400Y-3087700D01*
X2376500Y-3374700D02*
X2376500Y-3254700D01*
X2376500Y-3254700D02*
X2576500Y-3254700D01*
X2576500Y-3254700D02*
X2576500Y-3374700D01*
X2576500Y-3374700D02*
X2376500Y-3374700D01*
X2149800Y-5983300D02*
X2269800Y-5983300D01*
X2269800Y-5983300D02*
X2269800Y-6183300D01*
X2269800Y-6183300D02*
X2149800Y-6183300D01*
X2149800Y-6183300D02*
X2149800Y-5983300D01*
X3318200Y-6602400D02*
X3318200Y-6402400D01*
X3438200Y-6602400D02*
X3318200Y-6602400D01*
X3438200Y-6402400D02*
X3438200Y-6602400D01*
X3318200Y-6402400D02*
X3438200Y-6402400D01*
X6764300Y-2667200D02*
X6764300Y-3327200D01*
X6164300Y-2667200D02*
X6764300Y-2667200D01*
X6164300Y-3327200D02*
X6164300Y-2667200D01*
X6764300Y-3327200D02*
X6164300Y-3327200D01*
X6629300Y-2997200D02*
G75*
G03*
X6629300Y-2997200I-165000J0D01*
G01*
X6599500Y-6205000D02*
X6699500Y-6105000D01*
X6599500Y-6595000D02*
X6599500Y-6205000D01*
X6989500Y-6595000D02*
X6599500Y-6595000D01*
X6989500Y-6105000D02*
X6989500Y-6595000D01*
X6699500Y-6105000D02*
X6989500Y-6105000D01*
X8160000Y-6105000D02*
X8450000Y-6105000D01*
X8450000Y-6105000D02*
X8450000Y-6595000D01*
X8450000Y-6595000D02*
X8060000Y-6595000D01*
X8060000Y-6595000D02*
X8060000Y-6205000D01*
X8060000Y-6205000D02*
X8160000Y-6105000D01*
X9520500Y-6205000D02*
X9620500Y-6105000D01*
X9520500Y-6595000D02*
X9520500Y-6205000D01*
X9910500Y-6595000D02*
X9520500Y-6595000D01*
X9910500Y-6105000D02*
X9910500Y-6595000D01*
X9620500Y-6105000D02*
X9910500Y-6105000D01*
X3626700Y-2636800D02*
X3626700Y-3306800D01*
X3256700Y-3306800D02*
X3626700Y-3306800D01*
X3356700Y-2636800D02*
X3626700Y-2636800D01*
X3256700Y-2736800D02*
X3256700Y-3306800D01*
X3256700Y-2736800D02*
X3356700Y-2636800D01*
D13*
X1621100Y-2966500D02*
X1721100Y-2866500D01*
X1621100Y-3356500D02*
X1621100Y-2966500D01*
X2011100Y-3356500D02*
X1621100Y-3356500D01*
X2011100Y-2866500D02*
X2011100Y-3356500D01*
X1721100Y-2866500D02*
X2011100Y-2866500D01*
X1378000Y-5656000D02*
X1283000Y-5556000D01*
X2273000Y-5656000D02*
X1378000Y-5656000D01*
X2273000Y-5266000D02*
X2273000Y-5656000D01*
X1283000Y-5266000D02*
X2273000Y-5266000D01*
X1283000Y-5556000D02*
X1283000Y-5266000D01*
D11*
X6409800Y-6826200D02*
X6409800Y-7401200D01*
X6409800Y-7401200D02*
X7649800Y-7401200D01*
X7649800Y-7401200D02*
X7649800Y-6826200D01*
X7649800Y-6826200D02*
X6409800Y-6826200D01*
X6592300Y-6826200D02*
X6654800Y-6926200D01*
X6654800Y-6926200D02*
X6717300Y-6826200D01*
X8102600Y-6926200D02*
X8165100Y-6826200D01*
X8040100Y-6826200D02*
X8102600Y-6926200D01*
X9097600Y-6826200D02*
X7857600Y-6826200D01*
X9097600Y-7401200D02*
X9097600Y-6826200D01*
X7857600Y-7401200D02*
X9097600Y-7401200D01*
X7857600Y-6826200D02*
X7857600Y-7401200D01*
X9318100Y-6826200D02*
X9318100Y-7401200D01*
X9318100Y-7401200D02*
X10558100Y-7401200D01*
X10558100Y-7401200D02*
X10558100Y-6826200D01*
X10558100Y-6826200D02*
X9318100Y-6826200D01*
X9500600Y-6826200D02*
X9563100Y-6926200D01*
X9563100Y-6926200D02*
X9625600Y-6826200D01*
X8128000Y-643000D02*
X8065500Y-743000D01*
X8190500Y-743000D02*
X8128000Y-643000D01*
X7133000Y-743000D02*
X8373000Y-743000D01*
X7133000Y-168000D02*
X7133000Y-743000D01*
X8373000Y-168000D02*
X7133000Y-168000D01*
X8373000Y-743000D02*
X8373000Y-168000D01*
X12691000Y-743000D02*
X12691000Y-168000D01*
X12691000Y-168000D02*
X11451000Y-168000D01*
X11451000Y-168000D02*
X11451000Y-743000D01*
X11451000Y-743000D02*
X12691000Y-743000D01*
X12508500Y-743000D02*
X12446000Y-643000D01*
X12446000Y-643000D02*
X12383500Y-743000D01*
X2150000Y-743000D02*
X2150000Y-168000D01*
X2150000Y-168000D02*
X910000Y-168000D01*
X910000Y-168000D02*
X910000Y-743000D01*
X910000Y-743000D02*
X2150000Y-743000D01*
X1967500Y-743000D02*
X1905000Y-643000D01*
X1905000Y-643000D02*
X1842500Y-743000D01*
X4055000Y-743000D02*
X4055000Y-168000D01*
X4055000Y-168000D02*
X2815000Y-168000D01*
X2815000Y-168000D02*
X2815000Y-743000D01*
X2815000Y-743000D02*
X4055000Y-743000D01*
X3872500Y-743000D02*
X3810000Y-643000D01*
X3810000Y-643000D02*
X3747500Y-743000D01*
X3984100Y-6826200D02*
X3984100Y-7401200D01*
X3984100Y-7401200D02*
X4974100Y-7401200D01*
X4974100Y-7401200D02*
X4974100Y-6826200D01*
X4974100Y-6826200D02*
X3984100Y-6826200D01*
X4166600Y-6826200D02*
X4229100Y-6926200D01*
X4229100Y-6926200D02*
X4291600Y-6826200D01*
X3984100Y-6026100D02*
X3984100Y-6601100D01*
X3984100Y-6601100D02*
X4974100Y-6601100D01*
X4974100Y-6601100D02*
X4974100Y-6026100D01*
X4974100Y-6026100D02*
X3984100Y-6026100D01*
X4166600Y-6026100D02*
X4229100Y-6126100D01*
X4229100Y-6126100D02*
X4291600Y-6026100D01*
X13263500Y-3175000D02*
X13163500Y-3112500D01*
X13163500Y-3237500D02*
X13263500Y-3175000D01*
X13163500Y-2680000D02*
X13163500Y-3420000D01*
X13738500Y-2680000D02*
X13163500Y-2680000D01*
X13738500Y-3420000D02*
X13738500Y-2680000D01*
X13163500Y-3420000D02*
X13738500Y-3420000D01*
X13163500Y-4436000D02*
X13738500Y-4436000D01*
X13738500Y-4436000D02*
X13738500Y-3696000D01*
X13738500Y-3696000D02*
X13163500Y-3696000D01*
X13163500Y-3696000D02*
X13163500Y-4436000D01*
X13163500Y-4253500D02*
X13263500Y-4191000D01*
X13263500Y-4191000D02*
X13163500Y-4128500D01*
X13267500Y-5207000D02*
X13167500Y-5144500D01*
X13167500Y-5269500D02*
X13267500Y-5207000D01*
X13167500Y-4712000D02*
X13167500Y-5452000D01*
X13742500Y-4712000D02*
X13167500Y-4712000D01*
X13742500Y-5452000D02*
X13742500Y-4712000D01*
X13167500Y-5452000D02*
X13742500Y-5452000D01*
X13163500Y-6468000D02*
X13738500Y-6468000D01*
X13738500Y-6468000D02*
X13738500Y-5728000D01*
X13738500Y-5728000D02*
X13163500Y-5728000D01*
X13163500Y-5728000D02*
X13163500Y-6468000D01*
X13163500Y-6285500D02*
X13263500Y-6223000D01*
X13263500Y-6223000D02*
X13163500Y-6160500D01*
X5190600Y-6826200D02*
X5190600Y-7401200D01*
X5190600Y-7401200D02*
X6180600Y-7401200D01*
X6180600Y-7401200D02*
X6180600Y-6826200D01*
X6180600Y-6826200D02*
X5190600Y-6826200D01*
X5373100Y-6826200D02*
X5435600Y-6926200D01*
X5435600Y-6926200D02*
X5498100Y-6826200D01*
X5435600Y-6126100D02*
X5498100Y-6026100D01*
X5373100Y-6026100D02*
X5435600Y-6126100D01*
X6180600Y-6026100D02*
X5190600Y-6026100D01*
X6180600Y-6601100D02*
X6180600Y-6026100D01*
X5190600Y-6601100D02*
X6180600Y-6601100D01*
X5190600Y-6026100D02*
X5190600Y-6601100D01*
X8121600Y-4664600D02*
X8696600Y-4664600D01*
X8696600Y-4664600D02*
X8696600Y-3674600D01*
X8696600Y-3674600D02*
X8121600Y-3674600D01*
X8121600Y-3674600D02*
X8121600Y-4664600D01*
X8121600Y-4482100D02*
X8221600Y-4419600D01*
X8221600Y-4419600D02*
X8121600Y-4357100D01*
X8996300Y-4419600D02*
X8896300Y-4357100D01*
X8896300Y-4482100D02*
X8996300Y-4419600D01*
X8896300Y-3674600D02*
X8896300Y-4664600D01*
X9471300Y-3674600D02*
X8896300Y-3674600D01*
X9471300Y-4664600D02*
X9471300Y-3674600D01*
X8896300Y-4664600D02*
X9471300Y-4664600D01*
X8221600Y-5588000D02*
X8121600Y-5525500D01*
X8121600Y-5650500D02*
X8221600Y-5588000D01*
X8121600Y-4843000D02*
X8121600Y-5833000D01*
X8696600Y-4843000D02*
X8121600Y-4843000D01*
X8696600Y-5833000D02*
X8696600Y-4843000D01*
X8121600Y-5833000D02*
X8696600Y-5833000D01*
X5969000Y-643000D02*
X5906500Y-743000D01*
X6031500Y-743000D02*
X5969000Y-643000D01*
X4974000Y-743000D02*
X6214000Y-743000D01*
X4974000Y-168000D02*
X4974000Y-743000D01*
X6214000Y-168000D02*
X4974000Y-168000D01*
X6214000Y-743000D02*
X6214000Y-168000D01*
X10287000Y-643000D02*
X10224500Y-743000D01*
X10349500Y-743000D02*
X10287000Y-643000D01*
X9292000Y-743000D02*
X10532000Y-743000D01*
X9292000Y-168000D02*
X9292000Y-743000D01*
X10532000Y-168000D02*
X9292000Y-168000D01*
X10532000Y-743000D02*
X10532000Y-168000D01*
X13303200Y-2162700D02*
X13878200Y-2162700D01*
X13878200Y-2162700D02*
X13878200Y-922700D01*
X13878200Y-922700D02*
X13303200Y-922700D01*
X13303200Y-922700D02*
X13303200Y-2162700D01*
X13303200Y-1980200D02*
X13403200Y-1917700D01*
X13403200Y-1917700D02*
X13303200Y-1855200D01*
X7434200Y-5588000D02*
X7334200Y-5525500D01*
X7334200Y-5650500D02*
X7434200Y-5588000D01*
X7334200Y-4843000D02*
X7334200Y-5833000D01*
X7909200Y-4843000D02*
X7334200Y-4843000D01*
X7909200Y-5833000D02*
X7909200Y-4843000D01*
X7334200Y-5833000D02*
X7909200Y-5833000D01*
X8900300Y-5833000D02*
X9475300Y-5833000D01*
X9475300Y-5833000D02*
X9475300Y-4843000D01*
X9475300Y-4843000D02*
X8900300Y-4843000D01*
X8900300Y-4843000D02*
X8900300Y-5833000D01*
X8900300Y-5650500D02*
X9000300Y-5588000D01*
X9000300Y-5588000D02*
X8900300Y-5525500D01*
X7434200Y-4419600D02*
X7334200Y-4357100D01*
X7334200Y-4482100D02*
X7434200Y-4419600D01*
X7334200Y-3674600D02*
X7334200Y-4664600D01*
X7909200Y-3674600D02*
X7334200Y-3674600D01*
X7909200Y-4664600D02*
X7909200Y-3674600D01*
X7334200Y-4664600D02*
X7909200Y-4664600D01*
X7581900Y-3027300D02*
X7644400Y-2927300D01*
X7519400Y-2927300D02*
X7581900Y-3027300D01*
X8326900Y-2927300D02*
X7336900Y-2927300D01*
X8326900Y-3502300D02*
X8326900Y-2927300D01*
X7336900Y-3502300D02*
X8326900Y-3502300D01*
X7336900Y-2927300D02*
X7336900Y-3502300D01*
X8479900Y-2927300D02*
X8479900Y-3502300D01*
X8479900Y-3502300D02*
X9469900Y-3502300D01*
X9469900Y-3502300D02*
X9469900Y-2927300D01*
X9469900Y-2927300D02*
X8479900Y-2927300D01*
X8662400Y-2927300D02*
X8724900Y-3027300D01*
X8724900Y-3027300D02*
X8787400Y-2927300D01*
X4308800Y-5488000D02*
X4428800Y-5488000D01*
X4428800Y-5488000D02*
X4428800Y-5688000D01*
X4428800Y-5688000D02*
X4308800Y-5688000D01*
X4308800Y-5688000D02*
X4308800Y-5488000D01*
X4816800Y-3275000D02*
X4816800Y-3075000D01*
X4936800Y-3275000D02*
X4816800Y-3275000D01*
X4936800Y-3075000D02*
X4936800Y-3275000D01*
X4816800Y-3075000D02*
X4936800Y-3075000D01*
X3315900Y-3802400D02*
X3315900Y-4122400D01*
X3465900Y-3802400D02*
X3465900Y-4122400D01*
X3465900Y-4122400D02*
X3315900Y-4122400D01*
X3465900Y-3802400D02*
X3315900Y-3802400D01*
X3515900Y-4289300D02*
X3265900Y-4289300D01*
X3265900Y-4289300D02*
X3265900Y-4609300D01*
X3265900Y-4609300D02*
X3515900Y-4609300D01*
X3515900Y-4609300D02*
X3515900Y-4289300D01*
X3365900Y-4289300D02*
X3265900Y-4389300D01*
X1313200Y-6108300D02*
X1413200Y-6208300D01*
X1633200Y-5958300D02*
X1313200Y-5958300D01*
X1633200Y-6208300D02*
X1633200Y-5958300D01*
X1313200Y-6208300D02*
X1633200Y-6208300D01*
X1313200Y-5958300D02*
X1313200Y-6208300D01*
X3038800Y-5996000D02*
X3038800Y-6166000D01*
X3038800Y-6166000D02*
X3068800Y-6196000D01*
X3068800Y-6196000D02*
X3158800Y-6196000D01*
X3158800Y-6196000D02*
X3158800Y-5996000D01*
X3158800Y-5996000D02*
X3038800Y-5996000D01*
X3717600Y-5996000D02*
X3597600Y-5996000D01*
X3717600Y-6196000D02*
X3717600Y-5996000D01*
X3627600Y-6196000D02*
X3717600Y-6196000D01*
X3597600Y-6166000D02*
X3627600Y-6196000D01*
X3597600Y-5996000D02*
X3597600Y-6166000D01*
X3038800Y-6402400D02*
X3158800Y-6402400D01*
X3158800Y-6402400D02*
X3158800Y-6602400D01*
X3158800Y-6602400D02*
X3038800Y-6602400D01*
X3038800Y-6602400D02*
X3038800Y-6402400D01*
X3597600Y-6602400D02*
X3597600Y-6402400D01*
X3717600Y-6602400D02*
X3597600Y-6602400D01*
X3717600Y-6402400D02*
X3717600Y-6602400D01*
X3597600Y-6402400D02*
X3717600Y-6402400D01*
X8636000Y-889000D02*
X8763000Y-1016000D01*
X8763000Y-1016000D02*
X8763000Y-2413000D01*
X8763000Y-2413000D02*
X6731000Y-2413000D01*
X6731000Y-2413000D02*
X6731000Y-889000D01*
X6731000Y-889000D02*
X8636000Y-889000D01*
X11049000Y-889000D02*
X12954000Y-889000D01*
X11049000Y-2413000D02*
X11049000Y-889000D01*
X13081000Y-2413000D02*
X11049000Y-2413000D01*
X13081000Y-1016000D02*
X13081000Y-2413000D01*
X12954000Y-889000D02*
X13081000Y-1016000D01*
X254000Y-889000D02*
X2159000Y-889000D01*
X254000Y-2413000D02*
X254000Y-889000D01*
X2286000Y-2413000D02*
X254000Y-2413000D01*
X2286000Y-1016000D02*
X2286000Y-2413000D01*
X2159000Y-889000D02*
X2286000Y-1016000D01*
X4318000Y-889000D02*
X4445000Y-1016000D01*
X4445000Y-1016000D02*
X4445000Y-2413000D01*
X4445000Y-2413000D02*
X2413000Y-2413000D01*
X2413000Y-2413000D02*
X2413000Y-889000D01*
X2413000Y-889000D02*
X4318000Y-889000D01*
X4572000Y-889000D02*
X6477000Y-889000D01*
X4572000Y-2413000D02*
X4572000Y-889000D01*
X6604000Y-2413000D02*
X4572000Y-2413000D01*
X6604000Y-1016000D02*
X6604000Y-2413000D01*
X6477000Y-889000D02*
X6604000Y-1016000D01*
X10795000Y-889000D02*
X10922000Y-1016000D01*
X10922000Y-1016000D02*
X10922000Y-2413000D01*
X10922000Y-2413000D02*
X8890000Y-2413000D01*
X8890000Y-2413000D02*
X8890000Y-889000D01*
X8890000Y-889000D02*
X10795000Y-889000D01*
X3251200Y-6926200D02*
X3313700Y-6826200D01*
X3188700Y-6826200D02*
X3251200Y-6926200D01*
X3746200Y-6826200D02*
X3006200Y-6826200D01*
X3746200Y-7401200D02*
X3746200Y-6826200D01*
X3006200Y-7401200D02*
X3746200Y-7401200D01*
X3006200Y-6826200D02*
X3006200Y-7401200D01*
X4505705Y-4362419D02*
X4505705Y-4402895D01*
X4508086Y-4407657D01*
X4510467Y-4410038D01*
X4515229Y-4412419D01*
X4524752Y-4412419D01*
X4529514Y-4410038D01*
X4531895Y-4407657D01*
X4534276Y-4402895D01*
X4534276Y-4362419D01*
X4584276Y-4412419D02*
X4555705Y-4412419D01*
X4569991Y-4412419D02*
X4569991Y-4362419D01*
X4565229Y-4369562D01*
X4560467Y-4374324D01*
X4555705Y-4376705D01*
X675524Y-2789119D02*
X675524Y-2824833D01*
X673143Y-2831976D01*
X668381Y-2836738D01*
X661238Y-2839119D01*
X656476Y-2839119D01*
X720762Y-2805786D02*
X720762Y-2839119D01*
X708857Y-2786738D02*
X696952Y-2822452D01*
X727905Y-2822452D01*
X770762Y-2789119D02*
X746952Y-2789119D01*
X744571Y-2812928D01*
X746952Y-2810548D01*
X751714Y-2808167D01*
X763619Y-2808167D01*
X768381Y-2810548D01*
X770762Y-2812928D01*
X773143Y-2817690D01*
X773143Y-2829595D01*
X770762Y-2834357D01*
X768381Y-2836738D01*
X763619Y-2839119D01*
X751714Y-2839119D01*
X746952Y-2836738D01*
X744571Y-2834357D01*
X5471719Y-3013867D02*
X5507433Y-3013867D01*
X5514576Y-3016248D01*
X5519338Y-3021009D01*
X5521719Y-3028152D01*
X5521719Y-3032914D01*
X5471719Y-2966248D02*
X5471719Y-2990057D01*
X5495529Y-2992438D01*
X5493148Y-2990057D01*
X5490767Y-2985295D01*
X5490767Y-2973390D01*
X5493148Y-2968628D01*
X5495529Y-2966248D01*
X5500290Y-2963867D01*
X5512195Y-2963867D01*
X5516957Y-2966248D01*
X5519338Y-2968628D01*
X5521719Y-2973390D01*
X5521719Y-2985295D01*
X5519338Y-2990057D01*
X5516957Y-2992438D01*
X10847119Y-3542976D02*
X10882833Y-3542976D01*
X10889976Y-3545357D01*
X10894738Y-3550119D01*
X10897119Y-3557262D01*
X10897119Y-3562024D01*
X10851881Y-3521548D02*
X10849500Y-3519167D01*
X10847119Y-3514405D01*
X10847119Y-3502500D01*
X10849500Y-3497738D01*
X10851881Y-3495357D01*
X10856643Y-3492976D01*
X10861405Y-3492976D01*
X10868548Y-3495357D01*
X10897119Y-3523928D01*
X10897119Y-3492976D01*
X10863786Y-3450119D02*
X10897119Y-3450119D01*
X10844738Y-3462024D02*
X10880452Y-3473928D01*
X10880452Y-3442976D01*
X10123219Y-3542976D02*
X10158933Y-3542976D01*
X10166076Y-3545357D01*
X10170838Y-3550119D01*
X10173219Y-3557262D01*
X10173219Y-3562024D01*
X10127981Y-3521548D02*
X10125600Y-3519167D01*
X10123219Y-3514405D01*
X10123219Y-3502500D01*
X10125600Y-3497738D01*
X10127981Y-3495357D01*
X10132743Y-3492976D01*
X10137505Y-3492976D01*
X10144648Y-3495357D01*
X10173219Y-3523928D01*
X10173219Y-3492976D01*
X10123219Y-3476309D02*
X10123219Y-3445357D01*
X10142267Y-3462024D01*
X10142267Y-3454881D01*
X10144648Y-3450119D01*
X10147029Y-3447738D01*
X10151790Y-3445357D01*
X10163695Y-3445357D01*
X10168457Y-3447738D01*
X10170838Y-3450119D01*
X10173219Y-3454881D01*
X10173219Y-3469167D01*
X10170838Y-3473928D01*
X10168457Y-3476309D01*
X10847119Y-5382476D02*
X10882833Y-5382476D01*
X10889976Y-5384857D01*
X10894738Y-5389619D01*
X10897119Y-5396762D01*
X10897119Y-5401524D01*
X10851881Y-5361048D02*
X10849500Y-5358667D01*
X10847119Y-5353905D01*
X10847119Y-5342000D01*
X10849500Y-5337238D01*
X10851881Y-5334857D01*
X10856643Y-5332476D01*
X10861405Y-5332476D01*
X10868548Y-5334857D01*
X10897119Y-5363429D01*
X10897119Y-5332476D01*
X10851881Y-5313429D02*
X10849500Y-5311048D01*
X10847119Y-5306286D01*
X10847119Y-5294381D01*
X10849500Y-5289619D01*
X10851881Y-5287238D01*
X10856643Y-5284857D01*
X10861405Y-5284857D01*
X10868548Y-5287238D01*
X10897119Y-5315810D01*
X10897119Y-5284857D01*
X10123219Y-5253476D02*
X10158933Y-5253476D01*
X10166076Y-5255857D01*
X10170838Y-5260619D01*
X10173219Y-5267762D01*
X10173219Y-5272524D01*
X10127981Y-5232048D02*
X10125600Y-5229667D01*
X10123219Y-5224905D01*
X10123219Y-5213000D01*
X10125600Y-5208238D01*
X10127981Y-5205857D01*
X10132743Y-5203476D01*
X10137505Y-5203476D01*
X10144648Y-5205857D01*
X10173219Y-5234429D01*
X10173219Y-5203476D01*
X10173219Y-5155857D02*
X10173219Y-5184429D01*
X10173219Y-5170143D02*
X10123219Y-5170143D01*
X10130362Y-5174905D01*
X10135124Y-5179667D01*
X10137505Y-5184429D01*
X3035705Y-5644219D02*
X3064276Y-5644219D01*
X3049990Y-5694219D02*
X3049990Y-5644219D01*
X3080943Y-5694219D02*
X3080943Y-5644219D01*
X3099990Y-5644219D01*
X3104752Y-5646600D01*
X3107133Y-5648981D01*
X3109514Y-5653743D01*
X3109514Y-5660886D01*
X3107133Y-5665648D01*
X3104752Y-5668028D01*
X3099990Y-5670409D01*
X3080943Y-5670409D01*
X3157133Y-5694219D02*
X3128562Y-5694219D01*
X3142848Y-5694219D02*
X3142848Y-5644219D01*
X3138086Y-5651362D01*
X3133324Y-5656124D01*
X3128562Y-5658505D01*
X3315105Y-5644219D02*
X3343676Y-5644219D01*
X3329390Y-5694219D02*
X3329390Y-5644219D01*
X3360343Y-5694219D02*
X3360343Y-5644219D01*
X3379390Y-5644219D01*
X3384152Y-5646600D01*
X3386533Y-5648981D01*
X3388914Y-5653743D01*
X3388914Y-5660886D01*
X3386533Y-5665648D01*
X3384152Y-5668028D01*
X3379390Y-5670409D01*
X3360343Y-5670409D01*
X3405581Y-5644219D02*
X3436533Y-5644219D01*
X3419867Y-5663267D01*
X3427009Y-5663267D01*
X3431771Y-5665648D01*
X3434152Y-5668028D01*
X3436533Y-5672790D01*
X3436533Y-5684695D01*
X3434152Y-5689457D01*
X3431771Y-5691838D01*
X3427009Y-5694219D01*
X3412724Y-5694219D01*
X3407962Y-5691838D01*
X3405581Y-5689457D01*
X3594505Y-5644219D02*
X3623076Y-5644219D01*
X3608790Y-5694219D02*
X3608790Y-5644219D01*
X3639743Y-5694219D02*
X3639743Y-5644219D01*
X3658790Y-5644219D01*
X3663552Y-5646600D01*
X3665933Y-5648981D01*
X3668314Y-5653743D01*
X3668314Y-5660886D01*
X3665933Y-5665648D01*
X3663552Y-5668028D01*
X3658790Y-5670409D01*
X3639743Y-5670409D01*
X3687362Y-5648981D02*
X3689743Y-5646600D01*
X3694505Y-5644219D01*
X3706409Y-5644219D01*
X3711171Y-5646600D01*
X3713552Y-5648981D01*
X3715933Y-5653743D01*
X3715933Y-5658505D01*
X3713552Y-5665648D01*
X3684981Y-5694219D01*
X3715933Y-5694219D01*
X4310457Y-3016643D02*
X4312838Y-3019024D01*
X4315219Y-3026167D01*
X4315219Y-3030928D01*
X4312838Y-3038071D01*
X4308076Y-3042833D01*
X4303314Y-3045214D01*
X4293790Y-3047595D01*
X4286648Y-3047595D01*
X4277124Y-3045214D01*
X4272362Y-3042833D01*
X4267600Y-3038071D01*
X4265219Y-3030928D01*
X4265219Y-3026167D01*
X4267600Y-3019024D01*
X4269981Y-3016643D01*
X4265219Y-2999976D02*
X4265219Y-2969024D01*
X4284267Y-2985690D01*
X4284267Y-2978548D01*
X4286648Y-2973786D01*
X4289029Y-2971405D01*
X4293790Y-2969024D01*
X4305695Y-2969024D01*
X4310457Y-2971405D01*
X4312838Y-2973786D01*
X4315219Y-2978548D01*
X4315219Y-2992833D01*
X4312838Y-2997595D01*
X4310457Y-2999976D01*
X4265219Y-2938071D02*
X4265219Y-2933309D01*
X4267600Y-2928548D01*
X4269981Y-2926167D01*
X4274743Y-2923786D01*
X4284267Y-2921405D01*
X4296171Y-2921405D01*
X4305695Y-2923786D01*
X4310457Y-2926167D01*
X4312838Y-2928548D01*
X4315219Y-2933309D01*
X4315219Y-2938071D01*
X4312838Y-2942833D01*
X4310457Y-2945214D01*
X4305695Y-2947595D01*
X4296171Y-2949976D01*
X4284267Y-2949976D01*
X4274743Y-2947595D01*
X4269981Y-2945214D01*
X4267600Y-2942833D01*
X4265219Y-2938071D01*
X2811857Y-5302643D02*
X2814238Y-5305024D01*
X2816619Y-5312167D01*
X2816619Y-5316929D01*
X2814238Y-5324071D01*
X2809476Y-5328833D01*
X2804714Y-5331214D01*
X2795190Y-5333595D01*
X2788048Y-5333595D01*
X2778524Y-5331214D01*
X2773762Y-5328833D01*
X2769000Y-5324071D01*
X2766619Y-5316929D01*
X2766619Y-5312167D01*
X2769000Y-5305024D01*
X2771381Y-5302643D01*
X2816619Y-5255024D02*
X2816619Y-5283595D01*
X2816619Y-5269310D02*
X2766619Y-5269310D01*
X2773762Y-5274071D01*
X2778524Y-5278833D01*
X2780905Y-5283595D01*
X2766619Y-5238357D02*
X2766619Y-5207405D01*
X2785667Y-5224071D01*
X2785667Y-5216929D01*
X2788048Y-5212167D01*
X2790429Y-5209786D01*
X2795190Y-5207405D01*
X2807095Y-5207405D01*
X2811857Y-5209786D01*
X2814238Y-5212167D01*
X2816619Y-5216929D01*
X2816619Y-5231214D01*
X2814238Y-5235976D01*
X2811857Y-5238357D01*
X525067Y-4335857D02*
X522686Y-4338238D01*
X515543Y-4340619D01*
X510781Y-4340619D01*
X503638Y-4338238D01*
X498876Y-4333476D01*
X496495Y-4328714D01*
X494114Y-4319190D01*
X494114Y-4312048D01*
X496495Y-4302524D01*
X498876Y-4297762D01*
X503638Y-4293000D01*
X510781Y-4290619D01*
X515543Y-4290619D01*
X522686Y-4293000D01*
X525067Y-4295381D01*
X541733Y-4290619D02*
X575067Y-4290619D01*
X553638Y-4340619D01*
X7230667Y-1668857D02*
X7228286Y-1671238D01*
X7221143Y-1673619D01*
X7216381Y-1673619D01*
X7209238Y-1671238D01*
X7204476Y-1666476D01*
X7202095Y-1661714D01*
X7199714Y-1652190D01*
X7199714Y-1645048D01*
X7202095Y-1635524D01*
X7204476Y-1630762D01*
X7209238Y-1626000D01*
X7216381Y-1623619D01*
X7221143Y-1623619D01*
X7228286Y-1626000D01*
X7230667Y-1628381D01*
X7273524Y-1623619D02*
X7264000Y-1623619D01*
X7259238Y-1626000D01*
X7256857Y-1628381D01*
X7252095Y-1635524D01*
X7249714Y-1645048D01*
X7249714Y-1664095D01*
X7252095Y-1668857D01*
X7254476Y-1671238D01*
X7259238Y-1673619D01*
X7268762Y-1673619D01*
X7273524Y-1671238D01*
X7275905Y-1668857D01*
X7278286Y-1664095D01*
X7278286Y-1652190D01*
X7275905Y-1647428D01*
X7273524Y-1645048D01*
X7268762Y-1642667D01*
X7259238Y-1642667D01*
X7254476Y-1645048D01*
X7252095Y-1647428D01*
X7249714Y-1652190D01*
X753667Y-1668857D02*
X751286Y-1671238D01*
X744143Y-1673619D01*
X739381Y-1673619D01*
X732238Y-1671238D01*
X727476Y-1666476D01*
X725095Y-1661714D01*
X722714Y-1652190D01*
X722714Y-1645048D01*
X725095Y-1635524D01*
X727476Y-1630762D01*
X732238Y-1626000D01*
X739381Y-1623619D01*
X744143Y-1623619D01*
X751286Y-1626000D01*
X753667Y-1628381D01*
X798905Y-1623619D02*
X775095Y-1623619D01*
X772714Y-1647428D01*
X775095Y-1645048D01*
X779857Y-1642667D01*
X791762Y-1642667D01*
X796524Y-1645048D01*
X798905Y-1647428D01*
X801286Y-1652190D01*
X801286Y-1664095D01*
X798905Y-1668857D01*
X796524Y-1671238D01*
X791762Y-1673619D01*
X779857Y-1673619D01*
X775095Y-1671238D01*
X772714Y-1668857D01*
X5071667Y-1668857D02*
X5069286Y-1671238D01*
X5062143Y-1673619D01*
X5057381Y-1673619D01*
X5050238Y-1671238D01*
X5045476Y-1666476D01*
X5043095Y-1661714D01*
X5040714Y-1652190D01*
X5040714Y-1645048D01*
X5043095Y-1635524D01*
X5045476Y-1630762D01*
X5050238Y-1626000D01*
X5057381Y-1623619D01*
X5062143Y-1623619D01*
X5069286Y-1626000D01*
X5071667Y-1628381D01*
X5114524Y-1640286D02*
X5114524Y-1673619D01*
X5102619Y-1621238D02*
X5090714Y-1656952D01*
X5121667Y-1656952D01*
X9389667Y-1668857D02*
X9387286Y-1671238D01*
X9380143Y-1673619D01*
X9375381Y-1673619D01*
X9368238Y-1671238D01*
X9363476Y-1666476D01*
X9361095Y-1661714D01*
X9358714Y-1652190D01*
X9358714Y-1645048D01*
X9361095Y-1635524D01*
X9363476Y-1630762D01*
X9368238Y-1626000D01*
X9375381Y-1623619D01*
X9380143Y-1623619D01*
X9387286Y-1626000D01*
X9389667Y-1628381D01*
X9406333Y-1623619D02*
X9437286Y-1623619D01*
X9420619Y-1642667D01*
X9427762Y-1642667D01*
X9432524Y-1645048D01*
X9434905Y-1647428D01*
X9437286Y-1652190D01*
X9437286Y-1664095D01*
X9434905Y-1668857D01*
X9432524Y-1671238D01*
X9427762Y-1673619D01*
X9413476Y-1673619D01*
X9408714Y-1671238D01*
X9406333Y-1668857D01*
X2912667Y-1668857D02*
X2910286Y-1671238D01*
X2903143Y-1673619D01*
X2898381Y-1673619D01*
X2891238Y-1671238D01*
X2886476Y-1666476D01*
X2884095Y-1661714D01*
X2881714Y-1652190D01*
X2881714Y-1645048D01*
X2884095Y-1635524D01*
X2886476Y-1630762D01*
X2891238Y-1626000D01*
X2898381Y-1623619D01*
X2903143Y-1623619D01*
X2910286Y-1626000D01*
X2912667Y-1628381D01*
X2931714Y-1628381D02*
X2934095Y-1626000D01*
X2938857Y-1623619D01*
X2950762Y-1623619D01*
X2955524Y-1626000D01*
X2957905Y-1628381D01*
X2960286Y-1633143D01*
X2960286Y-1637905D01*
X2957905Y-1645048D01*
X2929333Y-1673619D01*
X2960286Y-1673619D01*
X11447857Y-1672033D02*
X11450238Y-1674414D01*
X11452619Y-1681557D01*
X11452619Y-1686319D01*
X11450238Y-1693462D01*
X11445476Y-1698224D01*
X11440714Y-1700605D01*
X11431190Y-1702986D01*
X11424048Y-1702986D01*
X11414524Y-1700605D01*
X11409762Y-1698224D01*
X11405000Y-1693462D01*
X11402619Y-1686319D01*
X11402619Y-1681557D01*
X11405000Y-1674414D01*
X11407381Y-1672033D01*
X11452619Y-1624414D02*
X11452619Y-1652986D01*
X11452619Y-1638700D02*
X11402619Y-1638700D01*
X11409762Y-1643462D01*
X11414524Y-1648224D01*
X11416905Y-1652986D01*
X1224357Y-4008833D02*
X1226738Y-4011214D01*
X1229119Y-4018357D01*
X1229119Y-4023119D01*
X1226738Y-4030262D01*
X1221976Y-4035024D01*
X1217214Y-4037405D01*
X1207690Y-4039786D01*
X1200548Y-4039786D01*
X1191024Y-4037405D01*
X1186262Y-4035024D01*
X1181500Y-4030262D01*
X1179119Y-4023119D01*
X1179119Y-4018357D01*
X1181500Y-4011214D01*
X1183881Y-4008833D01*
X1200548Y-3980262D02*
X1198167Y-3985024D01*
X1195786Y-3987405D01*
X1191024Y-3989786D01*
X1188643Y-3989786D01*
X1183881Y-3987405D01*
X1181500Y-3985024D01*
X1179119Y-3980262D01*
X1179119Y-3970738D01*
X1181500Y-3965976D01*
X1183881Y-3963595D01*
X1188643Y-3961214D01*
X1191024Y-3961214D01*
X1195786Y-3963595D01*
X1198167Y-3965976D01*
X1200548Y-3970738D01*
X1200548Y-3980262D01*
X1202929Y-3985024D01*
X1205310Y-3987405D01*
X1210071Y-3989786D01*
X1219595Y-3989786D01*
X1224357Y-3987405D01*
X1226738Y-3985024D01*
X1229119Y-3980262D01*
X1229119Y-3970738D01*
X1226738Y-3965976D01*
X1224357Y-3963595D01*
X1219595Y-3961214D01*
X1210071Y-3961214D01*
X1205310Y-3963595D01*
X1202929Y-3965976D01*
X1200548Y-3970738D01*
X2036367Y-2646757D02*
X2033986Y-2649138D01*
X2026843Y-2651519D01*
X2022081Y-2651519D01*
X2014938Y-2649138D01*
X2010176Y-2644376D01*
X2007795Y-2639614D01*
X2005414Y-2630090D01*
X2005414Y-2622948D01*
X2007795Y-2613424D01*
X2010176Y-2608662D01*
X2014938Y-2603900D01*
X2022081Y-2601519D01*
X2026843Y-2601519D01*
X2033986Y-2603900D01*
X2036367Y-2606281D01*
X2060176Y-2651519D02*
X2069700Y-2651519D01*
X2074462Y-2649138D01*
X2076843Y-2646757D01*
X2081605Y-2639614D01*
X2083986Y-2630090D01*
X2083986Y-2611043D01*
X2081605Y-2606281D01*
X2079224Y-2603900D01*
X2074462Y-2601519D01*
X2064938Y-2601519D01*
X2060176Y-2603900D01*
X2057795Y-2606281D01*
X2055414Y-2611043D01*
X2055414Y-2622948D01*
X2057795Y-2627710D01*
X2060176Y-2630090D01*
X2064938Y-2632471D01*
X2074462Y-2632471D01*
X2079224Y-2630090D01*
X2081605Y-2627710D01*
X2083986Y-2622948D01*
X2444357Y-3103957D02*
X2441976Y-3106338D01*
X2434833Y-3108719D01*
X2430071Y-3108719D01*
X2422929Y-3106338D01*
X2418167Y-3101576D01*
X2415786Y-3096814D01*
X2413405Y-3087290D01*
X2413405Y-3080148D01*
X2415786Y-3070624D01*
X2418167Y-3065862D01*
X2422929Y-3061100D01*
X2430071Y-3058719D01*
X2434833Y-3058719D01*
X2441976Y-3061100D01*
X2444357Y-3063481D01*
X2491976Y-3108719D02*
X2463405Y-3108719D01*
X2477690Y-3108719D02*
X2477690Y-3058719D01*
X2472929Y-3065862D01*
X2468167Y-3070624D01*
X2463405Y-3073005D01*
X2522929Y-3058719D02*
X2527690Y-3058719D01*
X2532452Y-3061100D01*
X2534833Y-3063481D01*
X2537214Y-3068243D01*
X2539595Y-3077767D01*
X2539595Y-3089671D01*
X2537214Y-3099195D01*
X2534833Y-3103957D01*
X2532452Y-3106338D01*
X2527690Y-3108719D01*
X2522929Y-3108719D01*
X2518167Y-3106338D01*
X2515786Y-3103957D01*
X2513405Y-3099195D01*
X2511024Y-3089671D01*
X2511024Y-3077767D01*
X2513405Y-3068243D01*
X2515786Y-3063481D01*
X2518167Y-3061100D01*
X2522929Y-3058719D01*
X2444357Y-2875357D02*
X2441976Y-2877738D01*
X2434833Y-2880119D01*
X2430071Y-2880119D01*
X2422929Y-2877738D01*
X2418167Y-2872976D01*
X2415786Y-2868214D01*
X2413405Y-2858690D01*
X2413405Y-2851548D01*
X2415786Y-2842024D01*
X2418167Y-2837262D01*
X2422929Y-2832500D01*
X2430071Y-2830119D01*
X2434833Y-2830119D01*
X2441976Y-2832500D01*
X2444357Y-2834881D01*
X2491976Y-2880119D02*
X2463405Y-2880119D01*
X2477690Y-2880119D02*
X2477690Y-2830119D01*
X2472929Y-2837262D01*
X2468167Y-2842024D01*
X2463405Y-2844405D01*
X2539595Y-2880119D02*
X2511024Y-2880119D01*
X2525310Y-2880119D02*
X2525310Y-2830119D01*
X2520548Y-2837262D01*
X2515786Y-2842024D01*
X2511024Y-2844405D01*
X1580757Y-2646757D02*
X1578376Y-2649138D01*
X1571233Y-2651519D01*
X1566471Y-2651519D01*
X1559328Y-2649138D01*
X1554567Y-2644376D01*
X1552186Y-2639614D01*
X1549805Y-2630090D01*
X1549805Y-2622948D01*
X1552186Y-2613424D01*
X1554567Y-2608662D01*
X1559328Y-2603900D01*
X1566471Y-2601519D01*
X1571233Y-2601519D01*
X1578376Y-2603900D01*
X1580757Y-2606281D01*
X1628376Y-2651519D02*
X1599805Y-2651519D01*
X1614090Y-2651519D02*
X1614090Y-2601519D01*
X1609328Y-2608662D01*
X1604567Y-2613424D01*
X1599805Y-2615805D01*
X1647424Y-2606281D02*
X1649805Y-2603900D01*
X1654567Y-2601519D01*
X1666471Y-2601519D01*
X1671233Y-2603900D01*
X1673614Y-2606281D01*
X1675995Y-2611043D01*
X1675995Y-2615805D01*
X1673614Y-2622948D01*
X1645043Y-2651519D01*
X1675995Y-2651519D01*
X2976857Y-4348557D02*
X2974476Y-4350938D01*
X2967333Y-4353319D01*
X2962571Y-4353319D01*
X2955428Y-4350938D01*
X2950667Y-4346176D01*
X2948286Y-4341414D01*
X2945905Y-4331890D01*
X2945905Y-4324748D01*
X2948286Y-4315224D01*
X2950667Y-4310462D01*
X2955428Y-4305700D01*
X2962571Y-4303319D01*
X2967333Y-4303319D01*
X2974476Y-4305700D01*
X2976857Y-4308081D01*
X3024476Y-4353319D02*
X2995905Y-4353319D01*
X3010190Y-4353319D02*
X3010190Y-4303319D01*
X3005428Y-4310462D01*
X3000667Y-4315224D01*
X2995905Y-4317605D01*
X3067333Y-4319986D02*
X3067333Y-4353319D01*
X3055428Y-4300938D02*
X3043524Y-4336652D01*
X3074476Y-4336652D01*
X2976857Y-4589857D02*
X2974476Y-4592238D01*
X2967333Y-4594619D01*
X2962571Y-4594619D01*
X2955428Y-4592238D01*
X2950667Y-4587476D01*
X2948286Y-4582714D01*
X2945905Y-4573190D01*
X2945905Y-4566048D01*
X2948286Y-4556524D01*
X2950667Y-4551762D01*
X2955428Y-4547000D01*
X2962571Y-4544619D01*
X2967333Y-4544619D01*
X2974476Y-4547000D01*
X2976857Y-4549381D01*
X3024476Y-4594619D02*
X2995905Y-4594619D01*
X3010190Y-4594619D02*
X3010190Y-4544619D01*
X3005428Y-4551762D01*
X3000667Y-4556524D01*
X2995905Y-4558905D01*
X3069714Y-4544619D02*
X3045905Y-4544619D01*
X3043524Y-4568429D01*
X3045905Y-4566048D01*
X3050667Y-4563667D01*
X3062571Y-4563667D01*
X3067333Y-4566048D01*
X3069714Y-4568429D01*
X3072095Y-4573190D01*
X3072095Y-4585095D01*
X3069714Y-4589857D01*
X3067333Y-4592238D01*
X3062571Y-4594619D01*
X3050667Y-4594619D01*
X3045905Y-4592238D01*
X3043524Y-4589857D01*
X3358757Y-4881957D02*
X3356376Y-4884338D01*
X3349233Y-4886719D01*
X3344471Y-4886719D01*
X3337328Y-4884338D01*
X3332567Y-4879576D01*
X3330186Y-4874814D01*
X3327805Y-4865290D01*
X3327805Y-4858148D01*
X3330186Y-4848624D01*
X3332567Y-4843862D01*
X3337328Y-4839100D01*
X3344471Y-4836719D01*
X3349233Y-4836719D01*
X3356376Y-4839100D01*
X3358757Y-4841481D01*
X3406376Y-4886719D02*
X3377805Y-4886719D01*
X3392090Y-4886719D02*
X3392090Y-4836719D01*
X3387328Y-4843862D01*
X3382567Y-4848624D01*
X3377805Y-4851005D01*
X3449233Y-4836719D02*
X3439709Y-4836719D01*
X3434948Y-4839100D01*
X3432567Y-4841481D01*
X3427805Y-4848624D01*
X3425424Y-4858148D01*
X3425424Y-4877195D01*
X3427805Y-4881957D01*
X3430186Y-4884338D01*
X3434948Y-4886719D01*
X3444471Y-4886719D01*
X3449233Y-4884338D01*
X3451614Y-4881957D01*
X3453995Y-4877195D01*
X3453995Y-4865290D01*
X3451614Y-4860529D01*
X3449233Y-4858148D01*
X3444471Y-4855767D01*
X3434948Y-4855767D01*
X3430186Y-4858148D01*
X3427805Y-4860529D01*
X3425424Y-4865290D01*
X5402657Y-5277243D02*
X5405038Y-5279624D01*
X5407419Y-5286767D01*
X5407419Y-5291529D01*
X5405038Y-5298671D01*
X5400276Y-5303433D01*
X5395514Y-5305814D01*
X5385990Y-5308195D01*
X5378848Y-5308195D01*
X5369324Y-5305814D01*
X5364562Y-5303433D01*
X5359800Y-5298671D01*
X5357419Y-5291529D01*
X5357419Y-5286767D01*
X5359800Y-5279624D01*
X5362181Y-5277243D01*
X5407419Y-5229624D02*
X5407419Y-5258195D01*
X5407419Y-5243910D02*
X5357419Y-5243910D01*
X5364562Y-5248671D01*
X5369324Y-5253433D01*
X5371705Y-5258195D01*
X5357419Y-5212957D02*
X5357419Y-5179624D01*
X5407419Y-5201052D01*
X1745857Y-4970857D02*
X1743476Y-4973238D01*
X1736333Y-4975619D01*
X1731571Y-4975619D01*
X1724428Y-4973238D01*
X1719667Y-4968476D01*
X1717286Y-4963714D01*
X1714905Y-4954190D01*
X1714905Y-4947048D01*
X1717286Y-4937524D01*
X1719667Y-4932762D01*
X1724428Y-4928000D01*
X1731571Y-4925619D01*
X1736333Y-4925619D01*
X1743476Y-4928000D01*
X1745857Y-4930381D01*
X1793476Y-4975619D02*
X1764905Y-4975619D01*
X1779190Y-4975619D02*
X1779190Y-4925619D01*
X1774428Y-4932762D01*
X1769667Y-4937524D01*
X1764905Y-4939905D01*
X1822048Y-4947048D02*
X1817286Y-4944667D01*
X1814905Y-4942286D01*
X1812524Y-4937524D01*
X1812524Y-4935143D01*
X1814905Y-4930381D01*
X1817286Y-4928000D01*
X1822048Y-4925619D01*
X1831571Y-4925619D01*
X1836333Y-4928000D01*
X1838714Y-4930381D01*
X1841095Y-4935143D01*
X1841095Y-4937524D01*
X1838714Y-4942286D01*
X1836333Y-4944667D01*
X1831571Y-4947048D01*
X1822048Y-4947048D01*
X1817286Y-4949429D01*
X1814905Y-4951810D01*
X1812524Y-4956571D01*
X1812524Y-4966095D01*
X1814905Y-4970857D01*
X1817286Y-4973238D01*
X1822048Y-4975619D01*
X1831571Y-4975619D01*
X1836333Y-4973238D01*
X1838714Y-4970857D01*
X1841095Y-4966095D01*
X1841095Y-4956571D01*
X1838714Y-4951810D01*
X1836333Y-4949429D01*
X1831571Y-4947048D01*
X2126857Y-4970857D02*
X2124476Y-4973238D01*
X2117333Y-4975619D01*
X2112571Y-4975619D01*
X2105429Y-4973238D01*
X2100667Y-4968476D01*
X2098286Y-4963714D01*
X2095905Y-4954190D01*
X2095905Y-4947048D01*
X2098286Y-4937524D01*
X2100667Y-4932762D01*
X2105429Y-4928000D01*
X2112571Y-4925619D01*
X2117333Y-4925619D01*
X2124476Y-4928000D01*
X2126857Y-4930381D01*
X2174476Y-4975619D02*
X2145905Y-4975619D01*
X2160190Y-4975619D02*
X2160190Y-4925619D01*
X2155429Y-4932762D01*
X2150667Y-4937524D01*
X2145905Y-4939905D01*
X2198286Y-4975619D02*
X2207810Y-4975619D01*
X2212571Y-4973238D01*
X2214952Y-4970857D01*
X2219714Y-4963714D01*
X2222095Y-4954190D01*
X2222095Y-4935143D01*
X2219714Y-4930381D01*
X2217333Y-4928000D01*
X2212571Y-4925619D01*
X2203048Y-4925619D01*
X2198286Y-4928000D01*
X2195905Y-4930381D01*
X2193524Y-4935143D01*
X2193524Y-4947048D01*
X2195905Y-4951810D01*
X2198286Y-4954190D01*
X2203048Y-4956571D01*
X2212571Y-4956571D01*
X2217333Y-4954190D01*
X2219714Y-4951810D01*
X2222095Y-4947048D01*
X1364857Y-4970857D02*
X1362476Y-4973238D01*
X1355333Y-4975619D01*
X1350571Y-4975619D01*
X1343429Y-4973238D01*
X1338667Y-4968476D01*
X1336286Y-4963714D01*
X1333905Y-4954190D01*
X1333905Y-4947048D01*
X1336286Y-4937524D01*
X1338667Y-4932762D01*
X1343429Y-4928000D01*
X1350571Y-4925619D01*
X1355333Y-4925619D01*
X1362476Y-4928000D01*
X1364857Y-4930381D01*
X1383905Y-4930381D02*
X1386286Y-4928000D01*
X1391048Y-4925619D01*
X1402952Y-4925619D01*
X1407714Y-4928000D01*
X1410095Y-4930381D01*
X1412476Y-4935143D01*
X1412476Y-4939905D01*
X1410095Y-4947048D01*
X1381524Y-4975619D01*
X1412476Y-4975619D01*
X1443428Y-4925619D02*
X1448190Y-4925619D01*
X1452952Y-4928000D01*
X1455333Y-4930381D01*
X1457714Y-4935143D01*
X1460095Y-4944667D01*
X1460095Y-4956571D01*
X1457714Y-4966095D01*
X1455333Y-4970857D01*
X1452952Y-4973238D01*
X1448190Y-4975619D01*
X1443428Y-4975619D01*
X1438667Y-4973238D01*
X1436286Y-4970857D01*
X1433905Y-4966095D01*
X1431524Y-4956571D01*
X1431524Y-4944667D01*
X1433905Y-4935143D01*
X1436286Y-4930381D01*
X1438667Y-4928000D01*
X1443428Y-4925619D01*
X5632057Y-3865957D02*
X5629676Y-3868338D01*
X5622533Y-3870719D01*
X5617771Y-3870719D01*
X5610628Y-3868338D01*
X5605867Y-3863576D01*
X5603486Y-3858814D01*
X5601105Y-3849290D01*
X5601105Y-3842148D01*
X5603486Y-3832624D01*
X5605867Y-3827862D01*
X5610628Y-3823100D01*
X5617771Y-3820719D01*
X5622533Y-3820719D01*
X5629676Y-3823100D01*
X5632057Y-3825481D01*
X5651105Y-3825481D02*
X5653486Y-3823100D01*
X5658248Y-3820719D01*
X5670152Y-3820719D01*
X5674914Y-3823100D01*
X5677295Y-3825481D01*
X5679676Y-3830243D01*
X5679676Y-3835005D01*
X5677295Y-3842148D01*
X5648724Y-3870719D01*
X5679676Y-3870719D01*
X5727295Y-3870719D02*
X5698724Y-3870719D01*
X5713009Y-3870719D02*
X5713009Y-3820719D01*
X5708248Y-3827862D01*
X5703486Y-3832624D01*
X5698724Y-3835005D01*
X5632057Y-3650057D02*
X5629676Y-3652438D01*
X5622533Y-3654819D01*
X5617771Y-3654819D01*
X5610628Y-3652438D01*
X5605867Y-3647676D01*
X5603486Y-3642914D01*
X5601105Y-3633390D01*
X5601105Y-3626248D01*
X5603486Y-3616724D01*
X5605867Y-3611962D01*
X5610628Y-3607200D01*
X5617771Y-3604819D01*
X5622533Y-3604819D01*
X5629676Y-3607200D01*
X5632057Y-3609581D01*
X5651105Y-3609581D02*
X5653486Y-3607200D01*
X5658248Y-3604819D01*
X5670152Y-3604819D01*
X5674914Y-3607200D01*
X5677295Y-3609581D01*
X5679676Y-3614343D01*
X5679676Y-3619105D01*
X5677295Y-3626248D01*
X5648724Y-3654819D01*
X5679676Y-3654819D01*
X5698724Y-3609581D02*
X5701105Y-3607200D01*
X5705867Y-3604819D01*
X5717771Y-3604819D01*
X5722533Y-3607200D01*
X5724914Y-3609581D01*
X5727295Y-3614343D01*
X5727295Y-3619105D01*
X5724914Y-3626248D01*
X5696343Y-3654819D01*
X5727295Y-3654819D01*
X2977757Y-4094557D02*
X2975376Y-4096938D01*
X2968233Y-4099319D01*
X2963471Y-4099319D01*
X2956328Y-4096938D01*
X2951567Y-4092176D01*
X2949186Y-4087414D01*
X2946805Y-4077890D01*
X2946805Y-4070748D01*
X2949186Y-4061224D01*
X2951567Y-4056462D01*
X2956328Y-4051700D01*
X2963471Y-4049319D01*
X2968233Y-4049319D01*
X2975376Y-4051700D01*
X2977757Y-4054081D01*
X2996805Y-4054081D02*
X2999186Y-4051700D01*
X3003948Y-4049319D01*
X3015852Y-4049319D01*
X3020614Y-4051700D01*
X3022995Y-4054081D01*
X3025376Y-4058843D01*
X3025376Y-4063605D01*
X3022995Y-4070748D01*
X2994424Y-4099319D01*
X3025376Y-4099319D01*
X3042043Y-4049319D02*
X3072995Y-4049319D01*
X3056328Y-4068367D01*
X3063471Y-4068367D01*
X3068233Y-4070748D01*
X3070614Y-4073128D01*
X3072995Y-4077890D01*
X3072995Y-4089795D01*
X3070614Y-4094557D01*
X3068233Y-4096938D01*
X3063471Y-4099319D01*
X3049186Y-4099319D01*
X3044424Y-4096938D01*
X3042043Y-4094557D01*
X2977757Y-3853257D02*
X2975376Y-3855638D01*
X2968233Y-3858019D01*
X2963471Y-3858019D01*
X2956328Y-3855638D01*
X2951567Y-3850876D01*
X2949186Y-3846114D01*
X2946805Y-3836590D01*
X2946805Y-3829448D01*
X2949186Y-3819924D01*
X2951567Y-3815162D01*
X2956328Y-3810400D01*
X2963471Y-3808019D01*
X2968233Y-3808019D01*
X2975376Y-3810400D01*
X2977757Y-3812781D01*
X2996805Y-3812781D02*
X2999186Y-3810400D01*
X3003948Y-3808019D01*
X3015852Y-3808019D01*
X3020614Y-3810400D01*
X3022995Y-3812781D01*
X3025376Y-3817543D01*
X3025376Y-3822305D01*
X3022995Y-3829448D01*
X2994424Y-3858019D01*
X3025376Y-3858019D01*
X3070614Y-3808019D02*
X3046805Y-3808019D01*
X3044424Y-3831828D01*
X3046805Y-3829448D01*
X3051567Y-3827067D01*
X3063471Y-3827067D01*
X3068233Y-3829448D01*
X3070614Y-3831828D01*
X3072995Y-3836590D01*
X3072995Y-3848495D01*
X3070614Y-3853257D01*
X3068233Y-3855638D01*
X3063471Y-3858019D01*
X3051567Y-3858019D01*
X3046805Y-3855638D01*
X3044424Y-3853257D01*
X7397357Y-6240857D02*
X7394976Y-6243238D01*
X7387833Y-6245619D01*
X7383071Y-6245619D01*
X7375928Y-6243238D01*
X7371167Y-6238476D01*
X7368786Y-6233714D01*
X7366405Y-6224190D01*
X7366405Y-6217048D01*
X7368786Y-6207524D01*
X7371167Y-6202762D01*
X7375928Y-6198000D01*
X7383071Y-6195619D01*
X7387833Y-6195619D01*
X7394976Y-6198000D01*
X7397357Y-6200381D01*
X7416405Y-6200381D02*
X7418786Y-6198000D01*
X7423548Y-6195619D01*
X7435452Y-6195619D01*
X7440214Y-6198000D01*
X7442595Y-6200381D01*
X7444976Y-6205143D01*
X7444976Y-6209905D01*
X7442595Y-6217048D01*
X7414024Y-6245619D01*
X7444976Y-6245619D01*
X7487833Y-6195619D02*
X7478309Y-6195619D01*
X7473548Y-6198000D01*
X7471167Y-6200381D01*
X7466405Y-6207524D01*
X7464024Y-6217048D01*
X7464024Y-6236095D01*
X7466405Y-6240857D01*
X7468786Y-6243238D01*
X7473548Y-6245619D01*
X7483071Y-6245619D01*
X7487833Y-6243238D01*
X7490214Y-6240857D01*
X7492595Y-6236095D01*
X7492595Y-6224190D01*
X7490214Y-6219428D01*
X7487833Y-6217048D01*
X7483071Y-6214667D01*
X7473548Y-6214667D01*
X7468786Y-6217048D01*
X7466405Y-6219428D01*
X7464024Y-6224190D01*
X8857857Y-6240857D02*
X8855476Y-6243238D01*
X8848333Y-6245619D01*
X8843571Y-6245619D01*
X8836429Y-6243238D01*
X8831667Y-6238476D01*
X8829286Y-6233714D01*
X8826905Y-6224190D01*
X8826905Y-6217048D01*
X8829286Y-6207524D01*
X8831667Y-6202762D01*
X8836429Y-6198000D01*
X8843571Y-6195619D01*
X8848333Y-6195619D01*
X8855476Y-6198000D01*
X8857857Y-6200381D01*
X8876905Y-6200381D02*
X8879286Y-6198000D01*
X8884048Y-6195619D01*
X8895952Y-6195619D01*
X8900714Y-6198000D01*
X8903095Y-6200381D01*
X8905476Y-6205143D01*
X8905476Y-6209905D01*
X8903095Y-6217048D01*
X8874524Y-6245619D01*
X8905476Y-6245619D01*
X8922143Y-6195619D02*
X8955476Y-6195619D01*
X8934048Y-6245619D01*
X10318357Y-6304357D02*
X10315976Y-6306738D01*
X10308833Y-6309119D01*
X10304071Y-6309119D01*
X10296929Y-6306738D01*
X10292167Y-6301976D01*
X10289786Y-6297214D01*
X10287405Y-6287690D01*
X10287405Y-6280548D01*
X10289786Y-6271024D01*
X10292167Y-6266262D01*
X10296929Y-6261500D01*
X10304071Y-6259119D01*
X10308833Y-6259119D01*
X10315976Y-6261500D01*
X10318357Y-6263881D01*
X10337405Y-6263881D02*
X10339786Y-6261500D01*
X10344548Y-6259119D01*
X10356452Y-6259119D01*
X10361214Y-6261500D01*
X10363595Y-6263881D01*
X10365976Y-6268643D01*
X10365976Y-6273405D01*
X10363595Y-6280548D01*
X10335024Y-6309119D01*
X10365976Y-6309119D01*
X10394548Y-6280548D02*
X10389786Y-6278167D01*
X10387405Y-6275786D01*
X10385024Y-6271024D01*
X10385024Y-6268643D01*
X10387405Y-6263881D01*
X10389786Y-6261500D01*
X10394548Y-6259119D01*
X10404071Y-6259119D01*
X10408833Y-6261500D01*
X10411214Y-6263881D01*
X10413595Y-6268643D01*
X10413595Y-6271024D01*
X10411214Y-6275786D01*
X10408833Y-6278167D01*
X10404071Y-6280548D01*
X10394548Y-6280548D01*
X10389786Y-6282928D01*
X10387405Y-6285309D01*
X10385024Y-6290071D01*
X10385024Y-6299595D01*
X10387405Y-6304357D01*
X10389786Y-6306738D01*
X10394548Y-6309119D01*
X10404071Y-6309119D01*
X10408833Y-6306738D01*
X10411214Y-6304357D01*
X10413595Y-6299595D01*
X10413595Y-6290071D01*
X10411214Y-6285309D01*
X10408833Y-6282928D01*
X10404071Y-6280548D01*
X2837257Y-2775343D02*
X2839638Y-2777724D01*
X2842019Y-2784867D01*
X2842019Y-2789629D01*
X2839638Y-2796771D01*
X2834876Y-2801533D01*
X2830114Y-2803914D01*
X2820590Y-2806295D01*
X2813448Y-2806295D01*
X2803924Y-2803914D01*
X2799162Y-2801533D01*
X2794400Y-2796771D01*
X2792019Y-2789629D01*
X2792019Y-2784867D01*
X2794400Y-2777724D01*
X2796781Y-2775343D01*
X2796781Y-2756295D02*
X2794400Y-2753914D01*
X2792019Y-2749152D01*
X2792019Y-2737248D01*
X2794400Y-2732486D01*
X2796781Y-2730105D01*
X2801543Y-2727724D01*
X2806305Y-2727724D01*
X2813448Y-2730105D01*
X2842019Y-2758676D01*
X2842019Y-2727724D01*
X2842019Y-2703914D02*
X2842019Y-2694390D01*
X2839638Y-2689629D01*
X2837257Y-2687248D01*
X2830114Y-2682486D01*
X2820590Y-2680105D01*
X2801543Y-2680105D01*
X2796781Y-2682486D01*
X2794400Y-2684867D01*
X2792019Y-2689629D01*
X2792019Y-2699152D01*
X2794400Y-2703914D01*
X2796781Y-2706295D01*
X2801543Y-2708676D01*
X2813448Y-2708676D01*
X2818209Y-2706295D01*
X2820590Y-2703914D01*
X2822971Y-2699152D01*
X2822971Y-2689629D01*
X2820590Y-2684867D01*
X2818209Y-2682486D01*
X2813448Y-2680105D01*
X2545957Y-6101157D02*
X2543576Y-6103538D01*
X2536433Y-6105919D01*
X2531671Y-6105919D01*
X2524529Y-6103538D01*
X2519767Y-6098776D01*
X2517386Y-6094014D01*
X2515005Y-6084490D01*
X2515005Y-6077348D01*
X2517386Y-6067824D01*
X2519767Y-6063062D01*
X2524529Y-6058300D01*
X2531671Y-6055919D01*
X2536433Y-6055919D01*
X2543576Y-6058300D01*
X2545957Y-6060681D01*
X2562624Y-6055919D02*
X2593576Y-6055919D01*
X2576910Y-6074967D01*
X2584052Y-6074967D01*
X2588814Y-6077348D01*
X2591195Y-6079728D01*
X2593576Y-6084490D01*
X2593576Y-6096395D01*
X2591195Y-6101157D01*
X2588814Y-6103538D01*
X2584052Y-6105919D01*
X2569767Y-6105919D01*
X2565005Y-6103538D01*
X2562624Y-6101157D01*
X2641195Y-6105919D02*
X2612624Y-6105919D01*
X2626910Y-6105919D02*
X2626910Y-6055919D01*
X2622148Y-6063062D01*
X2617386Y-6067824D01*
X2612624Y-6070205D01*
X3400819Y-6132905D02*
X3350819Y-6132905D01*
X3350819Y-6121000D01*
X3353200Y-6113857D01*
X3357962Y-6109095D01*
X3362724Y-6106714D01*
X3372248Y-6104333D01*
X3379390Y-6104333D01*
X3388914Y-6106714D01*
X3393676Y-6109095D01*
X3398438Y-6113857D01*
X3400819Y-6121000D01*
X3400819Y-6132905D01*
X3350819Y-6059095D02*
X3350819Y-6082905D01*
X3374628Y-6085286D01*
X3372248Y-6082905D01*
X3369867Y-6078143D01*
X3369867Y-6066238D01*
X3372248Y-6061476D01*
X3374628Y-6059095D01*
X3379390Y-6056714D01*
X3391295Y-6056714D01*
X3396057Y-6059095D01*
X3398438Y-6061476D01*
X3400819Y-6066238D01*
X3400819Y-6078143D01*
X3398438Y-6082905D01*
X3396057Y-6085286D01*
X436405Y-467119D02*
X436405Y-417119D01*
X436405Y-440928D02*
X464976Y-440928D01*
X464976Y-467119D02*
X464976Y-417119D01*
X514976Y-467119D02*
X486405Y-467119D01*
X500690Y-467119D02*
X500690Y-417119D01*
X495928Y-424262D01*
X491167Y-429024D01*
X486405Y-431405D01*
X436405Y-7071119D02*
X436405Y-7021119D01*
X436405Y-7044928D02*
X464976Y-7044928D01*
X464976Y-7071119D02*
X464976Y-7021119D01*
X486405Y-7025881D02*
X488786Y-7023500D01*
X493548Y-7021119D01*
X505452Y-7021119D01*
X510214Y-7023500D01*
X512595Y-7025881D01*
X514976Y-7030643D01*
X514976Y-7035405D01*
X512595Y-7042548D01*
X484024Y-7071119D01*
X514976Y-7071119D01*
X13517405Y-7080919D02*
X13517405Y-7030919D01*
X13517405Y-7054729D02*
X13545976Y-7054729D01*
X13545976Y-7080919D02*
X13545976Y-7030919D01*
X13565024Y-7030919D02*
X13595976Y-7030919D01*
X13579309Y-7049967D01*
X13586452Y-7049967D01*
X13591214Y-7052348D01*
X13593595Y-7054729D01*
X13595976Y-7059490D01*
X13595976Y-7071395D01*
X13593595Y-7076157D01*
X13591214Y-7078538D01*
X13586452Y-7080919D01*
X13572167Y-7080919D01*
X13567405Y-7078538D01*
X13565024Y-7076157D01*
X13517405Y-467119D02*
X13517405Y-417119D01*
X13517405Y-440928D02*
X13545976Y-440928D01*
X13545976Y-467119D02*
X13545976Y-417119D01*
X13591214Y-433786D02*
X13591214Y-467119D01*
X13579309Y-414738D02*
X13567405Y-450452D01*
X13598357Y-450452D01*
X109024Y-5626119D02*
X109024Y-5661833D01*
X106643Y-5668976D01*
X101881Y-5673738D01*
X94738Y-5676119D01*
X89976Y-5676119D01*
X154262Y-5642786D02*
X154262Y-5676119D01*
X142357Y-5623738D02*
X130452Y-5659452D01*
X161405Y-5659452D01*
X206643Y-5676119D02*
X178071Y-5676119D01*
X192357Y-5676119D02*
X192357Y-5626119D01*
X187595Y-5633262D01*
X182833Y-5638024D01*
X178071Y-5640405D01*
X1897024Y-7276619D02*
X1897024Y-7312333D01*
X1894643Y-7319476D01*
X1889881Y-7324238D01*
X1882738Y-7326619D01*
X1877976Y-7326619D01*
X1942262Y-7293286D02*
X1942262Y-7326619D01*
X1930357Y-7274238D02*
X1918452Y-7309952D01*
X1949405Y-7309952D01*
X1966071Y-7281381D02*
X1968452Y-7279000D01*
X1973214Y-7276619D01*
X1985119Y-7276619D01*
X1989881Y-7279000D01*
X1992262Y-7281381D01*
X1994643Y-7286143D01*
X1994643Y-7290905D01*
X1992262Y-7298048D01*
X1963690Y-7326619D01*
X1994643Y-7326619D01*
X2087167Y-4150119D02*
X2063357Y-4150119D01*
X2063357Y-4100119D01*
X2130024Y-4150119D02*
X2101452Y-4150119D01*
X2115738Y-4150119D02*
X2115738Y-4100119D01*
X2110976Y-4107262D01*
X2106214Y-4112024D01*
X2101452Y-4114405D01*
X12187238Y-3088081D02*
X12182476Y-3085700D01*
X12177714Y-3080938D01*
X12170571Y-3073795D01*
X12165809Y-3071414D01*
X12161048Y-3071414D01*
X12163428Y-3083319D02*
X12158667Y-3080938D01*
X12153905Y-3076176D01*
X12151524Y-3066652D01*
X12151524Y-3049986D01*
X12153905Y-3040462D01*
X12158667Y-3035700D01*
X12163428Y-3033319D01*
X12172952Y-3033319D01*
X12177714Y-3035700D01*
X12182476Y-3040462D01*
X12184857Y-3049986D01*
X12184857Y-3066652D01*
X12182476Y-3076176D01*
X12177714Y-3080938D01*
X12172952Y-3083319D01*
X12163428Y-3083319D01*
X12232476Y-3083319D02*
X12203905Y-3083319D01*
X12218190Y-3083319D02*
X12218190Y-3033319D01*
X12213428Y-3040462D01*
X12208667Y-3045224D01*
X12203905Y-3047605D01*
X12178738Y-4279981D02*
X12173976Y-4277600D01*
X12169214Y-4272838D01*
X12162071Y-4265695D01*
X12157309Y-4263314D01*
X12152548Y-4263314D01*
X12154928Y-4275219D02*
X12150167Y-4272838D01*
X12145405Y-4268076D01*
X12143024Y-4258552D01*
X12143024Y-4241886D01*
X12145405Y-4232362D01*
X12150167Y-4227600D01*
X12154928Y-4225219D01*
X12164452Y-4225219D01*
X12169214Y-4227600D01*
X12173976Y-4232362D01*
X12176357Y-4241886D01*
X12176357Y-4258552D01*
X12173976Y-4268076D01*
X12169214Y-4272838D01*
X12164452Y-4275219D01*
X12154928Y-4275219D01*
X12195405Y-4229981D02*
X12197786Y-4227600D01*
X12202548Y-4225219D01*
X12214452Y-4225219D01*
X12219214Y-4227600D01*
X12221595Y-4229981D01*
X12223976Y-4234743D01*
X12223976Y-4239505D01*
X12221595Y-4246648D01*
X12193024Y-4275219D01*
X12223976Y-4275219D01*
X12219238Y-5486481D02*
X12214476Y-5484100D01*
X12209714Y-5479338D01*
X12202571Y-5472195D01*
X12197809Y-5469814D01*
X12193048Y-5469814D01*
X12195428Y-5481719D02*
X12190667Y-5479338D01*
X12185905Y-5474576D01*
X12183524Y-5465052D01*
X12183524Y-5448386D01*
X12185905Y-5438862D01*
X12190667Y-5434100D01*
X12195428Y-5431719D01*
X12204952Y-5431719D01*
X12209714Y-5434100D01*
X12214476Y-5438862D01*
X12216857Y-5448386D01*
X12216857Y-5465052D01*
X12214476Y-5474576D01*
X12209714Y-5479338D01*
X12204952Y-5481719D01*
X12195428Y-5481719D01*
X12233524Y-5431719D02*
X12264476Y-5431719D01*
X12247809Y-5450767D01*
X12254952Y-5450767D01*
X12259714Y-5453148D01*
X12262095Y-5455529D01*
X12264476Y-5460290D01*
X12264476Y-5472195D01*
X12262095Y-5476957D01*
X12259714Y-5479338D01*
X12254952Y-5481719D01*
X12240667Y-5481719D01*
X12235905Y-5479338D01*
X12233524Y-5476957D01*
X12218038Y-6720281D02*
X12213276Y-6717900D01*
X12208514Y-6713138D01*
X12201371Y-6705995D01*
X12196609Y-6703614D01*
X12191848Y-6703614D01*
X12194228Y-6715519D02*
X12189467Y-6713138D01*
X12184705Y-6708376D01*
X12182324Y-6698852D01*
X12182324Y-6682186D01*
X12184705Y-6672662D01*
X12189467Y-6667900D01*
X12194228Y-6665519D01*
X12203752Y-6665519D01*
X12208514Y-6667900D01*
X12213276Y-6672662D01*
X12215657Y-6682186D01*
X12215657Y-6698852D01*
X12213276Y-6708376D01*
X12208514Y-6713138D01*
X12203752Y-6715519D01*
X12194228Y-6715519D01*
X12258514Y-6682186D02*
X12258514Y-6715519D01*
X12246609Y-6663138D02*
X12234705Y-6698852D01*
X12265657Y-6698852D01*
X11198619Y-2802333D02*
X11174810Y-2819000D01*
X11198619Y-2830905D02*
X11148619Y-2830905D01*
X11148619Y-2811857D01*
X11151000Y-2807095D01*
X11153381Y-2804714D01*
X11158143Y-2802333D01*
X11165286Y-2802333D01*
X11170048Y-2804714D01*
X11172429Y-2807095D01*
X11174810Y-2811857D01*
X11174810Y-2830905D01*
X11153381Y-2783286D02*
X11151000Y-2780905D01*
X11148619Y-2776143D01*
X11148619Y-2764238D01*
X11151000Y-2759476D01*
X11153381Y-2757095D01*
X11158143Y-2754714D01*
X11162905Y-2754714D01*
X11170048Y-2757095D01*
X11198619Y-2785667D01*
X11198619Y-2754714D01*
X11198619Y-4008833D02*
X11174810Y-4025500D01*
X11198619Y-4037405D02*
X11148619Y-4037405D01*
X11148619Y-4018357D01*
X11151000Y-4013595D01*
X11153381Y-4011214D01*
X11158143Y-4008833D01*
X11165286Y-4008833D01*
X11170048Y-4011214D01*
X11172429Y-4013595D01*
X11174810Y-4018357D01*
X11174810Y-4037405D01*
X11148619Y-3992167D02*
X11148619Y-3961214D01*
X11167667Y-3977881D01*
X11167667Y-3970738D01*
X11170048Y-3965976D01*
X11172429Y-3963595D01*
X11177190Y-3961214D01*
X11189095Y-3961214D01*
X11193857Y-3963595D01*
X11196238Y-3965976D01*
X11198619Y-3970738D01*
X11198619Y-3985024D01*
X11196238Y-3989786D01*
X11193857Y-3992167D01*
X11198619Y-5215333D02*
X11174810Y-5232000D01*
X11198619Y-5243905D02*
X11148619Y-5243905D01*
X11148619Y-5224857D01*
X11151000Y-5220095D01*
X11153381Y-5217714D01*
X11158143Y-5215333D01*
X11165286Y-5215333D01*
X11170048Y-5217714D01*
X11172429Y-5220095D01*
X11174810Y-5224857D01*
X11174810Y-5243905D01*
X11165286Y-5172476D02*
X11198619Y-5172476D01*
X11146238Y-5184381D02*
X11181952Y-5196286D01*
X11181952Y-5165333D01*
X11198619Y-6446333D02*
X11174810Y-6463000D01*
X11198619Y-6474905D02*
X11148619Y-6474905D01*
X11148619Y-6455857D01*
X11151000Y-6451095D01*
X11153381Y-6448714D01*
X11158143Y-6446333D01*
X11165286Y-6446333D01*
X11170048Y-6448714D01*
X11172429Y-6451095D01*
X11174810Y-6455857D01*
X11174810Y-6474905D01*
X11148619Y-6401095D02*
X11148619Y-6424905D01*
X11172429Y-6427286D01*
X11170048Y-6424905D01*
X11167667Y-6420143D01*
X11167667Y-6408238D01*
X11170048Y-6403476D01*
X11172429Y-6401095D01*
X11177190Y-6398714D01*
X11189095Y-6398714D01*
X11193857Y-6401095D01*
X11196238Y-6403476D01*
X11198619Y-6408238D01*
X11198619Y-6420143D01*
X11196238Y-6424905D01*
X11193857Y-6427286D01*
X11198619Y-3310333D02*
X11174810Y-3327000D01*
X11198619Y-3338905D02*
X11148619Y-3338905D01*
X11148619Y-3319857D01*
X11151000Y-3315095D01*
X11153381Y-3312714D01*
X11158143Y-3310333D01*
X11165286Y-3310333D01*
X11170048Y-3312714D01*
X11172429Y-3315095D01*
X11174810Y-3319857D01*
X11174810Y-3338905D01*
X11148619Y-3267476D02*
X11148619Y-3277000D01*
X11151000Y-3281762D01*
X11153381Y-3284143D01*
X11160524Y-3288905D01*
X11170048Y-3291286D01*
X11189095Y-3291286D01*
X11193857Y-3288905D01*
X11196238Y-3286524D01*
X11198619Y-3281762D01*
X11198619Y-3272238D01*
X11196238Y-3267476D01*
X11193857Y-3265095D01*
X11189095Y-3262714D01*
X11177190Y-3262714D01*
X11172429Y-3265095D01*
X11170048Y-3267476D01*
X11167667Y-3272238D01*
X11167667Y-3281762D01*
X11170048Y-3286524D01*
X11172429Y-3288905D01*
X11177190Y-3291286D01*
X11198619Y-4516833D02*
X11174810Y-4533500D01*
X11198619Y-4545405D02*
X11148619Y-4545405D01*
X11148619Y-4526357D01*
X11151000Y-4521595D01*
X11153381Y-4519214D01*
X11158143Y-4516833D01*
X11165286Y-4516833D01*
X11170048Y-4519214D01*
X11172429Y-4521595D01*
X11174810Y-4526357D01*
X11174810Y-4545405D01*
X11148619Y-4500167D02*
X11148619Y-4466833D01*
X11198619Y-4488262D01*
X11198619Y-5723333D02*
X11174810Y-5740000D01*
X11198619Y-5751905D02*
X11148619Y-5751905D01*
X11148619Y-5732857D01*
X11151000Y-5728095D01*
X11153381Y-5725714D01*
X11158143Y-5723333D01*
X11165286Y-5723333D01*
X11170048Y-5725714D01*
X11172429Y-5728095D01*
X11174810Y-5732857D01*
X11174810Y-5751905D01*
X11170048Y-5694762D02*
X11167667Y-5699524D01*
X11165286Y-5701905D01*
X11160524Y-5704286D01*
X11158143Y-5704286D01*
X11153381Y-5701905D01*
X11151000Y-5699524D01*
X11148619Y-5694762D01*
X11148619Y-5685238D01*
X11151000Y-5680476D01*
X11153381Y-5678095D01*
X11158143Y-5675714D01*
X11160524Y-5675714D01*
X11165286Y-5678095D01*
X11167667Y-5680476D01*
X11170048Y-5685238D01*
X11170048Y-5694762D01*
X11172429Y-5699524D01*
X11174810Y-5701905D01*
X11179571Y-5704286D01*
X11189095Y-5704286D01*
X11193857Y-5701905D01*
X11196238Y-5699524D01*
X11198619Y-5694762D01*
X11198619Y-5685238D01*
X11196238Y-5680476D01*
X11193857Y-5678095D01*
X11189095Y-5675714D01*
X11179571Y-5675714D01*
X11174810Y-5678095D01*
X11172429Y-5680476D01*
X11170048Y-5685238D01*
X11198619Y-6929833D02*
X11174810Y-6946500D01*
X11198619Y-6958405D02*
X11148619Y-6958405D01*
X11148619Y-6939357D01*
X11151000Y-6934595D01*
X11153381Y-6932214D01*
X11158143Y-6929833D01*
X11165286Y-6929833D01*
X11170048Y-6932214D01*
X11172429Y-6934595D01*
X11174810Y-6939357D01*
X11174810Y-6958405D01*
X11198619Y-6906024D02*
X11198619Y-6896500D01*
X11196238Y-6891738D01*
X11193857Y-6889357D01*
X11186714Y-6884595D01*
X11177190Y-6882214D01*
X11158143Y-6882214D01*
X11153381Y-6884595D01*
X11151000Y-6886976D01*
X11148619Y-6891738D01*
X11148619Y-6901262D01*
X11151000Y-6906024D01*
X11153381Y-6908405D01*
X11158143Y-6910786D01*
X11170048Y-6910786D01*
X11174810Y-6908405D01*
X11177190Y-6906024D01*
X11179571Y-6901262D01*
X11179571Y-6891738D01*
X11177190Y-6886976D01*
X11174810Y-6884595D01*
X11170048Y-6882214D01*
X7397357Y-6563119D02*
X7380690Y-6539309D01*
X7368786Y-6563119D02*
X7368786Y-6513119D01*
X7387833Y-6513119D01*
X7392595Y-6515500D01*
X7394976Y-6517881D01*
X7397357Y-6522643D01*
X7397357Y-6529786D01*
X7394976Y-6534548D01*
X7392595Y-6536928D01*
X7387833Y-6539309D01*
X7368786Y-6539309D01*
X7444976Y-6563119D02*
X7416405Y-6563119D01*
X7430690Y-6563119D02*
X7430690Y-6513119D01*
X7425928Y-6520262D01*
X7421167Y-6525024D01*
X7416405Y-6527405D01*
X7475928Y-6513119D02*
X7480690Y-6513119D01*
X7485452Y-6515500D01*
X7487833Y-6517881D01*
X7490214Y-6522643D01*
X7492595Y-6532167D01*
X7492595Y-6544071D01*
X7490214Y-6553595D01*
X7487833Y-6558357D01*
X7485452Y-6560738D01*
X7480690Y-6563119D01*
X7475928Y-6563119D01*
X7471167Y-6560738D01*
X7468786Y-6558357D01*
X7466405Y-6553595D01*
X7464024Y-6544071D01*
X7464024Y-6532167D01*
X7466405Y-6522643D01*
X7468786Y-6517881D01*
X7471167Y-6515500D01*
X7475928Y-6513119D01*
X8857857Y-6563119D02*
X8841190Y-6539309D01*
X8829286Y-6563119D02*
X8829286Y-6513119D01*
X8848333Y-6513119D01*
X8853095Y-6515500D01*
X8855476Y-6517881D01*
X8857857Y-6522643D01*
X8857857Y-6529786D01*
X8855476Y-6534548D01*
X8853095Y-6536928D01*
X8848333Y-6539309D01*
X8829286Y-6539309D01*
X8905476Y-6563119D02*
X8876905Y-6563119D01*
X8891190Y-6563119D02*
X8891190Y-6513119D01*
X8886429Y-6520262D01*
X8881667Y-6525024D01*
X8876905Y-6527405D01*
X8953095Y-6563119D02*
X8924524Y-6563119D01*
X8938810Y-6563119D02*
X8938810Y-6513119D01*
X8934048Y-6520262D01*
X8929286Y-6525024D01*
X8924524Y-6527405D01*
X10318357Y-6626619D02*
X10301690Y-6602809D01*
X10289786Y-6626619D02*
X10289786Y-6576619D01*
X10308833Y-6576619D01*
X10313595Y-6579000D01*
X10315976Y-6581381D01*
X10318357Y-6586143D01*
X10318357Y-6593286D01*
X10315976Y-6598048D01*
X10313595Y-6600428D01*
X10308833Y-6602809D01*
X10289786Y-6602809D01*
X10365976Y-6626619D02*
X10337405Y-6626619D01*
X10351690Y-6626619D02*
X10351690Y-6576619D01*
X10346929Y-6583762D01*
X10342167Y-6588524D01*
X10337405Y-6590905D01*
X10385024Y-6581381D02*
X10387405Y-6579000D01*
X10392167Y-6576619D01*
X10404071Y-6576619D01*
X10408833Y-6579000D01*
X10411214Y-6581381D01*
X10413595Y-6586143D01*
X10413595Y-6590905D01*
X10411214Y-6598048D01*
X10382643Y-6626619D01*
X10413595Y-6626619D01*
X2445257Y-2651519D02*
X2428590Y-2627710D01*
X2416686Y-2651519D02*
X2416686Y-2601519D01*
X2435733Y-2601519D01*
X2440495Y-2603900D01*
X2442876Y-2606281D01*
X2445257Y-2611043D01*
X2445257Y-2618186D01*
X2442876Y-2622948D01*
X2440495Y-2625329D01*
X2435733Y-2627710D01*
X2416686Y-2627710D01*
X2492876Y-2651519D02*
X2464305Y-2651519D01*
X2478590Y-2651519D02*
X2478590Y-2601519D01*
X2473829Y-2608662D01*
X2469067Y-2613424D01*
X2464305Y-2615805D01*
X2538114Y-2601519D02*
X2514305Y-2601519D01*
X2511924Y-2625329D01*
X2514305Y-2622948D01*
X2519067Y-2620567D01*
X2530971Y-2620567D01*
X2535733Y-2622948D01*
X2538114Y-2625329D01*
X2540495Y-2630090D01*
X2540495Y-2641995D01*
X2538114Y-2646757D01*
X2535733Y-2649138D01*
X2530971Y-2651519D01*
X2519067Y-2651519D01*
X2514305Y-2649138D01*
X2511924Y-2646757D01*
X2842019Y-3219843D02*
X2818209Y-3236509D01*
X2842019Y-3248414D02*
X2792019Y-3248414D01*
X2792019Y-3229367D01*
X2794400Y-3224605D01*
X2796781Y-3222224D01*
X2801543Y-3219843D01*
X2808686Y-3219843D01*
X2813448Y-3222224D01*
X2815828Y-3224605D01*
X2818209Y-3229367D01*
X2818209Y-3248414D01*
X2842019Y-3172224D02*
X2842019Y-3200795D01*
X2842019Y-3186509D02*
X2792019Y-3186509D01*
X2799162Y-3191271D01*
X2803924Y-3196033D01*
X2806305Y-3200795D01*
X2792019Y-3129367D02*
X2792019Y-3138890D01*
X2794400Y-3143652D01*
X2796781Y-3146033D01*
X2803924Y-3150795D01*
X2813448Y-3153176D01*
X2832495Y-3153176D01*
X2837257Y-3150795D01*
X2839638Y-3148414D01*
X2842019Y-3143652D01*
X2842019Y-3134128D01*
X2839638Y-3129367D01*
X2837257Y-3126986D01*
X2832495Y-3124605D01*
X2820590Y-3124605D01*
X2815828Y-3126986D01*
X2813448Y-3129367D01*
X2811067Y-3134128D01*
X2811067Y-3143652D01*
X2813448Y-3148414D01*
X2815828Y-3150795D01*
X2820590Y-3153176D01*
X2444357Y-3337319D02*
X2427690Y-3313509D01*
X2415786Y-3337319D02*
X2415786Y-3287319D01*
X2434833Y-3287319D01*
X2439595Y-3289700D01*
X2441976Y-3292081D01*
X2444357Y-3296843D01*
X2444357Y-3303986D01*
X2441976Y-3308748D01*
X2439595Y-3311128D01*
X2434833Y-3313509D01*
X2415786Y-3313509D01*
X2491976Y-3337319D02*
X2463405Y-3337319D01*
X2477690Y-3337319D02*
X2477690Y-3287319D01*
X2472929Y-3294462D01*
X2468167Y-3299224D01*
X2463405Y-3301605D01*
X2508643Y-3287319D02*
X2541976Y-3287319D01*
X2520548Y-3337319D01*
X2232419Y-6128143D02*
X2208610Y-6144809D01*
X2232419Y-6156714D02*
X2182419Y-6156714D01*
X2182419Y-6137667D01*
X2184800Y-6132905D01*
X2187181Y-6130524D01*
X2191943Y-6128143D01*
X2199086Y-6128143D01*
X2203848Y-6130524D01*
X2206229Y-6132905D01*
X2208610Y-6137667D01*
X2208610Y-6156714D01*
X2199086Y-6085286D02*
X2232419Y-6085286D01*
X2180038Y-6097190D02*
X2215752Y-6109095D01*
X2215752Y-6078143D01*
X2232419Y-6032905D02*
X2232419Y-6061476D01*
X2232419Y-6047190D02*
X2182419Y-6047190D01*
X2189562Y-6051952D01*
X2194324Y-6056714D01*
X2196705Y-6061476D01*
X3400819Y-6534543D02*
X3377009Y-6551209D01*
X3400819Y-6563114D02*
X3350819Y-6563114D01*
X3350819Y-6544067D01*
X3353200Y-6539305D01*
X3355581Y-6536924D01*
X3360343Y-6534543D01*
X3367486Y-6534543D01*
X3372248Y-6536924D01*
X3374628Y-6539305D01*
X3377009Y-6544067D01*
X3377009Y-6563114D01*
X3367486Y-6491686D02*
X3400819Y-6491686D01*
X3348438Y-6503590D02*
X3384152Y-6515495D01*
X3384152Y-6484543D01*
X3355581Y-6467876D02*
X3353200Y-6465495D01*
X3350819Y-6460733D01*
X3350819Y-6448828D01*
X3353200Y-6444067D01*
X3355581Y-6441686D01*
X3360343Y-6439305D01*
X3365105Y-6439305D01*
X3372248Y-6441686D01*
X3400819Y-6470257D01*
X3400819Y-6439305D01*
X6397633Y-3467438D02*
X6404776Y-3469819D01*
X6416681Y-3469819D01*
X6421443Y-3467438D01*
X6423824Y-3465057D01*
X6426205Y-3460295D01*
X6426205Y-3455533D01*
X6423824Y-3450771D01*
X6421443Y-3448390D01*
X6416681Y-3446009D01*
X6407157Y-3443628D01*
X6402395Y-3441248D01*
X6400014Y-3438867D01*
X6397633Y-3434105D01*
X6397633Y-3429343D01*
X6400014Y-3424581D01*
X6402395Y-3422200D01*
X6407157Y-3419819D01*
X6419062Y-3419819D01*
X6426205Y-3422200D01*
X6442871Y-3419819D02*
X6454776Y-3469819D01*
X6464300Y-3434105D01*
X6473824Y-3469819D01*
X6485728Y-3419819D01*
X6502395Y-3424581D02*
X6504776Y-3422200D01*
X6509538Y-3419819D01*
X6521443Y-3419819D01*
X6526205Y-3422200D01*
X6528586Y-3424581D01*
X6530967Y-3429343D01*
X6530967Y-3434105D01*
X6528586Y-3441248D01*
X6500014Y-3469819D01*
X6530967Y-3469819D01*
X6756405Y-6322619D02*
X6756405Y-6363095D01*
X6758786Y-6367857D01*
X6761167Y-6370238D01*
X6765928Y-6372619D01*
X6775452Y-6372619D01*
X6780214Y-6370238D01*
X6782595Y-6367857D01*
X6784976Y-6363095D01*
X6784976Y-6322619D01*
X6806405Y-6327381D02*
X6808786Y-6325000D01*
X6813548Y-6322619D01*
X6825452Y-6322619D01*
X6830214Y-6325000D01*
X6832595Y-6327381D01*
X6834976Y-6332143D01*
X6834976Y-6336905D01*
X6832595Y-6344048D01*
X6804024Y-6372619D01*
X6834976Y-6372619D01*
X8216905Y-6322619D02*
X8216905Y-6363095D01*
X8219286Y-6367857D01*
X8221667Y-6370238D01*
X8226428Y-6372619D01*
X8235952Y-6372619D01*
X8240714Y-6370238D01*
X8243095Y-6367857D01*
X8245476Y-6363095D01*
X8245476Y-6322619D01*
X8264524Y-6322619D02*
X8295476Y-6322619D01*
X8278809Y-6341667D01*
X8285952Y-6341667D01*
X8290714Y-6344048D01*
X8293095Y-6346428D01*
X8295476Y-6351190D01*
X8295476Y-6363095D01*
X8293095Y-6367857D01*
X8290714Y-6370238D01*
X8285952Y-6372619D01*
X8271667Y-6372619D01*
X8266905Y-6370238D01*
X8264524Y-6367857D01*
X9677405Y-6322619D02*
X9677405Y-6363095D01*
X9679786Y-6367857D01*
X9682167Y-6370238D01*
X9686929Y-6372619D01*
X9696452Y-6372619D01*
X9701214Y-6370238D01*
X9703595Y-6367857D01*
X9705976Y-6363095D01*
X9705976Y-6322619D01*
X9751214Y-6339286D02*
X9751214Y-6372619D01*
X9739310Y-6320238D02*
X9727405Y-6355952D01*
X9758357Y-6355952D01*
X3414319Y-3009895D02*
X3454795Y-3009895D01*
X3459557Y-3007514D01*
X3461938Y-3005133D01*
X3464319Y-3000371D01*
X3464319Y-2990848D01*
X3461938Y-2986086D01*
X3459557Y-2983705D01*
X3454795Y-2981324D01*
X3414319Y-2981324D01*
X3414319Y-2933705D02*
X3414319Y-2957514D01*
X3438128Y-2959895D01*
X3435748Y-2957514D01*
X3433367Y-2952752D01*
X3433367Y-2940848D01*
X3435748Y-2936086D01*
X3438128Y-2933705D01*
X3442890Y-2931324D01*
X3454795Y-2931324D01*
X3459557Y-2933705D01*
X3461938Y-2936086D01*
X3464319Y-2940848D01*
X3464319Y-2952752D01*
X3461938Y-2957514D01*
X3459557Y-2959895D01*
X1778005Y-3096819D02*
X1778005Y-3137295D01*
X1780386Y-3142057D01*
X1782767Y-3144438D01*
X1787528Y-3146819D01*
X1797052Y-3146819D01*
X1801814Y-3144438D01*
X1804195Y-3142057D01*
X1806576Y-3137295D01*
X1806576Y-3096819D01*
X1825624Y-3096819D02*
X1858957Y-3096819D01*
X1837528Y-3146819D01*
X1750619Y-5499095D02*
X1791095Y-5499095D01*
X1795857Y-5496714D01*
X1798238Y-5494333D01*
X1800619Y-5489571D01*
X1800619Y-5480048D01*
X1798238Y-5475286D01*
X1795857Y-5472905D01*
X1791095Y-5470524D01*
X1750619Y-5470524D01*
X1772048Y-5439571D02*
X1769667Y-5444333D01*
X1767286Y-5446714D01*
X1762524Y-5449095D01*
X1760143Y-5449095D01*
X1755381Y-5446714D01*
X1753000Y-5444333D01*
X1750619Y-5439571D01*
X1750619Y-5430048D01*
X1753000Y-5425286D01*
X1755381Y-5422905D01*
X1760143Y-5420524D01*
X1762524Y-5420524D01*
X1767286Y-5422905D01*
X1769667Y-5425286D01*
X1772048Y-5430048D01*
X1772048Y-5439571D01*
X1774428Y-5444333D01*
X1776809Y-5446714D01*
X1781571Y-5449095D01*
X1791095Y-5449095D01*
X1795857Y-5446714D01*
X1798238Y-5444333D01*
X1800619Y-5439571D01*
X1800619Y-5430048D01*
X1798238Y-5425286D01*
X1795857Y-5422905D01*
X1791095Y-5420524D01*
X1781571Y-5420524D01*
X1776809Y-5422905D01*
X1774428Y-5425286D01*
X1772048Y-5430048D01*
X6989324Y-7303819D02*
X6989324Y-7339533D01*
X6986943Y-7346676D01*
X6982181Y-7351438D01*
X6975038Y-7353819D01*
X6970276Y-7353819D01*
X7039324Y-7353819D02*
X7010752Y-7353819D01*
X7025038Y-7353819D02*
X7025038Y-7303819D01*
X7020276Y-7310962D01*
X7015514Y-7315724D01*
X7010752Y-7318105D01*
X7084562Y-7303819D02*
X7060752Y-7303819D01*
X7058371Y-7327628D01*
X7060752Y-7325248D01*
X7065514Y-7322867D01*
X7077419Y-7322867D01*
X7082181Y-7325248D01*
X7084562Y-7327628D01*
X7086943Y-7332390D01*
X7086943Y-7344295D01*
X7084562Y-7349057D01*
X7082181Y-7351438D01*
X7077419Y-7353819D01*
X7065514Y-7353819D01*
X7060752Y-7351438D01*
X7058371Y-7349057D01*
X8437124Y-7303819D02*
X8437124Y-7339533D01*
X8434743Y-7346676D01*
X8429981Y-7351438D01*
X8422838Y-7353819D01*
X8418076Y-7353819D01*
X8487124Y-7353819D02*
X8458552Y-7353819D01*
X8472838Y-7353819D02*
X8472838Y-7303819D01*
X8468076Y-7310962D01*
X8463314Y-7315724D01*
X8458552Y-7318105D01*
X8529981Y-7303819D02*
X8520457Y-7303819D01*
X8515695Y-7306200D01*
X8513314Y-7308581D01*
X8508552Y-7315724D01*
X8506171Y-7325248D01*
X8506171Y-7344295D01*
X8508552Y-7349057D01*
X8510933Y-7351438D01*
X8515695Y-7353819D01*
X8525219Y-7353819D01*
X8529981Y-7351438D01*
X8532362Y-7349057D01*
X8534743Y-7344295D01*
X8534743Y-7332390D01*
X8532362Y-7327628D01*
X8529981Y-7325248D01*
X8525219Y-7322867D01*
X8515695Y-7322867D01*
X8510933Y-7325248D01*
X8508552Y-7327628D01*
X8506171Y-7332390D01*
X9897624Y-7303819D02*
X9897624Y-7339533D01*
X9895243Y-7346676D01*
X9890481Y-7351438D01*
X9883338Y-7353819D01*
X9878576Y-7353819D01*
X9947624Y-7353819D02*
X9919052Y-7353819D01*
X9933338Y-7353819D02*
X9933338Y-7303819D01*
X9928576Y-7310962D01*
X9923814Y-7315724D01*
X9919052Y-7318105D01*
X9964290Y-7303819D02*
X9997624Y-7303819D01*
X9976195Y-7353819D01*
X7736333Y-210619D02*
X7736333Y-246333D01*
X7733952Y-253476D01*
X7729190Y-258238D01*
X7722048Y-260619D01*
X7717286Y-260619D01*
X7786333Y-260619D02*
X7757762Y-260619D01*
X7772048Y-260619D02*
X7772048Y-210619D01*
X7767286Y-217762D01*
X7762524Y-222524D01*
X7757762Y-224905D01*
X12054333Y-210619D02*
X12054333Y-246333D01*
X12051952Y-253476D01*
X12047190Y-258238D01*
X12040048Y-260619D01*
X12035286Y-260619D01*
X12075762Y-215381D02*
X12078143Y-213000D01*
X12082905Y-210619D01*
X12094809Y-210619D01*
X12099571Y-213000D01*
X12101952Y-215381D01*
X12104333Y-220143D01*
X12104333Y-224905D01*
X12101952Y-232048D01*
X12073381Y-260619D01*
X12104333Y-260619D01*
X1513333Y-210619D02*
X1513333Y-246333D01*
X1510952Y-253476D01*
X1506190Y-258238D01*
X1499048Y-260619D01*
X1494286Y-260619D01*
X1532381Y-210619D02*
X1563333Y-210619D01*
X1546667Y-229667D01*
X1553809Y-229667D01*
X1558571Y-232048D01*
X1560952Y-234428D01*
X1563333Y-239190D01*
X1563333Y-251095D01*
X1560952Y-255857D01*
X1558571Y-258238D01*
X1553809Y-260619D01*
X1539524Y-260619D01*
X1534762Y-258238D01*
X1532381Y-255857D01*
X3418333Y-210619D02*
X3418333Y-246333D01*
X3415952Y-253476D01*
X3411190Y-258238D01*
X3404048Y-260619D01*
X3399286Y-260619D01*
X3463571Y-227286D02*
X3463571Y-260619D01*
X3451667Y-208238D02*
X3439762Y-243952D01*
X3470714Y-243952D01*
X4462433Y-7303819D02*
X4462433Y-7339533D01*
X4460052Y-7346676D01*
X4455290Y-7351438D01*
X4448148Y-7353819D01*
X4443386Y-7353819D01*
X4507671Y-7303819D02*
X4498148Y-7303819D01*
X4493386Y-7306200D01*
X4491005Y-7308581D01*
X4486243Y-7315724D01*
X4483862Y-7325248D01*
X4483862Y-7344295D01*
X4486243Y-7349057D01*
X4488624Y-7351438D01*
X4493386Y-7353819D01*
X4502910Y-7353819D01*
X4507671Y-7351438D01*
X4510052Y-7349057D01*
X4512433Y-7344295D01*
X4512433Y-7332390D01*
X4510052Y-7327628D01*
X4507671Y-7325248D01*
X4502910Y-7322867D01*
X4493386Y-7322867D01*
X4488624Y-7325248D01*
X4486243Y-7327628D01*
X4483862Y-7332390D01*
X4462433Y-6503719D02*
X4462433Y-6539433D01*
X4460052Y-6546576D01*
X4455290Y-6551338D01*
X4448148Y-6553719D01*
X4443386Y-6553719D01*
X4481481Y-6503719D02*
X4514814Y-6503719D01*
X4493386Y-6553719D01*
X13641119Y-3066667D02*
X13676833Y-3066667D01*
X13683976Y-3069048D01*
X13688738Y-3073809D01*
X13691119Y-3080952D01*
X13691119Y-3085714D01*
X13662548Y-3035714D02*
X13660167Y-3040476D01*
X13657786Y-3042857D01*
X13653024Y-3045238D01*
X13650643Y-3045238D01*
X13645881Y-3042857D01*
X13643500Y-3040476D01*
X13641119Y-3035714D01*
X13641119Y-3026190D01*
X13643500Y-3021428D01*
X13645881Y-3019048D01*
X13650643Y-3016667D01*
X13653024Y-3016667D01*
X13657786Y-3019048D01*
X13660167Y-3021428D01*
X13662548Y-3026190D01*
X13662548Y-3035714D01*
X13664928Y-3040476D01*
X13667309Y-3042857D01*
X13672071Y-3045238D01*
X13681595Y-3045238D01*
X13686357Y-3042857D01*
X13688738Y-3040476D01*
X13691119Y-3035714D01*
X13691119Y-3026190D01*
X13688738Y-3021428D01*
X13686357Y-3019048D01*
X13681595Y-3016667D01*
X13672071Y-3016667D01*
X13667309Y-3019048D01*
X13664928Y-3021428D01*
X13662548Y-3026190D01*
X13641119Y-4082667D02*
X13676833Y-4082667D01*
X13683976Y-4085048D01*
X13688738Y-4089809D01*
X13691119Y-4096952D01*
X13691119Y-4101714D01*
X13691119Y-4056476D02*
X13691119Y-4046952D01*
X13688738Y-4042190D01*
X13686357Y-4039809D01*
X13679214Y-4035048D01*
X13669690Y-4032667D01*
X13650643Y-4032667D01*
X13645881Y-4035048D01*
X13643500Y-4037428D01*
X13641119Y-4042190D01*
X13641119Y-4051714D01*
X13643500Y-4056476D01*
X13645881Y-4058857D01*
X13650643Y-4061238D01*
X13662548Y-4061238D01*
X13667309Y-4058857D01*
X13669690Y-4056476D01*
X13672071Y-4051714D01*
X13672071Y-4042190D01*
X13669690Y-4037428D01*
X13667309Y-4035048D01*
X13662548Y-4032667D01*
X13645119Y-5122476D02*
X13680833Y-5122476D01*
X13687976Y-5124857D01*
X13692738Y-5129619D01*
X13695119Y-5136762D01*
X13695119Y-5141524D01*
X13695119Y-5072476D02*
X13695119Y-5101048D01*
X13695119Y-5086762D02*
X13645119Y-5086762D01*
X13652262Y-5091524D01*
X13657024Y-5096286D01*
X13659405Y-5101048D01*
X13645119Y-5041524D02*
X13645119Y-5036762D01*
X13647500Y-5032000D01*
X13649881Y-5029619D01*
X13654643Y-5027238D01*
X13664167Y-5024857D01*
X13676071Y-5024857D01*
X13685595Y-5027238D01*
X13690357Y-5029619D01*
X13692738Y-5032000D01*
X13695119Y-5036762D01*
X13695119Y-5041524D01*
X13692738Y-5046286D01*
X13690357Y-5048667D01*
X13685595Y-5051048D01*
X13676071Y-5053429D01*
X13664167Y-5053429D01*
X13654643Y-5051048D01*
X13649881Y-5048667D01*
X13647500Y-5046286D01*
X13645119Y-5041524D01*
X13641119Y-6138476D02*
X13676833Y-6138476D01*
X13683976Y-6140857D01*
X13688738Y-6145619D01*
X13691119Y-6152762D01*
X13691119Y-6157524D01*
X13691119Y-6088476D02*
X13691119Y-6117048D01*
X13691119Y-6102762D02*
X13641119Y-6102762D01*
X13648262Y-6107524D01*
X13653024Y-6112286D01*
X13655405Y-6117048D01*
X13691119Y-6040857D02*
X13691119Y-6069428D01*
X13691119Y-6055143D02*
X13641119Y-6055143D01*
X13648262Y-6059905D01*
X13653024Y-6064667D01*
X13655405Y-6069428D01*
X5645124Y-7303819D02*
X5645124Y-7339533D01*
X5642743Y-7346676D01*
X5637981Y-7351438D01*
X5630838Y-7353819D01*
X5626076Y-7353819D01*
X5695124Y-7353819D02*
X5666552Y-7353819D01*
X5680838Y-7353819D02*
X5680838Y-7303819D01*
X5676076Y-7310962D01*
X5671314Y-7315724D01*
X5666552Y-7318105D01*
X5714171Y-7308581D02*
X5716552Y-7306200D01*
X5721314Y-7303819D01*
X5733219Y-7303819D01*
X5737981Y-7306200D01*
X5740362Y-7308581D01*
X5742743Y-7313343D01*
X5742743Y-7318105D01*
X5740362Y-7325248D01*
X5711790Y-7353819D01*
X5742743Y-7353819D01*
X5645124Y-6503719D02*
X5645124Y-6539433D01*
X5642743Y-6546576D01*
X5637981Y-6551338D01*
X5630838Y-6553719D01*
X5626076Y-6553719D01*
X5695124Y-6553719D02*
X5666552Y-6553719D01*
X5680838Y-6553719D02*
X5680838Y-6503719D01*
X5676076Y-6510862D01*
X5671314Y-6515624D01*
X5666552Y-6518005D01*
X5711790Y-6503719D02*
X5742743Y-6503719D01*
X5726076Y-6522767D01*
X5733219Y-6522767D01*
X5737981Y-6525148D01*
X5740362Y-6527528D01*
X5742743Y-6532290D01*
X5742743Y-6544195D01*
X5740362Y-6548957D01*
X5737981Y-6551338D01*
X5733219Y-6553719D01*
X5718933Y-6553719D01*
X5714171Y-6551338D01*
X5711790Y-6548957D01*
X8599219Y-4210076D02*
X8634933Y-4210076D01*
X8642076Y-4212457D01*
X8646838Y-4217219D01*
X8649219Y-4224362D01*
X8649219Y-4229124D01*
X8649219Y-4160076D02*
X8649219Y-4188648D01*
X8649219Y-4174362D02*
X8599219Y-4174362D01*
X8606362Y-4179124D01*
X8611124Y-4183886D01*
X8613505Y-4188648D01*
X8620648Y-4131505D02*
X8618267Y-4136267D01*
X8615886Y-4138648D01*
X8611124Y-4141028D01*
X8608743Y-4141028D01*
X8603981Y-4138648D01*
X8601600Y-4136267D01*
X8599219Y-4131505D01*
X8599219Y-4121981D01*
X8601600Y-4117219D01*
X8603981Y-4114838D01*
X8608743Y-4112457D01*
X8611124Y-4112457D01*
X8615886Y-4114838D01*
X8618267Y-4117219D01*
X8620648Y-4121981D01*
X8620648Y-4131505D01*
X8623029Y-4136267D01*
X8625410Y-4138648D01*
X8630171Y-4141028D01*
X8639695Y-4141028D01*
X8644457Y-4138648D01*
X8646838Y-4136267D01*
X8649219Y-4131505D01*
X8649219Y-4121981D01*
X8646838Y-4117219D01*
X8644457Y-4114838D01*
X8639695Y-4112457D01*
X8630171Y-4112457D01*
X8625410Y-4114838D01*
X8623029Y-4117219D01*
X8620648Y-4121981D01*
X9373919Y-4210076D02*
X9409633Y-4210076D01*
X9416776Y-4212457D01*
X9421538Y-4217219D01*
X9423919Y-4224362D01*
X9423919Y-4229124D01*
X9423919Y-4160076D02*
X9423919Y-4188648D01*
X9423919Y-4174362D02*
X9373919Y-4174362D01*
X9381062Y-4179124D01*
X9385824Y-4183886D01*
X9388205Y-4188648D01*
X9423919Y-4136267D02*
X9423919Y-4126743D01*
X9421538Y-4121981D01*
X9419157Y-4119600D01*
X9412014Y-4114838D01*
X9402490Y-4112457D01*
X9383443Y-4112457D01*
X9378681Y-4114838D01*
X9376300Y-4117219D01*
X9373919Y-4121981D01*
X9373919Y-4131505D01*
X9376300Y-4136267D01*
X9378681Y-4138648D01*
X9383443Y-4141028D01*
X9395348Y-4141028D01*
X9400110Y-4138648D01*
X9402490Y-4136267D01*
X9404871Y-4131505D01*
X9404871Y-4121981D01*
X9402490Y-4117219D01*
X9400110Y-4114838D01*
X9395348Y-4112457D01*
X8599219Y-5378476D02*
X8634933Y-5378476D01*
X8642076Y-5380857D01*
X8646838Y-5385619D01*
X8649219Y-5392762D01*
X8649219Y-5397524D01*
X8603981Y-5357048D02*
X8601600Y-5354667D01*
X8599219Y-5349905D01*
X8599219Y-5338000D01*
X8601600Y-5333238D01*
X8603981Y-5330857D01*
X8608743Y-5328476D01*
X8613505Y-5328476D01*
X8620648Y-5330857D01*
X8649219Y-5359429D01*
X8649219Y-5328476D01*
X8599219Y-5297524D02*
X8599219Y-5292762D01*
X8601600Y-5288000D01*
X8603981Y-5285619D01*
X8608743Y-5283238D01*
X8618267Y-5280857D01*
X8630171Y-5280857D01*
X8639695Y-5283238D01*
X8644457Y-5285619D01*
X8646838Y-5288000D01*
X8649219Y-5292762D01*
X8649219Y-5297524D01*
X8646838Y-5302286D01*
X8644457Y-5304667D01*
X8639695Y-5307048D01*
X8630171Y-5309429D01*
X8618267Y-5309429D01*
X8608743Y-5307048D01*
X8603981Y-5304667D01*
X8601600Y-5302286D01*
X8599219Y-5297524D01*
X5553524Y-210619D02*
X5553524Y-246333D01*
X5551143Y-253476D01*
X5546381Y-258238D01*
X5539238Y-260619D01*
X5534476Y-260619D01*
X5572571Y-210619D02*
X5603524Y-210619D01*
X5586857Y-229667D01*
X5594000Y-229667D01*
X5598762Y-232048D01*
X5601143Y-234428D01*
X5603524Y-239190D01*
X5603524Y-251095D01*
X5601143Y-255857D01*
X5598762Y-258238D01*
X5594000Y-260619D01*
X5579714Y-260619D01*
X5574952Y-258238D01*
X5572571Y-255857D01*
X5620190Y-210619D02*
X5653524Y-210619D01*
X5632095Y-260619D01*
X9871524Y-210619D02*
X9871524Y-246333D01*
X9869143Y-253476D01*
X9864381Y-258238D01*
X9857238Y-260619D01*
X9852476Y-260619D01*
X9890571Y-210619D02*
X9921524Y-210619D01*
X9904857Y-229667D01*
X9912000Y-229667D01*
X9916762Y-232048D01*
X9919143Y-234428D01*
X9921524Y-239190D01*
X9921524Y-251095D01*
X9919143Y-255857D01*
X9916762Y-258238D01*
X9912000Y-260619D01*
X9897714Y-260619D01*
X9892952Y-258238D01*
X9890571Y-255857D01*
X9950095Y-232048D02*
X9945333Y-229667D01*
X9942952Y-227286D01*
X9940571Y-222524D01*
X9940571Y-220143D01*
X9942952Y-215381D01*
X9945333Y-213000D01*
X9950095Y-210619D01*
X9959619Y-210619D01*
X9964381Y-213000D01*
X9966762Y-215381D01*
X9969143Y-220143D01*
X9969143Y-222524D01*
X9966762Y-227286D01*
X9964381Y-229667D01*
X9959619Y-232048D01*
X9950095Y-232048D01*
X9945333Y-234428D01*
X9942952Y-236809D01*
X9940571Y-241571D01*
X9940571Y-251095D01*
X9942952Y-255857D01*
X9945333Y-258238D01*
X9950095Y-260619D01*
X9959619Y-260619D01*
X9964381Y-258238D01*
X9966762Y-255857D01*
X9969143Y-251095D01*
X9969143Y-241571D01*
X9966762Y-236809D01*
X9964381Y-234428D01*
X9959619Y-232048D01*
X13780819Y-1583176D02*
X13816533Y-1583176D01*
X13823676Y-1585557D01*
X13828438Y-1590319D01*
X13830819Y-1597462D01*
X13830819Y-1602224D01*
X13797486Y-1537938D02*
X13830819Y-1537938D01*
X13778438Y-1549843D02*
X13814152Y-1561748D01*
X13814152Y-1530795D01*
X13802248Y-1504605D02*
X13799867Y-1509367D01*
X13797486Y-1511748D01*
X13792724Y-1514128D01*
X13790343Y-1514128D01*
X13785581Y-1511748D01*
X13783200Y-1509367D01*
X13780819Y-1504605D01*
X13780819Y-1495081D01*
X13783200Y-1490319D01*
X13785581Y-1487938D01*
X13790343Y-1485557D01*
X13792724Y-1485557D01*
X13797486Y-1487938D01*
X13799867Y-1490319D01*
X13802248Y-1495081D01*
X13802248Y-1504605D01*
X13804628Y-1509367D01*
X13807009Y-1511748D01*
X13811771Y-1514128D01*
X13821295Y-1514128D01*
X13826057Y-1511748D01*
X13828438Y-1509367D01*
X13830819Y-1504605D01*
X13830819Y-1495081D01*
X13828438Y-1490319D01*
X13826057Y-1487938D01*
X13821295Y-1485557D01*
X13811771Y-1485557D01*
X13807009Y-1487938D01*
X13804628Y-1490319D01*
X13802248Y-1495081D01*
X7811819Y-5378476D02*
X7847533Y-5378476D01*
X7854676Y-5380857D01*
X7859438Y-5385619D01*
X7861819Y-5392762D01*
X7861819Y-5397524D01*
X7811819Y-5333238D02*
X7811819Y-5342762D01*
X7814200Y-5347524D01*
X7816581Y-5349905D01*
X7823724Y-5354667D01*
X7833248Y-5357048D01*
X7852295Y-5357048D01*
X7857057Y-5354667D01*
X7859438Y-5352286D01*
X7861819Y-5347524D01*
X7861819Y-5338000D01*
X7859438Y-5333238D01*
X7857057Y-5330857D01*
X7852295Y-5328476D01*
X7840390Y-5328476D01*
X7835628Y-5330857D01*
X7833248Y-5333238D01*
X7830867Y-5338000D01*
X7830867Y-5347524D01*
X7833248Y-5352286D01*
X7835628Y-5354667D01*
X7840390Y-5357048D01*
X7811819Y-5297524D02*
X7811819Y-5292762D01*
X7814200Y-5288000D01*
X7816581Y-5285619D01*
X7821343Y-5283238D01*
X7830867Y-5280857D01*
X7842771Y-5280857D01*
X7852295Y-5283238D01*
X7857057Y-5285619D01*
X7859438Y-5288000D01*
X7861819Y-5292762D01*
X7861819Y-5297524D01*
X7859438Y-5302286D01*
X7857057Y-5304667D01*
X7852295Y-5307048D01*
X7842771Y-5309429D01*
X7830867Y-5309429D01*
X7821343Y-5307048D01*
X7816581Y-5304667D01*
X7814200Y-5302286D01*
X7811819Y-5297524D01*
X9377919Y-5378476D02*
X9413633Y-5378476D01*
X9420776Y-5380857D01*
X9425538Y-5385619D01*
X9427919Y-5392762D01*
X9427919Y-5397524D01*
X9377919Y-5333238D02*
X9377919Y-5342762D01*
X9380300Y-5347524D01*
X9382681Y-5349905D01*
X9389824Y-5354667D01*
X9399348Y-5357048D01*
X9418395Y-5357048D01*
X9423157Y-5354667D01*
X9425538Y-5352286D01*
X9427919Y-5347524D01*
X9427919Y-5338000D01*
X9425538Y-5333238D01*
X9423157Y-5330857D01*
X9418395Y-5328476D01*
X9406490Y-5328476D01*
X9401729Y-5330857D01*
X9399348Y-5333238D01*
X9396967Y-5338000D01*
X9396967Y-5347524D01*
X9399348Y-5352286D01*
X9401729Y-5354667D01*
X9406490Y-5357048D01*
X9427919Y-5280857D02*
X9427919Y-5309429D01*
X9427919Y-5295143D02*
X9377919Y-5295143D01*
X9385062Y-5299905D01*
X9389824Y-5304667D01*
X9392205Y-5309429D01*
X7811819Y-4210076D02*
X7847533Y-4210076D01*
X7854676Y-4212457D01*
X7859438Y-4217219D01*
X7861819Y-4224362D01*
X7861819Y-4229124D01*
X7811819Y-4164838D02*
X7811819Y-4174362D01*
X7814200Y-4179124D01*
X7816581Y-4181505D01*
X7823724Y-4186267D01*
X7833248Y-4188648D01*
X7852295Y-4188648D01*
X7857057Y-4186267D01*
X7859438Y-4183886D01*
X7861819Y-4179124D01*
X7861819Y-4169600D01*
X7859438Y-4164838D01*
X7857057Y-4162457D01*
X7852295Y-4160076D01*
X7840390Y-4160076D01*
X7835628Y-4162457D01*
X7833248Y-4164838D01*
X7830867Y-4169600D01*
X7830867Y-4179124D01*
X7833248Y-4183886D01*
X7835628Y-4186267D01*
X7840390Y-4188648D01*
X7816581Y-4141028D02*
X7814200Y-4138648D01*
X7811819Y-4133886D01*
X7811819Y-4121981D01*
X7814200Y-4117219D01*
X7816581Y-4114838D01*
X7821343Y-4112457D01*
X7826105Y-4112457D01*
X7833248Y-4114838D01*
X7861819Y-4143409D01*
X7861819Y-4112457D01*
X7791424Y-3404919D02*
X7791424Y-3440633D01*
X7789043Y-3447776D01*
X7784281Y-3452538D01*
X7777138Y-3454919D01*
X7772376Y-3454919D01*
X7836662Y-3404919D02*
X7827138Y-3404919D01*
X7822376Y-3407300D01*
X7819995Y-3409681D01*
X7815233Y-3416824D01*
X7812852Y-3426348D01*
X7812852Y-3445395D01*
X7815233Y-3450157D01*
X7817614Y-3452538D01*
X7822376Y-3454919D01*
X7831900Y-3454919D01*
X7836662Y-3452538D01*
X7839043Y-3450157D01*
X7841424Y-3445395D01*
X7841424Y-3433490D01*
X7839043Y-3428728D01*
X7836662Y-3426348D01*
X7831900Y-3423967D01*
X7822376Y-3423967D01*
X7817614Y-3426348D01*
X7815233Y-3428728D01*
X7812852Y-3433490D01*
X7886662Y-3404919D02*
X7862852Y-3404919D01*
X7860471Y-3428728D01*
X7862852Y-3426348D01*
X7867614Y-3423967D01*
X7879519Y-3423967D01*
X7884281Y-3426348D01*
X7886662Y-3428728D01*
X7889043Y-3433490D01*
X7889043Y-3445395D01*
X7886662Y-3450157D01*
X7884281Y-3452538D01*
X7879519Y-3454919D01*
X7867614Y-3454919D01*
X7862852Y-3452538D01*
X7860471Y-3450157D01*
X8934424Y-3404919D02*
X8934424Y-3440633D01*
X8932043Y-3447776D01*
X8927281Y-3452538D01*
X8920138Y-3454919D01*
X8915376Y-3454919D01*
X8979662Y-3404919D02*
X8970138Y-3404919D01*
X8965376Y-3407300D01*
X8962995Y-3409681D01*
X8958233Y-3416824D01*
X8955852Y-3426348D01*
X8955852Y-3445395D01*
X8958233Y-3450157D01*
X8960614Y-3452538D01*
X8965376Y-3454919D01*
X8974900Y-3454919D01*
X8979662Y-3452538D01*
X8982043Y-3450157D01*
X8984424Y-3445395D01*
X8984424Y-3433490D01*
X8982043Y-3428728D01*
X8979662Y-3426348D01*
X8974900Y-3423967D01*
X8965376Y-3423967D01*
X8960614Y-3426348D01*
X8958233Y-3428728D01*
X8955852Y-3433490D01*
X9027281Y-3404919D02*
X9017757Y-3404919D01*
X9012995Y-3407300D01*
X9010614Y-3409681D01*
X9005852Y-3416824D01*
X9003471Y-3426348D01*
X9003471Y-3445395D01*
X9005852Y-3450157D01*
X9008233Y-3452538D01*
X9012995Y-3454919D01*
X9022519Y-3454919D01*
X9027281Y-3452538D01*
X9029662Y-3450157D01*
X9032043Y-3445395D01*
X9032043Y-3433490D01*
X9029662Y-3428728D01*
X9027281Y-3426348D01*
X9022519Y-3423967D01*
X9012995Y-3423967D01*
X9008233Y-3426348D01*
X9005852Y-3428728D01*
X9003471Y-3433490D01*
X4391419Y-5596333D02*
X4367610Y-5613000D01*
X4391419Y-5624905D02*
X4341419Y-5624905D01*
X4341419Y-5605857D01*
X4343800Y-5601095D01*
X4346181Y-5598714D01*
X4350943Y-5596333D01*
X4358086Y-5596333D01*
X4362848Y-5598714D01*
X4365229Y-5601095D01*
X4367610Y-5605857D01*
X4367610Y-5624905D01*
X4391419Y-5548714D02*
X4391419Y-5577286D01*
X4391419Y-5563000D02*
X4341419Y-5563000D01*
X4348562Y-5567762D01*
X4353324Y-5572524D01*
X4355705Y-5577286D01*
X4899419Y-3207143D02*
X4875610Y-3223809D01*
X4899419Y-3235714D02*
X4849419Y-3235714D01*
X4849419Y-3216667D01*
X4851800Y-3211905D01*
X4854181Y-3209524D01*
X4858943Y-3207143D01*
X4866086Y-3207143D01*
X4870848Y-3209524D01*
X4873229Y-3211905D01*
X4875610Y-3216667D01*
X4875610Y-3235714D01*
X4899419Y-3159524D02*
X4899419Y-3188095D01*
X4899419Y-3173809D02*
X4849419Y-3173809D01*
X4856562Y-3178571D01*
X4861324Y-3183333D01*
X4863705Y-3188095D01*
X4849419Y-3142857D02*
X4849419Y-3111905D01*
X4868467Y-3128571D01*
X4868467Y-3121428D01*
X4870848Y-3116667D01*
X4873229Y-3114286D01*
X4877990Y-3111905D01*
X4889895Y-3111905D01*
X4894657Y-3114286D01*
X4897038Y-3116667D01*
X4899419Y-3121428D01*
X4899419Y-3135714D01*
X4897038Y-3140476D01*
X4894657Y-3142857D01*
X3589709Y-3986209D02*
X3613519Y-3986209D01*
X3563519Y-4002876D02*
X3589709Y-3986209D01*
X3563519Y-3969543D01*
X3563519Y-3957638D02*
X3563519Y-3926686D01*
X3582567Y-3943352D01*
X3582567Y-3936209D01*
X3584948Y-3931448D01*
X3587328Y-3929067D01*
X3592090Y-3926686D01*
X3603995Y-3926686D01*
X3608757Y-3929067D01*
X3611138Y-3931448D01*
X3613519Y-3936209D01*
X3613519Y-3950495D01*
X3611138Y-3955257D01*
X3608757Y-3957638D01*
X3389709Y-4473110D02*
X3413519Y-4473110D01*
X3363519Y-4489776D02*
X3389709Y-4473110D01*
X3363519Y-4456443D01*
X3413519Y-4413586D02*
X3413519Y-4442157D01*
X3413519Y-4427871D02*
X3363519Y-4427871D01*
X3370662Y-4432633D01*
X3375424Y-4437395D01*
X3377805Y-4442157D01*
X1411390Y-6100109D02*
X1411390Y-6123919D01*
X1394724Y-6073919D02*
X1411390Y-6100109D01*
X1428057Y-6073919D01*
X1442343Y-6078681D02*
X1444724Y-6076300D01*
X1449486Y-6073919D01*
X1461390Y-6073919D01*
X1466152Y-6076300D01*
X1468533Y-6078681D01*
X1470914Y-6083443D01*
X1470914Y-6088205D01*
X1468533Y-6095347D01*
X1439962Y-6123919D01*
X1470914Y-6123919D01*
X3121419Y-6132905D02*
X3071419Y-6132905D01*
X3071419Y-6121000D01*
X3073800Y-6113857D01*
X3078562Y-6109095D01*
X3083324Y-6106714D01*
X3092848Y-6104333D01*
X3099990Y-6104333D01*
X3109514Y-6106714D01*
X3114276Y-6109095D01*
X3119038Y-6113857D01*
X3121419Y-6121000D01*
X3121419Y-6132905D01*
X3121419Y-6056714D02*
X3121419Y-6085286D01*
X3121419Y-6071000D02*
X3071419Y-6071000D01*
X3078562Y-6075762D01*
X3083324Y-6080524D01*
X3085705Y-6085286D01*
X3680219Y-6132905D02*
X3630219Y-6132905D01*
X3630219Y-6121000D01*
X3632600Y-6113857D01*
X3637362Y-6109095D01*
X3642124Y-6106714D01*
X3651648Y-6104333D01*
X3658790Y-6104333D01*
X3668314Y-6106714D01*
X3673076Y-6109095D01*
X3677838Y-6113857D01*
X3680219Y-6121000D01*
X3680219Y-6132905D01*
X3634981Y-6085286D02*
X3632600Y-6082905D01*
X3630219Y-6078143D01*
X3630219Y-6066238D01*
X3632600Y-6061476D01*
X3634981Y-6059095D01*
X3639743Y-6056714D01*
X3644505Y-6056714D01*
X3651648Y-6059095D01*
X3680219Y-6087667D01*
X3680219Y-6056714D01*
X3121419Y-6534543D02*
X3097609Y-6551209D01*
X3121419Y-6563114D02*
X3071419Y-6563114D01*
X3071419Y-6544067D01*
X3073800Y-6539305D01*
X3076181Y-6536924D01*
X3080943Y-6534543D01*
X3088086Y-6534543D01*
X3092848Y-6536924D01*
X3095228Y-6539305D01*
X3097609Y-6544067D01*
X3097609Y-6563114D01*
X3121419Y-6486924D02*
X3121419Y-6515495D01*
X3121419Y-6501209D02*
X3071419Y-6501209D01*
X3078562Y-6505971D01*
X3083324Y-6510733D01*
X3085705Y-6515495D01*
X3088086Y-6444067D02*
X3121419Y-6444067D01*
X3069038Y-6455971D02*
X3104752Y-6467876D01*
X3104752Y-6436924D01*
X3680219Y-6534543D02*
X3656409Y-6551209D01*
X3680219Y-6563114D02*
X3630219Y-6563114D01*
X3630219Y-6544067D01*
X3632600Y-6539305D01*
X3634981Y-6536924D01*
X3639743Y-6534543D01*
X3646886Y-6534543D01*
X3651648Y-6536924D01*
X3654028Y-6539305D01*
X3656409Y-6544067D01*
X3656409Y-6563114D01*
X3680219Y-6486924D02*
X3680219Y-6515495D01*
X3680219Y-6501209D02*
X3630219Y-6501209D01*
X3637362Y-6505971D01*
X3642124Y-6510733D01*
X3644505Y-6515495D01*
X3651648Y-6458352D02*
X3649267Y-6463114D01*
X3646886Y-6465495D01*
X3642124Y-6467876D01*
X3639743Y-6467876D01*
X3634981Y-6465495D01*
X3632600Y-6463114D01*
X3630219Y-6458352D01*
X3630219Y-6448828D01*
X3632600Y-6444067D01*
X3634981Y-6441686D01*
X3639743Y-6439305D01*
X3642124Y-6439305D01*
X3646886Y-6441686D01*
X3649267Y-6444067D01*
X3651648Y-6448828D01*
X3651648Y-6458352D01*
X3654028Y-6463114D01*
X3656409Y-6465495D01*
X3661171Y-6467876D01*
X3670695Y-6467876D01*
X3675457Y-6465495D01*
X3677838Y-6463114D01*
X3680219Y-6458352D01*
X3680219Y-6448828D01*
X3677838Y-6444067D01*
X3675457Y-6441686D01*
X3670695Y-6439305D01*
X3661171Y-6439305D01*
X3656409Y-6441686D01*
X3654028Y-6444067D01*
X3651648Y-6448828D01*
X8644333Y-1686714D02*
X8644333Y-1662905D01*
X8658619Y-1691476D02*
X8608619Y-1674809D01*
X8658619Y-1658143D01*
X8658619Y-1615286D02*
X8658619Y-1643857D01*
X8658619Y-1629571D02*
X8608619Y-1629571D01*
X8615762Y-1634333D01*
X8620524Y-1639095D01*
X8622905Y-1643857D01*
X12962333Y-1686714D02*
X12962333Y-1662905D01*
X12976619Y-1691476D02*
X12926619Y-1674809D01*
X12976619Y-1658143D01*
X12931381Y-1643857D02*
X12929000Y-1641476D01*
X12926619Y-1636714D01*
X12926619Y-1624809D01*
X12929000Y-1620048D01*
X12931381Y-1617667D01*
X12936143Y-1615286D01*
X12940905Y-1615286D01*
X12948048Y-1617667D01*
X12976619Y-1646238D01*
X12976619Y-1615286D01*
X2167333Y-1686714D02*
X2167333Y-1662905D01*
X2181619Y-1691476D02*
X2131619Y-1674809D01*
X2181619Y-1658143D01*
X2131619Y-1646238D02*
X2131619Y-1615286D01*
X2150667Y-1631952D01*
X2150667Y-1624809D01*
X2153048Y-1620048D01*
X2155429Y-1617667D01*
X2160190Y-1615286D01*
X2172095Y-1615286D01*
X2176857Y-1617667D01*
X2179238Y-1620048D01*
X2181619Y-1624809D01*
X2181619Y-1639095D01*
X2179238Y-1643857D01*
X2176857Y-1646238D01*
X4326333Y-1686714D02*
X4326333Y-1662905D01*
X4340619Y-1691476D02*
X4290619Y-1674809D01*
X4340619Y-1658143D01*
X4307286Y-1620048D02*
X4340619Y-1620048D01*
X4288238Y-1631952D02*
X4323952Y-1643857D01*
X4323952Y-1612905D01*
X6485333Y-1686714D02*
X6485333Y-1662905D01*
X6499619Y-1691476D02*
X6449619Y-1674809D01*
X6499619Y-1658143D01*
X6449619Y-1617667D02*
X6449619Y-1641476D01*
X6473428Y-1643857D01*
X6471048Y-1641476D01*
X6468667Y-1636714D01*
X6468667Y-1624809D01*
X6471048Y-1620048D01*
X6473428Y-1617667D01*
X6478190Y-1615286D01*
X6490095Y-1615286D01*
X6494857Y-1617667D01*
X6497238Y-1620048D01*
X6499619Y-1624809D01*
X6499619Y-1636714D01*
X6497238Y-1641476D01*
X6494857Y-1643857D01*
X10803333Y-1686714D02*
X10803333Y-1662905D01*
X10817619Y-1691476D02*
X10767619Y-1674809D01*
X10817619Y-1658143D01*
X10767619Y-1620048D02*
X10767619Y-1629571D01*
X10770000Y-1634333D01*
X10772381Y-1636714D01*
X10779524Y-1641476D01*
X10789048Y-1643857D01*
X10808095Y-1643857D01*
X10812857Y-1641476D01*
X10815238Y-1639095D01*
X10817619Y-1634333D01*
X10817619Y-1624809D01*
X10815238Y-1620048D01*
X10812857Y-1617667D01*
X10808095Y-1615286D01*
X10796190Y-1615286D01*
X10791429Y-1617667D01*
X10789048Y-1620048D01*
X10786667Y-1624809D01*
X10786667Y-1634333D01*
X10789048Y-1639095D01*
X10791429Y-1641476D01*
X10796190Y-1643857D01*
D13*
X3295248Y-7276438D02*
X3295248Y-7347867D01*
X3290486Y-7362152D01*
X3280962Y-7371676D01*
X3266676Y-7376438D01*
X3257152Y-7376438D01*
X3395248Y-7376438D02*
X3338105Y-7376438D01*
X3366676Y-7376438D02*
X3366676Y-7276438D01*
X3357152Y-7290724D01*
X3347628Y-7300248D01*
X3338105Y-7305009D01*
X3480962Y-7309771D02*
X3480962Y-7376438D01*
X3457152Y-7271676D02*
X3433343Y-7343105D01*
X3495248Y-7343105D01*
M02*
