%TF.GenerationSoftware,KiCad,Pcbnew,5.1.7+dfsg1-1~bpo10+1*%
%TF.CreationDate,2020-11-15T21:32:24+00:00*%
%TF.ProjectId,mobo,6d6f626f-2e6b-4696-9361-645f70636258,rev?*%
%TF.SameCoordinates,Original*%
%TF.FileFunction,Soldermask,Bot*%
%TF.FilePolarity,Negative*%
%FSLAX45Y45*%
G04 Gerber Fmt 4.5, Leading zero omitted, Abs format (unit mm)*
G04 Created by KiCad (PCBNEW 5.1.7+dfsg1-1~bpo10+1) date 2020-11-15 21:32:24*
%MOMM*%
%LPD*%
G01*
G04 APERTURE LIST*
%TA.AperFunction,Profile*%
%ADD10C,0.050000*%
%TD*%
%ADD11O,2.052000X1.802000*%
%ADD12C,5.702000*%
%ADD13C,3.602000*%
%ADD14C,1.802000*%
%ADD15C,3.102000*%
%ADD16C,1.602000*%
%ADD17O,1.802000X2.052000*%
%ADD18O,2.102000X1.802000*%
%ADD19O,1.702000X1.702000*%
%ADD20O,1.802000X2.102000*%
%ADD21C,0.150000*%
G04 APERTURE END LIST*
D10*
X0Y-7467600D02*
X13970000Y-7467600D01*
X13970000Y-7467600D02*
X13970000Y0D01*
X13970000Y0D02*
X0Y0D01*
X0Y0D02*
X0Y-7467600D01*
X0Y-7467600D02*
X13970000Y-7467600D01*
X13970000Y-7467600D02*
X13970000Y0D01*
X13970000Y0D02*
X0Y0D01*
X0Y0D02*
X0Y-7467600D01*
G36*
G01*
X535900Y-3671550D02*
X535900Y-3491450D01*
G75*
G02*
X625950Y-3401400I90050J0D01*
G01*
X806050Y-3401400D01*
G75*
G02*
X896100Y-3491450I0J-90050D01*
G01*
X896100Y-3671550D01*
G75*
G02*
X806050Y-3761600I-90050J0D01*
G01*
X625950Y-3761600D01*
G75*
G02*
X535900Y-3671550I0J90050D01*
G01*
G37*
G36*
G01*
X260900Y-3214050D02*
X260900Y-3008950D01*
G75*
G02*
X338450Y-2931400I77550J0D01*
G01*
X493550Y-2931400D01*
G75*
G02*
X571100Y-3008950I0J-77550D01*
G01*
X571100Y-3214050D01*
G75*
G02*
X493550Y-3291600I-77550J0D01*
G01*
X338450Y-3291600D01*
G75*
G02*
X260900Y-3214050I0J77550D01*
G01*
G37*
G36*
G01*
X835900Y-3286500D02*
X835900Y-2936500D01*
G75*
G02*
X841000Y-2931400I5100J0D01*
G01*
X1191000Y-2931400D01*
G75*
G02*
X1196100Y-2936500I0J-5100D01*
G01*
X1196100Y-3286500D01*
G75*
G02*
X1191000Y-3291600I-5100J0D01*
G01*
X841000Y-3291600D01*
G75*
G02*
X835900Y-3286500I0J5100D01*
G01*
G37*
D11*
X10604500Y-2877500D03*
X10604500Y-3127500D03*
X10604500Y-3377500D03*
X10604500Y-3627500D03*
X10604500Y-3877500D03*
G36*
G01*
X10680600Y-4217600D02*
X10528400Y-4217600D01*
G75*
G02*
X10501900Y-4191100I0J26500D01*
G01*
X10501900Y-4063900D01*
G75*
G02*
X10528400Y-4037400I26500J0D01*
G01*
X10680600Y-4037400D01*
G75*
G02*
X10707100Y-4063900I0J-26500D01*
G01*
X10707100Y-4191100D01*
G75*
G02*
X10680600Y-4217600I-26500J0D01*
G01*
G37*
X9880600Y-2877500D03*
X9880600Y-3127500D03*
X9880600Y-3377500D03*
X9880600Y-3627500D03*
X9880600Y-3877500D03*
G36*
G01*
X9956700Y-4217600D02*
X9804500Y-4217600D01*
G75*
G02*
X9778000Y-4191100I0J26500D01*
G01*
X9778000Y-4063900D01*
G75*
G02*
X9804500Y-4037400I26500J0D01*
G01*
X9956700Y-4037400D01*
G75*
G02*
X9983200Y-4063900I0J-26500D01*
G01*
X9983200Y-4191100D01*
G75*
G02*
X9956700Y-4217600I-26500J0D01*
G01*
G37*
X10604500Y-4842000D03*
X10604500Y-5092000D03*
X10604500Y-5342000D03*
X10604500Y-5592000D03*
G36*
G01*
X10680600Y-5932100D02*
X10528400Y-5932100D01*
G75*
G02*
X10501900Y-5905600I0J26500D01*
G01*
X10501900Y-5778400D01*
G75*
G02*
X10528400Y-5751900I26500J0D01*
G01*
X10680600Y-5751900D01*
G75*
G02*
X10707100Y-5778400I0J-26500D01*
G01*
X10707100Y-5905600D01*
G75*
G02*
X10680600Y-5932100I-26500J0D01*
G01*
G37*
X9880600Y-4838000D03*
X9880600Y-5088000D03*
X9880600Y-5338000D03*
G36*
G01*
X9956700Y-5678100D02*
X9804500Y-5678100D01*
G75*
G02*
X9778000Y-5651600I0J26500D01*
G01*
X9778000Y-5524400D01*
G75*
G02*
X9804500Y-5497900I26500J0D01*
G01*
X9956700Y-5497900D01*
G75*
G02*
X9983200Y-5524400I0J-26500D01*
G01*
X9983200Y-5651600D01*
G75*
G02*
X9956700Y-5678100I-26500J0D01*
G01*
G37*
G36*
G01*
X3043700Y-5866600D02*
X3043700Y-5766600D01*
G75*
G02*
X3048800Y-5761500I5100J0D01*
G01*
X3148800Y-5761500D01*
G75*
G02*
X3153900Y-5766600I0J-5100D01*
G01*
X3153900Y-5866600D01*
G75*
G02*
X3148800Y-5871700I-5100J0D01*
G01*
X3048800Y-5871700D01*
G75*
G02*
X3043700Y-5866600I0J5100D01*
G01*
G37*
G36*
G01*
X3323100Y-5866600D02*
X3323100Y-5766600D01*
G75*
G02*
X3328200Y-5761500I5100J0D01*
G01*
X3428200Y-5761500D01*
G75*
G02*
X3433300Y-5766600I0J-5100D01*
G01*
X3433300Y-5866600D01*
G75*
G02*
X3428200Y-5871700I-5100J0D01*
G01*
X3328200Y-5871700D01*
G75*
G02*
X3323100Y-5866600I0J5100D01*
G01*
G37*
G36*
G01*
X3602500Y-5866600D02*
X3602500Y-5766600D01*
G75*
G02*
X3607600Y-5761500I5100J0D01*
G01*
X3707600Y-5761500D01*
G75*
G02*
X3712700Y-5766600I0J-5100D01*
G01*
X3712700Y-5866600D01*
G75*
G02*
X3707600Y-5871700I-5100J0D01*
G01*
X3607600Y-5871700D01*
G75*
G02*
X3602500Y-5866600I0J5100D01*
G01*
G37*
D12*
X444500Y-444500D03*
X444500Y-7048500D03*
X13525500Y-7058300D03*
X13525500Y-444500D03*
D13*
X354500Y-5051500D03*
X354500Y-6255500D03*
D14*
X625500Y-5778500D03*
X625500Y-5528500D03*
X825500Y-5528500D03*
G36*
G01*
X915600Y-5693500D02*
X915600Y-5863500D01*
G75*
G02*
X910500Y-5868600I-5100J0D01*
G01*
X740500Y-5868600D01*
G75*
G02*
X735400Y-5863500I0J5100D01*
G01*
X735400Y-5693500D01*
G75*
G02*
X740500Y-5688400I5100J0D01*
G01*
X910500Y-5688400D01*
G75*
G02*
X915600Y-5693500I0J-5100D01*
G01*
G37*
D15*
X2594500Y-6569000D03*
X1280500Y-6569000D03*
G36*
G01*
X1507400Y-6679000D02*
X1507400Y-6529000D01*
G75*
G02*
X1512500Y-6523900I5100J0D01*
G01*
X1662500Y-6523900D01*
G75*
G02*
X1667600Y-6529000I0J-5100D01*
G01*
X1667600Y-6679000D01*
G75*
G02*
X1662500Y-6684100I-5100J0D01*
G01*
X1512500Y-6684100D01*
G75*
G02*
X1507400Y-6679000I0J5100D01*
G01*
G37*
D16*
X1837500Y-6604000D03*
X2037500Y-6604000D03*
X2287500Y-6604000D03*
D15*
X1280500Y-7137000D03*
X2594500Y-7137000D03*
D16*
X1587500Y-6866000D03*
X1837500Y-6866000D03*
X2037500Y-6866000D03*
X2287500Y-6866000D03*
G36*
G01*
X6564700Y-7137300D02*
X6564700Y-6985100D01*
G75*
G02*
X6591200Y-6958600I26500J0D01*
G01*
X6718400Y-6958600D01*
G75*
G02*
X6744900Y-6985100I0J-26500D01*
G01*
X6744900Y-7137300D01*
G75*
G02*
X6718400Y-7163800I-26500J0D01*
G01*
X6591200Y-7163800D01*
G75*
G02*
X6564700Y-7137300I0J26500D01*
G01*
G37*
D17*
X6904800Y-7061200D03*
X7154800Y-7061200D03*
X7404800Y-7061200D03*
X8852600Y-7061200D03*
X8602600Y-7061200D03*
X8352600Y-7061200D03*
G36*
G01*
X8012500Y-7137300D02*
X8012500Y-6985100D01*
G75*
G02*
X8039000Y-6958600I26500J0D01*
G01*
X8166200Y-6958600D01*
G75*
G02*
X8192700Y-6985100I0J-26500D01*
G01*
X8192700Y-7137300D01*
G75*
G02*
X8166200Y-7163800I-26500J0D01*
G01*
X8039000Y-7163800D01*
G75*
G02*
X8012500Y-7137300I0J26500D01*
G01*
G37*
G36*
G01*
X9473000Y-7137300D02*
X9473000Y-6985100D01*
G75*
G02*
X9499500Y-6958600I26500J0D01*
G01*
X9626700Y-6958600D01*
G75*
G02*
X9653200Y-6985100I0J-26500D01*
G01*
X9653200Y-7137300D01*
G75*
G02*
X9626700Y-7163800I-26500J0D01*
G01*
X9499500Y-7163800D01*
G75*
G02*
X9473000Y-7137300I0J26500D01*
G01*
G37*
X9813100Y-7061200D03*
X10063100Y-7061200D03*
X10313100Y-7061200D03*
X7378000Y-508000D03*
X7628000Y-508000D03*
X7878000Y-508000D03*
G36*
G01*
X8218100Y-431900D02*
X8218100Y-584100D01*
G75*
G02*
X8191600Y-610600I-26500J0D01*
G01*
X8064400Y-610600D01*
G75*
G02*
X8037900Y-584100I0J26500D01*
G01*
X8037900Y-431900D01*
G75*
G02*
X8064400Y-405400I26500J0D01*
G01*
X8191600Y-405400D01*
G75*
G02*
X8218100Y-431900I0J-26500D01*
G01*
G37*
G36*
G01*
X12536100Y-431900D02*
X12536100Y-584100D01*
G75*
G02*
X12509600Y-610600I-26500J0D01*
G01*
X12382400Y-610600D01*
G75*
G02*
X12355900Y-584100I0J26500D01*
G01*
X12355900Y-431900D01*
G75*
G02*
X12382400Y-405400I26500J0D01*
G01*
X12509600Y-405400D01*
G75*
G02*
X12536100Y-431900I0J-26500D01*
G01*
G37*
X12196000Y-508000D03*
X11946000Y-508000D03*
X11696000Y-508000D03*
G36*
G01*
X1995100Y-431900D02*
X1995100Y-584100D01*
G75*
G02*
X1968600Y-610600I-26500J0D01*
G01*
X1841400Y-610600D01*
G75*
G02*
X1814900Y-584100I0J26500D01*
G01*
X1814900Y-431900D01*
G75*
G02*
X1841400Y-405400I26500J0D01*
G01*
X1968600Y-405400D01*
G75*
G02*
X1995100Y-431900I0J-26500D01*
G01*
G37*
X1655000Y-508000D03*
X1405000Y-508000D03*
X1155000Y-508000D03*
G36*
G01*
X3900100Y-431900D02*
X3900100Y-584100D01*
G75*
G02*
X3873600Y-610600I-26500J0D01*
G01*
X3746400Y-610600D01*
G75*
G02*
X3719900Y-584100I0J26500D01*
G01*
X3719900Y-431900D01*
G75*
G02*
X3746400Y-405400I26500J0D01*
G01*
X3873600Y-405400D01*
G75*
G02*
X3900100Y-431900I0J-26500D01*
G01*
G37*
X3560000Y-508000D03*
X3310000Y-508000D03*
X3060000Y-508000D03*
G36*
G01*
X4139000Y-7137300D02*
X4139000Y-6985100D01*
G75*
G02*
X4165500Y-6958600I26500J0D01*
G01*
X4292700Y-6958600D01*
G75*
G02*
X4319200Y-6985100I0J-26500D01*
G01*
X4319200Y-7137300D01*
G75*
G02*
X4292700Y-7163800I-26500J0D01*
G01*
X4165500Y-7163800D01*
G75*
G02*
X4139000Y-7137300I0J26500D01*
G01*
G37*
X4479100Y-7061200D03*
X4729100Y-7061200D03*
G36*
G01*
X4139000Y-6337200D02*
X4139000Y-6185000D01*
G75*
G02*
X4165500Y-6158500I26500J0D01*
G01*
X4292700Y-6158500D01*
G75*
G02*
X4319200Y-6185000I0J-26500D01*
G01*
X4319200Y-6337200D01*
G75*
G02*
X4292700Y-6363700I-26500J0D01*
G01*
X4165500Y-6363700D01*
G75*
G02*
X4139000Y-6337200I0J26500D01*
G01*
G37*
X4479100Y-6261100D03*
X4729100Y-6261100D03*
D18*
X13398500Y-2925000D03*
G36*
G01*
X13477100Y-3265100D02*
X13319900Y-3265100D01*
G75*
G02*
X13293400Y-3238600I0J26500D01*
G01*
X13293400Y-3111400D01*
G75*
G02*
X13319900Y-3084900I26500J0D01*
G01*
X13477100Y-3084900D01*
G75*
G02*
X13503600Y-3111400I0J-26500D01*
G01*
X13503600Y-3238600D01*
G75*
G02*
X13477100Y-3265100I-26500J0D01*
G01*
G37*
G36*
G01*
X13477100Y-4281100D02*
X13319900Y-4281100D01*
G75*
G02*
X13293400Y-4254600I0J26500D01*
G01*
X13293400Y-4127400D01*
G75*
G02*
X13319900Y-4100900I26500J0D01*
G01*
X13477100Y-4100900D01*
G75*
G02*
X13503600Y-4127400I0J-26500D01*
G01*
X13503600Y-4254600D01*
G75*
G02*
X13477100Y-4281100I-26500J0D01*
G01*
G37*
X13398500Y-3941000D03*
X13402500Y-4957000D03*
G36*
G01*
X13481100Y-5297100D02*
X13323900Y-5297100D01*
G75*
G02*
X13297400Y-5270600I0J26500D01*
G01*
X13297400Y-5143400D01*
G75*
G02*
X13323900Y-5116900I26500J0D01*
G01*
X13481100Y-5116900D01*
G75*
G02*
X13507600Y-5143400I0J-26500D01*
G01*
X13507600Y-5270600D01*
G75*
G02*
X13481100Y-5297100I-26500J0D01*
G01*
G37*
G36*
G01*
X13477100Y-6313100D02*
X13319900Y-6313100D01*
G75*
G02*
X13293400Y-6286600I0J26500D01*
G01*
X13293400Y-6159400D01*
G75*
G02*
X13319900Y-6132900I26500J0D01*
G01*
X13477100Y-6132900D01*
G75*
G02*
X13503600Y-6159400I0J-26500D01*
G01*
X13503600Y-6286600D01*
G75*
G02*
X13477100Y-6313100I-26500J0D01*
G01*
G37*
X13398500Y-5973000D03*
G36*
G01*
X5345500Y-7137300D02*
X5345500Y-6985100D01*
G75*
G02*
X5372000Y-6958600I26500J0D01*
G01*
X5499200Y-6958600D01*
G75*
G02*
X5525700Y-6985100I0J-26500D01*
G01*
X5525700Y-7137300D01*
G75*
G02*
X5499200Y-7163800I-26500J0D01*
G01*
X5372000Y-7163800D01*
G75*
G02*
X5345500Y-7137300I0J26500D01*
G01*
G37*
D17*
X5685600Y-7061200D03*
X5935600Y-7061200D03*
X5935600Y-6261100D03*
X5685600Y-6261100D03*
G36*
G01*
X5345500Y-6337200D02*
X5345500Y-6185000D01*
G75*
G02*
X5372000Y-6158500I26500J0D01*
G01*
X5499200Y-6158500D01*
G75*
G02*
X5525700Y-6185000I0J-26500D01*
G01*
X5525700Y-6337200D01*
G75*
G02*
X5499200Y-6363700I-26500J0D01*
G01*
X5372000Y-6363700D01*
G75*
G02*
X5345500Y-6337200I0J26500D01*
G01*
G37*
G36*
G01*
X8432700Y-4509700D02*
X8280500Y-4509700D01*
G75*
G02*
X8254000Y-4483200I0J26500D01*
G01*
X8254000Y-4356000D01*
G75*
G02*
X8280500Y-4329500I26500J0D01*
G01*
X8432700Y-4329500D01*
G75*
G02*
X8459200Y-4356000I0J-26500D01*
G01*
X8459200Y-4483200D01*
G75*
G02*
X8432700Y-4509700I-26500J0D01*
G01*
G37*
D11*
X8356600Y-4169600D03*
X8356600Y-3919600D03*
X9131300Y-3919600D03*
X9131300Y-4169600D03*
G36*
G01*
X9207400Y-4509700D02*
X9055200Y-4509700D01*
G75*
G02*
X9028700Y-4483200I0J26500D01*
G01*
X9028700Y-4356000D01*
G75*
G02*
X9055200Y-4329500I26500J0D01*
G01*
X9207400Y-4329500D01*
G75*
G02*
X9233900Y-4356000I0J-26500D01*
G01*
X9233900Y-4483200D01*
G75*
G02*
X9207400Y-4509700I-26500J0D01*
G01*
G37*
X8356600Y-5088000D03*
X8356600Y-5338000D03*
G36*
G01*
X8432700Y-5678100D02*
X8280500Y-5678100D01*
G75*
G02*
X8254000Y-5651600I0J26500D01*
G01*
X8254000Y-5524400D01*
G75*
G02*
X8280500Y-5497900I26500J0D01*
G01*
X8432700Y-5497900D01*
G75*
G02*
X8459200Y-5524400I0J-26500D01*
G01*
X8459200Y-5651600D01*
G75*
G02*
X8432700Y-5678100I-26500J0D01*
G01*
G37*
D17*
X5219000Y-508000D03*
X5469000Y-508000D03*
X5719000Y-508000D03*
G36*
G01*
X6059100Y-431900D02*
X6059100Y-584100D01*
G75*
G02*
X6032600Y-610600I-26500J0D01*
G01*
X5905400Y-610600D01*
G75*
G02*
X5878900Y-584100I0J26500D01*
G01*
X5878900Y-431900D01*
G75*
G02*
X5905400Y-405400I26500J0D01*
G01*
X6032600Y-405400D01*
G75*
G02*
X6059100Y-431900I0J-26500D01*
G01*
G37*
X9537000Y-508000D03*
X9787000Y-508000D03*
X10037000Y-508000D03*
G36*
G01*
X10377100Y-431900D02*
X10377100Y-584100D01*
G75*
G02*
X10350600Y-610600I-26500J0D01*
G01*
X10223400Y-610600D01*
G75*
G02*
X10196900Y-584100I0J26500D01*
G01*
X10196900Y-431900D01*
G75*
G02*
X10223400Y-405400I26500J0D01*
G01*
X10350600Y-405400D01*
G75*
G02*
X10377100Y-431900I0J-26500D01*
G01*
G37*
G36*
G01*
X13614300Y-2007800D02*
X13462100Y-2007800D01*
G75*
G02*
X13435600Y-1981300I0J26500D01*
G01*
X13435600Y-1854100D01*
G75*
G02*
X13462100Y-1827600I26500J0D01*
G01*
X13614300Y-1827600D01*
G75*
G02*
X13640800Y-1854100I0J-26500D01*
G01*
X13640800Y-1981300D01*
G75*
G02*
X13614300Y-2007800I-26500J0D01*
G01*
G37*
D11*
X13538200Y-1667700D03*
X13538200Y-1417700D03*
X13538200Y-1167700D03*
X7569200Y-5088000D03*
X7569200Y-5338000D03*
G36*
G01*
X7645300Y-5678100D02*
X7493100Y-5678100D01*
G75*
G02*
X7466600Y-5651600I0J26500D01*
G01*
X7466600Y-5524400D01*
G75*
G02*
X7493100Y-5497900I26500J0D01*
G01*
X7645300Y-5497900D01*
G75*
G02*
X7671800Y-5524400I0J-26500D01*
G01*
X7671800Y-5651600D01*
G75*
G02*
X7645300Y-5678100I-26500J0D01*
G01*
G37*
G36*
G01*
X9211400Y-5678100D02*
X9059200Y-5678100D01*
G75*
G02*
X9032700Y-5651600I0J26500D01*
G01*
X9032700Y-5524400D01*
G75*
G02*
X9059200Y-5497900I26500J0D01*
G01*
X9211400Y-5497900D01*
G75*
G02*
X9237900Y-5524400I0J-26500D01*
G01*
X9237900Y-5651600D01*
G75*
G02*
X9211400Y-5678100I-26500J0D01*
G01*
G37*
X9135300Y-5338000D03*
X9135300Y-5088000D03*
X7569200Y-3919600D03*
X7569200Y-4169600D03*
G36*
G01*
X7645300Y-4509700D02*
X7493100Y-4509700D01*
G75*
G02*
X7466600Y-4483200I0J26500D01*
G01*
X7466600Y-4356000D01*
G75*
G02*
X7493100Y-4329500I26500J0D01*
G01*
X7645300Y-4329500D01*
G75*
G02*
X7671800Y-4356000I0J-26500D01*
G01*
X7671800Y-4483200D01*
G75*
G02*
X7645300Y-4509700I-26500J0D01*
G01*
G37*
D17*
X8081900Y-3162300D03*
X7831900Y-3162300D03*
G36*
G01*
X7491800Y-3238400D02*
X7491800Y-3086200D01*
G75*
G02*
X7518300Y-3059700I26500J0D01*
G01*
X7645500Y-3059700D01*
G75*
G02*
X7672000Y-3086200I0J-26500D01*
G01*
X7672000Y-3238400D01*
G75*
G02*
X7645500Y-3264900I-26500J0D01*
G01*
X7518300Y-3264900D01*
G75*
G02*
X7491800Y-3238400I0J26500D01*
G01*
G37*
G36*
G01*
X8634800Y-3238400D02*
X8634800Y-3086200D01*
G75*
G02*
X8661300Y-3059700I26500J0D01*
G01*
X8788500Y-3059700D01*
G75*
G02*
X8815000Y-3086200I0J-26500D01*
G01*
X8815000Y-3238400D01*
G75*
G02*
X8788500Y-3264900I-26500J0D01*
G01*
X8661300Y-3264900D01*
G75*
G02*
X8634800Y-3238400I0J26500D01*
G01*
G37*
X8974900Y-3162300D03*
X9224900Y-3162300D03*
G36*
G01*
X8556000Y-930900D02*
X8716000Y-930900D01*
G75*
G02*
X8721100Y-936000I0J-5100D01*
G01*
X8721100Y-1096000D01*
G75*
G02*
X8716000Y-1101100I-5100J0D01*
G01*
X8556000Y-1101100D01*
G75*
G02*
X8550900Y-1096000I0J5100D01*
G01*
X8550900Y-936000D01*
G75*
G02*
X8556000Y-930900I5100J0D01*
G01*
G37*
D19*
X6858000Y-2286000D03*
X8382000Y-1016000D03*
X7112000Y-2286000D03*
X8128000Y-1016000D03*
X7366000Y-2286000D03*
X7874000Y-1016000D03*
X7620000Y-2286000D03*
X7620000Y-1016000D03*
X7874000Y-2286000D03*
X7366000Y-1016000D03*
X8128000Y-2286000D03*
X7112000Y-1016000D03*
X8382000Y-2286000D03*
X6858000Y-1016000D03*
X8636000Y-2286000D03*
X12954000Y-2286000D03*
X11176000Y-1016000D03*
X12700000Y-2286000D03*
X11430000Y-1016000D03*
X12446000Y-2286000D03*
X11684000Y-1016000D03*
X12192000Y-2286000D03*
X11938000Y-1016000D03*
X11938000Y-2286000D03*
X12192000Y-1016000D03*
X11684000Y-2286000D03*
X12446000Y-1016000D03*
X11430000Y-2286000D03*
X12700000Y-1016000D03*
X11176000Y-2286000D03*
G36*
G01*
X12874000Y-930900D02*
X13034000Y-930900D01*
G75*
G02*
X13039100Y-936000I0J-5100D01*
G01*
X13039100Y-1096000D01*
G75*
G02*
X13034000Y-1101100I-5100J0D01*
G01*
X12874000Y-1101100D01*
G75*
G02*
X12868900Y-1096000I0J5100D01*
G01*
X12868900Y-936000D01*
G75*
G02*
X12874000Y-930900I5100J0D01*
G01*
G37*
X2159000Y-2286000D03*
X381000Y-1016000D03*
X1905000Y-2286000D03*
X635000Y-1016000D03*
X1651000Y-2286000D03*
X889000Y-1016000D03*
X1397000Y-2286000D03*
X1143000Y-1016000D03*
X1143000Y-2286000D03*
X1397000Y-1016000D03*
X889000Y-2286000D03*
X1651000Y-1016000D03*
X635000Y-2286000D03*
X1905000Y-1016000D03*
X381000Y-2286000D03*
G36*
G01*
X2079000Y-930900D02*
X2239000Y-930900D01*
G75*
G02*
X2244100Y-936000I0J-5100D01*
G01*
X2244100Y-1096000D01*
G75*
G02*
X2239000Y-1101100I-5100J0D01*
G01*
X2079000Y-1101100D01*
G75*
G02*
X2073900Y-1096000I0J5100D01*
G01*
X2073900Y-936000D01*
G75*
G02*
X2079000Y-930900I5100J0D01*
G01*
G37*
G36*
G01*
X4238000Y-930900D02*
X4398000Y-930900D01*
G75*
G02*
X4403100Y-936000I0J-5100D01*
G01*
X4403100Y-1096000D01*
G75*
G02*
X4398000Y-1101100I-5100J0D01*
G01*
X4238000Y-1101100D01*
G75*
G02*
X4232900Y-1096000I0J5100D01*
G01*
X4232900Y-936000D01*
G75*
G02*
X4238000Y-930900I5100J0D01*
G01*
G37*
X2540000Y-2286000D03*
X4064000Y-1016000D03*
X2794000Y-2286000D03*
X3810000Y-1016000D03*
X3048000Y-2286000D03*
X3556000Y-1016000D03*
X3302000Y-2286000D03*
X3302000Y-1016000D03*
X3556000Y-2286000D03*
X3048000Y-1016000D03*
X3810000Y-2286000D03*
X2794000Y-1016000D03*
X4064000Y-2286000D03*
X2540000Y-1016000D03*
X4318000Y-2286000D03*
X6477000Y-2286000D03*
X4699000Y-1016000D03*
X6223000Y-2286000D03*
X4953000Y-1016000D03*
X5969000Y-2286000D03*
X5207000Y-1016000D03*
X5715000Y-2286000D03*
X5461000Y-1016000D03*
X5461000Y-2286000D03*
X5715000Y-1016000D03*
X5207000Y-2286000D03*
X5969000Y-1016000D03*
X4953000Y-2286000D03*
X6223000Y-1016000D03*
X4699000Y-2286000D03*
G36*
G01*
X6397000Y-930900D02*
X6557000Y-930900D01*
G75*
G02*
X6562100Y-936000I0J-5100D01*
G01*
X6562100Y-1096000D01*
G75*
G02*
X6557000Y-1101100I-5100J0D01*
G01*
X6397000Y-1101100D01*
G75*
G02*
X6391900Y-1096000I0J5100D01*
G01*
X6391900Y-936000D01*
G75*
G02*
X6397000Y-930900I5100J0D01*
G01*
G37*
G36*
G01*
X10715000Y-930900D02*
X10875000Y-930900D01*
G75*
G02*
X10880100Y-936000I0J-5100D01*
G01*
X10880100Y-1096000D01*
G75*
G02*
X10875000Y-1101100I-5100J0D01*
G01*
X10715000Y-1101100D01*
G75*
G02*
X10709900Y-1096000I0J5100D01*
G01*
X10709900Y-936000D01*
G75*
G02*
X10715000Y-930900I5100J0D01*
G01*
G37*
X9017000Y-2286000D03*
X10541000Y-1016000D03*
X9271000Y-2286000D03*
X10287000Y-1016000D03*
X9525000Y-2286000D03*
X10033000Y-1016000D03*
X9779000Y-2286000D03*
X9779000Y-1016000D03*
X10033000Y-2286000D03*
X9525000Y-1016000D03*
X10287000Y-2286000D03*
X9271000Y-1016000D03*
X10541000Y-2286000D03*
X9017000Y-1016000D03*
X10795000Y-2286000D03*
G36*
G01*
X3161100Y-7139800D02*
X3161100Y-6982600D01*
G75*
G02*
X3187600Y-6956100I26500J0D01*
G01*
X3314800Y-6956100D01*
G75*
G02*
X3341300Y-6982600I0J-26500D01*
G01*
X3341300Y-7139800D01*
G75*
G02*
X3314800Y-7166300I-26500J0D01*
G01*
X3187600Y-7166300D01*
G75*
G02*
X3161100Y-7139800I0J26500D01*
G01*
G37*
D20*
X3501200Y-7061200D03*
D21*
G36*
X3161299Y-7139780D02*
G01*
X3161806Y-7144930D01*
X3163303Y-7149864D01*
X3165733Y-7154411D01*
X3169004Y-7158396D01*
X3172989Y-7161667D01*
X3177536Y-7164097D01*
X3182470Y-7165594D01*
X3187620Y-7166101D01*
X3187782Y-7166217D01*
X3187763Y-7166416D01*
X3187600Y-7166500D01*
X3179390Y-7166500D01*
X3179371Y-7166499D01*
X3175320Y-7166100D01*
X3175282Y-7166092D01*
X3171977Y-7165090D01*
X3171940Y-7165075D01*
X3168895Y-7163447D01*
X3168863Y-7163425D01*
X3166193Y-7161234D01*
X3166165Y-7161207D01*
X3163975Y-7158537D01*
X3163953Y-7158505D01*
X3162325Y-7155459D01*
X3162310Y-7155423D01*
X3161307Y-7152118D01*
X3161300Y-7152080D01*
X3160901Y-7148029D01*
X3160900Y-7148010D01*
X3160900Y-7139800D01*
X3161000Y-7139627D01*
X3161200Y-7139627D01*
X3161299Y-7139780D01*
G37*
G36*
X3341416Y-7139637D02*
G01*
X3341500Y-7139800D01*
X3341500Y-7148010D01*
X3341499Y-7148029D01*
X3341100Y-7152080D01*
X3341092Y-7152118D01*
X3340090Y-7155423D01*
X3340075Y-7155459D01*
X3338447Y-7158505D01*
X3338425Y-7158537D01*
X3336234Y-7161207D01*
X3336207Y-7161234D01*
X3333537Y-7163425D01*
X3333505Y-7163447D01*
X3330459Y-7165075D01*
X3330423Y-7165090D01*
X3327118Y-7166092D01*
X3327080Y-7166100D01*
X3323029Y-7166499D01*
X3323010Y-7166500D01*
X3314800Y-7166500D01*
X3314627Y-7166400D01*
X3314627Y-7166200D01*
X3314780Y-7166101D01*
X3319930Y-7165594D01*
X3324864Y-7164097D01*
X3329411Y-7161667D01*
X3333396Y-7158396D01*
X3336667Y-7154411D01*
X3339097Y-7149864D01*
X3340594Y-7144930D01*
X3341101Y-7139780D01*
X3341217Y-7139618D01*
X3341416Y-7139637D01*
G37*
G36*
X8012699Y-7137280D02*
G01*
X8013206Y-7142430D01*
X8014703Y-7147364D01*
X8017133Y-7151911D01*
X8020404Y-7155896D01*
X8024389Y-7159167D01*
X8028936Y-7161597D01*
X8033870Y-7163094D01*
X8039020Y-7163601D01*
X8039182Y-7163717D01*
X8039163Y-7163916D01*
X8039000Y-7164000D01*
X8030790Y-7164000D01*
X8030771Y-7163999D01*
X8026720Y-7163600D01*
X8026682Y-7163592D01*
X8023377Y-7162590D01*
X8023340Y-7162575D01*
X8020295Y-7160947D01*
X8020263Y-7160925D01*
X8017593Y-7158734D01*
X8017565Y-7158707D01*
X8015375Y-7156037D01*
X8015353Y-7156005D01*
X8013725Y-7152959D01*
X8013710Y-7152923D01*
X8012707Y-7149618D01*
X8012700Y-7149580D01*
X8012301Y-7145529D01*
X8012300Y-7145510D01*
X8012300Y-7137300D01*
X8012400Y-7137127D01*
X8012600Y-7137127D01*
X8012699Y-7137280D01*
G37*
G36*
X6564899Y-7137280D02*
G01*
X6565406Y-7142430D01*
X6566903Y-7147364D01*
X6569333Y-7151911D01*
X6572604Y-7155896D01*
X6576589Y-7159167D01*
X6581136Y-7161597D01*
X6586070Y-7163094D01*
X6591220Y-7163601D01*
X6591382Y-7163717D01*
X6591363Y-7163916D01*
X6591200Y-7164000D01*
X6582990Y-7164000D01*
X6582971Y-7163999D01*
X6578920Y-7163600D01*
X6578882Y-7163592D01*
X6575577Y-7162590D01*
X6575540Y-7162575D01*
X6572495Y-7160947D01*
X6572463Y-7160925D01*
X6569793Y-7158734D01*
X6569765Y-7158707D01*
X6567575Y-7156037D01*
X6567553Y-7156005D01*
X6565925Y-7152959D01*
X6565910Y-7152923D01*
X6564907Y-7149618D01*
X6564900Y-7149580D01*
X6564501Y-7145529D01*
X6564500Y-7145510D01*
X6564500Y-7137300D01*
X6564600Y-7137127D01*
X6564800Y-7137127D01*
X6564899Y-7137280D01*
G37*
G36*
X9653317Y-7137137D02*
G01*
X9653400Y-7137300D01*
X9653400Y-7145510D01*
X9653399Y-7145529D01*
X9653000Y-7149580D01*
X9652993Y-7149618D01*
X9651990Y-7152923D01*
X9651975Y-7152959D01*
X9650347Y-7156005D01*
X9650325Y-7156037D01*
X9648135Y-7158707D01*
X9648107Y-7158734D01*
X9645437Y-7160925D01*
X9645405Y-7160947D01*
X9642360Y-7162575D01*
X9642323Y-7162590D01*
X9639018Y-7163592D01*
X9638980Y-7163600D01*
X9634929Y-7163999D01*
X9634910Y-7164000D01*
X9626700Y-7164000D01*
X9626527Y-7163900D01*
X9626527Y-7163700D01*
X9626680Y-7163601D01*
X9631830Y-7163094D01*
X9636764Y-7161597D01*
X9641311Y-7159167D01*
X9645296Y-7155896D01*
X9648567Y-7151911D01*
X9650997Y-7147364D01*
X9652494Y-7142430D01*
X9653001Y-7137280D01*
X9653118Y-7137118D01*
X9653317Y-7137137D01*
G37*
G36*
X8192816Y-7137137D02*
G01*
X8192900Y-7137300D01*
X8192900Y-7145510D01*
X8192899Y-7145529D01*
X8192500Y-7149580D01*
X8192492Y-7149618D01*
X8191490Y-7152923D01*
X8191475Y-7152959D01*
X8189847Y-7156005D01*
X8189825Y-7156037D01*
X8187634Y-7158707D01*
X8187607Y-7158734D01*
X8184937Y-7160925D01*
X8184905Y-7160947D01*
X8181859Y-7162575D01*
X8181823Y-7162590D01*
X8178518Y-7163592D01*
X8178480Y-7163600D01*
X8174429Y-7163999D01*
X8174410Y-7164000D01*
X8166200Y-7164000D01*
X8166027Y-7163900D01*
X8166027Y-7163700D01*
X8166180Y-7163601D01*
X8171330Y-7163094D01*
X8176264Y-7161597D01*
X8180811Y-7159167D01*
X8184796Y-7155896D01*
X8188067Y-7151911D01*
X8190497Y-7147364D01*
X8191994Y-7142430D01*
X8192501Y-7137280D01*
X8192617Y-7137118D01*
X8192816Y-7137137D01*
G37*
G36*
X5525817Y-7137137D02*
G01*
X5525900Y-7137300D01*
X5525900Y-7145510D01*
X5525899Y-7145529D01*
X5525500Y-7149580D01*
X5525493Y-7149618D01*
X5524490Y-7152923D01*
X5524475Y-7152959D01*
X5522847Y-7156005D01*
X5522825Y-7156037D01*
X5520635Y-7158707D01*
X5520607Y-7158734D01*
X5517937Y-7160925D01*
X5517905Y-7160947D01*
X5514860Y-7162575D01*
X5514823Y-7162590D01*
X5511518Y-7163592D01*
X5511480Y-7163600D01*
X5507429Y-7163999D01*
X5507410Y-7164000D01*
X5499200Y-7164000D01*
X5499027Y-7163900D01*
X5499027Y-7163700D01*
X5499180Y-7163601D01*
X5504330Y-7163094D01*
X5509264Y-7161597D01*
X5513811Y-7159167D01*
X5517796Y-7155896D01*
X5521067Y-7151911D01*
X5523497Y-7147364D01*
X5524994Y-7142430D01*
X5525501Y-7137280D01*
X5525618Y-7137118D01*
X5525817Y-7137137D01*
G37*
G36*
X4319317Y-7137137D02*
G01*
X4319400Y-7137300D01*
X4319400Y-7145510D01*
X4319399Y-7145529D01*
X4319000Y-7149580D01*
X4318993Y-7149618D01*
X4317990Y-7152923D01*
X4317975Y-7152959D01*
X4316347Y-7156005D01*
X4316325Y-7156037D01*
X4314135Y-7158707D01*
X4314107Y-7158734D01*
X4311437Y-7160925D01*
X4311405Y-7160947D01*
X4308360Y-7162575D01*
X4308323Y-7162590D01*
X4305018Y-7163592D01*
X4304980Y-7163600D01*
X4300929Y-7163999D01*
X4300910Y-7164000D01*
X4292700Y-7164000D01*
X4292527Y-7163900D01*
X4292527Y-7163700D01*
X4292680Y-7163601D01*
X4297830Y-7163094D01*
X4302764Y-7161597D01*
X4307311Y-7159167D01*
X4311296Y-7155896D01*
X4314567Y-7151911D01*
X4316997Y-7147364D01*
X4318494Y-7142430D01*
X4319001Y-7137280D01*
X4319118Y-7137118D01*
X4319317Y-7137137D01*
G37*
G36*
X4139199Y-7137280D02*
G01*
X4139706Y-7142430D01*
X4141203Y-7147364D01*
X4143633Y-7151911D01*
X4146904Y-7155896D01*
X4150889Y-7159167D01*
X4155436Y-7161597D01*
X4160370Y-7163094D01*
X4165520Y-7163601D01*
X4165682Y-7163717D01*
X4165663Y-7163916D01*
X4165500Y-7164000D01*
X4157290Y-7164000D01*
X4157271Y-7163999D01*
X4153220Y-7163600D01*
X4153182Y-7163592D01*
X4149877Y-7162590D01*
X4149840Y-7162575D01*
X4146795Y-7160947D01*
X4146763Y-7160925D01*
X4144093Y-7158734D01*
X4144065Y-7158707D01*
X4141875Y-7156037D01*
X4141853Y-7156005D01*
X4140225Y-7152959D01*
X4140210Y-7152923D01*
X4139207Y-7149618D01*
X4139200Y-7149580D01*
X4138801Y-7145529D01*
X4138800Y-7145510D01*
X4138800Y-7137300D01*
X4138900Y-7137127D01*
X4139100Y-7137127D01*
X4139199Y-7137280D01*
G37*
G36*
X5345699Y-7137280D02*
G01*
X5346206Y-7142430D01*
X5347703Y-7147364D01*
X5350133Y-7151911D01*
X5353404Y-7155896D01*
X5357389Y-7159167D01*
X5361936Y-7161597D01*
X5366870Y-7163094D01*
X5372020Y-7163601D01*
X5372182Y-7163717D01*
X5372163Y-7163916D01*
X5372000Y-7164000D01*
X5363790Y-7164000D01*
X5363771Y-7163999D01*
X5359720Y-7163600D01*
X5359682Y-7163592D01*
X5356377Y-7162590D01*
X5356341Y-7162575D01*
X5353295Y-7160947D01*
X5353263Y-7160925D01*
X5350593Y-7158734D01*
X5350566Y-7158707D01*
X5348375Y-7156037D01*
X5348353Y-7156005D01*
X5346725Y-7152959D01*
X5346710Y-7152923D01*
X5345708Y-7149618D01*
X5345700Y-7149580D01*
X5345301Y-7145529D01*
X5345300Y-7145510D01*
X5345300Y-7137300D01*
X5345400Y-7137127D01*
X5345600Y-7137127D01*
X5345699Y-7137280D01*
G37*
G36*
X9473199Y-7137280D02*
G01*
X9473706Y-7142430D01*
X9475203Y-7147364D01*
X9477633Y-7151911D01*
X9480904Y-7155896D01*
X9484889Y-7159167D01*
X9489436Y-7161597D01*
X9494370Y-7163094D01*
X9499520Y-7163601D01*
X9499682Y-7163717D01*
X9499663Y-7163916D01*
X9499500Y-7164000D01*
X9491290Y-7164000D01*
X9491271Y-7163999D01*
X9487220Y-7163600D01*
X9487182Y-7163592D01*
X9483877Y-7162590D01*
X9483841Y-7162575D01*
X9480795Y-7160947D01*
X9480763Y-7160925D01*
X9478093Y-7158734D01*
X9478066Y-7158707D01*
X9475875Y-7156037D01*
X9475853Y-7156005D01*
X9474225Y-7152959D01*
X9474210Y-7152923D01*
X9473208Y-7149618D01*
X9473200Y-7149580D01*
X9472801Y-7145529D01*
X9472800Y-7145510D01*
X9472800Y-7137300D01*
X9472900Y-7137127D01*
X9473100Y-7137127D01*
X9473199Y-7137280D01*
G37*
G36*
X6745016Y-7137137D02*
G01*
X6745100Y-7137300D01*
X6745100Y-7145510D01*
X6745099Y-7145529D01*
X6744700Y-7149580D01*
X6744692Y-7149618D01*
X6743690Y-7152923D01*
X6743675Y-7152959D01*
X6742047Y-7156005D01*
X6742025Y-7156037D01*
X6739834Y-7158707D01*
X6739807Y-7158734D01*
X6737137Y-7160925D01*
X6737105Y-7160947D01*
X6734059Y-7162575D01*
X6734023Y-7162590D01*
X6730718Y-7163592D01*
X6730680Y-7163600D01*
X6726629Y-7163999D01*
X6726610Y-7164000D01*
X6718400Y-7164000D01*
X6718227Y-7163900D01*
X6718227Y-7163700D01*
X6718380Y-7163601D01*
X6723530Y-7163094D01*
X6728464Y-7161597D01*
X6733011Y-7159167D01*
X6736996Y-7155896D01*
X6740267Y-7151911D01*
X6742697Y-7147364D01*
X6744194Y-7142430D01*
X6744701Y-7137280D01*
X6744817Y-7137118D01*
X6745016Y-7137137D01*
G37*
G36*
X9499673Y-6958500D02*
G01*
X9499673Y-6958700D01*
X9499520Y-6958799D01*
X9494370Y-6959306D01*
X9489436Y-6960803D01*
X9484889Y-6963233D01*
X9480904Y-6966504D01*
X9477633Y-6970489D01*
X9475203Y-6975036D01*
X9473706Y-6979970D01*
X9473199Y-6985120D01*
X9473083Y-6985282D01*
X9472884Y-6985263D01*
X9472800Y-6985100D01*
X9472800Y-6976890D01*
X9472801Y-6976871D01*
X9473200Y-6972820D01*
X9473208Y-6972782D01*
X9474210Y-6969477D01*
X9474225Y-6969440D01*
X9475853Y-6966395D01*
X9475875Y-6966363D01*
X9478066Y-6963693D01*
X9478093Y-6963665D01*
X9480763Y-6961475D01*
X9480795Y-6961453D01*
X9483841Y-6959825D01*
X9483877Y-6959810D01*
X9487182Y-6958807D01*
X9487220Y-6958800D01*
X9491271Y-6958401D01*
X9491290Y-6958400D01*
X9499500Y-6958400D01*
X9499673Y-6958500D01*
G37*
G36*
X5372173Y-6958500D02*
G01*
X5372173Y-6958700D01*
X5372020Y-6958799D01*
X5366870Y-6959306D01*
X5361936Y-6960803D01*
X5357389Y-6963233D01*
X5353404Y-6966504D01*
X5350133Y-6970489D01*
X5347703Y-6975036D01*
X5346206Y-6979970D01*
X5345699Y-6985120D01*
X5345583Y-6985282D01*
X5345384Y-6985263D01*
X5345300Y-6985100D01*
X5345300Y-6976890D01*
X5345301Y-6976871D01*
X5345700Y-6972820D01*
X5345708Y-6972782D01*
X5346710Y-6969477D01*
X5346725Y-6969440D01*
X5348353Y-6966395D01*
X5348375Y-6966363D01*
X5350566Y-6963693D01*
X5350593Y-6963665D01*
X5353263Y-6961475D01*
X5353295Y-6961453D01*
X5356341Y-6959825D01*
X5356377Y-6959810D01*
X5359682Y-6958807D01*
X5359720Y-6958800D01*
X5363771Y-6958401D01*
X5363790Y-6958400D01*
X5372000Y-6958400D01*
X5372173Y-6958500D01*
G37*
G36*
X8039173Y-6958500D02*
G01*
X8039173Y-6958700D01*
X8039020Y-6958799D01*
X8033870Y-6959306D01*
X8028936Y-6960803D01*
X8024389Y-6963233D01*
X8020404Y-6966504D01*
X8017133Y-6970489D01*
X8014703Y-6975036D01*
X8013206Y-6979970D01*
X8012699Y-6985120D01*
X8012582Y-6985282D01*
X8012383Y-6985263D01*
X8012300Y-6985100D01*
X8012300Y-6976890D01*
X8012301Y-6976871D01*
X8012700Y-6972820D01*
X8012707Y-6972782D01*
X8013710Y-6969477D01*
X8013725Y-6969440D01*
X8015353Y-6966395D01*
X8015375Y-6966363D01*
X8017565Y-6963693D01*
X8017593Y-6963665D01*
X8020263Y-6961475D01*
X8020295Y-6961453D01*
X8023340Y-6959825D01*
X8023377Y-6959810D01*
X8026682Y-6958807D01*
X8026720Y-6958800D01*
X8030771Y-6958401D01*
X8030790Y-6958400D01*
X8039000Y-6958400D01*
X8039173Y-6958500D01*
G37*
G36*
X6591373Y-6958500D02*
G01*
X6591373Y-6958700D01*
X6591220Y-6958799D01*
X6586070Y-6959306D01*
X6581136Y-6960803D01*
X6576589Y-6963233D01*
X6572604Y-6966504D01*
X6569333Y-6970489D01*
X6566903Y-6975036D01*
X6565406Y-6979970D01*
X6564899Y-6985120D01*
X6564782Y-6985282D01*
X6564583Y-6985263D01*
X6564500Y-6985100D01*
X6564500Y-6976890D01*
X6564501Y-6976871D01*
X6564900Y-6972820D01*
X6564907Y-6972782D01*
X6565910Y-6969477D01*
X6565925Y-6969440D01*
X6567553Y-6966395D01*
X6567575Y-6966363D01*
X6569765Y-6963693D01*
X6569793Y-6963665D01*
X6572463Y-6961475D01*
X6572495Y-6961453D01*
X6575540Y-6959825D01*
X6575577Y-6959810D01*
X6578882Y-6958807D01*
X6578920Y-6958800D01*
X6582971Y-6958401D01*
X6582990Y-6958400D01*
X6591200Y-6958400D01*
X6591373Y-6958500D01*
G37*
G36*
X4165673Y-6958500D02*
G01*
X4165673Y-6958700D01*
X4165520Y-6958799D01*
X4160370Y-6959306D01*
X4155436Y-6960803D01*
X4150889Y-6963233D01*
X4146904Y-6966504D01*
X4143633Y-6970489D01*
X4141203Y-6975036D01*
X4139706Y-6979970D01*
X4139199Y-6985120D01*
X4139082Y-6985282D01*
X4138883Y-6985263D01*
X4138800Y-6985100D01*
X4138800Y-6976890D01*
X4138801Y-6976871D01*
X4139200Y-6972820D01*
X4139207Y-6972782D01*
X4140210Y-6969477D01*
X4140225Y-6969440D01*
X4141853Y-6966395D01*
X4141875Y-6966363D01*
X4144065Y-6963693D01*
X4144093Y-6963665D01*
X4146763Y-6961475D01*
X4146795Y-6961453D01*
X4149840Y-6959825D01*
X4149877Y-6959810D01*
X4153182Y-6958807D01*
X4153220Y-6958800D01*
X4157271Y-6958401D01*
X4157290Y-6958400D01*
X4165500Y-6958400D01*
X4165673Y-6958500D01*
G37*
G36*
X9634929Y-6958401D02*
G01*
X9638980Y-6958800D01*
X9639018Y-6958807D01*
X9642323Y-6959810D01*
X9642360Y-6959825D01*
X9645405Y-6961453D01*
X9645437Y-6961475D01*
X9648107Y-6963665D01*
X9648135Y-6963693D01*
X9650325Y-6966363D01*
X9650347Y-6966395D01*
X9651975Y-6969440D01*
X9651990Y-6969477D01*
X9652993Y-6972782D01*
X9653000Y-6972820D01*
X9653399Y-6976871D01*
X9653400Y-6976890D01*
X9653400Y-6985100D01*
X9653300Y-6985273D01*
X9653100Y-6985273D01*
X9653001Y-6985120D01*
X9652494Y-6979970D01*
X9650997Y-6975036D01*
X9648567Y-6970489D01*
X9645296Y-6966504D01*
X9641311Y-6963233D01*
X9636764Y-6960803D01*
X9631830Y-6959306D01*
X9626680Y-6958799D01*
X9626518Y-6958682D01*
X9626537Y-6958483D01*
X9626700Y-6958400D01*
X9634910Y-6958400D01*
X9634929Y-6958401D01*
G37*
G36*
X8174429Y-6958401D02*
G01*
X8178480Y-6958800D01*
X8178518Y-6958807D01*
X8181823Y-6959810D01*
X8181859Y-6959825D01*
X8184905Y-6961453D01*
X8184937Y-6961475D01*
X8187607Y-6963665D01*
X8187634Y-6963693D01*
X8189825Y-6966363D01*
X8189847Y-6966395D01*
X8191475Y-6969440D01*
X8191490Y-6969477D01*
X8192492Y-6972782D01*
X8192500Y-6972820D01*
X8192899Y-6976871D01*
X8192900Y-6976890D01*
X8192900Y-6985100D01*
X8192800Y-6985273D01*
X8192600Y-6985273D01*
X8192501Y-6985120D01*
X8191994Y-6979970D01*
X8190497Y-6975036D01*
X8188067Y-6970489D01*
X8184796Y-6966504D01*
X8180811Y-6963233D01*
X8176264Y-6960803D01*
X8171330Y-6959306D01*
X8166180Y-6958799D01*
X8166018Y-6958682D01*
X8166037Y-6958483D01*
X8166200Y-6958400D01*
X8174410Y-6958400D01*
X8174429Y-6958401D01*
G37*
G36*
X6726629Y-6958401D02*
G01*
X6730680Y-6958800D01*
X6730718Y-6958807D01*
X6734023Y-6959810D01*
X6734059Y-6959825D01*
X6737105Y-6961453D01*
X6737137Y-6961475D01*
X6739807Y-6963665D01*
X6739834Y-6963693D01*
X6742025Y-6966363D01*
X6742047Y-6966395D01*
X6743675Y-6969440D01*
X6743690Y-6969477D01*
X6744692Y-6972782D01*
X6744700Y-6972820D01*
X6745099Y-6976871D01*
X6745100Y-6976890D01*
X6745100Y-6985100D01*
X6745000Y-6985273D01*
X6744800Y-6985273D01*
X6744701Y-6985120D01*
X6744194Y-6979970D01*
X6742697Y-6975036D01*
X6740267Y-6970489D01*
X6736996Y-6966504D01*
X6733011Y-6963233D01*
X6728464Y-6960803D01*
X6723530Y-6959306D01*
X6718380Y-6958799D01*
X6718218Y-6958682D01*
X6718237Y-6958483D01*
X6718400Y-6958400D01*
X6726610Y-6958400D01*
X6726629Y-6958401D01*
G37*
G36*
X5507429Y-6958401D02*
G01*
X5511480Y-6958800D01*
X5511518Y-6958807D01*
X5514823Y-6959810D01*
X5514860Y-6959825D01*
X5517905Y-6961453D01*
X5517937Y-6961475D01*
X5520607Y-6963665D01*
X5520635Y-6963693D01*
X5522825Y-6966363D01*
X5522847Y-6966395D01*
X5524475Y-6969440D01*
X5524490Y-6969477D01*
X5525493Y-6972782D01*
X5525500Y-6972820D01*
X5525899Y-6976871D01*
X5525900Y-6976890D01*
X5525900Y-6985100D01*
X5525800Y-6985273D01*
X5525600Y-6985273D01*
X5525501Y-6985120D01*
X5524994Y-6979970D01*
X5523497Y-6975036D01*
X5521067Y-6970489D01*
X5517796Y-6966504D01*
X5513811Y-6963233D01*
X5509264Y-6960803D01*
X5504330Y-6959306D01*
X5499180Y-6958799D01*
X5499018Y-6958682D01*
X5499037Y-6958483D01*
X5499200Y-6958400D01*
X5507410Y-6958400D01*
X5507429Y-6958401D01*
G37*
G36*
X4300929Y-6958401D02*
G01*
X4304980Y-6958800D01*
X4305018Y-6958807D01*
X4308323Y-6959810D01*
X4308360Y-6959825D01*
X4311405Y-6961453D01*
X4311437Y-6961475D01*
X4314107Y-6963665D01*
X4314135Y-6963693D01*
X4316325Y-6966363D01*
X4316347Y-6966395D01*
X4317975Y-6969440D01*
X4317990Y-6969477D01*
X4318993Y-6972782D01*
X4319000Y-6972820D01*
X4319399Y-6976871D01*
X4319400Y-6976890D01*
X4319400Y-6985100D01*
X4319300Y-6985273D01*
X4319100Y-6985273D01*
X4319001Y-6985120D01*
X4318494Y-6979970D01*
X4316997Y-6975036D01*
X4314567Y-6970489D01*
X4311296Y-6966504D01*
X4307311Y-6963233D01*
X4302764Y-6960803D01*
X4297830Y-6959306D01*
X4292680Y-6958799D01*
X4292518Y-6958682D01*
X4292537Y-6958483D01*
X4292700Y-6958400D01*
X4300910Y-6958400D01*
X4300929Y-6958401D01*
G37*
G36*
X3187773Y-6956000D02*
G01*
X3187773Y-6956200D01*
X3187620Y-6956299D01*
X3182470Y-6956806D01*
X3177536Y-6958303D01*
X3172989Y-6960733D01*
X3169004Y-6964004D01*
X3165733Y-6967989D01*
X3163303Y-6972536D01*
X3161806Y-6977470D01*
X3161299Y-6982620D01*
X3161182Y-6982782D01*
X3160983Y-6982763D01*
X3160900Y-6982600D01*
X3160900Y-6974390D01*
X3160901Y-6974371D01*
X3161300Y-6970320D01*
X3161307Y-6970282D01*
X3162310Y-6966977D01*
X3162325Y-6966940D01*
X3163953Y-6963895D01*
X3163975Y-6963863D01*
X3166165Y-6961193D01*
X3166193Y-6961165D01*
X3168863Y-6958975D01*
X3168895Y-6958953D01*
X3171940Y-6957325D01*
X3171977Y-6957310D01*
X3175282Y-6956307D01*
X3175320Y-6956300D01*
X3179371Y-6955901D01*
X3179390Y-6955900D01*
X3187600Y-6955900D01*
X3187773Y-6956000D01*
G37*
G36*
X3323029Y-6955901D02*
G01*
X3327080Y-6956300D01*
X3327118Y-6956307D01*
X3330423Y-6957310D01*
X3330459Y-6957325D01*
X3333505Y-6958953D01*
X3333537Y-6958975D01*
X3336207Y-6961165D01*
X3336234Y-6961193D01*
X3338425Y-6963863D01*
X3338447Y-6963895D01*
X3340075Y-6966940D01*
X3340090Y-6966977D01*
X3341092Y-6970282D01*
X3341100Y-6970320D01*
X3341499Y-6974371D01*
X3341500Y-6974390D01*
X3341500Y-6982600D01*
X3341400Y-6982773D01*
X3341200Y-6982773D01*
X3341101Y-6982620D01*
X3340594Y-6977470D01*
X3339097Y-6972536D01*
X3336667Y-6967989D01*
X3333396Y-6964004D01*
X3329411Y-6960733D01*
X3324864Y-6958303D01*
X3319930Y-6956806D01*
X3314780Y-6956299D01*
X3314618Y-6956182D01*
X3314637Y-6955983D01*
X3314800Y-6955900D01*
X3323010Y-6955900D01*
X3323029Y-6955901D01*
G37*
G36*
X5525817Y-6337037D02*
G01*
X5525900Y-6337200D01*
X5525900Y-6345410D01*
X5525899Y-6345429D01*
X5525500Y-6349480D01*
X5525493Y-6349518D01*
X5524490Y-6352823D01*
X5524475Y-6352859D01*
X5522847Y-6355905D01*
X5522825Y-6355937D01*
X5520635Y-6358607D01*
X5520607Y-6358634D01*
X5517937Y-6360825D01*
X5517905Y-6360847D01*
X5514860Y-6362475D01*
X5514823Y-6362490D01*
X5511518Y-6363492D01*
X5511480Y-6363500D01*
X5507429Y-6363899D01*
X5507410Y-6363900D01*
X5499200Y-6363900D01*
X5499027Y-6363800D01*
X5499027Y-6363600D01*
X5499180Y-6363501D01*
X5504330Y-6362994D01*
X5509264Y-6361497D01*
X5513811Y-6359067D01*
X5517796Y-6355796D01*
X5521067Y-6351811D01*
X5523497Y-6347264D01*
X5524994Y-6342330D01*
X5525501Y-6337180D01*
X5525618Y-6337018D01*
X5525817Y-6337037D01*
G37*
G36*
X4319317Y-6337037D02*
G01*
X4319400Y-6337200D01*
X4319400Y-6345410D01*
X4319399Y-6345429D01*
X4319000Y-6349480D01*
X4318993Y-6349518D01*
X4317990Y-6352823D01*
X4317975Y-6352859D01*
X4316347Y-6355905D01*
X4316325Y-6355937D01*
X4314135Y-6358607D01*
X4314107Y-6358634D01*
X4311437Y-6360825D01*
X4311405Y-6360847D01*
X4308360Y-6362475D01*
X4308323Y-6362490D01*
X4305018Y-6363492D01*
X4304980Y-6363500D01*
X4300929Y-6363899D01*
X4300910Y-6363900D01*
X4292700Y-6363900D01*
X4292527Y-6363800D01*
X4292527Y-6363600D01*
X4292680Y-6363501D01*
X4297830Y-6362994D01*
X4302764Y-6361497D01*
X4307311Y-6359067D01*
X4311296Y-6355796D01*
X4314567Y-6351811D01*
X4316997Y-6347264D01*
X4318494Y-6342330D01*
X4319001Y-6337180D01*
X4319118Y-6337018D01*
X4319317Y-6337037D01*
G37*
G36*
X5345699Y-6337180D02*
G01*
X5346206Y-6342330D01*
X5347703Y-6347264D01*
X5350133Y-6351811D01*
X5353404Y-6355796D01*
X5357389Y-6359067D01*
X5361936Y-6361497D01*
X5366870Y-6362994D01*
X5372020Y-6363501D01*
X5372182Y-6363617D01*
X5372163Y-6363816D01*
X5372000Y-6363900D01*
X5363790Y-6363900D01*
X5363771Y-6363899D01*
X5359720Y-6363500D01*
X5359682Y-6363492D01*
X5356377Y-6362490D01*
X5356341Y-6362475D01*
X5353295Y-6360847D01*
X5353263Y-6360825D01*
X5350593Y-6358634D01*
X5350566Y-6358607D01*
X5348375Y-6355937D01*
X5348353Y-6355905D01*
X5346725Y-6352859D01*
X5346710Y-6352823D01*
X5345708Y-6349518D01*
X5345700Y-6349480D01*
X5345301Y-6345429D01*
X5345300Y-6345410D01*
X5345300Y-6337200D01*
X5345400Y-6337027D01*
X5345600Y-6337027D01*
X5345699Y-6337180D01*
G37*
G36*
X4139199Y-6337180D02*
G01*
X4139706Y-6342330D01*
X4141203Y-6347264D01*
X4143633Y-6351811D01*
X4146904Y-6355796D01*
X4150889Y-6359067D01*
X4155436Y-6361497D01*
X4160370Y-6362994D01*
X4165520Y-6363501D01*
X4165682Y-6363617D01*
X4165663Y-6363816D01*
X4165500Y-6363900D01*
X4157290Y-6363900D01*
X4157271Y-6363899D01*
X4153220Y-6363500D01*
X4153182Y-6363492D01*
X4149877Y-6362490D01*
X4149840Y-6362475D01*
X4146795Y-6360847D01*
X4146763Y-6360825D01*
X4144093Y-6358634D01*
X4144065Y-6358607D01*
X4141875Y-6355937D01*
X4141853Y-6355905D01*
X4140225Y-6352859D01*
X4140210Y-6352823D01*
X4139207Y-6349518D01*
X4139200Y-6349480D01*
X4138801Y-6345429D01*
X4138800Y-6345410D01*
X4138800Y-6337200D01*
X4138900Y-6337027D01*
X4139100Y-6337027D01*
X4139199Y-6337180D01*
G37*
G36*
X13293599Y-6286580D02*
G01*
X13294106Y-6291730D01*
X13295603Y-6296664D01*
X13298033Y-6301211D01*
X13301304Y-6305196D01*
X13305289Y-6308467D01*
X13309836Y-6310897D01*
X13314770Y-6312394D01*
X13319920Y-6312901D01*
X13320082Y-6313017D01*
X13320063Y-6313216D01*
X13319900Y-6313300D01*
X13311690Y-6313300D01*
X13311671Y-6313299D01*
X13307620Y-6312900D01*
X13307582Y-6312892D01*
X13304277Y-6311890D01*
X13304240Y-6311875D01*
X13301195Y-6310247D01*
X13301163Y-6310225D01*
X13298493Y-6308034D01*
X13298465Y-6308007D01*
X13296275Y-6305337D01*
X13296253Y-6305305D01*
X13294625Y-6302259D01*
X13294610Y-6302223D01*
X13293607Y-6298918D01*
X13293600Y-6298880D01*
X13293201Y-6294829D01*
X13293200Y-6294810D01*
X13293200Y-6286600D01*
X13293300Y-6286427D01*
X13293500Y-6286427D01*
X13293599Y-6286580D01*
G37*
G36*
X13503716Y-6286437D02*
G01*
X13503800Y-6286600D01*
X13503800Y-6294810D01*
X13503799Y-6294829D01*
X13503400Y-6298880D01*
X13503392Y-6298918D01*
X13502390Y-6302223D01*
X13502375Y-6302259D01*
X13500747Y-6305305D01*
X13500725Y-6305337D01*
X13498534Y-6308007D01*
X13498507Y-6308034D01*
X13495837Y-6310225D01*
X13495805Y-6310247D01*
X13492759Y-6311875D01*
X13492723Y-6311890D01*
X13489418Y-6312892D01*
X13489380Y-6312900D01*
X13485329Y-6313299D01*
X13485310Y-6313300D01*
X13477100Y-6313300D01*
X13476927Y-6313200D01*
X13476927Y-6313000D01*
X13477080Y-6312901D01*
X13482230Y-6312394D01*
X13487164Y-6310897D01*
X13491711Y-6308467D01*
X13495696Y-6305196D01*
X13498967Y-6301211D01*
X13501397Y-6296664D01*
X13502894Y-6291730D01*
X13503401Y-6286580D01*
X13503517Y-6286418D01*
X13503716Y-6286437D01*
G37*
G36*
X4165673Y-6158400D02*
G01*
X4165673Y-6158600D01*
X4165520Y-6158699D01*
X4160370Y-6159206D01*
X4155436Y-6160703D01*
X4150889Y-6163133D01*
X4146904Y-6166404D01*
X4143633Y-6170389D01*
X4141203Y-6174936D01*
X4139706Y-6179870D01*
X4139199Y-6185020D01*
X4139082Y-6185182D01*
X4138883Y-6185163D01*
X4138800Y-6185000D01*
X4138800Y-6176790D01*
X4138801Y-6176771D01*
X4139200Y-6172720D01*
X4139207Y-6172682D01*
X4140210Y-6169377D01*
X4140225Y-6169340D01*
X4141853Y-6166295D01*
X4141875Y-6166263D01*
X4144065Y-6163593D01*
X4144093Y-6163565D01*
X4146763Y-6161375D01*
X4146795Y-6161353D01*
X4149840Y-6159725D01*
X4149877Y-6159710D01*
X4153182Y-6158707D01*
X4153220Y-6158700D01*
X4157271Y-6158301D01*
X4157290Y-6158300D01*
X4165500Y-6158300D01*
X4165673Y-6158400D01*
G37*
G36*
X5372173Y-6158400D02*
G01*
X5372173Y-6158600D01*
X5372020Y-6158699D01*
X5366870Y-6159206D01*
X5361936Y-6160703D01*
X5357389Y-6163133D01*
X5353404Y-6166404D01*
X5350133Y-6170389D01*
X5347703Y-6174936D01*
X5346206Y-6179870D01*
X5345699Y-6185020D01*
X5345583Y-6185182D01*
X5345384Y-6185163D01*
X5345300Y-6185000D01*
X5345300Y-6176790D01*
X5345301Y-6176771D01*
X5345700Y-6172720D01*
X5345708Y-6172682D01*
X5346710Y-6169377D01*
X5346725Y-6169340D01*
X5348353Y-6166295D01*
X5348375Y-6166263D01*
X5350566Y-6163593D01*
X5350593Y-6163565D01*
X5353263Y-6161375D01*
X5353295Y-6161353D01*
X5356341Y-6159725D01*
X5356377Y-6159710D01*
X5359682Y-6158707D01*
X5359720Y-6158700D01*
X5363771Y-6158301D01*
X5363790Y-6158300D01*
X5372000Y-6158300D01*
X5372173Y-6158400D01*
G37*
G36*
X4300929Y-6158301D02*
G01*
X4304980Y-6158700D01*
X4305018Y-6158707D01*
X4308323Y-6159710D01*
X4308360Y-6159725D01*
X4311405Y-6161353D01*
X4311437Y-6161375D01*
X4314107Y-6163565D01*
X4314135Y-6163593D01*
X4316325Y-6166263D01*
X4316347Y-6166295D01*
X4317975Y-6169340D01*
X4317990Y-6169377D01*
X4318993Y-6172682D01*
X4319000Y-6172720D01*
X4319399Y-6176771D01*
X4319400Y-6176790D01*
X4319400Y-6185000D01*
X4319300Y-6185173D01*
X4319100Y-6185173D01*
X4319001Y-6185020D01*
X4318494Y-6179870D01*
X4316997Y-6174936D01*
X4314567Y-6170389D01*
X4311296Y-6166404D01*
X4307311Y-6163133D01*
X4302764Y-6160703D01*
X4297830Y-6159206D01*
X4292680Y-6158699D01*
X4292518Y-6158582D01*
X4292537Y-6158383D01*
X4292700Y-6158300D01*
X4300910Y-6158300D01*
X4300929Y-6158301D01*
G37*
G36*
X5507429Y-6158301D02*
G01*
X5511480Y-6158700D01*
X5511518Y-6158707D01*
X5514823Y-6159710D01*
X5514860Y-6159725D01*
X5517905Y-6161353D01*
X5517937Y-6161375D01*
X5520607Y-6163565D01*
X5520635Y-6163593D01*
X5522825Y-6166263D01*
X5522847Y-6166295D01*
X5524475Y-6169340D01*
X5524490Y-6169377D01*
X5525493Y-6172682D01*
X5525500Y-6172720D01*
X5525899Y-6176771D01*
X5525900Y-6176790D01*
X5525900Y-6185000D01*
X5525800Y-6185173D01*
X5525600Y-6185173D01*
X5525501Y-6185020D01*
X5524994Y-6179870D01*
X5523497Y-6174936D01*
X5521067Y-6170389D01*
X5517796Y-6166404D01*
X5513811Y-6163133D01*
X5509264Y-6160703D01*
X5504330Y-6159206D01*
X5499180Y-6158699D01*
X5499018Y-6158582D01*
X5499037Y-6158383D01*
X5499200Y-6158300D01*
X5507410Y-6158300D01*
X5507429Y-6158301D01*
G37*
G36*
X13320073Y-6132800D02*
G01*
X13320073Y-6133000D01*
X13319920Y-6133099D01*
X13314770Y-6133606D01*
X13309836Y-6135103D01*
X13305289Y-6137533D01*
X13301304Y-6140804D01*
X13298033Y-6144789D01*
X13295603Y-6149336D01*
X13294106Y-6154270D01*
X13293599Y-6159420D01*
X13293482Y-6159582D01*
X13293283Y-6159563D01*
X13293200Y-6159400D01*
X13293200Y-6151190D01*
X13293201Y-6151171D01*
X13293600Y-6147120D01*
X13293607Y-6147082D01*
X13294610Y-6143777D01*
X13294625Y-6143740D01*
X13296253Y-6140695D01*
X13296275Y-6140663D01*
X13298465Y-6137993D01*
X13298493Y-6137965D01*
X13301163Y-6135775D01*
X13301195Y-6135753D01*
X13304240Y-6134125D01*
X13304277Y-6134110D01*
X13307582Y-6133107D01*
X13307620Y-6133100D01*
X13311671Y-6132701D01*
X13311690Y-6132700D01*
X13319900Y-6132700D01*
X13320073Y-6132800D01*
G37*
G36*
X13485329Y-6132701D02*
G01*
X13489380Y-6133100D01*
X13489418Y-6133107D01*
X13492723Y-6134110D01*
X13492759Y-6134125D01*
X13495805Y-6135753D01*
X13495837Y-6135775D01*
X13498507Y-6137965D01*
X13498534Y-6137993D01*
X13500725Y-6140663D01*
X13500747Y-6140695D01*
X13502375Y-6143740D01*
X13502390Y-6143777D01*
X13503392Y-6147082D01*
X13503400Y-6147120D01*
X13503799Y-6151171D01*
X13503800Y-6151190D01*
X13503800Y-6159400D01*
X13503700Y-6159573D01*
X13503500Y-6159573D01*
X13503401Y-6159420D01*
X13502894Y-6154270D01*
X13501397Y-6149336D01*
X13498967Y-6144789D01*
X13495696Y-6140804D01*
X13491711Y-6137533D01*
X13487164Y-6135103D01*
X13482230Y-6133606D01*
X13477080Y-6133099D01*
X13476918Y-6132982D01*
X13476937Y-6132783D01*
X13477100Y-6132700D01*
X13485310Y-6132700D01*
X13485329Y-6132701D01*
G37*
G36*
X10707217Y-5905437D02*
G01*
X10707300Y-5905600D01*
X10707300Y-5913810D01*
X10707299Y-5913829D01*
X10706900Y-5917880D01*
X10706893Y-5917918D01*
X10705890Y-5921223D01*
X10705875Y-5921259D01*
X10704247Y-5924305D01*
X10704225Y-5924337D01*
X10702035Y-5927007D01*
X10702007Y-5927034D01*
X10699337Y-5929225D01*
X10699305Y-5929247D01*
X10696260Y-5930875D01*
X10696223Y-5930890D01*
X10692918Y-5931892D01*
X10692880Y-5931900D01*
X10688829Y-5932299D01*
X10688810Y-5932300D01*
X10680600Y-5932300D01*
X10680427Y-5932200D01*
X10680427Y-5932000D01*
X10680580Y-5931901D01*
X10685730Y-5931394D01*
X10690664Y-5929897D01*
X10695211Y-5927467D01*
X10699196Y-5924196D01*
X10702467Y-5920211D01*
X10704897Y-5915664D01*
X10706394Y-5910730D01*
X10706901Y-5905580D01*
X10707018Y-5905418D01*
X10707217Y-5905437D01*
G37*
G36*
X10502099Y-5905580D02*
G01*
X10502606Y-5910730D01*
X10504103Y-5915664D01*
X10506533Y-5920211D01*
X10509804Y-5924196D01*
X10513789Y-5927467D01*
X10518336Y-5929897D01*
X10523270Y-5931394D01*
X10528420Y-5931901D01*
X10528582Y-5932017D01*
X10528563Y-5932216D01*
X10528400Y-5932300D01*
X10520190Y-5932300D01*
X10520171Y-5932299D01*
X10516120Y-5931900D01*
X10516082Y-5931892D01*
X10512777Y-5930890D01*
X10512741Y-5930875D01*
X10509695Y-5929247D01*
X10509663Y-5929225D01*
X10506993Y-5927034D01*
X10506966Y-5927007D01*
X10504775Y-5924337D01*
X10504753Y-5924305D01*
X10503125Y-5921259D01*
X10503110Y-5921223D01*
X10502108Y-5917918D01*
X10502100Y-5917880D01*
X10501701Y-5913829D01*
X10501700Y-5913810D01*
X10501700Y-5905600D01*
X10501800Y-5905427D01*
X10502000Y-5905427D01*
X10502099Y-5905580D01*
G37*
G36*
X735516Y-5746666D02*
G01*
X735600Y-5746829D01*
X735600Y-5810171D01*
X735500Y-5810344D01*
X735300Y-5810344D01*
X735201Y-5810190D01*
X734963Y-5807772D01*
X734263Y-5805464D01*
X733126Y-5803338D01*
X731597Y-5801474D01*
X729733Y-5799945D01*
X727607Y-5798808D01*
X725299Y-5798108D01*
X722900Y-5797872D01*
X720501Y-5798108D01*
X718193Y-5798808D01*
X716067Y-5799945D01*
X714203Y-5801474D01*
X712674Y-5803338D01*
X711817Y-5804941D01*
X711647Y-5805046D01*
X711471Y-5804952D01*
X711456Y-5804770D01*
X711528Y-5804596D01*
X714966Y-5787311D01*
X714966Y-5769689D01*
X711528Y-5752404D01*
X711456Y-5752230D01*
X711482Y-5752032D01*
X711667Y-5751955D01*
X711817Y-5752059D01*
X712674Y-5753662D01*
X714203Y-5755526D01*
X716067Y-5757055D01*
X718193Y-5758192D01*
X720501Y-5758892D01*
X722900Y-5759128D01*
X725299Y-5758892D01*
X727607Y-5758192D01*
X729733Y-5757055D01*
X731597Y-5755526D01*
X733126Y-5753662D01*
X734263Y-5751536D01*
X734963Y-5749228D01*
X735201Y-5746809D01*
X735317Y-5746647D01*
X735516Y-5746666D01*
G37*
G36*
X10528573Y-5751800D02*
G01*
X10528573Y-5752000D01*
X10528420Y-5752099D01*
X10523270Y-5752606D01*
X10518336Y-5754103D01*
X10513789Y-5756533D01*
X10509804Y-5759804D01*
X10506533Y-5763789D01*
X10504103Y-5768336D01*
X10502606Y-5773270D01*
X10502099Y-5778420D01*
X10501983Y-5778582D01*
X10501784Y-5778563D01*
X10501700Y-5778400D01*
X10501700Y-5770190D01*
X10501701Y-5770171D01*
X10502100Y-5766120D01*
X10502108Y-5766082D01*
X10503110Y-5762777D01*
X10503125Y-5762740D01*
X10504753Y-5759695D01*
X10504775Y-5759663D01*
X10506966Y-5756993D01*
X10506993Y-5756965D01*
X10509663Y-5754775D01*
X10509695Y-5754753D01*
X10512741Y-5753125D01*
X10512777Y-5753110D01*
X10516082Y-5752107D01*
X10516120Y-5752100D01*
X10520171Y-5751701D01*
X10520190Y-5751700D01*
X10528400Y-5751700D01*
X10528573Y-5751800D01*
G37*
G36*
X10688829Y-5751701D02*
G01*
X10692880Y-5752100D01*
X10692918Y-5752107D01*
X10696223Y-5753110D01*
X10696260Y-5753125D01*
X10699305Y-5754753D01*
X10699337Y-5754775D01*
X10702007Y-5756965D01*
X10702035Y-5756993D01*
X10704225Y-5759663D01*
X10704247Y-5759695D01*
X10705875Y-5762740D01*
X10705890Y-5762777D01*
X10706893Y-5766082D01*
X10706900Y-5766120D01*
X10707299Y-5770171D01*
X10707300Y-5770190D01*
X10707300Y-5778400D01*
X10707200Y-5778573D01*
X10707000Y-5778573D01*
X10706901Y-5778420D01*
X10706394Y-5773270D01*
X10704897Y-5768336D01*
X10702467Y-5763789D01*
X10699196Y-5759804D01*
X10695211Y-5756533D01*
X10690664Y-5754103D01*
X10685730Y-5752606D01*
X10680580Y-5752099D01*
X10680418Y-5751982D01*
X10680437Y-5751783D01*
X10680600Y-5751700D01*
X10688810Y-5751700D01*
X10688829Y-5751701D01*
G37*
G36*
X8254199Y-5651580D02*
G01*
X8254706Y-5656730D01*
X8256203Y-5661664D01*
X8258633Y-5666211D01*
X8261904Y-5670196D01*
X8265889Y-5673467D01*
X8270436Y-5675897D01*
X8275370Y-5677394D01*
X8280520Y-5677901D01*
X8280682Y-5678017D01*
X8280663Y-5678216D01*
X8280500Y-5678300D01*
X8272290Y-5678300D01*
X8272271Y-5678299D01*
X8268220Y-5677900D01*
X8268182Y-5677892D01*
X8264877Y-5676890D01*
X8264840Y-5676875D01*
X8261795Y-5675247D01*
X8261763Y-5675225D01*
X8259093Y-5673034D01*
X8259065Y-5673007D01*
X8256875Y-5670337D01*
X8256853Y-5670305D01*
X8255225Y-5667259D01*
X8255210Y-5667223D01*
X8254207Y-5663918D01*
X8254200Y-5663880D01*
X8253801Y-5659829D01*
X8253800Y-5659810D01*
X8253800Y-5651600D01*
X8253900Y-5651427D01*
X8254100Y-5651427D01*
X8254199Y-5651580D01*
G37*
G36*
X9238017Y-5651437D02*
G01*
X9238100Y-5651600D01*
X9238100Y-5659810D01*
X9238099Y-5659829D01*
X9237700Y-5663880D01*
X9237693Y-5663918D01*
X9236690Y-5667223D01*
X9236675Y-5667259D01*
X9235047Y-5670305D01*
X9235025Y-5670337D01*
X9232835Y-5673007D01*
X9232807Y-5673034D01*
X9230137Y-5675225D01*
X9230105Y-5675247D01*
X9227060Y-5676875D01*
X9227023Y-5676890D01*
X9223718Y-5677892D01*
X9223680Y-5677900D01*
X9219629Y-5678299D01*
X9219610Y-5678300D01*
X9211400Y-5678300D01*
X9211227Y-5678200D01*
X9211227Y-5678000D01*
X9211380Y-5677901D01*
X9216530Y-5677394D01*
X9221464Y-5675897D01*
X9226011Y-5673467D01*
X9229996Y-5670196D01*
X9233267Y-5666211D01*
X9235697Y-5661664D01*
X9237194Y-5656730D01*
X9237701Y-5651580D01*
X9237818Y-5651418D01*
X9238017Y-5651437D01*
G37*
G36*
X7466799Y-5651580D02*
G01*
X7467306Y-5656730D01*
X7468803Y-5661664D01*
X7471233Y-5666211D01*
X7474504Y-5670196D01*
X7478489Y-5673467D01*
X7483036Y-5675897D01*
X7487970Y-5677394D01*
X7493120Y-5677901D01*
X7493282Y-5678017D01*
X7493263Y-5678216D01*
X7493100Y-5678300D01*
X7484890Y-5678300D01*
X7484871Y-5678299D01*
X7480820Y-5677900D01*
X7480782Y-5677892D01*
X7477477Y-5676890D01*
X7477440Y-5676875D01*
X7474395Y-5675247D01*
X7474363Y-5675225D01*
X7471693Y-5673034D01*
X7471665Y-5673007D01*
X7469475Y-5670337D01*
X7469453Y-5670305D01*
X7467825Y-5667259D01*
X7467810Y-5667223D01*
X7466807Y-5663918D01*
X7466800Y-5663880D01*
X7466401Y-5659829D01*
X7466400Y-5659810D01*
X7466400Y-5651600D01*
X7466500Y-5651427D01*
X7466700Y-5651427D01*
X7466799Y-5651580D01*
G37*
G36*
X9032899Y-5651580D02*
G01*
X9033406Y-5656730D01*
X9034903Y-5661664D01*
X9037333Y-5666211D01*
X9040604Y-5670196D01*
X9044589Y-5673467D01*
X9049136Y-5675897D01*
X9054070Y-5677394D01*
X9059220Y-5677901D01*
X9059382Y-5678017D01*
X9059363Y-5678216D01*
X9059200Y-5678300D01*
X9050990Y-5678300D01*
X9050971Y-5678299D01*
X9046920Y-5677900D01*
X9046882Y-5677892D01*
X9043577Y-5676890D01*
X9043541Y-5676875D01*
X9040495Y-5675247D01*
X9040463Y-5675225D01*
X9037793Y-5673034D01*
X9037766Y-5673007D01*
X9035575Y-5670337D01*
X9035553Y-5670305D01*
X9033925Y-5667259D01*
X9033910Y-5667223D01*
X9032908Y-5663918D01*
X9032900Y-5663880D01*
X9032501Y-5659829D01*
X9032500Y-5659810D01*
X9032500Y-5651600D01*
X9032600Y-5651427D01*
X9032800Y-5651427D01*
X9032899Y-5651580D01*
G37*
G36*
X8459317Y-5651437D02*
G01*
X8459400Y-5651600D01*
X8459400Y-5659810D01*
X8459399Y-5659829D01*
X8459000Y-5663880D01*
X8458993Y-5663918D01*
X8457990Y-5667223D01*
X8457975Y-5667259D01*
X8456347Y-5670305D01*
X8456325Y-5670337D01*
X8454135Y-5673007D01*
X8454107Y-5673034D01*
X8451437Y-5675225D01*
X8451405Y-5675247D01*
X8448360Y-5676875D01*
X8448323Y-5676890D01*
X8445018Y-5677892D01*
X8444980Y-5677900D01*
X8440929Y-5678299D01*
X8440910Y-5678300D01*
X8432700Y-5678300D01*
X8432527Y-5678200D01*
X8432527Y-5678000D01*
X8432680Y-5677901D01*
X8437830Y-5677394D01*
X8442764Y-5675897D01*
X8447311Y-5673467D01*
X8451296Y-5670196D01*
X8454567Y-5666211D01*
X8456997Y-5661664D01*
X8458494Y-5656730D01*
X8459001Y-5651580D01*
X8459118Y-5651418D01*
X8459317Y-5651437D01*
G37*
G36*
X9778199Y-5651580D02*
G01*
X9778706Y-5656730D01*
X9780203Y-5661664D01*
X9782633Y-5666211D01*
X9785904Y-5670196D01*
X9789889Y-5673467D01*
X9794436Y-5675897D01*
X9799370Y-5677394D01*
X9804520Y-5677901D01*
X9804682Y-5678017D01*
X9804663Y-5678216D01*
X9804500Y-5678300D01*
X9796290Y-5678300D01*
X9796271Y-5678299D01*
X9792220Y-5677900D01*
X9792182Y-5677892D01*
X9788877Y-5676890D01*
X9788841Y-5676875D01*
X9785795Y-5675247D01*
X9785763Y-5675225D01*
X9783093Y-5673034D01*
X9783066Y-5673007D01*
X9780875Y-5670337D01*
X9780853Y-5670305D01*
X9779225Y-5667259D01*
X9779210Y-5667223D01*
X9778208Y-5663918D01*
X9778200Y-5663880D01*
X9777801Y-5659829D01*
X9777800Y-5659810D01*
X9777800Y-5651600D01*
X9777900Y-5651427D01*
X9778100Y-5651427D01*
X9778199Y-5651580D01*
G37*
G36*
X9983317Y-5651437D02*
G01*
X9983400Y-5651600D01*
X9983400Y-5659810D01*
X9983399Y-5659829D01*
X9983000Y-5663880D01*
X9982993Y-5663918D01*
X9981990Y-5667223D01*
X9981975Y-5667259D01*
X9980347Y-5670305D01*
X9980325Y-5670337D01*
X9978135Y-5673007D01*
X9978107Y-5673034D01*
X9975437Y-5675225D01*
X9975405Y-5675247D01*
X9972360Y-5676875D01*
X9972323Y-5676890D01*
X9969018Y-5677892D01*
X9968980Y-5677900D01*
X9964929Y-5678299D01*
X9964910Y-5678300D01*
X9956700Y-5678300D01*
X9956527Y-5678200D01*
X9956527Y-5678000D01*
X9956680Y-5677901D01*
X9961830Y-5677394D01*
X9966764Y-5675897D01*
X9971311Y-5673467D01*
X9975296Y-5670196D01*
X9978567Y-5666211D01*
X9980997Y-5661664D01*
X9982494Y-5656730D01*
X9983001Y-5651580D01*
X9983118Y-5651418D01*
X9983317Y-5651437D01*
G37*
G36*
X7671916Y-5651437D02*
G01*
X7672000Y-5651600D01*
X7672000Y-5659810D01*
X7671999Y-5659829D01*
X7671600Y-5663880D01*
X7671592Y-5663918D01*
X7670590Y-5667223D01*
X7670575Y-5667259D01*
X7668947Y-5670305D01*
X7668925Y-5670337D01*
X7666734Y-5673007D01*
X7666707Y-5673034D01*
X7664037Y-5675225D01*
X7664005Y-5675247D01*
X7660959Y-5676875D01*
X7660923Y-5676890D01*
X7657618Y-5677892D01*
X7657580Y-5677900D01*
X7653529Y-5678299D01*
X7653510Y-5678300D01*
X7645300Y-5678300D01*
X7645127Y-5678200D01*
X7645127Y-5678000D01*
X7645280Y-5677901D01*
X7650430Y-5677394D01*
X7655364Y-5675897D01*
X7659911Y-5673467D01*
X7663896Y-5670196D01*
X7667167Y-5666211D01*
X7669597Y-5661664D01*
X7671094Y-5656730D01*
X7671601Y-5651580D01*
X7671717Y-5651418D01*
X7671916Y-5651437D01*
G37*
G36*
X737728Y-5510745D02*
G01*
X737778Y-5510921D01*
X736034Y-5519689D01*
X736034Y-5537311D01*
X737778Y-5546079D01*
X737714Y-5546268D01*
X737517Y-5546307D01*
X737390Y-5546176D01*
X736863Y-5544437D01*
X735726Y-5542311D01*
X734197Y-5540447D01*
X732333Y-5538917D01*
X730207Y-5537781D01*
X727899Y-5537081D01*
X725500Y-5536845D01*
X723101Y-5537081D01*
X720793Y-5537781D01*
X718667Y-5538917D01*
X716803Y-5540447D01*
X715274Y-5542311D01*
X714137Y-5544437D01*
X713610Y-5546176D01*
X713464Y-5546313D01*
X713272Y-5546255D01*
X713222Y-5546079D01*
X714966Y-5537311D01*
X714966Y-5519689D01*
X713222Y-5510921D01*
X713286Y-5510732D01*
X713483Y-5510693D01*
X713610Y-5510824D01*
X714137Y-5512563D01*
X715274Y-5514690D01*
X716803Y-5516553D01*
X718667Y-5518083D01*
X720793Y-5519219D01*
X723101Y-5519919D01*
X725500Y-5520156D01*
X727899Y-5519919D01*
X730207Y-5519219D01*
X732333Y-5518083D01*
X734197Y-5516553D01*
X735726Y-5514690D01*
X736863Y-5512563D01*
X737390Y-5510824D01*
X737536Y-5510687D01*
X737728Y-5510745D01*
G37*
G36*
X8280673Y-5497800D02*
G01*
X8280673Y-5498000D01*
X8280520Y-5498099D01*
X8275370Y-5498606D01*
X8270436Y-5500103D01*
X8265889Y-5502533D01*
X8261904Y-5505804D01*
X8258633Y-5509789D01*
X8256203Y-5514336D01*
X8254706Y-5519270D01*
X8254199Y-5524420D01*
X8254082Y-5524582D01*
X8253883Y-5524563D01*
X8253800Y-5524400D01*
X8253800Y-5516190D01*
X8253801Y-5516171D01*
X8254200Y-5512120D01*
X8254207Y-5512082D01*
X8255210Y-5508777D01*
X8255225Y-5508741D01*
X8256853Y-5505695D01*
X8256875Y-5505663D01*
X8259065Y-5502993D01*
X8259093Y-5502966D01*
X8261763Y-5500775D01*
X8261795Y-5500753D01*
X8264840Y-5499125D01*
X8264877Y-5499110D01*
X8268182Y-5498108D01*
X8268220Y-5498100D01*
X8272271Y-5497701D01*
X8272290Y-5497700D01*
X8280500Y-5497700D01*
X8280673Y-5497800D01*
G37*
G36*
X9059373Y-5497800D02*
G01*
X9059373Y-5498000D01*
X9059220Y-5498099D01*
X9054070Y-5498606D01*
X9049136Y-5500103D01*
X9044589Y-5502533D01*
X9040604Y-5505804D01*
X9037333Y-5509789D01*
X9034903Y-5514336D01*
X9033406Y-5519270D01*
X9032899Y-5524420D01*
X9032783Y-5524582D01*
X9032584Y-5524563D01*
X9032500Y-5524400D01*
X9032500Y-5516190D01*
X9032501Y-5516171D01*
X9032900Y-5512120D01*
X9032908Y-5512082D01*
X9033910Y-5508777D01*
X9033925Y-5508741D01*
X9035553Y-5505695D01*
X9035575Y-5505663D01*
X9037766Y-5502993D01*
X9037793Y-5502966D01*
X9040463Y-5500775D01*
X9040495Y-5500753D01*
X9043541Y-5499125D01*
X9043577Y-5499110D01*
X9046882Y-5498108D01*
X9046920Y-5498100D01*
X9050971Y-5497701D01*
X9050990Y-5497700D01*
X9059200Y-5497700D01*
X9059373Y-5497800D01*
G37*
G36*
X7493273Y-5497800D02*
G01*
X7493273Y-5498000D01*
X7493120Y-5498099D01*
X7487970Y-5498606D01*
X7483036Y-5500103D01*
X7478489Y-5502533D01*
X7474504Y-5505804D01*
X7471233Y-5509789D01*
X7468803Y-5514336D01*
X7467306Y-5519270D01*
X7466799Y-5524420D01*
X7466682Y-5524582D01*
X7466483Y-5524563D01*
X7466400Y-5524400D01*
X7466400Y-5516190D01*
X7466401Y-5516171D01*
X7466800Y-5512120D01*
X7466807Y-5512082D01*
X7467810Y-5508777D01*
X7467825Y-5508741D01*
X7469453Y-5505695D01*
X7469475Y-5505663D01*
X7471665Y-5502993D01*
X7471693Y-5502966D01*
X7474363Y-5500775D01*
X7474395Y-5500753D01*
X7477440Y-5499125D01*
X7477477Y-5499110D01*
X7480782Y-5498108D01*
X7480820Y-5498100D01*
X7484871Y-5497701D01*
X7484890Y-5497700D01*
X7493100Y-5497700D01*
X7493273Y-5497800D01*
G37*
G36*
X9804673Y-5497800D02*
G01*
X9804673Y-5498000D01*
X9804520Y-5498099D01*
X9799370Y-5498606D01*
X9794436Y-5500103D01*
X9789889Y-5502533D01*
X9785904Y-5505804D01*
X9782633Y-5509789D01*
X9780203Y-5514336D01*
X9778706Y-5519270D01*
X9778199Y-5524420D01*
X9778083Y-5524582D01*
X9777884Y-5524563D01*
X9777800Y-5524400D01*
X9777800Y-5516190D01*
X9777801Y-5516171D01*
X9778200Y-5512120D01*
X9778208Y-5512082D01*
X9779210Y-5508777D01*
X9779225Y-5508741D01*
X9780853Y-5505695D01*
X9780875Y-5505663D01*
X9783066Y-5502993D01*
X9783093Y-5502966D01*
X9785763Y-5500775D01*
X9785795Y-5500753D01*
X9788841Y-5499125D01*
X9788877Y-5499110D01*
X9792182Y-5498108D01*
X9792220Y-5498100D01*
X9796271Y-5497701D01*
X9796290Y-5497700D01*
X9804500Y-5497700D01*
X9804673Y-5497800D01*
G37*
G36*
X7653529Y-5497701D02*
G01*
X7657580Y-5498100D01*
X7657618Y-5498108D01*
X7660923Y-5499110D01*
X7660959Y-5499125D01*
X7664005Y-5500753D01*
X7664037Y-5500775D01*
X7666707Y-5502966D01*
X7666734Y-5502993D01*
X7668925Y-5505663D01*
X7668947Y-5505695D01*
X7670575Y-5508741D01*
X7670590Y-5508777D01*
X7671592Y-5512082D01*
X7671600Y-5512120D01*
X7671999Y-5516171D01*
X7672000Y-5516190D01*
X7672000Y-5524400D01*
X7671900Y-5524573D01*
X7671700Y-5524573D01*
X7671601Y-5524420D01*
X7671094Y-5519270D01*
X7669597Y-5514336D01*
X7667167Y-5509789D01*
X7663896Y-5505804D01*
X7659911Y-5502533D01*
X7655364Y-5500103D01*
X7650430Y-5498606D01*
X7645280Y-5498099D01*
X7645118Y-5497983D01*
X7645137Y-5497784D01*
X7645300Y-5497700D01*
X7653510Y-5497700D01*
X7653529Y-5497701D01*
G37*
G36*
X8440929Y-5497701D02*
G01*
X8444980Y-5498100D01*
X8445018Y-5498108D01*
X8448323Y-5499110D01*
X8448360Y-5499125D01*
X8451405Y-5500753D01*
X8451437Y-5500775D01*
X8454107Y-5502966D01*
X8454135Y-5502993D01*
X8456325Y-5505663D01*
X8456347Y-5505695D01*
X8457975Y-5508741D01*
X8457990Y-5508777D01*
X8458993Y-5512082D01*
X8459000Y-5512120D01*
X8459399Y-5516171D01*
X8459400Y-5516190D01*
X8459400Y-5524400D01*
X8459300Y-5524573D01*
X8459100Y-5524573D01*
X8459001Y-5524420D01*
X8458494Y-5519270D01*
X8456997Y-5514336D01*
X8454567Y-5509789D01*
X8451296Y-5505804D01*
X8447311Y-5502533D01*
X8442764Y-5500103D01*
X8437830Y-5498606D01*
X8432680Y-5498099D01*
X8432518Y-5497983D01*
X8432537Y-5497784D01*
X8432700Y-5497700D01*
X8440910Y-5497700D01*
X8440929Y-5497701D01*
G37*
G36*
X9219629Y-5497701D02*
G01*
X9223680Y-5498100D01*
X9223718Y-5498108D01*
X9227023Y-5499110D01*
X9227060Y-5499125D01*
X9230105Y-5500753D01*
X9230137Y-5500775D01*
X9232807Y-5502966D01*
X9232835Y-5502993D01*
X9235025Y-5505663D01*
X9235047Y-5505695D01*
X9236675Y-5508741D01*
X9236690Y-5508777D01*
X9237693Y-5512082D01*
X9237700Y-5512120D01*
X9238099Y-5516171D01*
X9238100Y-5516190D01*
X9238100Y-5524400D01*
X9238000Y-5524573D01*
X9237800Y-5524573D01*
X9237701Y-5524420D01*
X9237194Y-5519270D01*
X9235697Y-5514336D01*
X9233267Y-5509789D01*
X9229996Y-5505804D01*
X9226011Y-5502533D01*
X9221464Y-5500103D01*
X9216530Y-5498606D01*
X9211380Y-5498099D01*
X9211218Y-5497983D01*
X9211237Y-5497784D01*
X9211400Y-5497700D01*
X9219610Y-5497700D01*
X9219629Y-5497701D01*
G37*
G36*
X9964929Y-5497701D02*
G01*
X9968980Y-5498100D01*
X9969018Y-5498108D01*
X9972323Y-5499110D01*
X9972360Y-5499125D01*
X9975405Y-5500753D01*
X9975437Y-5500775D01*
X9978107Y-5502966D01*
X9978135Y-5502993D01*
X9980325Y-5505663D01*
X9980347Y-5505695D01*
X9981975Y-5508741D01*
X9981990Y-5508777D01*
X9982993Y-5512082D01*
X9983000Y-5512120D01*
X9983399Y-5516171D01*
X9983400Y-5516190D01*
X9983400Y-5524400D01*
X9983300Y-5524573D01*
X9983100Y-5524573D01*
X9983001Y-5524420D01*
X9982494Y-5519270D01*
X9980997Y-5514336D01*
X9978567Y-5509789D01*
X9975296Y-5505804D01*
X9971311Y-5502533D01*
X9966764Y-5500103D01*
X9961830Y-5498606D01*
X9956680Y-5498099D01*
X9956518Y-5497983D01*
X9956537Y-5497784D01*
X9956700Y-5497700D01*
X9964910Y-5497700D01*
X9964929Y-5497701D01*
G37*
G36*
X13507716Y-5270437D02*
G01*
X13507800Y-5270600D01*
X13507800Y-5278810D01*
X13507799Y-5278829D01*
X13507400Y-5282880D01*
X13507392Y-5282918D01*
X13506390Y-5286223D01*
X13506375Y-5286260D01*
X13504747Y-5289305D01*
X13504725Y-5289337D01*
X13502534Y-5292007D01*
X13502507Y-5292035D01*
X13499837Y-5294225D01*
X13499805Y-5294247D01*
X13496759Y-5295875D01*
X13496723Y-5295890D01*
X13493418Y-5296893D01*
X13493380Y-5296900D01*
X13489329Y-5297299D01*
X13489310Y-5297300D01*
X13481100Y-5297300D01*
X13480927Y-5297200D01*
X13480927Y-5297000D01*
X13481080Y-5296901D01*
X13486230Y-5296394D01*
X13491164Y-5294897D01*
X13495711Y-5292467D01*
X13499696Y-5289196D01*
X13502967Y-5285211D01*
X13505397Y-5280664D01*
X13506894Y-5275730D01*
X13507401Y-5270580D01*
X13507517Y-5270418D01*
X13507716Y-5270437D01*
G37*
G36*
X13297599Y-5270580D02*
G01*
X13298106Y-5275730D01*
X13299603Y-5280664D01*
X13302033Y-5285211D01*
X13305304Y-5289196D01*
X13309289Y-5292467D01*
X13313836Y-5294897D01*
X13318770Y-5296394D01*
X13323920Y-5296901D01*
X13324082Y-5297018D01*
X13324063Y-5297217D01*
X13323900Y-5297300D01*
X13315690Y-5297300D01*
X13315671Y-5297299D01*
X13311620Y-5296900D01*
X13311582Y-5296893D01*
X13308277Y-5295890D01*
X13308240Y-5295875D01*
X13305195Y-5294247D01*
X13305163Y-5294225D01*
X13302493Y-5292035D01*
X13302465Y-5292007D01*
X13300275Y-5289337D01*
X13300253Y-5289305D01*
X13298625Y-5286260D01*
X13298610Y-5286223D01*
X13297607Y-5282918D01*
X13297600Y-5282880D01*
X13297201Y-5278829D01*
X13297200Y-5278810D01*
X13297200Y-5270600D01*
X13297300Y-5270427D01*
X13297500Y-5270427D01*
X13297599Y-5270580D01*
G37*
G36*
X13324073Y-5116800D02*
G01*
X13324073Y-5117000D01*
X13323920Y-5117099D01*
X13318770Y-5117606D01*
X13313836Y-5119103D01*
X13309289Y-5121533D01*
X13305304Y-5124804D01*
X13302033Y-5128789D01*
X13299603Y-5133336D01*
X13298106Y-5138270D01*
X13297599Y-5143420D01*
X13297482Y-5143582D01*
X13297283Y-5143563D01*
X13297200Y-5143400D01*
X13297200Y-5135190D01*
X13297201Y-5135171D01*
X13297600Y-5131120D01*
X13297607Y-5131082D01*
X13298610Y-5127777D01*
X13298625Y-5127741D01*
X13300253Y-5124695D01*
X13300275Y-5124663D01*
X13302465Y-5121993D01*
X13302493Y-5121966D01*
X13305163Y-5119775D01*
X13305195Y-5119753D01*
X13308240Y-5118125D01*
X13308277Y-5118110D01*
X13311582Y-5117108D01*
X13311620Y-5117100D01*
X13315671Y-5116701D01*
X13315690Y-5116700D01*
X13323900Y-5116700D01*
X13324073Y-5116800D01*
G37*
G36*
X13489329Y-5116701D02*
G01*
X13493380Y-5117100D01*
X13493418Y-5117108D01*
X13496723Y-5118110D01*
X13496759Y-5118125D01*
X13499805Y-5119753D01*
X13499837Y-5119775D01*
X13502507Y-5121966D01*
X13502534Y-5121993D01*
X13504725Y-5124663D01*
X13504747Y-5124695D01*
X13506375Y-5127741D01*
X13506390Y-5127777D01*
X13507392Y-5131082D01*
X13507400Y-5131120D01*
X13507799Y-5135171D01*
X13507800Y-5135190D01*
X13507800Y-5143400D01*
X13507700Y-5143573D01*
X13507500Y-5143573D01*
X13507401Y-5143420D01*
X13506894Y-5138270D01*
X13505397Y-5133336D01*
X13502967Y-5128789D01*
X13499696Y-5124804D01*
X13495711Y-5121533D01*
X13491164Y-5119103D01*
X13486230Y-5117606D01*
X13481080Y-5117099D01*
X13480918Y-5116983D01*
X13480937Y-5116784D01*
X13481100Y-5116700D01*
X13489310Y-5116700D01*
X13489329Y-5116701D01*
G37*
G36*
X9234017Y-4483037D02*
G01*
X9234100Y-4483200D01*
X9234100Y-4491410D01*
X9234099Y-4491429D01*
X9233700Y-4495480D01*
X9233693Y-4495518D01*
X9232690Y-4498823D01*
X9232675Y-4498860D01*
X9231047Y-4501905D01*
X9231025Y-4501937D01*
X9228835Y-4504607D01*
X9228807Y-4504635D01*
X9226137Y-4506825D01*
X9226105Y-4506847D01*
X9223060Y-4508475D01*
X9223023Y-4508490D01*
X9219718Y-4509493D01*
X9219680Y-4509500D01*
X9215629Y-4509899D01*
X9215610Y-4509900D01*
X9207400Y-4509900D01*
X9207227Y-4509800D01*
X9207227Y-4509600D01*
X9207380Y-4509501D01*
X9212530Y-4508994D01*
X9217464Y-4507497D01*
X9222011Y-4505067D01*
X9225996Y-4501796D01*
X9229267Y-4497811D01*
X9231697Y-4493264D01*
X9233194Y-4488330D01*
X9233701Y-4483180D01*
X9233818Y-4483018D01*
X9234017Y-4483037D01*
G37*
G36*
X9028899Y-4483180D02*
G01*
X9029406Y-4488330D01*
X9030903Y-4493264D01*
X9033333Y-4497811D01*
X9036604Y-4501796D01*
X9040589Y-4505067D01*
X9045136Y-4507497D01*
X9050070Y-4508994D01*
X9055220Y-4509501D01*
X9055382Y-4509618D01*
X9055363Y-4509817D01*
X9055200Y-4509900D01*
X9046990Y-4509900D01*
X9046971Y-4509899D01*
X9042920Y-4509500D01*
X9042882Y-4509493D01*
X9039577Y-4508490D01*
X9039541Y-4508475D01*
X9036495Y-4506847D01*
X9036463Y-4506825D01*
X9033793Y-4504635D01*
X9033766Y-4504607D01*
X9031575Y-4501937D01*
X9031553Y-4501905D01*
X9029925Y-4498860D01*
X9029910Y-4498823D01*
X9028908Y-4495518D01*
X9028900Y-4495480D01*
X9028501Y-4491429D01*
X9028500Y-4491410D01*
X9028500Y-4483200D01*
X9028600Y-4483027D01*
X9028800Y-4483027D01*
X9028899Y-4483180D01*
G37*
G36*
X8459317Y-4483037D02*
G01*
X8459400Y-4483200D01*
X8459400Y-4491410D01*
X8459399Y-4491429D01*
X8459000Y-4495480D01*
X8458993Y-4495518D01*
X8457990Y-4498823D01*
X8457975Y-4498860D01*
X8456347Y-4501905D01*
X8456325Y-4501937D01*
X8454135Y-4504607D01*
X8454107Y-4504635D01*
X8451437Y-4506825D01*
X8451405Y-4506847D01*
X8448360Y-4508475D01*
X8448323Y-4508490D01*
X8445018Y-4509493D01*
X8444980Y-4509500D01*
X8440929Y-4509899D01*
X8440910Y-4509900D01*
X8432700Y-4509900D01*
X8432527Y-4509800D01*
X8432527Y-4509600D01*
X8432680Y-4509501D01*
X8437830Y-4508994D01*
X8442764Y-4507497D01*
X8447311Y-4505067D01*
X8451296Y-4501796D01*
X8454567Y-4497811D01*
X8456997Y-4493264D01*
X8458494Y-4488330D01*
X8459001Y-4483180D01*
X8459118Y-4483018D01*
X8459317Y-4483037D01*
G37*
G36*
X7671916Y-4483037D02*
G01*
X7672000Y-4483200D01*
X7672000Y-4491410D01*
X7671999Y-4491429D01*
X7671600Y-4495480D01*
X7671592Y-4495518D01*
X7670590Y-4498823D01*
X7670575Y-4498860D01*
X7668947Y-4501905D01*
X7668925Y-4501937D01*
X7666734Y-4504607D01*
X7666707Y-4504635D01*
X7664037Y-4506825D01*
X7664005Y-4506847D01*
X7660959Y-4508475D01*
X7660923Y-4508490D01*
X7657618Y-4509493D01*
X7657580Y-4509500D01*
X7653529Y-4509899D01*
X7653510Y-4509900D01*
X7645300Y-4509900D01*
X7645127Y-4509800D01*
X7645127Y-4509600D01*
X7645280Y-4509501D01*
X7650430Y-4508994D01*
X7655364Y-4507497D01*
X7659911Y-4505067D01*
X7663896Y-4501796D01*
X7667167Y-4497811D01*
X7669597Y-4493264D01*
X7671094Y-4488330D01*
X7671601Y-4483180D01*
X7671717Y-4483018D01*
X7671916Y-4483037D01*
G37*
G36*
X8254199Y-4483180D02*
G01*
X8254706Y-4488330D01*
X8256203Y-4493264D01*
X8258633Y-4497811D01*
X8261904Y-4501796D01*
X8265889Y-4505067D01*
X8270436Y-4507497D01*
X8275370Y-4508994D01*
X8280520Y-4509501D01*
X8280682Y-4509618D01*
X8280663Y-4509817D01*
X8280500Y-4509900D01*
X8272290Y-4509900D01*
X8272271Y-4509899D01*
X8268220Y-4509500D01*
X8268182Y-4509493D01*
X8264877Y-4508490D01*
X8264840Y-4508475D01*
X8261795Y-4506847D01*
X8261763Y-4506825D01*
X8259093Y-4504635D01*
X8259065Y-4504607D01*
X8256875Y-4501937D01*
X8256853Y-4501905D01*
X8255225Y-4498860D01*
X8255210Y-4498823D01*
X8254207Y-4495518D01*
X8254200Y-4495480D01*
X8253801Y-4491429D01*
X8253800Y-4491410D01*
X8253800Y-4483200D01*
X8253900Y-4483027D01*
X8254100Y-4483027D01*
X8254199Y-4483180D01*
G37*
G36*
X7466799Y-4483180D02*
G01*
X7467306Y-4488330D01*
X7468803Y-4493264D01*
X7471233Y-4497811D01*
X7474504Y-4501796D01*
X7478489Y-4505067D01*
X7483036Y-4507497D01*
X7487970Y-4508994D01*
X7493120Y-4509501D01*
X7493282Y-4509618D01*
X7493263Y-4509817D01*
X7493100Y-4509900D01*
X7484890Y-4509900D01*
X7484871Y-4509899D01*
X7480820Y-4509500D01*
X7480782Y-4509493D01*
X7477477Y-4508490D01*
X7477440Y-4508475D01*
X7474395Y-4506847D01*
X7474363Y-4506825D01*
X7471693Y-4504635D01*
X7471665Y-4504607D01*
X7469475Y-4501937D01*
X7469453Y-4501905D01*
X7467825Y-4498860D01*
X7467810Y-4498823D01*
X7466807Y-4495518D01*
X7466800Y-4495480D01*
X7466401Y-4491429D01*
X7466400Y-4491410D01*
X7466400Y-4483200D01*
X7466500Y-4483027D01*
X7466700Y-4483027D01*
X7466799Y-4483180D01*
G37*
G36*
X7493273Y-4329400D02*
G01*
X7493273Y-4329600D01*
X7493120Y-4329699D01*
X7487970Y-4330206D01*
X7483036Y-4331703D01*
X7478489Y-4334133D01*
X7474504Y-4337404D01*
X7471233Y-4341389D01*
X7468803Y-4345936D01*
X7467306Y-4350870D01*
X7466799Y-4356020D01*
X7466682Y-4356182D01*
X7466483Y-4356163D01*
X7466400Y-4356000D01*
X7466400Y-4347790D01*
X7466401Y-4347771D01*
X7466800Y-4343720D01*
X7466807Y-4343682D01*
X7467810Y-4340377D01*
X7467825Y-4340341D01*
X7469453Y-4337295D01*
X7469475Y-4337263D01*
X7471665Y-4334593D01*
X7471693Y-4334566D01*
X7474363Y-4332375D01*
X7474395Y-4332353D01*
X7477440Y-4330725D01*
X7477477Y-4330710D01*
X7480782Y-4329708D01*
X7480820Y-4329700D01*
X7484871Y-4329301D01*
X7484890Y-4329300D01*
X7493100Y-4329300D01*
X7493273Y-4329400D01*
G37*
G36*
X8280673Y-4329400D02*
G01*
X8280673Y-4329600D01*
X8280520Y-4329699D01*
X8275370Y-4330206D01*
X8270436Y-4331703D01*
X8265889Y-4334133D01*
X8261904Y-4337404D01*
X8258633Y-4341389D01*
X8256203Y-4345936D01*
X8254706Y-4350870D01*
X8254199Y-4356020D01*
X8254082Y-4356182D01*
X8253883Y-4356163D01*
X8253800Y-4356000D01*
X8253800Y-4347790D01*
X8253801Y-4347771D01*
X8254200Y-4343720D01*
X8254207Y-4343682D01*
X8255210Y-4340377D01*
X8255225Y-4340341D01*
X8256853Y-4337295D01*
X8256875Y-4337263D01*
X8259065Y-4334593D01*
X8259093Y-4334566D01*
X8261763Y-4332375D01*
X8261795Y-4332353D01*
X8264840Y-4330725D01*
X8264877Y-4330710D01*
X8268182Y-4329708D01*
X8268220Y-4329700D01*
X8272271Y-4329301D01*
X8272290Y-4329300D01*
X8280500Y-4329300D01*
X8280673Y-4329400D01*
G37*
G36*
X9055373Y-4329400D02*
G01*
X9055373Y-4329600D01*
X9055220Y-4329699D01*
X9050070Y-4330206D01*
X9045136Y-4331703D01*
X9040589Y-4334133D01*
X9036604Y-4337404D01*
X9033333Y-4341389D01*
X9030903Y-4345936D01*
X9029406Y-4350870D01*
X9028899Y-4356020D01*
X9028783Y-4356182D01*
X9028584Y-4356163D01*
X9028500Y-4356000D01*
X9028500Y-4347790D01*
X9028501Y-4347771D01*
X9028900Y-4343720D01*
X9028908Y-4343682D01*
X9029910Y-4340377D01*
X9029925Y-4340341D01*
X9031553Y-4337295D01*
X9031575Y-4337263D01*
X9033766Y-4334593D01*
X9033793Y-4334566D01*
X9036463Y-4332375D01*
X9036495Y-4332353D01*
X9039541Y-4330725D01*
X9039577Y-4330710D01*
X9042882Y-4329708D01*
X9042920Y-4329700D01*
X9046971Y-4329301D01*
X9046990Y-4329300D01*
X9055200Y-4329300D01*
X9055373Y-4329400D01*
G37*
G36*
X7653529Y-4329301D02*
G01*
X7657580Y-4329700D01*
X7657618Y-4329708D01*
X7660923Y-4330710D01*
X7660959Y-4330725D01*
X7664005Y-4332353D01*
X7664037Y-4332375D01*
X7666707Y-4334566D01*
X7666734Y-4334593D01*
X7668925Y-4337263D01*
X7668947Y-4337295D01*
X7670575Y-4340341D01*
X7670590Y-4340377D01*
X7671592Y-4343682D01*
X7671600Y-4343720D01*
X7671999Y-4347771D01*
X7672000Y-4347790D01*
X7672000Y-4356000D01*
X7671900Y-4356173D01*
X7671700Y-4356173D01*
X7671601Y-4356020D01*
X7671094Y-4350870D01*
X7669597Y-4345936D01*
X7667167Y-4341389D01*
X7663896Y-4337404D01*
X7659911Y-4334133D01*
X7655364Y-4331703D01*
X7650430Y-4330206D01*
X7645280Y-4329699D01*
X7645118Y-4329583D01*
X7645137Y-4329384D01*
X7645300Y-4329300D01*
X7653510Y-4329300D01*
X7653529Y-4329301D01*
G37*
G36*
X9215629Y-4329301D02*
G01*
X9219680Y-4329700D01*
X9219718Y-4329708D01*
X9223023Y-4330710D01*
X9223060Y-4330725D01*
X9226105Y-4332353D01*
X9226137Y-4332375D01*
X9228807Y-4334566D01*
X9228835Y-4334593D01*
X9231025Y-4337263D01*
X9231047Y-4337295D01*
X9232675Y-4340341D01*
X9232690Y-4340377D01*
X9233693Y-4343682D01*
X9233700Y-4343720D01*
X9234099Y-4347771D01*
X9234100Y-4347790D01*
X9234100Y-4356000D01*
X9234000Y-4356173D01*
X9233800Y-4356173D01*
X9233701Y-4356020D01*
X9233194Y-4350870D01*
X9231697Y-4345936D01*
X9229267Y-4341389D01*
X9225996Y-4337404D01*
X9222011Y-4334133D01*
X9217464Y-4331703D01*
X9212530Y-4330206D01*
X9207380Y-4329699D01*
X9207218Y-4329583D01*
X9207237Y-4329384D01*
X9207400Y-4329300D01*
X9215610Y-4329300D01*
X9215629Y-4329301D01*
G37*
G36*
X8440929Y-4329301D02*
G01*
X8444980Y-4329700D01*
X8445018Y-4329708D01*
X8448323Y-4330710D01*
X8448360Y-4330725D01*
X8451405Y-4332353D01*
X8451437Y-4332375D01*
X8454107Y-4334566D01*
X8454135Y-4334593D01*
X8456325Y-4337263D01*
X8456347Y-4337295D01*
X8457975Y-4340341D01*
X8457990Y-4340377D01*
X8458993Y-4343682D01*
X8459000Y-4343720D01*
X8459399Y-4347771D01*
X8459400Y-4347790D01*
X8459400Y-4356000D01*
X8459300Y-4356173D01*
X8459100Y-4356173D01*
X8459001Y-4356020D01*
X8458494Y-4350870D01*
X8456997Y-4345936D01*
X8454567Y-4341389D01*
X8451296Y-4337404D01*
X8447311Y-4334133D01*
X8442764Y-4331703D01*
X8437830Y-4330206D01*
X8432680Y-4329699D01*
X8432518Y-4329583D01*
X8432537Y-4329384D01*
X8432700Y-4329300D01*
X8440910Y-4329300D01*
X8440929Y-4329301D01*
G37*
G36*
X13503716Y-4254437D02*
G01*
X13503800Y-4254600D01*
X13503800Y-4262810D01*
X13503799Y-4262829D01*
X13503400Y-4266880D01*
X13503392Y-4266918D01*
X13502390Y-4270223D01*
X13502375Y-4270260D01*
X13500747Y-4273305D01*
X13500725Y-4273337D01*
X13498534Y-4276007D01*
X13498507Y-4276035D01*
X13495837Y-4278225D01*
X13495805Y-4278247D01*
X13492759Y-4279875D01*
X13492723Y-4279890D01*
X13489418Y-4280893D01*
X13489380Y-4280900D01*
X13485329Y-4281299D01*
X13485310Y-4281300D01*
X13477100Y-4281300D01*
X13476927Y-4281200D01*
X13476927Y-4281000D01*
X13477080Y-4280901D01*
X13482230Y-4280394D01*
X13487164Y-4278897D01*
X13491711Y-4276467D01*
X13495696Y-4273196D01*
X13498967Y-4269211D01*
X13501397Y-4264664D01*
X13502894Y-4259730D01*
X13503401Y-4254580D01*
X13503517Y-4254418D01*
X13503716Y-4254437D01*
G37*
G36*
X13293599Y-4254580D02*
G01*
X13294106Y-4259730D01*
X13295603Y-4264664D01*
X13298033Y-4269211D01*
X13301304Y-4273196D01*
X13305289Y-4276467D01*
X13309836Y-4278897D01*
X13314770Y-4280394D01*
X13319920Y-4280901D01*
X13320082Y-4281018D01*
X13320063Y-4281217D01*
X13319900Y-4281300D01*
X13311690Y-4281300D01*
X13311671Y-4281299D01*
X13307620Y-4280900D01*
X13307582Y-4280893D01*
X13304277Y-4279890D01*
X13304240Y-4279875D01*
X13301195Y-4278247D01*
X13301163Y-4278225D01*
X13298493Y-4276035D01*
X13298465Y-4276007D01*
X13296275Y-4273337D01*
X13296253Y-4273305D01*
X13294625Y-4270260D01*
X13294610Y-4270223D01*
X13293607Y-4266918D01*
X13293600Y-4266880D01*
X13293201Y-4262829D01*
X13293200Y-4262810D01*
X13293200Y-4254600D01*
X13293300Y-4254427D01*
X13293500Y-4254427D01*
X13293599Y-4254580D01*
G37*
G36*
X10502099Y-4191080D02*
G01*
X10502606Y-4196230D01*
X10504103Y-4201164D01*
X10506533Y-4205711D01*
X10509804Y-4209696D01*
X10513789Y-4212967D01*
X10518336Y-4215397D01*
X10523270Y-4216894D01*
X10528420Y-4217401D01*
X10528582Y-4217518D01*
X10528563Y-4217717D01*
X10528400Y-4217800D01*
X10520190Y-4217800D01*
X10520171Y-4217799D01*
X10516120Y-4217400D01*
X10516082Y-4217393D01*
X10512777Y-4216390D01*
X10512741Y-4216375D01*
X10509695Y-4214747D01*
X10509663Y-4214725D01*
X10506993Y-4212535D01*
X10506966Y-4212507D01*
X10504775Y-4209837D01*
X10504753Y-4209805D01*
X10503125Y-4206760D01*
X10503110Y-4206723D01*
X10502108Y-4203418D01*
X10502100Y-4203380D01*
X10501701Y-4199329D01*
X10501700Y-4199310D01*
X10501700Y-4191100D01*
X10501800Y-4190927D01*
X10502000Y-4190927D01*
X10502099Y-4191080D01*
G37*
G36*
X9983317Y-4190937D02*
G01*
X9983400Y-4191100D01*
X9983400Y-4199310D01*
X9983399Y-4199329D01*
X9983000Y-4203380D01*
X9982993Y-4203418D01*
X9981990Y-4206723D01*
X9981975Y-4206760D01*
X9980347Y-4209805D01*
X9980325Y-4209837D01*
X9978135Y-4212507D01*
X9978107Y-4212535D01*
X9975437Y-4214725D01*
X9975405Y-4214747D01*
X9972360Y-4216375D01*
X9972323Y-4216390D01*
X9969018Y-4217393D01*
X9968980Y-4217400D01*
X9964929Y-4217799D01*
X9964910Y-4217800D01*
X9956700Y-4217800D01*
X9956527Y-4217700D01*
X9956527Y-4217500D01*
X9956680Y-4217401D01*
X9961830Y-4216894D01*
X9966764Y-4215397D01*
X9971311Y-4212967D01*
X9975296Y-4209696D01*
X9978567Y-4205711D01*
X9980997Y-4201164D01*
X9982494Y-4196230D01*
X9983001Y-4191080D01*
X9983118Y-4190918D01*
X9983317Y-4190937D01*
G37*
G36*
X10707217Y-4190937D02*
G01*
X10707300Y-4191100D01*
X10707300Y-4199310D01*
X10707299Y-4199329D01*
X10706900Y-4203380D01*
X10706893Y-4203418D01*
X10705890Y-4206723D01*
X10705875Y-4206760D01*
X10704247Y-4209805D01*
X10704225Y-4209837D01*
X10702035Y-4212507D01*
X10702007Y-4212535D01*
X10699337Y-4214725D01*
X10699305Y-4214747D01*
X10696260Y-4216375D01*
X10696223Y-4216390D01*
X10692918Y-4217393D01*
X10692880Y-4217400D01*
X10688829Y-4217799D01*
X10688810Y-4217800D01*
X10680600Y-4217800D01*
X10680427Y-4217700D01*
X10680427Y-4217500D01*
X10680580Y-4217401D01*
X10685730Y-4216894D01*
X10690664Y-4215397D01*
X10695211Y-4212967D01*
X10699196Y-4209696D01*
X10702467Y-4205711D01*
X10704897Y-4201164D01*
X10706394Y-4196230D01*
X10706901Y-4191080D01*
X10707018Y-4190918D01*
X10707217Y-4190937D01*
G37*
G36*
X9778199Y-4191080D02*
G01*
X9778706Y-4196230D01*
X9780203Y-4201164D01*
X9782633Y-4205711D01*
X9785904Y-4209696D01*
X9789889Y-4212967D01*
X9794436Y-4215397D01*
X9799370Y-4216894D01*
X9804520Y-4217401D01*
X9804682Y-4217518D01*
X9804663Y-4217717D01*
X9804500Y-4217800D01*
X9796290Y-4217800D01*
X9796271Y-4217799D01*
X9792220Y-4217400D01*
X9792182Y-4217393D01*
X9788877Y-4216390D01*
X9788841Y-4216375D01*
X9785795Y-4214747D01*
X9785763Y-4214725D01*
X9783093Y-4212535D01*
X9783066Y-4212507D01*
X9780875Y-4209837D01*
X9780853Y-4209805D01*
X9779225Y-4206760D01*
X9779210Y-4206723D01*
X9778208Y-4203418D01*
X9778200Y-4203380D01*
X9777801Y-4199329D01*
X9777800Y-4199310D01*
X9777800Y-4191100D01*
X9777900Y-4190927D01*
X9778100Y-4190927D01*
X9778199Y-4191080D01*
G37*
G36*
X13320073Y-4100800D02*
G01*
X13320073Y-4101000D01*
X13319920Y-4101099D01*
X13314770Y-4101606D01*
X13309836Y-4103103D01*
X13305289Y-4105533D01*
X13301304Y-4108804D01*
X13298033Y-4112789D01*
X13295603Y-4117336D01*
X13294106Y-4122270D01*
X13293599Y-4127420D01*
X13293482Y-4127582D01*
X13293283Y-4127563D01*
X13293200Y-4127400D01*
X13293200Y-4119190D01*
X13293201Y-4119171D01*
X13293600Y-4115120D01*
X13293607Y-4115082D01*
X13294610Y-4111777D01*
X13294625Y-4111740D01*
X13296253Y-4108695D01*
X13296275Y-4108663D01*
X13298465Y-4105993D01*
X13298493Y-4105965D01*
X13301163Y-4103775D01*
X13301195Y-4103753D01*
X13304240Y-4102125D01*
X13304277Y-4102110D01*
X13307582Y-4101107D01*
X13307620Y-4101100D01*
X13311671Y-4100701D01*
X13311690Y-4100700D01*
X13319900Y-4100700D01*
X13320073Y-4100800D01*
G37*
G36*
X13485329Y-4100701D02*
G01*
X13489380Y-4101100D01*
X13489418Y-4101107D01*
X13492723Y-4102110D01*
X13492759Y-4102125D01*
X13495805Y-4103753D01*
X13495837Y-4103775D01*
X13498507Y-4105965D01*
X13498534Y-4105993D01*
X13500725Y-4108663D01*
X13500747Y-4108695D01*
X13502375Y-4111740D01*
X13502390Y-4111777D01*
X13503392Y-4115082D01*
X13503400Y-4115120D01*
X13503799Y-4119171D01*
X13503800Y-4119190D01*
X13503800Y-4127400D01*
X13503700Y-4127573D01*
X13503500Y-4127573D01*
X13503401Y-4127420D01*
X13502894Y-4122270D01*
X13501397Y-4117336D01*
X13498967Y-4112789D01*
X13495696Y-4108804D01*
X13491711Y-4105533D01*
X13487164Y-4103103D01*
X13482230Y-4101606D01*
X13477080Y-4101099D01*
X13476918Y-4100982D01*
X13476937Y-4100783D01*
X13477100Y-4100700D01*
X13485310Y-4100700D01*
X13485329Y-4100701D01*
G37*
G36*
X10528573Y-4037300D02*
G01*
X10528573Y-4037500D01*
X10528420Y-4037599D01*
X10523270Y-4038106D01*
X10518336Y-4039603D01*
X10513789Y-4042033D01*
X10509804Y-4045304D01*
X10506533Y-4049289D01*
X10504103Y-4053836D01*
X10502606Y-4058770D01*
X10502099Y-4063920D01*
X10501983Y-4064082D01*
X10501784Y-4064063D01*
X10501700Y-4063900D01*
X10501700Y-4055690D01*
X10501701Y-4055671D01*
X10502100Y-4051620D01*
X10502108Y-4051582D01*
X10503110Y-4048277D01*
X10503125Y-4048240D01*
X10504753Y-4045195D01*
X10504775Y-4045163D01*
X10506966Y-4042493D01*
X10506993Y-4042465D01*
X10509663Y-4040275D01*
X10509695Y-4040253D01*
X10512741Y-4038625D01*
X10512777Y-4038610D01*
X10516082Y-4037607D01*
X10516120Y-4037600D01*
X10520171Y-4037201D01*
X10520190Y-4037200D01*
X10528400Y-4037200D01*
X10528573Y-4037300D01*
G37*
G36*
X9804673Y-4037300D02*
G01*
X9804673Y-4037500D01*
X9804520Y-4037599D01*
X9799370Y-4038106D01*
X9794436Y-4039603D01*
X9789889Y-4042033D01*
X9785904Y-4045304D01*
X9782633Y-4049289D01*
X9780203Y-4053836D01*
X9778706Y-4058770D01*
X9778199Y-4063920D01*
X9778083Y-4064082D01*
X9777884Y-4064063D01*
X9777800Y-4063900D01*
X9777800Y-4055690D01*
X9777801Y-4055671D01*
X9778200Y-4051620D01*
X9778208Y-4051582D01*
X9779210Y-4048277D01*
X9779225Y-4048240D01*
X9780853Y-4045195D01*
X9780875Y-4045163D01*
X9783066Y-4042493D01*
X9783093Y-4042465D01*
X9785763Y-4040275D01*
X9785795Y-4040253D01*
X9788841Y-4038625D01*
X9788877Y-4038610D01*
X9792182Y-4037607D01*
X9792220Y-4037600D01*
X9796271Y-4037201D01*
X9796290Y-4037200D01*
X9804500Y-4037200D01*
X9804673Y-4037300D01*
G37*
G36*
X9964929Y-4037201D02*
G01*
X9968980Y-4037600D01*
X9969018Y-4037607D01*
X9972323Y-4038610D01*
X9972360Y-4038625D01*
X9975405Y-4040253D01*
X9975437Y-4040275D01*
X9978107Y-4042465D01*
X9978135Y-4042493D01*
X9980325Y-4045163D01*
X9980347Y-4045195D01*
X9981975Y-4048240D01*
X9981990Y-4048277D01*
X9982993Y-4051582D01*
X9983000Y-4051620D01*
X9983399Y-4055671D01*
X9983400Y-4055690D01*
X9983400Y-4063900D01*
X9983300Y-4064073D01*
X9983100Y-4064073D01*
X9983001Y-4063920D01*
X9982494Y-4058770D01*
X9980997Y-4053836D01*
X9978567Y-4049289D01*
X9975296Y-4045304D01*
X9971311Y-4042033D01*
X9966764Y-4039603D01*
X9961830Y-4038106D01*
X9956680Y-4037599D01*
X9956518Y-4037482D01*
X9956537Y-4037283D01*
X9956700Y-4037200D01*
X9964910Y-4037200D01*
X9964929Y-4037201D01*
G37*
G36*
X10688829Y-4037201D02*
G01*
X10692880Y-4037600D01*
X10692918Y-4037607D01*
X10696223Y-4038610D01*
X10696260Y-4038625D01*
X10699305Y-4040253D01*
X10699337Y-4040275D01*
X10702007Y-4042465D01*
X10702035Y-4042493D01*
X10704225Y-4045163D01*
X10704247Y-4045195D01*
X10705875Y-4048240D01*
X10705890Y-4048277D01*
X10706893Y-4051582D01*
X10706900Y-4051620D01*
X10707299Y-4055671D01*
X10707300Y-4055690D01*
X10707300Y-4063900D01*
X10707200Y-4064073D01*
X10707000Y-4064073D01*
X10706901Y-4063920D01*
X10706394Y-4058770D01*
X10704897Y-4053836D01*
X10702467Y-4049289D01*
X10699196Y-4045304D01*
X10695211Y-4042033D01*
X10690664Y-4039603D01*
X10685730Y-4038106D01*
X10680580Y-4037599D01*
X10680418Y-4037482D01*
X10680437Y-4037283D01*
X10680600Y-4037200D01*
X10688810Y-4037200D01*
X10688829Y-4037201D01*
G37*
G36*
X896216Y-3671387D02*
G01*
X896300Y-3671550D01*
X896300Y-3677186D01*
X896299Y-3677206D01*
X894629Y-3694156D01*
X894622Y-3694195D01*
X889856Y-3709904D01*
X889841Y-3709940D01*
X882103Y-3724417D01*
X882081Y-3724450D01*
X871667Y-3737140D01*
X871640Y-3737167D01*
X858950Y-3747581D01*
X858917Y-3747603D01*
X844440Y-3755341D01*
X844404Y-3755356D01*
X828695Y-3760122D01*
X828656Y-3760129D01*
X811706Y-3761799D01*
X811686Y-3761800D01*
X806050Y-3761800D01*
X805877Y-3761700D01*
X805877Y-3761500D01*
X806030Y-3761401D01*
X823578Y-3759673D01*
X840434Y-3754560D01*
X855967Y-3746257D01*
X869583Y-3735083D01*
X880757Y-3721467D01*
X889060Y-3705934D01*
X894173Y-3689078D01*
X895901Y-3671530D01*
X896017Y-3671368D01*
X896216Y-3671387D01*
G37*
G36*
X536099Y-3671530D02*
G01*
X537827Y-3689078D01*
X542940Y-3705934D01*
X551243Y-3721467D01*
X562417Y-3735083D01*
X576033Y-3746257D01*
X591566Y-3754560D01*
X608422Y-3759673D01*
X625970Y-3761401D01*
X626132Y-3761517D01*
X626113Y-3761716D01*
X625950Y-3761800D01*
X620314Y-3761800D01*
X620294Y-3761799D01*
X603344Y-3760129D01*
X603305Y-3760122D01*
X587596Y-3755356D01*
X587560Y-3755341D01*
X573083Y-3747603D01*
X573050Y-3747581D01*
X560360Y-3737167D01*
X560333Y-3737140D01*
X549919Y-3724450D01*
X549897Y-3724417D01*
X542159Y-3709940D01*
X542144Y-3709904D01*
X537378Y-3694195D01*
X537371Y-3694156D01*
X535701Y-3677206D01*
X535700Y-3677186D01*
X535700Y-3671550D01*
X535800Y-3671377D01*
X536000Y-3671377D01*
X536099Y-3671530D01*
G37*
G36*
X626123Y-3401300D02*
G01*
X626123Y-3401500D01*
X625970Y-3401599D01*
X608422Y-3403327D01*
X591566Y-3408440D01*
X576033Y-3416743D01*
X562417Y-3427917D01*
X551243Y-3441532D01*
X542940Y-3457066D01*
X537827Y-3473922D01*
X536099Y-3491470D01*
X535983Y-3491632D01*
X535784Y-3491613D01*
X535700Y-3491450D01*
X535700Y-3485814D01*
X535701Y-3485794D01*
X537371Y-3468844D01*
X537378Y-3468805D01*
X542144Y-3453096D01*
X542159Y-3453060D01*
X549897Y-3438583D01*
X549919Y-3438550D01*
X560333Y-3425860D01*
X560360Y-3425833D01*
X573050Y-3415418D01*
X573083Y-3415397D01*
X587560Y-3407658D01*
X587596Y-3407643D01*
X603305Y-3402878D01*
X603344Y-3402870D01*
X620294Y-3401201D01*
X620314Y-3401200D01*
X625950Y-3401200D01*
X626123Y-3401300D01*
G37*
G36*
X811706Y-3401201D02*
G01*
X828656Y-3402870D01*
X828695Y-3402878D01*
X844404Y-3407643D01*
X844440Y-3407658D01*
X858917Y-3415397D01*
X858950Y-3415418D01*
X871640Y-3425833D01*
X871667Y-3425860D01*
X882081Y-3438550D01*
X882103Y-3438583D01*
X889841Y-3453060D01*
X889856Y-3453096D01*
X894622Y-3468805D01*
X894629Y-3468844D01*
X896299Y-3485794D01*
X896300Y-3485814D01*
X896300Y-3491450D01*
X896200Y-3491623D01*
X896000Y-3491623D01*
X895901Y-3491470D01*
X894173Y-3473922D01*
X889060Y-3457066D01*
X880757Y-3441532D01*
X869583Y-3427917D01*
X855967Y-3416743D01*
X840434Y-3408440D01*
X823578Y-3403327D01*
X806030Y-3401599D01*
X805868Y-3401482D01*
X805887Y-3401283D01*
X806050Y-3401200D01*
X811686Y-3401200D01*
X811706Y-3401201D01*
G37*
G36*
X261099Y-3214030D02*
G01*
X262587Y-3229140D01*
X266989Y-3243650D01*
X274137Y-3257023D01*
X283756Y-3268744D01*
X295477Y-3278363D01*
X308850Y-3285511D01*
X323360Y-3289913D01*
X338470Y-3291401D01*
X338632Y-3291517D01*
X338613Y-3291716D01*
X338450Y-3291800D01*
X332814Y-3291800D01*
X332794Y-3291799D01*
X318283Y-3290370D01*
X318244Y-3290362D01*
X304879Y-3286308D01*
X304843Y-3286293D01*
X292527Y-3279710D01*
X292495Y-3279688D01*
X281699Y-3270829D01*
X281671Y-3270801D01*
X272812Y-3260005D01*
X272790Y-3259973D01*
X266207Y-3247657D01*
X266192Y-3247621D01*
X262138Y-3234256D01*
X262130Y-3234217D01*
X260701Y-3219706D01*
X260700Y-3219686D01*
X260700Y-3214050D01*
X260800Y-3213877D01*
X261000Y-3213877D01*
X261099Y-3214030D01*
G37*
G36*
X571217Y-3213887D02*
G01*
X571300Y-3214050D01*
X571300Y-3219686D01*
X571299Y-3219706D01*
X569870Y-3234217D01*
X569862Y-3234256D01*
X565808Y-3247621D01*
X565793Y-3247657D01*
X559210Y-3259973D01*
X559188Y-3260005D01*
X550329Y-3270801D01*
X550301Y-3270829D01*
X539505Y-3279688D01*
X539473Y-3279710D01*
X527157Y-3286293D01*
X527121Y-3286308D01*
X513756Y-3290362D01*
X513717Y-3290370D01*
X499206Y-3291799D01*
X499186Y-3291800D01*
X493550Y-3291800D01*
X493377Y-3291700D01*
X493377Y-3291500D01*
X493530Y-3291401D01*
X508640Y-3289913D01*
X523150Y-3285511D01*
X536523Y-3278363D01*
X548244Y-3268744D01*
X557863Y-3257023D01*
X565011Y-3243650D01*
X569413Y-3229140D01*
X570901Y-3214030D01*
X571018Y-3213868D01*
X571217Y-3213887D01*
G37*
G36*
X13293599Y-3238580D02*
G01*
X13294106Y-3243730D01*
X13295603Y-3248664D01*
X13298033Y-3253211D01*
X13301304Y-3257196D01*
X13305289Y-3260467D01*
X13309836Y-3262897D01*
X13314770Y-3264394D01*
X13319920Y-3264901D01*
X13320082Y-3265017D01*
X13320063Y-3265216D01*
X13319900Y-3265300D01*
X13311690Y-3265300D01*
X13311671Y-3265299D01*
X13307620Y-3264900D01*
X13307582Y-3264892D01*
X13304277Y-3263890D01*
X13304240Y-3263875D01*
X13301195Y-3262247D01*
X13301163Y-3262225D01*
X13298493Y-3260034D01*
X13298465Y-3260007D01*
X13296275Y-3257337D01*
X13296253Y-3257305D01*
X13294625Y-3254259D01*
X13294610Y-3254223D01*
X13293607Y-3250918D01*
X13293600Y-3250880D01*
X13293201Y-3246829D01*
X13293200Y-3246810D01*
X13293200Y-3238600D01*
X13293300Y-3238427D01*
X13293500Y-3238427D01*
X13293599Y-3238580D01*
G37*
G36*
X13503716Y-3238437D02*
G01*
X13503800Y-3238600D01*
X13503800Y-3246810D01*
X13503799Y-3246829D01*
X13503400Y-3250880D01*
X13503392Y-3250918D01*
X13502390Y-3254223D01*
X13502375Y-3254259D01*
X13500747Y-3257305D01*
X13500725Y-3257337D01*
X13498534Y-3260007D01*
X13498507Y-3260034D01*
X13495837Y-3262225D01*
X13495805Y-3262247D01*
X13492759Y-3263875D01*
X13492723Y-3263890D01*
X13489418Y-3264892D01*
X13489380Y-3264900D01*
X13485329Y-3265299D01*
X13485310Y-3265300D01*
X13477100Y-3265300D01*
X13476927Y-3265200D01*
X13476927Y-3265000D01*
X13477080Y-3264901D01*
X13482230Y-3264394D01*
X13487164Y-3262897D01*
X13491711Y-3260467D01*
X13495696Y-3257196D01*
X13498967Y-3253211D01*
X13501397Y-3248664D01*
X13502894Y-3243730D01*
X13503401Y-3238580D01*
X13503517Y-3238418D01*
X13503716Y-3238437D01*
G37*
G36*
X7491999Y-3238380D02*
G01*
X7492506Y-3243530D01*
X7494003Y-3248464D01*
X7496433Y-3253011D01*
X7499704Y-3256996D01*
X7503689Y-3260267D01*
X7508236Y-3262697D01*
X7513170Y-3264194D01*
X7518320Y-3264701D01*
X7518482Y-3264817D01*
X7518463Y-3265016D01*
X7518300Y-3265100D01*
X7510090Y-3265100D01*
X7510071Y-3265099D01*
X7506020Y-3264700D01*
X7505982Y-3264692D01*
X7502677Y-3263690D01*
X7502640Y-3263675D01*
X7499595Y-3262047D01*
X7499563Y-3262025D01*
X7496893Y-3259834D01*
X7496865Y-3259807D01*
X7494675Y-3257137D01*
X7494653Y-3257105D01*
X7493025Y-3254059D01*
X7493010Y-3254023D01*
X7492007Y-3250718D01*
X7492000Y-3250680D01*
X7491601Y-3246629D01*
X7491600Y-3246610D01*
X7491600Y-3238400D01*
X7491700Y-3238227D01*
X7491900Y-3238227D01*
X7491999Y-3238380D01*
G37*
G36*
X8634999Y-3238380D02*
G01*
X8635506Y-3243530D01*
X8637003Y-3248464D01*
X8639433Y-3253011D01*
X8642704Y-3256996D01*
X8646689Y-3260267D01*
X8651236Y-3262697D01*
X8656170Y-3264194D01*
X8661320Y-3264701D01*
X8661482Y-3264817D01*
X8661463Y-3265016D01*
X8661300Y-3265100D01*
X8653090Y-3265100D01*
X8653071Y-3265099D01*
X8649020Y-3264700D01*
X8648982Y-3264692D01*
X8645677Y-3263690D01*
X8645641Y-3263675D01*
X8642595Y-3262047D01*
X8642563Y-3262025D01*
X8639893Y-3259834D01*
X8639866Y-3259807D01*
X8637675Y-3257137D01*
X8637653Y-3257105D01*
X8636025Y-3254059D01*
X8636010Y-3254023D01*
X8635008Y-3250718D01*
X8635000Y-3250680D01*
X8634601Y-3246629D01*
X8634600Y-3246610D01*
X8634600Y-3238400D01*
X8634700Y-3238227D01*
X8634900Y-3238227D01*
X8634999Y-3238380D01*
G37*
G36*
X7672116Y-3238237D02*
G01*
X7672200Y-3238400D01*
X7672200Y-3246610D01*
X7672199Y-3246629D01*
X7671800Y-3250680D01*
X7671792Y-3250718D01*
X7670790Y-3254023D01*
X7670775Y-3254059D01*
X7669147Y-3257105D01*
X7669125Y-3257137D01*
X7666934Y-3259807D01*
X7666907Y-3259834D01*
X7664237Y-3262025D01*
X7664205Y-3262047D01*
X7661159Y-3263675D01*
X7661123Y-3263690D01*
X7657818Y-3264692D01*
X7657780Y-3264700D01*
X7653729Y-3265099D01*
X7653710Y-3265100D01*
X7645500Y-3265100D01*
X7645327Y-3265000D01*
X7645327Y-3264800D01*
X7645480Y-3264701D01*
X7650630Y-3264194D01*
X7655564Y-3262697D01*
X7660111Y-3260267D01*
X7664096Y-3256996D01*
X7667367Y-3253011D01*
X7669797Y-3248464D01*
X7671294Y-3243530D01*
X7671801Y-3238380D01*
X7671917Y-3238218D01*
X7672116Y-3238237D01*
G37*
G36*
X8815117Y-3238237D02*
G01*
X8815200Y-3238400D01*
X8815200Y-3246610D01*
X8815199Y-3246629D01*
X8814800Y-3250680D01*
X8814793Y-3250718D01*
X8813790Y-3254023D01*
X8813775Y-3254059D01*
X8812147Y-3257105D01*
X8812125Y-3257137D01*
X8809935Y-3259807D01*
X8809907Y-3259834D01*
X8807237Y-3262025D01*
X8807205Y-3262047D01*
X8804160Y-3263675D01*
X8804123Y-3263690D01*
X8800818Y-3264692D01*
X8800780Y-3264700D01*
X8796729Y-3265099D01*
X8796710Y-3265100D01*
X8788500Y-3265100D01*
X8788327Y-3265000D01*
X8788327Y-3264800D01*
X8788480Y-3264701D01*
X8793630Y-3264194D01*
X8798564Y-3262697D01*
X8803111Y-3260267D01*
X8807096Y-3256996D01*
X8810367Y-3253011D01*
X8812797Y-3248464D01*
X8814294Y-3243530D01*
X8814801Y-3238380D01*
X8814918Y-3238218D01*
X8815117Y-3238237D01*
G37*
G36*
X13320073Y-3084800D02*
G01*
X13320073Y-3085000D01*
X13319920Y-3085099D01*
X13314770Y-3085606D01*
X13309836Y-3087103D01*
X13305289Y-3089533D01*
X13301304Y-3092804D01*
X13298033Y-3096789D01*
X13295603Y-3101336D01*
X13294106Y-3106270D01*
X13293599Y-3111420D01*
X13293482Y-3111582D01*
X13293283Y-3111563D01*
X13293200Y-3111400D01*
X13293200Y-3103190D01*
X13293201Y-3103171D01*
X13293600Y-3099120D01*
X13293607Y-3099082D01*
X13294610Y-3095777D01*
X13294625Y-3095740D01*
X13296253Y-3092695D01*
X13296275Y-3092663D01*
X13298465Y-3089993D01*
X13298493Y-3089965D01*
X13301163Y-3087775D01*
X13301195Y-3087753D01*
X13304240Y-3086125D01*
X13304277Y-3086110D01*
X13307582Y-3085107D01*
X13307620Y-3085100D01*
X13311671Y-3084701D01*
X13311690Y-3084700D01*
X13319900Y-3084700D01*
X13320073Y-3084800D01*
G37*
G36*
X13485329Y-3084701D02*
G01*
X13489380Y-3085100D01*
X13489418Y-3085107D01*
X13492723Y-3086110D01*
X13492759Y-3086125D01*
X13495805Y-3087753D01*
X13495837Y-3087775D01*
X13498507Y-3089965D01*
X13498534Y-3089993D01*
X13500725Y-3092663D01*
X13500747Y-3092695D01*
X13502375Y-3095740D01*
X13502390Y-3095777D01*
X13503392Y-3099082D01*
X13503400Y-3099120D01*
X13503799Y-3103171D01*
X13503800Y-3103190D01*
X13503800Y-3111400D01*
X13503700Y-3111573D01*
X13503500Y-3111573D01*
X13503401Y-3111420D01*
X13502894Y-3106270D01*
X13501397Y-3101336D01*
X13498967Y-3096789D01*
X13495696Y-3092804D01*
X13491711Y-3089533D01*
X13487164Y-3087103D01*
X13482230Y-3085606D01*
X13477080Y-3085099D01*
X13476918Y-3084982D01*
X13476937Y-3084783D01*
X13477100Y-3084700D01*
X13485310Y-3084700D01*
X13485329Y-3084701D01*
G37*
G36*
X8661473Y-3059600D02*
G01*
X8661473Y-3059800D01*
X8661320Y-3059899D01*
X8656170Y-3060406D01*
X8651236Y-3061903D01*
X8646689Y-3064333D01*
X8642704Y-3067604D01*
X8639433Y-3071589D01*
X8637003Y-3076136D01*
X8635506Y-3081070D01*
X8634999Y-3086220D01*
X8634883Y-3086382D01*
X8634684Y-3086363D01*
X8634600Y-3086200D01*
X8634600Y-3077990D01*
X8634601Y-3077971D01*
X8635000Y-3073920D01*
X8635008Y-3073882D01*
X8636010Y-3070577D01*
X8636025Y-3070540D01*
X8637653Y-3067495D01*
X8637675Y-3067463D01*
X8639866Y-3064793D01*
X8639893Y-3064765D01*
X8642563Y-3062575D01*
X8642595Y-3062553D01*
X8645641Y-3060925D01*
X8645677Y-3060910D01*
X8648982Y-3059907D01*
X8649020Y-3059900D01*
X8653071Y-3059501D01*
X8653090Y-3059500D01*
X8661300Y-3059500D01*
X8661473Y-3059600D01*
G37*
G36*
X7518473Y-3059600D02*
G01*
X7518473Y-3059800D01*
X7518320Y-3059899D01*
X7513170Y-3060406D01*
X7508236Y-3061903D01*
X7503689Y-3064333D01*
X7499704Y-3067604D01*
X7496433Y-3071589D01*
X7494003Y-3076136D01*
X7492506Y-3081070D01*
X7491999Y-3086220D01*
X7491882Y-3086382D01*
X7491683Y-3086363D01*
X7491600Y-3086200D01*
X7491600Y-3077990D01*
X7491601Y-3077971D01*
X7492000Y-3073920D01*
X7492007Y-3073882D01*
X7493010Y-3070577D01*
X7493025Y-3070540D01*
X7494653Y-3067495D01*
X7494675Y-3067463D01*
X7496865Y-3064793D01*
X7496893Y-3064765D01*
X7499563Y-3062575D01*
X7499595Y-3062553D01*
X7502640Y-3060925D01*
X7502677Y-3060910D01*
X7505982Y-3059907D01*
X7506020Y-3059900D01*
X7510071Y-3059501D01*
X7510090Y-3059500D01*
X7518300Y-3059500D01*
X7518473Y-3059600D01*
G37*
G36*
X8796729Y-3059501D02*
G01*
X8800780Y-3059900D01*
X8800818Y-3059907D01*
X8804123Y-3060910D01*
X8804160Y-3060925D01*
X8807205Y-3062553D01*
X8807237Y-3062575D01*
X8809907Y-3064765D01*
X8809935Y-3064793D01*
X8812125Y-3067463D01*
X8812147Y-3067495D01*
X8813775Y-3070540D01*
X8813790Y-3070577D01*
X8814793Y-3073882D01*
X8814800Y-3073920D01*
X8815199Y-3077971D01*
X8815200Y-3077990D01*
X8815200Y-3086200D01*
X8815100Y-3086373D01*
X8814900Y-3086373D01*
X8814801Y-3086220D01*
X8814294Y-3081070D01*
X8812797Y-3076136D01*
X8810367Y-3071589D01*
X8807096Y-3067604D01*
X8803111Y-3064333D01*
X8798564Y-3061903D01*
X8793630Y-3060406D01*
X8788480Y-3059899D01*
X8788318Y-3059782D01*
X8788337Y-3059583D01*
X8788500Y-3059500D01*
X8796710Y-3059500D01*
X8796729Y-3059501D01*
G37*
G36*
X7653729Y-3059501D02*
G01*
X7657780Y-3059900D01*
X7657818Y-3059907D01*
X7661123Y-3060910D01*
X7661159Y-3060925D01*
X7664205Y-3062553D01*
X7664237Y-3062575D01*
X7666907Y-3064765D01*
X7666934Y-3064793D01*
X7669125Y-3067463D01*
X7669147Y-3067495D01*
X7670775Y-3070540D01*
X7670790Y-3070577D01*
X7671792Y-3073882D01*
X7671800Y-3073920D01*
X7672199Y-3077971D01*
X7672200Y-3077990D01*
X7672200Y-3086200D01*
X7672100Y-3086373D01*
X7671900Y-3086373D01*
X7671801Y-3086220D01*
X7671294Y-3081070D01*
X7669797Y-3076136D01*
X7667367Y-3071589D01*
X7664096Y-3067604D01*
X7660111Y-3064333D01*
X7655564Y-3061903D01*
X7650630Y-3060406D01*
X7645480Y-3059899D01*
X7645318Y-3059782D01*
X7645337Y-3059583D01*
X7645500Y-3059500D01*
X7653710Y-3059500D01*
X7653729Y-3059501D01*
G37*
G36*
X338623Y-2931300D02*
G01*
X338623Y-2931500D01*
X338470Y-2931599D01*
X323360Y-2933087D01*
X308850Y-2937489D01*
X295477Y-2944637D01*
X283756Y-2954256D01*
X274137Y-2965977D01*
X266989Y-2979350D01*
X262587Y-2993860D01*
X261099Y-3008970D01*
X260982Y-3009132D01*
X260783Y-3009113D01*
X260700Y-3008950D01*
X260700Y-3003314D01*
X260701Y-3003294D01*
X262130Y-2988782D01*
X262138Y-2988744D01*
X266192Y-2975379D01*
X266207Y-2975343D01*
X272790Y-2963027D01*
X272812Y-2962995D01*
X281671Y-2952199D01*
X281699Y-2952171D01*
X292495Y-2943312D01*
X292527Y-2943290D01*
X304843Y-2936707D01*
X304879Y-2936692D01*
X318244Y-2932638D01*
X318283Y-2932630D01*
X332794Y-2931201D01*
X332814Y-2931200D01*
X338450Y-2931200D01*
X338623Y-2931300D01*
G37*
G36*
X499206Y-2931201D02*
G01*
X513717Y-2932630D01*
X513756Y-2932638D01*
X527121Y-2936692D01*
X527157Y-2936707D01*
X539473Y-2943290D01*
X539505Y-2943312D01*
X550301Y-2952171D01*
X550329Y-2952199D01*
X559188Y-2962995D01*
X559210Y-2963027D01*
X565793Y-2975343D01*
X565808Y-2975379D01*
X569862Y-2988744D01*
X569870Y-2988782D01*
X571299Y-3003294D01*
X571300Y-3003314D01*
X571300Y-3008950D01*
X571200Y-3009123D01*
X571000Y-3009123D01*
X570901Y-3008970D01*
X569413Y-2993860D01*
X565011Y-2979350D01*
X557863Y-2965977D01*
X548244Y-2954256D01*
X536523Y-2944637D01*
X523150Y-2937489D01*
X508640Y-2933087D01*
X493530Y-2931599D01*
X493368Y-2931482D01*
X493387Y-2931283D01*
X493550Y-2931200D01*
X499186Y-2931200D01*
X499206Y-2931201D01*
G37*
G36*
X13435799Y-1981280D02*
G01*
X13436306Y-1986430D01*
X13437803Y-1991364D01*
X13440233Y-1995911D01*
X13443504Y-1999896D01*
X13447489Y-2003167D01*
X13452036Y-2005597D01*
X13456970Y-2007094D01*
X13462120Y-2007601D01*
X13462282Y-2007717D01*
X13462263Y-2007916D01*
X13462100Y-2008000D01*
X13453890Y-2008000D01*
X13453871Y-2007999D01*
X13449820Y-2007600D01*
X13449782Y-2007592D01*
X13446477Y-2006590D01*
X13446440Y-2006575D01*
X13443395Y-2004947D01*
X13443363Y-2004925D01*
X13440693Y-2002734D01*
X13440665Y-2002707D01*
X13438475Y-2000037D01*
X13438453Y-2000005D01*
X13436825Y-1996959D01*
X13436810Y-1996923D01*
X13435807Y-1993618D01*
X13435800Y-1993580D01*
X13435401Y-1989529D01*
X13435400Y-1989510D01*
X13435400Y-1981300D01*
X13435500Y-1981127D01*
X13435700Y-1981127D01*
X13435799Y-1981280D01*
G37*
G36*
X13640916Y-1981137D02*
G01*
X13641000Y-1981300D01*
X13641000Y-1989510D01*
X13640999Y-1989529D01*
X13640600Y-1993580D01*
X13640592Y-1993618D01*
X13639590Y-1996923D01*
X13639575Y-1996959D01*
X13637947Y-2000005D01*
X13637925Y-2000037D01*
X13635734Y-2002707D01*
X13635707Y-2002734D01*
X13633037Y-2004925D01*
X13633005Y-2004947D01*
X13629959Y-2006575D01*
X13629923Y-2006590D01*
X13626618Y-2007592D01*
X13626580Y-2007600D01*
X13622529Y-2007999D01*
X13622510Y-2008000D01*
X13614300Y-2008000D01*
X13614127Y-2007900D01*
X13614127Y-2007700D01*
X13614280Y-2007601D01*
X13619430Y-2007094D01*
X13624364Y-2005597D01*
X13628911Y-2003167D01*
X13632896Y-1999896D01*
X13636167Y-1995911D01*
X13638597Y-1991364D01*
X13640094Y-1986430D01*
X13640601Y-1981280D01*
X13640717Y-1981118D01*
X13640916Y-1981137D01*
G37*
G36*
X13462273Y-1827500D02*
G01*
X13462273Y-1827700D01*
X13462120Y-1827799D01*
X13456970Y-1828306D01*
X13452036Y-1829803D01*
X13447489Y-1832233D01*
X13443504Y-1835504D01*
X13440233Y-1839489D01*
X13437803Y-1844036D01*
X13436306Y-1848970D01*
X13435799Y-1854120D01*
X13435682Y-1854282D01*
X13435483Y-1854263D01*
X13435400Y-1854100D01*
X13435400Y-1845890D01*
X13435401Y-1845871D01*
X13435800Y-1841820D01*
X13435807Y-1841782D01*
X13436810Y-1838477D01*
X13436825Y-1838440D01*
X13438453Y-1835395D01*
X13438475Y-1835363D01*
X13440665Y-1832693D01*
X13440693Y-1832665D01*
X13443363Y-1830475D01*
X13443395Y-1830453D01*
X13446440Y-1828825D01*
X13446477Y-1828810D01*
X13449782Y-1827807D01*
X13449820Y-1827800D01*
X13453871Y-1827401D01*
X13453890Y-1827400D01*
X13462100Y-1827400D01*
X13462273Y-1827500D01*
G37*
G36*
X13622529Y-1827401D02*
G01*
X13626580Y-1827800D01*
X13626618Y-1827807D01*
X13629923Y-1828810D01*
X13629959Y-1828825D01*
X13633005Y-1830453D01*
X13633037Y-1830475D01*
X13635707Y-1832665D01*
X13635734Y-1832693D01*
X13637925Y-1835363D01*
X13637947Y-1835395D01*
X13639575Y-1838440D01*
X13639590Y-1838477D01*
X13640592Y-1841782D01*
X13640600Y-1841820D01*
X13640999Y-1845871D01*
X13641000Y-1845890D01*
X13641000Y-1854100D01*
X13640900Y-1854273D01*
X13640700Y-1854273D01*
X13640601Y-1854120D01*
X13640094Y-1848970D01*
X13638597Y-1844036D01*
X13636167Y-1839489D01*
X13632896Y-1835504D01*
X13628911Y-1832233D01*
X13624364Y-1829803D01*
X13619430Y-1828306D01*
X13614280Y-1827799D01*
X13614118Y-1827682D01*
X13614137Y-1827483D01*
X13614300Y-1827400D01*
X13622510Y-1827400D01*
X13622529Y-1827401D01*
G37*
G36*
X8218216Y-583937D02*
G01*
X8218300Y-584100D01*
X8218300Y-592310D01*
X8218299Y-592329D01*
X8217900Y-596380D01*
X8217892Y-596418D01*
X8216890Y-599723D01*
X8216875Y-599760D01*
X8215247Y-602805D01*
X8215225Y-602837D01*
X8213034Y-605507D01*
X8213007Y-605535D01*
X8210337Y-607725D01*
X8210305Y-607747D01*
X8207259Y-609375D01*
X8207223Y-609390D01*
X8203918Y-610393D01*
X8203880Y-610400D01*
X8199829Y-610799D01*
X8199810Y-610800D01*
X8191600Y-610800D01*
X8191427Y-610700D01*
X8191427Y-610500D01*
X8191580Y-610401D01*
X8196730Y-609894D01*
X8201664Y-608397D01*
X8206211Y-605967D01*
X8210196Y-602696D01*
X8213467Y-598711D01*
X8215897Y-594164D01*
X8217394Y-589230D01*
X8217901Y-584080D01*
X8218017Y-583918D01*
X8218216Y-583937D01*
G37*
G36*
X5879099Y-584080D02*
G01*
X5879606Y-589230D01*
X5881103Y-594164D01*
X5883533Y-598711D01*
X5886804Y-602696D01*
X5890789Y-605967D01*
X5895336Y-608397D01*
X5900270Y-609894D01*
X5905420Y-610401D01*
X5905582Y-610518D01*
X5905563Y-610717D01*
X5905400Y-610800D01*
X5897190Y-610800D01*
X5897171Y-610799D01*
X5893120Y-610400D01*
X5893082Y-610393D01*
X5889777Y-609390D01*
X5889740Y-609375D01*
X5886695Y-607747D01*
X5886663Y-607725D01*
X5883993Y-605535D01*
X5883965Y-605507D01*
X5881775Y-602837D01*
X5881753Y-602805D01*
X5880125Y-599760D01*
X5880110Y-599723D01*
X5879107Y-596418D01*
X5879100Y-596380D01*
X5878701Y-592329D01*
X5878700Y-592310D01*
X5878700Y-584100D01*
X5878800Y-583927D01*
X5879000Y-583927D01*
X5879099Y-584080D01*
G37*
G36*
X12536216Y-583937D02*
G01*
X12536300Y-584100D01*
X12536300Y-592310D01*
X12536299Y-592329D01*
X12535900Y-596380D01*
X12535892Y-596418D01*
X12534890Y-599723D01*
X12534875Y-599760D01*
X12533247Y-602805D01*
X12533225Y-602837D01*
X12531034Y-605507D01*
X12531007Y-605535D01*
X12528337Y-607725D01*
X12528305Y-607747D01*
X12525259Y-609375D01*
X12525223Y-609390D01*
X12521918Y-610393D01*
X12521880Y-610400D01*
X12517829Y-610799D01*
X12517810Y-610800D01*
X12509600Y-610800D01*
X12509427Y-610700D01*
X12509427Y-610500D01*
X12509580Y-610401D01*
X12514730Y-609894D01*
X12519664Y-608397D01*
X12524211Y-605967D01*
X12528196Y-602696D01*
X12531467Y-598711D01*
X12533897Y-594164D01*
X12535394Y-589230D01*
X12535901Y-584080D01*
X12536017Y-583918D01*
X12536216Y-583937D01*
G37*
G36*
X10377217Y-583937D02*
G01*
X10377300Y-584100D01*
X10377300Y-592310D01*
X10377299Y-592329D01*
X10376900Y-596380D01*
X10376893Y-596418D01*
X10375890Y-599723D01*
X10375875Y-599760D01*
X10374247Y-602805D01*
X10374225Y-602837D01*
X10372035Y-605507D01*
X10372007Y-605535D01*
X10369337Y-607725D01*
X10369305Y-607747D01*
X10366260Y-609375D01*
X10366223Y-609390D01*
X10362918Y-610393D01*
X10362880Y-610400D01*
X10358829Y-610799D01*
X10358810Y-610800D01*
X10350600Y-610800D01*
X10350427Y-610700D01*
X10350427Y-610500D01*
X10350580Y-610401D01*
X10355730Y-609894D01*
X10360664Y-608397D01*
X10365211Y-605967D01*
X10369196Y-602696D01*
X10372467Y-598711D01*
X10374897Y-594164D01*
X10376394Y-589230D01*
X10376901Y-584080D01*
X10377018Y-583918D01*
X10377217Y-583937D01*
G37*
G36*
X8038099Y-584080D02*
G01*
X8038606Y-589230D01*
X8040103Y-594164D01*
X8042533Y-598711D01*
X8045804Y-602696D01*
X8049789Y-605967D01*
X8054336Y-608397D01*
X8059270Y-609894D01*
X8064420Y-610401D01*
X8064582Y-610518D01*
X8064563Y-610717D01*
X8064400Y-610800D01*
X8056190Y-610800D01*
X8056171Y-610799D01*
X8052120Y-610400D01*
X8052082Y-610393D01*
X8048777Y-609390D01*
X8048740Y-609375D01*
X8045695Y-607747D01*
X8045663Y-607725D01*
X8042993Y-605535D01*
X8042965Y-605507D01*
X8040775Y-602837D01*
X8040753Y-602805D01*
X8039125Y-599760D01*
X8039110Y-599723D01*
X8038107Y-596418D01*
X8038100Y-596380D01*
X8037701Y-592329D01*
X8037700Y-592310D01*
X8037700Y-584100D01*
X8037800Y-583927D01*
X8038000Y-583927D01*
X8038099Y-584080D01*
G37*
G36*
X12356099Y-584080D02*
G01*
X12356606Y-589230D01*
X12358103Y-594164D01*
X12360533Y-598711D01*
X12363804Y-602696D01*
X12367789Y-605967D01*
X12372336Y-608397D01*
X12377270Y-609894D01*
X12382420Y-610401D01*
X12382582Y-610518D01*
X12382563Y-610717D01*
X12382400Y-610800D01*
X12374190Y-610800D01*
X12374171Y-610799D01*
X12370120Y-610400D01*
X12370082Y-610393D01*
X12366777Y-609390D01*
X12366740Y-609375D01*
X12363695Y-607747D01*
X12363663Y-607725D01*
X12360993Y-605535D01*
X12360965Y-605507D01*
X12358775Y-602837D01*
X12358753Y-602805D01*
X12357125Y-599760D01*
X12357110Y-599723D01*
X12356107Y-596418D01*
X12356100Y-596380D01*
X12355701Y-592329D01*
X12355700Y-592310D01*
X12355700Y-584100D01*
X12355800Y-583927D01*
X12356000Y-583927D01*
X12356099Y-584080D01*
G37*
G36*
X6059216Y-583937D02*
G01*
X6059300Y-584100D01*
X6059300Y-592310D01*
X6059299Y-592329D01*
X6058900Y-596380D01*
X6058892Y-596418D01*
X6057890Y-599723D01*
X6057875Y-599760D01*
X6056247Y-602805D01*
X6056225Y-602837D01*
X6054034Y-605507D01*
X6054007Y-605535D01*
X6051337Y-607725D01*
X6051305Y-607747D01*
X6048259Y-609375D01*
X6048223Y-609390D01*
X6044918Y-610393D01*
X6044880Y-610400D01*
X6040829Y-610799D01*
X6040810Y-610800D01*
X6032600Y-610800D01*
X6032427Y-610700D01*
X6032427Y-610500D01*
X6032580Y-610401D01*
X6037730Y-609894D01*
X6042664Y-608397D01*
X6047211Y-605967D01*
X6051196Y-602696D01*
X6054467Y-598711D01*
X6056897Y-594164D01*
X6058394Y-589230D01*
X6058901Y-584080D01*
X6059017Y-583918D01*
X6059216Y-583937D01*
G37*
G36*
X3720099Y-584080D02*
G01*
X3720606Y-589230D01*
X3722103Y-594164D01*
X3724533Y-598711D01*
X3727804Y-602696D01*
X3731789Y-605967D01*
X3736336Y-608397D01*
X3741270Y-609894D01*
X3746420Y-610401D01*
X3746582Y-610518D01*
X3746563Y-610717D01*
X3746400Y-610800D01*
X3738190Y-610800D01*
X3738171Y-610799D01*
X3734120Y-610400D01*
X3734082Y-610393D01*
X3730777Y-609390D01*
X3730740Y-609375D01*
X3727695Y-607747D01*
X3727663Y-607725D01*
X3724993Y-605535D01*
X3724965Y-605507D01*
X3722775Y-602837D01*
X3722753Y-602805D01*
X3721125Y-599760D01*
X3721110Y-599723D01*
X3720107Y-596418D01*
X3720100Y-596380D01*
X3719701Y-592329D01*
X3719700Y-592310D01*
X3719700Y-584100D01*
X3719800Y-583927D01*
X3720000Y-583927D01*
X3720099Y-584080D01*
G37*
G36*
X3900216Y-583937D02*
G01*
X3900300Y-584100D01*
X3900300Y-592310D01*
X3900299Y-592329D01*
X3899900Y-596380D01*
X3899892Y-596418D01*
X3898890Y-599723D01*
X3898875Y-599760D01*
X3897247Y-602805D01*
X3897225Y-602837D01*
X3895034Y-605507D01*
X3895007Y-605535D01*
X3892337Y-607725D01*
X3892305Y-607747D01*
X3889259Y-609375D01*
X3889223Y-609390D01*
X3885918Y-610393D01*
X3885880Y-610400D01*
X3881829Y-610799D01*
X3881810Y-610800D01*
X3873600Y-610800D01*
X3873427Y-610700D01*
X3873427Y-610500D01*
X3873580Y-610401D01*
X3878730Y-609894D01*
X3883664Y-608397D01*
X3888211Y-605967D01*
X3892196Y-602696D01*
X3895467Y-598711D01*
X3897897Y-594164D01*
X3899394Y-589230D01*
X3899901Y-584080D01*
X3900017Y-583918D01*
X3900216Y-583937D01*
G37*
G36*
X1815099Y-584080D02*
G01*
X1815606Y-589230D01*
X1817103Y-594164D01*
X1819533Y-598711D01*
X1822804Y-602696D01*
X1826789Y-605967D01*
X1831336Y-608397D01*
X1836270Y-609894D01*
X1841420Y-610401D01*
X1841582Y-610518D01*
X1841563Y-610717D01*
X1841400Y-610800D01*
X1833190Y-610800D01*
X1833171Y-610799D01*
X1829120Y-610400D01*
X1829082Y-610393D01*
X1825777Y-609390D01*
X1825740Y-609375D01*
X1822695Y-607747D01*
X1822663Y-607725D01*
X1819993Y-605535D01*
X1819965Y-605507D01*
X1817775Y-602837D01*
X1817753Y-602805D01*
X1816125Y-599760D01*
X1816110Y-599723D01*
X1815107Y-596418D01*
X1815100Y-596380D01*
X1814701Y-592329D01*
X1814700Y-592310D01*
X1814700Y-584100D01*
X1814800Y-583927D01*
X1815000Y-583927D01*
X1815099Y-584080D01*
G37*
G36*
X1995216Y-583937D02*
G01*
X1995300Y-584100D01*
X1995300Y-592310D01*
X1995299Y-592329D01*
X1994900Y-596380D01*
X1994892Y-596418D01*
X1993890Y-599723D01*
X1993875Y-599760D01*
X1992247Y-602805D01*
X1992225Y-602837D01*
X1990034Y-605507D01*
X1990007Y-605535D01*
X1987337Y-607725D01*
X1987305Y-607747D01*
X1984259Y-609375D01*
X1984223Y-609390D01*
X1980918Y-610393D01*
X1980880Y-610400D01*
X1976829Y-610799D01*
X1976810Y-610800D01*
X1968600Y-610800D01*
X1968427Y-610700D01*
X1968427Y-610500D01*
X1968580Y-610401D01*
X1973730Y-609894D01*
X1978664Y-608397D01*
X1983211Y-605967D01*
X1987196Y-602696D01*
X1990467Y-598711D01*
X1992897Y-594164D01*
X1994394Y-589230D01*
X1994901Y-584080D01*
X1995017Y-583918D01*
X1995216Y-583937D01*
G37*
G36*
X10197099Y-584080D02*
G01*
X10197606Y-589230D01*
X10199103Y-594164D01*
X10201533Y-598711D01*
X10204804Y-602696D01*
X10208789Y-605967D01*
X10213336Y-608397D01*
X10218270Y-609894D01*
X10223420Y-610401D01*
X10223582Y-610518D01*
X10223563Y-610717D01*
X10223400Y-610800D01*
X10215190Y-610800D01*
X10215171Y-610799D01*
X10211120Y-610400D01*
X10211082Y-610393D01*
X10207777Y-609390D01*
X10207741Y-609375D01*
X10204695Y-607747D01*
X10204663Y-607725D01*
X10201993Y-605535D01*
X10201966Y-605507D01*
X10199775Y-602837D01*
X10199753Y-602805D01*
X10198125Y-599760D01*
X10198110Y-599723D01*
X10197108Y-596418D01*
X10197100Y-596380D01*
X10196701Y-592329D01*
X10196700Y-592310D01*
X10196700Y-584100D01*
X10196800Y-583927D01*
X10197000Y-583927D01*
X10197099Y-584080D01*
G37*
G36*
X8064573Y-405300D02*
G01*
X8064573Y-405500D01*
X8064420Y-405599D01*
X8059270Y-406106D01*
X8054336Y-407603D01*
X8049789Y-410033D01*
X8045804Y-413304D01*
X8042533Y-417289D01*
X8040103Y-421836D01*
X8038606Y-426770D01*
X8038099Y-431920D01*
X8037982Y-432082D01*
X8037783Y-432063D01*
X8037700Y-431900D01*
X8037700Y-423690D01*
X8037701Y-423671D01*
X8038100Y-419620D01*
X8038107Y-419582D01*
X8039110Y-416277D01*
X8039125Y-416240D01*
X8040753Y-413195D01*
X8040775Y-413163D01*
X8042965Y-410493D01*
X8042993Y-410465D01*
X8045663Y-408275D01*
X8045695Y-408253D01*
X8048740Y-406625D01*
X8048777Y-406610D01*
X8052082Y-405607D01*
X8052120Y-405600D01*
X8056171Y-405201D01*
X8056190Y-405200D01*
X8064400Y-405200D01*
X8064573Y-405300D01*
G37*
G36*
X12382573Y-405300D02*
G01*
X12382573Y-405500D01*
X12382420Y-405599D01*
X12377270Y-406106D01*
X12372336Y-407603D01*
X12367789Y-410033D01*
X12363804Y-413304D01*
X12360533Y-417289D01*
X12358103Y-421836D01*
X12356606Y-426770D01*
X12356099Y-431920D01*
X12355982Y-432082D01*
X12355783Y-432063D01*
X12355700Y-431900D01*
X12355700Y-423690D01*
X12355701Y-423671D01*
X12356100Y-419620D01*
X12356107Y-419582D01*
X12357110Y-416277D01*
X12357125Y-416240D01*
X12358753Y-413195D01*
X12358775Y-413163D01*
X12360965Y-410493D01*
X12360993Y-410465D01*
X12363663Y-408275D01*
X12363695Y-408253D01*
X12366740Y-406625D01*
X12366777Y-406610D01*
X12370082Y-405607D01*
X12370120Y-405600D01*
X12374171Y-405201D01*
X12374190Y-405200D01*
X12382400Y-405200D01*
X12382573Y-405300D01*
G37*
G36*
X10223573Y-405300D02*
G01*
X10223573Y-405500D01*
X10223420Y-405599D01*
X10218270Y-406106D01*
X10213336Y-407603D01*
X10208789Y-410033D01*
X10204804Y-413304D01*
X10201533Y-417289D01*
X10199103Y-421836D01*
X10197606Y-426770D01*
X10197099Y-431920D01*
X10196983Y-432082D01*
X10196784Y-432063D01*
X10196700Y-431900D01*
X10196700Y-423690D01*
X10196701Y-423671D01*
X10197100Y-419620D01*
X10197108Y-419582D01*
X10198110Y-416277D01*
X10198125Y-416240D01*
X10199753Y-413195D01*
X10199775Y-413163D01*
X10201966Y-410493D01*
X10201993Y-410465D01*
X10204663Y-408275D01*
X10204695Y-408253D01*
X10207741Y-406625D01*
X10207777Y-406610D01*
X10211082Y-405607D01*
X10211120Y-405600D01*
X10215171Y-405201D01*
X10215190Y-405200D01*
X10223400Y-405200D01*
X10223573Y-405300D01*
G37*
G36*
X5905573Y-405300D02*
G01*
X5905573Y-405500D01*
X5905420Y-405599D01*
X5900270Y-406106D01*
X5895336Y-407603D01*
X5890789Y-410033D01*
X5886804Y-413304D01*
X5883533Y-417289D01*
X5881103Y-421836D01*
X5879606Y-426770D01*
X5879099Y-431920D01*
X5878982Y-432082D01*
X5878783Y-432063D01*
X5878700Y-431900D01*
X5878700Y-423690D01*
X5878701Y-423671D01*
X5879100Y-419620D01*
X5879107Y-419582D01*
X5880110Y-416277D01*
X5880125Y-416240D01*
X5881753Y-413195D01*
X5881775Y-413163D01*
X5883965Y-410493D01*
X5883993Y-410465D01*
X5886663Y-408275D01*
X5886695Y-408253D01*
X5889740Y-406625D01*
X5889777Y-406610D01*
X5893082Y-405607D01*
X5893120Y-405600D01*
X5897171Y-405201D01*
X5897190Y-405200D01*
X5905400Y-405200D01*
X5905573Y-405300D01*
G37*
G36*
X3746573Y-405300D02*
G01*
X3746573Y-405500D01*
X3746420Y-405599D01*
X3741270Y-406106D01*
X3736336Y-407603D01*
X3731789Y-410033D01*
X3727804Y-413304D01*
X3724533Y-417289D01*
X3722103Y-421836D01*
X3720606Y-426770D01*
X3720099Y-431920D01*
X3719982Y-432082D01*
X3719783Y-432063D01*
X3719700Y-431900D01*
X3719700Y-423690D01*
X3719701Y-423671D01*
X3720100Y-419620D01*
X3720107Y-419582D01*
X3721110Y-416277D01*
X3721125Y-416240D01*
X3722753Y-413195D01*
X3722775Y-413163D01*
X3724965Y-410493D01*
X3724993Y-410465D01*
X3727663Y-408275D01*
X3727695Y-408253D01*
X3730740Y-406625D01*
X3730777Y-406610D01*
X3734082Y-405607D01*
X3734120Y-405600D01*
X3738171Y-405201D01*
X3738190Y-405200D01*
X3746400Y-405200D01*
X3746573Y-405300D01*
G37*
G36*
X1841573Y-405300D02*
G01*
X1841573Y-405500D01*
X1841420Y-405599D01*
X1836270Y-406106D01*
X1831336Y-407603D01*
X1826789Y-410033D01*
X1822804Y-413304D01*
X1819533Y-417289D01*
X1817103Y-421836D01*
X1815606Y-426770D01*
X1815099Y-431920D01*
X1814982Y-432082D01*
X1814783Y-432063D01*
X1814700Y-431900D01*
X1814700Y-423690D01*
X1814701Y-423671D01*
X1815100Y-419620D01*
X1815107Y-419582D01*
X1816110Y-416277D01*
X1816125Y-416240D01*
X1817753Y-413195D01*
X1817775Y-413163D01*
X1819965Y-410493D01*
X1819993Y-410465D01*
X1822663Y-408275D01*
X1822695Y-408253D01*
X1825740Y-406625D01*
X1825777Y-406610D01*
X1829082Y-405607D01*
X1829120Y-405600D01*
X1833171Y-405201D01*
X1833190Y-405200D01*
X1841400Y-405200D01*
X1841573Y-405300D01*
G37*
G36*
X1976829Y-405201D02*
G01*
X1980880Y-405600D01*
X1980918Y-405607D01*
X1984223Y-406610D01*
X1984259Y-406625D01*
X1987305Y-408253D01*
X1987337Y-408275D01*
X1990007Y-410465D01*
X1990034Y-410493D01*
X1992225Y-413163D01*
X1992247Y-413195D01*
X1993875Y-416240D01*
X1993890Y-416277D01*
X1994892Y-419582D01*
X1994900Y-419620D01*
X1995299Y-423671D01*
X1995300Y-423690D01*
X1995300Y-431900D01*
X1995200Y-432073D01*
X1995000Y-432073D01*
X1994901Y-431920D01*
X1994394Y-426770D01*
X1992897Y-421836D01*
X1990467Y-417289D01*
X1987196Y-413304D01*
X1983211Y-410033D01*
X1978664Y-407603D01*
X1973730Y-406106D01*
X1968580Y-405599D01*
X1968418Y-405482D01*
X1968437Y-405283D01*
X1968600Y-405200D01*
X1976810Y-405200D01*
X1976829Y-405201D01*
G37*
G36*
X8199829Y-405201D02*
G01*
X8203880Y-405600D01*
X8203918Y-405607D01*
X8207223Y-406610D01*
X8207259Y-406625D01*
X8210305Y-408253D01*
X8210337Y-408275D01*
X8213007Y-410465D01*
X8213034Y-410493D01*
X8215225Y-413163D01*
X8215247Y-413195D01*
X8216875Y-416240D01*
X8216890Y-416277D01*
X8217892Y-419582D01*
X8217900Y-419620D01*
X8218299Y-423671D01*
X8218300Y-423690D01*
X8218300Y-431900D01*
X8218200Y-432073D01*
X8218000Y-432073D01*
X8217901Y-431920D01*
X8217394Y-426770D01*
X8215897Y-421836D01*
X8213467Y-417289D01*
X8210196Y-413304D01*
X8206211Y-410033D01*
X8201664Y-407603D01*
X8196730Y-406106D01*
X8191580Y-405599D01*
X8191418Y-405482D01*
X8191437Y-405283D01*
X8191600Y-405200D01*
X8199810Y-405200D01*
X8199829Y-405201D01*
G37*
G36*
X10358829Y-405201D02*
G01*
X10362880Y-405600D01*
X10362918Y-405607D01*
X10366223Y-406610D01*
X10366260Y-406625D01*
X10369305Y-408253D01*
X10369337Y-408275D01*
X10372007Y-410465D01*
X10372035Y-410493D01*
X10374225Y-413163D01*
X10374247Y-413195D01*
X10375875Y-416240D01*
X10375890Y-416277D01*
X10376893Y-419582D01*
X10376900Y-419620D01*
X10377299Y-423671D01*
X10377300Y-423690D01*
X10377300Y-431900D01*
X10377200Y-432073D01*
X10377000Y-432073D01*
X10376901Y-431920D01*
X10376394Y-426770D01*
X10374897Y-421836D01*
X10372467Y-417289D01*
X10369196Y-413304D01*
X10365211Y-410033D01*
X10360664Y-407603D01*
X10355730Y-406106D01*
X10350580Y-405599D01*
X10350418Y-405482D01*
X10350437Y-405283D01*
X10350600Y-405200D01*
X10358810Y-405200D01*
X10358829Y-405201D01*
G37*
G36*
X12517829Y-405201D02*
G01*
X12521880Y-405600D01*
X12521918Y-405607D01*
X12525223Y-406610D01*
X12525259Y-406625D01*
X12528305Y-408253D01*
X12528337Y-408275D01*
X12531007Y-410465D01*
X12531034Y-410493D01*
X12533225Y-413163D01*
X12533247Y-413195D01*
X12534875Y-416240D01*
X12534890Y-416277D01*
X12535892Y-419582D01*
X12535900Y-419620D01*
X12536299Y-423671D01*
X12536300Y-423690D01*
X12536300Y-431900D01*
X12536200Y-432073D01*
X12536000Y-432073D01*
X12535901Y-431920D01*
X12535394Y-426770D01*
X12533897Y-421836D01*
X12531467Y-417289D01*
X12528196Y-413304D01*
X12524211Y-410033D01*
X12519664Y-407603D01*
X12514730Y-406106D01*
X12509580Y-405599D01*
X12509418Y-405482D01*
X12509437Y-405283D01*
X12509600Y-405200D01*
X12517810Y-405200D01*
X12517829Y-405201D01*
G37*
G36*
X3881829Y-405201D02*
G01*
X3885880Y-405600D01*
X3885918Y-405607D01*
X3889223Y-406610D01*
X3889259Y-406625D01*
X3892305Y-408253D01*
X3892337Y-408275D01*
X3895007Y-410465D01*
X3895034Y-410493D01*
X3897225Y-413163D01*
X3897247Y-413195D01*
X3898875Y-416240D01*
X3898890Y-416277D01*
X3899892Y-419582D01*
X3899900Y-419620D01*
X3900299Y-423671D01*
X3900300Y-423690D01*
X3900300Y-431900D01*
X3900200Y-432073D01*
X3900000Y-432073D01*
X3899901Y-431920D01*
X3899394Y-426770D01*
X3897897Y-421836D01*
X3895467Y-417289D01*
X3892196Y-413304D01*
X3888211Y-410033D01*
X3883664Y-407603D01*
X3878730Y-406106D01*
X3873580Y-405599D01*
X3873418Y-405482D01*
X3873437Y-405283D01*
X3873600Y-405200D01*
X3881810Y-405200D01*
X3881829Y-405201D01*
G37*
G36*
X6040829Y-405201D02*
G01*
X6044880Y-405600D01*
X6044918Y-405607D01*
X6048223Y-406610D01*
X6048259Y-406625D01*
X6051305Y-408253D01*
X6051337Y-408275D01*
X6054007Y-410465D01*
X6054034Y-410493D01*
X6056225Y-413163D01*
X6056247Y-413195D01*
X6057875Y-416240D01*
X6057890Y-416277D01*
X6058892Y-419582D01*
X6058900Y-419620D01*
X6059299Y-423671D01*
X6059300Y-423690D01*
X6059300Y-431900D01*
X6059200Y-432073D01*
X6059000Y-432073D01*
X6058901Y-431920D01*
X6058394Y-426770D01*
X6056897Y-421836D01*
X6054467Y-417289D01*
X6051196Y-413304D01*
X6047211Y-410033D01*
X6042664Y-407603D01*
X6037730Y-406106D01*
X6032580Y-405599D01*
X6032418Y-405482D01*
X6032437Y-405283D01*
X6032600Y-405200D01*
X6040810Y-405200D01*
X6040829Y-405201D01*
G37*
M02*
