%TF.GenerationSoftware,KiCad,Pcbnew,5.1.7+dfsg1-1~bpo10+1*%
%TF.CreationDate,2020-11-15T21:32:18+00:00*%
%TF.ProjectId,mobo,6d6f626f-2e6b-4696-9361-645f70636258,rev?*%
%TF.SameCoordinates,Original*%
%TF.FileFunction,Legend,Bot*%
%TF.FilePolarity,Positive*%
%FSLAX45Y45*%
G04 Gerber Fmt 4.5, Leading zero omitted, Abs format (unit mm)*
G04 Created by KiCad (PCBNEW 5.1.7+dfsg1-1~bpo10+1) date 2020-11-15 21:32:18*
%MOMM*%
%LPD*%
G01*
G04 APERTURE LIST*
%TA.AperFunction,Profile*%
%ADD10C,0.200000*%
%TD*%
%ADD11C,0.150000*%
%ADD12C,0.010000*%
%ADD13O,1.802000X1.802000*%
G04 APERTURE END LIST*
D10*
X10078686Y-16898000D02*
G75*
G03*
X10078686Y-16898000I-150000J0D01*
G01*
X9313000Y-16132314D02*
G75*
G03*
X9313000Y-16132314I-150000J0D01*
G01*
X18263000Y-11798000D02*
X16263000Y-11798000D01*
X18263000Y-13798000D02*
X18263000Y-11798000D01*
X10029424Y-10598000D02*
G75*
G03*
X10029424Y-10598000I-150000J0D01*
G01*
X20541427Y-13398000D02*
G75*
G03*
X20541427Y-13398000I-150000J0D01*
G01*
X8984826Y-10298000D02*
X18263000Y-10298000D01*
X7702340Y-11580485D02*
X8984826Y-10298000D01*
X10972211Y-13852451D02*
G75*
G03*
X10972211Y-13852451I-150000J0D01*
G01*
X15074964Y-14810514D02*
G75*
G03*
X15074964Y-14810514I-150000J0D01*
G01*
X11675420Y-14754866D02*
G75*
G03*
X11675420Y-14754866I-150000J0D01*
G01*
X16263000Y-17298000D02*
X9763000Y-17298000D01*
X16263000Y-11798000D02*
X16263000Y-17298000D01*
X13413000Y-12473000D02*
G75*
G03*
X13413000Y-12473000I-150000J0D01*
G01*
X9413000Y-14555359D02*
G75*
G03*
X9413000Y-14555359I-150000J0D01*
G01*
X7702340Y-12994699D02*
X7702340Y-11580485D01*
X8763000Y-14055359D02*
X7702340Y-12994699D01*
X15807333Y-13931598D02*
G75*
G03*
X15807333Y-13931598I-150000J0D01*
G01*
X8763000Y-16298000D02*
X8763000Y-14055359D01*
X9763000Y-17298000D02*
X8763000Y-16298000D01*
X22650482Y-13798000D02*
X18263000Y-13798000D01*
X18263000Y-10298000D02*
G75*
G02*
X22650482Y-13798000I0J-4500000D01*
G01*
X16013000Y-12198000D02*
G75*
G03*
X16013000Y-12198000I-150000J0D01*
G01*
%LPC*%
D11*
X19403107Y-13095357D02*
X19436440Y-13095357D01*
X19436440Y-13147738D02*
X19436440Y-13047738D01*
X19388821Y-13047738D01*
X19350726Y-13095357D02*
X19317393Y-13095357D01*
X19303107Y-13147738D02*
X19350726Y-13147738D01*
X19350726Y-13047738D01*
X19303107Y-13047738D01*
X19260250Y-13095357D02*
X19226917Y-13095357D01*
X19212631Y-13147738D02*
X19260250Y-13147738D01*
X19260250Y-13047738D01*
X19212631Y-13047738D01*
X19169774Y-13147738D02*
X19169774Y-13047738D01*
X19145964Y-13047738D01*
X19131679Y-13052500D01*
X19122155Y-13062024D01*
X19117393Y-13071548D01*
X19112631Y-13090595D01*
X19112631Y-13104881D01*
X19117393Y-13123928D01*
X19122155Y-13133452D01*
X19131679Y-13142976D01*
X19145964Y-13147738D01*
X19169774Y-13147738D01*
X19069774Y-13095357D02*
X19036440Y-13095357D01*
X19022155Y-13147738D02*
X19069774Y-13147738D01*
X19069774Y-13047738D01*
X19022155Y-13047738D01*
X18922155Y-13147738D02*
X18955488Y-13100119D01*
X18979298Y-13147738D02*
X18979298Y-13047738D01*
X18941202Y-13047738D01*
X18931679Y-13052500D01*
X18926917Y-13057262D01*
X18922155Y-13066786D01*
X18922155Y-13081071D01*
X18926917Y-13090595D01*
X18931679Y-13095357D01*
X18941202Y-13100119D01*
X18979298Y-13100119D01*
X18803107Y-13147738D02*
X18803107Y-13047738D01*
X18769774Y-13119167D01*
X18736440Y-13047738D01*
X18736440Y-13147738D01*
X18669774Y-13047738D02*
X18650726Y-13047738D01*
X18641202Y-13052500D01*
X18631679Y-13062024D01*
X18626917Y-13081071D01*
X18626917Y-13114405D01*
X18631679Y-13133452D01*
X18641202Y-13142976D01*
X18650726Y-13147738D01*
X18669774Y-13147738D01*
X18679298Y-13142976D01*
X18688821Y-13133452D01*
X18693583Y-13114405D01*
X18693583Y-13081071D01*
X18688821Y-13062024D01*
X18679298Y-13052500D01*
X18669774Y-13047738D01*
X18550726Y-13095357D02*
X18536440Y-13100119D01*
X18531679Y-13104881D01*
X18526917Y-13114405D01*
X18526917Y-13128690D01*
X18531679Y-13138214D01*
X18536440Y-13142976D01*
X18545964Y-13147738D01*
X18584060Y-13147738D01*
X18584060Y-13047738D01*
X18550726Y-13047738D01*
X18541202Y-13052500D01*
X18536440Y-13057262D01*
X18531679Y-13066786D01*
X18531679Y-13076309D01*
X18536440Y-13085833D01*
X18541202Y-13090595D01*
X18550726Y-13095357D01*
X18584060Y-13095357D01*
X18465012Y-13047738D02*
X18445964Y-13047738D01*
X18436440Y-13052500D01*
X18426917Y-13062024D01*
X18422155Y-13081071D01*
X18422155Y-13114405D01*
X18426917Y-13133452D01*
X18436440Y-13142976D01*
X18445964Y-13147738D01*
X18465012Y-13147738D01*
X18474536Y-13142976D01*
X18484060Y-13133452D01*
X18488821Y-13114405D01*
X18488821Y-13081071D01*
X18484060Y-13062024D01*
X18474536Y-13052500D01*
X18465012Y-13047738D01*
X19445964Y-13246071D02*
X19422155Y-13312738D01*
X19398345Y-13246071D01*
X19341202Y-13212738D02*
X19331679Y-13212738D01*
X19322155Y-13217500D01*
X19317393Y-13222262D01*
X19312631Y-13231786D01*
X19307869Y-13250833D01*
X19307869Y-13274643D01*
X19312631Y-13293690D01*
X19317393Y-13303214D01*
X19322155Y-13307976D01*
X19331679Y-13312738D01*
X19341202Y-13312738D01*
X19350726Y-13307976D01*
X19355488Y-13303214D01*
X19360250Y-13293690D01*
X19365012Y-13274643D01*
X19365012Y-13250833D01*
X19360250Y-13231786D01*
X19355488Y-13222262D01*
X19350726Y-13217500D01*
X19341202Y-13212738D01*
X19265012Y-13303214D02*
X19260250Y-13307976D01*
X19265012Y-13312738D01*
X19269774Y-13307976D01*
X19265012Y-13303214D01*
X19265012Y-13312738D01*
X19222155Y-13222262D02*
X19217393Y-13217500D01*
X19207869Y-13212738D01*
X19184060Y-13212738D01*
X19174536Y-13217500D01*
X19169774Y-13222262D01*
X19165012Y-13231786D01*
X19165012Y-13241309D01*
X19169774Y-13255595D01*
X19226917Y-13312738D01*
X19165012Y-13312738D01*
X19122155Y-13303214D02*
X19117393Y-13307976D01*
X19122155Y-13312738D01*
X19126917Y-13307976D01*
X19122155Y-13303214D01*
X19122155Y-13312738D01*
X19055488Y-13212738D02*
X19045964Y-13212738D01*
X19036440Y-13217500D01*
X19031679Y-13222262D01*
X19026917Y-13231786D01*
X19022155Y-13250833D01*
X19022155Y-13274643D01*
X19026917Y-13293690D01*
X19031679Y-13303214D01*
X19036440Y-13307976D01*
X19045964Y-13312738D01*
X19055488Y-13312738D01*
X19065012Y-13307976D01*
X19069774Y-13303214D01*
X19074536Y-13293690D01*
X19079298Y-13274643D01*
X19079298Y-13250833D01*
X19074536Y-13231786D01*
X19069774Y-13222262D01*
X19065012Y-13217500D01*
X19055488Y-13212738D01*
X19441202Y-13387262D02*
X19436440Y-13382500D01*
X19426917Y-13377738D01*
X19403107Y-13377738D01*
X19393583Y-13382500D01*
X19388821Y-13387262D01*
X19384060Y-13396786D01*
X19384060Y-13406309D01*
X19388821Y-13420595D01*
X19445964Y-13477738D01*
X19384060Y-13477738D01*
X19322155Y-13377738D02*
X19312631Y-13377738D01*
X19303107Y-13382500D01*
X19298345Y-13387262D01*
X19293583Y-13396786D01*
X19288821Y-13415833D01*
X19288821Y-13439643D01*
X19293583Y-13458690D01*
X19298345Y-13468214D01*
X19303107Y-13472976D01*
X19312631Y-13477738D01*
X19322155Y-13477738D01*
X19331679Y-13472976D01*
X19336440Y-13468214D01*
X19341202Y-13458690D01*
X19345964Y-13439643D01*
X19345964Y-13415833D01*
X19341202Y-13396786D01*
X19336440Y-13387262D01*
X19331679Y-13382500D01*
X19322155Y-13377738D01*
X19226917Y-13377738D02*
X19217393Y-13377738D01*
X19207869Y-13382500D01*
X19203107Y-13387262D01*
X19198345Y-13396786D01*
X19193583Y-13415833D01*
X19193583Y-13439643D01*
X19198345Y-13458690D01*
X19203107Y-13468214D01*
X19207869Y-13472976D01*
X19217393Y-13477738D01*
X19226917Y-13477738D01*
X19236440Y-13472976D01*
X19241202Y-13468214D01*
X19245964Y-13458690D01*
X19250726Y-13439643D01*
X19250726Y-13415833D01*
X19245964Y-13396786D01*
X19241202Y-13387262D01*
X19236440Y-13382500D01*
X19226917Y-13377738D01*
X19107869Y-13411071D02*
X19107869Y-13477738D01*
X19131679Y-13372976D02*
X19155488Y-13444405D01*
X19093583Y-13444405D01*
X19065012Y-13377738D02*
X18998345Y-13477738D01*
X18998345Y-13377738D02*
X19065012Y-13477738D01*
X18969774Y-13377738D02*
X18903107Y-13477738D01*
X18903107Y-13377738D02*
X18969774Y-13477738D01*
X19436440Y-13642738D02*
X19436440Y-13542738D01*
X19388821Y-13576071D02*
X19388821Y-13642738D01*
X19388821Y-13585595D02*
X19384060Y-13580833D01*
X19374536Y-13576071D01*
X19360250Y-13576071D01*
X19350726Y-13580833D01*
X19345964Y-13590357D01*
X19345964Y-13642738D01*
X19255488Y-13642738D02*
X19255488Y-13542738D01*
X19255488Y-13637976D02*
X19265012Y-13642738D01*
X19284060Y-13642738D01*
X19293583Y-13637976D01*
X19298345Y-13633214D01*
X19303107Y-13623690D01*
X19303107Y-13595119D01*
X19298345Y-13585595D01*
X19293583Y-13580833D01*
X19284060Y-13576071D01*
X19265012Y-13576071D01*
X19255488Y-13580833D01*
X19169774Y-13637976D02*
X19179298Y-13642738D01*
X19198345Y-13642738D01*
X19207869Y-13637976D01*
X19212631Y-13628452D01*
X19212631Y-13590357D01*
X19207869Y-13580833D01*
X19198345Y-13576071D01*
X19179298Y-13576071D01*
X19169774Y-13580833D01*
X19165012Y-13590357D01*
X19165012Y-13599881D01*
X19212631Y-13609405D01*
X19131679Y-13642738D02*
X19079298Y-13576071D01*
X19131679Y-13576071D02*
X19079298Y-13642738D01*
X18965012Y-13642738D02*
X18965012Y-13542738D01*
X18926917Y-13542738D01*
X18917393Y-13547500D01*
X18912631Y-13552262D01*
X18907869Y-13561786D01*
X18907869Y-13576071D01*
X18912631Y-13585595D01*
X18917393Y-13590357D01*
X18926917Y-13595119D01*
X18965012Y-13595119D01*
X18865012Y-13642738D02*
X18865012Y-13542738D01*
X18807869Y-13642738D01*
X18807869Y-13542738D01*
X18760250Y-13642738D02*
X18760250Y-13542738D01*
X18722155Y-13542738D01*
X18712631Y-13547500D01*
X18707869Y-13552262D01*
X18703107Y-13561786D01*
X18703107Y-13576071D01*
X18707869Y-13585595D01*
X18712631Y-13590357D01*
X18722155Y-13595119D01*
X18760250Y-13595119D01*
D12*
G36*
X21916818Y-13000947D02*
G01*
X21915075Y-13001839D01*
X21912469Y-13003247D01*
X21909115Y-13005106D01*
X21905127Y-13007353D01*
X21900621Y-13009924D01*
X21895711Y-13012753D01*
X21891596Y-13015144D01*
X21886229Y-13018275D01*
X21879970Y-13021923D01*
X21873027Y-13025969D01*
X21865605Y-13030293D01*
X21857912Y-13034775D01*
X21850153Y-13039294D01*
X21842536Y-13043729D01*
X21835267Y-13047961D01*
X21832115Y-13049795D01*
X21824331Y-13054338D01*
X21817599Y-13058294D01*
X21811861Y-13061698D01*
X21807061Y-13064585D01*
X21803143Y-13066991D01*
X21800050Y-13068949D01*
X21797725Y-13070495D01*
X21796112Y-13071663D01*
X21795155Y-13072488D01*
X21795087Y-13072559D01*
X21792119Y-13076440D01*
X21789481Y-13081183D01*
X21787389Y-13086384D01*
X21786999Y-13087630D01*
X21786271Y-13089962D01*
X21785616Y-13091819D01*
X21785155Y-13092861D01*
X21785096Y-13092942D01*
X21784592Y-13092677D01*
X21783660Y-13091504D01*
X21782464Y-13089643D01*
X21781845Y-13088574D01*
X21780419Y-13086118D01*
X21779042Y-13083901D01*
X21777952Y-13082304D01*
X21777707Y-13081992D01*
X21776708Y-13080906D01*
X21775920Y-13080708D01*
X21774762Y-13081295D01*
X21774532Y-13081437D01*
X21772574Y-13082628D01*
X21769779Y-13084296D01*
X21766264Y-13086371D01*
X21762148Y-13088786D01*
X21757549Y-13091473D01*
X21752585Y-13094364D01*
X21747375Y-13097389D01*
X21742035Y-13100482D01*
X21736685Y-13103574D01*
X21731442Y-13106596D01*
X21726424Y-13109480D01*
X21721750Y-13112159D01*
X21717538Y-13114564D01*
X21713905Y-13116627D01*
X21710970Y-13118279D01*
X21708851Y-13119453D01*
X21707666Y-13120080D01*
X21707486Y-13120160D01*
X21706285Y-13120709D01*
X21704171Y-13121817D01*
X21701311Y-13123384D01*
X21697873Y-13125315D01*
X21694025Y-13127510D01*
X21689935Y-13129871D01*
X21685771Y-13132301D01*
X21681701Y-13134702D01*
X21677891Y-13136975D01*
X21674511Y-13139023D01*
X21671728Y-13140748D01*
X21669710Y-13142051D01*
X21668625Y-13142836D01*
X21668603Y-13142856D01*
X21666914Y-13144177D01*
X21664728Y-13145635D01*
X21663523Y-13146349D01*
X21662665Y-13146831D01*
X21661647Y-13147409D01*
X21660382Y-13148135D01*
X21658784Y-13149057D01*
X21656768Y-13150225D01*
X21654248Y-13151690D01*
X21651137Y-13153500D01*
X21647352Y-13155708D01*
X21642804Y-13158361D01*
X21637410Y-13161510D01*
X21631082Y-13165204D01*
X21624470Y-13169066D01*
X21618267Y-13172688D01*
X21611325Y-13176740D01*
X21603821Y-13181120D01*
X21595931Y-13185725D01*
X21587830Y-13190451D01*
X21579695Y-13195197D01*
X21571702Y-13199859D01*
X21564026Y-13204335D01*
X21556844Y-13208523D01*
X21550332Y-13212319D01*
X21544666Y-13215621D01*
X21542555Y-13216851D01*
X21539207Y-13218802D01*
X21534928Y-13221297D01*
X21529884Y-13224240D01*
X21524240Y-13227534D01*
X21518161Y-13231083D01*
X21511814Y-13234789D01*
X21505364Y-13238556D01*
X21498976Y-13242287D01*
X21496859Y-13243524D01*
X21489594Y-13247751D01*
X21483151Y-13251464D01*
X21477569Y-13254641D01*
X21472887Y-13257260D01*
X21469142Y-13259300D01*
X21466374Y-13260740D01*
X21464622Y-13261559D01*
X21463970Y-13261752D01*
X21462936Y-13261350D01*
X21461111Y-13260331D01*
X21458725Y-13258833D01*
X21456008Y-13256997D01*
X21455056Y-13256325D01*
X21452176Y-13254277D01*
X21449164Y-13252152D01*
X21445886Y-13249856D01*
X21442210Y-13247298D01*
X21438002Y-13244384D01*
X21433130Y-13241023D01*
X21427460Y-13237123D01*
X21421588Y-13233090D01*
X21417788Y-13230476D01*
X21413750Y-13227688D01*
X21409821Y-13224967D01*
X21406347Y-13222552D01*
X21404365Y-13221167D01*
X21401196Y-13218952D01*
X21397400Y-13216309D01*
X21393396Y-13213528D01*
X21389602Y-13210901D01*
X21388597Y-13210207D01*
X21385649Y-13208131D01*
X21383056Y-13206232D01*
X21381009Y-13204654D01*
X21379696Y-13203541D01*
X21379317Y-13203120D01*
X21379157Y-13201530D01*
X21379686Y-13199785D01*
X21380543Y-13196167D01*
X21380294Y-13192353D01*
X21379412Y-13189661D01*
X21378937Y-13188744D01*
X21378311Y-13187889D01*
X21377388Y-13186986D01*
X21376022Y-13185928D01*
X21374066Y-13184604D01*
X21371374Y-13182905D01*
X21367799Y-13180723D01*
X21365833Y-13179536D01*
X21361727Y-13177077D01*
X21358535Y-13175216D01*
X21356098Y-13173872D01*
X21354255Y-13172966D01*
X21352845Y-13172419D01*
X21351707Y-13172152D01*
X21350742Y-13172085D01*
X21347720Y-13172541D01*
X21344686Y-13173753D01*
X21342137Y-13175488D01*
X21341105Y-13176604D01*
X21340068Y-13177819D01*
X21339280Y-13178421D01*
X21339201Y-13178435D01*
X21338429Y-13178127D01*
X21336883Y-13177312D01*
X21334869Y-13176153D01*
X21334439Y-13175895D01*
X21331895Y-13174474D01*
X21329899Y-13173688D01*
X21328005Y-13173379D01*
X21327140Y-13173355D01*
X21323490Y-13173856D01*
X21320593Y-13175343D01*
X21319571Y-13176306D01*
X21319313Y-13176634D01*
X21318908Y-13177215D01*
X21318319Y-13178113D01*
X21317507Y-13179390D01*
X21316434Y-13181108D01*
X21315061Y-13183330D01*
X21313352Y-13186116D01*
X21311268Y-13189531D01*
X21308771Y-13193636D01*
X21305822Y-13198494D01*
X21302384Y-13204166D01*
X21298419Y-13210715D01*
X21293889Y-13218204D01*
X21288755Y-13226694D01*
X21286643Y-13230187D01*
X21283912Y-13234700D01*
X21280741Y-13239932D01*
X21277351Y-13245518D01*
X21273965Y-13251093D01*
X21270803Y-13256291D01*
X21269492Y-13258445D01*
X21266769Y-13262932D01*
X21264642Y-13266490D01*
X21263035Y-13269269D01*
X21261872Y-13271418D01*
X21261078Y-13273086D01*
X21260577Y-13274421D01*
X21260292Y-13275574D01*
X21260149Y-13276694D01*
X21260135Y-13276860D01*
X21260282Y-13279933D01*
X21261327Y-13282533D01*
X21263397Y-13284878D01*
X21266034Y-13286815D01*
X21268550Y-13288429D01*
X21270163Y-13289539D01*
X21271030Y-13290342D01*
X21271306Y-13291036D01*
X21271149Y-13291817D01*
X21270759Y-13292774D01*
X21269961Y-13295889D01*
X21269922Y-13299189D01*
X21270612Y-13302193D01*
X21271370Y-13303658D01*
X21272397Y-13304678D01*
X21274334Y-13306181D01*
X21276975Y-13308038D01*
X21280116Y-13310125D01*
X21283551Y-13312313D01*
X21287076Y-13314476D01*
X21290485Y-13316486D01*
X21293575Y-13318217D01*
X21296139Y-13319541D01*
X21297973Y-13320333D01*
X21298521Y-13320483D01*
X21301858Y-13320569D01*
X21304926Y-13319563D01*
X21307951Y-13317388D01*
X21308220Y-13317140D01*
X21309906Y-13315687D01*
X21311329Y-13314678D01*
X21312116Y-13314347D01*
X21312995Y-13314638D01*
X21314743Y-13315414D01*
X21317111Y-13316560D01*
X21319850Y-13317958D01*
X21319988Y-13318030D01*
X21325973Y-13321172D01*
X21330922Y-13323785D01*
X21334927Y-13325921D01*
X21338080Y-13327633D01*
X21340472Y-13328974D01*
X21342198Y-13329994D01*
X21343348Y-13330748D01*
X21344016Y-13331287D01*
X21344293Y-13331664D01*
X21344309Y-13331841D01*
X21343747Y-13332252D01*
X21342141Y-13333268D01*
X21339543Y-13334860D01*
X21336006Y-13336995D01*
X21331585Y-13339643D01*
X21326333Y-13342772D01*
X21320302Y-13346350D01*
X21313547Y-13350346D01*
X21306120Y-13354729D01*
X21298075Y-13359468D01*
X21289466Y-13364530D01*
X21280345Y-13369885D01*
X21270767Y-13375501D01*
X21260784Y-13381348D01*
X21250449Y-13387392D01*
X21239817Y-13393604D01*
X21228940Y-13399952D01*
X21217872Y-13406404D01*
X21206667Y-13412929D01*
X21195377Y-13419495D01*
X21184098Y-13426048D01*
X21180387Y-13428204D01*
X21175967Y-13430777D01*
X21171224Y-13433540D01*
X21166544Y-13436269D01*
X21162825Y-13438440D01*
X21155132Y-13442934D01*
X21148399Y-13446866D01*
X21142492Y-13450317D01*
X21137275Y-13453366D01*
X21132611Y-13456092D01*
X21128366Y-13458573D01*
X21124402Y-13460891D01*
X21120586Y-13463123D01*
X21117105Y-13465159D01*
X21112586Y-13467801D01*
X21107468Y-13470788D01*
X21102201Y-13473859D01*
X21097236Y-13476750D01*
X21093928Y-13478674D01*
X21090158Y-13480865D01*
X21086455Y-13483019D01*
X21083071Y-13484988D01*
X21080260Y-13486626D01*
X21078276Y-13487784D01*
X21078170Y-13487846D01*
X21072779Y-13491554D01*
X21068409Y-13495833D01*
X21064925Y-13500852D01*
X21062196Y-13506780D01*
X21061441Y-13508952D01*
X21060624Y-13511758D01*
X21060114Y-13514354D01*
X21059845Y-13517227D01*
X21059746Y-13520862D01*
X21059745Y-13521017D01*
X21059970Y-13526548D01*
X21060809Y-13531181D01*
X21062367Y-13535184D01*
X21064750Y-13538825D01*
X21068066Y-13542371D01*
X21068327Y-13542615D01*
X21073232Y-13546356D01*
X21078960Y-13549338D01*
X21085220Y-13551413D01*
X21085678Y-13551522D01*
X21089842Y-13552214D01*
X21094329Y-13552497D01*
X21098800Y-13552389D01*
X21102915Y-13551905D01*
X21106334Y-13551062D01*
X21107819Y-13550439D01*
X21108290Y-13550182D01*
X21109167Y-13549685D01*
X21110512Y-13548913D01*
X21112384Y-13547832D01*
X21114842Y-13546407D01*
X21117947Y-13544603D01*
X21121757Y-13542385D01*
X21126333Y-13539719D01*
X21131734Y-13536570D01*
X21138021Y-13532903D01*
X21145252Y-13528683D01*
X21153488Y-13523876D01*
X21158380Y-13521020D01*
X21162108Y-13518844D01*
X21166626Y-13516206D01*
X21171629Y-13513286D01*
X21176810Y-13510262D01*
X21181862Y-13507313D01*
X21185050Y-13505453D01*
X21190064Y-13502526D01*
X21195804Y-13499173D01*
X21201901Y-13495611D01*
X21207987Y-13492054D01*
X21213691Y-13488720D01*
X21217118Y-13486716D01*
X21224705Y-13482279D01*
X21233107Y-13477370D01*
X21242093Y-13472123D01*
X21251430Y-13466672D01*
X21260888Y-13461153D01*
X21270235Y-13455701D01*
X21279240Y-13450451D01*
X21287672Y-13445537D01*
X21295300Y-13441095D01*
X21297128Y-13440031D01*
X21300273Y-13438200D01*
X21304403Y-13435795D01*
X21309401Y-13432882D01*
X21315156Y-13429529D01*
X21321553Y-13425801D01*
X21328478Y-13421764D01*
X21335818Y-13417486D01*
X21343459Y-13413031D01*
X21351287Y-13408467D01*
X21359189Y-13403860D01*
X21365588Y-13400129D01*
X21375239Y-13394512D01*
X21383978Y-13389448D01*
X21391785Y-13384949D01*
X21398639Y-13381025D01*
X21404521Y-13377689D01*
X21409411Y-13374952D01*
X21413288Y-13372824D01*
X21416133Y-13371318D01*
X21417926Y-13370443D01*
X21418610Y-13370206D01*
X21419723Y-13370500D01*
X21421719Y-13371314D01*
X21424375Y-13372544D01*
X21427466Y-13374090D01*
X21429843Y-13375344D01*
X21433769Y-13377442D01*
X21438043Y-13379696D01*
X21442228Y-13381876D01*
X21445891Y-13383755D01*
X21446988Y-13384309D01*
X21450775Y-13386243D01*
X21455076Y-13388488D01*
X21459300Y-13390733D01*
X21462138Y-13392271D01*
X21466440Y-13394542D01*
X21469880Y-13396108D01*
X21472635Y-13396992D01*
X21474884Y-13397217D01*
X21476803Y-13396806D01*
X21478572Y-13395782D01*
X21479956Y-13394577D01*
X21481432Y-13393312D01*
X21482664Y-13392540D01*
X21483060Y-13392430D01*
X21483960Y-13392732D01*
X21485674Y-13393548D01*
X21487923Y-13394739D01*
X21489600Y-13395683D01*
X21492000Y-13397037D01*
X21495228Y-13398816D01*
X21498987Y-13400859D01*
X21502979Y-13403005D01*
X21506678Y-13404970D01*
X21510687Y-13407101D01*
X21514807Y-13409318D01*
X21518721Y-13411448D01*
X21522112Y-13413319D01*
X21524458Y-13414640D01*
X21527136Y-13416148D01*
X21530613Y-13418069D01*
X21534562Y-13420224D01*
X21538657Y-13422435D01*
X21541920Y-13424178D01*
X21545922Y-13426317D01*
X21550078Y-13428562D01*
X21554052Y-13430731D01*
X21557510Y-13432639D01*
X21559700Y-13433868D01*
X21562460Y-13435412D01*
X21566019Y-13437368D01*
X21570051Y-13439560D01*
X21574231Y-13441809D01*
X21577798Y-13443708D01*
X21581805Y-13445845D01*
X21585924Y-13448066D01*
X21589837Y-13450199D01*
X21593227Y-13452072D01*
X21595578Y-13453395D01*
X21598257Y-13454903D01*
X21601734Y-13456823D01*
X21605684Y-13458976D01*
X21609780Y-13461185D01*
X21613040Y-13462924D01*
X21617393Y-13465252D01*
X21622232Y-13467869D01*
X21627113Y-13470534D01*
X21631590Y-13473004D01*
X21633995Y-13474346D01*
X21638009Y-13476580D01*
X21642420Y-13479001D01*
X21646791Y-13481373D01*
X21650684Y-13483455D01*
X21652093Y-13484198D01*
X21655767Y-13486149D01*
X21660067Y-13488473D01*
X21664513Y-13490908D01*
X21668628Y-13493196D01*
X21669555Y-13493717D01*
X21673430Y-13495883D01*
X21677675Y-13498222D01*
X21681843Y-13500490D01*
X21685486Y-13502442D01*
X21686383Y-13502916D01*
X21689500Y-13504573D01*
X21693367Y-13506658D01*
X21697627Y-13508977D01*
X21701922Y-13511334D01*
X21705115Y-13513102D01*
X21709504Y-13515527D01*
X21714444Y-13518228D01*
X21719479Y-13520959D01*
X21724152Y-13523470D01*
X21726705Y-13524828D01*
X21730604Y-13526907D01*
X21734654Y-13529094D01*
X21738506Y-13531200D01*
X21741812Y-13533033D01*
X21743533Y-13534007D01*
X21746980Y-13535953D01*
X21750895Y-13538120D01*
X21754649Y-13540161D01*
X21756233Y-13541007D01*
X21759330Y-13542656D01*
X21763070Y-13544661D01*
X21766984Y-13546768D01*
X21770600Y-13548725D01*
X21770606Y-13548728D01*
X21773475Y-13550275D01*
X21775924Y-13551572D01*
X21777747Y-13552515D01*
X21778742Y-13552995D01*
X21778861Y-13553035D01*
X21779562Y-13552801D01*
X21780680Y-13552396D01*
X21781297Y-13551933D01*
X21782231Y-13550848D01*
X21783530Y-13549066D01*
X21785244Y-13546515D01*
X21787421Y-13543120D01*
X21790111Y-13538806D01*
X21793363Y-13533502D01*
X21795126Y-13530600D01*
X21798541Y-13524947D01*
X21801332Y-13520266D01*
X21803550Y-13516455D01*
X21805246Y-13513411D01*
X21806473Y-13511030D01*
X21807280Y-13509209D01*
X21807720Y-13507846D01*
X21807843Y-13506836D01*
X21807700Y-13506078D01*
X21807499Y-13505686D01*
X21806942Y-13505279D01*
X21805396Y-13504212D01*
X21802930Y-13502532D01*
X21799612Y-13500283D01*
X21795508Y-13497511D01*
X21790689Y-13494263D01*
X21785221Y-13490582D01*
X21779172Y-13486515D01*
X21772610Y-13482108D01*
X21765604Y-13477405D01*
X21758222Y-13472453D01*
X21750531Y-13467296D01*
X21742599Y-13461981D01*
X21734495Y-13456553D01*
X21726286Y-13451057D01*
X21718040Y-13445539D01*
X21709825Y-13440044D01*
X21701710Y-13434619D01*
X21693763Y-13429308D01*
X21686050Y-13424156D01*
X21678641Y-13419210D01*
X21671603Y-13414516D01*
X21665004Y-13410117D01*
X21658913Y-13406061D01*
X21653397Y-13402392D01*
X21648524Y-13399157D01*
X21644362Y-13396399D01*
X21640979Y-13394166D01*
X21638444Y-13392503D01*
X21637911Y-13392155D01*
X21635683Y-13390692D01*
X21632637Y-13388670D01*
X21629004Y-13386242D01*
X21625013Y-13383564D01*
X21620897Y-13380791D01*
X21618389Y-13379095D01*
X21608405Y-13372359D01*
X21597385Y-13364974D01*
X21585317Y-13356933D01*
X21572189Y-13348228D01*
X21566052Y-13344170D01*
X21558689Y-13339292D01*
X21551976Y-13334816D01*
X21545964Y-13330777D01*
X21540704Y-13327211D01*
X21536250Y-13324153D01*
X21532651Y-13321638D01*
X21529960Y-13319703D01*
X21528228Y-13318383D01*
X21527507Y-13317712D01*
X21527494Y-13317686D01*
X21527554Y-13316487D01*
X21527790Y-13316063D01*
X21528651Y-13314081D01*
X21528825Y-13311514D01*
X21528288Y-13308863D01*
X21528176Y-13308566D01*
X21527606Y-13306960D01*
X21527376Y-13305927D01*
X21527405Y-13305768D01*
X21527605Y-13305635D01*
X21528145Y-13305304D01*
X21529066Y-13304753D01*
X21530408Y-13303958D01*
X21532211Y-13302895D01*
X21534513Y-13301542D01*
X21537356Y-13299876D01*
X21540780Y-13297872D01*
X21544823Y-13295507D01*
X21549526Y-13292760D01*
X21554928Y-13289605D01*
X21561070Y-13286020D01*
X21567992Y-13281981D01*
X21575733Y-13277466D01*
X21584333Y-13272450D01*
X21593832Y-13266912D01*
X21604270Y-13260826D01*
X21615686Y-13254171D01*
X21628121Y-13246923D01*
X21641298Y-13239243D01*
X21650446Y-13233909D01*
X21659800Y-13228456D01*
X21669241Y-13222950D01*
X21678650Y-13217463D01*
X21687907Y-13212062D01*
X21696896Y-13206817D01*
X21705497Y-13201797D01*
X21713591Y-13197072D01*
X21721060Y-13192711D01*
X21727786Y-13188783D01*
X21733649Y-13185357D01*
X21738453Y-13182548D01*
X21745082Y-13178670D01*
X21752047Y-13174599D01*
X21759147Y-13170450D01*
X21766184Y-13166338D01*
X21772959Y-13162382D01*
X21779273Y-13158696D01*
X21784927Y-13155397D01*
X21789722Y-13152601D01*
X21790523Y-13152134D01*
X21795138Y-13149432D01*
X21799397Y-13146915D01*
X21803176Y-13144655D01*
X21806354Y-13142730D01*
X21808807Y-13141211D01*
X21810413Y-13140175D01*
X21811048Y-13139695D01*
X21811052Y-13139686D01*
X21810868Y-13138854D01*
X21810180Y-13137299D01*
X21809306Y-13135661D01*
X21808269Y-13133769D01*
X21788374Y-13133769D01*
X21788344Y-13133884D01*
X21787710Y-13134376D01*
X21786104Y-13135425D01*
X21783656Y-13136955D01*
X21780494Y-13138890D01*
X21776747Y-13141153D01*
X21772545Y-13143669D01*
X21768017Y-13146362D01*
X21763291Y-13149155D01*
X21758497Y-13151972D01*
X21753764Y-13154737D01*
X21749221Y-13157374D01*
X21744996Y-13159807D01*
X21741220Y-13161960D01*
X21738022Y-13163756D01*
X21735529Y-13165119D01*
X21734325Y-13165749D01*
X21732088Y-13166932D01*
X21729085Y-13168588D01*
X21725640Y-13170538D01*
X21722074Y-13172599D01*
X21720355Y-13173609D01*
X21717229Y-13175422D01*
X21714423Y-13176979D01*
X21712143Y-13178174D01*
X21710593Y-13178896D01*
X21710045Y-13179063D01*
X21709055Y-13178567D01*
X21707871Y-13177312D01*
X21707438Y-13176689D01*
X21706678Y-13175441D01*
X21705398Y-13173294D01*
X21703714Y-13170443D01*
X21701746Y-13167089D01*
X21699608Y-13163430D01*
X21698784Y-13162015D01*
X21696476Y-13158035D01*
X21694745Y-13155005D01*
X21693526Y-13152778D01*
X21692755Y-13151208D01*
X21692366Y-13150149D01*
X21692296Y-13149456D01*
X21692477Y-13148982D01*
X21692819Y-13148608D01*
X21693631Y-13148035D01*
X21695409Y-13146908D01*
X21698018Y-13145307D01*
X21701323Y-13143313D01*
X21705190Y-13141009D01*
X21709485Y-13138474D01*
X21713370Y-13136200D01*
X21718229Y-13133365D01*
X21723045Y-13130551D01*
X21727632Y-13127869D01*
X21731802Y-13125428D01*
X21735368Y-13123337D01*
X21738142Y-13121706D01*
X21739405Y-13120961D01*
X21746381Y-13116844D01*
X21752339Y-13113353D01*
X21757347Y-13110451D01*
X21761471Y-13108102D01*
X21764778Y-13106269D01*
X21767334Y-13104915D01*
X21769205Y-13104004D01*
X21770460Y-13103500D01*
X21771163Y-13103365D01*
X21771333Y-13103429D01*
X21771828Y-13104145D01*
X21772866Y-13105807D01*
X21774357Y-13108262D01*
X21776208Y-13111357D01*
X21778326Y-13114941D01*
X21780438Y-13118544D01*
X21783362Y-13123621D01*
X21785606Y-13127657D01*
X21787181Y-13130678D01*
X21788099Y-13132707D01*
X21788374Y-13133769D01*
X21808269Y-13133769D01*
X21808022Y-13133317D01*
X21807469Y-13131871D01*
X21807702Y-13131144D01*
X21808773Y-13130958D01*
X21810684Y-13131130D01*
X21814681Y-13131252D01*
X21819062Y-13130759D01*
X21823603Y-13129737D01*
X21828082Y-13128278D01*
X21832276Y-13126469D01*
X21835962Y-13124399D01*
X21838917Y-13122158D01*
X21840918Y-13119834D01*
X21841416Y-13118864D01*
X21842545Y-13116841D01*
X21844020Y-13115059D01*
X21844154Y-13114935D01*
X21845188Y-13113808D01*
X21846719Y-13111879D01*
X21848547Y-13109407D01*
X21850476Y-13106653D01*
X21850673Y-13106362D01*
X21854762Y-13100340D01*
X21859075Y-13094016D01*
X21863353Y-13087771D01*
X21867334Y-13081987D01*
X21869361Y-13079057D01*
X21871369Y-13076149D01*
X21873763Y-13072664D01*
X21876219Y-13069076D01*
X21878073Y-13066357D01*
X21880330Y-13063045D01*
X21882795Y-13059442D01*
X21885142Y-13056021D01*
X21886770Y-13053657D01*
X21888653Y-13050923D01*
X21890975Y-13047543D01*
X21893459Y-13043921D01*
X21895827Y-13040459D01*
X21896137Y-13040005D01*
X21898328Y-13036802D01*
X21900540Y-13033575D01*
X21902547Y-13030655D01*
X21904121Y-13028373D01*
X21904421Y-13027940D01*
X21906211Y-13025349D01*
X21908303Y-13022309D01*
X21910283Y-13019420D01*
X21910536Y-13019050D01*
X21913295Y-13015021D01*
X21915444Y-13011912D01*
X21917078Y-13009586D01*
X21918295Y-13007908D01*
X21919191Y-13006742D01*
X21919827Y-13005991D01*
X21920716Y-13004682D01*
X21921015Y-13003709D01*
X21920486Y-13002410D01*
X21919237Y-13001238D01*
X21917775Y-13000646D01*
X21917581Y-13000635D01*
X21916818Y-13000947D01*
G37*
X21916818Y-13000947D02*
X21915075Y-13001839D01*
X21912469Y-13003247D01*
X21909115Y-13005106D01*
X21905127Y-13007353D01*
X21900621Y-13009924D01*
X21895711Y-13012753D01*
X21891596Y-13015144D01*
X21886229Y-13018275D01*
X21879970Y-13021923D01*
X21873027Y-13025969D01*
X21865605Y-13030293D01*
X21857912Y-13034775D01*
X21850153Y-13039294D01*
X21842536Y-13043729D01*
X21835267Y-13047961D01*
X21832115Y-13049795D01*
X21824331Y-13054338D01*
X21817599Y-13058294D01*
X21811861Y-13061698D01*
X21807061Y-13064585D01*
X21803143Y-13066991D01*
X21800050Y-13068949D01*
X21797725Y-13070495D01*
X21796112Y-13071663D01*
X21795155Y-13072488D01*
X21795087Y-13072559D01*
X21792119Y-13076440D01*
X21789481Y-13081183D01*
X21787389Y-13086384D01*
X21786999Y-13087630D01*
X21786271Y-13089962D01*
X21785616Y-13091819D01*
X21785155Y-13092861D01*
X21785096Y-13092942D01*
X21784592Y-13092677D01*
X21783660Y-13091504D01*
X21782464Y-13089643D01*
X21781845Y-13088574D01*
X21780419Y-13086118D01*
X21779042Y-13083901D01*
X21777952Y-13082304D01*
X21777707Y-13081992D01*
X21776708Y-13080906D01*
X21775920Y-13080708D01*
X21774762Y-13081295D01*
X21774532Y-13081437D01*
X21772574Y-13082628D01*
X21769779Y-13084296D01*
X21766264Y-13086371D01*
X21762148Y-13088786D01*
X21757549Y-13091473D01*
X21752585Y-13094364D01*
X21747375Y-13097389D01*
X21742035Y-13100482D01*
X21736685Y-13103574D01*
X21731442Y-13106596D01*
X21726424Y-13109480D01*
X21721750Y-13112159D01*
X21717538Y-13114564D01*
X21713905Y-13116627D01*
X21710970Y-13118279D01*
X21708851Y-13119453D01*
X21707666Y-13120080D01*
X21707486Y-13120160D01*
X21706285Y-13120709D01*
X21704171Y-13121817D01*
X21701311Y-13123384D01*
X21697873Y-13125315D01*
X21694025Y-13127510D01*
X21689935Y-13129871D01*
X21685771Y-13132301D01*
X21681701Y-13134702D01*
X21677891Y-13136975D01*
X21674511Y-13139023D01*
X21671728Y-13140748D01*
X21669710Y-13142051D01*
X21668625Y-13142836D01*
X21668603Y-13142856D01*
X21666914Y-13144177D01*
X21664728Y-13145635D01*
X21663523Y-13146349D01*
X21662665Y-13146831D01*
X21661647Y-13147409D01*
X21660382Y-13148135D01*
X21658784Y-13149057D01*
X21656768Y-13150225D01*
X21654248Y-13151690D01*
X21651137Y-13153500D01*
X21647352Y-13155708D01*
X21642804Y-13158361D01*
X21637410Y-13161510D01*
X21631082Y-13165204D01*
X21624470Y-13169066D01*
X21618267Y-13172688D01*
X21611325Y-13176740D01*
X21603821Y-13181120D01*
X21595931Y-13185725D01*
X21587830Y-13190451D01*
X21579695Y-13195197D01*
X21571702Y-13199859D01*
X21564026Y-13204335D01*
X21556844Y-13208523D01*
X21550332Y-13212319D01*
X21544666Y-13215621D01*
X21542555Y-13216851D01*
X21539207Y-13218802D01*
X21534928Y-13221297D01*
X21529884Y-13224240D01*
X21524240Y-13227534D01*
X21518161Y-13231083D01*
X21511814Y-13234789D01*
X21505364Y-13238556D01*
X21498976Y-13242287D01*
X21496859Y-13243524D01*
X21489594Y-13247751D01*
X21483151Y-13251464D01*
X21477569Y-13254641D01*
X21472887Y-13257260D01*
X21469142Y-13259300D01*
X21466374Y-13260740D01*
X21464622Y-13261559D01*
X21463970Y-13261752D01*
X21462936Y-13261350D01*
X21461111Y-13260331D01*
X21458725Y-13258833D01*
X21456008Y-13256997D01*
X21455056Y-13256325D01*
X21452176Y-13254277D01*
X21449164Y-13252152D01*
X21445886Y-13249856D01*
X21442210Y-13247298D01*
X21438002Y-13244384D01*
X21433130Y-13241023D01*
X21427460Y-13237123D01*
X21421588Y-13233090D01*
X21417788Y-13230476D01*
X21413750Y-13227688D01*
X21409821Y-13224967D01*
X21406347Y-13222552D01*
X21404365Y-13221167D01*
X21401196Y-13218952D01*
X21397400Y-13216309D01*
X21393396Y-13213528D01*
X21389602Y-13210901D01*
X21388597Y-13210207D01*
X21385649Y-13208131D01*
X21383056Y-13206232D01*
X21381009Y-13204654D01*
X21379696Y-13203541D01*
X21379317Y-13203120D01*
X21379157Y-13201530D01*
X21379686Y-13199785D01*
X21380543Y-13196167D01*
X21380294Y-13192353D01*
X21379412Y-13189661D01*
X21378937Y-13188744D01*
X21378311Y-13187889D01*
X21377388Y-13186986D01*
X21376022Y-13185928D01*
X21374066Y-13184604D01*
X21371374Y-13182905D01*
X21367799Y-13180723D01*
X21365833Y-13179536D01*
X21361727Y-13177077D01*
X21358535Y-13175216D01*
X21356098Y-13173872D01*
X21354255Y-13172966D01*
X21352845Y-13172419D01*
X21351707Y-13172152D01*
X21350742Y-13172085D01*
X21347720Y-13172541D01*
X21344686Y-13173753D01*
X21342137Y-13175488D01*
X21341105Y-13176604D01*
X21340068Y-13177819D01*
X21339280Y-13178421D01*
X21339201Y-13178435D01*
X21338429Y-13178127D01*
X21336883Y-13177312D01*
X21334869Y-13176153D01*
X21334439Y-13175895D01*
X21331895Y-13174474D01*
X21329899Y-13173688D01*
X21328005Y-13173379D01*
X21327140Y-13173355D01*
X21323490Y-13173856D01*
X21320593Y-13175343D01*
X21319571Y-13176306D01*
X21319313Y-13176634D01*
X21318908Y-13177215D01*
X21318319Y-13178113D01*
X21317507Y-13179390D01*
X21316434Y-13181108D01*
X21315061Y-13183330D01*
X21313352Y-13186116D01*
X21311268Y-13189531D01*
X21308771Y-13193636D01*
X21305822Y-13198494D01*
X21302384Y-13204166D01*
X21298419Y-13210715D01*
X21293889Y-13218204D01*
X21288755Y-13226694D01*
X21286643Y-13230187D01*
X21283912Y-13234700D01*
X21280741Y-13239932D01*
X21277351Y-13245518D01*
X21273965Y-13251093D01*
X21270803Y-13256291D01*
X21269492Y-13258445D01*
X21266769Y-13262932D01*
X21264642Y-13266490D01*
X21263035Y-13269269D01*
X21261872Y-13271418D01*
X21261078Y-13273086D01*
X21260577Y-13274421D01*
X21260292Y-13275574D01*
X21260149Y-13276694D01*
X21260135Y-13276860D01*
X21260282Y-13279933D01*
X21261327Y-13282533D01*
X21263397Y-13284878D01*
X21266034Y-13286815D01*
X21268550Y-13288429D01*
X21270163Y-13289539D01*
X21271030Y-13290342D01*
X21271306Y-13291036D01*
X21271149Y-13291817D01*
X21270759Y-13292774D01*
X21269961Y-13295889D01*
X21269922Y-13299189D01*
X21270612Y-13302193D01*
X21271370Y-13303658D01*
X21272397Y-13304678D01*
X21274334Y-13306181D01*
X21276975Y-13308038D01*
X21280116Y-13310125D01*
X21283551Y-13312313D01*
X21287076Y-13314476D01*
X21290485Y-13316486D01*
X21293575Y-13318217D01*
X21296139Y-13319541D01*
X21297973Y-13320333D01*
X21298521Y-13320483D01*
X21301858Y-13320569D01*
X21304926Y-13319563D01*
X21307951Y-13317388D01*
X21308220Y-13317140D01*
X21309906Y-13315687D01*
X21311329Y-13314678D01*
X21312116Y-13314347D01*
X21312995Y-13314638D01*
X21314743Y-13315414D01*
X21317111Y-13316560D01*
X21319850Y-13317958D01*
X21319988Y-13318030D01*
X21325973Y-13321172D01*
X21330922Y-13323785D01*
X21334927Y-13325921D01*
X21338080Y-13327633D01*
X21340472Y-13328974D01*
X21342198Y-13329994D01*
X21343348Y-13330748D01*
X21344016Y-13331287D01*
X21344293Y-13331664D01*
X21344309Y-13331841D01*
X21343747Y-13332252D01*
X21342141Y-13333268D01*
X21339543Y-13334860D01*
X21336006Y-13336995D01*
X21331585Y-13339643D01*
X21326333Y-13342772D01*
X21320302Y-13346350D01*
X21313547Y-13350346D01*
X21306120Y-13354729D01*
X21298075Y-13359468D01*
X21289466Y-13364530D01*
X21280345Y-13369885D01*
X21270767Y-13375501D01*
X21260784Y-13381348D01*
X21250449Y-13387392D01*
X21239817Y-13393604D01*
X21228940Y-13399952D01*
X21217872Y-13406404D01*
X21206667Y-13412929D01*
X21195377Y-13419495D01*
X21184098Y-13426048D01*
X21180387Y-13428204D01*
X21175967Y-13430777D01*
X21171224Y-13433540D01*
X21166544Y-13436269D01*
X21162825Y-13438440D01*
X21155132Y-13442934D01*
X21148399Y-13446866D01*
X21142492Y-13450317D01*
X21137275Y-13453366D01*
X21132611Y-13456092D01*
X21128366Y-13458573D01*
X21124402Y-13460891D01*
X21120586Y-13463123D01*
X21117105Y-13465159D01*
X21112586Y-13467801D01*
X21107468Y-13470788D01*
X21102201Y-13473859D01*
X21097236Y-13476750D01*
X21093928Y-13478674D01*
X21090158Y-13480865D01*
X21086455Y-13483019D01*
X21083071Y-13484988D01*
X21080260Y-13486626D01*
X21078276Y-13487784D01*
X21078170Y-13487846D01*
X21072779Y-13491554D01*
X21068409Y-13495833D01*
X21064925Y-13500852D01*
X21062196Y-13506780D01*
X21061441Y-13508952D01*
X21060624Y-13511758D01*
X21060114Y-13514354D01*
X21059845Y-13517227D01*
X21059746Y-13520862D01*
X21059745Y-13521017D01*
X21059970Y-13526548D01*
X21060809Y-13531181D01*
X21062367Y-13535184D01*
X21064750Y-13538825D01*
X21068066Y-13542371D01*
X21068327Y-13542615D01*
X21073232Y-13546356D01*
X21078960Y-13549338D01*
X21085220Y-13551413D01*
X21085678Y-13551522D01*
X21089842Y-13552214D01*
X21094329Y-13552497D01*
X21098800Y-13552389D01*
X21102915Y-13551905D01*
X21106334Y-13551062D01*
X21107819Y-13550439D01*
X21108290Y-13550182D01*
X21109167Y-13549685D01*
X21110512Y-13548913D01*
X21112384Y-13547832D01*
X21114842Y-13546407D01*
X21117947Y-13544603D01*
X21121757Y-13542385D01*
X21126333Y-13539719D01*
X21131734Y-13536570D01*
X21138021Y-13532903D01*
X21145252Y-13528683D01*
X21153488Y-13523876D01*
X21158380Y-13521020D01*
X21162108Y-13518844D01*
X21166626Y-13516206D01*
X21171629Y-13513286D01*
X21176810Y-13510262D01*
X21181862Y-13507313D01*
X21185050Y-13505453D01*
X21190064Y-13502526D01*
X21195804Y-13499173D01*
X21201901Y-13495611D01*
X21207987Y-13492054D01*
X21213691Y-13488720D01*
X21217118Y-13486716D01*
X21224705Y-13482279D01*
X21233107Y-13477370D01*
X21242093Y-13472123D01*
X21251430Y-13466672D01*
X21260888Y-13461153D01*
X21270235Y-13455701D01*
X21279240Y-13450451D01*
X21287672Y-13445537D01*
X21295300Y-13441095D01*
X21297128Y-13440031D01*
X21300273Y-13438200D01*
X21304403Y-13435795D01*
X21309401Y-13432882D01*
X21315156Y-13429529D01*
X21321553Y-13425801D01*
X21328478Y-13421764D01*
X21335818Y-13417486D01*
X21343459Y-13413031D01*
X21351287Y-13408467D01*
X21359189Y-13403860D01*
X21365588Y-13400129D01*
X21375239Y-13394512D01*
X21383978Y-13389448D01*
X21391785Y-13384949D01*
X21398639Y-13381025D01*
X21404521Y-13377689D01*
X21409411Y-13374952D01*
X21413288Y-13372824D01*
X21416133Y-13371318D01*
X21417926Y-13370443D01*
X21418610Y-13370206D01*
X21419723Y-13370500D01*
X21421719Y-13371314D01*
X21424375Y-13372544D01*
X21427466Y-13374090D01*
X21429843Y-13375344D01*
X21433769Y-13377442D01*
X21438043Y-13379696D01*
X21442228Y-13381876D01*
X21445891Y-13383755D01*
X21446988Y-13384309D01*
X21450775Y-13386243D01*
X21455076Y-13388488D01*
X21459300Y-13390733D01*
X21462138Y-13392271D01*
X21466440Y-13394542D01*
X21469880Y-13396108D01*
X21472635Y-13396992D01*
X21474884Y-13397217D01*
X21476803Y-13396806D01*
X21478572Y-13395782D01*
X21479956Y-13394577D01*
X21481432Y-13393312D01*
X21482664Y-13392540D01*
X21483060Y-13392430D01*
X21483960Y-13392732D01*
X21485674Y-13393548D01*
X21487923Y-13394739D01*
X21489600Y-13395683D01*
X21492000Y-13397037D01*
X21495228Y-13398816D01*
X21498987Y-13400859D01*
X21502979Y-13403005D01*
X21506678Y-13404970D01*
X21510687Y-13407101D01*
X21514807Y-13409318D01*
X21518721Y-13411448D01*
X21522112Y-13413319D01*
X21524458Y-13414640D01*
X21527136Y-13416148D01*
X21530613Y-13418069D01*
X21534562Y-13420224D01*
X21538657Y-13422435D01*
X21541920Y-13424178D01*
X21545922Y-13426317D01*
X21550078Y-13428562D01*
X21554052Y-13430731D01*
X21557510Y-13432639D01*
X21559700Y-13433868D01*
X21562460Y-13435412D01*
X21566019Y-13437368D01*
X21570051Y-13439560D01*
X21574231Y-13441809D01*
X21577798Y-13443708D01*
X21581805Y-13445845D01*
X21585924Y-13448066D01*
X21589837Y-13450199D01*
X21593227Y-13452072D01*
X21595578Y-13453395D01*
X21598257Y-13454903D01*
X21601734Y-13456823D01*
X21605684Y-13458976D01*
X21609780Y-13461185D01*
X21613040Y-13462924D01*
X21617393Y-13465252D01*
X21622232Y-13467869D01*
X21627113Y-13470534D01*
X21631590Y-13473004D01*
X21633995Y-13474346D01*
X21638009Y-13476580D01*
X21642420Y-13479001D01*
X21646791Y-13481373D01*
X21650684Y-13483455D01*
X21652093Y-13484198D01*
X21655767Y-13486149D01*
X21660067Y-13488473D01*
X21664513Y-13490908D01*
X21668628Y-13493196D01*
X21669555Y-13493717D01*
X21673430Y-13495883D01*
X21677675Y-13498222D01*
X21681843Y-13500490D01*
X21685486Y-13502442D01*
X21686383Y-13502916D01*
X21689500Y-13504573D01*
X21693367Y-13506658D01*
X21697627Y-13508977D01*
X21701922Y-13511334D01*
X21705115Y-13513102D01*
X21709504Y-13515527D01*
X21714444Y-13518228D01*
X21719479Y-13520959D01*
X21724152Y-13523470D01*
X21726705Y-13524828D01*
X21730604Y-13526907D01*
X21734654Y-13529094D01*
X21738506Y-13531200D01*
X21741812Y-13533033D01*
X21743533Y-13534007D01*
X21746980Y-13535953D01*
X21750895Y-13538120D01*
X21754649Y-13540161D01*
X21756233Y-13541007D01*
X21759330Y-13542656D01*
X21763070Y-13544661D01*
X21766984Y-13546768D01*
X21770600Y-13548725D01*
X21770606Y-13548728D01*
X21773475Y-13550275D01*
X21775924Y-13551572D01*
X21777747Y-13552515D01*
X21778742Y-13552995D01*
X21778861Y-13553035D01*
X21779562Y-13552801D01*
X21780680Y-13552396D01*
X21781297Y-13551933D01*
X21782231Y-13550848D01*
X21783530Y-13549066D01*
X21785244Y-13546515D01*
X21787421Y-13543120D01*
X21790111Y-13538806D01*
X21793363Y-13533502D01*
X21795126Y-13530600D01*
X21798541Y-13524947D01*
X21801332Y-13520266D01*
X21803550Y-13516455D01*
X21805246Y-13513411D01*
X21806473Y-13511030D01*
X21807280Y-13509209D01*
X21807720Y-13507846D01*
X21807843Y-13506836D01*
X21807700Y-13506078D01*
X21807499Y-13505686D01*
X21806942Y-13505279D01*
X21805396Y-13504212D01*
X21802930Y-13502532D01*
X21799612Y-13500283D01*
X21795508Y-13497511D01*
X21790689Y-13494263D01*
X21785221Y-13490582D01*
X21779172Y-13486515D01*
X21772610Y-13482108D01*
X21765604Y-13477405D01*
X21758222Y-13472453D01*
X21750531Y-13467296D01*
X21742599Y-13461981D01*
X21734495Y-13456553D01*
X21726286Y-13451057D01*
X21718040Y-13445539D01*
X21709825Y-13440044D01*
X21701710Y-13434619D01*
X21693763Y-13429308D01*
X21686050Y-13424156D01*
X21678641Y-13419210D01*
X21671603Y-13414516D01*
X21665004Y-13410117D01*
X21658913Y-13406061D01*
X21653397Y-13402392D01*
X21648524Y-13399157D01*
X21644362Y-13396399D01*
X21640979Y-13394166D01*
X21638444Y-13392503D01*
X21637911Y-13392155D01*
X21635683Y-13390692D01*
X21632637Y-13388670D01*
X21629004Y-13386242D01*
X21625013Y-13383564D01*
X21620897Y-13380791D01*
X21618389Y-13379095D01*
X21608405Y-13372359D01*
X21597385Y-13364974D01*
X21585317Y-13356933D01*
X21572189Y-13348228D01*
X21566052Y-13344170D01*
X21558689Y-13339292D01*
X21551976Y-13334816D01*
X21545964Y-13330777D01*
X21540704Y-13327211D01*
X21536250Y-13324153D01*
X21532651Y-13321638D01*
X21529960Y-13319703D01*
X21528228Y-13318383D01*
X21527507Y-13317712D01*
X21527494Y-13317686D01*
X21527554Y-13316487D01*
X21527790Y-13316063D01*
X21528651Y-13314081D01*
X21528825Y-13311514D01*
X21528288Y-13308863D01*
X21528176Y-13308566D01*
X21527606Y-13306960D01*
X21527376Y-13305927D01*
X21527405Y-13305768D01*
X21527605Y-13305635D01*
X21528145Y-13305304D01*
X21529066Y-13304753D01*
X21530408Y-13303958D01*
X21532211Y-13302895D01*
X21534513Y-13301542D01*
X21537356Y-13299876D01*
X21540780Y-13297872D01*
X21544823Y-13295507D01*
X21549526Y-13292760D01*
X21554928Y-13289605D01*
X21561070Y-13286020D01*
X21567992Y-13281981D01*
X21575733Y-13277466D01*
X21584333Y-13272450D01*
X21593832Y-13266912D01*
X21604270Y-13260826D01*
X21615686Y-13254171D01*
X21628121Y-13246923D01*
X21641298Y-13239243D01*
X21650446Y-13233909D01*
X21659800Y-13228456D01*
X21669241Y-13222950D01*
X21678650Y-13217463D01*
X21687907Y-13212062D01*
X21696896Y-13206817D01*
X21705497Y-13201797D01*
X21713591Y-13197072D01*
X21721060Y-13192711D01*
X21727786Y-13188783D01*
X21733649Y-13185357D01*
X21738453Y-13182548D01*
X21745082Y-13178670D01*
X21752047Y-13174599D01*
X21759147Y-13170450D01*
X21766184Y-13166338D01*
X21772959Y-13162382D01*
X21779273Y-13158696D01*
X21784927Y-13155397D01*
X21789722Y-13152601D01*
X21790523Y-13152134D01*
X21795138Y-13149432D01*
X21799397Y-13146915D01*
X21803176Y-13144655D01*
X21806354Y-13142730D01*
X21808807Y-13141211D01*
X21810413Y-13140175D01*
X21811048Y-13139695D01*
X21811052Y-13139686D01*
X21810868Y-13138854D01*
X21810180Y-13137299D01*
X21809306Y-13135661D01*
X21808269Y-13133769D01*
X21788374Y-13133769D01*
X21788344Y-13133884D01*
X21787710Y-13134376D01*
X21786104Y-13135425D01*
X21783656Y-13136955D01*
X21780494Y-13138890D01*
X21776747Y-13141153D01*
X21772545Y-13143669D01*
X21768017Y-13146362D01*
X21763291Y-13149155D01*
X21758497Y-13151972D01*
X21753764Y-13154737D01*
X21749221Y-13157374D01*
X21744996Y-13159807D01*
X21741220Y-13161960D01*
X21738022Y-13163756D01*
X21735529Y-13165119D01*
X21734325Y-13165749D01*
X21732088Y-13166932D01*
X21729085Y-13168588D01*
X21725640Y-13170538D01*
X21722074Y-13172599D01*
X21720355Y-13173609D01*
X21717229Y-13175422D01*
X21714423Y-13176979D01*
X21712143Y-13178174D01*
X21710593Y-13178896D01*
X21710045Y-13179063D01*
X21709055Y-13178567D01*
X21707871Y-13177312D01*
X21707438Y-13176689D01*
X21706678Y-13175441D01*
X21705398Y-13173294D01*
X21703714Y-13170443D01*
X21701746Y-13167089D01*
X21699608Y-13163430D01*
X21698784Y-13162015D01*
X21696476Y-13158035D01*
X21694745Y-13155005D01*
X21693526Y-13152778D01*
X21692755Y-13151208D01*
X21692366Y-13150149D01*
X21692296Y-13149456D01*
X21692477Y-13148982D01*
X21692819Y-13148608D01*
X21693631Y-13148035D01*
X21695409Y-13146908D01*
X21698018Y-13145307D01*
X21701323Y-13143313D01*
X21705190Y-13141009D01*
X21709485Y-13138474D01*
X21713370Y-13136200D01*
X21718229Y-13133365D01*
X21723045Y-13130551D01*
X21727632Y-13127869D01*
X21731802Y-13125428D01*
X21735368Y-13123337D01*
X21738142Y-13121706D01*
X21739405Y-13120961D01*
X21746381Y-13116844D01*
X21752339Y-13113353D01*
X21757347Y-13110451D01*
X21761471Y-13108102D01*
X21764778Y-13106269D01*
X21767334Y-13104915D01*
X21769205Y-13104004D01*
X21770460Y-13103500D01*
X21771163Y-13103365D01*
X21771333Y-13103429D01*
X21771828Y-13104145D01*
X21772866Y-13105807D01*
X21774357Y-13108262D01*
X21776208Y-13111357D01*
X21778326Y-13114941D01*
X21780438Y-13118544D01*
X21783362Y-13123621D01*
X21785606Y-13127657D01*
X21787181Y-13130678D01*
X21788099Y-13132707D01*
X21788374Y-13133769D01*
X21808269Y-13133769D01*
X21808022Y-13133317D01*
X21807469Y-13131871D01*
X21807702Y-13131144D01*
X21808773Y-13130958D01*
X21810684Y-13131130D01*
X21814681Y-13131252D01*
X21819062Y-13130759D01*
X21823603Y-13129737D01*
X21828082Y-13128278D01*
X21832276Y-13126469D01*
X21835962Y-13124399D01*
X21838917Y-13122158D01*
X21840918Y-13119834D01*
X21841416Y-13118864D01*
X21842545Y-13116841D01*
X21844020Y-13115059D01*
X21844154Y-13114935D01*
X21845188Y-13113808D01*
X21846719Y-13111879D01*
X21848547Y-13109407D01*
X21850476Y-13106653D01*
X21850673Y-13106362D01*
X21854762Y-13100340D01*
X21859075Y-13094016D01*
X21863353Y-13087771D01*
X21867334Y-13081987D01*
X21869361Y-13079057D01*
X21871369Y-13076149D01*
X21873763Y-13072664D01*
X21876219Y-13069076D01*
X21878073Y-13066357D01*
X21880330Y-13063045D01*
X21882795Y-13059442D01*
X21885142Y-13056021D01*
X21886770Y-13053657D01*
X21888653Y-13050923D01*
X21890975Y-13047543D01*
X21893459Y-13043921D01*
X21895827Y-13040459D01*
X21896137Y-13040005D01*
X21898328Y-13036802D01*
X21900540Y-13033575D01*
X21902547Y-13030655D01*
X21904121Y-13028373D01*
X21904421Y-13027940D01*
X21906211Y-13025349D01*
X21908303Y-13022309D01*
X21910283Y-13019420D01*
X21910536Y-13019050D01*
X21913295Y-13015021D01*
X21915444Y-13011912D01*
X21917078Y-13009586D01*
X21918295Y-13007908D01*
X21919191Y-13006742D01*
X21919827Y-13005991D01*
X21920716Y-13004682D01*
X21921015Y-13003709D01*
X21920486Y-13002410D01*
X21919237Y-13001238D01*
X21917775Y-13000646D01*
X21917581Y-13000635D01*
X21916818Y-13000947D01*
G36*
X20937081Y-13011621D02*
G01*
X20936843Y-13011970D01*
X20936877Y-13012327D01*
X20937363Y-13013014D01*
X20938620Y-13014467D01*
X20940523Y-13016552D01*
X20942948Y-13019135D01*
X20945772Y-13022081D01*
X20948022Y-13024393D01*
X20958961Y-13035561D01*
X20988027Y-13053102D01*
X20993591Y-13056460D01*
X20998858Y-13059640D01*
X21003722Y-13062578D01*
X21008078Y-13065209D01*
X21011819Y-13067470D01*
X21014838Y-13069297D01*
X21017030Y-13070624D01*
X21018288Y-13071388D01*
X21018521Y-13071531D01*
X21019595Y-13072470D01*
X21019950Y-13073215D01*
X21019633Y-13074097D01*
X21018791Y-13075735D01*
X21017588Y-13077819D01*
X21017209Y-13078439D01*
X21015562Y-13081152D01*
X21014529Y-13083019D01*
X21014020Y-13084250D01*
X21013943Y-13085056D01*
X21014135Y-13085543D01*
X21014786Y-13086060D01*
X21016354Y-13087116D01*
X21018669Y-13088601D01*
X21021556Y-13090405D01*
X21024843Y-13092416D01*
X21025348Y-13092722D01*
X21029515Y-13095241D01*
X21034345Y-13098163D01*
X21039416Y-13101233D01*
X21044307Y-13104194D01*
X21047890Y-13106365D01*
X21051034Y-13108269D01*
X21055206Y-13110794D01*
X21060349Y-13113905D01*
X21066403Y-13117566D01*
X21073312Y-13121742D01*
X21081016Y-13126399D01*
X21089457Y-13131500D01*
X21098576Y-13137011D01*
X21108316Y-13142895D01*
X21118617Y-13149119D01*
X21129422Y-13155646D01*
X21140672Y-13162442D01*
X21152308Y-13169470D01*
X21164273Y-13176697D01*
X21176507Y-13184085D01*
X21188953Y-13191602D01*
X21201552Y-13199210D01*
X21206323Y-13202090D01*
X21214207Y-13206852D01*
X21221818Y-13211450D01*
X21229081Y-13215839D01*
X21235921Y-13219975D01*
X21242265Y-13223813D01*
X21248037Y-13227306D01*
X21253163Y-13230411D01*
X21257569Y-13233081D01*
X21261180Y-13235272D01*
X21263921Y-13236939D01*
X21265718Y-13238037D01*
X21266475Y-13238506D01*
X21268035Y-13239500D01*
X21268905Y-13239912D01*
X21269482Y-13239819D01*
X21270162Y-13239298D01*
X21270237Y-13239236D01*
X21270787Y-13238520D01*
X21271906Y-13236845D01*
X21273511Y-13234345D01*
X21275519Y-13231149D01*
X21277848Y-13227391D01*
X21280414Y-13223201D01*
X21282506Y-13219753D01*
X21285850Y-13214182D01*
X21288533Y-13209623D01*
X21290587Y-13206022D01*
X21292041Y-13203325D01*
X21292923Y-13201477D01*
X21293265Y-13200425D01*
X21293238Y-13200172D01*
X21293161Y-13200060D01*
X21293043Y-13199928D01*
X21292843Y-13199750D01*
X21292520Y-13199503D01*
X21292033Y-13199162D01*
X21291341Y-13198700D01*
X21290403Y-13198095D01*
X21289180Y-13197320D01*
X21287629Y-13196351D01*
X21285710Y-13195163D01*
X21283381Y-13193732D01*
X21280603Y-13192031D01*
X21277335Y-13190037D01*
X21273534Y-13187724D01*
X21269162Y-13185068D01*
X21264176Y-13182044D01*
X21258535Y-13178627D01*
X21252200Y-13174791D01*
X21245129Y-13170513D01*
X21237281Y-13165767D01*
X21228616Y-13160529D01*
X21219092Y-13154773D01*
X21208669Y-13148474D01*
X21197306Y-13141609D01*
X21184962Y-13134151D01*
X21171595Y-13126076D01*
X21163143Y-13120969D01*
X21150107Y-13113095D01*
X21138107Y-13105845D01*
X21127089Y-13099188D01*
X21117002Y-13093094D01*
X21107793Y-13087529D01*
X21099409Y-13082463D01*
X21091799Y-13077864D01*
X21084910Y-13073701D01*
X21078690Y-13069941D01*
X21073087Y-13066554D01*
X21068049Y-13063507D01*
X21063523Y-13060769D01*
X21059456Y-13058308D01*
X21055798Y-13056094D01*
X21052494Y-13054093D01*
X21049494Y-13052276D01*
X21046745Y-13050609D01*
X21044195Y-13049062D01*
X21043634Y-13048722D01*
X21041297Y-13047390D01*
X21039300Y-13046412D01*
X21037927Y-13045918D01*
X21037536Y-13045902D01*
X21036838Y-13046574D01*
X21035715Y-13048088D01*
X21034358Y-13050176D01*
X21033669Y-13051322D01*
X21032274Y-13053588D01*
X21031029Y-13055408D01*
X21030121Y-13056517D01*
X21029857Y-13056720D01*
X21029465Y-13056651D01*
X21028616Y-13056285D01*
X21027253Y-13055588D01*
X21025323Y-13054528D01*
X21022769Y-13053073D01*
X21019536Y-13051190D01*
X21015570Y-13048848D01*
X21010816Y-13046013D01*
X21005217Y-13042653D01*
X20998720Y-13038735D01*
X20991269Y-13034228D01*
X20982808Y-13029099D01*
X20979867Y-13027314D01*
X20976700Y-13025395D01*
X20974060Y-13023828D01*
X20971757Y-13022535D01*
X20969599Y-13021435D01*
X20967393Y-13020451D01*
X20964948Y-13019502D01*
X20962072Y-13018509D01*
X20958572Y-13017393D01*
X20954258Y-13016075D01*
X20948937Y-13014475D01*
X20948415Y-13014318D01*
X20944312Y-13013102D01*
X20941272Y-13012250D01*
X20939151Y-13011735D01*
X20937802Y-13011534D01*
X20937081Y-13011621D01*
G37*
X20937081Y-13011621D02*
X20936843Y-13011970D01*
X20936877Y-13012327D01*
X20937363Y-13013014D01*
X20938620Y-13014467D01*
X20940523Y-13016552D01*
X20942948Y-13019135D01*
X20945772Y-13022081D01*
X20948022Y-13024393D01*
X20958961Y-13035561D01*
X20988027Y-13053102D01*
X20993591Y-13056460D01*
X20998858Y-13059640D01*
X21003722Y-13062578D01*
X21008078Y-13065209D01*
X21011819Y-13067470D01*
X21014838Y-13069297D01*
X21017030Y-13070624D01*
X21018288Y-13071388D01*
X21018521Y-13071531D01*
X21019595Y-13072470D01*
X21019950Y-13073215D01*
X21019633Y-13074097D01*
X21018791Y-13075735D01*
X21017588Y-13077819D01*
X21017209Y-13078439D01*
X21015562Y-13081152D01*
X21014529Y-13083019D01*
X21014020Y-13084250D01*
X21013943Y-13085056D01*
X21014135Y-13085543D01*
X21014786Y-13086060D01*
X21016354Y-13087116D01*
X21018669Y-13088601D01*
X21021556Y-13090405D01*
X21024843Y-13092416D01*
X21025348Y-13092722D01*
X21029515Y-13095241D01*
X21034345Y-13098163D01*
X21039416Y-13101233D01*
X21044307Y-13104194D01*
X21047890Y-13106365D01*
X21051034Y-13108269D01*
X21055206Y-13110794D01*
X21060349Y-13113905D01*
X21066403Y-13117566D01*
X21073312Y-13121742D01*
X21081016Y-13126399D01*
X21089457Y-13131500D01*
X21098576Y-13137011D01*
X21108316Y-13142895D01*
X21118617Y-13149119D01*
X21129422Y-13155646D01*
X21140672Y-13162442D01*
X21152308Y-13169470D01*
X21164273Y-13176697D01*
X21176507Y-13184085D01*
X21188953Y-13191602D01*
X21201552Y-13199210D01*
X21206323Y-13202090D01*
X21214207Y-13206852D01*
X21221818Y-13211450D01*
X21229081Y-13215839D01*
X21235921Y-13219975D01*
X21242265Y-13223813D01*
X21248037Y-13227306D01*
X21253163Y-13230411D01*
X21257569Y-13233081D01*
X21261180Y-13235272D01*
X21263921Y-13236939D01*
X21265718Y-13238037D01*
X21266475Y-13238506D01*
X21268035Y-13239500D01*
X21268905Y-13239912D01*
X21269482Y-13239819D01*
X21270162Y-13239298D01*
X21270237Y-13239236D01*
X21270787Y-13238520D01*
X21271906Y-13236845D01*
X21273511Y-13234345D01*
X21275519Y-13231149D01*
X21277848Y-13227391D01*
X21280414Y-13223201D01*
X21282506Y-13219753D01*
X21285850Y-13214182D01*
X21288533Y-13209623D01*
X21290587Y-13206022D01*
X21292041Y-13203325D01*
X21292923Y-13201477D01*
X21293265Y-13200425D01*
X21293238Y-13200172D01*
X21293161Y-13200060D01*
X21293043Y-13199928D01*
X21292843Y-13199750D01*
X21292520Y-13199503D01*
X21292033Y-13199162D01*
X21291341Y-13198700D01*
X21290403Y-13198095D01*
X21289180Y-13197320D01*
X21287629Y-13196351D01*
X21285710Y-13195163D01*
X21283381Y-13193732D01*
X21280603Y-13192031D01*
X21277335Y-13190037D01*
X21273534Y-13187724D01*
X21269162Y-13185068D01*
X21264176Y-13182044D01*
X21258535Y-13178627D01*
X21252200Y-13174791D01*
X21245129Y-13170513D01*
X21237281Y-13165767D01*
X21228616Y-13160529D01*
X21219092Y-13154773D01*
X21208669Y-13148474D01*
X21197306Y-13141609D01*
X21184962Y-13134151D01*
X21171595Y-13126076D01*
X21163143Y-13120969D01*
X21150107Y-13113095D01*
X21138107Y-13105845D01*
X21127089Y-13099188D01*
X21117002Y-13093094D01*
X21107793Y-13087529D01*
X21099409Y-13082463D01*
X21091799Y-13077864D01*
X21084910Y-13073701D01*
X21078690Y-13069941D01*
X21073087Y-13066554D01*
X21068049Y-13063507D01*
X21063523Y-13060769D01*
X21059456Y-13058308D01*
X21055798Y-13056094D01*
X21052494Y-13054093D01*
X21049494Y-13052276D01*
X21046745Y-13050609D01*
X21044195Y-13049062D01*
X21043634Y-13048722D01*
X21041297Y-13047390D01*
X21039300Y-13046412D01*
X21037927Y-13045918D01*
X21037536Y-13045902D01*
X21036838Y-13046574D01*
X21035715Y-13048088D01*
X21034358Y-13050176D01*
X21033669Y-13051322D01*
X21032274Y-13053588D01*
X21031029Y-13055408D01*
X21030121Y-13056517D01*
X21029857Y-13056720D01*
X21029465Y-13056651D01*
X21028616Y-13056285D01*
X21027253Y-13055588D01*
X21025323Y-13054528D01*
X21022769Y-13053073D01*
X21019536Y-13051190D01*
X21015570Y-13048848D01*
X21010816Y-13046013D01*
X21005217Y-13042653D01*
X20998720Y-13038735D01*
X20991269Y-13034228D01*
X20982808Y-13029099D01*
X20979867Y-13027314D01*
X20976700Y-13025395D01*
X20974060Y-13023828D01*
X20971757Y-13022535D01*
X20969599Y-13021435D01*
X20967393Y-13020451D01*
X20964948Y-13019502D01*
X20962072Y-13018509D01*
X20958572Y-13017393D01*
X20954258Y-13016075D01*
X20948937Y-13014475D01*
X20948415Y-13014318D01*
X20944312Y-13013102D01*
X20941272Y-13012250D01*
X20939151Y-13011735D01*
X20937802Y-13011534D01*
X20937081Y-13011621D01*
G36*
X21327290Y-12979092D02*
G01*
X21324904Y-12980883D01*
X21323173Y-12983317D01*
X21322898Y-12983855D01*
X21321748Y-12986814D01*
X21321352Y-12989691D01*
X21321732Y-12992770D01*
X21322912Y-12996334D01*
X21324119Y-12999047D01*
X21325316Y-13001499D01*
X21326342Y-13003492D01*
X21327060Y-13004765D01*
X21327293Y-13005080D01*
X21327723Y-13005737D01*
X21328590Y-13007322D01*
X21329782Y-13009617D01*
X21331183Y-13012405D01*
X21331642Y-13013335D01*
X21333117Y-13016295D01*
X21334451Y-13018889D01*
X21335518Y-13020879D01*
X21336193Y-13022027D01*
X21336293Y-13022163D01*
X21336843Y-13023034D01*
X21337833Y-13024808D01*
X21339135Y-13027251D01*
X21340623Y-13030128D01*
X21341093Y-13031053D01*
X21343033Y-13034866D01*
X21345282Y-13039246D01*
X21347553Y-13043639D01*
X21349465Y-13047307D01*
X21355743Y-13059330D01*
X21362034Y-13071459D01*
X21366115Y-13079375D01*
X21367996Y-13082991D01*
X21370064Y-13086892D01*
X21372060Y-13090597D01*
X21373662Y-13093506D01*
X21374471Y-13095027D01*
X21375145Y-13096362D01*
X21375767Y-13097523D01*
X21376420Y-13098521D01*
X21377187Y-13099370D01*
X21378152Y-13100081D01*
X21379397Y-13100665D01*
X21381007Y-13101135D01*
X21383064Y-13101503D01*
X21385653Y-13101780D01*
X21388855Y-13101979D01*
X21392755Y-13102112D01*
X21397436Y-13102190D01*
X21402981Y-13102225D01*
X21409473Y-13102231D01*
X21416996Y-13102217D01*
X21425634Y-13102197D01*
X21434122Y-13102183D01*
X21444227Y-13102168D01*
X21453117Y-13102142D01*
X21460846Y-13102106D01*
X21467469Y-13102058D01*
X21473041Y-13101997D01*
X21477616Y-13101923D01*
X21481250Y-13101835D01*
X21483996Y-13101732D01*
X21485910Y-13101614D01*
X21487046Y-13101479D01*
X21487376Y-13101390D01*
X21489020Y-13100506D01*
X21490090Y-13099764D01*
X21490976Y-13098676D01*
X21492395Y-13096450D01*
X21494340Y-13093099D01*
X21496803Y-13088634D01*
X21499779Y-13083069D01*
X21503206Y-13076517D01*
X21505269Y-13072543D01*
X21507472Y-13068299D01*
X21509611Y-13064182D01*
X21511479Y-13060588D01*
X21512277Y-13059055D01*
X21514187Y-13055382D01*
X21516338Y-13051245D01*
X21518425Y-13047230D01*
X21519704Y-13044767D01*
X21521386Y-13041531D01*
X21523418Y-13037620D01*
X21525567Y-13033487D01*
X21527597Y-13029584D01*
X21527957Y-13028892D01*
X21529952Y-13025045D01*
X21532120Y-13020840D01*
X21534223Y-13016744D01*
X21536018Y-13013224D01*
X21536284Y-13012700D01*
X21537733Y-13009881D01*
X21539022Y-13007442D01*
X21540022Y-13005625D01*
X21540602Y-13004674D01*
X21540636Y-13004630D01*
X21541222Y-13003591D01*
X21541285Y-13003255D01*
X21541690Y-13002473D01*
X21541761Y-13002434D01*
X21542248Y-13001797D01*
X21543096Y-13000308D01*
X21544135Y-12998269D01*
X21544301Y-12997924D01*
X21545937Y-12993532D01*
X21546409Y-12989518D01*
X21545721Y-12985761D01*
X21544816Y-12983697D01*
X21543782Y-12981960D01*
X21542651Y-12980684D01*
X21541060Y-12979548D01*
X21538745Y-12978278D01*
X21538321Y-12978168D01*
X21537460Y-12978068D01*
X21536110Y-12977977D01*
X21534221Y-12977895D01*
X21531741Y-12977821D01*
X21528618Y-12977756D01*
X21524802Y-12977698D01*
X21520241Y-12977648D01*
X21514885Y-12977604D01*
X21508681Y-12977567D01*
X21501579Y-12977536D01*
X21493527Y-12977511D01*
X21484473Y-12977492D01*
X21474368Y-12977477D01*
X21463159Y-12977466D01*
X21450796Y-12977460D01*
X21437227Y-12977458D01*
X21433653Y-12977457D01*
X21330148Y-12977457D01*
X21327290Y-12979092D01*
G37*
X21327290Y-12979092D02*
X21324904Y-12980883D01*
X21323173Y-12983317D01*
X21322898Y-12983855D01*
X21321748Y-12986814D01*
X21321352Y-12989691D01*
X21321732Y-12992770D01*
X21322912Y-12996334D01*
X21324119Y-12999047D01*
X21325316Y-13001499D01*
X21326342Y-13003492D01*
X21327060Y-13004765D01*
X21327293Y-13005080D01*
X21327723Y-13005737D01*
X21328590Y-13007322D01*
X21329782Y-13009617D01*
X21331183Y-13012405D01*
X21331642Y-13013335D01*
X21333117Y-13016295D01*
X21334451Y-13018889D01*
X21335518Y-13020879D01*
X21336193Y-13022027D01*
X21336293Y-13022163D01*
X21336843Y-13023034D01*
X21337833Y-13024808D01*
X21339135Y-13027251D01*
X21340623Y-13030128D01*
X21341093Y-13031053D01*
X21343033Y-13034866D01*
X21345282Y-13039246D01*
X21347553Y-13043639D01*
X21349465Y-13047307D01*
X21355743Y-13059330D01*
X21362034Y-13071459D01*
X21366115Y-13079375D01*
X21367996Y-13082991D01*
X21370064Y-13086892D01*
X21372060Y-13090597D01*
X21373662Y-13093506D01*
X21374471Y-13095027D01*
X21375145Y-13096362D01*
X21375767Y-13097523D01*
X21376420Y-13098521D01*
X21377187Y-13099370D01*
X21378152Y-13100081D01*
X21379397Y-13100665D01*
X21381007Y-13101135D01*
X21383064Y-13101503D01*
X21385653Y-13101780D01*
X21388855Y-13101979D01*
X21392755Y-13102112D01*
X21397436Y-13102190D01*
X21402981Y-13102225D01*
X21409473Y-13102231D01*
X21416996Y-13102217D01*
X21425634Y-13102197D01*
X21434122Y-13102183D01*
X21444227Y-13102168D01*
X21453117Y-13102142D01*
X21460846Y-13102106D01*
X21467469Y-13102058D01*
X21473041Y-13101997D01*
X21477616Y-13101923D01*
X21481250Y-13101835D01*
X21483996Y-13101732D01*
X21485910Y-13101614D01*
X21487046Y-13101479D01*
X21487376Y-13101390D01*
X21489020Y-13100506D01*
X21490090Y-13099764D01*
X21490976Y-13098676D01*
X21492395Y-13096450D01*
X21494340Y-13093099D01*
X21496803Y-13088634D01*
X21499779Y-13083069D01*
X21503206Y-13076517D01*
X21505269Y-13072543D01*
X21507472Y-13068299D01*
X21509611Y-13064182D01*
X21511479Y-13060588D01*
X21512277Y-13059055D01*
X21514187Y-13055382D01*
X21516338Y-13051245D01*
X21518425Y-13047230D01*
X21519704Y-13044767D01*
X21521386Y-13041531D01*
X21523418Y-13037620D01*
X21525567Y-13033487D01*
X21527597Y-13029584D01*
X21527957Y-13028892D01*
X21529952Y-13025045D01*
X21532120Y-13020840D01*
X21534223Y-13016744D01*
X21536018Y-13013224D01*
X21536284Y-13012700D01*
X21537733Y-13009881D01*
X21539022Y-13007442D01*
X21540022Y-13005625D01*
X21540602Y-13004674D01*
X21540636Y-13004630D01*
X21541222Y-13003591D01*
X21541285Y-13003255D01*
X21541690Y-13002473D01*
X21541761Y-13002434D01*
X21542248Y-13001797D01*
X21543096Y-13000308D01*
X21544135Y-12998269D01*
X21544301Y-12997924D01*
X21545937Y-12993532D01*
X21546409Y-12989518D01*
X21545721Y-12985761D01*
X21544816Y-12983697D01*
X21543782Y-12981960D01*
X21542651Y-12980684D01*
X21541060Y-12979548D01*
X21538745Y-12978278D01*
X21538321Y-12978168D01*
X21537460Y-12978068D01*
X21536110Y-12977977D01*
X21534221Y-12977895D01*
X21531741Y-12977821D01*
X21528618Y-12977756D01*
X21524802Y-12977698D01*
X21520241Y-12977648D01*
X21514885Y-12977604D01*
X21508681Y-12977567D01*
X21501579Y-12977536D01*
X21493527Y-12977511D01*
X21484473Y-12977492D01*
X21474368Y-12977477D01*
X21463159Y-12977466D01*
X21450796Y-12977460D01*
X21437227Y-12977458D01*
X21433653Y-12977457D01*
X21330148Y-12977457D01*
X21327290Y-12979092D01*
G36*
X21478324Y-12541543D02*
G01*
X21476277Y-12541544D01*
X21468916Y-12541549D01*
X21462715Y-12541561D01*
X21457565Y-12541582D01*
X21453354Y-12541618D01*
X21449974Y-12541671D01*
X21447315Y-12541745D01*
X21445266Y-12541845D01*
X21443718Y-12541973D01*
X21442561Y-12542134D01*
X21441685Y-12542331D01*
X21440979Y-12542569D01*
X21440518Y-12542765D01*
X21438797Y-12543766D01*
X21437157Y-12545238D01*
X21435484Y-12547338D01*
X21433661Y-12550221D01*
X21431573Y-12554046D01*
X21430189Y-12556770D01*
X21428397Y-12560335D01*
X21426289Y-12564482D01*
X21424142Y-12568669D01*
X21422412Y-12572010D01*
X21420423Y-12575829D01*
X21418178Y-12580140D01*
X21415971Y-12584379D01*
X21414312Y-12587567D01*
X21412519Y-12590999D01*
X21410622Y-12594602D01*
X21408856Y-12597933D01*
X21407533Y-12600403D01*
X21404718Y-12605620D01*
X21356638Y-12605801D01*
X21308558Y-12605982D01*
X21304430Y-12607454D01*
X21301571Y-12608669D01*
X21298519Y-12610259D01*
X21296631Y-12611423D01*
X21294740Y-12612666D01*
X21293256Y-12613560D01*
X21292489Y-12613919D01*
X21292477Y-12613920D01*
X21291811Y-12614348D01*
X21290613Y-12615426D01*
X21289187Y-12616846D01*
X21287834Y-12618300D01*
X21286858Y-12619479D01*
X21286567Y-12619952D01*
X21286111Y-12620773D01*
X21285147Y-12622301D01*
X21283950Y-12624105D01*
X21282385Y-12626701D01*
X21280897Y-12629630D01*
X21280140Y-12631407D01*
X21279850Y-12632197D01*
X21279601Y-12632976D01*
X21279391Y-12633845D01*
X21279215Y-12634907D01*
X21279070Y-12636262D01*
X21278953Y-12638012D01*
X21278859Y-12640260D01*
X21278786Y-12643106D01*
X21278728Y-12646653D01*
X21278683Y-12651003D01*
X21278648Y-12656256D01*
X21278617Y-12662514D01*
X21278588Y-12669880D01*
X21278570Y-12674880D01*
X21278428Y-12714567D01*
X21279840Y-12717411D01*
X21281092Y-12719412D01*
X21282772Y-12720915D01*
X21284659Y-12722015D01*
X21288065Y-12723775D01*
X21321806Y-12723778D01*
X21329685Y-12723792D01*
X21336741Y-12723829D01*
X21342906Y-12723890D01*
X21348113Y-12723972D01*
X21352293Y-12724075D01*
X21355380Y-12724196D01*
X21357306Y-12724336D01*
X21357877Y-12724429D01*
X21359844Y-12725368D01*
X21361775Y-12726894D01*
X21362163Y-12727305D01*
X21363444Y-12729035D01*
X21364011Y-12730760D01*
X21364120Y-12732650D01*
X21363999Y-12734538D01*
X21363690Y-12735852D01*
X21363475Y-12736164D01*
X21363074Y-12736871D01*
X21363142Y-12737069D01*
X21362974Y-12737823D01*
X21362359Y-12738531D01*
X21361700Y-12739096D01*
X21361055Y-12739577D01*
X21360319Y-12739982D01*
X21359390Y-12740317D01*
X21358162Y-12740592D01*
X21356534Y-12740813D01*
X21354400Y-12740989D01*
X21351657Y-12741128D01*
X21348202Y-12741236D01*
X21343931Y-12741323D01*
X21338741Y-12741395D01*
X21332527Y-12741461D01*
X21325185Y-12741528D01*
X21322097Y-12741555D01*
X21314427Y-12741624D01*
X21307925Y-12741687D01*
X21302488Y-12741749D01*
X21298015Y-12741814D01*
X21294403Y-12741887D01*
X21291549Y-12741972D01*
X21289352Y-12742073D01*
X21287710Y-12742195D01*
X21286519Y-12742342D01*
X21285679Y-12742519D01*
X21285086Y-12742730D01*
X21284638Y-12742980D01*
X21284351Y-12743183D01*
X21282845Y-12744513D01*
X21281178Y-12746271D01*
X21280654Y-12746893D01*
X21278713Y-12749291D01*
X21278551Y-12771299D01*
X21278510Y-12777165D01*
X21278486Y-12781900D01*
X21278486Y-12785644D01*
X21278518Y-12788533D01*
X21278589Y-12790709D01*
X21278706Y-12792310D01*
X21278876Y-12793474D01*
X21279107Y-12794340D01*
X21279405Y-12795049D01*
X21279779Y-12795738D01*
X21279827Y-12795821D01*
X21281251Y-12797729D01*
X21283173Y-12799615D01*
X21284011Y-12800266D01*
X21286759Y-12802197D01*
X21347188Y-12802515D01*
X21357368Y-12802570D01*
X21366356Y-12802622D01*
X21374228Y-12802674D01*
X21381062Y-12802726D01*
X21386936Y-12802781D01*
X21391927Y-12802841D01*
X21396111Y-12802906D01*
X21399568Y-12802979D01*
X21402373Y-12803062D01*
X21404605Y-12803156D01*
X21406341Y-12803263D01*
X21407657Y-12803384D01*
X21408632Y-12803522D01*
X21409343Y-12803679D01*
X21409867Y-12803854D01*
X21410003Y-12803913D01*
X21411870Y-12805129D01*
X21412998Y-12806600D01*
X21413019Y-12806653D01*
X21413423Y-12808538D01*
X21413613Y-12811166D01*
X21413590Y-12814025D01*
X21413353Y-12816607D01*
X21413008Y-12818136D01*
X21412367Y-12819977D01*
X21350620Y-12819977D01*
X21341838Y-12819982D01*
X21333393Y-12819997D01*
X21325375Y-12820020D01*
X21317873Y-12820052D01*
X21310976Y-12820090D01*
X21304775Y-12820136D01*
X21299358Y-12820187D01*
X21294816Y-12820244D01*
X21291237Y-12820306D01*
X21288712Y-12820371D01*
X21287329Y-12820440D01*
X21287110Y-12820470D01*
X21285203Y-12821415D01*
X21283043Y-12823083D01*
X21281028Y-12825108D01*
X21279556Y-12827121D01*
X21279251Y-12827736D01*
X21279023Y-12828925D01*
X21278827Y-12831221D01*
X21278664Y-12834461D01*
X21278532Y-12838483D01*
X21278431Y-12843123D01*
X21278363Y-12848219D01*
X21278327Y-12853609D01*
X21278322Y-12859128D01*
X21278349Y-12864615D01*
X21278408Y-12869908D01*
X21278499Y-12874842D01*
X21278621Y-12879256D01*
X21278776Y-12882986D01*
X21278962Y-12885870D01*
X21279179Y-12887745D01*
X21279255Y-12888102D01*
X21280114Y-12891415D01*
X21258115Y-12891415D01*
X21251658Y-12891424D01*
X21246322Y-12891463D01*
X21241957Y-12891549D01*
X21238415Y-12891702D01*
X21235546Y-12891938D01*
X21233202Y-12892276D01*
X21231233Y-12892733D01*
X21229491Y-12893328D01*
X21227825Y-12894079D01*
X21226087Y-12895003D01*
X21225479Y-12895345D01*
X21223366Y-12896544D01*
X21221540Y-12897580D01*
X21220506Y-12898167D01*
X21218686Y-12899496D01*
X21216657Y-12901408D01*
X21214862Y-12903448D01*
X21213855Y-12904942D01*
X21212771Y-12906655D01*
X21211733Y-12907912D01*
X21210936Y-12909085D01*
X21209953Y-12911058D01*
X21208985Y-12913423D01*
X21208909Y-12913632D01*
X21208167Y-12915867D01*
X21207688Y-12917896D01*
X21207418Y-12920112D01*
X21207304Y-12922910D01*
X21207288Y-12925584D01*
X21207563Y-12931250D01*
X21208423Y-12936075D01*
X21209962Y-12940386D01*
X21212269Y-12944511D01*
X21212753Y-12945231D01*
X21214304Y-12947250D01*
X21216188Y-12949369D01*
X21218167Y-12951358D01*
X21220003Y-12952987D01*
X21221458Y-12954026D01*
X21222147Y-12954280D01*
X21223130Y-12954680D01*
X21224289Y-12955564D01*
X21225612Y-12956450D01*
X21227667Y-12957466D01*
X21229647Y-12958256D01*
X21233628Y-12959663D01*
X21432383Y-12959778D01*
X21451952Y-12959788D01*
X21470288Y-12959796D01*
X21487426Y-12959801D01*
X21503402Y-12959803D01*
X21518252Y-12959802D01*
X21532012Y-12959798D01*
X21544718Y-12959791D01*
X21556407Y-12959780D01*
X21567114Y-12959766D01*
X21576876Y-12959748D01*
X21585728Y-12959726D01*
X21593706Y-12959701D01*
X21600847Y-12959672D01*
X21607186Y-12959638D01*
X21612760Y-12959600D01*
X21617604Y-12959558D01*
X21621755Y-12959511D01*
X21625249Y-12959460D01*
X21628122Y-12959404D01*
X21630409Y-12959343D01*
X21632147Y-12959277D01*
X21633372Y-12959206D01*
X21634119Y-12959130D01*
X21634313Y-12959094D01*
X21640434Y-12956931D01*
X21646152Y-12953695D01*
X21650981Y-12949724D01*
X21652607Y-12948013D01*
X21653794Y-12946559D01*
X21654309Y-12945650D01*
X21654315Y-12945595D01*
X21654697Y-12944825D01*
X21654950Y-12944755D01*
X21655525Y-12944246D01*
X21655585Y-12943870D01*
X21656096Y-12942883D01*
X21656507Y-12942632D01*
X21657098Y-12941900D01*
X21657894Y-12940244D01*
X21658757Y-12937965D01*
X21659115Y-12936872D01*
X21659860Y-12934341D01*
X21660330Y-12932226D01*
X21660573Y-12930113D01*
X21660635Y-12927588D01*
X21660562Y-12924236D01*
X21660553Y-12923982D01*
X21660408Y-12920581D01*
X21660191Y-12918085D01*
X21659834Y-12916129D01*
X21659272Y-12914346D01*
X21658438Y-12912372D01*
X21658437Y-12912370D01*
X21657275Y-12910033D01*
X21656066Y-12907958D01*
X21655124Y-12906661D01*
X21654135Y-12905396D01*
X21653683Y-12904457D01*
X21653680Y-12904412D01*
X21653227Y-12903614D01*
X21652060Y-12902308D01*
X21650467Y-12900769D01*
X21648737Y-12899270D01*
X21647158Y-12898083D01*
X21646695Y-12897793D01*
X21641705Y-12895082D01*
X21637474Y-12893182D01*
X21634123Y-12892135D01*
X21632387Y-12891915D01*
X21629457Y-12891732D01*
X21625411Y-12891588D01*
X21620322Y-12891486D01*
X21614268Y-12891428D01*
X21609131Y-12891415D01*
X21603318Y-12891412D01*
X21598654Y-12891398D01*
X21595015Y-12891366D01*
X21592280Y-12891311D01*
X21590327Y-12891226D01*
X21589033Y-12891105D01*
X21588277Y-12890941D01*
X21587936Y-12890728D01*
X21587889Y-12890459D01*
X21587936Y-12890304D01*
X21588129Y-12889728D01*
X21588306Y-12889000D01*
X21588468Y-12888068D01*
X21588615Y-12886879D01*
X21588747Y-12885380D01*
X21588866Y-12883517D01*
X21588972Y-12881239D01*
X21589066Y-12878492D01*
X21589148Y-12875223D01*
X21589218Y-12871379D01*
X21589278Y-12866908D01*
X21589327Y-12861756D01*
X21589368Y-12855870D01*
X21589399Y-12849199D01*
X21589422Y-12841688D01*
X21589437Y-12833284D01*
X21589445Y-12823936D01*
X21589447Y-12813590D01*
X21589442Y-12802192D01*
X21589432Y-12789691D01*
X21589418Y-12776033D01*
X21589399Y-12761166D01*
X21589396Y-12758982D01*
X21589228Y-12635192D01*
X21587519Y-12630929D01*
X21586197Y-12628095D01*
X21584528Y-12625129D01*
X21583232Y-12623178D01*
X21581935Y-12621349D01*
X21581010Y-12619903D01*
X21580655Y-12619152D01*
X21580655Y-12619152D01*
X21580227Y-12618419D01*
X21579186Y-12617234D01*
X21577894Y-12615955D01*
X21576713Y-12614942D01*
X21576023Y-12614555D01*
X21575303Y-12614214D01*
X21573901Y-12613331D01*
X21572560Y-12612408D01*
X21566755Y-12608972D01*
X21560695Y-12606763D01*
X21554284Y-12605753D01*
X21551964Y-12605676D01*
X21549855Y-12605604D01*
X21548677Y-12605330D01*
X21548094Y-12604742D01*
X21547935Y-12604341D01*
X21547488Y-12603311D01*
X21546555Y-12601416D01*
X21545264Y-12598904D01*
X21543740Y-12596025D01*
X21543345Y-12595292D01*
X21541350Y-12591561D01*
X21539137Y-12587365D01*
X21536997Y-12583258D01*
X21535459Y-12580265D01*
X21533670Y-12576779D01*
X21531546Y-12572685D01*
X21529352Y-12568492D01*
X21527354Y-12564711D01*
X21527352Y-12564707D01*
X21525516Y-12561232D01*
X21523637Y-12557638D01*
X21521919Y-12554318D01*
X21520568Y-12551668D01*
X21520414Y-12551360D01*
X21519419Y-12549351D01*
X21518531Y-12547636D01*
X21517645Y-12546191D01*
X21516657Y-12544994D01*
X21515463Y-12544021D01*
X21513960Y-12543249D01*
X21512044Y-12542655D01*
X21509610Y-12542216D01*
X21506555Y-12541909D01*
X21502775Y-12541711D01*
X21498166Y-12541598D01*
X21492624Y-12541548D01*
X21486044Y-12541537D01*
X21478324Y-12541543D01*
G37*
X21478324Y-12541543D02*
X21476277Y-12541544D01*
X21468916Y-12541549D01*
X21462715Y-12541561D01*
X21457565Y-12541582D01*
X21453354Y-12541618D01*
X21449974Y-12541671D01*
X21447315Y-12541745D01*
X21445266Y-12541845D01*
X21443718Y-12541973D01*
X21442561Y-12542134D01*
X21441685Y-12542331D01*
X21440979Y-12542569D01*
X21440518Y-12542765D01*
X21438797Y-12543766D01*
X21437157Y-12545238D01*
X21435484Y-12547338D01*
X21433661Y-12550221D01*
X21431573Y-12554046D01*
X21430189Y-12556770D01*
X21428397Y-12560335D01*
X21426289Y-12564482D01*
X21424142Y-12568669D01*
X21422412Y-12572010D01*
X21420423Y-12575829D01*
X21418178Y-12580140D01*
X21415971Y-12584379D01*
X21414312Y-12587567D01*
X21412519Y-12590999D01*
X21410622Y-12594602D01*
X21408856Y-12597933D01*
X21407533Y-12600403D01*
X21404718Y-12605620D01*
X21356638Y-12605801D01*
X21308558Y-12605982D01*
X21304430Y-12607454D01*
X21301571Y-12608669D01*
X21298519Y-12610259D01*
X21296631Y-12611423D01*
X21294740Y-12612666D01*
X21293256Y-12613560D01*
X21292489Y-12613919D01*
X21292477Y-12613920D01*
X21291811Y-12614348D01*
X21290613Y-12615426D01*
X21289187Y-12616846D01*
X21287834Y-12618300D01*
X21286858Y-12619479D01*
X21286567Y-12619952D01*
X21286111Y-12620773D01*
X21285147Y-12622301D01*
X21283950Y-12624105D01*
X21282385Y-12626701D01*
X21280897Y-12629630D01*
X21280140Y-12631407D01*
X21279850Y-12632197D01*
X21279601Y-12632976D01*
X21279391Y-12633845D01*
X21279215Y-12634907D01*
X21279070Y-12636262D01*
X21278953Y-12638012D01*
X21278859Y-12640260D01*
X21278786Y-12643106D01*
X21278728Y-12646653D01*
X21278683Y-12651003D01*
X21278648Y-12656256D01*
X21278617Y-12662514D01*
X21278588Y-12669880D01*
X21278570Y-12674880D01*
X21278428Y-12714567D01*
X21279840Y-12717411D01*
X21281092Y-12719412D01*
X21282772Y-12720915D01*
X21284659Y-12722015D01*
X21288065Y-12723775D01*
X21321806Y-12723778D01*
X21329685Y-12723792D01*
X21336741Y-12723829D01*
X21342906Y-12723890D01*
X21348113Y-12723972D01*
X21352293Y-12724075D01*
X21355380Y-12724196D01*
X21357306Y-12724336D01*
X21357877Y-12724429D01*
X21359844Y-12725368D01*
X21361775Y-12726894D01*
X21362163Y-12727305D01*
X21363444Y-12729035D01*
X21364011Y-12730760D01*
X21364120Y-12732650D01*
X21363999Y-12734538D01*
X21363690Y-12735852D01*
X21363475Y-12736164D01*
X21363074Y-12736871D01*
X21363142Y-12737069D01*
X21362974Y-12737823D01*
X21362359Y-12738531D01*
X21361700Y-12739096D01*
X21361055Y-12739577D01*
X21360319Y-12739982D01*
X21359390Y-12740317D01*
X21358162Y-12740592D01*
X21356534Y-12740813D01*
X21354400Y-12740989D01*
X21351657Y-12741128D01*
X21348202Y-12741236D01*
X21343931Y-12741323D01*
X21338741Y-12741395D01*
X21332527Y-12741461D01*
X21325185Y-12741528D01*
X21322097Y-12741555D01*
X21314427Y-12741624D01*
X21307925Y-12741687D01*
X21302488Y-12741749D01*
X21298015Y-12741814D01*
X21294403Y-12741887D01*
X21291549Y-12741972D01*
X21289352Y-12742073D01*
X21287710Y-12742195D01*
X21286519Y-12742342D01*
X21285679Y-12742519D01*
X21285086Y-12742730D01*
X21284638Y-12742980D01*
X21284351Y-12743183D01*
X21282845Y-12744513D01*
X21281178Y-12746271D01*
X21280654Y-12746893D01*
X21278713Y-12749291D01*
X21278551Y-12771299D01*
X21278510Y-12777165D01*
X21278486Y-12781900D01*
X21278486Y-12785644D01*
X21278518Y-12788533D01*
X21278589Y-12790709D01*
X21278706Y-12792310D01*
X21278876Y-12793474D01*
X21279107Y-12794340D01*
X21279405Y-12795049D01*
X21279779Y-12795738D01*
X21279827Y-12795821D01*
X21281251Y-12797729D01*
X21283173Y-12799615D01*
X21284011Y-12800266D01*
X21286759Y-12802197D01*
X21347188Y-12802515D01*
X21357368Y-12802570D01*
X21366356Y-12802622D01*
X21374228Y-12802674D01*
X21381062Y-12802726D01*
X21386936Y-12802781D01*
X21391927Y-12802841D01*
X21396111Y-12802906D01*
X21399568Y-12802979D01*
X21402373Y-12803062D01*
X21404605Y-12803156D01*
X21406341Y-12803263D01*
X21407657Y-12803384D01*
X21408632Y-12803522D01*
X21409343Y-12803679D01*
X21409867Y-12803854D01*
X21410003Y-12803913D01*
X21411870Y-12805129D01*
X21412998Y-12806600D01*
X21413019Y-12806653D01*
X21413423Y-12808538D01*
X21413613Y-12811166D01*
X21413590Y-12814025D01*
X21413353Y-12816607D01*
X21413008Y-12818136D01*
X21412367Y-12819977D01*
X21350620Y-12819977D01*
X21341838Y-12819982D01*
X21333393Y-12819997D01*
X21325375Y-12820020D01*
X21317873Y-12820052D01*
X21310976Y-12820090D01*
X21304775Y-12820136D01*
X21299358Y-12820187D01*
X21294816Y-12820244D01*
X21291237Y-12820306D01*
X21288712Y-12820371D01*
X21287329Y-12820440D01*
X21287110Y-12820470D01*
X21285203Y-12821415D01*
X21283043Y-12823083D01*
X21281028Y-12825108D01*
X21279556Y-12827121D01*
X21279251Y-12827736D01*
X21279023Y-12828925D01*
X21278827Y-12831221D01*
X21278664Y-12834461D01*
X21278532Y-12838483D01*
X21278431Y-12843123D01*
X21278363Y-12848219D01*
X21278327Y-12853609D01*
X21278322Y-12859128D01*
X21278349Y-12864615D01*
X21278408Y-12869908D01*
X21278499Y-12874842D01*
X21278621Y-12879256D01*
X21278776Y-12882986D01*
X21278962Y-12885870D01*
X21279179Y-12887745D01*
X21279255Y-12888102D01*
X21280114Y-12891415D01*
X21258115Y-12891415D01*
X21251658Y-12891424D01*
X21246322Y-12891463D01*
X21241957Y-12891549D01*
X21238415Y-12891702D01*
X21235546Y-12891938D01*
X21233202Y-12892276D01*
X21231233Y-12892733D01*
X21229491Y-12893328D01*
X21227825Y-12894079D01*
X21226087Y-12895003D01*
X21225479Y-12895345D01*
X21223366Y-12896544D01*
X21221540Y-12897580D01*
X21220506Y-12898167D01*
X21218686Y-12899496D01*
X21216657Y-12901408D01*
X21214862Y-12903448D01*
X21213855Y-12904942D01*
X21212771Y-12906655D01*
X21211733Y-12907912D01*
X21210936Y-12909085D01*
X21209953Y-12911058D01*
X21208985Y-12913423D01*
X21208909Y-12913632D01*
X21208167Y-12915867D01*
X21207688Y-12917896D01*
X21207418Y-12920112D01*
X21207304Y-12922910D01*
X21207288Y-12925584D01*
X21207563Y-12931250D01*
X21208423Y-12936075D01*
X21209962Y-12940386D01*
X21212269Y-12944511D01*
X21212753Y-12945231D01*
X21214304Y-12947250D01*
X21216188Y-12949369D01*
X21218167Y-12951358D01*
X21220003Y-12952987D01*
X21221458Y-12954026D01*
X21222147Y-12954280D01*
X21223130Y-12954680D01*
X21224289Y-12955564D01*
X21225612Y-12956450D01*
X21227667Y-12957466D01*
X21229647Y-12958256D01*
X21233628Y-12959663D01*
X21432383Y-12959778D01*
X21451952Y-12959788D01*
X21470288Y-12959796D01*
X21487426Y-12959801D01*
X21503402Y-12959803D01*
X21518252Y-12959802D01*
X21532012Y-12959798D01*
X21544718Y-12959791D01*
X21556407Y-12959780D01*
X21567114Y-12959766D01*
X21576876Y-12959748D01*
X21585728Y-12959726D01*
X21593706Y-12959701D01*
X21600847Y-12959672D01*
X21607186Y-12959638D01*
X21612760Y-12959600D01*
X21617604Y-12959558D01*
X21621755Y-12959511D01*
X21625249Y-12959460D01*
X21628122Y-12959404D01*
X21630409Y-12959343D01*
X21632147Y-12959277D01*
X21633372Y-12959206D01*
X21634119Y-12959130D01*
X21634313Y-12959094D01*
X21640434Y-12956931D01*
X21646152Y-12953695D01*
X21650981Y-12949724D01*
X21652607Y-12948013D01*
X21653794Y-12946559D01*
X21654309Y-12945650D01*
X21654315Y-12945595D01*
X21654697Y-12944825D01*
X21654950Y-12944755D01*
X21655525Y-12944246D01*
X21655585Y-12943870D01*
X21656096Y-12942883D01*
X21656507Y-12942632D01*
X21657098Y-12941900D01*
X21657894Y-12940244D01*
X21658757Y-12937965D01*
X21659115Y-12936872D01*
X21659860Y-12934341D01*
X21660330Y-12932226D01*
X21660573Y-12930113D01*
X21660635Y-12927588D01*
X21660562Y-12924236D01*
X21660553Y-12923982D01*
X21660408Y-12920581D01*
X21660191Y-12918085D01*
X21659834Y-12916129D01*
X21659272Y-12914346D01*
X21658438Y-12912372D01*
X21658437Y-12912370D01*
X21657275Y-12910033D01*
X21656066Y-12907958D01*
X21655124Y-12906661D01*
X21654135Y-12905396D01*
X21653683Y-12904457D01*
X21653680Y-12904412D01*
X21653227Y-12903614D01*
X21652060Y-12902308D01*
X21650467Y-12900769D01*
X21648737Y-12899270D01*
X21647158Y-12898083D01*
X21646695Y-12897793D01*
X21641705Y-12895082D01*
X21637474Y-12893182D01*
X21634123Y-12892135D01*
X21632387Y-12891915D01*
X21629457Y-12891732D01*
X21625411Y-12891588D01*
X21620322Y-12891486D01*
X21614268Y-12891428D01*
X21609131Y-12891415D01*
X21603318Y-12891412D01*
X21598654Y-12891398D01*
X21595015Y-12891366D01*
X21592280Y-12891311D01*
X21590327Y-12891226D01*
X21589033Y-12891105D01*
X21588277Y-12890941D01*
X21587936Y-12890728D01*
X21587889Y-12890459D01*
X21587936Y-12890304D01*
X21588129Y-12889728D01*
X21588306Y-12889000D01*
X21588468Y-12888068D01*
X21588615Y-12886879D01*
X21588747Y-12885380D01*
X21588866Y-12883517D01*
X21588972Y-12881239D01*
X21589066Y-12878492D01*
X21589148Y-12875223D01*
X21589218Y-12871379D01*
X21589278Y-12866908D01*
X21589327Y-12861756D01*
X21589368Y-12855870D01*
X21589399Y-12849199D01*
X21589422Y-12841688D01*
X21589437Y-12833284D01*
X21589445Y-12823936D01*
X21589447Y-12813590D01*
X21589442Y-12802192D01*
X21589432Y-12789691D01*
X21589418Y-12776033D01*
X21589399Y-12761166D01*
X21589396Y-12758982D01*
X21589228Y-12635192D01*
X21587519Y-12630929D01*
X21586197Y-12628095D01*
X21584528Y-12625129D01*
X21583232Y-12623178D01*
X21581935Y-12621349D01*
X21581010Y-12619903D01*
X21580655Y-12619152D01*
X21580655Y-12619152D01*
X21580227Y-12618419D01*
X21579186Y-12617234D01*
X21577894Y-12615955D01*
X21576713Y-12614942D01*
X21576023Y-12614555D01*
X21575303Y-12614214D01*
X21573901Y-12613331D01*
X21572560Y-12612408D01*
X21566755Y-12608972D01*
X21560695Y-12606763D01*
X21554284Y-12605753D01*
X21551964Y-12605676D01*
X21549855Y-12605604D01*
X21548677Y-12605330D01*
X21548094Y-12604742D01*
X21547935Y-12604341D01*
X21547488Y-12603311D01*
X21546555Y-12601416D01*
X21545264Y-12598904D01*
X21543740Y-12596025D01*
X21543345Y-12595292D01*
X21541350Y-12591561D01*
X21539137Y-12587365D01*
X21536997Y-12583258D01*
X21535459Y-12580265D01*
X21533670Y-12576779D01*
X21531546Y-12572685D01*
X21529352Y-12568492D01*
X21527354Y-12564711D01*
X21527352Y-12564707D01*
X21525516Y-12561232D01*
X21523637Y-12557638D01*
X21521919Y-12554318D01*
X21520568Y-12551668D01*
X21520414Y-12551360D01*
X21519419Y-12549351D01*
X21518531Y-12547636D01*
X21517645Y-12546191D01*
X21516657Y-12544994D01*
X21515463Y-12544021D01*
X21513960Y-12543249D01*
X21512044Y-12542655D01*
X21509610Y-12542216D01*
X21506555Y-12541909D01*
X21502775Y-12541711D01*
X21498166Y-12541598D01*
X21492624Y-12541548D01*
X21486044Y-12541537D01*
X21478324Y-12541543D01*
G36*
X21378864Y-12461044D02*
G01*
X21378954Y-12465726D01*
X21379055Y-12469337D01*
X21379185Y-12472075D01*
X21379364Y-12474139D01*
X21379610Y-12475727D01*
X21379942Y-12477039D01*
X21380379Y-12478272D01*
X21380537Y-12478665D01*
X21383554Y-12484390D01*
X21387615Y-12489465D01*
X21392634Y-12493816D01*
X21398525Y-12497368D01*
X21405201Y-12500049D01*
X21406035Y-12500304D01*
X21407417Y-12500690D01*
X21408799Y-12501004D01*
X21410337Y-12501256D01*
X21412188Y-12501458D01*
X21414507Y-12501620D01*
X21417451Y-12501753D01*
X21421177Y-12501867D01*
X21425841Y-12501973D01*
X21431600Y-12502082D01*
X21432383Y-12502096D01*
X21453973Y-12502477D01*
X21457595Y-12504256D01*
X21459833Y-12505539D01*
X21461828Y-12506992D01*
X21462833Y-12507956D01*
X21463409Y-12508676D01*
X21463829Y-12509396D01*
X21464117Y-12510321D01*
X21464299Y-12511653D01*
X21464398Y-12513594D01*
X21464441Y-12516348D01*
X21464450Y-12520118D01*
X21464450Y-12521259D01*
X21464450Y-12532640D01*
X21489215Y-12532640D01*
X21489215Y-12520391D01*
X21489131Y-12514246D01*
X21488834Y-12509158D01*
X21488259Y-12504920D01*
X21487340Y-12501326D01*
X21486010Y-12498172D01*
X21484204Y-12495251D01*
X21481855Y-12492358D01*
X21479389Y-12489774D01*
X21474225Y-12485394D01*
X21468429Y-12481979D01*
X21461804Y-12479415D01*
X21461265Y-12479252D01*
X21459882Y-12478868D01*
X21458495Y-12478555D01*
X21456950Y-12478303D01*
X21455089Y-12478101D01*
X21452755Y-12477939D01*
X21449794Y-12477806D01*
X21446047Y-12477691D01*
X21441358Y-12477584D01*
X21435572Y-12477474D01*
X21434923Y-12477463D01*
X21413333Y-12477077D01*
X21409697Y-12475292D01*
X21407654Y-12474256D01*
X21406117Y-12473299D01*
X21405014Y-12472225D01*
X21404273Y-12470841D01*
X21403823Y-12468954D01*
X21403590Y-12466369D01*
X21403503Y-12462893D01*
X21403490Y-12458577D01*
X21403490Y-12446915D01*
X21378619Y-12446915D01*
X21378864Y-12461044D01*
G37*
X21378864Y-12461044D02*
X21378954Y-12465726D01*
X21379055Y-12469337D01*
X21379185Y-12472075D01*
X21379364Y-12474139D01*
X21379610Y-12475727D01*
X21379942Y-12477039D01*
X21380379Y-12478272D01*
X21380537Y-12478665D01*
X21383554Y-12484390D01*
X21387615Y-12489465D01*
X21392634Y-12493816D01*
X21398525Y-12497368D01*
X21405201Y-12500049D01*
X21406035Y-12500304D01*
X21407417Y-12500690D01*
X21408799Y-12501004D01*
X21410337Y-12501256D01*
X21412188Y-12501458D01*
X21414507Y-12501620D01*
X21417451Y-12501753D01*
X21421177Y-12501867D01*
X21425841Y-12501973D01*
X21431600Y-12502082D01*
X21432383Y-12502096D01*
X21453973Y-12502477D01*
X21457595Y-12504256D01*
X21459833Y-12505539D01*
X21461828Y-12506992D01*
X21462833Y-12507956D01*
X21463409Y-12508676D01*
X21463829Y-12509396D01*
X21464117Y-12510321D01*
X21464299Y-12511653D01*
X21464398Y-12513594D01*
X21464441Y-12516348D01*
X21464450Y-12520118D01*
X21464450Y-12521259D01*
X21464450Y-12532640D01*
X21489215Y-12532640D01*
X21489215Y-12520391D01*
X21489131Y-12514246D01*
X21488834Y-12509158D01*
X21488259Y-12504920D01*
X21487340Y-12501326D01*
X21486010Y-12498172D01*
X21484204Y-12495251D01*
X21481855Y-12492358D01*
X21479389Y-12489774D01*
X21474225Y-12485394D01*
X21468429Y-12481979D01*
X21461804Y-12479415D01*
X21461265Y-12479252D01*
X21459882Y-12478868D01*
X21458495Y-12478555D01*
X21456950Y-12478303D01*
X21455089Y-12478101D01*
X21452755Y-12477939D01*
X21449794Y-12477806D01*
X21446047Y-12477691D01*
X21441358Y-12477584D01*
X21435572Y-12477474D01*
X21434923Y-12477463D01*
X21413333Y-12477077D01*
X21409697Y-12475292D01*
X21407654Y-12474256D01*
X21406117Y-12473299D01*
X21405014Y-12472225D01*
X21404273Y-12470841D01*
X21403823Y-12468954D01*
X21403590Y-12466369D01*
X21403503Y-12462893D01*
X21403490Y-12458577D01*
X21403490Y-12446915D01*
X21378619Y-12446915D01*
X21378864Y-12461044D01*
G36*
G01*
X15645000Y-17190100D02*
X15475000Y-17190100D01*
G75*
G02*
X15469900Y-17185000I0J5100D01*
G01*
X15469900Y-17015000D01*
G75*
G02*
X15475000Y-17009900I5100J0D01*
G01*
X15645000Y-17009900D01*
G75*
G02*
X15650100Y-17015000I0J-5100D01*
G01*
X15650100Y-17185000D01*
G75*
G02*
X15645000Y-17190100I-5100J0D01*
G01*
G37*
D13*
X15560000Y-16846000D03*
X15814000Y-17100000D03*
X15814000Y-16846000D03*
X16068000Y-17100000D03*
X16068000Y-16846000D03*
G36*
G01*
X14294800Y-17018600D02*
X14464800Y-17018600D01*
G75*
G02*
X14469900Y-17023700I0J-5100D01*
G01*
X14469900Y-17193700D01*
G75*
G02*
X14464800Y-17198800I-5100J0D01*
G01*
X14294800Y-17198800D01*
G75*
G02*
X14289700Y-17193700I0J5100D01*
G01*
X14289700Y-17023700D01*
G75*
G02*
X14294800Y-17018600I5100J0D01*
G01*
G37*
X14125800Y-17108700D03*
X13871800Y-17108700D03*
X13617800Y-17108700D03*
X13363800Y-17108700D03*
X13109800Y-17108700D03*
G36*
G01*
X13265000Y-15459900D02*
X13435000Y-15459900D01*
G75*
G02*
X13440100Y-15465000I0J-5100D01*
G01*
X13440100Y-15635000D01*
G75*
G02*
X13435000Y-15640100I-5100J0D01*
G01*
X13265000Y-15640100D01*
G75*
G02*
X13259900Y-15635000I0J5100D01*
G01*
X13259900Y-15465000D01*
G75*
G02*
X13265000Y-15459900I5100J0D01*
G01*
G37*
X13096000Y-15550000D03*
M02*
