%TF.GenerationSoftware,KiCad,Pcbnew,5.1.7+dfsg1-1~bpo10+1*%
%TF.CreationDate,2020-11-15T21:32:18+00:00*%
%TF.ProjectId,mobo,6d6f626f-2e6b-4696-9361-645f70636258,rev?*%
%TF.SameCoordinates,Original*%
%TF.FileFunction,Other,User*%
%FSLAX45Y45*%
G04 Gerber Fmt 4.5, Leading zero omitted, Abs format (unit mm)*
G04 Created by KiCad (PCBNEW 5.1.7+dfsg1-1~bpo10+1) date 2020-11-15 21:32:18*
%MOMM*%
%LPD*%
G01*
G04 APERTURE LIST*
%TA.AperFunction,Profile*%
%ADD10C,0.200000*%
%TD*%
%ADD11C,0.050000*%
G04 APERTURE END LIST*
D10*
X10078686Y-16898000D02*
G75*
G03*
X10078686Y-16898000I-150000J0D01*
G01*
X9313000Y-16132314D02*
G75*
G03*
X9313000Y-16132314I-150000J0D01*
G01*
X18263000Y-11798000D02*
X16263000Y-11798000D01*
X18263000Y-13798000D02*
X18263000Y-11798000D01*
X10029424Y-10598000D02*
G75*
G03*
X10029424Y-10598000I-150000J0D01*
G01*
X20541427Y-13398000D02*
G75*
G03*
X20541427Y-13398000I-150000J0D01*
G01*
X8984826Y-10298000D02*
X18263000Y-10298000D01*
X7702340Y-11580485D02*
X8984826Y-10298000D01*
X10972211Y-13852451D02*
G75*
G03*
X10972211Y-13852451I-150000J0D01*
G01*
X15074964Y-14810514D02*
G75*
G03*
X15074964Y-14810514I-150000J0D01*
G01*
X11675420Y-14754866D02*
G75*
G03*
X11675420Y-14754866I-150000J0D01*
G01*
X16263000Y-17298000D02*
X9763000Y-17298000D01*
X16263000Y-11798000D02*
X16263000Y-17298000D01*
X13413000Y-12473000D02*
G75*
G03*
X13413000Y-12473000I-150000J0D01*
G01*
X9413000Y-14555359D02*
G75*
G03*
X9413000Y-14555359I-150000J0D01*
G01*
X7702340Y-12994699D02*
X7702340Y-11580485D01*
X8763000Y-14055359D02*
X7702340Y-12994699D01*
X15807333Y-13931598D02*
G75*
G03*
X15807333Y-13931598I-150000J0D01*
G01*
X8763000Y-16298000D02*
X8763000Y-14055359D01*
X9763000Y-17298000D02*
X8763000Y-16298000D01*
X22650482Y-13798000D02*
X18263000Y-13798000D01*
X18263000Y-10298000D02*
G75*
G02*
X22650482Y-13798000I0J-4500000D01*
G01*
X16013000Y-12198000D02*
G75*
G03*
X16013000Y-12198000I-150000J0D01*
G01*
D11*
X16095000Y-15852000D02*
X16095000Y-16188000D01*
X15905000Y-15852000D02*
X16095000Y-15852000D01*
X15905000Y-16188000D02*
X15905000Y-15852000D01*
X16095000Y-16188000D02*
X15905000Y-16188000D01*
X8335962Y-10754419D02*
X7784419Y-11305962D01*
X8724871Y-11143327D02*
X8173327Y-11694871D01*
X8173327Y-11694871D02*
X7784419Y-11305962D01*
X8724871Y-11143327D02*
X8335962Y-10754419D01*
X14778000Y-15905000D02*
X14778000Y-16095000D01*
X14778000Y-16095000D02*
X14442000Y-16095000D01*
X14442000Y-16095000D02*
X14442000Y-15905000D01*
X14442000Y-15905000D02*
X14778000Y-15905000D01*
X14117500Y-16910800D02*
X14117500Y-16720800D01*
X14117500Y-16720800D02*
X14453500Y-16720800D01*
X14453500Y-16720800D02*
X14453500Y-16910800D01*
X14453500Y-16910800D02*
X14117500Y-16910800D01*
X7912499Y-11732000D02*
X7912499Y-12068000D01*
X7722499Y-11732000D02*
X7912499Y-11732000D01*
X7722499Y-12068000D02*
X7722499Y-11732000D01*
X7912499Y-12068000D02*
X7722499Y-12068000D01*
X7910703Y-12468000D02*
X7720703Y-12468000D01*
X7720703Y-12468000D02*
X7720703Y-12132000D01*
X7720703Y-12132000D02*
X7910703Y-12132000D01*
X7910703Y-12132000D02*
X7910703Y-12468000D01*
X15380000Y-16665000D02*
X15380000Y-17280000D01*
X16245000Y-16665000D02*
X15380000Y-16665000D01*
X16245000Y-17280000D02*
X16245000Y-16665000D01*
X15380000Y-17280000D02*
X16245000Y-17280000D01*
X8145000Y-11715000D02*
X8145000Y-12085000D01*
X7955000Y-11715000D02*
X8145000Y-11715000D01*
X7955000Y-12085000D02*
X7955000Y-11715000D01*
X8145000Y-12085000D02*
X7955000Y-12085000D01*
X8145985Y-12485000D02*
X7955985Y-12485000D01*
X7955985Y-12485000D02*
X7955985Y-12115000D01*
X7955985Y-12115000D02*
X8145985Y-12115000D01*
X8145985Y-12115000D02*
X8145985Y-12485000D01*
X12845000Y-14260000D02*
X12845000Y-13890000D01*
X13035000Y-14260000D02*
X12845000Y-14260000D01*
X13035000Y-13890000D02*
X13035000Y-14260000D01*
X12845000Y-13890000D02*
X13035000Y-13890000D01*
X13670000Y-13885000D02*
X13670000Y-14255000D01*
X13480000Y-13885000D02*
X13670000Y-13885000D01*
X13480000Y-14255000D02*
X13480000Y-13885000D01*
X13670000Y-14255000D02*
X13480000Y-14255000D01*
X13668700Y-16720800D02*
X14038700Y-16720800D01*
X13668700Y-16910800D02*
X13668700Y-16720800D01*
X14038700Y-16910800D02*
X13668700Y-16910800D01*
X14038700Y-16720800D02*
X14038700Y-16910800D01*
X14830000Y-16570000D02*
X15890000Y-16570000D01*
X14830000Y-15510000D02*
X15890000Y-15510000D01*
X15890000Y-15510000D02*
X15890000Y-16570000D01*
X14830000Y-15510000D02*
X14830000Y-16570000D01*
X14693300Y-16484800D02*
X14453300Y-16484800D01*
X14453300Y-16134800D02*
X14693300Y-16134800D01*
X14453300Y-16484800D02*
X14453300Y-16134800D01*
X14693300Y-16134800D02*
X14693300Y-16484800D01*
X14559800Y-17288700D02*
X14559800Y-16928700D01*
X12929800Y-17288700D02*
X14559800Y-17288700D01*
X12929800Y-16928700D02*
X12929800Y-17288700D01*
X14559800Y-16928700D02*
X12929800Y-16928700D01*
X9284871Y-10583327D02*
X8895962Y-10194419D01*
X8733327Y-11134871D02*
X8344419Y-10745962D01*
X9284871Y-10583327D02*
X8733327Y-11134871D01*
X8895962Y-10194419D02*
X8344419Y-10745962D01*
X13853100Y-15846000D02*
X13853100Y-16182000D01*
X13663100Y-15846000D02*
X13853100Y-15846000D01*
X13663100Y-16182000D02*
X13663100Y-15846000D01*
X13853100Y-16182000D02*
X13663100Y-16182000D01*
X13409100Y-15846000D02*
X13599100Y-15846000D01*
X13599100Y-15846000D02*
X13599100Y-16182000D01*
X13599100Y-16182000D02*
X13409100Y-16182000D01*
X13409100Y-16182000D02*
X13409100Y-15846000D01*
X12705000Y-16185000D02*
X13035000Y-16185000D01*
X12705000Y-16185000D02*
X12705000Y-16435000D01*
X13035000Y-16435000D02*
X13035000Y-16185000D01*
X13035000Y-16435000D02*
X12705000Y-16435000D01*
X13530000Y-15730000D02*
X13530000Y-15370000D01*
X12915000Y-15730000D02*
X13530000Y-15730000D01*
X12915000Y-15370000D02*
X12915000Y-15730000D01*
X13530000Y-15370000D02*
X12915000Y-15370000D01*
X13099700Y-15854000D02*
X13099700Y-16174000D01*
X13349700Y-15854000D02*
X13349700Y-16174000D01*
X13349700Y-16174000D02*
X13099700Y-16174000D01*
X13349700Y-15854000D02*
X13099700Y-15854000D01*
X14580000Y-17335000D02*
X15360000Y-17335000D01*
X14580000Y-16785000D02*
X15360000Y-16785000D01*
X15360000Y-16785000D02*
X15360000Y-17335000D01*
X14580000Y-16785000D02*
X14580000Y-17335000D01*
M02*
