%TF.GenerationSoftware,KiCad,Pcbnew,5.1.7+dfsg1-1~bpo10+1*%
%TF.CreationDate,2020-11-15T21:32:18+00:00*%
%TF.ProjectId,mobo,6d6f626f-2e6b-4696-9361-645f70636258,rev?*%
%TF.SameCoordinates,Original*%
%TF.FileFunction,Soldermask,Top*%
%TF.FilePolarity,Negative*%
%FSLAX45Y45*%
G04 Gerber Fmt 4.5, Leading zero omitted, Abs format (unit mm)*
G04 Created by KiCad (PCBNEW 5.1.7+dfsg1-1~bpo10+1) date 2020-11-15 21:32:18*
%MOMM*%
%LPD*%
G01*
G04 APERTURE LIST*
%TA.AperFunction,Profile*%
%ADD10C,0.200000*%
%TD*%
%ADD11O,1.802000X1.802000*%
%ADD12C,0.150000*%
G04 APERTURE END LIST*
D10*
X10078686Y-16898000D02*
G75*
G03*
X10078686Y-16898000I-150000J0D01*
G01*
X9313000Y-16132314D02*
G75*
G03*
X9313000Y-16132314I-150000J0D01*
G01*
X18263000Y-11798000D02*
X16263000Y-11798000D01*
X18263000Y-13798000D02*
X18263000Y-11798000D01*
X10029424Y-10598000D02*
G75*
G03*
X10029424Y-10598000I-150000J0D01*
G01*
X20541427Y-13398000D02*
G75*
G03*
X20541427Y-13398000I-150000J0D01*
G01*
X8984826Y-10298000D02*
X18263000Y-10298000D01*
X7702340Y-11580485D02*
X8984826Y-10298000D01*
X10972211Y-13852451D02*
G75*
G03*
X10972211Y-13852451I-150000J0D01*
G01*
X15074964Y-14810514D02*
G75*
G03*
X15074964Y-14810514I-150000J0D01*
G01*
X11675420Y-14754866D02*
G75*
G03*
X11675420Y-14754866I-150000J0D01*
G01*
X16263000Y-17298000D02*
X9763000Y-17298000D01*
X16263000Y-11798000D02*
X16263000Y-17298000D01*
X13413000Y-12473000D02*
G75*
G03*
X13413000Y-12473000I-150000J0D01*
G01*
X9413000Y-14555359D02*
G75*
G03*
X9413000Y-14555359I-150000J0D01*
G01*
X7702340Y-12994699D02*
X7702340Y-11580485D01*
X8763000Y-14055359D02*
X7702340Y-12994699D01*
X15807333Y-13931598D02*
G75*
G03*
X15807333Y-13931598I-150000J0D01*
G01*
X8763000Y-16298000D02*
X8763000Y-14055359D01*
X9763000Y-17298000D02*
X8763000Y-16298000D01*
X22650482Y-13798000D02*
X18263000Y-13798000D01*
X18263000Y-10298000D02*
G75*
G02*
X22650482Y-13798000I0J-4500000D01*
G01*
X16013000Y-12198000D02*
G75*
G03*
X16013000Y-12198000I-150000J0D01*
G01*
X10078686Y-16898000D02*
G75*
G03*
X10078686Y-16898000I-150000J0D01*
G01*
X9313000Y-16132314D02*
G75*
G03*
X9313000Y-16132314I-150000J0D01*
G01*
X18263000Y-11798000D02*
X16263000Y-11798000D01*
X18263000Y-13798000D02*
X18263000Y-11798000D01*
X10029424Y-10598000D02*
G75*
G03*
X10029424Y-10598000I-150000J0D01*
G01*
X20541427Y-13398000D02*
G75*
G03*
X20541427Y-13398000I-150000J0D01*
G01*
X8984826Y-10298000D02*
X18263000Y-10298000D01*
X7702340Y-11580485D02*
X8984826Y-10298000D01*
X10972211Y-13852451D02*
G75*
G03*
X10972211Y-13852451I-150000J0D01*
G01*
X15074964Y-14810514D02*
G75*
G03*
X15074964Y-14810514I-150000J0D01*
G01*
X11675420Y-14754866D02*
G75*
G03*
X11675420Y-14754866I-150000J0D01*
G01*
X16263000Y-17298000D02*
X9763000Y-17298000D01*
X16263000Y-11798000D02*
X16263000Y-17298000D01*
X13413000Y-12473000D02*
G75*
G03*
X13413000Y-12473000I-150000J0D01*
G01*
X9413000Y-14555359D02*
G75*
G03*
X9413000Y-14555359I-150000J0D01*
G01*
X7702340Y-12994699D02*
X7702340Y-11580485D01*
X8763000Y-14055359D02*
X7702340Y-12994699D01*
X15807333Y-13931598D02*
G75*
G03*
X15807333Y-13931598I-150000J0D01*
G01*
X8763000Y-16298000D02*
X8763000Y-14055359D01*
X9763000Y-17298000D02*
X8763000Y-16298000D01*
X22650482Y-13798000D02*
X18263000Y-13798000D01*
X18263000Y-10298000D02*
G75*
G02*
X22650482Y-13798000I0J-4500000D01*
G01*
X16013000Y-12198000D02*
G75*
G03*
X16013000Y-12198000I-150000J0D01*
G01*
G36*
G01*
X16048175Y-16167600D02*
X15951825Y-16167600D01*
G75*
G02*
X15924900Y-16140675I0J26925D01*
G01*
X15924900Y-16086825D01*
G75*
G02*
X15951825Y-16059900I26925J0D01*
G01*
X16048175Y-16059900D01*
G75*
G02*
X16075100Y-16086825I0J-26925D01*
G01*
X16075100Y-16140675D01*
G75*
G02*
X16048175Y-16167600I-26925J0D01*
G01*
G37*
G36*
G01*
X16048175Y-15980100D02*
X15951825Y-15980100D01*
G75*
G02*
X15924900Y-15953175I0J26925D01*
G01*
X15924900Y-15899325D01*
G75*
G02*
X15951825Y-15872400I26925J0D01*
G01*
X16048175Y-15872400D01*
G75*
G02*
X16075100Y-15899325I0J-26925D01*
G01*
X16075100Y-15953175D01*
G75*
G02*
X16048175Y-15980100I-26925J0D01*
G01*
G37*
G36*
G01*
X8558771Y-11040726D02*
X8629482Y-11111437D01*
G75*
G02*
X8629482Y-11118649I-3606J-3606D01*
G01*
X8519880Y-11228251D01*
G75*
G02*
X8512668Y-11228251I-3606J3606D01*
G01*
X8441957Y-11157540D01*
G75*
G02*
X8441957Y-11150328I3606J3606D01*
G01*
X8551559Y-11040726D01*
G75*
G02*
X8558771Y-11040726I3606J-3606D01*
G01*
G37*
G36*
G01*
X8187540Y-11411957D02*
X8258251Y-11482668D01*
G75*
G02*
X8258251Y-11489880I-3606J-3606D01*
G01*
X8148649Y-11599482D01*
G75*
G02*
X8141437Y-11599482I-3606J3606D01*
G01*
X8070726Y-11528771D01*
G75*
G02*
X8070726Y-11521559I3606J3606D01*
G01*
X8180328Y-11411957D01*
G75*
G02*
X8187540Y-11411957I3606J-3606D01*
G01*
G37*
G36*
G01*
X8067332Y-11291749D02*
X8138043Y-11362460D01*
G75*
G02*
X8138043Y-11369672I-3606J-3606D01*
G01*
X8028441Y-11479274D01*
G75*
G02*
X8021229Y-11479274I-3606J3606D01*
G01*
X7950518Y-11408563D01*
G75*
G02*
X7950518Y-11401351I3606J3606D01*
G01*
X8060120Y-11291749D01*
G75*
G02*
X8067332Y-11291749I3606J-3606D01*
G01*
G37*
G36*
G01*
X8438563Y-10920518D02*
X8509274Y-10991229D01*
G75*
G02*
X8509274Y-10998441I-3606J-3606D01*
G01*
X8399672Y-11108043D01*
G75*
G02*
X8392460Y-11108043I-3606J3606D01*
G01*
X8321749Y-11037332D01*
G75*
G02*
X8321749Y-11030120I3606J3606D01*
G01*
X8431351Y-10920518D01*
G75*
G02*
X8438563Y-10920518I3606J-3606D01*
G01*
G37*
G36*
G01*
X14570100Y-15951825D02*
X14570100Y-16048175D01*
G75*
G02*
X14543175Y-16075100I-26925J0D01*
G01*
X14489325Y-16075100D01*
G75*
G02*
X14462400Y-16048175I0J26925D01*
G01*
X14462400Y-15951825D01*
G75*
G02*
X14489325Y-15924900I26925J0D01*
G01*
X14543175Y-15924900D01*
G75*
G02*
X14570100Y-15951825I0J-26925D01*
G01*
G37*
G36*
G01*
X14757600Y-15951825D02*
X14757600Y-16048175D01*
G75*
G02*
X14730675Y-16075100I-26925J0D01*
G01*
X14676825Y-16075100D01*
G75*
G02*
X14649900Y-16048175I0J26925D01*
G01*
X14649900Y-15951825D01*
G75*
G02*
X14676825Y-15924900I26925J0D01*
G01*
X14730675Y-15924900D01*
G75*
G02*
X14757600Y-15951825I0J-26925D01*
G01*
G37*
G36*
G01*
X14325400Y-16863975D02*
X14325400Y-16767625D01*
G75*
G02*
X14352325Y-16740700I26925J0D01*
G01*
X14406175Y-16740700D01*
G75*
G02*
X14433100Y-16767625I0J-26925D01*
G01*
X14433100Y-16863975D01*
G75*
G02*
X14406175Y-16890900I-26925J0D01*
G01*
X14352325Y-16890900D01*
G75*
G02*
X14325400Y-16863975I0J26925D01*
G01*
G37*
G36*
G01*
X14137900Y-16863975D02*
X14137900Y-16767625D01*
G75*
G02*
X14164825Y-16740700I26925J0D01*
G01*
X14218675Y-16740700D01*
G75*
G02*
X14245600Y-16767625I0J-26925D01*
G01*
X14245600Y-16863975D01*
G75*
G02*
X14218675Y-16890900I-26925J0D01*
G01*
X14164825Y-16890900D01*
G75*
G02*
X14137900Y-16863975I0J26925D01*
G01*
G37*
G36*
G01*
X7865674Y-12047600D02*
X7769324Y-12047600D01*
G75*
G02*
X7742399Y-12020675I0J26925D01*
G01*
X7742399Y-11966825D01*
G75*
G02*
X7769324Y-11939900I26925J0D01*
G01*
X7865674Y-11939900D01*
G75*
G02*
X7892599Y-11966825I0J-26925D01*
G01*
X7892599Y-12020675D01*
G75*
G02*
X7865674Y-12047600I-26925J0D01*
G01*
G37*
G36*
G01*
X7865674Y-11860100D02*
X7769324Y-11860100D01*
G75*
G02*
X7742399Y-11833175I0J26925D01*
G01*
X7742399Y-11779325D01*
G75*
G02*
X7769324Y-11752400I26925J0D01*
G01*
X7865674Y-11752400D01*
G75*
G02*
X7892599Y-11779325I0J-26925D01*
G01*
X7892599Y-11833175D01*
G75*
G02*
X7865674Y-11860100I-26925J0D01*
G01*
G37*
G36*
G01*
X7863878Y-12260100D02*
X7767528Y-12260100D01*
G75*
G02*
X7740603Y-12233175I0J26925D01*
G01*
X7740603Y-12179325D01*
G75*
G02*
X7767528Y-12152400I26925J0D01*
G01*
X7863878Y-12152400D01*
G75*
G02*
X7890803Y-12179325I0J-26925D01*
G01*
X7890803Y-12233175D01*
G75*
G02*
X7863878Y-12260100I-26925J0D01*
G01*
G37*
G36*
G01*
X7863878Y-12447600D02*
X7767528Y-12447600D01*
G75*
G02*
X7740603Y-12420675I0J26925D01*
G01*
X7740603Y-12366825D01*
G75*
G02*
X7767528Y-12339900I26925J0D01*
G01*
X7863878Y-12339900D01*
G75*
G02*
X7890803Y-12366825I0J-26925D01*
G01*
X7890803Y-12420675D01*
G75*
G02*
X7863878Y-12447600I-26925J0D01*
G01*
G37*
G36*
G01*
X15645000Y-17190100D02*
X15475000Y-17190100D01*
G75*
G02*
X15469900Y-17185000I0J5100D01*
G01*
X15469900Y-17015000D01*
G75*
G02*
X15475000Y-17009900I5100J0D01*
G01*
X15645000Y-17009900D01*
G75*
G02*
X15650100Y-17015000I0J-5100D01*
G01*
X15650100Y-17185000D01*
G75*
G02*
X15645000Y-17190100I-5100J0D01*
G01*
G37*
D11*
X15560000Y-16846000D03*
X15814000Y-17100000D03*
X15814000Y-16846000D03*
X16068000Y-17100000D03*
X16068000Y-16846000D03*
G36*
G01*
X8097883Y-12065100D02*
X8002117Y-12065100D01*
G75*
G02*
X7974900Y-12037883I0J27217D01*
G01*
X7974900Y-11967117D01*
G75*
G02*
X8002117Y-11939900I27217J0D01*
G01*
X8097883Y-11939900D01*
G75*
G02*
X8125100Y-11967117I0J-27217D01*
G01*
X8125100Y-12037883D01*
G75*
G02*
X8097883Y-12065100I-27217J0D01*
G01*
G37*
G36*
G01*
X8097883Y-11860100D02*
X8002117Y-11860100D01*
G75*
G02*
X7974900Y-11832883I0J27217D01*
G01*
X7974900Y-11762117D01*
G75*
G02*
X8002117Y-11734900I27217J0D01*
G01*
X8097883Y-11734900D01*
G75*
G02*
X8125100Y-11762117I0J-27217D01*
G01*
X8125100Y-11832883D01*
G75*
G02*
X8097883Y-11860100I-27217J0D01*
G01*
G37*
G36*
G01*
X8098868Y-12260100D02*
X8003102Y-12260100D01*
G75*
G02*
X7975885Y-12232883I0J27217D01*
G01*
X7975885Y-12162117D01*
G75*
G02*
X8003102Y-12134900I27217J0D01*
G01*
X8098868Y-12134900D01*
G75*
G02*
X8126085Y-12162117I0J-27217D01*
G01*
X8126085Y-12232883D01*
G75*
G02*
X8098868Y-12260100I-27217J0D01*
G01*
G37*
G36*
G01*
X8098868Y-12465100D02*
X8003102Y-12465100D01*
G75*
G02*
X7975885Y-12437883I0J27217D01*
G01*
X7975885Y-12367117D01*
G75*
G02*
X8003102Y-12339900I27217J0D01*
G01*
X8098868Y-12339900D01*
G75*
G02*
X8126085Y-12367117I0J-27217D01*
G01*
X8126085Y-12437883D01*
G75*
G02*
X8098868Y-12465100I-27217J0D01*
G01*
G37*
G36*
G01*
X12892117Y-13909900D02*
X12987883Y-13909900D01*
G75*
G02*
X13015100Y-13937117I0J-27217D01*
G01*
X13015100Y-14007883D01*
G75*
G02*
X12987883Y-14035100I-27217J0D01*
G01*
X12892117Y-14035100D01*
G75*
G02*
X12864900Y-14007883I0J27217D01*
G01*
X12864900Y-13937117D01*
G75*
G02*
X12892117Y-13909900I27217J0D01*
G01*
G37*
G36*
G01*
X12892117Y-14114900D02*
X12987883Y-14114900D01*
G75*
G02*
X13015100Y-14142117I0J-27217D01*
G01*
X13015100Y-14212883D01*
G75*
G02*
X12987883Y-14240100I-27217J0D01*
G01*
X12892117Y-14240100D01*
G75*
G02*
X12864900Y-14212883I0J27217D01*
G01*
X12864900Y-14142117D01*
G75*
G02*
X12892117Y-14114900I27217J0D01*
G01*
G37*
G36*
G01*
X13622883Y-14235100D02*
X13527117Y-14235100D01*
G75*
G02*
X13499900Y-14207883I0J27217D01*
G01*
X13499900Y-14137117D01*
G75*
G02*
X13527117Y-14109900I27217J0D01*
G01*
X13622883Y-14109900D01*
G75*
G02*
X13650100Y-14137117I0J-27217D01*
G01*
X13650100Y-14207883D01*
G75*
G02*
X13622883Y-14235100I-27217J0D01*
G01*
G37*
G36*
G01*
X13622883Y-14030100D02*
X13527117Y-14030100D01*
G75*
G02*
X13499900Y-14002883I0J27217D01*
G01*
X13499900Y-13932117D01*
G75*
G02*
X13527117Y-13904900I27217J0D01*
G01*
X13622883Y-13904900D01*
G75*
G02*
X13650100Y-13932117I0J-27217D01*
G01*
X13650100Y-14002883D01*
G75*
G02*
X13622883Y-14030100I-27217J0D01*
G01*
G37*
G36*
G01*
X14018800Y-16767917D02*
X14018800Y-16863683D01*
G75*
G02*
X13991583Y-16890900I-27217J0D01*
G01*
X13920817Y-16890900D01*
G75*
G02*
X13893600Y-16863683I0J27217D01*
G01*
X13893600Y-16767917D01*
G75*
G02*
X13920817Y-16740700I27217J0D01*
G01*
X13991583Y-16740700D01*
G75*
G02*
X14018800Y-16767917I0J-27217D01*
G01*
G37*
G36*
G01*
X13813800Y-16767917D02*
X13813800Y-16863683D01*
G75*
G02*
X13786583Y-16890900I-27217J0D01*
G01*
X13715817Y-16890900D01*
G75*
G02*
X13688600Y-16863683I0J27217D01*
G01*
X13688600Y-16767917D01*
G75*
G02*
X13715817Y-16740700I27217J0D01*
G01*
X13786583Y-16740700D01*
G75*
G02*
X13813800Y-16767917I0J-27217D01*
G01*
G37*
G36*
G01*
X14849900Y-15787500D02*
X14849900Y-15732500D01*
G75*
G02*
X14855000Y-15727400I5100J0D01*
G01*
X15015000Y-15727400D01*
G75*
G02*
X15020100Y-15732500I0J-5100D01*
G01*
X15020100Y-15787500D01*
G75*
G02*
X15015000Y-15792600I-5100J0D01*
G01*
X14855000Y-15792600D01*
G75*
G02*
X14849900Y-15787500I0J5100D01*
G01*
G37*
G36*
G01*
X14849900Y-15867500D02*
X14849900Y-15812500D01*
G75*
G02*
X14855000Y-15807400I5100J0D01*
G01*
X15015000Y-15807400D01*
G75*
G02*
X15020100Y-15812500I0J-5100D01*
G01*
X15020100Y-15867500D01*
G75*
G02*
X15015000Y-15872600I-5100J0D01*
G01*
X14855000Y-15872600D01*
G75*
G02*
X14849900Y-15867500I0J5100D01*
G01*
G37*
G36*
G01*
X14849900Y-15947500D02*
X14849900Y-15892500D01*
G75*
G02*
X14855000Y-15887400I5100J0D01*
G01*
X15015000Y-15887400D01*
G75*
G02*
X15020100Y-15892500I0J-5100D01*
G01*
X15020100Y-15947500D01*
G75*
G02*
X15015000Y-15952600I-5100J0D01*
G01*
X14855000Y-15952600D01*
G75*
G02*
X14849900Y-15947500I0J5100D01*
G01*
G37*
G36*
G01*
X14849900Y-16027500D02*
X14849900Y-15972500D01*
G75*
G02*
X14855000Y-15967400I5100J0D01*
G01*
X15015000Y-15967400D01*
G75*
G02*
X15020100Y-15972500I0J-5100D01*
G01*
X15020100Y-16027500D01*
G75*
G02*
X15015000Y-16032600I-5100J0D01*
G01*
X14855000Y-16032600D01*
G75*
G02*
X14849900Y-16027500I0J5100D01*
G01*
G37*
G36*
G01*
X14849900Y-16107500D02*
X14849900Y-16052500D01*
G75*
G02*
X14855000Y-16047400I5100J0D01*
G01*
X15015000Y-16047400D01*
G75*
G02*
X15020100Y-16052500I0J-5100D01*
G01*
X15020100Y-16107500D01*
G75*
G02*
X15015000Y-16112600I-5100J0D01*
G01*
X14855000Y-16112600D01*
G75*
G02*
X14849900Y-16107500I0J5100D01*
G01*
G37*
G36*
G01*
X14849900Y-16187500D02*
X14849900Y-16132500D01*
G75*
G02*
X14855000Y-16127400I5100J0D01*
G01*
X15015000Y-16127400D01*
G75*
G02*
X15020100Y-16132500I0J-5100D01*
G01*
X15020100Y-16187500D01*
G75*
G02*
X15015000Y-16192600I-5100J0D01*
G01*
X14855000Y-16192600D01*
G75*
G02*
X14849900Y-16187500I0J5100D01*
G01*
G37*
G36*
G01*
X14849900Y-16267500D02*
X14849900Y-16212500D01*
G75*
G02*
X14855000Y-16207400I5100J0D01*
G01*
X15015000Y-16207400D01*
G75*
G02*
X15020100Y-16212500I0J-5100D01*
G01*
X15020100Y-16267500D01*
G75*
G02*
X15015000Y-16272600I-5100J0D01*
G01*
X14855000Y-16272600D01*
G75*
G02*
X14849900Y-16267500I0J5100D01*
G01*
G37*
G36*
G01*
X14849900Y-16347500D02*
X14849900Y-16292500D01*
G75*
G02*
X14855000Y-16287400I5100J0D01*
G01*
X15015000Y-16287400D01*
G75*
G02*
X15020100Y-16292500I0J-5100D01*
G01*
X15020100Y-16347500D01*
G75*
G02*
X15015000Y-16352600I-5100J0D01*
G01*
X14855000Y-16352600D01*
G75*
G02*
X14849900Y-16347500I0J5100D01*
G01*
G37*
G36*
G01*
X15107500Y-16550100D02*
X15052500Y-16550100D01*
G75*
G02*
X15047400Y-16545000I0J5100D01*
G01*
X15047400Y-16385000D01*
G75*
G02*
X15052500Y-16379900I5100J0D01*
G01*
X15107500Y-16379900D01*
G75*
G02*
X15112600Y-16385000I0J-5100D01*
G01*
X15112600Y-16545000D01*
G75*
G02*
X15107500Y-16550100I-5100J0D01*
G01*
G37*
G36*
G01*
X15187500Y-16550100D02*
X15132500Y-16550100D01*
G75*
G02*
X15127400Y-16545000I0J5100D01*
G01*
X15127400Y-16385000D01*
G75*
G02*
X15132500Y-16379900I5100J0D01*
G01*
X15187500Y-16379900D01*
G75*
G02*
X15192600Y-16385000I0J-5100D01*
G01*
X15192600Y-16545000D01*
G75*
G02*
X15187500Y-16550100I-5100J0D01*
G01*
G37*
G36*
G01*
X15267500Y-16550100D02*
X15212500Y-16550100D01*
G75*
G02*
X15207400Y-16545000I0J5100D01*
G01*
X15207400Y-16385000D01*
G75*
G02*
X15212500Y-16379900I5100J0D01*
G01*
X15267500Y-16379900D01*
G75*
G02*
X15272600Y-16385000I0J-5100D01*
G01*
X15272600Y-16545000D01*
G75*
G02*
X15267500Y-16550100I-5100J0D01*
G01*
G37*
G36*
G01*
X15347500Y-16550100D02*
X15292500Y-16550100D01*
G75*
G02*
X15287400Y-16545000I0J5100D01*
G01*
X15287400Y-16385000D01*
G75*
G02*
X15292500Y-16379900I5100J0D01*
G01*
X15347500Y-16379900D01*
G75*
G02*
X15352600Y-16385000I0J-5100D01*
G01*
X15352600Y-16545000D01*
G75*
G02*
X15347500Y-16550100I-5100J0D01*
G01*
G37*
G36*
G01*
X15427500Y-16550100D02*
X15372500Y-16550100D01*
G75*
G02*
X15367400Y-16545000I0J5100D01*
G01*
X15367400Y-16385000D01*
G75*
G02*
X15372500Y-16379900I5100J0D01*
G01*
X15427500Y-16379900D01*
G75*
G02*
X15432600Y-16385000I0J-5100D01*
G01*
X15432600Y-16545000D01*
G75*
G02*
X15427500Y-16550100I-5100J0D01*
G01*
G37*
G36*
G01*
X15507500Y-16550100D02*
X15452500Y-16550100D01*
G75*
G02*
X15447400Y-16545000I0J5100D01*
G01*
X15447400Y-16385000D01*
G75*
G02*
X15452500Y-16379900I5100J0D01*
G01*
X15507500Y-16379900D01*
G75*
G02*
X15512600Y-16385000I0J-5100D01*
G01*
X15512600Y-16545000D01*
G75*
G02*
X15507500Y-16550100I-5100J0D01*
G01*
G37*
G36*
G01*
X15587500Y-16550100D02*
X15532500Y-16550100D01*
G75*
G02*
X15527400Y-16545000I0J5100D01*
G01*
X15527400Y-16385000D01*
G75*
G02*
X15532500Y-16379900I5100J0D01*
G01*
X15587500Y-16379900D01*
G75*
G02*
X15592600Y-16385000I0J-5100D01*
G01*
X15592600Y-16545000D01*
G75*
G02*
X15587500Y-16550100I-5100J0D01*
G01*
G37*
G36*
G01*
X15667500Y-16550100D02*
X15612500Y-16550100D01*
G75*
G02*
X15607400Y-16545000I0J5100D01*
G01*
X15607400Y-16385000D01*
G75*
G02*
X15612500Y-16379900I5100J0D01*
G01*
X15667500Y-16379900D01*
G75*
G02*
X15672600Y-16385000I0J-5100D01*
G01*
X15672600Y-16545000D01*
G75*
G02*
X15667500Y-16550100I-5100J0D01*
G01*
G37*
G36*
G01*
X15699900Y-16347500D02*
X15699900Y-16292500D01*
G75*
G02*
X15705000Y-16287400I5100J0D01*
G01*
X15865000Y-16287400D01*
G75*
G02*
X15870100Y-16292500I0J-5100D01*
G01*
X15870100Y-16347500D01*
G75*
G02*
X15865000Y-16352600I-5100J0D01*
G01*
X15705000Y-16352600D01*
G75*
G02*
X15699900Y-16347500I0J5100D01*
G01*
G37*
G36*
G01*
X15699900Y-16267500D02*
X15699900Y-16212500D01*
G75*
G02*
X15705000Y-16207400I5100J0D01*
G01*
X15865000Y-16207400D01*
G75*
G02*
X15870100Y-16212500I0J-5100D01*
G01*
X15870100Y-16267500D01*
G75*
G02*
X15865000Y-16272600I-5100J0D01*
G01*
X15705000Y-16272600D01*
G75*
G02*
X15699900Y-16267500I0J5100D01*
G01*
G37*
G36*
G01*
X15699900Y-16187500D02*
X15699900Y-16132500D01*
G75*
G02*
X15705000Y-16127400I5100J0D01*
G01*
X15865000Y-16127400D01*
G75*
G02*
X15870100Y-16132500I0J-5100D01*
G01*
X15870100Y-16187500D01*
G75*
G02*
X15865000Y-16192600I-5100J0D01*
G01*
X15705000Y-16192600D01*
G75*
G02*
X15699900Y-16187500I0J5100D01*
G01*
G37*
G36*
G01*
X15699900Y-16107500D02*
X15699900Y-16052500D01*
G75*
G02*
X15705000Y-16047400I5100J0D01*
G01*
X15865000Y-16047400D01*
G75*
G02*
X15870100Y-16052500I0J-5100D01*
G01*
X15870100Y-16107500D01*
G75*
G02*
X15865000Y-16112600I-5100J0D01*
G01*
X15705000Y-16112600D01*
G75*
G02*
X15699900Y-16107500I0J5100D01*
G01*
G37*
G36*
G01*
X15699900Y-16027500D02*
X15699900Y-15972500D01*
G75*
G02*
X15705000Y-15967400I5100J0D01*
G01*
X15865000Y-15967400D01*
G75*
G02*
X15870100Y-15972500I0J-5100D01*
G01*
X15870100Y-16027500D01*
G75*
G02*
X15865000Y-16032600I-5100J0D01*
G01*
X15705000Y-16032600D01*
G75*
G02*
X15699900Y-16027500I0J5100D01*
G01*
G37*
G36*
G01*
X15699900Y-15947500D02*
X15699900Y-15892500D01*
G75*
G02*
X15705000Y-15887400I5100J0D01*
G01*
X15865000Y-15887400D01*
G75*
G02*
X15870100Y-15892500I0J-5100D01*
G01*
X15870100Y-15947500D01*
G75*
G02*
X15865000Y-15952600I-5100J0D01*
G01*
X15705000Y-15952600D01*
G75*
G02*
X15699900Y-15947500I0J5100D01*
G01*
G37*
G36*
G01*
X15699900Y-15867500D02*
X15699900Y-15812500D01*
G75*
G02*
X15705000Y-15807400I5100J0D01*
G01*
X15865000Y-15807400D01*
G75*
G02*
X15870100Y-15812500I0J-5100D01*
G01*
X15870100Y-15867500D01*
G75*
G02*
X15865000Y-15872600I-5100J0D01*
G01*
X15705000Y-15872600D01*
G75*
G02*
X15699900Y-15867500I0J5100D01*
G01*
G37*
G36*
G01*
X15699900Y-15787500D02*
X15699900Y-15732500D01*
G75*
G02*
X15705000Y-15727400I5100J0D01*
G01*
X15865000Y-15727400D01*
G75*
G02*
X15870100Y-15732500I0J-5100D01*
G01*
X15870100Y-15787500D01*
G75*
G02*
X15865000Y-15792600I-5100J0D01*
G01*
X15705000Y-15792600D01*
G75*
G02*
X15699900Y-15787500I0J5100D01*
G01*
G37*
G36*
G01*
X15667500Y-15700100D02*
X15612500Y-15700100D01*
G75*
G02*
X15607400Y-15695000I0J5100D01*
G01*
X15607400Y-15535000D01*
G75*
G02*
X15612500Y-15529900I5100J0D01*
G01*
X15667500Y-15529900D01*
G75*
G02*
X15672600Y-15535000I0J-5100D01*
G01*
X15672600Y-15695000D01*
G75*
G02*
X15667500Y-15700100I-5100J0D01*
G01*
G37*
G36*
G01*
X15587500Y-15700100D02*
X15532500Y-15700100D01*
G75*
G02*
X15527400Y-15695000I0J5100D01*
G01*
X15527400Y-15535000D01*
G75*
G02*
X15532500Y-15529900I5100J0D01*
G01*
X15587500Y-15529900D01*
G75*
G02*
X15592600Y-15535000I0J-5100D01*
G01*
X15592600Y-15695000D01*
G75*
G02*
X15587500Y-15700100I-5100J0D01*
G01*
G37*
G36*
G01*
X15507500Y-15700100D02*
X15452500Y-15700100D01*
G75*
G02*
X15447400Y-15695000I0J5100D01*
G01*
X15447400Y-15535000D01*
G75*
G02*
X15452500Y-15529900I5100J0D01*
G01*
X15507500Y-15529900D01*
G75*
G02*
X15512600Y-15535000I0J-5100D01*
G01*
X15512600Y-15695000D01*
G75*
G02*
X15507500Y-15700100I-5100J0D01*
G01*
G37*
G36*
G01*
X15427500Y-15700100D02*
X15372500Y-15700100D01*
G75*
G02*
X15367400Y-15695000I0J5100D01*
G01*
X15367400Y-15535000D01*
G75*
G02*
X15372500Y-15529900I5100J0D01*
G01*
X15427500Y-15529900D01*
G75*
G02*
X15432600Y-15535000I0J-5100D01*
G01*
X15432600Y-15695000D01*
G75*
G02*
X15427500Y-15700100I-5100J0D01*
G01*
G37*
G36*
G01*
X15347500Y-15700100D02*
X15292500Y-15700100D01*
G75*
G02*
X15287400Y-15695000I0J5100D01*
G01*
X15287400Y-15535000D01*
G75*
G02*
X15292500Y-15529900I5100J0D01*
G01*
X15347500Y-15529900D01*
G75*
G02*
X15352600Y-15535000I0J-5100D01*
G01*
X15352600Y-15695000D01*
G75*
G02*
X15347500Y-15700100I-5100J0D01*
G01*
G37*
G36*
G01*
X15267500Y-15700100D02*
X15212500Y-15700100D01*
G75*
G02*
X15207400Y-15695000I0J5100D01*
G01*
X15207400Y-15535000D01*
G75*
G02*
X15212500Y-15529900I5100J0D01*
G01*
X15267500Y-15529900D01*
G75*
G02*
X15272600Y-15535000I0J-5100D01*
G01*
X15272600Y-15695000D01*
G75*
G02*
X15267500Y-15700100I-5100J0D01*
G01*
G37*
G36*
G01*
X15187500Y-15700100D02*
X15132500Y-15700100D01*
G75*
G02*
X15127400Y-15695000I0J5100D01*
G01*
X15127400Y-15535000D01*
G75*
G02*
X15132500Y-15529900I5100J0D01*
G01*
X15187500Y-15529900D01*
G75*
G02*
X15192600Y-15535000I0J-5100D01*
G01*
X15192600Y-15695000D01*
G75*
G02*
X15187500Y-15700100I-5100J0D01*
G01*
G37*
G36*
G01*
X15107500Y-15700100D02*
X15052500Y-15700100D01*
G75*
G02*
X15047400Y-15695000I0J5100D01*
G01*
X15047400Y-15535000D01*
G75*
G02*
X15052500Y-15529900I5100J0D01*
G01*
X15107500Y-15529900D01*
G75*
G02*
X15112600Y-15535000I0J-5100D01*
G01*
X15112600Y-15695000D01*
G75*
G02*
X15107500Y-15700100I-5100J0D01*
G01*
G37*
G36*
G01*
X13227500Y-14186100D02*
X13132500Y-14186100D01*
G75*
G02*
X13127400Y-14181000I0J5100D01*
G01*
X13127400Y-14084000D01*
G75*
G02*
X13132500Y-14078900I5100J0D01*
G01*
X13227500Y-14078900D01*
G75*
G02*
X13232600Y-14084000I0J-5100D01*
G01*
X13232600Y-14181000D01*
G75*
G02*
X13227500Y-14186100I-5100J0D01*
G01*
G37*
G36*
G01*
X13377500Y-14186100D02*
X13262500Y-14186100D01*
G75*
G02*
X13257400Y-14181000I0J5100D01*
G01*
X13257400Y-14084000D01*
G75*
G02*
X13262500Y-14078900I5100J0D01*
G01*
X13377500Y-14078900D01*
G75*
G02*
X13382600Y-14084000I0J-5100D01*
G01*
X13382600Y-14181000D01*
G75*
G02*
X13377500Y-14186100I-5100J0D01*
G01*
G37*
G36*
G01*
X13132500Y-13964900D02*
X13227500Y-13964900D01*
G75*
G02*
X13232600Y-13970000I0J-5100D01*
G01*
X13232600Y-14055000D01*
G75*
G02*
X13227500Y-14060100I-5100J0D01*
G01*
X13132500Y-14060100D01*
G75*
G02*
X13127400Y-14055000I0J5100D01*
G01*
X13127400Y-13970000D01*
G75*
G02*
X13132500Y-13964900I5100J0D01*
G01*
G37*
G36*
G01*
X13377500Y-14060100D02*
X13262500Y-14060100D01*
G75*
G02*
X13257400Y-14055000I0J5100D01*
G01*
X13257400Y-13970000D01*
G75*
G02*
X13262500Y-13964900I5100J0D01*
G01*
X13377500Y-13964900D01*
G75*
G02*
X13382600Y-13970000I0J-5100D01*
G01*
X13382600Y-14055000D01*
G75*
G02*
X13377500Y-14060100I-5100J0D01*
G01*
G37*
G36*
G01*
X14668300Y-16454900D02*
X14478300Y-16454900D01*
G75*
G02*
X14473200Y-16449800I0J5100D01*
G01*
X14473200Y-16409800D01*
G75*
G02*
X14478300Y-16404700I5100J0D01*
G01*
X14668300Y-16404700D01*
G75*
G02*
X14673400Y-16409800I0J-5100D01*
G01*
X14673400Y-16449800D01*
G75*
G02*
X14668300Y-16454900I-5100J0D01*
G01*
G37*
G36*
G01*
X14668300Y-16334900D02*
X14478300Y-16334900D01*
G75*
G02*
X14473200Y-16329800I0J5100D01*
G01*
X14473200Y-16289800D01*
G75*
G02*
X14478300Y-16284700I5100J0D01*
G01*
X14668300Y-16284700D01*
G75*
G02*
X14673400Y-16289800I0J-5100D01*
G01*
X14673400Y-16329800D01*
G75*
G02*
X14668300Y-16334900I-5100J0D01*
G01*
G37*
G36*
G01*
X14668300Y-16214900D02*
X14478300Y-16214900D01*
G75*
G02*
X14473200Y-16209800I0J5100D01*
G01*
X14473200Y-16169800D01*
G75*
G02*
X14478300Y-16164700I5100J0D01*
G01*
X14668300Y-16164700D01*
G75*
G02*
X14673400Y-16169800I0J-5100D01*
G01*
X14673400Y-16209800D01*
G75*
G02*
X14668300Y-16214900I-5100J0D01*
G01*
G37*
G36*
G01*
X18373400Y-13750000D02*
X18373400Y-12750000D01*
G75*
G02*
X18378500Y-12744900I5100J0D01*
G01*
X18578500Y-12744900D01*
G75*
G02*
X18583600Y-12750000I0J-5100D01*
G01*
X18583600Y-13750000D01*
G75*
G02*
X18578500Y-13755100I-5100J0D01*
G01*
X18378500Y-13755100D01*
G75*
G02*
X18373400Y-13750000I0J5100D01*
G01*
G37*
G36*
G01*
X18627400Y-13750000D02*
X18627400Y-12750000D01*
G75*
G02*
X18632500Y-12744900I5100J0D01*
G01*
X18832500Y-12744900D01*
G75*
G02*
X18837600Y-12750000I0J-5100D01*
G01*
X18837600Y-13750000D01*
G75*
G02*
X18832500Y-13755100I-5100J0D01*
G01*
X18632500Y-13755100D01*
G75*
G02*
X18627400Y-13750000I0J5100D01*
G01*
G37*
G36*
G01*
X18881400Y-13750000D02*
X18881400Y-12750000D01*
G75*
G02*
X18886500Y-12744900I5100J0D01*
G01*
X19086500Y-12744900D01*
G75*
G02*
X19091600Y-12750000I0J-5100D01*
G01*
X19091600Y-13750000D01*
G75*
G02*
X19086500Y-13755100I-5100J0D01*
G01*
X18886500Y-13755100D01*
G75*
G02*
X18881400Y-13750000I0J5100D01*
G01*
G37*
G36*
G01*
X19135400Y-13750000D02*
X19135400Y-12750000D01*
G75*
G02*
X19140500Y-12744900I5100J0D01*
G01*
X19340500Y-12744900D01*
G75*
G02*
X19345600Y-12750000I0J-5100D01*
G01*
X19345600Y-13750000D01*
G75*
G02*
X19340500Y-13755100I-5100J0D01*
G01*
X19140500Y-13755100D01*
G75*
G02*
X19135400Y-13750000I0J5100D01*
G01*
G37*
G36*
G01*
X14294800Y-17018600D02*
X14464800Y-17018600D01*
G75*
G02*
X14469900Y-17023700I0J-5100D01*
G01*
X14469900Y-17193700D01*
G75*
G02*
X14464800Y-17198800I-5100J0D01*
G01*
X14294800Y-17198800D01*
G75*
G02*
X14289700Y-17193700I0J5100D01*
G01*
X14289700Y-17023700D01*
G75*
G02*
X14294800Y-17018600I5100J0D01*
G01*
G37*
X14125800Y-17108700D03*
X13871800Y-17108700D03*
X13617800Y-17108700D03*
X13363800Y-17108700D03*
X13109800Y-17108700D03*
G36*
G01*
X8998563Y-10360518D02*
X9069274Y-10431229D01*
G75*
G02*
X9069274Y-10438441I-3606J-3606D01*
G01*
X8959672Y-10548043D01*
G75*
G02*
X8952460Y-10548043I-3606J3606D01*
G01*
X8881749Y-10477332D01*
G75*
G02*
X8881749Y-10470120I3606J3606D01*
G01*
X8991351Y-10360518D01*
G75*
G02*
X8998563Y-10360518I3606J-3606D01*
G01*
G37*
G36*
G01*
X8627332Y-10731749D02*
X8698043Y-10802460D01*
G75*
G02*
X8698043Y-10809672I-3606J-3606D01*
G01*
X8588441Y-10919274D01*
G75*
G02*
X8581229Y-10919274I-3606J3606D01*
G01*
X8510518Y-10848563D01*
G75*
G02*
X8510518Y-10841351I3606J3606D01*
G01*
X8620120Y-10731749D01*
G75*
G02*
X8627332Y-10731749I3606J-3606D01*
G01*
G37*
G36*
G01*
X8747540Y-10851957D02*
X8818251Y-10922668D01*
G75*
G02*
X8818251Y-10929880I-3606J-3606D01*
G01*
X8708649Y-11039482D01*
G75*
G02*
X8701437Y-11039482I-3606J3606D01*
G01*
X8630726Y-10968771D01*
G75*
G02*
X8630726Y-10961559I3606J3606D01*
G01*
X8740328Y-10851957D01*
G75*
G02*
X8747540Y-10851957I3606J-3606D01*
G01*
G37*
G36*
G01*
X9118771Y-10480726D02*
X9189482Y-10551437D01*
G75*
G02*
X9189482Y-10558649I-3606J-3606D01*
G01*
X9079880Y-10668251D01*
G75*
G02*
X9072668Y-10668251I-3606J3606D01*
G01*
X9001957Y-10597540D01*
G75*
G02*
X9001957Y-10590328I3606J3606D01*
G01*
X9111559Y-10480726D01*
G75*
G02*
X9118771Y-10480726I3606J-3606D01*
G01*
G37*
G36*
G01*
X13806275Y-16161600D02*
X13709925Y-16161600D01*
G75*
G02*
X13683000Y-16134675I0J26925D01*
G01*
X13683000Y-16080825D01*
G75*
G02*
X13709925Y-16053900I26925J0D01*
G01*
X13806275Y-16053900D01*
G75*
G02*
X13833200Y-16080825I0J-26925D01*
G01*
X13833200Y-16134675D01*
G75*
G02*
X13806275Y-16161600I-26925J0D01*
G01*
G37*
G36*
G01*
X13806275Y-15974100D02*
X13709925Y-15974100D01*
G75*
G02*
X13683000Y-15947175I0J26925D01*
G01*
X13683000Y-15893325D01*
G75*
G02*
X13709925Y-15866400I26925J0D01*
G01*
X13806275Y-15866400D01*
G75*
G02*
X13833200Y-15893325I0J-26925D01*
G01*
X13833200Y-15947175D01*
G75*
G02*
X13806275Y-15974100I-26925J0D01*
G01*
G37*
G36*
G01*
X13455925Y-16053900D02*
X13552275Y-16053900D01*
G75*
G02*
X13579200Y-16080825I0J-26925D01*
G01*
X13579200Y-16134675D01*
G75*
G02*
X13552275Y-16161600I-26925J0D01*
G01*
X13455925Y-16161600D01*
G75*
G02*
X13429000Y-16134675I0J26925D01*
G01*
X13429000Y-16080825D01*
G75*
G02*
X13455925Y-16053900I26925J0D01*
G01*
G37*
G36*
G01*
X13455925Y-15866400D02*
X13552275Y-15866400D01*
G75*
G02*
X13579200Y-15893325I0J-26925D01*
G01*
X13579200Y-15947175D01*
G75*
G02*
X13552275Y-15974100I-26925J0D01*
G01*
X13455925Y-15974100D01*
G75*
G02*
X13429000Y-15947175I0J26925D01*
G01*
X13429000Y-15893325D01*
G75*
G02*
X13455925Y-15866400I26925J0D01*
G01*
G37*
D12*
G36*
X12884005Y-16390002D02*
G01*
X12883048Y-16389712D01*
X12882167Y-16389240D01*
X12881394Y-16388606D01*
X12880759Y-16387833D01*
X12880288Y-16386952D01*
X12879998Y-16385995D01*
X12879900Y-16385000D01*
X12879900Y-16235000D01*
X12879998Y-16234005D01*
X12880288Y-16233048D01*
X12880759Y-16232167D01*
X12881394Y-16231394D01*
X12882167Y-16230759D01*
X12883048Y-16230288D01*
X12884005Y-16229998D01*
X12885000Y-16229900D01*
X12935000Y-16229900D01*
X12935611Y-16229960D01*
X12937453Y-16229960D01*
X12937953Y-16229985D01*
X12942836Y-16230466D01*
X12943331Y-16230539D01*
X12948144Y-16231496D01*
X12948629Y-16231618D01*
X12953325Y-16233042D01*
X12953796Y-16233211D01*
X12958329Y-16235089D01*
X12958782Y-16235303D01*
X12963109Y-16237616D01*
X12963538Y-16237873D01*
X12967618Y-16240599D01*
X12968020Y-16240897D01*
X12971813Y-16244010D01*
X12972184Y-16244346D01*
X12975654Y-16247816D01*
X12975990Y-16248187D01*
X12979103Y-16251980D01*
X12979401Y-16252382D01*
X12982127Y-16256462D01*
X12982384Y-16256891D01*
X12984697Y-16261218D01*
X12984911Y-16261671D01*
X12986789Y-16266204D01*
X12986958Y-16266675D01*
X12988382Y-16271370D01*
X12988504Y-16271856D01*
X12989461Y-16276669D01*
X12989534Y-16277164D01*
X12990015Y-16282047D01*
X12990040Y-16282547D01*
X12990040Y-16284389D01*
X12990100Y-16285000D01*
X12990100Y-16335000D01*
X12990040Y-16335611D01*
X12990040Y-16337453D01*
X12990015Y-16337953D01*
X12989534Y-16342836D01*
X12989461Y-16343331D01*
X12988504Y-16348144D01*
X12988382Y-16348629D01*
X12986958Y-16353325D01*
X12986789Y-16353796D01*
X12984911Y-16358329D01*
X12984697Y-16358782D01*
X12982384Y-16363109D01*
X12982127Y-16363538D01*
X12979401Y-16367618D01*
X12979103Y-16368020D01*
X12975990Y-16371813D01*
X12975654Y-16372184D01*
X12972184Y-16375654D01*
X12971813Y-16375990D01*
X12968020Y-16379103D01*
X12967618Y-16379401D01*
X12963538Y-16382127D01*
X12963109Y-16382384D01*
X12958782Y-16384697D01*
X12958329Y-16384911D01*
X12953796Y-16386789D01*
X12953325Y-16386958D01*
X12948629Y-16388382D01*
X12948144Y-16388504D01*
X12943331Y-16389461D01*
X12942836Y-16389534D01*
X12937953Y-16390015D01*
X12937453Y-16390040D01*
X12935611Y-16390040D01*
X12935000Y-16390100D01*
X12885000Y-16390100D01*
X12884005Y-16390002D01*
G37*
G36*
X12804389Y-16390040D02*
G01*
X12802547Y-16390040D01*
X12802047Y-16390015D01*
X12797164Y-16389534D01*
X12796669Y-16389461D01*
X12791856Y-16388504D01*
X12791370Y-16388382D01*
X12786675Y-16386958D01*
X12786204Y-16386789D01*
X12781671Y-16384911D01*
X12781218Y-16384697D01*
X12776891Y-16382384D01*
X12776462Y-16382127D01*
X12772382Y-16379401D01*
X12771980Y-16379103D01*
X12768187Y-16375990D01*
X12767816Y-16375654D01*
X12764346Y-16372184D01*
X12764010Y-16371813D01*
X12760897Y-16368020D01*
X12760599Y-16367618D01*
X12757873Y-16363538D01*
X12757616Y-16363109D01*
X12755303Y-16358782D01*
X12755089Y-16358329D01*
X12753211Y-16353796D01*
X12753042Y-16353325D01*
X12751618Y-16348629D01*
X12751496Y-16348144D01*
X12750539Y-16343331D01*
X12750466Y-16342836D01*
X12749985Y-16337953D01*
X12749960Y-16337453D01*
X12749960Y-16335611D01*
X12749900Y-16335000D01*
X12749900Y-16285000D01*
X12749960Y-16284389D01*
X12749960Y-16282547D01*
X12749985Y-16282047D01*
X12750466Y-16277164D01*
X12750539Y-16276669D01*
X12751496Y-16271856D01*
X12751618Y-16271370D01*
X12753042Y-16266675D01*
X12753211Y-16266204D01*
X12755089Y-16261671D01*
X12755303Y-16261218D01*
X12757616Y-16256891D01*
X12757873Y-16256462D01*
X12760599Y-16252382D01*
X12760897Y-16251980D01*
X12764010Y-16248187D01*
X12764346Y-16247816D01*
X12767816Y-16244346D01*
X12768187Y-16244010D01*
X12771980Y-16240897D01*
X12772382Y-16240599D01*
X12776462Y-16237873D01*
X12776891Y-16237616D01*
X12781218Y-16235303D01*
X12781671Y-16235089D01*
X12786204Y-16233211D01*
X12786675Y-16233042D01*
X12791370Y-16231618D01*
X12791856Y-16231496D01*
X12796669Y-16230539D01*
X12797164Y-16230466D01*
X12802047Y-16229985D01*
X12802547Y-16229960D01*
X12804389Y-16229960D01*
X12805000Y-16229900D01*
X12855000Y-16229900D01*
X12855995Y-16229998D01*
X12856952Y-16230288D01*
X12857833Y-16230759D01*
X12858606Y-16231394D01*
X12859240Y-16232167D01*
X12859712Y-16233048D01*
X12860002Y-16234005D01*
X12860100Y-16235000D01*
X12860100Y-16385000D01*
X12860002Y-16385995D01*
X12859712Y-16386952D01*
X12859240Y-16387833D01*
X12858606Y-16388606D01*
X12857833Y-16389240D01*
X12856952Y-16389712D01*
X12855995Y-16390002D01*
X12855000Y-16390100D01*
X12805000Y-16390100D01*
X12804389Y-16390040D01*
G37*
G36*
G01*
X13265000Y-15459900D02*
X13435000Y-15459900D01*
G75*
G02*
X13440100Y-15465000I0J-5100D01*
G01*
X13440100Y-15635000D01*
G75*
G02*
X13435000Y-15640100I-5100J0D01*
G01*
X13265000Y-15640100D01*
G75*
G02*
X13259900Y-15635000I0J5100D01*
G01*
X13259900Y-15465000D01*
G75*
G02*
X13265000Y-15459900I5100J0D01*
G01*
G37*
D11*
X13096000Y-15550000D03*
G36*
G01*
X13187200Y-15888900D02*
X13212200Y-15888900D01*
G75*
G02*
X13217300Y-15894000I0J-5100D01*
G01*
X13217300Y-15944000D01*
G75*
G02*
X13212200Y-15949100I-5100J0D01*
G01*
X13187200Y-15949100D01*
G75*
G02*
X13182100Y-15944000I0J5100D01*
G01*
X13182100Y-15894000D01*
G75*
G02*
X13187200Y-15888900I5100J0D01*
G01*
G37*
G36*
G01*
X13237200Y-16078900D02*
X13262200Y-16078900D01*
G75*
G02*
X13267300Y-16084000I0J-5100D01*
G01*
X13267300Y-16134000D01*
G75*
G02*
X13262200Y-16139100I-5100J0D01*
G01*
X13237200Y-16139100D01*
G75*
G02*
X13232100Y-16134000I0J5100D01*
G01*
X13232100Y-16084000D01*
G75*
G02*
X13237200Y-16078900I5100J0D01*
G01*
G37*
G36*
G01*
X13287200Y-16078900D02*
X13312200Y-16078900D01*
G75*
G02*
X13317300Y-16084000I0J-5100D01*
G01*
X13317300Y-16134000D01*
G75*
G02*
X13312200Y-16139100I-5100J0D01*
G01*
X13287200Y-16139100D01*
G75*
G02*
X13282100Y-16134000I0J5100D01*
G01*
X13282100Y-16084000D01*
G75*
G02*
X13287200Y-16078900I5100J0D01*
G01*
G37*
G36*
G01*
X13144700Y-15963900D02*
X13304700Y-15963900D01*
G75*
G02*
X13309800Y-15969000I0J-5100D01*
G01*
X13309800Y-16059000D01*
G75*
G02*
X13304700Y-16064100I-5100J0D01*
G01*
X13144700Y-16064100D01*
G75*
G02*
X13139600Y-16059000I0J5100D01*
G01*
X13139600Y-15969000D01*
G75*
G02*
X13144700Y-15963900I5100J0D01*
G01*
G37*
G36*
G01*
X13287200Y-15888900D02*
X13312200Y-15888900D01*
G75*
G02*
X13317300Y-15894000I0J-5100D01*
G01*
X13317300Y-15944000D01*
G75*
G02*
X13312200Y-15949100I-5100J0D01*
G01*
X13287200Y-15949100D01*
G75*
G02*
X13282100Y-15944000I0J5100D01*
G01*
X13282100Y-15894000D01*
G75*
G02*
X13287200Y-15888900I5100J0D01*
G01*
G37*
G36*
G01*
X13237200Y-15888900D02*
X13262200Y-15888900D01*
G75*
G02*
X13267300Y-15894000I0J-5100D01*
G01*
X13267300Y-15944000D01*
G75*
G02*
X13262200Y-15949100I-5100J0D01*
G01*
X13237200Y-15949100D01*
G75*
G02*
X13232100Y-15944000I0J5100D01*
G01*
X13232100Y-15894000D01*
G75*
G02*
X13237200Y-15888900I5100J0D01*
G01*
G37*
G36*
G01*
X13137200Y-15888900D02*
X13162200Y-15888900D01*
G75*
G02*
X13167300Y-15894000I0J-5100D01*
G01*
X13167300Y-15944000D01*
G75*
G02*
X13162200Y-15949100I-5100J0D01*
G01*
X13137200Y-15949100D01*
G75*
G02*
X13132100Y-15944000I0J5100D01*
G01*
X13132100Y-15894000D01*
G75*
G02*
X13137200Y-15888900I5100J0D01*
G01*
G37*
G36*
G01*
X13137200Y-16078900D02*
X13162200Y-16078900D01*
G75*
G02*
X13167300Y-16084000I0J-5100D01*
G01*
X13167300Y-16134000D01*
G75*
G02*
X13162200Y-16139100I-5100J0D01*
G01*
X13137200Y-16139100D01*
G75*
G02*
X13132100Y-16134000I0J5100D01*
G01*
X13132100Y-16084000D01*
G75*
G02*
X13137200Y-16078900I5100J0D01*
G01*
G37*
G36*
G01*
X13187200Y-16078900D02*
X13212200Y-16078900D01*
G75*
G02*
X13217300Y-16084000I0J-5100D01*
G01*
X13217300Y-16134000D01*
G75*
G02*
X13212200Y-16139100I-5100J0D01*
G01*
X13187200Y-16139100D01*
G75*
G02*
X13182100Y-16134000I0J5100D01*
G01*
X13182100Y-16084000D01*
G75*
G02*
X13187200Y-16078900I5100J0D01*
G01*
G37*
G36*
G01*
X14624900Y-16975000D02*
X14624900Y-16875000D01*
G75*
G02*
X14630000Y-16869900I5100J0D01*
G01*
X14785000Y-16869900D01*
G75*
G02*
X14790100Y-16875000I0J-5100D01*
G01*
X14790100Y-16975000D01*
G75*
G02*
X14785000Y-16980100I-5100J0D01*
G01*
X14630000Y-16980100D01*
G75*
G02*
X14624900Y-16975000I0J5100D01*
G01*
G37*
G36*
G01*
X15149900Y-16975000D02*
X15149900Y-16875000D01*
G75*
G02*
X15155000Y-16869900I5100J0D01*
G01*
X15310000Y-16869900D01*
G75*
G02*
X15315100Y-16875000I0J-5100D01*
G01*
X15315100Y-16975000D01*
G75*
G02*
X15310000Y-16980100I-5100J0D01*
G01*
X15155000Y-16980100D01*
G75*
G02*
X15149900Y-16975000I0J5100D01*
G01*
G37*
G36*
G01*
X15149900Y-17145000D02*
X15149900Y-17045000D01*
G75*
G02*
X15155000Y-17039900I5100J0D01*
G01*
X15310000Y-17039900D01*
G75*
G02*
X15315100Y-17045000I0J-5100D01*
G01*
X15315100Y-17145000D01*
G75*
G02*
X15310000Y-17150100I-5100J0D01*
G01*
X15155000Y-17150100D01*
G75*
G02*
X15149900Y-17145000I0J5100D01*
G01*
G37*
G36*
G01*
X14624900Y-17145000D02*
X14624900Y-17045000D01*
G75*
G02*
X14630000Y-17039900I5100J0D01*
G01*
X14785000Y-17039900D01*
G75*
G02*
X14790100Y-17045000I0J-5100D01*
G01*
X14790100Y-17145000D01*
G75*
G02*
X14785000Y-17150100I-5100J0D01*
G01*
X14630000Y-17150100D01*
G75*
G02*
X14624900Y-17145000I0J5100D01*
G01*
G37*
G36*
G01*
X9860554Y-12656725D02*
X9733275Y-12529446D01*
G75*
G02*
X9733275Y-12522234I3606J3606D01*
G01*
X9839341Y-12416168D01*
G75*
G02*
X9846553Y-12416168I3606J-3606D01*
G01*
X9973832Y-12543447D01*
G75*
G02*
X9973832Y-12550659I-3606J-3606D01*
G01*
X9867766Y-12656725D01*
G75*
G02*
X9860554Y-12656725I-3606J3606D01*
G01*
G37*
G36*
G01*
X9507000Y-13010279D02*
X9379721Y-12883000D01*
G75*
G02*
X9379721Y-12875787I3606J3606D01*
G01*
X9485787Y-12769721D01*
G75*
G02*
X9493000Y-12769721I3606J-3606D01*
G01*
X9620279Y-12897000D01*
G75*
G02*
X9620279Y-12904213I-3606J-3606D01*
G01*
X9514213Y-13010279D01*
G75*
G02*
X9507000Y-13010279I-3606J3606D01*
G01*
G37*
G36*
G01*
X9683777Y-12833502D02*
X9556498Y-12706223D01*
G75*
G02*
X9556498Y-12699010I3606J3606D01*
G01*
X9662564Y-12592944D01*
G75*
G02*
X9669776Y-12592944I3606J-3606D01*
G01*
X9797056Y-12720224D01*
G75*
G02*
X9797056Y-12727436I-3606J-3606D01*
G01*
X9690990Y-12833502D01*
G75*
G02*
X9683777Y-12833502I-3606J3606D01*
G01*
G37*
D12*
G36*
X15607573Y-16379800D02*
G01*
X15607600Y-16379900D01*
X15607600Y-16550100D01*
X15607500Y-16550273D01*
X15607400Y-16550300D01*
X15592600Y-16550300D01*
X15592427Y-16550200D01*
X15592400Y-16550100D01*
X15592400Y-16380100D01*
X15527600Y-16380100D01*
X15527600Y-16550100D01*
X15527500Y-16550273D01*
X15527400Y-16550300D01*
X15512600Y-16550300D01*
X15512427Y-16550200D01*
X15512400Y-16550100D01*
X15512400Y-16380100D01*
X15447600Y-16380100D01*
X15447600Y-16550100D01*
X15447500Y-16550273D01*
X15447400Y-16550300D01*
X15432600Y-16550300D01*
X15432427Y-16550200D01*
X15432400Y-16550100D01*
X15432400Y-16380100D01*
X15367600Y-16380100D01*
X15367600Y-16550100D01*
X15367500Y-16550273D01*
X15367400Y-16550300D01*
X15352600Y-16550300D01*
X15352427Y-16550200D01*
X15352400Y-16550100D01*
X15352400Y-16380100D01*
X15287600Y-16380100D01*
X15287600Y-16550100D01*
X15287500Y-16550273D01*
X15287400Y-16550300D01*
X15272600Y-16550300D01*
X15272427Y-16550200D01*
X15272400Y-16550100D01*
X15272400Y-16380100D01*
X15207600Y-16380100D01*
X15207600Y-16550100D01*
X15207500Y-16550273D01*
X15207400Y-16550300D01*
X15192600Y-16550300D01*
X15192427Y-16550200D01*
X15192400Y-16550100D01*
X15192400Y-16380100D01*
X15127600Y-16380100D01*
X15127600Y-16550100D01*
X15127500Y-16550273D01*
X15127400Y-16550300D01*
X15112600Y-16550300D01*
X15112427Y-16550200D01*
X15112400Y-16550100D01*
X15112400Y-16379900D01*
X15112500Y-16379727D01*
X15112600Y-16379700D01*
X15607400Y-16379700D01*
X15607573Y-16379800D01*
G37*
G36*
X12859540Y-16232312D02*
G01*
X12859633Y-16232425D01*
X12859645Y-16232441D01*
X12860493Y-16233710D01*
X12862198Y-16235414D01*
X12864202Y-16236754D01*
X12866430Y-16237676D01*
X12868795Y-16238147D01*
X12871205Y-16238147D01*
X12873570Y-16237676D01*
X12875798Y-16236754D01*
X12877802Y-16235414D01*
X12879507Y-16233709D01*
X12880355Y-16232441D01*
X12880367Y-16232425D01*
X12880459Y-16232312D01*
X12880646Y-16232242D01*
X12880801Y-16232369D01*
X12880790Y-16232533D01*
X12880474Y-16233125D01*
X12880195Y-16234044D01*
X12880100Y-16235009D01*
X12880100Y-16384991D01*
X12880195Y-16385955D01*
X12880474Y-16386875D01*
X12880790Y-16387467D01*
X12880784Y-16387667D01*
X12880608Y-16387761D01*
X12880459Y-16387688D01*
X12880367Y-16387575D01*
X12880355Y-16387559D01*
X12879507Y-16386290D01*
X12877802Y-16384586D01*
X12875798Y-16383246D01*
X12873570Y-16382324D01*
X12871205Y-16381853D01*
X12868795Y-16381853D01*
X12866430Y-16382324D01*
X12864202Y-16383246D01*
X12862197Y-16384586D01*
X12860493Y-16386290D01*
X12859645Y-16387559D01*
X12859633Y-16387575D01*
X12859541Y-16387688D01*
X12859353Y-16387758D01*
X12859199Y-16387631D01*
X12859210Y-16387467D01*
X12859526Y-16386875D01*
X12859805Y-16385955D01*
X12859900Y-16384991D01*
X12859900Y-16235009D01*
X12859805Y-16234044D01*
X12859526Y-16233125D01*
X12859209Y-16232533D01*
X12859216Y-16232333D01*
X12859392Y-16232239D01*
X12859540Y-16232312D01*
G37*
G36*
X15870273Y-16272500D02*
G01*
X15870300Y-16272600D01*
X15870300Y-16287400D01*
X15870200Y-16287573D01*
X15870100Y-16287600D01*
X15699900Y-16287600D01*
X15699727Y-16287500D01*
X15699700Y-16287400D01*
X15699700Y-16272600D01*
X15699800Y-16272427D01*
X15699900Y-16272400D01*
X15870100Y-16272400D01*
X15870273Y-16272500D01*
G37*
G36*
X15020273Y-16272500D02*
G01*
X15020300Y-16272600D01*
X15020300Y-16287400D01*
X15020200Y-16287573D01*
X15020100Y-16287600D01*
X14849900Y-16287600D01*
X14849727Y-16287500D01*
X14849700Y-16287400D01*
X14849700Y-16272600D01*
X14849800Y-16272427D01*
X14849900Y-16272400D01*
X15020100Y-16272400D01*
X15020273Y-16272500D01*
G37*
G36*
X15870273Y-16192500D02*
G01*
X15870300Y-16192600D01*
X15870300Y-16207400D01*
X15870200Y-16207573D01*
X15870100Y-16207600D01*
X15699900Y-16207600D01*
X15699727Y-16207500D01*
X15699700Y-16207400D01*
X15699700Y-16192600D01*
X15699800Y-16192427D01*
X15699900Y-16192400D01*
X15870100Y-16192400D01*
X15870273Y-16192500D01*
G37*
G36*
X15020273Y-16192500D02*
G01*
X15020300Y-16192600D01*
X15020300Y-16207400D01*
X15020200Y-16207573D01*
X15020100Y-16207600D01*
X14849900Y-16207600D01*
X14849727Y-16207500D01*
X14849700Y-16207400D01*
X14849700Y-16192600D01*
X14849800Y-16192427D01*
X14849900Y-16192400D01*
X15020100Y-16192400D01*
X15020273Y-16192500D01*
G37*
G36*
X13309973Y-16064000D02*
G01*
X13310000Y-16064100D01*
X13310000Y-16066391D01*
X13310237Y-16068799D01*
X13310937Y-16071107D01*
X13312074Y-16073233D01*
X13313603Y-16075097D01*
X13315467Y-16076626D01*
X13317394Y-16077656D01*
X13317500Y-16077833D01*
X13317500Y-16078900D01*
X13317400Y-16079073D01*
X13317300Y-16079100D01*
X13282300Y-16079100D01*
X13282300Y-16139100D01*
X13282200Y-16139273D01*
X13282100Y-16139300D01*
X13267300Y-16139300D01*
X13267127Y-16139200D01*
X13267100Y-16139100D01*
X13267100Y-16079100D01*
X13232300Y-16079100D01*
X13232300Y-16139100D01*
X13232200Y-16139273D01*
X13232100Y-16139300D01*
X13217300Y-16139300D01*
X13217127Y-16139200D01*
X13217100Y-16139100D01*
X13217100Y-16079100D01*
X13182300Y-16079100D01*
X13182300Y-16139100D01*
X13182200Y-16139273D01*
X13182100Y-16139300D01*
X13167300Y-16139300D01*
X13167127Y-16139200D01*
X13167100Y-16139100D01*
X13167100Y-16079100D01*
X13132100Y-16079100D01*
X13131927Y-16079000D01*
X13131900Y-16078900D01*
X13131900Y-16077833D01*
X13132006Y-16077656D01*
X13133933Y-16076626D01*
X13135797Y-16075097D01*
X13137326Y-16073233D01*
X13138463Y-16071107D01*
X13139163Y-16068799D01*
X13139400Y-16066391D01*
X13139400Y-16064100D01*
X13139500Y-16063927D01*
X13139600Y-16063900D01*
X13309800Y-16063900D01*
X13309973Y-16064000D01*
G37*
G36*
X15020273Y-16112500D02*
G01*
X15020300Y-16112600D01*
X15020300Y-16127400D01*
X15020200Y-16127573D01*
X15020100Y-16127600D01*
X14849900Y-16127600D01*
X14849727Y-16127500D01*
X14849700Y-16127400D01*
X14849700Y-16112600D01*
X14849800Y-16112427D01*
X14849900Y-16112400D01*
X15020100Y-16112400D01*
X15020273Y-16112500D01*
G37*
G36*
X15870273Y-16112500D02*
G01*
X15870300Y-16112600D01*
X15870300Y-16127400D01*
X15870200Y-16127573D01*
X15870100Y-16127600D01*
X15699900Y-16127600D01*
X15699727Y-16127500D01*
X15699700Y-16127400D01*
X15699700Y-16112600D01*
X15699800Y-16112427D01*
X15699900Y-16112400D01*
X15870100Y-16112400D01*
X15870273Y-16112500D01*
G37*
G36*
X15020273Y-16032500D02*
G01*
X15020300Y-16032600D01*
X15020300Y-16047400D01*
X15020200Y-16047573D01*
X15020100Y-16047600D01*
X14849900Y-16047600D01*
X14849727Y-16047500D01*
X14849700Y-16047400D01*
X14849700Y-16032600D01*
X14849800Y-16032427D01*
X14849900Y-16032400D01*
X15020100Y-16032400D01*
X15020273Y-16032500D01*
G37*
G36*
X15870273Y-16032500D02*
G01*
X15870300Y-16032600D01*
X15870300Y-16047400D01*
X15870200Y-16047573D01*
X15870100Y-16047600D01*
X15699900Y-16047600D01*
X15699727Y-16047500D01*
X15699700Y-16047400D01*
X15699700Y-16032600D01*
X15699800Y-16032427D01*
X15699900Y-16032400D01*
X15870100Y-16032400D01*
X15870273Y-16032500D01*
G37*
G36*
X15870273Y-15952500D02*
G01*
X15870300Y-15952600D01*
X15870300Y-15967400D01*
X15870200Y-15967573D01*
X15870100Y-15967600D01*
X15699900Y-15967600D01*
X15699727Y-15967500D01*
X15699700Y-15967400D01*
X15699700Y-15952600D01*
X15699800Y-15952427D01*
X15699900Y-15952400D01*
X15870100Y-15952400D01*
X15870273Y-15952500D01*
G37*
G36*
X15020273Y-15952500D02*
G01*
X15020300Y-15952600D01*
X15020300Y-15967400D01*
X15020200Y-15967573D01*
X15020100Y-15967600D01*
X14849900Y-15967600D01*
X14849727Y-15967500D01*
X14849700Y-15967400D01*
X14849700Y-15952600D01*
X14849800Y-15952427D01*
X14849900Y-15952400D01*
X15020100Y-15952400D01*
X15020273Y-15952500D01*
G37*
G36*
X13282273Y-15888800D02*
G01*
X13282300Y-15888900D01*
X13282300Y-15948900D01*
X13317300Y-15948900D01*
X13317473Y-15949000D01*
X13317500Y-15949100D01*
X13317500Y-15950167D01*
X13317394Y-15950344D01*
X13315467Y-15951374D01*
X13313603Y-15952903D01*
X13312074Y-15954767D01*
X13310937Y-15956893D01*
X13310237Y-15959201D01*
X13310000Y-15961609D01*
X13310000Y-15963900D01*
X13309900Y-15964073D01*
X13309800Y-15964100D01*
X13139600Y-15964100D01*
X13139427Y-15964000D01*
X13139400Y-15963900D01*
X13139400Y-15961609D01*
X13139163Y-15959201D01*
X13138463Y-15956893D01*
X13137326Y-15954767D01*
X13135797Y-15952903D01*
X13133933Y-15951374D01*
X13132006Y-15950344D01*
X13131900Y-15950167D01*
X13131900Y-15949100D01*
X13132000Y-15948927D01*
X13132100Y-15948900D01*
X13167100Y-15948900D01*
X13167100Y-15889100D01*
X13182300Y-15889100D01*
X13182300Y-15948900D01*
X13217100Y-15948900D01*
X13217100Y-15889100D01*
X13232300Y-15889100D01*
X13232300Y-15948900D01*
X13267100Y-15948900D01*
X13267100Y-15889100D01*
X13232300Y-15889100D01*
X13217100Y-15889100D01*
X13182300Y-15889100D01*
X13167100Y-15889100D01*
X13167100Y-15888900D01*
X13167200Y-15888727D01*
X13167300Y-15888700D01*
X13282100Y-15888700D01*
X13282273Y-15888800D01*
G37*
G36*
X15020273Y-15872500D02*
G01*
X15020300Y-15872600D01*
X15020300Y-15887400D01*
X15020200Y-15887573D01*
X15020100Y-15887600D01*
X14849900Y-15887600D01*
X14849727Y-15887500D01*
X14849700Y-15887400D01*
X14849700Y-15872600D01*
X14849800Y-15872427D01*
X14849900Y-15872400D01*
X15020100Y-15872400D01*
X15020273Y-15872500D01*
G37*
G36*
X15870273Y-15872500D02*
G01*
X15870300Y-15872600D01*
X15870300Y-15887400D01*
X15870200Y-15887573D01*
X15870100Y-15887600D01*
X15699900Y-15887600D01*
X15699727Y-15887500D01*
X15699700Y-15887400D01*
X15699700Y-15872600D01*
X15699800Y-15872427D01*
X15699900Y-15872400D01*
X15870100Y-15872400D01*
X15870273Y-15872500D01*
G37*
G36*
X15020273Y-15792500D02*
G01*
X15020300Y-15792600D01*
X15020300Y-15807400D01*
X15020200Y-15807573D01*
X15020100Y-15807600D01*
X14849900Y-15807600D01*
X14849727Y-15807500D01*
X14849700Y-15807400D01*
X14849700Y-15792600D01*
X14849800Y-15792427D01*
X14849900Y-15792400D01*
X15020100Y-15792400D01*
X15020273Y-15792500D01*
G37*
G36*
X15870273Y-15792500D02*
G01*
X15870300Y-15792600D01*
X15870300Y-15807400D01*
X15870200Y-15807573D01*
X15870100Y-15807600D01*
X15699900Y-15807600D01*
X15699727Y-15807500D01*
X15699700Y-15807400D01*
X15699700Y-15792600D01*
X15699800Y-15792427D01*
X15699900Y-15792400D01*
X15870100Y-15792400D01*
X15870273Y-15792500D01*
G37*
G36*
X15607573Y-15529800D02*
G01*
X15607600Y-15529900D01*
X15607600Y-15700100D01*
X15607500Y-15700273D01*
X15607400Y-15700300D01*
X15592600Y-15700300D01*
X15592427Y-15700200D01*
X15592400Y-15700100D01*
X15592400Y-15530100D01*
X15527600Y-15530100D01*
X15527600Y-15700100D01*
X15527500Y-15700273D01*
X15527400Y-15700300D01*
X15512600Y-15700300D01*
X15512427Y-15700200D01*
X15512400Y-15700100D01*
X15512400Y-15530100D01*
X15447600Y-15530100D01*
X15447600Y-15700100D01*
X15447500Y-15700273D01*
X15447400Y-15700300D01*
X15432600Y-15700300D01*
X15432427Y-15700200D01*
X15432400Y-15700100D01*
X15432400Y-15530100D01*
X15367600Y-15530100D01*
X15367600Y-15700100D01*
X15367500Y-15700273D01*
X15367400Y-15700300D01*
X15352600Y-15700300D01*
X15352427Y-15700200D01*
X15352400Y-15700100D01*
X15352400Y-15530100D01*
X15287600Y-15530100D01*
X15287600Y-15700100D01*
X15287500Y-15700273D01*
X15287400Y-15700300D01*
X15272600Y-15700300D01*
X15272427Y-15700200D01*
X15272400Y-15700100D01*
X15272400Y-15530100D01*
X15207600Y-15530100D01*
X15207600Y-15700100D01*
X15207500Y-15700273D01*
X15207400Y-15700300D01*
X15192600Y-15700300D01*
X15192427Y-15700200D01*
X15192400Y-15700100D01*
X15192400Y-15530100D01*
X15127600Y-15530100D01*
X15127600Y-15700100D01*
X15127500Y-15700273D01*
X15127400Y-15700300D01*
X15112600Y-15700300D01*
X15112427Y-15700200D01*
X15112400Y-15700100D01*
X15112400Y-15529900D01*
X15112500Y-15529727D01*
X15112600Y-15529700D01*
X15607400Y-15529700D01*
X15607573Y-15529800D01*
G37*
G36*
X13257573Y-13964800D02*
G01*
X13257600Y-13964900D01*
X13257600Y-14059900D01*
X13382600Y-14059900D01*
X13382773Y-14060000D01*
X13382800Y-14060100D01*
X13382800Y-14078900D01*
X13382700Y-14079073D01*
X13382600Y-14079100D01*
X13257600Y-14079100D01*
X13257600Y-14186100D01*
X13257500Y-14186273D01*
X13257400Y-14186300D01*
X13232600Y-14186300D01*
X13232427Y-14186200D01*
X13232400Y-14186100D01*
X13232400Y-14079100D01*
X13127400Y-14079100D01*
X13127227Y-14079000D01*
X13127200Y-14078900D01*
X13127200Y-14060100D01*
X13127300Y-14059927D01*
X13127400Y-14059900D01*
X13232400Y-14059900D01*
X13232400Y-13964900D01*
X13232500Y-13964727D01*
X13232600Y-13964700D01*
X13257400Y-13964700D01*
X13257573Y-13964800D01*
G37*
M02*
