%TF.GenerationSoftware,KiCad,Pcbnew,5.1.7+dfsg1-1~bpo10+1*%
%TF.CreationDate,2020-11-15T21:32:18+00:00*%
%TF.ProjectId,mobo,6d6f626f-2e6b-4696-9361-645f70636258,rev?*%
%TF.SameCoordinates,Original*%
%TF.FileFunction,Other,ECO1*%
%FSLAX45Y45*%
G04 Gerber Fmt 4.5, Leading zero omitted, Abs format (unit mm)*
G04 Created by KiCad (PCBNEW 5.1.7+dfsg1-1~bpo10+1) date 2020-11-15 21:32:18*
%MOMM*%
%LPD*%
G01*
G04 APERTURE LIST*
%TA.AperFunction,Profile*%
%ADD10C,0.200000*%
%TD*%
%ADD11C,0.200000*%
G04 APERTURE END LIST*
D10*
X10078686Y-16898000D02*
G75*
G03*
X10078686Y-16898000I-150000J0D01*
G01*
X9313000Y-16132314D02*
G75*
G03*
X9313000Y-16132314I-150000J0D01*
G01*
X18263000Y-11798000D02*
X16263000Y-11798000D01*
X18263000Y-13798000D02*
X18263000Y-11798000D01*
X10029424Y-10598000D02*
G75*
G03*
X10029424Y-10598000I-150000J0D01*
G01*
X20541427Y-13398000D02*
G75*
G03*
X20541427Y-13398000I-150000J0D01*
G01*
X8984826Y-10298000D02*
X18263000Y-10298000D01*
X7702340Y-11580485D02*
X8984826Y-10298000D01*
X10972211Y-13852451D02*
G75*
G03*
X10972211Y-13852451I-150000J0D01*
G01*
X15074964Y-14810514D02*
G75*
G03*
X15074964Y-14810514I-150000J0D01*
G01*
X11675420Y-14754866D02*
G75*
G03*
X11675420Y-14754866I-150000J0D01*
G01*
X16263000Y-17298000D02*
X9763000Y-17298000D01*
X16263000Y-11798000D02*
X16263000Y-17298000D01*
X13413000Y-12473000D02*
G75*
G03*
X13413000Y-12473000I-150000J0D01*
G01*
X9413000Y-14555359D02*
G75*
G03*
X9413000Y-14555359I-150000J0D01*
G01*
X7702340Y-12994699D02*
X7702340Y-11580485D01*
X8763000Y-14055359D02*
X7702340Y-12994699D01*
X15807333Y-13931598D02*
G75*
G03*
X15807333Y-13931598I-150000J0D01*
G01*
X8763000Y-16298000D02*
X8763000Y-14055359D01*
X9763000Y-17298000D02*
X8763000Y-16298000D01*
X22650482Y-13798000D02*
X18263000Y-13798000D01*
X18263000Y-10298000D02*
G75*
G02*
X22650482Y-13798000I0J-4500000D01*
G01*
X16013000Y-12198000D02*
G75*
G03*
X16013000Y-12198000I-150000J0D01*
G01*
D11*
X18263035Y-11797486D02*
X16263035Y-11797486D01*
X18263035Y-13797485D02*
X18263035Y-11797486D01*
X22650518Y-13797485D02*
X18263035Y-13797485D01*
X18263036Y-10297485D02*
G75*
G02*
X22650518Y-13797485I0J-4500000D01*
G01*
X8984861Y-10297486D02*
X18263035Y-10297486D01*
X9365409Y-12497622D02*
X9232826Y-12453427D01*
X9460868Y-12402162D02*
X9365409Y-12497622D01*
X9416674Y-12269580D02*
X9460868Y-12402162D01*
X9614664Y-12071590D02*
X9416674Y-12269580D01*
X9388390Y-11845316D02*
X9614664Y-12071590D01*
X9034836Y-12198869D02*
X9388390Y-11845316D01*
X8979047Y-12187628D02*
X9034836Y-12198869D01*
X8875598Y-12291078D02*
X8979047Y-12187628D01*
X14935586Y-13138219D02*
X14916452Y-13184413D01*
X14908526Y-13072891D02*
G75*
G02*
X14935586Y-13138219I-19134J-46194D01*
G01*
X14631362Y-12958086D02*
X14908526Y-13072891D01*
X14566034Y-12985145D02*
G75*
G02*
X14631362Y-12958086I46194J-19134D01*
G01*
X14546900Y-13031339D02*
X14566034Y-12985145D01*
X14573960Y-13096667D02*
G75*
G02*
X14546900Y-13031339I19134J46194D01*
G01*
X14851123Y-13211472D02*
X14573960Y-13096667D01*
X14916452Y-13184413D02*
G75*
G02*
X14851123Y-13211472I-46194J19134D01*
G01*
X15063035Y-12447485D02*
X15063035Y-12497485D01*
X15013035Y-12397485D02*
G75*
G02*
X15063035Y-12447485I0J-50000D01*
G01*
X14713035Y-12397485D02*
X15013035Y-12397485D01*
X14663035Y-12447485D02*
G75*
G02*
X14713035Y-12397485I50000J0D01*
G01*
X14663035Y-12497485D02*
X14663035Y-12447485D01*
X14713035Y-12547485D02*
G75*
G02*
X14663035Y-12497485I0J50000D01*
G01*
X15013035Y-12547485D02*
X14713035Y-12547485D01*
X15063035Y-12497485D02*
G75*
G02*
X15013035Y-12547485I-50000J0D01*
G01*
X14916452Y-11760558D02*
X14935586Y-11806752D01*
X14851123Y-11733499D02*
G75*
G02*
X14916452Y-11760558I19134J-46194D01*
G01*
X14573960Y-11848304D02*
X14851123Y-11733499D01*
X14546900Y-11913632D02*
G75*
G02*
X14573960Y-11848304I46194J19134D01*
G01*
X14566034Y-11959826D02*
X14546900Y-11913632D01*
X14631362Y-11986886D02*
G75*
G02*
X14566034Y-11959826I-19134J46194D01*
G01*
X14908526Y-11872080D02*
X14631362Y-11986885D01*
X14935586Y-11806752D02*
G75*
G02*
X14908526Y-11872080I-46194J-19134D01*
G01*
X14518150Y-11182016D02*
X14553505Y-11217371D01*
X14447439Y-11182016D02*
G75*
G02*
X14518150Y-11182016I35355J-35355D01*
G01*
X14235307Y-11394148D02*
X14447439Y-11182016D01*
X14235307Y-11464858D02*
G75*
G02*
X14235307Y-11394148I35355J35355D01*
G01*
X14270663Y-11500214D02*
X14235307Y-11464858D01*
X14341373Y-11500214D02*
G75*
G02*
X14270663Y-11500214I-35355J35355D01*
G01*
X14553505Y-11288082D02*
X14341373Y-11500214D01*
X14553505Y-11217371D02*
G75*
G02*
X14553505Y-11288082I-35355J-35355D01*
G01*
X13928769Y-10799935D02*
X13974963Y-10819070D01*
X13863441Y-10826995D02*
G75*
G02*
X13928769Y-10799935I46194J-19134D01*
G01*
X13748636Y-11104159D02*
X13863441Y-10826995D01*
X13775695Y-11169487D02*
G75*
G02*
X13748636Y-11104159I19134J46194D01*
G01*
X13821889Y-11188621D02*
X13775695Y-11169487D01*
X13887217Y-11161562D02*
G75*
G02*
X13821889Y-11188621I-46194J19134D01*
G01*
X14002022Y-10884398D02*
X13887217Y-11161562D01*
X13974963Y-10819070D02*
G75*
G02*
X14002022Y-10884398I-19134J-46194D01*
G01*
X13238036Y-10672486D02*
X13288036Y-10672486D01*
X13188036Y-10722486D02*
G75*
G02*
X13238036Y-10672486I50000J0D01*
G01*
X13188036Y-11022486D02*
X13188036Y-10722486D01*
X13238036Y-11072486D02*
G75*
G02*
X13188036Y-11022486I0J50000D01*
G01*
X13288036Y-11072486D02*
X13238036Y-11072486D01*
X13338036Y-11022486D02*
G75*
G02*
X13288036Y-11072486I-50000J0D01*
G01*
X7702375Y-11579971D02*
X8984861Y-10297486D01*
X7702375Y-12994185D02*
X7702375Y-11579971D01*
X8763036Y-14054845D02*
X7702375Y-12994185D01*
X8763036Y-16297485D02*
X8763036Y-14054845D01*
X9763036Y-17297485D02*
X8763036Y-16297485D01*
X16263035Y-17297485D02*
X9763036Y-17297485D01*
X16263035Y-11797486D02*
X16263035Y-17297485D01*
X9313036Y-16131800D02*
G75*
G03*
X9313036Y-16131800I-150000J0D01*
G01*
X10029459Y-10597486D02*
G75*
G03*
X10029459Y-10597486I-150000J0D01*
G01*
X10078721Y-16897485D02*
G75*
G03*
X10078721Y-16897485I-150000J0D01*
G01*
X9413036Y-14554845D02*
G75*
G03*
X9413036Y-14554845I-150000J0D01*
G01*
X20541463Y-13397485D02*
G75*
G03*
X20541463Y-13397485I-150000J0D01*
G01*
X16013035Y-12197486D02*
G75*
G03*
X16013035Y-12197486I-150000J0D01*
G01*
X13413036Y-12472485D02*
G75*
G03*
X13413036Y-12472485I-150000J0D01*
G01*
X15807368Y-13931084D02*
G75*
G03*
X15807368Y-13931084I-150000J0D01*
G01*
X9348182Y-12587778D02*
G75*
G03*
X9348182Y-12587778I-80000J0D01*
G01*
X9341681Y-12498643D02*
X9448494Y-12605455D01*
X9233553Y-12462600D02*
X9341681Y-12498643D01*
X9039786Y-12656367D02*
X9233553Y-12462600D01*
X9232826Y-12849407D02*
X9039786Y-12656367D01*
X9289395Y-12792839D02*
X9232826Y-12849407D01*
X9275253Y-12778696D02*
X9289395Y-12792839D01*
X9448494Y-12605455D02*
X9275253Y-12778696D01*
X9631024Y-12304935D02*
G75*
G03*
X9631024Y-12304935I-80000J0D01*
G01*
X9619614Y-12076539D02*
X9812654Y-12269580D01*
X9425847Y-12270306D02*
X9619614Y-12076539D01*
X9461889Y-12378435D02*
X9425847Y-12270306D01*
X11800455Y-14754352D02*
G75*
G03*
X11800455Y-14754352I-275000J0D01*
G01*
X11097246Y-13851937D02*
G75*
G03*
X11097246Y-13851937I-275000J0D01*
G01*
X11285452Y-14204977D02*
X11284416Y-14204898D01*
X11409974Y-14233304D02*
X11390101Y-14226268D01*
X11390101Y-14226268D02*
X11368599Y-14219726D01*
X11368599Y-14219726D02*
X11345490Y-14213951D01*
X11345490Y-14213951D02*
X11325023Y-14209919D01*
X11325023Y-14209919D02*
X11303469Y-14206764D01*
X11303469Y-14206764D02*
X11285452Y-14204977D01*
X10258613Y-13701184D02*
X10253327Y-13719695D01*
X10258613Y-13701184D02*
G75*
G02*
X11145790Y-13399533I548089J-156519D01*
G01*
X11296310Y-13478292D02*
G75*
G02*
X11145790Y-13399533I176669J520853D01*
G01*
X11284416Y-14204898D02*
X11296310Y-13478292D01*
X11617545Y-13072891D02*
X11894709Y-12958086D01*
X11590485Y-13138219D02*
G75*
G02*
X11617545Y-13072891I46194J19134D01*
G01*
X12007921Y-13762955D02*
X11972566Y-13727600D01*
X12078632Y-13762955D02*
G75*
G02*
X12007921Y-13762955I-35355J35355D01*
G01*
X12078632Y-11182016D02*
X12290764Y-11394148D01*
X12007921Y-11182016D02*
G75*
G02*
X12078632Y-11182016I35355J-35355D01*
G01*
X11590485Y-11806752D02*
X11609619Y-11760558D01*
X11617545Y-11872080D02*
G75*
G02*
X11590485Y-11806752I19134J46194D01*
G01*
X11894709Y-11986885D02*
X11617545Y-11872080D01*
X11960037Y-11959826D02*
G75*
G02*
X11894709Y-11986885I-46194J19134D01*
G01*
X11979171Y-11913632D02*
X11960037Y-11959826D01*
X11952111Y-11848304D02*
G75*
G02*
X11979171Y-11913632I-19134J-46194D01*
G01*
X11674948Y-11733499D02*
X11952111Y-11848304D01*
X11609619Y-11760558D02*
G75*
G02*
X11674948Y-11733499I46194J-19134D01*
G01*
X11463036Y-12497485D02*
X11463036Y-12447485D01*
X11513036Y-12547485D02*
G75*
G02*
X11463036Y-12497485I0J50000D01*
G01*
X11813036Y-12547485D02*
X11513036Y-12547485D01*
X11863036Y-12497485D02*
G75*
G02*
X11813036Y-12547485I-50000J0D01*
G01*
X11863036Y-12447485D02*
X11863036Y-12497485D01*
X11813036Y-12397485D02*
G75*
G02*
X11863036Y-12447485I0J-50000D01*
G01*
X11513036Y-12397485D02*
X11813036Y-12397485D01*
X11463036Y-12447485D02*
G75*
G02*
X11513036Y-12397485I50000J0D01*
G01*
X11609619Y-13184413D02*
X11590485Y-13138219D01*
X11674948Y-13211472D02*
G75*
G02*
X11609619Y-13184413I-19134J46194D01*
G01*
X11952111Y-13096667D02*
X11674948Y-13211472D01*
X11979171Y-13031339D02*
G75*
G02*
X11952111Y-13096667I-46194J-19134D01*
G01*
X11960037Y-12985145D02*
X11979171Y-13031339D01*
X11894709Y-12958085D02*
G75*
G02*
X11960037Y-12985145I19134J-46194D01*
G01*
X13188035Y-13922485D02*
G75*
G02*
X13238035Y-13872485I50000J0D01*
G01*
X13188035Y-14222485D02*
X13188035Y-13922485D01*
X13238035Y-14272485D02*
G75*
G02*
X13188035Y-14222485I0J50000D01*
G01*
X13974963Y-14125901D02*
X13928769Y-14145036D01*
X14002022Y-14060573D02*
G75*
G02*
X13974963Y-14125901I-46194J-19134D01*
G01*
X13887217Y-13783410D02*
X14002022Y-14060573D01*
X13821889Y-13756350D02*
G75*
G02*
X13887217Y-13783410I19134J-46194D01*
G01*
X13775695Y-13775484D02*
X13821889Y-13756350D01*
X13748636Y-13840812D02*
G75*
G02*
X13775695Y-13775484I46194J19134D01*
G01*
X13863441Y-14117976D02*
X13748636Y-13840812D01*
X8763036Y-14054845D02*
X8482185Y-13773994D01*
X10141715Y-12676165D02*
X8763036Y-14054845D01*
X10141715Y-12676165D02*
G75*
G02*
X11136234Y-12017141I2121320J-2121320D01*
G01*
X11136234Y-12017141D02*
G75*
G02*
X12408269Y-10472486I2126802J-455345D01*
G01*
X12263035Y-10472486D02*
X12408269Y-10472486D01*
X9204799Y-11739249D02*
G75*
G02*
X12263035Y-10472486I3058237J-3058237D01*
G01*
X8482185Y-12461862D02*
X9204799Y-11739249D01*
X8321094Y-12850771D02*
G75*
G02*
X8482185Y-12461862I550000J0D01*
G01*
X8321094Y-13385086D02*
X8321094Y-12850771D01*
X8482185Y-13773994D02*
G75*
G02*
X8321094Y-13385086I388909J388909D01*
G01*
X9568702Y-12485247D02*
X9461889Y-12378435D01*
X9741943Y-12312006D02*
X9568702Y-12485247D01*
X9756085Y-12326148D02*
X9741943Y-12312006D01*
X9812654Y-12269580D02*
X9756085Y-12326148D01*
X9856733Y-12452277D02*
G75*
G02*
X9850999Y-12478722I-23412J-8768D01*
G01*
X9882818Y-12510542D02*
X9850999Y-12478722D01*
X9794430Y-12535291D02*
X9826250Y-12567110D01*
X9794430Y-12535291D02*
G75*
G02*
X9767985Y-12541025I-17678J17678D01*
G01*
X9856733Y-12452277D02*
X9767985Y-12541025D01*
X9617653Y-12712067D02*
G75*
G02*
X9591208Y-12717802I-17678J17678D01*
G01*
X9649473Y-12743887D02*
X9617653Y-12712067D01*
X9684829Y-12779242D02*
G75*
G02*
X9649473Y-12743887I-17678J17678D01*
G01*
X9741397Y-12722674D02*
X9684829Y-12779242D01*
X9706042Y-12687319D02*
G75*
G02*
X9741397Y-12722674I17678J-17678D01*
G01*
X9674222Y-12655499D02*
X9706042Y-12687319D01*
X9679956Y-12629054D02*
G75*
G02*
X9674222Y-12655499I-23412J-8768D01*
G01*
X9591208Y-12717802D02*
X9679956Y-12629054D01*
X9503180Y-12805830D02*
G75*
G02*
X9497445Y-12832275I-23412J-8768D01*
G01*
X9529265Y-12864095D02*
X9497445Y-12832275D01*
X9529265Y-12864095D02*
G75*
G02*
X9564620Y-12899451I17678J-17678D01*
G01*
X9508052Y-12956019D02*
X9564620Y-12899451D01*
X9508052Y-12956019D02*
G75*
G02*
X9472696Y-12920664I-17678J17678D01*
G01*
X9440877Y-12888844D02*
X9472696Y-12920664D01*
X9440877Y-12888844D02*
G75*
G02*
X9414431Y-12894579I-17678J17678D01*
G01*
X9503180Y-12805830D02*
X9414431Y-12894579D01*
X8482185Y-12461862D02*
X9204799Y-11739249D01*
X9324750Y-12432214D02*
G75*
G02*
X9317679Y-12432214I-3536J3536D01*
G01*
X9282324Y-12389788D02*
X9324750Y-12432214D01*
X9353034Y-12319077D02*
X9282324Y-12389788D01*
X9395461Y-12361503D02*
X9353034Y-12319077D01*
X9395461Y-12354432D02*
G75*
G02*
X9395461Y-12361503I-3536J-3536D01*
G01*
X9342428Y-12301399D02*
X9395461Y-12354432D01*
X9264646Y-12379181D02*
X9342428Y-12301399D01*
X9317679Y-12432214D02*
X9264646Y-12379181D01*
X9232826Y-12453427D02*
X9034836Y-12651417D01*
X11675455Y-14754352D02*
G75*
G03*
X11675455Y-14754352I-150000J0D01*
G01*
X13338036Y-10722486D02*
X13338036Y-11022486D01*
X13288036Y-10672486D02*
G75*
G02*
X13338036Y-10722486I0J-50000D01*
G01*
X12551108Y-10819070D02*
X12597302Y-10799935D01*
X12524049Y-10884398D02*
G75*
G02*
X12551108Y-10819070I46194J19134D01*
G01*
X12638854Y-11161562D02*
X12524049Y-10884398D01*
X12704182Y-11188621D02*
G75*
G02*
X12638854Y-11161562I-19134J46194D01*
G01*
X12750376Y-11169487D02*
X12704182Y-11188621D01*
X12777436Y-11104159D02*
G75*
G02*
X12750376Y-11169487I-46194J-19134D01*
G01*
X12662630Y-10826995D02*
X12777435Y-11104159D01*
X12597302Y-10799935D02*
G75*
G02*
X12662630Y-10826995I19134J-46194D01*
G01*
X11972566Y-11217371D02*
X12007921Y-11182016D01*
X11972566Y-11288082D02*
G75*
G02*
X11972566Y-11217371I35355J35355D01*
G01*
X12184698Y-11500214D02*
X11972566Y-11288082D01*
X12255408Y-11500214D02*
G75*
G02*
X12184698Y-11500214I-35355J35355D01*
G01*
X12290764Y-11464858D02*
X12255408Y-11500214D01*
X12290764Y-11394148D02*
G75*
G02*
X12290764Y-11464858I-35355J-35355D01*
G01*
X14332255Y-14162683D02*
X14388160Y-14246350D01*
X14332255Y-14162683D02*
G75*
G02*
X14074357Y-14300533I-1069220J1690198D01*
G01*
X14112865Y-14393498D02*
X14074357Y-14300533D01*
X14112865Y-14393498D02*
G75*
G02*
X14020477Y-14431767I-46194J-19134D01*
G01*
X13981969Y-14338801D02*
X14020477Y-14431767D01*
X13981969Y-14338801D02*
G75*
G02*
X13702133Y-14423688I-718934J1866316D01*
G01*
X13721764Y-14522380D02*
X13702133Y-14423688D01*
X13721764Y-14522380D02*
G75*
G02*
X13623686Y-14541889I-49039J-9755D01*
G01*
X13604055Y-14443197D02*
X13623686Y-14541889D01*
X13604055Y-14443197D02*
G75*
G02*
X13313036Y-14471860I-341019J1970712D01*
G01*
X13313035Y-14572485D02*
X13313036Y-14471860D01*
X13313035Y-14572485D02*
G75*
G02*
X13213035Y-14572485I-50000J0D01*
G01*
X13213036Y-14471860D02*
X13213035Y-14572485D01*
X13213035Y-14471860D02*
G75*
G02*
X12922016Y-14443197I50000J1999375D01*
G01*
X12902385Y-14541889D02*
X12922016Y-14443197D01*
X11972566Y-13727600D02*
G75*
G02*
X11972566Y-13656889I35355J35355D01*
G01*
X12597302Y-14145036D02*
X12551108Y-14125901D01*
X12662630Y-14117976D02*
G75*
G02*
X12597302Y-14145036I-46194J19134D01*
G01*
X12777435Y-13840812D02*
X12662630Y-14117976D01*
X12750376Y-13775484D02*
G75*
G02*
X12777435Y-13840812I-19134J-46194D01*
G01*
X12704182Y-13756350D02*
X12750376Y-13775484D01*
X12638854Y-13783409D02*
G75*
G02*
X12704182Y-13756350I46194J-19134D01*
G01*
X12524049Y-14060573D02*
X12638854Y-13783410D01*
X12551108Y-14125901D02*
G75*
G02*
X12524049Y-14060573I19134J46194D01*
G01*
X11536453Y-14297329D02*
X11517276Y-14285944D01*
X11517276Y-14285944D02*
X11498002Y-14274952D01*
X11498002Y-14274952D02*
X11478550Y-14264434D01*
X11478550Y-14264434D02*
X11458837Y-14254470D01*
X11458837Y-14254470D02*
X11438782Y-14245142D01*
X11438782Y-14245142D02*
X11418303Y-14236530D01*
X11418303Y-14236530D02*
X11409974Y-14233304D01*
X11704601Y-14396711D02*
X11682923Y-14385430D01*
X11682923Y-14385430D02*
X11661478Y-14373527D01*
X11661478Y-14373527D02*
X11640242Y-14361149D01*
X11640242Y-14361149D02*
X11619195Y-14348446D01*
X11619195Y-14348446D02*
X11598314Y-14335563D01*
X11598314Y-14335563D02*
X11577578Y-14322651D01*
X11577578Y-14322651D02*
X11556965Y-14309857D01*
X11556965Y-14309857D02*
X11536453Y-14297329D01*
X11704601Y-14396711D02*
G75*
G02*
X11829745Y-14494722I-179146J-357641D01*
G01*
X11821085Y-15023802D02*
X11829745Y-14494722D01*
X11821085Y-15023802D02*
G75*
G02*
X11270378Y-15062468I-295630J269450D01*
G01*
X11265669Y-15350180D02*
X11270378Y-15062468D01*
X8859474Y-12476055D02*
X8890587Y-12444942D01*
X9034836Y-12651417D02*
X8859474Y-12476055D01*
X12263035Y-10397486D02*
X12611115Y-10397486D01*
X9151766Y-11686216D02*
G75*
G02*
X12263035Y-10397486I3111270J-3111270D01*
G01*
X7773086Y-13064895D02*
X9151766Y-11686216D01*
X7702375Y-12994185D02*
X7773086Y-13064895D01*
X9081055Y-11615505D02*
X7702375Y-12994185D01*
X9081055Y-11615505D02*
G75*
G02*
X12263035Y-10297486I3181980J-3181980D01*
G01*
X13263036Y-10297486D02*
X12263035Y-10297486D01*
X12611115Y-10397486D02*
G75*
G02*
X13263036Y-10297486I651920J-2075000D01*
G01*
X14712162Y-11094069D02*
G75*
G02*
X14897676Y-11320119I-1449127J-1378416D01*
G01*
X14981343Y-11264215D02*
X14897676Y-11320119D01*
X14981343Y-11264215D02*
G75*
G02*
X15036900Y-11347361I27779J-41573D01*
G01*
X14953233Y-11403266D02*
X15036900Y-11347361D01*
X14953233Y-11403266D02*
G75*
G02*
X15091083Y-11661164I-1690198J-1069220D01*
G01*
X15184048Y-11622656D02*
X15091083Y-11661164D01*
X15184048Y-11622656D02*
G75*
G02*
X15222317Y-11715044I19134J-46194D01*
G01*
X15129351Y-11753552D02*
X15222317Y-11715044D01*
X15129351Y-11753552D02*
G75*
G02*
X15214238Y-12033388I-1866316J-718934D01*
G01*
X15312930Y-12013757D02*
X15214238Y-12033388D01*
X15312930Y-12013757D02*
G75*
G02*
X15332439Y-12111835I9755J-49039D01*
G01*
X15233747Y-12131466D02*
X15332439Y-12111835D01*
X15233748Y-12131466D02*
G75*
G02*
X15262410Y-12422485I-1970712J-341019D01*
G01*
X15363035Y-12422485D02*
X15262410Y-12422485D01*
X15363035Y-12422485D02*
G75*
G02*
X15363035Y-12522485I0J-50000D01*
G01*
X15262410Y-12522485D02*
X15363035Y-12522485D01*
X8909496Y-12324976D02*
X8875598Y-12291078D01*
X8909496Y-12324976D02*
G75*
G02*
X8868556Y-12422911I-156795J8020D01*
G01*
X8890587Y-12444942D02*
X8868556Y-12422911D01*
X12290764Y-13550823D02*
X12078632Y-13762955D01*
X12290764Y-13480113D02*
G75*
G02*
X12290764Y-13550823I-35355J-35355D01*
G01*
X12255408Y-13444757D02*
X12290764Y-13480113D01*
X12184698Y-13444757D02*
G75*
G02*
X12255408Y-13444757I35355J-35355D01*
G01*
X11972566Y-13656889D02*
X12184698Y-13444757D01*
X14641452Y-13921612D02*
X14712604Y-13992765D01*
X14641452Y-13921612D02*
G75*
G02*
X14415402Y-14107126I-1378416J1449127D01*
G01*
X14471306Y-14190793D02*
X14415402Y-14107126D01*
X14471306Y-14190793D02*
G75*
G02*
X14388160Y-14246350I-41573J-27779D01*
G01*
X10972246Y-13851937D02*
G75*
G03*
X10972246Y-13851937I-150000J0D01*
G01*
X10965709Y-15345270D02*
X11265669Y-15350180D01*
X10303183Y-14153096D02*
X10965709Y-15345270D01*
X10303183Y-14153096D02*
G75*
G02*
X10253327Y-13719695I498233J276883D01*
G01*
X13413036Y-12472485D02*
G75*
G03*
X13413036Y-12472485I-150000J0D01*
G01*
X13288035Y-14272485D02*
X13238035Y-14272485D01*
X13338035Y-14222485D02*
G75*
G02*
X13288035Y-14272485I-50000J0D01*
G01*
X13338035Y-13922485D02*
X13338035Y-14222485D01*
X13288035Y-13872485D02*
G75*
G02*
X13338035Y-13922485I0J-50000D01*
G01*
X13238035Y-13872485D02*
X13288035Y-13872485D01*
X15214238Y-12911583D02*
X15312930Y-12931214D01*
X15214239Y-12911583D02*
G75*
G02*
X15129351Y-13191419I-1951203J439098D01*
G01*
X15222317Y-13229927D02*
X15129351Y-13191419D01*
X15222317Y-13229927D02*
G75*
G02*
X15184048Y-13322315I-19134J-46194D01*
G01*
X15091083Y-13283807D02*
X15184048Y-13322315D01*
X15091083Y-13283807D02*
G75*
G02*
X14953233Y-13541705I-1828047J811322D01*
G01*
X15036900Y-13597610D02*
X14953233Y-13541705D01*
X15036900Y-13597609D02*
G75*
G02*
X14981343Y-13680756I-27779J-41574D01*
G01*
X14897676Y-13624852D02*
X14981343Y-13680756D01*
X14897676Y-13624852D02*
G75*
G02*
X14712162Y-13850902I-1634641J1152367D01*
G01*
X14783315Y-13922054D02*
X14712162Y-13850902D01*
X14783315Y-13922054D02*
G75*
G02*
X14712604Y-13992765I-35355J-35355D01*
G01*
X13928769Y-14145036D02*
G75*
G02*
X13863441Y-14117976I-19134J46194D01*
G01*
X14553505Y-13727600D02*
X14518150Y-13762955D01*
X14553505Y-13656889D02*
G75*
G02*
X14553505Y-13727600I-35355J-35355D01*
G01*
X14341373Y-13444757D02*
X14553505Y-13656889D01*
X14270663Y-13444757D02*
G75*
G02*
X14341373Y-13444757I35355J-35355D01*
G01*
X14235307Y-13480113D02*
X14270663Y-13444757D01*
X14235307Y-13550823D02*
G75*
G02*
X14235307Y-13480113I35355J35355D01*
G01*
X14447439Y-13762955D02*
X14235307Y-13550823D01*
X14518150Y-13762955D02*
G75*
G02*
X14447439Y-13762955I-35355J35355D01*
G01*
X9882818Y-12510542D02*
G75*
G02*
X9918174Y-12545897I17678J-17678D01*
G01*
X9861605Y-12602466D02*
X9918174Y-12545897D01*
X9861605Y-12602466D02*
G75*
G02*
X9826250Y-12567110I-17678J17678D01*
G01*
X15262410Y-12522486D02*
G75*
G02*
X15233747Y-12813505I-1999375J50000D01*
G01*
X15332439Y-12833136D02*
X15233747Y-12813505D01*
X15332439Y-12833136D02*
G75*
G02*
X15312930Y-12931214I-9755J-49039D01*
G01*
X13213036Y-10372486D02*
X13213035Y-10473111D01*
X13213036Y-10372486D02*
G75*
G02*
X13313036Y-10372486I50000J0D01*
G01*
X13313035Y-10473111D02*
X13313036Y-10372486D01*
X13313036Y-10473111D02*
G75*
G02*
X13604055Y-10501774I-50000J-1999375D01*
G01*
X13623686Y-10403082D02*
X13604055Y-10501774D01*
X13623686Y-10403082D02*
G75*
G02*
X13721764Y-10422591I49039J-9755D01*
G01*
X13702133Y-10521283D02*
X13721764Y-10422591D01*
X14415402Y-10837845D02*
X14471306Y-10754178D01*
X14415402Y-10837845D02*
G75*
G02*
X14641452Y-11023359I-1152367J-1634641D01*
G01*
X14712604Y-10952206D02*
X14641452Y-11023359D01*
X14712604Y-10952206D02*
G75*
G02*
X14783315Y-11022917I35355J-35355D01*
G01*
X14712162Y-11094069D02*
X14783315Y-11022917D01*
X13702133Y-10521283D02*
G75*
G02*
X13981969Y-10606170I-439098J-1951203D01*
G01*
X14020477Y-10513204D02*
X13981969Y-10606170D01*
X14020477Y-10513204D02*
G75*
G02*
X14112865Y-10551473I46194J-19134D01*
G01*
X14074357Y-10644438D02*
X14112865Y-10551473D01*
X14074357Y-10644438D02*
G75*
G02*
X14332255Y-10782288I-811322J-1828047D01*
G01*
X14388160Y-10698621D02*
X14332255Y-10782288D01*
X14388159Y-10698621D02*
G75*
G02*
X14471306Y-10754178I41574J-27779D01*
G01*
X12865454Y-15376367D02*
X12862999Y-15526347D01*
X12815461Y-15375549D02*
X12865454Y-15376367D01*
X12813006Y-15525529D02*
X12815461Y-15375549D01*
X12862999Y-15526347D02*
X12813006Y-15525529D01*
X13615354Y-15388642D02*
X13612899Y-15538622D01*
X13565361Y-15387824D02*
X13615354Y-15388642D01*
X13562905Y-15537804D02*
X13565361Y-15387824D01*
X13612899Y-15538622D02*
X13562905Y-15537804D01*
X13562905Y-15537804D02*
X13612899Y-15538622D01*
X13561269Y-15637791D02*
X13562905Y-15537804D01*
X13612899Y-15538622D02*
X13562905Y-15537804D01*
X13612899Y-15538622D02*
X13611262Y-15638609D01*
X12813006Y-15525529D02*
X12862999Y-15526347D01*
X12811369Y-15625515D02*
X12813006Y-15525529D01*
X12862999Y-15526347D02*
X12813006Y-15525529D01*
X12862999Y-15526347D02*
X12861363Y-15626334D01*
X15932368Y-13931084D02*
G75*
G03*
X15932368Y-13931084I-275000J0D01*
G01*
X15200000Y-14810000D02*
G75*
G03*
X15200000Y-14810000I-275000J0D01*
G01*
X15169856Y-15126300D02*
G75*
G02*
X14620710Y-15069630I-244856J316300D01*
G01*
X14629370Y-14540550D02*
X14620710Y-15069630D01*
X14629370Y-14540550D02*
G75*
G02*
X14757656Y-14446687I295630J-269450D01*
G01*
X14929281Y-14352685D02*
X14908330Y-14364554D01*
X14908330Y-14364554D02*
X14887269Y-14376688D01*
X14887269Y-14376688D02*
X14866083Y-14388938D01*
X14866083Y-14388938D02*
X14844754Y-14401153D01*
X14844754Y-14401153D02*
X14823263Y-14413185D01*
X14823263Y-14413185D02*
X14801595Y-14424885D01*
X14801595Y-14424885D02*
X14779732Y-14436102D01*
X14779732Y-14436102D02*
X14757656Y-14446687D01*
X15048326Y-14296221D02*
X15029005Y-14303612D01*
X15029005Y-14303612D02*
X15010037Y-14311637D01*
X15010037Y-14311637D02*
X14991364Y-14320225D01*
X14991364Y-14320225D02*
X14972925Y-14329306D01*
X14972925Y-14329306D02*
X14954663Y-14338808D01*
X14954663Y-14338808D02*
X14936519Y-14348661D01*
X14936519Y-14348661D02*
X14929281Y-14352685D01*
X15182854Y-14268775D02*
X15158886Y-14270530D01*
X15158886Y-14270530D02*
X15135985Y-14273477D01*
X15135985Y-14273477D02*
X15114167Y-14277443D01*
X15114167Y-14277443D02*
X15093451Y-14282254D01*
X15093451Y-14282254D02*
X15073852Y-14287740D01*
X15073852Y-14287740D02*
X15051834Y-14294967D01*
X15051834Y-14294967D02*
X15048326Y-14296221D01*
X15183894Y-14268729D02*
X15182854Y-14268775D01*
X15195788Y-13542124D02*
X15183894Y-14268729D01*
X15348805Y-13468333D02*
G75*
G02*
X15195788Y-13542124I-312545J452566D01*
G01*
X15348805Y-13468333D02*
G75*
G02*
X16225633Y-13798860I323910J-469023D01*
G01*
X16230311Y-13817534D02*
X16225633Y-13798860D01*
X16230311Y-13817534D02*
G75*
G02*
X16166296Y-14249071I-552919J-138496D01*
G01*
X15465106Y-15418921D02*
X16166296Y-14249071D01*
X15165146Y-15414011D02*
X15465106Y-15418921D01*
X15169856Y-15126300D02*
X15165146Y-15414011D01*
X11136234Y-12017141D02*
G75*
G02*
X12408269Y-10472486I2126802J-455345D01*
G01*
X11331553Y-13472486D02*
G75*
G02*
X11136234Y-12017141I1931483J1000000D01*
G01*
X15194518Y-13472485D02*
X11331553Y-13472485D01*
X15330643Y-11797486D02*
G75*
G02*
X15194518Y-13472485I-2067607J-675000D01*
G01*
X14117802Y-10472485D02*
G75*
G02*
X15330643Y-11797485I-854766J-2000000D01*
G01*
X12408269Y-10472486D02*
X14117802Y-10472486D01*
X13413036Y-12472485D02*
G75*
G03*
X13413036Y-12472485I-150000J0D01*
G01*
X12936393Y-14242776D02*
X12887353Y-14233022D01*
X12995186Y-14203491D02*
G75*
G02*
X12936393Y-14242776I-49039J9755D01*
G01*
X13053713Y-13909256D02*
X12995186Y-14203491D01*
X13014429Y-13850462D02*
G75*
G02*
X13053713Y-13909256I-9755J-49039D01*
G01*
X12965389Y-13840708D02*
X13014429Y-13850462D01*
X12906596Y-13879992D02*
G75*
G02*
X12965389Y-13840708I49039J-9755D01*
G01*
X12848069Y-14174228D02*
X12906596Y-13879992D01*
X12887353Y-14233022D02*
G75*
G02*
X12848069Y-14174228I9755J49039D01*
G01*
X12283796Y-13983020D02*
X12242222Y-13955241D01*
X12353148Y-13969225D02*
G75*
G02*
X12283796Y-13983020I-41574J27779D01*
G01*
X12519819Y-13719784D02*
X12353148Y-13969225D01*
X12506024Y-13650432D02*
G75*
G02*
X12519819Y-13719784I-27779J-41573D01*
G01*
X12464450Y-13622654D02*
X12506024Y-13650432D01*
X12395099Y-13636449D02*
G75*
G02*
X12464450Y-13622654I41573J-27779D01*
G01*
X12228427Y-13885889D02*
X12395098Y-13636449D01*
X12242222Y-13955241D02*
G75*
G02*
X12228427Y-13885889I27779J41574D01*
G01*
X11780279Y-13493299D02*
X11752501Y-13451725D01*
X11849631Y-13507094D02*
G75*
G02*
X11780279Y-13493299I-27779J41574D01*
G01*
X12099072Y-13340423D02*
X11849631Y-13507094D01*
X12112867Y-13271071D02*
G75*
G02*
X12099072Y-13340423I-41574J-27779D01*
G01*
X12085089Y-13229497D02*
X12112867Y-13271071D01*
X12015737Y-13215702D02*
G75*
G02*
X12085089Y-13229497I27779J-41573D01*
G01*
X11766296Y-13382373D02*
X12015737Y-13215702D01*
X11752501Y-13451725D02*
G75*
G02*
X11766296Y-13382373I41574J27779D01*
G01*
X11502499Y-12848168D02*
X11492745Y-12799128D01*
X11561293Y-12887452D02*
G75*
G02*
X11502499Y-12848168I-9755J49039D01*
G01*
X11855529Y-12828925D02*
X11561293Y-12887452D01*
X11894813Y-12770132D02*
G75*
G02*
X11855529Y-12828925I-49039J-9755D01*
G01*
X11885059Y-12721092D02*
X11894813Y-12770132D01*
X11826265Y-12681808D02*
G75*
G02*
X11885059Y-12721092I9755J-49039D01*
G01*
X11532029Y-12740335D02*
X11826265Y-12681808D01*
X11492745Y-12799129D02*
G75*
G02*
X11532029Y-12740335I49039J9755D01*
G01*
X11492745Y-12145843D02*
X11502499Y-12096803D01*
X11532030Y-12204636D02*
G75*
G02*
X11492745Y-12145843I9755J49039D01*
G01*
X11826265Y-12263163D02*
X11532029Y-12204636D01*
X11885059Y-12223879D02*
G75*
G02*
X11826265Y-12263163I-49039J9755D01*
G01*
X11894813Y-12174839D02*
X11885059Y-12223879D01*
X11855529Y-12116046D02*
G75*
G02*
X11894813Y-12174839I-9755J-49039D01*
G01*
X11561293Y-12057519D02*
X11855529Y-12116046D01*
X11502499Y-12096803D02*
G75*
G02*
X11561293Y-12057519I49039J-9755D01*
G01*
X11752501Y-11493246D02*
X11780279Y-11451672D01*
X11766296Y-11562598D02*
G75*
G02*
X11752501Y-11493246I27779J41574D01*
G01*
X12015737Y-11729269D02*
X11766296Y-11562598D01*
X12085089Y-11715474D02*
G75*
G02*
X12015737Y-11729269I-41573J27779D01*
G01*
X12112867Y-11673900D02*
X12085089Y-11715474D01*
X12099072Y-11604549D02*
G75*
G02*
X12112867Y-11673900I-27779J-41573D01*
G01*
X11849631Y-11437877D02*
X12099072Y-11604548D01*
X11780279Y-11451672D02*
G75*
G02*
X11849631Y-11437877I41574J-27779D01*
G01*
X12242222Y-10989730D02*
X12283796Y-10961951D01*
X12228427Y-11059082D02*
G75*
G02*
X12242222Y-10989730I41574J27779D01*
G01*
X12395098Y-11308522D02*
X12228427Y-11059082D01*
X12464450Y-11322317D02*
G75*
G02*
X12395098Y-11308522I-27779J41574D01*
G01*
X12506024Y-11294539D02*
X12464450Y-11322317D01*
X12519819Y-11225187D02*
G75*
G02*
X12506024Y-11294539I-41573J-27779D01*
G01*
X12353148Y-10975746D02*
X12519819Y-11225187D01*
X12283796Y-10961951D02*
G75*
G02*
X12353148Y-10975746I27779J-41574D01*
G01*
X12887353Y-10711949D02*
X12936393Y-10702195D01*
X12848069Y-10770743D02*
G75*
G02*
X12887353Y-10711949I49039J9755D01*
G01*
X12906596Y-11064979D02*
X12848069Y-10770743D01*
X12965389Y-11104264D02*
G75*
G02*
X12906596Y-11064979I-9755J49039D01*
G01*
X13014429Y-11094509D02*
X12965389Y-11104263D01*
X13053713Y-11035715D02*
G75*
G02*
X13014429Y-11094509I-49039J-9755D01*
G01*
X12995186Y-10741480D02*
X13053713Y-11035715D01*
X12936392Y-10702195D02*
G75*
G02*
X12995186Y-10741480I9755J-49039D01*
G01*
X13589678Y-10702195D02*
X13638718Y-10711949D01*
X13530885Y-10741480D02*
G75*
G02*
X13589678Y-10702195I49039J-9755D01*
G01*
X13472358Y-11035715D02*
X13530885Y-10741480D01*
X13511642Y-11094509D02*
G75*
G02*
X13472358Y-11035715I9755J49039D01*
G01*
X13560682Y-11104263D02*
X13511642Y-11094509D01*
X13619475Y-11064979D02*
G75*
G02*
X13560682Y-11104263I-49039J9755D01*
G01*
X13678002Y-10770743D02*
X13619475Y-11064979D01*
X13638718Y-10711949D02*
G75*
G02*
X13678002Y-10770743I-9755J-49039D01*
G01*
X14242275Y-10961951D02*
X14283849Y-10989730D01*
X14172923Y-10975746D02*
G75*
G02*
X14242275Y-10961951I41574J-27779D01*
G01*
X14006252Y-11225187D02*
X14172923Y-10975746D01*
X14020047Y-11294539D02*
G75*
G02*
X14006252Y-11225187I27779J41573D01*
G01*
X14061621Y-11322317D02*
X14020047Y-11294539D01*
X14130972Y-11308522D02*
G75*
G02*
X14061621Y-11322317I-41573J27779D01*
G01*
X14297644Y-11059082D02*
X14130973Y-11308522D01*
X14283849Y-10989730D02*
G75*
G02*
X14297644Y-11059082I-27779J-41574D01*
G01*
X14745792Y-11451672D02*
X14773570Y-11493246D01*
X14676440Y-11437877D02*
G75*
G02*
X14745792Y-11451672I27779J-41574D01*
G01*
X14426999Y-11604548D02*
X14676440Y-11437877D01*
X14413204Y-11673900D02*
G75*
G02*
X14426999Y-11604548I41574J27779D01*
G01*
X14440982Y-11715474D02*
X14413204Y-11673900D01*
X14510334Y-11729269D02*
G75*
G02*
X14440982Y-11715474I-27779J41573D01*
G01*
X14759775Y-11562598D02*
X14510334Y-11729269D01*
X14773570Y-11493246D02*
G75*
G02*
X14759775Y-11562598I-41574J-27779D01*
G01*
X15023572Y-12096803D02*
X15033326Y-12145843D01*
X14964778Y-12057519D02*
G75*
G02*
X15023572Y-12096803I9755J-49039D01*
G01*
X14670542Y-12116046D02*
X14964778Y-12057519D01*
X14631258Y-12174839D02*
G75*
G02*
X14670542Y-12116046I49039J9755D01*
G01*
X14641012Y-12223879D02*
X14631258Y-12174839D01*
X14699806Y-12263163D02*
G75*
G02*
X14641012Y-12223879I-9755J49039D01*
G01*
X14994042Y-12204636D02*
X14699806Y-12263163D01*
X15033326Y-12145842D02*
G75*
G02*
X14994042Y-12204636I-49039J-9755D01*
G01*
X15033326Y-12799128D02*
X15023572Y-12848168D01*
X14994041Y-12740335D02*
G75*
G02*
X15033326Y-12799128I-9755J-49039D01*
G01*
X14699806Y-12681808D02*
X14994042Y-12740335D01*
X14641012Y-12721092D02*
G75*
G02*
X14699806Y-12681808I49039J-9755D01*
G01*
X14631258Y-12770132D02*
X14641012Y-12721092D01*
X14670542Y-12828925D02*
G75*
G02*
X14631258Y-12770132I9755J49039D01*
G01*
X14964778Y-12887452D02*
X14670542Y-12828925D01*
X15023572Y-12848168D02*
G75*
G02*
X14964778Y-12887452I-49039J9755D01*
G01*
X14773570Y-13451725D02*
X14745792Y-13493299D01*
X14759775Y-13382373D02*
G75*
G02*
X14773570Y-13451725I-27779J-41574D01*
G01*
X14510334Y-13215702D02*
X14759775Y-13382373D01*
X14440982Y-13229497D02*
G75*
G02*
X14510334Y-13215702I41573J-27779D01*
G01*
X14413204Y-13271071D02*
X14440982Y-13229497D01*
X14426999Y-13340422D02*
G75*
G02*
X14413204Y-13271071I27779J41573D01*
G01*
X14676440Y-13507094D02*
X14426999Y-13340423D01*
X14745792Y-13493299D02*
G75*
G02*
X14676440Y-13507094I-41574J27779D01*
G01*
X14283849Y-13955241D02*
X14242275Y-13983020D01*
X14297644Y-13885889D02*
G75*
G02*
X14283849Y-13955241I-41574J-27779D01*
G01*
X14130973Y-13636449D02*
X14297644Y-13885889D01*
X14061621Y-13622654D02*
G75*
G02*
X14130973Y-13636449I27779J-41574D01*
G01*
X14020047Y-13650432D02*
X14061621Y-13622654D01*
X14006252Y-13719784D02*
G75*
G02*
X14020047Y-13650432I41573J27779D01*
G01*
X14172923Y-13969225D02*
X14006252Y-13719784D01*
X14242275Y-13983020D02*
G75*
G02*
X14172923Y-13969225I-27779J41574D01*
G01*
X13638718Y-14233022D02*
X13589678Y-14242776D01*
X13678002Y-14174228D02*
G75*
G02*
X13638718Y-14233022I-49039J-9755D01*
G01*
X13619475Y-13879992D02*
X13678002Y-14174228D01*
X13560682Y-13840707D02*
G75*
G02*
X13619475Y-13879992I9755J-49039D01*
G01*
X13511642Y-13850462D02*
X13560682Y-13840708D01*
X13472358Y-13909256D02*
G75*
G02*
X13511642Y-13850462I49039J9755D01*
G01*
X13530885Y-14203491D02*
X13472358Y-13909256D01*
X13589679Y-14242776D02*
G75*
G02*
X13530885Y-14203491I-9755J49039D01*
G01*
X12902385Y-14541889D02*
G75*
G02*
X12804307Y-14522380I-49039J9755D01*
G01*
X12823938Y-14423688D02*
X12804307Y-14522380D01*
X12823938Y-14423688D02*
G75*
G02*
X12544102Y-14338801I439098J1951203D01*
G01*
X12505594Y-14431767D02*
X12544102Y-14338801D01*
X12505594Y-14431767D02*
G75*
G02*
X12413206Y-14393498I-46194J19134D01*
G01*
X12451714Y-14300533D02*
X12413206Y-14393498D01*
X12451714Y-14300533D02*
G75*
G02*
X12193816Y-14162683I811322J1828047D01*
G01*
X12137911Y-14246350D02*
X12193816Y-14162683D01*
X12137912Y-14246350D02*
G75*
G02*
X12054765Y-14190793I-41574J27779D01*
G01*
X12110669Y-14107126D02*
X12054765Y-14190793D01*
X12110669Y-14107126D02*
G75*
G02*
X11884619Y-13921612I1152367J1634641D01*
G01*
X11813467Y-13992765D02*
X11884619Y-13921612D01*
X11813467Y-13992765D02*
G75*
G02*
X11742756Y-13922054I-35355J35355D01*
G01*
X11813909Y-13850902D02*
X11742756Y-13922054D01*
X11813909Y-13850902D02*
G75*
G02*
X11628395Y-13624852I1449127J1378416D01*
G01*
X11544728Y-13680756D02*
X11628395Y-13624852D01*
X11544728Y-13680756D02*
G75*
G02*
X11489171Y-13597610I-27779J41573D01*
G01*
X11572838Y-13541705D02*
X11489171Y-13597610D01*
X11572838Y-13541705D02*
G75*
G02*
X11434988Y-13283807I1690198J1069220D01*
G01*
X11342023Y-13322315D02*
X11434988Y-13283807D01*
X11342023Y-13322315D02*
G75*
G02*
X11303754Y-13229927I-19134J46194D01*
G01*
X11396720Y-13191419D02*
X11303754Y-13229927D01*
X11396720Y-13191419D02*
G75*
G02*
X11311833Y-12911583I1866316J718934D01*
G01*
X11213141Y-12931214D02*
X11311833Y-12911583D01*
X11213141Y-12931214D02*
G75*
G02*
X11193632Y-12833136I-9755J49039D01*
G01*
X11292324Y-12813505D02*
X11193632Y-12833136D01*
X11292323Y-12813505D02*
G75*
G02*
X11263661Y-12522485I1970712J341019D01*
G01*
X11163036Y-12522485D02*
X11263661Y-12522485D01*
X11163036Y-12522485D02*
G75*
G02*
X11163036Y-12422485I0J50000D01*
G01*
X11263661Y-12422485D02*
X11163036Y-12422485D01*
X11263661Y-12422485D02*
G75*
G02*
X11292324Y-12131466I1999375J-50000D01*
G01*
X11193632Y-12111835D02*
X11292324Y-12131466D01*
X11193632Y-12111835D02*
G75*
G02*
X11213141Y-12013757I9755J49039D01*
G01*
X11311833Y-12033388D02*
X11213141Y-12013757D01*
X11311833Y-12033388D02*
G75*
G02*
X11396720Y-11753552I1951203J-439098D01*
G01*
X11303754Y-11715044D02*
X11396720Y-11753552D01*
X11303754Y-11715044D02*
G75*
G02*
X11342023Y-11622656I19134J46194D01*
G01*
X11434988Y-11661164D02*
X11342023Y-11622656D01*
X11434988Y-11661164D02*
G75*
G02*
X11572838Y-11403266I1828047J-811322D01*
G01*
X11489171Y-11347361D02*
X11572838Y-11403266D01*
X11489171Y-11347362D02*
G75*
G02*
X11544728Y-11264215I27779J41574D01*
G01*
X11628395Y-11320119D02*
X11544728Y-11264215D01*
X11628395Y-11320119D02*
G75*
G02*
X11813909Y-11094069I1634641J-1152367D01*
G01*
X11742756Y-11022917D02*
X11813909Y-11094069D01*
X11742756Y-11022917D02*
G75*
G02*
X11813467Y-10952206I35355J35355D01*
G01*
X11884619Y-11023359D02*
X11813467Y-10952206D01*
X11884619Y-11023359D02*
G75*
G02*
X12110669Y-10837845I1378416J-1449127D01*
G01*
X12054765Y-10754178D02*
X12110669Y-10837845D01*
X12054765Y-10754178D02*
G75*
G02*
X12137911Y-10698621I41573J27779D01*
G01*
X12193816Y-10782288D02*
X12137911Y-10698621D01*
X12193816Y-10782288D02*
G75*
G02*
X12451714Y-10644438I1069220J-1690198D01*
G01*
X12413206Y-10551473D02*
X12451714Y-10644438D01*
X12413206Y-10551473D02*
G75*
G02*
X12505594Y-10513204I46194J19134D01*
G01*
X12544102Y-10606170D02*
X12505594Y-10513204D01*
X12544102Y-10606170D02*
G75*
G02*
X12823938Y-10521283I718934J-1866316D01*
G01*
X12804307Y-10422591D02*
X12823938Y-10521283D01*
X12804307Y-10422591D02*
G75*
G02*
X12902385Y-10403082I49039J9755D01*
G01*
X12922016Y-10501774D02*
X12902385Y-10403082D01*
X12922016Y-10501774D02*
G75*
G02*
X13213035Y-10473111I341020J-1970712D01*
G01*
X15075000Y-14810000D02*
G75*
G03*
X15075000Y-14810000I-150000J0D01*
G01*
M02*
