%TF.GenerationSoftware,KiCad,Pcbnew,5.1.7+dfsg1-1~bpo10+1*%
%TF.CreationDate,2020-11-15T21:32:18+00:00*%
%TF.ProjectId,mobo,6d6f626f-2e6b-4696-9361-645f70636258,rev?*%
%TF.SameCoordinates,Original*%
%TF.FileFunction,Other,User*%
%FSLAX45Y45*%
G04 Gerber Fmt 4.5, Leading zero omitted, Abs format (unit mm)*
G04 Created by KiCad (PCBNEW 5.1.7+dfsg1-1~bpo10+1) date 2020-11-15 21:32:18*
%MOMM*%
%LPD*%
G01*
G04 APERTURE LIST*
%TA.AperFunction,Profile*%
%ADD10C,0.200000*%
%TD*%
G04 APERTURE END LIST*
D10*
X10078686Y-16898000D02*
G75*
G03*
X10078686Y-16898000I-150000J0D01*
G01*
X9313000Y-16132314D02*
G75*
G03*
X9313000Y-16132314I-150000J0D01*
G01*
X18263000Y-11798000D02*
X16263000Y-11798000D01*
X18263000Y-13798000D02*
X18263000Y-11798000D01*
X10029424Y-10598000D02*
G75*
G03*
X10029424Y-10598000I-150000J0D01*
G01*
X20541427Y-13398000D02*
G75*
G03*
X20541427Y-13398000I-150000J0D01*
G01*
X8984826Y-10298000D02*
X18263000Y-10298000D01*
X7702340Y-11580485D02*
X8984826Y-10298000D01*
X10972211Y-13852451D02*
G75*
G03*
X10972211Y-13852451I-150000J0D01*
G01*
X15074964Y-14810514D02*
G75*
G03*
X15074964Y-14810514I-150000J0D01*
G01*
X11675420Y-14754866D02*
G75*
G03*
X11675420Y-14754866I-150000J0D01*
G01*
X16263000Y-17298000D02*
X9763000Y-17298000D01*
X16263000Y-11798000D02*
X16263000Y-17298000D01*
X13413000Y-12473000D02*
G75*
G03*
X13413000Y-12473000I-150000J0D01*
G01*
X9413000Y-14555359D02*
G75*
G03*
X9413000Y-14555359I-150000J0D01*
G01*
X7702340Y-12994699D02*
X7702340Y-11580485D01*
X8763000Y-14055359D02*
X7702340Y-12994699D01*
X15807333Y-13931598D02*
G75*
G03*
X15807333Y-13931598I-150000J0D01*
G01*
X8763000Y-16298000D02*
X8763000Y-14055359D01*
X9763000Y-17298000D02*
X8763000Y-16298000D01*
X22650482Y-13798000D02*
X18263000Y-13798000D01*
X18263000Y-10298000D02*
G75*
G02*
X22650482Y-13798000I0J-4500000D01*
G01*
X16013000Y-12198000D02*
G75*
G03*
X16013000Y-12198000I-150000J0D01*
G01*
M02*
