%TF.GenerationSoftware,KiCad,Pcbnew,5.1.7+dfsg1-1~bpo10+1*%
%TF.CreationDate,2020-11-15T21:32:18+00:00*%
%TF.ProjectId,mobo,6d6f626f-2e6b-4696-9361-645f70636258,rev?*%
%TF.SameCoordinates,Original*%
%TF.FileFunction,Paste,Top*%
%TF.FilePolarity,Positive*%
%FSLAX45Y45*%
G04 Gerber Fmt 4.5, Leading zero omitted, Abs format (unit mm)*
G04 Created by KiCad (PCBNEW 5.1.7+dfsg1-1~bpo10+1) date 2020-11-15 21:32:18*
%MOMM*%
%LPD*%
G01*
G04 APERTURE LIST*
%TA.AperFunction,Profile*%
%ADD10C,0.200000*%
%TD*%
%ADD11C,0.150000*%
%ADD12R,1.600000X0.550000*%
%ADD13R,0.550000X1.600000*%
%ADD14R,0.950000X0.970000*%
%ADD15R,1.150000X0.970000*%
%ADD16R,0.950000X0.850000*%
%ADD17R,1.150000X0.850000*%
%ADD18R,1.900000X0.400000*%
%ADD19R,2.000000X10.000000*%
%ADD20R,0.250000X0.500000*%
%ADD21R,0.650000X0.750000*%
%ADD22R,1.550000X1.000000*%
G04 APERTURE END LIST*
D10*
X10078686Y-16898000D02*
G75*
G03*
X10078686Y-16898000I-150000J0D01*
G01*
X9313000Y-16132314D02*
G75*
G03*
X9313000Y-16132314I-150000J0D01*
G01*
X18263000Y-11798000D02*
X16263000Y-11798000D01*
X18263000Y-13798000D02*
X18263000Y-11798000D01*
X10029424Y-10598000D02*
G75*
G03*
X10029424Y-10598000I-150000J0D01*
G01*
X20541427Y-13398000D02*
G75*
G03*
X20541427Y-13398000I-150000J0D01*
G01*
X8984826Y-10298000D02*
X18263000Y-10298000D01*
X7702340Y-11580485D02*
X8984826Y-10298000D01*
X10972211Y-13852451D02*
G75*
G03*
X10972211Y-13852451I-150000J0D01*
G01*
X15074964Y-14810514D02*
G75*
G03*
X15074964Y-14810514I-150000J0D01*
G01*
X11675420Y-14754866D02*
G75*
G03*
X11675420Y-14754866I-150000J0D01*
G01*
X16263000Y-17298000D02*
X9763000Y-17298000D01*
X16263000Y-11798000D02*
X16263000Y-17298000D01*
X13413000Y-12473000D02*
G75*
G03*
X13413000Y-12473000I-150000J0D01*
G01*
X9413000Y-14555359D02*
G75*
G03*
X9413000Y-14555359I-150000J0D01*
G01*
X7702340Y-12994699D02*
X7702340Y-11580485D01*
X8763000Y-14055359D02*
X7702340Y-12994699D01*
X15807333Y-13931598D02*
G75*
G03*
X15807333Y-13931598I-150000J0D01*
G01*
X8763000Y-16298000D02*
X8763000Y-14055359D01*
X9763000Y-17298000D02*
X8763000Y-16298000D01*
X22650482Y-13798000D02*
X18263000Y-13798000D01*
X18263000Y-10298000D02*
G75*
G02*
X22650482Y-13798000I0J-4500000D01*
G01*
X16013000Y-12198000D02*
G75*
G03*
X16013000Y-12198000I-150000J0D01*
G01*
G36*
G01*
X16045625Y-16162500D02*
X15954375Y-16162500D01*
G75*
G02*
X15930000Y-16138125I0J24375D01*
G01*
X15930000Y-16089375D01*
G75*
G02*
X15954375Y-16065000I24375J0D01*
G01*
X16045625Y-16065000D01*
G75*
G02*
X16070000Y-16089375I0J-24375D01*
G01*
X16070000Y-16138125D01*
G75*
G02*
X16045625Y-16162500I-24375J0D01*
G01*
G37*
G36*
G01*
X16045625Y-15975000D02*
X15954375Y-15975000D01*
G75*
G02*
X15930000Y-15950625I0J24375D01*
G01*
X15930000Y-15901875D01*
G75*
G02*
X15954375Y-15877500I24375J0D01*
G01*
X16045625Y-15877500D01*
G75*
G02*
X16070000Y-15901875I0J-24375D01*
G01*
X16070000Y-15950625D01*
G75*
G02*
X16045625Y-15975000I-24375J0D01*
G01*
G37*
D11*
G36*
X8555165Y-11044332D02*
G01*
X8625876Y-11115043D01*
X8516274Y-11224645D01*
X8445564Y-11153934D01*
X8555165Y-11044332D01*
G37*
G36*
X8183934Y-11415563D02*
G01*
X8254645Y-11486274D01*
X8145043Y-11595876D01*
X8074332Y-11525165D01*
X8183934Y-11415563D01*
G37*
G36*
X8063726Y-11295355D02*
G01*
X8134436Y-11366066D01*
X8024835Y-11475668D01*
X7954124Y-11404957D01*
X8063726Y-11295355D01*
G37*
G36*
X8434957Y-10924124D02*
G01*
X8505668Y-10994835D01*
X8396066Y-11104437D01*
X8325355Y-11033726D01*
X8434957Y-10924124D01*
G37*
G36*
G01*
X14565000Y-15954375D02*
X14565000Y-16045625D01*
G75*
G02*
X14540625Y-16070000I-24375J0D01*
G01*
X14491875Y-16070000D01*
G75*
G02*
X14467500Y-16045625I0J24375D01*
G01*
X14467500Y-15954375D01*
G75*
G02*
X14491875Y-15930000I24375J0D01*
G01*
X14540625Y-15930000D01*
G75*
G02*
X14565000Y-15954375I0J-24375D01*
G01*
G37*
G36*
G01*
X14752500Y-15954375D02*
X14752500Y-16045625D01*
G75*
G02*
X14728125Y-16070000I-24375J0D01*
G01*
X14679375Y-16070000D01*
G75*
G02*
X14655000Y-16045625I0J24375D01*
G01*
X14655000Y-15954375D01*
G75*
G02*
X14679375Y-15930000I24375J0D01*
G01*
X14728125Y-15930000D01*
G75*
G02*
X14752500Y-15954375I0J-24375D01*
G01*
G37*
G36*
G01*
X14330500Y-16861425D02*
X14330500Y-16770175D01*
G75*
G02*
X14354875Y-16745800I24375J0D01*
G01*
X14403625Y-16745800D01*
G75*
G02*
X14428000Y-16770175I0J-24375D01*
G01*
X14428000Y-16861425D01*
G75*
G02*
X14403625Y-16885800I-24375J0D01*
G01*
X14354875Y-16885800D01*
G75*
G02*
X14330500Y-16861425I0J24375D01*
G01*
G37*
G36*
G01*
X14143000Y-16861425D02*
X14143000Y-16770175D01*
G75*
G02*
X14167375Y-16745800I24375J0D01*
G01*
X14216125Y-16745800D01*
G75*
G02*
X14240500Y-16770175I0J-24375D01*
G01*
X14240500Y-16861425D01*
G75*
G02*
X14216125Y-16885800I-24375J0D01*
G01*
X14167375Y-16885800D01*
G75*
G02*
X14143000Y-16861425I0J24375D01*
G01*
G37*
G36*
G01*
X7863124Y-12042500D02*
X7771874Y-12042500D01*
G75*
G02*
X7747499Y-12018125I0J24375D01*
G01*
X7747499Y-11969375D01*
G75*
G02*
X7771874Y-11945000I24375J0D01*
G01*
X7863124Y-11945000D01*
G75*
G02*
X7887499Y-11969375I0J-24375D01*
G01*
X7887499Y-12018125D01*
G75*
G02*
X7863124Y-12042500I-24375J0D01*
G01*
G37*
G36*
G01*
X7863124Y-11855000D02*
X7771874Y-11855000D01*
G75*
G02*
X7747499Y-11830625I0J24375D01*
G01*
X7747499Y-11781875D01*
G75*
G02*
X7771874Y-11757500I24375J0D01*
G01*
X7863124Y-11757500D01*
G75*
G02*
X7887499Y-11781875I0J-24375D01*
G01*
X7887499Y-11830625D01*
G75*
G02*
X7863124Y-11855000I-24375J0D01*
G01*
G37*
G36*
G01*
X7861328Y-12255000D02*
X7770078Y-12255000D01*
G75*
G02*
X7745703Y-12230625I0J24375D01*
G01*
X7745703Y-12181875D01*
G75*
G02*
X7770078Y-12157500I24375J0D01*
G01*
X7861328Y-12157500D01*
G75*
G02*
X7885703Y-12181875I0J-24375D01*
G01*
X7885703Y-12230625D01*
G75*
G02*
X7861328Y-12255000I-24375J0D01*
G01*
G37*
G36*
G01*
X7861328Y-12442500D02*
X7770078Y-12442500D01*
G75*
G02*
X7745703Y-12418125I0J24375D01*
G01*
X7745703Y-12369375D01*
G75*
G02*
X7770078Y-12345000I24375J0D01*
G01*
X7861328Y-12345000D01*
G75*
G02*
X7885703Y-12369375I0J-24375D01*
G01*
X7885703Y-12418125D01*
G75*
G02*
X7861328Y-12442500I-24375J0D01*
G01*
G37*
G36*
G01*
X8095000Y-12060000D02*
X8005000Y-12060000D01*
G75*
G02*
X7980000Y-12035000I0J25000D01*
G01*
X7980000Y-11970000D01*
G75*
G02*
X8005000Y-11945000I25000J0D01*
G01*
X8095000Y-11945000D01*
G75*
G02*
X8120000Y-11970000I0J-25000D01*
G01*
X8120000Y-12035000D01*
G75*
G02*
X8095000Y-12060000I-25000J0D01*
G01*
G37*
G36*
G01*
X8095000Y-11855000D02*
X8005000Y-11855000D01*
G75*
G02*
X7980000Y-11830000I0J25000D01*
G01*
X7980000Y-11765000D01*
G75*
G02*
X8005000Y-11740000I25000J0D01*
G01*
X8095000Y-11740000D01*
G75*
G02*
X8120000Y-11765000I0J-25000D01*
G01*
X8120000Y-11830000D01*
G75*
G02*
X8095000Y-11855000I-25000J0D01*
G01*
G37*
G36*
G01*
X8095985Y-12255000D02*
X8005985Y-12255000D01*
G75*
G02*
X7980985Y-12230000I0J25000D01*
G01*
X7980985Y-12165000D01*
G75*
G02*
X8005985Y-12140000I25000J0D01*
G01*
X8095985Y-12140000D01*
G75*
G02*
X8120985Y-12165000I0J-25000D01*
G01*
X8120985Y-12230000D01*
G75*
G02*
X8095985Y-12255000I-25000J0D01*
G01*
G37*
G36*
G01*
X8095985Y-12460000D02*
X8005985Y-12460000D01*
G75*
G02*
X7980985Y-12435000I0J25000D01*
G01*
X7980985Y-12370000D01*
G75*
G02*
X8005985Y-12345000I25000J0D01*
G01*
X8095985Y-12345000D01*
G75*
G02*
X8120985Y-12370000I0J-25000D01*
G01*
X8120985Y-12435000D01*
G75*
G02*
X8095985Y-12460000I-25000J0D01*
G01*
G37*
G36*
G01*
X12895000Y-13915000D02*
X12985000Y-13915000D01*
G75*
G02*
X13010000Y-13940000I0J-25000D01*
G01*
X13010000Y-14005000D01*
G75*
G02*
X12985000Y-14030000I-25000J0D01*
G01*
X12895000Y-14030000D01*
G75*
G02*
X12870000Y-14005000I0J25000D01*
G01*
X12870000Y-13940000D01*
G75*
G02*
X12895000Y-13915000I25000J0D01*
G01*
G37*
G36*
G01*
X12895000Y-14120000D02*
X12985000Y-14120000D01*
G75*
G02*
X13010000Y-14145000I0J-25000D01*
G01*
X13010000Y-14210000D01*
G75*
G02*
X12985000Y-14235000I-25000J0D01*
G01*
X12895000Y-14235000D01*
G75*
G02*
X12870000Y-14210000I0J25000D01*
G01*
X12870000Y-14145000D01*
G75*
G02*
X12895000Y-14120000I25000J0D01*
G01*
G37*
G36*
G01*
X13620000Y-14230000D02*
X13530000Y-14230000D01*
G75*
G02*
X13505000Y-14205000I0J25000D01*
G01*
X13505000Y-14140000D01*
G75*
G02*
X13530000Y-14115000I25000J0D01*
G01*
X13620000Y-14115000D01*
G75*
G02*
X13645000Y-14140000I0J-25000D01*
G01*
X13645000Y-14205000D01*
G75*
G02*
X13620000Y-14230000I-25000J0D01*
G01*
G37*
G36*
G01*
X13620000Y-14025000D02*
X13530000Y-14025000D01*
G75*
G02*
X13505000Y-14000000I0J25000D01*
G01*
X13505000Y-13935000D01*
G75*
G02*
X13530000Y-13910000I25000J0D01*
G01*
X13620000Y-13910000D01*
G75*
G02*
X13645000Y-13935000I0J-25000D01*
G01*
X13645000Y-14000000D01*
G75*
G02*
X13620000Y-14025000I-25000J0D01*
G01*
G37*
G36*
G01*
X14013700Y-16770800D02*
X14013700Y-16860800D01*
G75*
G02*
X13988700Y-16885800I-25000J0D01*
G01*
X13923700Y-16885800D01*
G75*
G02*
X13898700Y-16860800I0J25000D01*
G01*
X13898700Y-16770800D01*
G75*
G02*
X13923700Y-16745800I25000J0D01*
G01*
X13988700Y-16745800D01*
G75*
G02*
X14013700Y-16770800I0J-25000D01*
G01*
G37*
G36*
G01*
X13808700Y-16770800D02*
X13808700Y-16860800D01*
G75*
G02*
X13783700Y-16885800I-25000J0D01*
G01*
X13718700Y-16885800D01*
G75*
G02*
X13693700Y-16860800I0J25000D01*
G01*
X13693700Y-16770800D01*
G75*
G02*
X13718700Y-16745800I25000J0D01*
G01*
X13783700Y-16745800D01*
G75*
G02*
X13808700Y-16770800I0J-25000D01*
G01*
G37*
D12*
X14935000Y-15760000D03*
X14935000Y-15840000D03*
X14935000Y-15920000D03*
X14935000Y-16000000D03*
X14935000Y-16080000D03*
X14935000Y-16160000D03*
X14935000Y-16240000D03*
X14935000Y-16320000D03*
D13*
X15080000Y-16465000D03*
X15160000Y-16465000D03*
X15240000Y-16465000D03*
X15320000Y-16465000D03*
X15400000Y-16465000D03*
X15480000Y-16465000D03*
X15560000Y-16465000D03*
X15640000Y-16465000D03*
D12*
X15785000Y-16320000D03*
X15785000Y-16240000D03*
X15785000Y-16160000D03*
X15785000Y-16080000D03*
X15785000Y-16000000D03*
X15785000Y-15920000D03*
X15785000Y-15840000D03*
X15785000Y-15760000D03*
D13*
X15640000Y-15615000D03*
X15560000Y-15615000D03*
X15480000Y-15615000D03*
X15400000Y-15615000D03*
X15320000Y-15615000D03*
X15240000Y-15615000D03*
X15160000Y-15615000D03*
X15080000Y-15615000D03*
D14*
X13180000Y-14132500D03*
D15*
X13320000Y-14132500D03*
D16*
X13180000Y-14012500D03*
D17*
X13320000Y-14012500D03*
D18*
X14573300Y-16429800D03*
X14573300Y-16309800D03*
X14573300Y-16189800D03*
D19*
X18478500Y-13250000D03*
X18732500Y-13250000D03*
X18986500Y-13250000D03*
X19240500Y-13250000D03*
D11*
G36*
X8994957Y-10364124D02*
G01*
X9065668Y-10434835D01*
X8956066Y-10544437D01*
X8885355Y-10473726D01*
X8994957Y-10364124D01*
G37*
G36*
X8623726Y-10735355D02*
G01*
X8694437Y-10806066D01*
X8584835Y-10915668D01*
X8514124Y-10844957D01*
X8623726Y-10735355D01*
G37*
G36*
X8743934Y-10855564D02*
G01*
X8814645Y-10926274D01*
X8705043Y-11035876D01*
X8634332Y-10965165D01*
X8743934Y-10855564D01*
G37*
G36*
X9115165Y-10484332D02*
G01*
X9185876Y-10555043D01*
X9076274Y-10664645D01*
X9005564Y-10593934D01*
X9115165Y-10484332D01*
G37*
G36*
G01*
X13803725Y-16156500D02*
X13712475Y-16156500D01*
G75*
G02*
X13688100Y-16132125I0J24375D01*
G01*
X13688100Y-16083375D01*
G75*
G02*
X13712475Y-16059000I24375J0D01*
G01*
X13803725Y-16059000D01*
G75*
G02*
X13828100Y-16083375I0J-24375D01*
G01*
X13828100Y-16132125D01*
G75*
G02*
X13803725Y-16156500I-24375J0D01*
G01*
G37*
G36*
G01*
X13803725Y-15969000D02*
X13712475Y-15969000D01*
G75*
G02*
X13688100Y-15944625I0J24375D01*
G01*
X13688100Y-15895875D01*
G75*
G02*
X13712475Y-15871500I24375J0D01*
G01*
X13803725Y-15871500D01*
G75*
G02*
X13828100Y-15895875I0J-24375D01*
G01*
X13828100Y-15944625D01*
G75*
G02*
X13803725Y-15969000I-24375J0D01*
G01*
G37*
G36*
G01*
X13458475Y-16059000D02*
X13549725Y-16059000D01*
G75*
G02*
X13574100Y-16083375I0J-24375D01*
G01*
X13574100Y-16132125D01*
G75*
G02*
X13549725Y-16156500I-24375J0D01*
G01*
X13458475Y-16156500D01*
G75*
G02*
X13434100Y-16132125I0J24375D01*
G01*
X13434100Y-16083375D01*
G75*
G02*
X13458475Y-16059000I24375J0D01*
G01*
G37*
G36*
G01*
X13458475Y-15871500D02*
X13549725Y-15871500D01*
G75*
G02*
X13574100Y-15895875I0J-24375D01*
G01*
X13574100Y-15944625D01*
G75*
G02*
X13549725Y-15969000I-24375J0D01*
G01*
X13458475Y-15969000D01*
G75*
G02*
X13434100Y-15944625I0J24375D01*
G01*
X13434100Y-15895875D01*
G75*
G02*
X13458475Y-15871500I24375J0D01*
G01*
G37*
D20*
X13199700Y-15919000D03*
X13249700Y-16109000D03*
X13299700Y-16109000D03*
X13299700Y-15919000D03*
X13249700Y-15919000D03*
X13149700Y-15919000D03*
X13149700Y-16109000D03*
X13199700Y-16109000D03*
D21*
X13184700Y-16014000D03*
X13264700Y-16014000D03*
D22*
X14707500Y-16925000D03*
X15232500Y-16925000D03*
X15232500Y-17095000D03*
X14707500Y-17095000D03*
D11*
G36*
X9864160Y-12653119D02*
G01*
X9736881Y-12525840D01*
X9842947Y-12419774D01*
X9970226Y-12547053D01*
X9864160Y-12653119D01*
G37*
G36*
X9510607Y-13006673D02*
G01*
X9383327Y-12879393D01*
X9489393Y-12773327D01*
X9616673Y-12900607D01*
X9510607Y-13006673D01*
G37*
G36*
X9687383Y-12829896D02*
G01*
X9560104Y-12702617D01*
X9666170Y-12596551D01*
X9793449Y-12723830D01*
X9687383Y-12829896D01*
G37*
M02*
