%TF.GenerationSoftware,KiCad,Pcbnew,5.1.7+dfsg1-1~bpo10+1*%
%TF.CreationDate,2020-11-15T21:32:18+00:00*%
%TF.ProjectId,mobo,6d6f626f-2e6b-4696-9361-645f70636258,rev?*%
%TF.SameCoordinates,Original*%
%TF.FileFunction,Legend,Top*%
%TF.FilePolarity,Positive*%
%FSLAX45Y45*%
G04 Gerber Fmt 4.5, Leading zero omitted, Abs format (unit mm)*
G04 Created by KiCad (PCBNEW 5.1.7+dfsg1-1~bpo10+1) date 2020-11-15 21:32:18*
%MOMM*%
%LPD*%
G01*
G04 APERTURE LIST*
%ADD10C,0.150000*%
%TA.AperFunction,Profile*%
%ADD11C,0.200000*%
%TD*%
%ADD12C,0.200000*%
%ADD13C,0.120000*%
%ADD14O,1.802000X1.802000*%
G04 APERTURE END LIST*
D10*
X14824762Y-16795238D02*
X14791428Y-16747619D01*
X14767619Y-16795238D02*
X14767619Y-16695238D01*
X14805714Y-16695238D01*
X14815238Y-16700000D01*
X14820000Y-16704762D01*
X14824762Y-16714286D01*
X14824762Y-16728571D01*
X14820000Y-16738095D01*
X14815238Y-16742857D01*
X14805714Y-16747619D01*
X14767619Y-16747619D01*
X14867619Y-16742857D02*
X14900952Y-16742857D01*
X14915238Y-16795238D02*
X14867619Y-16795238D01*
X14867619Y-16695238D01*
X14915238Y-16695238D01*
X14953333Y-16790476D02*
X14967619Y-16795238D01*
X14991428Y-16795238D01*
X15000952Y-16790476D01*
X15005714Y-16785714D01*
X15010476Y-16776190D01*
X15010476Y-16766667D01*
X15005714Y-16757143D01*
X15000952Y-16752381D01*
X14991428Y-16747619D01*
X14972381Y-16742857D01*
X14962857Y-16738095D01*
X14958095Y-16733333D01*
X14953333Y-16723809D01*
X14953333Y-16714286D01*
X14958095Y-16704762D01*
X14962857Y-16700000D01*
X14972381Y-16695238D01*
X14996190Y-16695238D01*
X15010476Y-16700000D01*
X15053333Y-16742857D02*
X15086667Y-16742857D01*
X15100952Y-16795238D02*
X15053333Y-16795238D01*
X15053333Y-16695238D01*
X15100952Y-16695238D01*
X15129524Y-16695238D02*
X15186667Y-16695238D01*
X15158095Y-16795238D02*
X15158095Y-16695238D01*
X15872381Y-16655238D02*
X15872381Y-16555238D01*
X15977143Y-16645714D02*
X15972381Y-16650476D01*
X15958095Y-16655238D01*
X15948571Y-16655238D01*
X15934286Y-16650476D01*
X15924762Y-16640952D01*
X15920000Y-16631428D01*
X15915238Y-16612381D01*
X15915238Y-16598095D01*
X15920000Y-16579048D01*
X15924762Y-16569524D01*
X15934286Y-16560000D01*
X15948571Y-16555238D01*
X15958095Y-16555238D01*
X15972381Y-16560000D01*
X15977143Y-16564762D01*
X16015238Y-16650476D02*
X16029524Y-16655238D01*
X16053333Y-16655238D01*
X16062857Y-16650476D01*
X16067619Y-16645714D01*
X16072381Y-16636190D01*
X16072381Y-16626667D01*
X16067619Y-16617143D01*
X16062857Y-16612381D01*
X16053333Y-16607619D01*
X16034286Y-16602857D01*
X16024762Y-16598095D01*
X16020000Y-16593333D01*
X16015238Y-16583809D01*
X16015238Y-16574286D01*
X16020000Y-16564762D01*
X16024762Y-16560000D01*
X16034286Y-16555238D01*
X16058095Y-16555238D01*
X16072381Y-16560000D01*
X16115238Y-16655238D02*
X16115238Y-16555238D01*
X16153333Y-16555238D01*
X16162857Y-16560000D01*
X16167619Y-16564762D01*
X16172381Y-16574286D01*
X16172381Y-16588571D01*
X16167619Y-16598095D01*
X16162857Y-16602857D01*
X16153333Y-16607619D01*
X16115238Y-16607619D01*
X12749048Y-16455238D02*
X12806190Y-16455238D01*
X12777619Y-16555238D02*
X12777619Y-16455238D01*
X12839524Y-16555238D02*
X12839524Y-16455238D01*
X12863333Y-16455238D01*
X12877619Y-16460000D01*
X12887143Y-16469524D01*
X12891905Y-16479048D01*
X12896667Y-16498095D01*
X12896667Y-16512381D01*
X12891905Y-16531428D01*
X12887143Y-16540952D01*
X12877619Y-16550476D01*
X12863333Y-16555238D01*
X12839524Y-16555238D01*
X12958571Y-16455238D02*
X12977619Y-16455238D01*
X12987143Y-16460000D01*
X12996667Y-16469524D01*
X13001428Y-16488571D01*
X13001428Y-16521905D01*
X12996667Y-16540952D01*
X12987143Y-16550476D01*
X12977619Y-16555238D01*
X12958571Y-16555238D01*
X12949048Y-16550476D01*
X12939524Y-16540952D01*
X12934762Y-16521905D01*
X12934762Y-16488571D01*
X12939524Y-16469524D01*
X12949048Y-16460000D01*
X12958571Y-16455238D01*
X12530476Y-17065238D02*
X12530476Y-17146190D01*
X12535238Y-17155714D01*
X12540000Y-17160476D01*
X12549524Y-17165238D01*
X12568571Y-17165238D01*
X12578095Y-17160476D01*
X12582857Y-17155714D01*
X12587619Y-17146190D01*
X12587619Y-17065238D01*
X12630476Y-17136667D02*
X12678095Y-17136667D01*
X12620952Y-17165238D02*
X12654286Y-17065238D01*
X12687619Y-17165238D01*
X12778095Y-17165238D02*
X12744762Y-17117619D01*
X12720952Y-17165238D02*
X12720952Y-17065238D01*
X12759048Y-17065238D01*
X12768571Y-17070000D01*
X12773333Y-17074762D01*
X12778095Y-17084286D01*
X12778095Y-17098571D01*
X12773333Y-17108095D01*
X12768571Y-17112857D01*
X12759048Y-17117619D01*
X12720952Y-17117619D01*
X12806667Y-17065238D02*
X12863809Y-17065238D01*
X12835238Y-17165238D02*
X12835238Y-17065238D01*
D11*
X10078686Y-16898000D02*
G75*
G03*
X10078686Y-16898000I-150000J0D01*
G01*
X9313000Y-16132314D02*
G75*
G03*
X9313000Y-16132314I-150000J0D01*
G01*
X18263000Y-11798000D02*
X16263000Y-11798000D01*
X18263000Y-13798000D02*
X18263000Y-11798000D01*
X10029424Y-10598000D02*
G75*
G03*
X10029424Y-10598000I-150000J0D01*
G01*
X20541427Y-13398000D02*
G75*
G03*
X20541427Y-13398000I-150000J0D01*
G01*
X8984826Y-10298000D02*
X18263000Y-10298000D01*
X7702340Y-11580485D02*
X8984826Y-10298000D01*
X10972211Y-13852451D02*
G75*
G03*
X10972211Y-13852451I-150000J0D01*
G01*
X15074964Y-14810514D02*
G75*
G03*
X15074964Y-14810514I-150000J0D01*
G01*
X11675420Y-14754866D02*
G75*
G03*
X11675420Y-14754866I-150000J0D01*
G01*
X16263000Y-17298000D02*
X9763000Y-17298000D01*
X16263000Y-11798000D02*
X16263000Y-17298000D01*
X13413000Y-12473000D02*
G75*
G03*
X13413000Y-12473000I-150000J0D01*
G01*
X9413000Y-14555359D02*
G75*
G03*
X9413000Y-14555359I-150000J0D01*
G01*
X7702340Y-12994699D02*
X7702340Y-11580485D01*
X8763000Y-14055359D02*
X7702340Y-12994699D01*
X15807333Y-13931598D02*
G75*
G03*
X15807333Y-13931598I-150000J0D01*
G01*
X8763000Y-16298000D02*
X8763000Y-14055359D01*
X9763000Y-17298000D02*
X8763000Y-16298000D01*
X22650482Y-13798000D02*
X18263000Y-13798000D01*
X18263000Y-10298000D02*
G75*
G02*
X22650482Y-13798000I0J-4500000D01*
G01*
X16013000Y-12198000D02*
G75*
G03*
X16013000Y-12198000I-150000J0D01*
G01*
D12*
X19189900Y-12556590D02*
X19185138Y-12566114D01*
X19185138Y-12580400D01*
X19189900Y-12594686D01*
X19199424Y-12604209D01*
X19208948Y-12608971D01*
X19227995Y-12613733D01*
X19242281Y-12613733D01*
X19261329Y-12608971D01*
X19270852Y-12604209D01*
X19280376Y-12594686D01*
X19285138Y-12580400D01*
X19285138Y-12570876D01*
X19280376Y-12556590D01*
X19275614Y-12551828D01*
X19242281Y-12551828D01*
X19242281Y-12570876D01*
X19285138Y-12508971D02*
X19185138Y-12508971D01*
X19285138Y-12451828D01*
X19185138Y-12451828D01*
X19285138Y-12404209D02*
X19185138Y-12404209D01*
X19185138Y-12380400D01*
X19189900Y-12366114D01*
X19199424Y-12356590D01*
X19208948Y-12351828D01*
X19227995Y-12347067D01*
X19242281Y-12347067D01*
X19261329Y-12351828D01*
X19270852Y-12356590D01*
X19280376Y-12366114D01*
X19285138Y-12380400D01*
X19285138Y-12404209D01*
X19026376Y-12612148D02*
X19031138Y-12597862D01*
X19031138Y-12574052D01*
X19026376Y-12564528D01*
X19021614Y-12559767D01*
X19012090Y-12555005D01*
X19002567Y-12555005D01*
X18993043Y-12559767D01*
X18988281Y-12564528D01*
X18983519Y-12574052D01*
X18978757Y-12593100D01*
X18973995Y-12602624D01*
X18969233Y-12607386D01*
X18959710Y-12612148D01*
X18950186Y-12612148D01*
X18940662Y-12607386D01*
X18935900Y-12602624D01*
X18931138Y-12593100D01*
X18931138Y-12569290D01*
X18935900Y-12555005D01*
X19021614Y-12455005D02*
X19026376Y-12459767D01*
X19031138Y-12474052D01*
X19031138Y-12483576D01*
X19026376Y-12497862D01*
X19016852Y-12507386D01*
X19007329Y-12512148D01*
X18988281Y-12516909D01*
X18973995Y-12516909D01*
X18954948Y-12512148D01*
X18945424Y-12507386D01*
X18935900Y-12497862D01*
X18931138Y-12483576D01*
X18931138Y-12474052D01*
X18935900Y-12459767D01*
X18940662Y-12455005D01*
X19031138Y-12364528D02*
X19031138Y-12412148D01*
X18931138Y-12412148D01*
X18772376Y-12614528D02*
X18777138Y-12600243D01*
X18777138Y-12576433D01*
X18772376Y-12566909D01*
X18767614Y-12562148D01*
X18758090Y-12557386D01*
X18748567Y-12557386D01*
X18739043Y-12562148D01*
X18734281Y-12566909D01*
X18729519Y-12576433D01*
X18724757Y-12595481D01*
X18719995Y-12605005D01*
X18715233Y-12609767D01*
X18705710Y-12614528D01*
X18696186Y-12614528D01*
X18686662Y-12609767D01*
X18681900Y-12605005D01*
X18677138Y-12595481D01*
X18677138Y-12571671D01*
X18681900Y-12557386D01*
X18777138Y-12514528D02*
X18677138Y-12514528D01*
X18677138Y-12490719D01*
X18681900Y-12476433D01*
X18691424Y-12466909D01*
X18700948Y-12462148D01*
X18719995Y-12457386D01*
X18734281Y-12457386D01*
X18753329Y-12462148D01*
X18762852Y-12466909D01*
X18772376Y-12476433D01*
X18777138Y-12490719D01*
X18777138Y-12514528D01*
X18748567Y-12419290D02*
X18748567Y-12371671D01*
X18777138Y-12428814D02*
X18677138Y-12395481D01*
X18777138Y-12362148D01*
X18423138Y-12562948D02*
X18423138Y-12610567D01*
X18470757Y-12615328D01*
X18465995Y-12610567D01*
X18461233Y-12601043D01*
X18461233Y-12577233D01*
X18465995Y-12567709D01*
X18470757Y-12562948D01*
X18480281Y-12558186D01*
X18504090Y-12558186D01*
X18513614Y-12562948D01*
X18518376Y-12567709D01*
X18523138Y-12577233D01*
X18523138Y-12601043D01*
X18518376Y-12610567D01*
X18513614Y-12615328D01*
X18423138Y-12529614D02*
X18523138Y-12496281D01*
X18423138Y-12462948D01*
D13*
X16071000Y-16045858D02*
X16071000Y-15994142D01*
X15929000Y-16045858D02*
X15929000Y-15994142D01*
X8058422Y-11229948D02*
X7993015Y-11295355D01*
X8482687Y-11106204D02*
X8443796Y-11067313D01*
X8136204Y-11452687D02*
X8097313Y-11413796D01*
X8586985Y-11224645D02*
X8254645Y-11556985D01*
X8325355Y-10963015D02*
X8259948Y-11028423D01*
X14635858Y-16071000D02*
X14584142Y-16071000D01*
X14635858Y-15929000D02*
X14584142Y-15929000D01*
X14259642Y-16744800D02*
X14311358Y-16744800D01*
X14259642Y-16886800D02*
X14311358Y-16886800D01*
X7913499Y-12068500D02*
X7913499Y-11800000D01*
X7721499Y-12068500D02*
X7913499Y-12068500D01*
X7721499Y-11800000D02*
X7721499Y-12068500D01*
X7719703Y-12200000D02*
X7719703Y-12468500D01*
X7719703Y-12468500D02*
X7911703Y-12468500D01*
X7911703Y-12468500D02*
X7911703Y-12200000D01*
X15427000Y-17233000D02*
X15427000Y-17100000D01*
X15560000Y-17233000D02*
X15427000Y-17233000D01*
X15427000Y-16973000D02*
X15427000Y-16713000D01*
X15687000Y-16973000D02*
X15427000Y-16973000D01*
X15687000Y-17233000D02*
X15687000Y-16973000D01*
X15427000Y-16713000D02*
X16201000Y-16713000D01*
X15687000Y-17233000D02*
X16201000Y-17233000D01*
X16201000Y-17233000D02*
X16201000Y-16713000D01*
X8121000Y-11926125D02*
X8121000Y-11873875D01*
X7979000Y-11926125D02*
X7979000Y-11873875D01*
X7979985Y-12326125D02*
X7979985Y-12273875D01*
X8121985Y-12326125D02*
X8121985Y-12273875D01*
X12869000Y-14048875D02*
X12869000Y-14101125D01*
X13011000Y-14048875D02*
X13011000Y-14101125D01*
X13646000Y-14096125D02*
X13646000Y-14043875D01*
X13504000Y-14096125D02*
X13504000Y-14043875D01*
X13879825Y-16744800D02*
X13827575Y-16744800D01*
X13879825Y-16886800D02*
X13827575Y-16886800D01*
D10*
X14997500Y-15700000D02*
X14855000Y-15700000D01*
X15722500Y-15677500D02*
X15690000Y-15677500D01*
X15722500Y-16402500D02*
X15690000Y-16402500D01*
X14997500Y-16402500D02*
X15030000Y-16402500D01*
X14997500Y-15677500D02*
X15030000Y-15677500D01*
X14997500Y-16402500D02*
X14997500Y-16370000D01*
X15722500Y-16402500D02*
X15722500Y-16370000D01*
X15722500Y-15677500D02*
X15722500Y-15710000D01*
X14997500Y-15677500D02*
X14997500Y-15700000D01*
X13360000Y-14200000D02*
X13360000Y-13950000D01*
X13160000Y-14200000D02*
X13360000Y-14200000D01*
X13160000Y-13950000D02*
X13160000Y-14200000D01*
X13360000Y-13950000D02*
X13160000Y-13950000D01*
D13*
X14653300Y-16509800D02*
X14693300Y-16509800D01*
X14653300Y-16489800D02*
X14693300Y-16489800D01*
X14653300Y-16129800D02*
X14693300Y-16129800D01*
X14453300Y-16509800D02*
X14653300Y-16509800D01*
X14693300Y-16389800D02*
X14733300Y-16389800D01*
X14693300Y-16389800D02*
X14693300Y-16489800D01*
X14653300Y-16489800D02*
X14453300Y-16489800D01*
X14453300Y-16489800D02*
X14453300Y-16389800D01*
X14453300Y-16209800D02*
X14453300Y-16129800D01*
X14453300Y-16129800D02*
X14653300Y-16129800D01*
X14693300Y-16129800D02*
X14693300Y-16209800D01*
X14512800Y-16975700D02*
X14512800Y-17108700D01*
X14379800Y-16975700D02*
X14512800Y-16975700D01*
X14252800Y-16975700D02*
X14252800Y-17241700D01*
X14252800Y-17241700D02*
X12976800Y-17241700D01*
X14252800Y-16975700D02*
X12976800Y-16975700D01*
X12976800Y-16975700D02*
X12976800Y-17241700D01*
X8885355Y-10403015D02*
X8819948Y-10468423D01*
X9146985Y-10664645D02*
X8814645Y-10996985D01*
X8696204Y-10892687D02*
X8657313Y-10853796D01*
X9042687Y-10546204D02*
X9003796Y-10507313D01*
X8618423Y-10669948D02*
X8553015Y-10735355D01*
X13829100Y-16039858D02*
X13829100Y-15988142D01*
X13687100Y-16039858D02*
X13687100Y-15988142D01*
X13575100Y-15988142D02*
X13575100Y-16039858D01*
X13433100Y-15988142D02*
X13433100Y-16039858D01*
X12940000Y-16410000D02*
X12800000Y-16410000D01*
X12730000Y-16340000D02*
X12730000Y-16280000D01*
X12800000Y-16210000D02*
X12940000Y-16210000D01*
X13010000Y-16280000D02*
X13010000Y-16340000D01*
X12800000Y-16410000D02*
G75*
G02*
X12730000Y-16340000I0J70000D01*
G01*
X12730000Y-16280000D02*
G75*
G02*
X12800000Y-16210000I70000J0D01*
G01*
X12940000Y-16210000D02*
G75*
G02*
X13010000Y-16280000I0J-70000D01*
G01*
X13010000Y-16340000D02*
G75*
G02*
X12940000Y-16410000I-70000J0D01*
G01*
X13483000Y-15417000D02*
X13483000Y-15550000D01*
X13350000Y-15417000D02*
X13483000Y-15417000D01*
X13223000Y-15417000D02*
X13223000Y-15683000D01*
X13223000Y-15683000D02*
X12963000Y-15683000D01*
X13223000Y-15417000D02*
X12963000Y-15417000D01*
X12963000Y-15417000D02*
X12963000Y-15683000D01*
X13336700Y-15864000D02*
X13336700Y-16064000D01*
X13112700Y-16064000D02*
X13112700Y-15964000D01*
X15112500Y-17195000D02*
X15205000Y-17195000D01*
X14725000Y-16982500D02*
X14725000Y-17037500D01*
X15215000Y-16982500D02*
X15215000Y-17037500D01*
X14735000Y-16825000D02*
X15205000Y-16825000D01*
X14735000Y-17195000D02*
X14827500Y-17195000D01*
D10*
X15983333Y-15825714D02*
X15978571Y-15830476D01*
X15964286Y-15835238D01*
X15954762Y-15835238D01*
X15940476Y-15830476D01*
X15930952Y-15820952D01*
X15926190Y-15811428D01*
X15921428Y-15792381D01*
X15921428Y-15778095D01*
X15926190Y-15759048D01*
X15930952Y-15749524D01*
X15940476Y-15740000D01*
X15954762Y-15735238D01*
X15964286Y-15735238D01*
X15978571Y-15740000D01*
X15983333Y-15744762D01*
X16016667Y-15735238D02*
X16078571Y-15735238D01*
X16045238Y-15773333D01*
X16059524Y-15773333D01*
X16069048Y-15778095D01*
X16073809Y-15782857D01*
X16078571Y-15792381D01*
X16078571Y-15816190D01*
X16073809Y-15825714D01*
X16069048Y-15830476D01*
X16059524Y-15835238D01*
X16030952Y-15835238D01*
X16021428Y-15830476D01*
X16016667Y-15825714D01*
X8440240Y-11573402D02*
X8453709Y-11566667D01*
X8470545Y-11549832D01*
X8473912Y-11539730D01*
X8473912Y-11532996D01*
X8470545Y-11522894D01*
X8463810Y-11516160D01*
X8453709Y-11512793D01*
X8446974Y-11512793D01*
X8436873Y-11516160D01*
X8420037Y-11526261D01*
X8409936Y-11529629D01*
X8403201Y-11529629D01*
X8393100Y-11526261D01*
X8386365Y-11519527D01*
X8382998Y-11509425D01*
X8382998Y-11502691D01*
X8386365Y-11492590D01*
X8403201Y-11475754D01*
X8416670Y-11469019D01*
X8436873Y-11442082D02*
X8524419Y-11495957D01*
X8487381Y-11431980D01*
X8551357Y-11469019D01*
X8497482Y-11381473D01*
X8632169Y-11388207D02*
X8591763Y-11428613D01*
X8611966Y-11408410D02*
X8541255Y-11337700D01*
X8544623Y-11354535D01*
X8544623Y-11368004D01*
X8541255Y-11378106D01*
X14313933Y-16048414D02*
X14309171Y-16053176D01*
X14294886Y-16057938D01*
X14285362Y-16057938D01*
X14271076Y-16053176D01*
X14261552Y-16043652D01*
X14256790Y-16034128D01*
X14252028Y-16015081D01*
X14252028Y-16000795D01*
X14256790Y-15981748D01*
X14261552Y-15972224D01*
X14271076Y-15962700D01*
X14285362Y-15957938D01*
X14294886Y-15957938D01*
X14309171Y-15962700D01*
X14313933Y-15967462D01*
X14409171Y-16057938D02*
X14352028Y-16057938D01*
X14380600Y-16057938D02*
X14380600Y-15957938D01*
X14371076Y-15972224D01*
X14361552Y-15981748D01*
X14352028Y-15986509D01*
X14268833Y-16686514D02*
X14264071Y-16691276D01*
X14249786Y-16696038D01*
X14240262Y-16696038D01*
X14225976Y-16691276D01*
X14216452Y-16681752D01*
X14211690Y-16672228D01*
X14206928Y-16653181D01*
X14206928Y-16638895D01*
X14211690Y-16619848D01*
X14216452Y-16610324D01*
X14225976Y-16600800D01*
X14240262Y-16596038D01*
X14249786Y-16596038D01*
X14264071Y-16600800D01*
X14268833Y-16605562D01*
X14354548Y-16629371D02*
X14354548Y-16696038D01*
X14330738Y-16591276D02*
X14306928Y-16662705D01*
X14368833Y-16662705D01*
X7869921Y-11704402D02*
X7769921Y-11704402D01*
X7769921Y-11680592D01*
X7774683Y-11666306D01*
X7784207Y-11656783D01*
X7793730Y-11652021D01*
X7812778Y-11647259D01*
X7827064Y-11647259D01*
X7846111Y-11652021D01*
X7855635Y-11656783D01*
X7865159Y-11666306D01*
X7869921Y-11680592D01*
X7869921Y-11704402D01*
X7869921Y-11552021D02*
X7869921Y-11609164D01*
X7869921Y-11580592D02*
X7769921Y-11580592D01*
X7784207Y-11590116D01*
X7793730Y-11599640D01*
X7798492Y-11609164D01*
X7869921Y-12655789D02*
X7769921Y-12655789D01*
X7769921Y-12631980D01*
X7774683Y-12617694D01*
X7784207Y-12608170D01*
X7793730Y-12603408D01*
X7812778Y-12598647D01*
X7827064Y-12598647D01*
X7846111Y-12603408D01*
X7855635Y-12608170D01*
X7865159Y-12617694D01*
X7869921Y-12631980D01*
X7869921Y-12655789D01*
X7779445Y-12560551D02*
X7774683Y-12555789D01*
X7769921Y-12546266D01*
X7769921Y-12522456D01*
X7774683Y-12512932D01*
X7779445Y-12508170D01*
X7788969Y-12503408D01*
X7798492Y-12503408D01*
X7812778Y-12508170D01*
X7869921Y-12565313D01*
X7869921Y-12503408D01*
X8275238Y-11946667D02*
X8227619Y-11980000D01*
X8275238Y-12003809D02*
X8175238Y-12003809D01*
X8175238Y-11965714D01*
X8180000Y-11956190D01*
X8184762Y-11951428D01*
X8194286Y-11946667D01*
X8208571Y-11946667D01*
X8218095Y-11951428D01*
X8222857Y-11956190D01*
X8227619Y-11965714D01*
X8227619Y-12003809D01*
X8175238Y-11913333D02*
X8175238Y-11851428D01*
X8213333Y-11884762D01*
X8213333Y-11870476D01*
X8218095Y-11860952D01*
X8222857Y-11856190D01*
X8232381Y-11851428D01*
X8256190Y-11851428D01*
X8265714Y-11856190D01*
X8270476Y-11860952D01*
X8275238Y-11870476D01*
X8275238Y-11899048D01*
X8270476Y-11908571D01*
X8265714Y-11913333D01*
X8275238Y-12326667D02*
X8227619Y-12360000D01*
X8275238Y-12383809D02*
X8175238Y-12383809D01*
X8175238Y-12345714D01*
X8180000Y-12336190D01*
X8184762Y-12331428D01*
X8194286Y-12326667D01*
X8208571Y-12326667D01*
X8218095Y-12331428D01*
X8222857Y-12336190D01*
X8227619Y-12345714D01*
X8227619Y-12383809D01*
X8208571Y-12240952D02*
X8275238Y-12240952D01*
X8170476Y-12264762D02*
X8241905Y-12288571D01*
X8241905Y-12226667D01*
X12923333Y-14385238D02*
X12890000Y-14337619D01*
X12866190Y-14385238D02*
X12866190Y-14285238D01*
X12904286Y-14285238D01*
X12913809Y-14290000D01*
X12918571Y-14294762D01*
X12923333Y-14304286D01*
X12923333Y-14318571D01*
X12918571Y-14328095D01*
X12913809Y-14332857D01*
X12904286Y-14337619D01*
X12866190Y-14337619D01*
X13013809Y-14285238D02*
X12966190Y-14285238D01*
X12961428Y-14332857D01*
X12966190Y-14328095D01*
X12975714Y-14323333D01*
X12999524Y-14323333D01*
X13009048Y-14328095D01*
X13013809Y-14332857D01*
X13018571Y-14342381D01*
X13018571Y-14366190D01*
X13013809Y-14375714D01*
X13009048Y-14380476D01*
X12999524Y-14385238D01*
X12975714Y-14385238D01*
X12966190Y-14380476D01*
X12961428Y-14375714D01*
X13558333Y-14385238D02*
X13525000Y-14337619D01*
X13501190Y-14385238D02*
X13501190Y-14285238D01*
X13539286Y-14285238D01*
X13548809Y-14290000D01*
X13553571Y-14294762D01*
X13558333Y-14304286D01*
X13558333Y-14318571D01*
X13553571Y-14328095D01*
X13548809Y-14332857D01*
X13539286Y-14337619D01*
X13501190Y-14337619D01*
X13644048Y-14285238D02*
X13625000Y-14285238D01*
X13615476Y-14290000D01*
X13610714Y-14294762D01*
X13601190Y-14309048D01*
X13596428Y-14328095D01*
X13596428Y-14366190D01*
X13601190Y-14375714D01*
X13605952Y-14380476D01*
X13615476Y-14385238D01*
X13634524Y-14385238D01*
X13644048Y-14380476D01*
X13648809Y-14375714D01*
X13653571Y-14366190D01*
X13653571Y-14342381D01*
X13648809Y-14332857D01*
X13644048Y-14328095D01*
X13634524Y-14323333D01*
X13615476Y-14323333D01*
X13605952Y-14328095D01*
X13601190Y-14332857D01*
X13596428Y-14342381D01*
X13837033Y-16695938D02*
X13803700Y-16648319D01*
X13779890Y-16695938D02*
X13779890Y-16595938D01*
X13817986Y-16595938D01*
X13827509Y-16600700D01*
X13832271Y-16605462D01*
X13837033Y-16614986D01*
X13837033Y-16629271D01*
X13832271Y-16638795D01*
X13827509Y-16643557D01*
X13817986Y-16648319D01*
X13779890Y-16648319D01*
X13870367Y-16595938D02*
X13937033Y-16595938D01*
X13894176Y-16695938D01*
X15715609Y-15540738D02*
X15715609Y-15621690D01*
X15720371Y-15631214D01*
X15725133Y-15635976D01*
X15734657Y-15640738D01*
X15753705Y-15640738D01*
X15763228Y-15635976D01*
X15767990Y-15631214D01*
X15772752Y-15621690D01*
X15772752Y-15540738D01*
X15872752Y-15640738D02*
X15815609Y-15640738D01*
X15844181Y-15640738D02*
X15844181Y-15540738D01*
X15834657Y-15555024D01*
X15825133Y-15564548D01*
X15815609Y-15569309D01*
X13183809Y-14285238D02*
X13183809Y-14366190D01*
X13188571Y-14375714D01*
X13193333Y-14380476D01*
X13202857Y-14385238D01*
X13221905Y-14385238D01*
X13231428Y-14380476D01*
X13236190Y-14375714D01*
X13240952Y-14366190D01*
X13240952Y-14285238D01*
X13283809Y-14294762D02*
X13288571Y-14290000D01*
X13298095Y-14285238D01*
X13321905Y-14285238D01*
X13331428Y-14290000D01*
X13336190Y-14294762D01*
X13340952Y-14304286D01*
X13340952Y-14313809D01*
X13336190Y-14328095D01*
X13279048Y-14385238D01*
X13340952Y-14385238D01*
X14309781Y-16256619D02*
X14309781Y-16304238D01*
X14276448Y-16204238D02*
X14309781Y-16256619D01*
X14343114Y-16204238D01*
X14428828Y-16304238D02*
X14371686Y-16304238D01*
X14400257Y-16304238D02*
X14400257Y-16204238D01*
X14390733Y-16218524D01*
X14381209Y-16228048D01*
X14371686Y-16232809D01*
X8992620Y-11018482D02*
X9006089Y-11011747D01*
X9022925Y-10994912D01*
X9026292Y-10984810D01*
X9026292Y-10978076D01*
X9022925Y-10967974D01*
X9016190Y-10961240D01*
X9006089Y-10957873D01*
X8999354Y-10957873D01*
X8989253Y-10961240D01*
X8972417Y-10971341D01*
X8962316Y-10974709D01*
X8955581Y-10974709D01*
X8945480Y-10971341D01*
X8938745Y-10964607D01*
X8935378Y-10954505D01*
X8935378Y-10947771D01*
X8938745Y-10937670D01*
X8955581Y-10920834D01*
X8969050Y-10914099D01*
X8989253Y-10887162D02*
X9076799Y-10941037D01*
X9039761Y-10877060D01*
X9103737Y-10914099D01*
X9049862Y-10826553D01*
X9080167Y-10809717D02*
X9080167Y-10802983D01*
X9083534Y-10792881D01*
X9100370Y-10776045D01*
X9110471Y-10772678D01*
X9117206Y-10772678D01*
X9127307Y-10776045D01*
X9134041Y-10782780D01*
X9140776Y-10796248D01*
X9140776Y-10877060D01*
X9184549Y-10833287D01*
X13741433Y-16303714D02*
X13736671Y-16308476D01*
X13722386Y-16313238D01*
X13712862Y-16313238D01*
X13698576Y-16308476D01*
X13689052Y-16298952D01*
X13684290Y-16289428D01*
X13679528Y-16270381D01*
X13679528Y-16256095D01*
X13684290Y-16237048D01*
X13689052Y-16227524D01*
X13698576Y-16218000D01*
X13712862Y-16213238D01*
X13722386Y-16213238D01*
X13736671Y-16218000D01*
X13741433Y-16222762D01*
X13779528Y-16222762D02*
X13784290Y-16218000D01*
X13793814Y-16213238D01*
X13817624Y-16213238D01*
X13827148Y-16218000D01*
X13831909Y-16222762D01*
X13836671Y-16232286D01*
X13836671Y-16241809D01*
X13831909Y-16256095D01*
X13774767Y-16313238D01*
X13836671Y-16313238D01*
X13487433Y-16303714D02*
X13482671Y-16308476D01*
X13468386Y-16313238D01*
X13458862Y-16313238D01*
X13444576Y-16308476D01*
X13435052Y-16298952D01*
X13430290Y-16289428D01*
X13425528Y-16270381D01*
X13425528Y-16256095D01*
X13430290Y-16237048D01*
X13435052Y-16227524D01*
X13444576Y-16218000D01*
X13458862Y-16213238D01*
X13468386Y-16213238D01*
X13482671Y-16218000D01*
X13487433Y-16222762D01*
X13577909Y-16213238D02*
X13530290Y-16213238D01*
X13525528Y-16260857D01*
X13530290Y-16256095D01*
X13539814Y-16251333D01*
X13563624Y-16251333D01*
X13573148Y-16256095D01*
X13577909Y-16260857D01*
X13582671Y-16270381D01*
X13582671Y-16294190D01*
X13577909Y-16303714D01*
X13573148Y-16308476D01*
X13563624Y-16313238D01*
X13539814Y-16313238D01*
X13530290Y-16308476D01*
X13525528Y-16303714D01*
X13548448Y-15595238D02*
X13548448Y-15495238D01*
X13581781Y-15566667D01*
X13615114Y-15495238D01*
X13615114Y-15595238D01*
X13715114Y-15595238D02*
X13657971Y-15595238D01*
X13686543Y-15595238D02*
X13686543Y-15495238D01*
X13677019Y-15509524D01*
X13667495Y-15519048D01*
X13657971Y-15523809D01*
X12913809Y-15855238D02*
X12913809Y-15936190D01*
X12918571Y-15945714D01*
X12923333Y-15950476D01*
X12932857Y-15955238D01*
X12951905Y-15955238D01*
X12961428Y-15950476D01*
X12966190Y-15945714D01*
X12970952Y-15936190D01*
X12970952Y-15855238D01*
X13009048Y-15855238D02*
X13070952Y-15855238D01*
X13037619Y-15893333D01*
X13051905Y-15893333D01*
X13061428Y-15898095D01*
X13066190Y-15902857D01*
X13070952Y-15912381D01*
X13070952Y-15936190D01*
X13066190Y-15945714D01*
X13061428Y-15950476D01*
X13051905Y-15955238D01*
X13023333Y-15955238D01*
X13013809Y-15950476D01*
X13009048Y-15945714D01*
X9883353Y-13102704D02*
X9896822Y-13095970D01*
X9913657Y-13079134D01*
X9917025Y-13069033D01*
X9917025Y-13062298D01*
X9913657Y-13052197D01*
X9906923Y-13045462D01*
X9896822Y-13042095D01*
X9890087Y-13042095D01*
X9879986Y-13045462D01*
X9863150Y-13055564D01*
X9853048Y-13058931D01*
X9846314Y-13058931D01*
X9836212Y-13055564D01*
X9829478Y-13048830D01*
X9826111Y-13038728D01*
X9826111Y-13031994D01*
X9829478Y-13021892D01*
X9846314Y-13005056D01*
X9859783Y-12998322D01*
X9879986Y-12971385D02*
X9967532Y-13025259D01*
X9930493Y-12961283D01*
X9994470Y-12998322D01*
X9940595Y-12910775D01*
X10021407Y-12877104D02*
X10068548Y-12924244D01*
X9977634Y-12867002D02*
X10011306Y-12934346D01*
X10055079Y-12890572D01*
%LPC*%
G36*
G01*
X16048175Y-16167600D02*
X15951825Y-16167600D01*
G75*
G02*
X15924900Y-16140675I0J26925D01*
G01*
X15924900Y-16086825D01*
G75*
G02*
X15951825Y-16059900I26925J0D01*
G01*
X16048175Y-16059900D01*
G75*
G02*
X16075100Y-16086825I0J-26925D01*
G01*
X16075100Y-16140675D01*
G75*
G02*
X16048175Y-16167600I-26925J0D01*
G01*
G37*
G36*
G01*
X16048175Y-15980100D02*
X15951825Y-15980100D01*
G75*
G02*
X15924900Y-15953175I0J26925D01*
G01*
X15924900Y-15899325D01*
G75*
G02*
X15951825Y-15872400I26925J0D01*
G01*
X16048175Y-15872400D01*
G75*
G02*
X16075100Y-15899325I0J-26925D01*
G01*
X16075100Y-15953175D01*
G75*
G02*
X16048175Y-15980100I-26925J0D01*
G01*
G37*
G36*
G01*
X8558771Y-11040726D02*
X8629482Y-11111437D01*
G75*
G02*
X8629482Y-11118649I-3606J-3606D01*
G01*
X8519880Y-11228251D01*
G75*
G02*
X8512668Y-11228251I-3606J3606D01*
G01*
X8441957Y-11157540D01*
G75*
G02*
X8441957Y-11150328I3606J3606D01*
G01*
X8551559Y-11040726D01*
G75*
G02*
X8558771Y-11040726I3606J-3606D01*
G01*
G37*
G36*
G01*
X8187540Y-11411957D02*
X8258251Y-11482668D01*
G75*
G02*
X8258251Y-11489880I-3606J-3606D01*
G01*
X8148649Y-11599482D01*
G75*
G02*
X8141437Y-11599482I-3606J3606D01*
G01*
X8070726Y-11528771D01*
G75*
G02*
X8070726Y-11521559I3606J3606D01*
G01*
X8180328Y-11411957D01*
G75*
G02*
X8187540Y-11411957I3606J-3606D01*
G01*
G37*
G36*
G01*
X8067332Y-11291749D02*
X8138043Y-11362460D01*
G75*
G02*
X8138043Y-11369672I-3606J-3606D01*
G01*
X8028441Y-11479274D01*
G75*
G02*
X8021229Y-11479274I-3606J3606D01*
G01*
X7950518Y-11408563D01*
G75*
G02*
X7950518Y-11401351I3606J3606D01*
G01*
X8060120Y-11291749D01*
G75*
G02*
X8067332Y-11291749I3606J-3606D01*
G01*
G37*
G36*
G01*
X8438563Y-10920518D02*
X8509274Y-10991229D01*
G75*
G02*
X8509274Y-10998441I-3606J-3606D01*
G01*
X8399672Y-11108043D01*
G75*
G02*
X8392460Y-11108043I-3606J3606D01*
G01*
X8321749Y-11037332D01*
G75*
G02*
X8321749Y-11030120I3606J3606D01*
G01*
X8431351Y-10920518D01*
G75*
G02*
X8438563Y-10920518I3606J-3606D01*
G01*
G37*
G36*
G01*
X14570100Y-15951825D02*
X14570100Y-16048175D01*
G75*
G02*
X14543175Y-16075100I-26925J0D01*
G01*
X14489325Y-16075100D01*
G75*
G02*
X14462400Y-16048175I0J26925D01*
G01*
X14462400Y-15951825D01*
G75*
G02*
X14489325Y-15924900I26925J0D01*
G01*
X14543175Y-15924900D01*
G75*
G02*
X14570100Y-15951825I0J-26925D01*
G01*
G37*
G36*
G01*
X14757600Y-15951825D02*
X14757600Y-16048175D01*
G75*
G02*
X14730675Y-16075100I-26925J0D01*
G01*
X14676825Y-16075100D01*
G75*
G02*
X14649900Y-16048175I0J26925D01*
G01*
X14649900Y-15951825D01*
G75*
G02*
X14676825Y-15924900I26925J0D01*
G01*
X14730675Y-15924900D01*
G75*
G02*
X14757600Y-15951825I0J-26925D01*
G01*
G37*
G36*
G01*
X14325400Y-16863975D02*
X14325400Y-16767625D01*
G75*
G02*
X14352325Y-16740700I26925J0D01*
G01*
X14406175Y-16740700D01*
G75*
G02*
X14433100Y-16767625I0J-26925D01*
G01*
X14433100Y-16863975D01*
G75*
G02*
X14406175Y-16890900I-26925J0D01*
G01*
X14352325Y-16890900D01*
G75*
G02*
X14325400Y-16863975I0J26925D01*
G01*
G37*
G36*
G01*
X14137900Y-16863975D02*
X14137900Y-16767625D01*
G75*
G02*
X14164825Y-16740700I26925J0D01*
G01*
X14218675Y-16740700D01*
G75*
G02*
X14245600Y-16767625I0J-26925D01*
G01*
X14245600Y-16863975D01*
G75*
G02*
X14218675Y-16890900I-26925J0D01*
G01*
X14164825Y-16890900D01*
G75*
G02*
X14137900Y-16863975I0J26925D01*
G01*
G37*
G36*
G01*
X7865674Y-12047600D02*
X7769324Y-12047600D01*
G75*
G02*
X7742399Y-12020675I0J26925D01*
G01*
X7742399Y-11966825D01*
G75*
G02*
X7769324Y-11939900I26925J0D01*
G01*
X7865674Y-11939900D01*
G75*
G02*
X7892599Y-11966825I0J-26925D01*
G01*
X7892599Y-12020675D01*
G75*
G02*
X7865674Y-12047600I-26925J0D01*
G01*
G37*
G36*
G01*
X7865674Y-11860100D02*
X7769324Y-11860100D01*
G75*
G02*
X7742399Y-11833175I0J26925D01*
G01*
X7742399Y-11779325D01*
G75*
G02*
X7769324Y-11752400I26925J0D01*
G01*
X7865674Y-11752400D01*
G75*
G02*
X7892599Y-11779325I0J-26925D01*
G01*
X7892599Y-11833175D01*
G75*
G02*
X7865674Y-11860100I-26925J0D01*
G01*
G37*
G36*
G01*
X7863878Y-12260100D02*
X7767528Y-12260100D01*
G75*
G02*
X7740603Y-12233175I0J26925D01*
G01*
X7740603Y-12179325D01*
G75*
G02*
X7767528Y-12152400I26925J0D01*
G01*
X7863878Y-12152400D01*
G75*
G02*
X7890803Y-12179325I0J-26925D01*
G01*
X7890803Y-12233175D01*
G75*
G02*
X7863878Y-12260100I-26925J0D01*
G01*
G37*
G36*
G01*
X7863878Y-12447600D02*
X7767528Y-12447600D01*
G75*
G02*
X7740603Y-12420675I0J26925D01*
G01*
X7740603Y-12366825D01*
G75*
G02*
X7767528Y-12339900I26925J0D01*
G01*
X7863878Y-12339900D01*
G75*
G02*
X7890803Y-12366825I0J-26925D01*
G01*
X7890803Y-12420675D01*
G75*
G02*
X7863878Y-12447600I-26925J0D01*
G01*
G37*
G36*
G01*
X15645000Y-17190100D02*
X15475000Y-17190100D01*
G75*
G02*
X15469900Y-17185000I0J5100D01*
G01*
X15469900Y-17015000D01*
G75*
G02*
X15475000Y-17009900I5100J0D01*
G01*
X15645000Y-17009900D01*
G75*
G02*
X15650100Y-17015000I0J-5100D01*
G01*
X15650100Y-17185000D01*
G75*
G02*
X15645000Y-17190100I-5100J0D01*
G01*
G37*
D14*
X15560000Y-16846000D03*
X15814000Y-17100000D03*
X15814000Y-16846000D03*
X16068000Y-17100000D03*
X16068000Y-16846000D03*
G36*
G01*
X8097883Y-12065100D02*
X8002117Y-12065100D01*
G75*
G02*
X7974900Y-12037883I0J27217D01*
G01*
X7974900Y-11967117D01*
G75*
G02*
X8002117Y-11939900I27217J0D01*
G01*
X8097883Y-11939900D01*
G75*
G02*
X8125100Y-11967117I0J-27217D01*
G01*
X8125100Y-12037883D01*
G75*
G02*
X8097883Y-12065100I-27217J0D01*
G01*
G37*
G36*
G01*
X8097883Y-11860100D02*
X8002117Y-11860100D01*
G75*
G02*
X7974900Y-11832883I0J27217D01*
G01*
X7974900Y-11762117D01*
G75*
G02*
X8002117Y-11734900I27217J0D01*
G01*
X8097883Y-11734900D01*
G75*
G02*
X8125100Y-11762117I0J-27217D01*
G01*
X8125100Y-11832883D01*
G75*
G02*
X8097883Y-11860100I-27217J0D01*
G01*
G37*
G36*
G01*
X8098868Y-12260100D02*
X8003102Y-12260100D01*
G75*
G02*
X7975885Y-12232883I0J27217D01*
G01*
X7975885Y-12162117D01*
G75*
G02*
X8003102Y-12134900I27217J0D01*
G01*
X8098868Y-12134900D01*
G75*
G02*
X8126085Y-12162117I0J-27217D01*
G01*
X8126085Y-12232883D01*
G75*
G02*
X8098868Y-12260100I-27217J0D01*
G01*
G37*
G36*
G01*
X8098868Y-12465100D02*
X8003102Y-12465100D01*
G75*
G02*
X7975885Y-12437883I0J27217D01*
G01*
X7975885Y-12367117D01*
G75*
G02*
X8003102Y-12339900I27217J0D01*
G01*
X8098868Y-12339900D01*
G75*
G02*
X8126085Y-12367117I0J-27217D01*
G01*
X8126085Y-12437883D01*
G75*
G02*
X8098868Y-12465100I-27217J0D01*
G01*
G37*
G36*
G01*
X12892117Y-13909900D02*
X12987883Y-13909900D01*
G75*
G02*
X13015100Y-13937117I0J-27217D01*
G01*
X13015100Y-14007883D01*
G75*
G02*
X12987883Y-14035100I-27217J0D01*
G01*
X12892117Y-14035100D01*
G75*
G02*
X12864900Y-14007883I0J27217D01*
G01*
X12864900Y-13937117D01*
G75*
G02*
X12892117Y-13909900I27217J0D01*
G01*
G37*
G36*
G01*
X12892117Y-14114900D02*
X12987883Y-14114900D01*
G75*
G02*
X13015100Y-14142117I0J-27217D01*
G01*
X13015100Y-14212883D01*
G75*
G02*
X12987883Y-14240100I-27217J0D01*
G01*
X12892117Y-14240100D01*
G75*
G02*
X12864900Y-14212883I0J27217D01*
G01*
X12864900Y-14142117D01*
G75*
G02*
X12892117Y-14114900I27217J0D01*
G01*
G37*
G36*
G01*
X13622883Y-14235100D02*
X13527117Y-14235100D01*
G75*
G02*
X13499900Y-14207883I0J27217D01*
G01*
X13499900Y-14137117D01*
G75*
G02*
X13527117Y-14109900I27217J0D01*
G01*
X13622883Y-14109900D01*
G75*
G02*
X13650100Y-14137117I0J-27217D01*
G01*
X13650100Y-14207883D01*
G75*
G02*
X13622883Y-14235100I-27217J0D01*
G01*
G37*
G36*
G01*
X13622883Y-14030100D02*
X13527117Y-14030100D01*
G75*
G02*
X13499900Y-14002883I0J27217D01*
G01*
X13499900Y-13932117D01*
G75*
G02*
X13527117Y-13904900I27217J0D01*
G01*
X13622883Y-13904900D01*
G75*
G02*
X13650100Y-13932117I0J-27217D01*
G01*
X13650100Y-14002883D01*
G75*
G02*
X13622883Y-14030100I-27217J0D01*
G01*
G37*
G36*
G01*
X14018800Y-16767917D02*
X14018800Y-16863683D01*
G75*
G02*
X13991583Y-16890900I-27217J0D01*
G01*
X13920817Y-16890900D01*
G75*
G02*
X13893600Y-16863683I0J27217D01*
G01*
X13893600Y-16767917D01*
G75*
G02*
X13920817Y-16740700I27217J0D01*
G01*
X13991583Y-16740700D01*
G75*
G02*
X14018800Y-16767917I0J-27217D01*
G01*
G37*
G36*
G01*
X13813800Y-16767917D02*
X13813800Y-16863683D01*
G75*
G02*
X13786583Y-16890900I-27217J0D01*
G01*
X13715817Y-16890900D01*
G75*
G02*
X13688600Y-16863683I0J27217D01*
G01*
X13688600Y-16767917D01*
G75*
G02*
X13715817Y-16740700I27217J0D01*
G01*
X13786583Y-16740700D01*
G75*
G02*
X13813800Y-16767917I0J-27217D01*
G01*
G37*
G36*
G01*
X14849900Y-15787500D02*
X14849900Y-15732500D01*
G75*
G02*
X14855000Y-15727400I5100J0D01*
G01*
X15015000Y-15727400D01*
G75*
G02*
X15020100Y-15732500I0J-5100D01*
G01*
X15020100Y-15787500D01*
G75*
G02*
X15015000Y-15792600I-5100J0D01*
G01*
X14855000Y-15792600D01*
G75*
G02*
X14849900Y-15787500I0J5100D01*
G01*
G37*
G36*
G01*
X14849900Y-15867500D02*
X14849900Y-15812500D01*
G75*
G02*
X14855000Y-15807400I5100J0D01*
G01*
X15015000Y-15807400D01*
G75*
G02*
X15020100Y-15812500I0J-5100D01*
G01*
X15020100Y-15867500D01*
G75*
G02*
X15015000Y-15872600I-5100J0D01*
G01*
X14855000Y-15872600D01*
G75*
G02*
X14849900Y-15867500I0J5100D01*
G01*
G37*
G36*
G01*
X14849900Y-15947500D02*
X14849900Y-15892500D01*
G75*
G02*
X14855000Y-15887400I5100J0D01*
G01*
X15015000Y-15887400D01*
G75*
G02*
X15020100Y-15892500I0J-5100D01*
G01*
X15020100Y-15947500D01*
G75*
G02*
X15015000Y-15952600I-5100J0D01*
G01*
X14855000Y-15952600D01*
G75*
G02*
X14849900Y-15947500I0J5100D01*
G01*
G37*
G36*
G01*
X14849900Y-16027500D02*
X14849900Y-15972500D01*
G75*
G02*
X14855000Y-15967400I5100J0D01*
G01*
X15015000Y-15967400D01*
G75*
G02*
X15020100Y-15972500I0J-5100D01*
G01*
X15020100Y-16027500D01*
G75*
G02*
X15015000Y-16032600I-5100J0D01*
G01*
X14855000Y-16032600D01*
G75*
G02*
X14849900Y-16027500I0J5100D01*
G01*
G37*
G36*
G01*
X14849900Y-16107500D02*
X14849900Y-16052500D01*
G75*
G02*
X14855000Y-16047400I5100J0D01*
G01*
X15015000Y-16047400D01*
G75*
G02*
X15020100Y-16052500I0J-5100D01*
G01*
X15020100Y-16107500D01*
G75*
G02*
X15015000Y-16112600I-5100J0D01*
G01*
X14855000Y-16112600D01*
G75*
G02*
X14849900Y-16107500I0J5100D01*
G01*
G37*
G36*
G01*
X14849900Y-16187500D02*
X14849900Y-16132500D01*
G75*
G02*
X14855000Y-16127400I5100J0D01*
G01*
X15015000Y-16127400D01*
G75*
G02*
X15020100Y-16132500I0J-5100D01*
G01*
X15020100Y-16187500D01*
G75*
G02*
X15015000Y-16192600I-5100J0D01*
G01*
X14855000Y-16192600D01*
G75*
G02*
X14849900Y-16187500I0J5100D01*
G01*
G37*
G36*
G01*
X14849900Y-16267500D02*
X14849900Y-16212500D01*
G75*
G02*
X14855000Y-16207400I5100J0D01*
G01*
X15015000Y-16207400D01*
G75*
G02*
X15020100Y-16212500I0J-5100D01*
G01*
X15020100Y-16267500D01*
G75*
G02*
X15015000Y-16272600I-5100J0D01*
G01*
X14855000Y-16272600D01*
G75*
G02*
X14849900Y-16267500I0J5100D01*
G01*
G37*
G36*
G01*
X14849900Y-16347500D02*
X14849900Y-16292500D01*
G75*
G02*
X14855000Y-16287400I5100J0D01*
G01*
X15015000Y-16287400D01*
G75*
G02*
X15020100Y-16292500I0J-5100D01*
G01*
X15020100Y-16347500D01*
G75*
G02*
X15015000Y-16352600I-5100J0D01*
G01*
X14855000Y-16352600D01*
G75*
G02*
X14849900Y-16347500I0J5100D01*
G01*
G37*
G36*
G01*
X15107500Y-16550100D02*
X15052500Y-16550100D01*
G75*
G02*
X15047400Y-16545000I0J5100D01*
G01*
X15047400Y-16385000D01*
G75*
G02*
X15052500Y-16379900I5100J0D01*
G01*
X15107500Y-16379900D01*
G75*
G02*
X15112600Y-16385000I0J-5100D01*
G01*
X15112600Y-16545000D01*
G75*
G02*
X15107500Y-16550100I-5100J0D01*
G01*
G37*
G36*
G01*
X15187500Y-16550100D02*
X15132500Y-16550100D01*
G75*
G02*
X15127400Y-16545000I0J5100D01*
G01*
X15127400Y-16385000D01*
G75*
G02*
X15132500Y-16379900I5100J0D01*
G01*
X15187500Y-16379900D01*
G75*
G02*
X15192600Y-16385000I0J-5100D01*
G01*
X15192600Y-16545000D01*
G75*
G02*
X15187500Y-16550100I-5100J0D01*
G01*
G37*
G36*
G01*
X15267500Y-16550100D02*
X15212500Y-16550100D01*
G75*
G02*
X15207400Y-16545000I0J5100D01*
G01*
X15207400Y-16385000D01*
G75*
G02*
X15212500Y-16379900I5100J0D01*
G01*
X15267500Y-16379900D01*
G75*
G02*
X15272600Y-16385000I0J-5100D01*
G01*
X15272600Y-16545000D01*
G75*
G02*
X15267500Y-16550100I-5100J0D01*
G01*
G37*
G36*
G01*
X15347500Y-16550100D02*
X15292500Y-16550100D01*
G75*
G02*
X15287400Y-16545000I0J5100D01*
G01*
X15287400Y-16385000D01*
G75*
G02*
X15292500Y-16379900I5100J0D01*
G01*
X15347500Y-16379900D01*
G75*
G02*
X15352600Y-16385000I0J-5100D01*
G01*
X15352600Y-16545000D01*
G75*
G02*
X15347500Y-16550100I-5100J0D01*
G01*
G37*
G36*
G01*
X15427500Y-16550100D02*
X15372500Y-16550100D01*
G75*
G02*
X15367400Y-16545000I0J5100D01*
G01*
X15367400Y-16385000D01*
G75*
G02*
X15372500Y-16379900I5100J0D01*
G01*
X15427500Y-16379900D01*
G75*
G02*
X15432600Y-16385000I0J-5100D01*
G01*
X15432600Y-16545000D01*
G75*
G02*
X15427500Y-16550100I-5100J0D01*
G01*
G37*
G36*
G01*
X15507500Y-16550100D02*
X15452500Y-16550100D01*
G75*
G02*
X15447400Y-16545000I0J5100D01*
G01*
X15447400Y-16385000D01*
G75*
G02*
X15452500Y-16379900I5100J0D01*
G01*
X15507500Y-16379900D01*
G75*
G02*
X15512600Y-16385000I0J-5100D01*
G01*
X15512600Y-16545000D01*
G75*
G02*
X15507500Y-16550100I-5100J0D01*
G01*
G37*
G36*
G01*
X15587500Y-16550100D02*
X15532500Y-16550100D01*
G75*
G02*
X15527400Y-16545000I0J5100D01*
G01*
X15527400Y-16385000D01*
G75*
G02*
X15532500Y-16379900I5100J0D01*
G01*
X15587500Y-16379900D01*
G75*
G02*
X15592600Y-16385000I0J-5100D01*
G01*
X15592600Y-16545000D01*
G75*
G02*
X15587500Y-16550100I-5100J0D01*
G01*
G37*
G36*
G01*
X15667500Y-16550100D02*
X15612500Y-16550100D01*
G75*
G02*
X15607400Y-16545000I0J5100D01*
G01*
X15607400Y-16385000D01*
G75*
G02*
X15612500Y-16379900I5100J0D01*
G01*
X15667500Y-16379900D01*
G75*
G02*
X15672600Y-16385000I0J-5100D01*
G01*
X15672600Y-16545000D01*
G75*
G02*
X15667500Y-16550100I-5100J0D01*
G01*
G37*
G36*
G01*
X15699900Y-16347500D02*
X15699900Y-16292500D01*
G75*
G02*
X15705000Y-16287400I5100J0D01*
G01*
X15865000Y-16287400D01*
G75*
G02*
X15870100Y-16292500I0J-5100D01*
G01*
X15870100Y-16347500D01*
G75*
G02*
X15865000Y-16352600I-5100J0D01*
G01*
X15705000Y-16352600D01*
G75*
G02*
X15699900Y-16347500I0J5100D01*
G01*
G37*
G36*
G01*
X15699900Y-16267500D02*
X15699900Y-16212500D01*
G75*
G02*
X15705000Y-16207400I5100J0D01*
G01*
X15865000Y-16207400D01*
G75*
G02*
X15870100Y-16212500I0J-5100D01*
G01*
X15870100Y-16267500D01*
G75*
G02*
X15865000Y-16272600I-5100J0D01*
G01*
X15705000Y-16272600D01*
G75*
G02*
X15699900Y-16267500I0J5100D01*
G01*
G37*
G36*
G01*
X15699900Y-16187500D02*
X15699900Y-16132500D01*
G75*
G02*
X15705000Y-16127400I5100J0D01*
G01*
X15865000Y-16127400D01*
G75*
G02*
X15870100Y-16132500I0J-5100D01*
G01*
X15870100Y-16187500D01*
G75*
G02*
X15865000Y-16192600I-5100J0D01*
G01*
X15705000Y-16192600D01*
G75*
G02*
X15699900Y-16187500I0J5100D01*
G01*
G37*
G36*
G01*
X15699900Y-16107500D02*
X15699900Y-16052500D01*
G75*
G02*
X15705000Y-16047400I5100J0D01*
G01*
X15865000Y-16047400D01*
G75*
G02*
X15870100Y-16052500I0J-5100D01*
G01*
X15870100Y-16107500D01*
G75*
G02*
X15865000Y-16112600I-5100J0D01*
G01*
X15705000Y-16112600D01*
G75*
G02*
X15699900Y-16107500I0J5100D01*
G01*
G37*
G36*
G01*
X15699900Y-16027500D02*
X15699900Y-15972500D01*
G75*
G02*
X15705000Y-15967400I5100J0D01*
G01*
X15865000Y-15967400D01*
G75*
G02*
X15870100Y-15972500I0J-5100D01*
G01*
X15870100Y-16027500D01*
G75*
G02*
X15865000Y-16032600I-5100J0D01*
G01*
X15705000Y-16032600D01*
G75*
G02*
X15699900Y-16027500I0J5100D01*
G01*
G37*
G36*
G01*
X15699900Y-15947500D02*
X15699900Y-15892500D01*
G75*
G02*
X15705000Y-15887400I5100J0D01*
G01*
X15865000Y-15887400D01*
G75*
G02*
X15870100Y-15892500I0J-5100D01*
G01*
X15870100Y-15947500D01*
G75*
G02*
X15865000Y-15952600I-5100J0D01*
G01*
X15705000Y-15952600D01*
G75*
G02*
X15699900Y-15947500I0J5100D01*
G01*
G37*
G36*
G01*
X15699900Y-15867500D02*
X15699900Y-15812500D01*
G75*
G02*
X15705000Y-15807400I5100J0D01*
G01*
X15865000Y-15807400D01*
G75*
G02*
X15870100Y-15812500I0J-5100D01*
G01*
X15870100Y-15867500D01*
G75*
G02*
X15865000Y-15872600I-5100J0D01*
G01*
X15705000Y-15872600D01*
G75*
G02*
X15699900Y-15867500I0J5100D01*
G01*
G37*
G36*
G01*
X15699900Y-15787500D02*
X15699900Y-15732500D01*
G75*
G02*
X15705000Y-15727400I5100J0D01*
G01*
X15865000Y-15727400D01*
G75*
G02*
X15870100Y-15732500I0J-5100D01*
G01*
X15870100Y-15787500D01*
G75*
G02*
X15865000Y-15792600I-5100J0D01*
G01*
X15705000Y-15792600D01*
G75*
G02*
X15699900Y-15787500I0J5100D01*
G01*
G37*
G36*
G01*
X15667500Y-15700100D02*
X15612500Y-15700100D01*
G75*
G02*
X15607400Y-15695000I0J5100D01*
G01*
X15607400Y-15535000D01*
G75*
G02*
X15612500Y-15529900I5100J0D01*
G01*
X15667500Y-15529900D01*
G75*
G02*
X15672600Y-15535000I0J-5100D01*
G01*
X15672600Y-15695000D01*
G75*
G02*
X15667500Y-15700100I-5100J0D01*
G01*
G37*
G36*
G01*
X15587500Y-15700100D02*
X15532500Y-15700100D01*
G75*
G02*
X15527400Y-15695000I0J5100D01*
G01*
X15527400Y-15535000D01*
G75*
G02*
X15532500Y-15529900I5100J0D01*
G01*
X15587500Y-15529900D01*
G75*
G02*
X15592600Y-15535000I0J-5100D01*
G01*
X15592600Y-15695000D01*
G75*
G02*
X15587500Y-15700100I-5100J0D01*
G01*
G37*
G36*
G01*
X15507500Y-15700100D02*
X15452500Y-15700100D01*
G75*
G02*
X15447400Y-15695000I0J5100D01*
G01*
X15447400Y-15535000D01*
G75*
G02*
X15452500Y-15529900I5100J0D01*
G01*
X15507500Y-15529900D01*
G75*
G02*
X15512600Y-15535000I0J-5100D01*
G01*
X15512600Y-15695000D01*
G75*
G02*
X15507500Y-15700100I-5100J0D01*
G01*
G37*
G36*
G01*
X15427500Y-15700100D02*
X15372500Y-15700100D01*
G75*
G02*
X15367400Y-15695000I0J5100D01*
G01*
X15367400Y-15535000D01*
G75*
G02*
X15372500Y-15529900I5100J0D01*
G01*
X15427500Y-15529900D01*
G75*
G02*
X15432600Y-15535000I0J-5100D01*
G01*
X15432600Y-15695000D01*
G75*
G02*
X15427500Y-15700100I-5100J0D01*
G01*
G37*
G36*
G01*
X15347500Y-15700100D02*
X15292500Y-15700100D01*
G75*
G02*
X15287400Y-15695000I0J5100D01*
G01*
X15287400Y-15535000D01*
G75*
G02*
X15292500Y-15529900I5100J0D01*
G01*
X15347500Y-15529900D01*
G75*
G02*
X15352600Y-15535000I0J-5100D01*
G01*
X15352600Y-15695000D01*
G75*
G02*
X15347500Y-15700100I-5100J0D01*
G01*
G37*
G36*
G01*
X15267500Y-15700100D02*
X15212500Y-15700100D01*
G75*
G02*
X15207400Y-15695000I0J5100D01*
G01*
X15207400Y-15535000D01*
G75*
G02*
X15212500Y-15529900I5100J0D01*
G01*
X15267500Y-15529900D01*
G75*
G02*
X15272600Y-15535000I0J-5100D01*
G01*
X15272600Y-15695000D01*
G75*
G02*
X15267500Y-15700100I-5100J0D01*
G01*
G37*
G36*
G01*
X15187500Y-15700100D02*
X15132500Y-15700100D01*
G75*
G02*
X15127400Y-15695000I0J5100D01*
G01*
X15127400Y-15535000D01*
G75*
G02*
X15132500Y-15529900I5100J0D01*
G01*
X15187500Y-15529900D01*
G75*
G02*
X15192600Y-15535000I0J-5100D01*
G01*
X15192600Y-15695000D01*
G75*
G02*
X15187500Y-15700100I-5100J0D01*
G01*
G37*
G36*
G01*
X15107500Y-15700100D02*
X15052500Y-15700100D01*
G75*
G02*
X15047400Y-15695000I0J5100D01*
G01*
X15047400Y-15535000D01*
G75*
G02*
X15052500Y-15529900I5100J0D01*
G01*
X15107500Y-15529900D01*
G75*
G02*
X15112600Y-15535000I0J-5100D01*
G01*
X15112600Y-15695000D01*
G75*
G02*
X15107500Y-15700100I-5100J0D01*
G01*
G37*
G36*
G01*
X13227500Y-14186100D02*
X13132500Y-14186100D01*
G75*
G02*
X13127400Y-14181000I0J5100D01*
G01*
X13127400Y-14084000D01*
G75*
G02*
X13132500Y-14078900I5100J0D01*
G01*
X13227500Y-14078900D01*
G75*
G02*
X13232600Y-14084000I0J-5100D01*
G01*
X13232600Y-14181000D01*
G75*
G02*
X13227500Y-14186100I-5100J0D01*
G01*
G37*
G36*
G01*
X13377500Y-14186100D02*
X13262500Y-14186100D01*
G75*
G02*
X13257400Y-14181000I0J5100D01*
G01*
X13257400Y-14084000D01*
G75*
G02*
X13262500Y-14078900I5100J0D01*
G01*
X13377500Y-14078900D01*
G75*
G02*
X13382600Y-14084000I0J-5100D01*
G01*
X13382600Y-14181000D01*
G75*
G02*
X13377500Y-14186100I-5100J0D01*
G01*
G37*
G36*
G01*
X13132500Y-13964900D02*
X13227500Y-13964900D01*
G75*
G02*
X13232600Y-13970000I0J-5100D01*
G01*
X13232600Y-14055000D01*
G75*
G02*
X13227500Y-14060100I-5100J0D01*
G01*
X13132500Y-14060100D01*
G75*
G02*
X13127400Y-14055000I0J5100D01*
G01*
X13127400Y-13970000D01*
G75*
G02*
X13132500Y-13964900I5100J0D01*
G01*
G37*
G36*
G01*
X13377500Y-14060100D02*
X13262500Y-14060100D01*
G75*
G02*
X13257400Y-14055000I0J5100D01*
G01*
X13257400Y-13970000D01*
G75*
G02*
X13262500Y-13964900I5100J0D01*
G01*
X13377500Y-13964900D01*
G75*
G02*
X13382600Y-13970000I0J-5100D01*
G01*
X13382600Y-14055000D01*
G75*
G02*
X13377500Y-14060100I-5100J0D01*
G01*
G37*
G36*
G01*
X14668300Y-16454900D02*
X14478300Y-16454900D01*
G75*
G02*
X14473200Y-16449800I0J5100D01*
G01*
X14473200Y-16409800D01*
G75*
G02*
X14478300Y-16404700I5100J0D01*
G01*
X14668300Y-16404700D01*
G75*
G02*
X14673400Y-16409800I0J-5100D01*
G01*
X14673400Y-16449800D01*
G75*
G02*
X14668300Y-16454900I-5100J0D01*
G01*
G37*
G36*
G01*
X14668300Y-16334900D02*
X14478300Y-16334900D01*
G75*
G02*
X14473200Y-16329800I0J5100D01*
G01*
X14473200Y-16289800D01*
G75*
G02*
X14478300Y-16284700I5100J0D01*
G01*
X14668300Y-16284700D01*
G75*
G02*
X14673400Y-16289800I0J-5100D01*
G01*
X14673400Y-16329800D01*
G75*
G02*
X14668300Y-16334900I-5100J0D01*
G01*
G37*
G36*
G01*
X14668300Y-16214900D02*
X14478300Y-16214900D01*
G75*
G02*
X14473200Y-16209800I0J5100D01*
G01*
X14473200Y-16169800D01*
G75*
G02*
X14478300Y-16164700I5100J0D01*
G01*
X14668300Y-16164700D01*
G75*
G02*
X14673400Y-16169800I0J-5100D01*
G01*
X14673400Y-16209800D01*
G75*
G02*
X14668300Y-16214900I-5100J0D01*
G01*
G37*
G36*
G01*
X18373400Y-13750000D02*
X18373400Y-12750000D01*
G75*
G02*
X18378500Y-12744900I5100J0D01*
G01*
X18578500Y-12744900D01*
G75*
G02*
X18583600Y-12750000I0J-5100D01*
G01*
X18583600Y-13750000D01*
G75*
G02*
X18578500Y-13755100I-5100J0D01*
G01*
X18378500Y-13755100D01*
G75*
G02*
X18373400Y-13750000I0J5100D01*
G01*
G37*
G36*
G01*
X18627400Y-13750000D02*
X18627400Y-12750000D01*
G75*
G02*
X18632500Y-12744900I5100J0D01*
G01*
X18832500Y-12744900D01*
G75*
G02*
X18837600Y-12750000I0J-5100D01*
G01*
X18837600Y-13750000D01*
G75*
G02*
X18832500Y-13755100I-5100J0D01*
G01*
X18632500Y-13755100D01*
G75*
G02*
X18627400Y-13750000I0J5100D01*
G01*
G37*
G36*
G01*
X18881400Y-13750000D02*
X18881400Y-12750000D01*
G75*
G02*
X18886500Y-12744900I5100J0D01*
G01*
X19086500Y-12744900D01*
G75*
G02*
X19091600Y-12750000I0J-5100D01*
G01*
X19091600Y-13750000D01*
G75*
G02*
X19086500Y-13755100I-5100J0D01*
G01*
X18886500Y-13755100D01*
G75*
G02*
X18881400Y-13750000I0J5100D01*
G01*
G37*
G36*
G01*
X19135400Y-13750000D02*
X19135400Y-12750000D01*
G75*
G02*
X19140500Y-12744900I5100J0D01*
G01*
X19340500Y-12744900D01*
G75*
G02*
X19345600Y-12750000I0J-5100D01*
G01*
X19345600Y-13750000D01*
G75*
G02*
X19340500Y-13755100I-5100J0D01*
G01*
X19140500Y-13755100D01*
G75*
G02*
X19135400Y-13750000I0J5100D01*
G01*
G37*
G36*
G01*
X14294800Y-17018600D02*
X14464800Y-17018600D01*
G75*
G02*
X14469900Y-17023700I0J-5100D01*
G01*
X14469900Y-17193700D01*
G75*
G02*
X14464800Y-17198800I-5100J0D01*
G01*
X14294800Y-17198800D01*
G75*
G02*
X14289700Y-17193700I0J5100D01*
G01*
X14289700Y-17023700D01*
G75*
G02*
X14294800Y-17018600I5100J0D01*
G01*
G37*
X14125800Y-17108700D03*
X13871800Y-17108700D03*
X13617800Y-17108700D03*
X13363800Y-17108700D03*
X13109800Y-17108700D03*
G36*
G01*
X8998563Y-10360518D02*
X9069274Y-10431229D01*
G75*
G02*
X9069274Y-10438441I-3606J-3606D01*
G01*
X8959672Y-10548043D01*
G75*
G02*
X8952460Y-10548043I-3606J3606D01*
G01*
X8881749Y-10477332D01*
G75*
G02*
X8881749Y-10470120I3606J3606D01*
G01*
X8991351Y-10360518D01*
G75*
G02*
X8998563Y-10360518I3606J-3606D01*
G01*
G37*
G36*
G01*
X8627332Y-10731749D02*
X8698043Y-10802460D01*
G75*
G02*
X8698043Y-10809672I-3606J-3606D01*
G01*
X8588441Y-10919274D01*
G75*
G02*
X8581229Y-10919274I-3606J3606D01*
G01*
X8510518Y-10848563D01*
G75*
G02*
X8510518Y-10841351I3606J3606D01*
G01*
X8620120Y-10731749D01*
G75*
G02*
X8627332Y-10731749I3606J-3606D01*
G01*
G37*
G36*
G01*
X8747540Y-10851957D02*
X8818251Y-10922668D01*
G75*
G02*
X8818251Y-10929880I-3606J-3606D01*
G01*
X8708649Y-11039482D01*
G75*
G02*
X8701437Y-11039482I-3606J3606D01*
G01*
X8630726Y-10968771D01*
G75*
G02*
X8630726Y-10961559I3606J3606D01*
G01*
X8740328Y-10851957D01*
G75*
G02*
X8747540Y-10851957I3606J-3606D01*
G01*
G37*
G36*
G01*
X9118771Y-10480726D02*
X9189482Y-10551437D01*
G75*
G02*
X9189482Y-10558649I-3606J-3606D01*
G01*
X9079880Y-10668251D01*
G75*
G02*
X9072668Y-10668251I-3606J3606D01*
G01*
X9001957Y-10597540D01*
G75*
G02*
X9001957Y-10590328I3606J3606D01*
G01*
X9111559Y-10480726D01*
G75*
G02*
X9118771Y-10480726I3606J-3606D01*
G01*
G37*
G36*
G01*
X13806275Y-16161600D02*
X13709925Y-16161600D01*
G75*
G02*
X13683000Y-16134675I0J26925D01*
G01*
X13683000Y-16080825D01*
G75*
G02*
X13709925Y-16053900I26925J0D01*
G01*
X13806275Y-16053900D01*
G75*
G02*
X13833200Y-16080825I0J-26925D01*
G01*
X13833200Y-16134675D01*
G75*
G02*
X13806275Y-16161600I-26925J0D01*
G01*
G37*
G36*
G01*
X13806275Y-15974100D02*
X13709925Y-15974100D01*
G75*
G02*
X13683000Y-15947175I0J26925D01*
G01*
X13683000Y-15893325D01*
G75*
G02*
X13709925Y-15866400I26925J0D01*
G01*
X13806275Y-15866400D01*
G75*
G02*
X13833200Y-15893325I0J-26925D01*
G01*
X13833200Y-15947175D01*
G75*
G02*
X13806275Y-15974100I-26925J0D01*
G01*
G37*
G36*
G01*
X13455925Y-16053900D02*
X13552275Y-16053900D01*
G75*
G02*
X13579200Y-16080825I0J-26925D01*
G01*
X13579200Y-16134675D01*
G75*
G02*
X13552275Y-16161600I-26925J0D01*
G01*
X13455925Y-16161600D01*
G75*
G02*
X13429000Y-16134675I0J26925D01*
G01*
X13429000Y-16080825D01*
G75*
G02*
X13455925Y-16053900I26925J0D01*
G01*
G37*
G36*
G01*
X13455925Y-15866400D02*
X13552275Y-15866400D01*
G75*
G02*
X13579200Y-15893325I0J-26925D01*
G01*
X13579200Y-15947175D01*
G75*
G02*
X13552275Y-15974100I-26925J0D01*
G01*
X13455925Y-15974100D01*
G75*
G02*
X13429000Y-15947175I0J26925D01*
G01*
X13429000Y-15893325D01*
G75*
G02*
X13455925Y-15866400I26925J0D01*
G01*
G37*
D10*
G36*
X12884005Y-16390002D02*
G01*
X12883048Y-16389712D01*
X12882167Y-16389240D01*
X12881394Y-16388606D01*
X12880759Y-16387833D01*
X12880288Y-16386952D01*
X12879998Y-16385995D01*
X12879900Y-16385000D01*
X12879900Y-16235000D01*
X12879998Y-16234005D01*
X12880288Y-16233048D01*
X12880759Y-16232167D01*
X12881394Y-16231394D01*
X12882167Y-16230759D01*
X12883048Y-16230288D01*
X12884005Y-16229998D01*
X12885000Y-16229900D01*
X12935000Y-16229900D01*
X12935611Y-16229960D01*
X12937453Y-16229960D01*
X12937953Y-16229985D01*
X12942836Y-16230466D01*
X12943331Y-16230539D01*
X12948144Y-16231496D01*
X12948629Y-16231618D01*
X12953325Y-16233042D01*
X12953796Y-16233211D01*
X12958329Y-16235089D01*
X12958782Y-16235303D01*
X12963109Y-16237616D01*
X12963538Y-16237873D01*
X12967618Y-16240599D01*
X12968020Y-16240897D01*
X12971813Y-16244010D01*
X12972184Y-16244346D01*
X12975654Y-16247816D01*
X12975990Y-16248187D01*
X12979103Y-16251980D01*
X12979401Y-16252382D01*
X12982127Y-16256462D01*
X12982384Y-16256891D01*
X12984697Y-16261218D01*
X12984911Y-16261671D01*
X12986789Y-16266204D01*
X12986958Y-16266675D01*
X12988382Y-16271370D01*
X12988504Y-16271856D01*
X12989461Y-16276669D01*
X12989534Y-16277164D01*
X12990015Y-16282047D01*
X12990040Y-16282547D01*
X12990040Y-16284389D01*
X12990100Y-16285000D01*
X12990100Y-16335000D01*
X12990040Y-16335611D01*
X12990040Y-16337453D01*
X12990015Y-16337953D01*
X12989534Y-16342836D01*
X12989461Y-16343331D01*
X12988504Y-16348144D01*
X12988382Y-16348629D01*
X12986958Y-16353325D01*
X12986789Y-16353796D01*
X12984911Y-16358329D01*
X12984697Y-16358782D01*
X12982384Y-16363109D01*
X12982127Y-16363538D01*
X12979401Y-16367618D01*
X12979103Y-16368020D01*
X12975990Y-16371813D01*
X12975654Y-16372184D01*
X12972184Y-16375654D01*
X12971813Y-16375990D01*
X12968020Y-16379103D01*
X12967618Y-16379401D01*
X12963538Y-16382127D01*
X12963109Y-16382384D01*
X12958782Y-16384697D01*
X12958329Y-16384911D01*
X12953796Y-16386789D01*
X12953325Y-16386958D01*
X12948629Y-16388382D01*
X12948144Y-16388504D01*
X12943331Y-16389461D01*
X12942836Y-16389534D01*
X12937953Y-16390015D01*
X12937453Y-16390040D01*
X12935611Y-16390040D01*
X12935000Y-16390100D01*
X12885000Y-16390100D01*
X12884005Y-16390002D01*
G37*
G36*
X12804389Y-16390040D02*
G01*
X12802547Y-16390040D01*
X12802047Y-16390015D01*
X12797164Y-16389534D01*
X12796669Y-16389461D01*
X12791856Y-16388504D01*
X12791370Y-16388382D01*
X12786675Y-16386958D01*
X12786204Y-16386789D01*
X12781671Y-16384911D01*
X12781218Y-16384697D01*
X12776891Y-16382384D01*
X12776462Y-16382127D01*
X12772382Y-16379401D01*
X12771980Y-16379103D01*
X12768187Y-16375990D01*
X12767816Y-16375654D01*
X12764346Y-16372184D01*
X12764010Y-16371813D01*
X12760897Y-16368020D01*
X12760599Y-16367618D01*
X12757873Y-16363538D01*
X12757616Y-16363109D01*
X12755303Y-16358782D01*
X12755089Y-16358329D01*
X12753211Y-16353796D01*
X12753042Y-16353325D01*
X12751618Y-16348629D01*
X12751496Y-16348144D01*
X12750539Y-16343331D01*
X12750466Y-16342836D01*
X12749985Y-16337953D01*
X12749960Y-16337453D01*
X12749960Y-16335611D01*
X12749900Y-16335000D01*
X12749900Y-16285000D01*
X12749960Y-16284389D01*
X12749960Y-16282547D01*
X12749985Y-16282047D01*
X12750466Y-16277164D01*
X12750539Y-16276669D01*
X12751496Y-16271856D01*
X12751618Y-16271370D01*
X12753042Y-16266675D01*
X12753211Y-16266204D01*
X12755089Y-16261671D01*
X12755303Y-16261218D01*
X12757616Y-16256891D01*
X12757873Y-16256462D01*
X12760599Y-16252382D01*
X12760897Y-16251980D01*
X12764010Y-16248187D01*
X12764346Y-16247816D01*
X12767816Y-16244346D01*
X12768187Y-16244010D01*
X12771980Y-16240897D01*
X12772382Y-16240599D01*
X12776462Y-16237873D01*
X12776891Y-16237616D01*
X12781218Y-16235303D01*
X12781671Y-16235089D01*
X12786204Y-16233211D01*
X12786675Y-16233042D01*
X12791370Y-16231618D01*
X12791856Y-16231496D01*
X12796669Y-16230539D01*
X12797164Y-16230466D01*
X12802047Y-16229985D01*
X12802547Y-16229960D01*
X12804389Y-16229960D01*
X12805000Y-16229900D01*
X12855000Y-16229900D01*
X12855995Y-16229998D01*
X12856952Y-16230288D01*
X12857833Y-16230759D01*
X12858606Y-16231394D01*
X12859240Y-16232167D01*
X12859712Y-16233048D01*
X12860002Y-16234005D01*
X12860100Y-16235000D01*
X12860100Y-16385000D01*
X12860002Y-16385995D01*
X12859712Y-16386952D01*
X12859240Y-16387833D01*
X12858606Y-16388606D01*
X12857833Y-16389240D01*
X12856952Y-16389712D01*
X12855995Y-16390002D01*
X12855000Y-16390100D01*
X12805000Y-16390100D01*
X12804389Y-16390040D01*
G37*
G36*
G01*
X13265000Y-15459900D02*
X13435000Y-15459900D01*
G75*
G02*
X13440100Y-15465000I0J-5100D01*
G01*
X13440100Y-15635000D01*
G75*
G02*
X13435000Y-15640100I-5100J0D01*
G01*
X13265000Y-15640100D01*
G75*
G02*
X13259900Y-15635000I0J5100D01*
G01*
X13259900Y-15465000D01*
G75*
G02*
X13265000Y-15459900I5100J0D01*
G01*
G37*
D14*
X13096000Y-15550000D03*
G36*
G01*
X13187200Y-15888900D02*
X13212200Y-15888900D01*
G75*
G02*
X13217300Y-15894000I0J-5100D01*
G01*
X13217300Y-15944000D01*
G75*
G02*
X13212200Y-15949100I-5100J0D01*
G01*
X13187200Y-15949100D01*
G75*
G02*
X13182100Y-15944000I0J5100D01*
G01*
X13182100Y-15894000D01*
G75*
G02*
X13187200Y-15888900I5100J0D01*
G01*
G37*
G36*
G01*
X13237200Y-16078900D02*
X13262200Y-16078900D01*
G75*
G02*
X13267300Y-16084000I0J-5100D01*
G01*
X13267300Y-16134000D01*
G75*
G02*
X13262200Y-16139100I-5100J0D01*
G01*
X13237200Y-16139100D01*
G75*
G02*
X13232100Y-16134000I0J5100D01*
G01*
X13232100Y-16084000D01*
G75*
G02*
X13237200Y-16078900I5100J0D01*
G01*
G37*
G36*
G01*
X13287200Y-16078900D02*
X13312200Y-16078900D01*
G75*
G02*
X13317300Y-16084000I0J-5100D01*
G01*
X13317300Y-16134000D01*
G75*
G02*
X13312200Y-16139100I-5100J0D01*
G01*
X13287200Y-16139100D01*
G75*
G02*
X13282100Y-16134000I0J5100D01*
G01*
X13282100Y-16084000D01*
G75*
G02*
X13287200Y-16078900I5100J0D01*
G01*
G37*
G36*
G01*
X13144700Y-15963900D02*
X13304700Y-15963900D01*
G75*
G02*
X13309800Y-15969000I0J-5100D01*
G01*
X13309800Y-16059000D01*
G75*
G02*
X13304700Y-16064100I-5100J0D01*
G01*
X13144700Y-16064100D01*
G75*
G02*
X13139600Y-16059000I0J5100D01*
G01*
X13139600Y-15969000D01*
G75*
G02*
X13144700Y-15963900I5100J0D01*
G01*
G37*
G36*
G01*
X13287200Y-15888900D02*
X13312200Y-15888900D01*
G75*
G02*
X13317300Y-15894000I0J-5100D01*
G01*
X13317300Y-15944000D01*
G75*
G02*
X13312200Y-15949100I-5100J0D01*
G01*
X13287200Y-15949100D01*
G75*
G02*
X13282100Y-15944000I0J5100D01*
G01*
X13282100Y-15894000D01*
G75*
G02*
X13287200Y-15888900I5100J0D01*
G01*
G37*
G36*
G01*
X13237200Y-15888900D02*
X13262200Y-15888900D01*
G75*
G02*
X13267300Y-15894000I0J-5100D01*
G01*
X13267300Y-15944000D01*
G75*
G02*
X13262200Y-15949100I-5100J0D01*
G01*
X13237200Y-15949100D01*
G75*
G02*
X13232100Y-15944000I0J5100D01*
G01*
X13232100Y-15894000D01*
G75*
G02*
X13237200Y-15888900I5100J0D01*
G01*
G37*
G36*
G01*
X13137200Y-15888900D02*
X13162200Y-15888900D01*
G75*
G02*
X13167300Y-15894000I0J-5100D01*
G01*
X13167300Y-15944000D01*
G75*
G02*
X13162200Y-15949100I-5100J0D01*
G01*
X13137200Y-15949100D01*
G75*
G02*
X13132100Y-15944000I0J5100D01*
G01*
X13132100Y-15894000D01*
G75*
G02*
X13137200Y-15888900I5100J0D01*
G01*
G37*
G36*
G01*
X13137200Y-16078900D02*
X13162200Y-16078900D01*
G75*
G02*
X13167300Y-16084000I0J-5100D01*
G01*
X13167300Y-16134000D01*
G75*
G02*
X13162200Y-16139100I-5100J0D01*
G01*
X13137200Y-16139100D01*
G75*
G02*
X13132100Y-16134000I0J5100D01*
G01*
X13132100Y-16084000D01*
G75*
G02*
X13137200Y-16078900I5100J0D01*
G01*
G37*
G36*
G01*
X13187200Y-16078900D02*
X13212200Y-16078900D01*
G75*
G02*
X13217300Y-16084000I0J-5100D01*
G01*
X13217300Y-16134000D01*
G75*
G02*
X13212200Y-16139100I-5100J0D01*
G01*
X13187200Y-16139100D01*
G75*
G02*
X13182100Y-16134000I0J5100D01*
G01*
X13182100Y-16084000D01*
G75*
G02*
X13187200Y-16078900I5100J0D01*
G01*
G37*
G36*
G01*
X14624900Y-16975000D02*
X14624900Y-16875000D01*
G75*
G02*
X14630000Y-16869900I5100J0D01*
G01*
X14785000Y-16869900D01*
G75*
G02*
X14790100Y-16875000I0J-5100D01*
G01*
X14790100Y-16975000D01*
G75*
G02*
X14785000Y-16980100I-5100J0D01*
G01*
X14630000Y-16980100D01*
G75*
G02*
X14624900Y-16975000I0J5100D01*
G01*
G37*
G36*
G01*
X15149900Y-16975000D02*
X15149900Y-16875000D01*
G75*
G02*
X15155000Y-16869900I5100J0D01*
G01*
X15310000Y-16869900D01*
G75*
G02*
X15315100Y-16875000I0J-5100D01*
G01*
X15315100Y-16975000D01*
G75*
G02*
X15310000Y-16980100I-5100J0D01*
G01*
X15155000Y-16980100D01*
G75*
G02*
X15149900Y-16975000I0J5100D01*
G01*
G37*
G36*
G01*
X15149900Y-17145000D02*
X15149900Y-17045000D01*
G75*
G02*
X15155000Y-17039900I5100J0D01*
G01*
X15310000Y-17039900D01*
G75*
G02*
X15315100Y-17045000I0J-5100D01*
G01*
X15315100Y-17145000D01*
G75*
G02*
X15310000Y-17150100I-5100J0D01*
G01*
X15155000Y-17150100D01*
G75*
G02*
X15149900Y-17145000I0J5100D01*
G01*
G37*
G36*
G01*
X14624900Y-17145000D02*
X14624900Y-17045000D01*
G75*
G02*
X14630000Y-17039900I5100J0D01*
G01*
X14785000Y-17039900D01*
G75*
G02*
X14790100Y-17045000I0J-5100D01*
G01*
X14790100Y-17145000D01*
G75*
G02*
X14785000Y-17150100I-5100J0D01*
G01*
X14630000Y-17150100D01*
G75*
G02*
X14624900Y-17145000I0J5100D01*
G01*
G37*
G36*
G01*
X9860554Y-12656725D02*
X9733275Y-12529446D01*
G75*
G02*
X9733275Y-12522234I3606J3606D01*
G01*
X9839341Y-12416168D01*
G75*
G02*
X9846553Y-12416168I3606J-3606D01*
G01*
X9973832Y-12543447D01*
G75*
G02*
X9973832Y-12550659I-3606J-3606D01*
G01*
X9867766Y-12656725D01*
G75*
G02*
X9860554Y-12656725I-3606J3606D01*
G01*
G37*
G36*
G01*
X9507000Y-13010279D02*
X9379721Y-12883000D01*
G75*
G02*
X9379721Y-12875787I3606J3606D01*
G01*
X9485787Y-12769721D01*
G75*
G02*
X9493000Y-12769721I3606J-3606D01*
G01*
X9620279Y-12897000D01*
G75*
G02*
X9620279Y-12904213I-3606J-3606D01*
G01*
X9514213Y-13010279D01*
G75*
G02*
X9507000Y-13010279I-3606J3606D01*
G01*
G37*
G36*
G01*
X9683777Y-12833502D02*
X9556498Y-12706223D01*
G75*
G02*
X9556498Y-12699010I3606J3606D01*
G01*
X9662564Y-12592944D01*
G75*
G02*
X9669776Y-12592944I3606J-3606D01*
G01*
X9797056Y-12720224D01*
G75*
G02*
X9797056Y-12727436I-3606J-3606D01*
G01*
X9690990Y-12833502D01*
G75*
G02*
X9683777Y-12833502I-3606J3606D01*
G01*
G37*
M02*
