%TF.GenerationSoftware,KiCad,Pcbnew,5.1.7+dfsg1-1~bpo10+1*%
%TF.CreationDate,2020-11-15T21:32:18+00:00*%
%TF.ProjectId,mobo,6d6f626f-2e6b-4696-9361-645f70636258,rev?*%
%TF.SameCoordinates,Original*%
%TF.FileFunction,Plated,1,2,PTH,Drill*%
%TF.FilePolarity,Positive*%
%FSLAX46Y46*%
G04 Gerber Fmt 4.6, Leading zero omitted, Abs format (unit mm)*
G04 Created by KiCad (PCBNEW 5.1.7+dfsg1-1~bpo10+1) date 2020-11-15 21:32:18*
%MOMM*%
%LPD*%
G01*
G04 APERTURE LIST*
%TA.AperFunction,ComponentDrill*%
%ADD10C,0.250000*%
%TD*%
%TA.AperFunction,ViaDrill*%
%ADD11C,0.400000*%
%TD*%
%TA.AperFunction,ComponentDrill*%
%ADD12C,1.000000*%
%TD*%
G04 APERTURE END LIST*
D10*
%TO.C,U3*%
X131747000Y-160140000D03*
X132747000Y-160140000D03*
%TD*%
D11*
X82500000Y-118000000D03*
X83300000Y-116000000D03*
X88300000Y-113200000D03*
X130215000Y-160140000D03*
X137600000Y-162050000D03*
X140500000Y-155600000D03*
X141400000Y-155600000D03*
X143400000Y-159700000D03*
X143900000Y-161400000D03*
X145400000Y-157600000D03*
X149900000Y-141700000D03*
X151000000Y-160000000D03*
X152400000Y-157800000D03*
X153200000Y-158600000D03*
X153400000Y-148200000D03*
X153400000Y-154500000D03*
X153800000Y-171000000D03*
X154100000Y-159300000D03*
X154500000Y-149100000D03*
X154500000Y-154000000D03*
X155600000Y-162400000D03*
X157000000Y-166200000D03*
X161500000Y-141700000D03*
X161500000Y-155600000D03*
X161500000Y-156600000D03*
D12*
%TO.C,M1*%
X130960000Y-155500000D03*
X133500000Y-155500000D03*
%TO.C,J3*%
X155600000Y-168460000D03*
X155600000Y-171000000D03*
X158140000Y-168460000D03*
X158140000Y-171000000D03*
X160680000Y-168460000D03*
X160680000Y-171000000D03*
%TO.C,J1*%
X131098000Y-171087000D03*
X133638000Y-171087000D03*
X136178000Y-171087000D03*
X138718000Y-171087000D03*
X141258000Y-171087000D03*
X143798000Y-171087000D03*
M02*
