%TF.GenerationSoftware,KiCad,Pcbnew,5.1.7+dfsg1-1~bpo10+1*%
%TF.CreationDate,2020-11-15T21:32:21+00:00*%
%TF.ProjectId,piggyback,70696767-7962-4616-936b-2e6b69636164,rev?*%
%TF.SameCoordinates,Original*%
%TF.FileFunction,Legend,Bot*%
%TF.FilePolarity,Positive*%
%FSLAX45Y45*%
G04 Gerber Fmt 4.5, Leading zero omitted, Abs format (unit mm)*
G04 Created by KiCad (PCBNEW 5.1.7+dfsg1-1~bpo10+1) date 2020-11-15 21:32:21*
%MOMM*%
%LPD*%
G01*
G04 APERTURE LIST*
%TA.AperFunction,Profile*%
%ADD10C,0.050000*%
%TD*%
%ADD11O,1.302000X1.852000*%
%ADD12O,1.702000X1.702000*%
%ADD13O,1.802000X1.802000*%
%ADD14C,1.552000*%
%ADD15O,1.302000X2.002000*%
%ADD16C,1.702000*%
%ADD17C,2.702000*%
G04 APERTURE END LIST*
D10*
X16350000Y-14150000D02*
G75*
G03*
X16350000Y-14150000I-150000J0D01*
G01*
X16350000Y-6150000D02*
G75*
G03*
X16350000Y-6150000I-150000J0D01*
G01*
X4550000Y-6150000D02*
G75*
G03*
X4550000Y-6150000I-150000J0D01*
G01*
X4550000Y-14150000D02*
G75*
G03*
X4550000Y-14150000I-150000J0D01*
G01*
X16510000Y-5842000D02*
X4064000Y-5842000D01*
X16510000Y-14478000D02*
X16510000Y-5842000D01*
X4064000Y-14478000D02*
X16510000Y-14478000D01*
X4064000Y-5842000D02*
X4064000Y-14478000D01*
%LPC*%
D11*
X4600000Y-8200000D03*
X4800000Y-8200000D03*
X5000000Y-8200000D03*
G36*
G01*
X5265100Y-8134525D02*
X5265100Y-8265475D01*
G75*
G02*
X5237975Y-8292600I-27125J0D01*
G01*
X5162025Y-8292600D01*
G75*
G02*
X5134900Y-8265475I0J27125D01*
G01*
X5134900Y-8134525D01*
G75*
G02*
X5162025Y-8107400I27125J0D01*
G01*
X5237975Y-8107400D01*
G75*
G02*
X5265100Y-8134525I0J-27125D01*
G01*
G37*
G36*
G01*
X6016000Y-13099100D02*
X5856000Y-13099100D01*
G75*
G02*
X5850900Y-13094000I0J5100D01*
G01*
X5850900Y-12934000D01*
G75*
G02*
X5856000Y-12928900I5100J0D01*
G01*
X6016000Y-12928900D01*
G75*
G02*
X6021100Y-12934000I0J-5100D01*
G01*
X6021100Y-13094000D01*
G75*
G02*
X6016000Y-13099100I-5100J0D01*
G01*
G37*
D12*
X7714000Y-11744000D03*
X6190000Y-13014000D03*
X7460000Y-11744000D03*
X6444000Y-13014000D03*
X7206000Y-11744000D03*
X6698000Y-13014000D03*
X6952000Y-11744000D03*
X6952000Y-13014000D03*
X6698000Y-11744000D03*
X7206000Y-13014000D03*
X6444000Y-11744000D03*
X7460000Y-13014000D03*
X6190000Y-11744000D03*
X7714000Y-13014000D03*
X5936000Y-11744000D03*
X8476000Y-11744000D03*
X10254000Y-13014000D03*
X8730000Y-11744000D03*
X10000000Y-13014000D03*
X8984000Y-11744000D03*
X9746000Y-13014000D03*
X9238000Y-11744000D03*
X9492000Y-13014000D03*
X9492000Y-11744000D03*
X9238000Y-13014000D03*
X9746000Y-11744000D03*
X8984000Y-13014000D03*
X10000000Y-11744000D03*
X8730000Y-13014000D03*
X10254000Y-11744000D03*
G36*
G01*
X8556000Y-13099100D02*
X8396000Y-13099100D01*
G75*
G02*
X8390900Y-13094000I0J5100D01*
G01*
X8390900Y-12934000D01*
G75*
G02*
X8396000Y-12928900I5100J0D01*
G01*
X8556000Y-12928900D01*
G75*
G02*
X8561100Y-12934000I0J-5100D01*
G01*
X8561100Y-13094000D01*
G75*
G02*
X8556000Y-13099100I-5100J0D01*
G01*
G37*
G36*
G01*
X11096000Y-13099100D02*
X10936000Y-13099100D01*
G75*
G02*
X10930900Y-13094000I0J5100D01*
G01*
X10930900Y-12934000D01*
G75*
G02*
X10936000Y-12928900I5100J0D01*
G01*
X11096000Y-12928900D01*
G75*
G02*
X11101100Y-12934000I0J-5100D01*
G01*
X11101100Y-13094000D01*
G75*
G02*
X11096000Y-13099100I-5100J0D01*
G01*
G37*
X12794000Y-11744000D03*
X11270000Y-13014000D03*
X12540000Y-11744000D03*
X11524000Y-13014000D03*
X12286000Y-11744000D03*
X11778000Y-13014000D03*
X12032000Y-11744000D03*
X12032000Y-13014000D03*
X11778000Y-11744000D03*
X12286000Y-13014000D03*
X11524000Y-11744000D03*
X12540000Y-13014000D03*
X11270000Y-11744000D03*
X12794000Y-13014000D03*
X11016000Y-11744000D03*
G36*
G01*
X6867000Y-13685900D02*
X7037000Y-13685900D01*
G75*
G02*
X7042100Y-13691000I0J-5100D01*
G01*
X7042100Y-13861000D01*
G75*
G02*
X7037000Y-13866100I-5100J0D01*
G01*
X6867000Y-13866100D01*
G75*
G02*
X6861900Y-13861000I0J5100D01*
G01*
X6861900Y-13691000D01*
G75*
G02*
X6867000Y-13685900I5100J0D01*
G01*
G37*
D13*
X6698000Y-13776000D03*
X6444000Y-13776000D03*
X6190000Y-13776000D03*
G36*
G01*
X9407000Y-13685900D02*
X9577000Y-13685900D01*
G75*
G02*
X9582100Y-13691000I0J-5100D01*
G01*
X9582100Y-13861000D01*
G75*
G02*
X9577000Y-13866100I-5100J0D01*
G01*
X9407000Y-13866100D01*
G75*
G02*
X9401900Y-13861000I0J5100D01*
G01*
X9401900Y-13691000D01*
G75*
G02*
X9407000Y-13685900I5100J0D01*
G01*
G37*
X9238000Y-13776000D03*
X8984000Y-13776000D03*
X8730000Y-13776000D03*
X11270000Y-13776000D03*
X11524000Y-13776000D03*
X11778000Y-13776000D03*
G36*
G01*
X11947000Y-13685900D02*
X12117000Y-13685900D01*
G75*
G02*
X12122100Y-13691000I0J-5100D01*
G01*
X12122100Y-13861000D01*
G75*
G02*
X12117000Y-13866100I-5100J0D01*
G01*
X11947000Y-13866100D01*
G75*
G02*
X11941900Y-13861000I0J5100D01*
G01*
X11941900Y-13691000D01*
G75*
G02*
X11947000Y-13685900I5100J0D01*
G01*
G37*
D14*
X14050000Y-14053750D03*
X14550000Y-14053750D03*
D15*
X13950000Y-14323750D03*
X14650000Y-14323750D03*
D16*
X7464000Y-13776000D03*
G36*
G01*
X7799100Y-13696000D02*
X7799100Y-13856000D01*
G75*
G02*
X7794000Y-13861100I-5100J0D01*
G01*
X7634000Y-13861100D01*
G75*
G02*
X7628900Y-13856000I0J5100D01*
G01*
X7628900Y-13696000D01*
G75*
G02*
X7634000Y-13690900I5100J0D01*
G01*
X7794000Y-13690900D01*
G75*
G02*
X7799100Y-13696000I0J-5100D01*
G01*
G37*
G36*
G01*
X10339100Y-13696000D02*
X10339100Y-13856000D01*
G75*
G02*
X10334000Y-13861100I-5100J0D01*
G01*
X10174000Y-13861100D01*
G75*
G02*
X10168900Y-13856000I0J5100D01*
G01*
X10168900Y-13696000D01*
G75*
G02*
X10174000Y-13690900I5100J0D01*
G01*
X10334000Y-13690900D01*
G75*
G02*
X10339100Y-13696000I0J-5100D01*
G01*
G37*
X10004000Y-13776000D03*
G36*
G01*
X12879100Y-13696000D02*
X12879100Y-13856000D01*
G75*
G02*
X12874000Y-13861100I-5100J0D01*
G01*
X12714000Y-13861100D01*
G75*
G02*
X12708900Y-13856000I0J5100D01*
G01*
X12708900Y-13696000D01*
G75*
G02*
X12714000Y-13690900I5100J0D01*
G01*
X12874000Y-13690900D01*
G75*
G02*
X12879100Y-13696000I0J-5100D01*
G01*
G37*
X12544000Y-13776000D03*
D11*
X4600000Y-6800000D03*
X4800000Y-6800000D03*
X5000000Y-6800000D03*
G36*
G01*
X5265100Y-6734525D02*
X5265100Y-6865475D01*
G75*
G02*
X5237975Y-6892600I-27125J0D01*
G01*
X5162025Y-6892600D01*
G75*
G02*
X5134900Y-6865475I0J27125D01*
G01*
X5134900Y-6734525D01*
G75*
G02*
X5162025Y-6707400I27125J0D01*
G01*
X5237975Y-6707400D01*
G75*
G02*
X5265100Y-6734525I0J-27125D01*
G01*
G37*
G36*
G01*
X5265100Y-7434525D02*
X5265100Y-7565475D01*
G75*
G02*
X5237975Y-7592600I-27125J0D01*
G01*
X5162025Y-7592600D01*
G75*
G02*
X5134900Y-7565475I0J27125D01*
G01*
X5134900Y-7434525D01*
G75*
G02*
X5162025Y-7407400I27125J0D01*
G01*
X5237975Y-7407400D01*
G75*
G02*
X5265100Y-7434525I0J-27125D01*
G01*
G37*
X5000000Y-7500000D03*
X4800000Y-7500000D03*
X4600000Y-7500000D03*
G36*
G01*
X5265100Y-8834525D02*
X5265100Y-8965475D01*
G75*
G02*
X5237975Y-8992600I-27125J0D01*
G01*
X5162025Y-8992600D01*
G75*
G02*
X5134900Y-8965475I0J27125D01*
G01*
X5134900Y-8834525D01*
G75*
G02*
X5162025Y-8807400I27125J0D01*
G01*
X5237975Y-8807400D01*
G75*
G02*
X5265100Y-8834525I0J-27125D01*
G01*
G37*
X5000000Y-8900000D03*
X4800000Y-8900000D03*
X4600000Y-8900000D03*
X6100000Y-6800000D03*
X6300000Y-6800000D03*
X6500000Y-6800000D03*
G36*
G01*
X6765100Y-6734525D02*
X6765100Y-6865475D01*
G75*
G02*
X6737975Y-6892600I-27125J0D01*
G01*
X6662025Y-6892600D01*
G75*
G02*
X6634900Y-6865475I0J27125D01*
G01*
X6634900Y-6734525D01*
G75*
G02*
X6662025Y-6707400I27125J0D01*
G01*
X6737975Y-6707400D01*
G75*
G02*
X6765100Y-6734525I0J-27125D01*
G01*
G37*
G36*
G01*
X6765100Y-7434525D02*
X6765100Y-7565475D01*
G75*
G02*
X6737975Y-7592600I-27125J0D01*
G01*
X6662025Y-7592600D01*
G75*
G02*
X6634900Y-7565475I0J27125D01*
G01*
X6634900Y-7434525D01*
G75*
G02*
X6662025Y-7407400I27125J0D01*
G01*
X6737975Y-7407400D01*
G75*
G02*
X6765100Y-7434525I0J-27125D01*
G01*
G37*
X6500000Y-7500000D03*
X6300000Y-7500000D03*
X6100000Y-7500000D03*
X6100000Y-8200000D03*
X6300000Y-8200000D03*
X6500000Y-8200000D03*
G36*
G01*
X6765100Y-8134525D02*
X6765100Y-8265475D01*
G75*
G02*
X6737975Y-8292600I-27125J0D01*
G01*
X6662025Y-8292600D01*
G75*
G02*
X6634900Y-8265475I0J27125D01*
G01*
X6634900Y-8134525D01*
G75*
G02*
X6662025Y-8107400I27125J0D01*
G01*
X6737975Y-8107400D01*
G75*
G02*
X6765100Y-8134525I0J-27125D01*
G01*
G37*
G36*
G01*
X6765100Y-8834525D02*
X6765100Y-8965475D01*
G75*
G02*
X6737975Y-8992600I-27125J0D01*
G01*
X6662025Y-8992600D01*
G75*
G02*
X6634900Y-8965475I0J27125D01*
G01*
X6634900Y-8834525D01*
G75*
G02*
X6662025Y-8807400I27125J0D01*
G01*
X6737975Y-8807400D01*
G75*
G02*
X6765100Y-8834525I0J-27125D01*
G01*
G37*
X6500000Y-8900000D03*
X6300000Y-8900000D03*
X6100000Y-8900000D03*
X7600000Y-6800000D03*
X7800000Y-6800000D03*
X8000000Y-6800000D03*
G36*
G01*
X8265100Y-6734525D02*
X8265100Y-6865475D01*
G75*
G02*
X8237975Y-6892600I-27125J0D01*
G01*
X8162025Y-6892600D01*
G75*
G02*
X8134900Y-6865475I0J27125D01*
G01*
X8134900Y-6734525D01*
G75*
G02*
X8162025Y-6707400I27125J0D01*
G01*
X8237975Y-6707400D01*
G75*
G02*
X8265100Y-6734525I0J-27125D01*
G01*
G37*
G36*
G01*
X8265100Y-7434525D02*
X8265100Y-7565475D01*
G75*
G02*
X8237975Y-7592600I-27125J0D01*
G01*
X8162025Y-7592600D01*
G75*
G02*
X8134900Y-7565475I0J27125D01*
G01*
X8134900Y-7434525D01*
G75*
G02*
X8162025Y-7407400I27125J0D01*
G01*
X8237975Y-7407400D01*
G75*
G02*
X8265100Y-7434525I0J-27125D01*
G01*
G37*
X8000000Y-7500000D03*
X7800000Y-7500000D03*
X7600000Y-7500000D03*
X7600000Y-8200000D03*
X7800000Y-8200000D03*
X8000000Y-8200000D03*
G36*
G01*
X8265100Y-8134525D02*
X8265100Y-8265475D01*
G75*
G02*
X8237975Y-8292600I-27125J0D01*
G01*
X8162025Y-8292600D01*
G75*
G02*
X8134900Y-8265475I0J27125D01*
G01*
X8134900Y-8134525D01*
G75*
G02*
X8162025Y-8107400I27125J0D01*
G01*
X8237975Y-8107400D01*
G75*
G02*
X8265100Y-8134525I0J-27125D01*
G01*
G37*
G36*
G01*
X8265100Y-8834525D02*
X8265100Y-8965475D01*
G75*
G02*
X8237975Y-8992600I-27125J0D01*
G01*
X8162025Y-8992600D01*
G75*
G02*
X8134900Y-8965475I0J27125D01*
G01*
X8134900Y-8834525D01*
G75*
G02*
X8162025Y-8807400I27125J0D01*
G01*
X8237975Y-8807400D01*
G75*
G02*
X8265100Y-8834525I0J-27125D01*
G01*
G37*
X8000000Y-8900000D03*
X7800000Y-8900000D03*
X7600000Y-8900000D03*
G36*
G01*
X9765100Y-6734525D02*
X9765100Y-6865475D01*
G75*
G02*
X9737975Y-6892600I-27125J0D01*
G01*
X9662025Y-6892600D01*
G75*
G02*
X9634900Y-6865475I0J27125D01*
G01*
X9634900Y-6734525D01*
G75*
G02*
X9662025Y-6707400I27125J0D01*
G01*
X9737975Y-6707400D01*
G75*
G02*
X9765100Y-6734525I0J-27125D01*
G01*
G37*
X9500000Y-6800000D03*
X9300000Y-6800000D03*
X9100000Y-6800000D03*
G36*
G01*
X9765100Y-7434525D02*
X9765100Y-7565475D01*
G75*
G02*
X9737975Y-7592600I-27125J0D01*
G01*
X9662025Y-7592600D01*
G75*
G02*
X9634900Y-7565475I0J27125D01*
G01*
X9634900Y-7434525D01*
G75*
G02*
X9662025Y-7407400I27125J0D01*
G01*
X9737975Y-7407400D01*
G75*
G02*
X9765100Y-7434525I0J-27125D01*
G01*
G37*
X9500000Y-7500000D03*
X9300000Y-7500000D03*
X9100000Y-7500000D03*
X9100000Y-8200000D03*
X9300000Y-8200000D03*
X9500000Y-8200000D03*
G36*
G01*
X9765100Y-8134525D02*
X9765100Y-8265475D01*
G75*
G02*
X9737975Y-8292600I-27125J0D01*
G01*
X9662025Y-8292600D01*
G75*
G02*
X9634900Y-8265475I0J27125D01*
G01*
X9634900Y-8134525D01*
G75*
G02*
X9662025Y-8107400I27125J0D01*
G01*
X9737975Y-8107400D01*
G75*
G02*
X9765100Y-8134525I0J-27125D01*
G01*
G37*
G36*
G01*
X9765100Y-8834525D02*
X9765100Y-8965475D01*
G75*
G02*
X9737975Y-8992600I-27125J0D01*
G01*
X9662025Y-8992600D01*
G75*
G02*
X9634900Y-8965475I0J27125D01*
G01*
X9634900Y-8834525D01*
G75*
G02*
X9662025Y-8807400I27125J0D01*
G01*
X9737975Y-8807400D01*
G75*
G02*
X9765100Y-8834525I0J-27125D01*
G01*
G37*
X9500000Y-8900000D03*
X9300000Y-8900000D03*
X9100000Y-8900000D03*
X10650000Y-6800000D03*
X10850000Y-6800000D03*
X11050000Y-6800000D03*
G36*
G01*
X11315100Y-6734525D02*
X11315100Y-6865475D01*
G75*
G02*
X11287975Y-6892600I-27125J0D01*
G01*
X11212025Y-6892600D01*
G75*
G02*
X11184900Y-6865475I0J27125D01*
G01*
X11184900Y-6734525D01*
G75*
G02*
X11212025Y-6707400I27125J0D01*
G01*
X11287975Y-6707400D01*
G75*
G02*
X11315100Y-6734525I0J-27125D01*
G01*
G37*
G36*
G01*
X11315100Y-7434525D02*
X11315100Y-7565475D01*
G75*
G02*
X11287975Y-7592600I-27125J0D01*
G01*
X11212025Y-7592600D01*
G75*
G02*
X11184900Y-7565475I0J27125D01*
G01*
X11184900Y-7434525D01*
G75*
G02*
X11212025Y-7407400I27125J0D01*
G01*
X11287975Y-7407400D01*
G75*
G02*
X11315100Y-7434525I0J-27125D01*
G01*
G37*
X11050000Y-7500000D03*
X10850000Y-7500000D03*
X10650000Y-7500000D03*
X10650000Y-8200000D03*
X10850000Y-8200000D03*
X11050000Y-8200000D03*
G36*
G01*
X11315100Y-8134525D02*
X11315100Y-8265475D01*
G75*
G02*
X11287975Y-8292600I-27125J0D01*
G01*
X11212025Y-8292600D01*
G75*
G02*
X11184900Y-8265475I0J27125D01*
G01*
X11184900Y-8134525D01*
G75*
G02*
X11212025Y-8107400I27125J0D01*
G01*
X11287975Y-8107400D01*
G75*
G02*
X11315100Y-8134525I0J-27125D01*
G01*
G37*
G36*
G01*
X11315100Y-8834525D02*
X11315100Y-8965475D01*
G75*
G02*
X11287975Y-8992600I-27125J0D01*
G01*
X11212025Y-8992600D01*
G75*
G02*
X11184900Y-8965475I0J27125D01*
G01*
X11184900Y-8834525D01*
G75*
G02*
X11212025Y-8807400I27125J0D01*
G01*
X11287975Y-8807400D01*
G75*
G02*
X11315100Y-8834525I0J-27125D01*
G01*
G37*
X11050000Y-8900000D03*
X10850000Y-8900000D03*
X10650000Y-8900000D03*
X13750000Y-6800000D03*
X13950000Y-6800000D03*
X14150000Y-6800000D03*
G36*
G01*
X14415100Y-6734525D02*
X14415100Y-6865475D01*
G75*
G02*
X14387975Y-6892600I-27125J0D01*
G01*
X14312025Y-6892600D01*
G75*
G02*
X14284900Y-6865475I0J27125D01*
G01*
X14284900Y-6734525D01*
G75*
G02*
X14312025Y-6707400I27125J0D01*
G01*
X14387975Y-6707400D01*
G75*
G02*
X14415100Y-6734525I0J-27125D01*
G01*
G37*
G36*
G01*
X14415100Y-7434525D02*
X14415100Y-7565475D01*
G75*
G02*
X14387975Y-7592600I-27125J0D01*
G01*
X14312025Y-7592600D01*
G75*
G02*
X14284900Y-7565475I0J27125D01*
G01*
X14284900Y-7434525D01*
G75*
G02*
X14312025Y-7407400I27125J0D01*
G01*
X14387975Y-7407400D01*
G75*
G02*
X14415100Y-7434525I0J-27125D01*
G01*
G37*
X14150000Y-7500000D03*
X13950000Y-7500000D03*
X13750000Y-7500000D03*
X13750000Y-8200000D03*
X13950000Y-8200000D03*
X14150000Y-8200000D03*
G36*
G01*
X14415100Y-8134525D02*
X14415100Y-8265475D01*
G75*
G02*
X14387975Y-8292600I-27125J0D01*
G01*
X14312025Y-8292600D01*
G75*
G02*
X14284900Y-8265475I0J27125D01*
G01*
X14284900Y-8134525D01*
G75*
G02*
X14312025Y-8107400I27125J0D01*
G01*
X14387975Y-8107400D01*
G75*
G02*
X14415100Y-8134525I0J-27125D01*
G01*
G37*
X13750000Y-8900000D03*
X13950000Y-8900000D03*
X14150000Y-8900000D03*
G36*
G01*
X14415100Y-8834525D02*
X14415100Y-8965475D01*
G75*
G02*
X14387975Y-8992600I-27125J0D01*
G01*
X14312025Y-8992600D01*
G75*
G02*
X14284900Y-8965475I0J27125D01*
G01*
X14284900Y-8834525D01*
G75*
G02*
X14312025Y-8807400I27125J0D01*
G01*
X14387975Y-8807400D01*
G75*
G02*
X14415100Y-8834525I0J-27125D01*
G01*
G37*
X12208000Y-6800000D03*
X12408000Y-6800000D03*
X12608000Y-6800000D03*
G36*
G01*
X12873100Y-6734525D02*
X12873100Y-6865475D01*
G75*
G02*
X12845975Y-6892600I-27125J0D01*
G01*
X12770025Y-6892600D01*
G75*
G02*
X12742900Y-6865475I0J27125D01*
G01*
X12742900Y-6734525D01*
G75*
G02*
X12770025Y-6707400I27125J0D01*
G01*
X12845975Y-6707400D01*
G75*
G02*
X12873100Y-6734525I0J-27125D01*
G01*
G37*
G36*
G01*
X12873100Y-7434525D02*
X12873100Y-7565475D01*
G75*
G02*
X12845975Y-7592600I-27125J0D01*
G01*
X12770025Y-7592600D01*
G75*
G02*
X12742900Y-7565475I0J27125D01*
G01*
X12742900Y-7434525D01*
G75*
G02*
X12770025Y-7407400I27125J0D01*
G01*
X12845975Y-7407400D01*
G75*
G02*
X12873100Y-7434525I0J-27125D01*
G01*
G37*
X12608000Y-7500000D03*
X12408000Y-7500000D03*
X12208000Y-7500000D03*
X12208000Y-8200000D03*
X12408000Y-8200000D03*
X12608000Y-8200000D03*
G36*
G01*
X12873100Y-8134525D02*
X12873100Y-8265475D01*
G75*
G02*
X12845975Y-8292600I-27125J0D01*
G01*
X12770025Y-8292600D01*
G75*
G02*
X12742900Y-8265475I0J27125D01*
G01*
X12742900Y-8134525D01*
G75*
G02*
X12770025Y-8107400I27125J0D01*
G01*
X12845975Y-8107400D01*
G75*
G02*
X12873100Y-8134525I0J-27125D01*
G01*
G37*
G36*
G01*
X12875100Y-8834525D02*
X12875100Y-8965475D01*
G75*
G02*
X12847975Y-8992600I-27125J0D01*
G01*
X12772025Y-8992600D01*
G75*
G02*
X12744900Y-8965475I0J27125D01*
G01*
X12744900Y-8834525D01*
G75*
G02*
X12772025Y-8807400I27125J0D01*
G01*
X12847975Y-8807400D01*
G75*
G02*
X12875100Y-8834525I0J-27125D01*
G01*
G37*
X12610000Y-8900000D03*
X12410000Y-8900000D03*
X12210000Y-8900000D03*
X15250000Y-6800000D03*
X15450000Y-6800000D03*
X15650000Y-6800000D03*
G36*
G01*
X15915100Y-6734525D02*
X15915100Y-6865475D01*
G75*
G02*
X15887975Y-6892600I-27125J0D01*
G01*
X15812025Y-6892600D01*
G75*
G02*
X15784900Y-6865475I0J27125D01*
G01*
X15784900Y-6734525D01*
G75*
G02*
X15812025Y-6707400I27125J0D01*
G01*
X15887975Y-6707400D01*
G75*
G02*
X15915100Y-6734525I0J-27125D01*
G01*
G37*
X15250000Y-7500000D03*
X15450000Y-7500000D03*
X15650000Y-7500000D03*
G36*
G01*
X15915100Y-7434525D02*
X15915100Y-7565475D01*
G75*
G02*
X15887975Y-7592600I-27125J0D01*
G01*
X15812025Y-7592600D01*
G75*
G02*
X15784900Y-7565475I0J27125D01*
G01*
X15784900Y-7434525D01*
G75*
G02*
X15812025Y-7407400I27125J0D01*
G01*
X15887975Y-7407400D01*
G75*
G02*
X15915100Y-7434525I0J-27125D01*
G01*
G37*
G36*
G01*
X15915100Y-8122525D02*
X15915100Y-8253475D01*
G75*
G02*
X15887975Y-8280600I-27125J0D01*
G01*
X15812025Y-8280600D01*
G75*
G02*
X15784900Y-8253475I0J27125D01*
G01*
X15784900Y-8122525D01*
G75*
G02*
X15812025Y-8095400I27125J0D01*
G01*
X15887975Y-8095400D01*
G75*
G02*
X15915100Y-8122525I0J-27125D01*
G01*
G37*
X15650000Y-8188000D03*
X15450000Y-8188000D03*
X15250000Y-8188000D03*
G36*
G01*
X15915100Y-8834525D02*
X15915100Y-8965475D01*
G75*
G02*
X15887975Y-8992600I-27125J0D01*
G01*
X15812025Y-8992600D01*
G75*
G02*
X15784900Y-8965475I0J27125D01*
G01*
X15784900Y-8834525D01*
G75*
G02*
X15812025Y-8807400I27125J0D01*
G01*
X15887975Y-8807400D01*
G75*
G02*
X15915100Y-8834525I0J-27125D01*
G01*
G37*
X15650000Y-8900000D03*
X15450000Y-8900000D03*
X15250000Y-8900000D03*
G36*
G01*
X4720000Y-11714900D02*
X4980000Y-11714900D01*
G75*
G02*
X4985100Y-11720000I0J-5100D01*
G01*
X4985100Y-11980000D01*
G75*
G02*
X4980000Y-11985100I-5100J0D01*
G01*
X4720000Y-11985100D01*
G75*
G02*
X4714900Y-11980000I0J5100D01*
G01*
X4714900Y-11720000D01*
G75*
G02*
X4720000Y-11714900I5100J0D01*
G01*
G37*
D17*
X4850000Y-12358000D03*
X4850000Y-12866000D03*
G36*
G01*
X15079900Y-13645000D02*
X15079900Y-13475000D01*
G75*
G02*
X15085000Y-13469900I5100J0D01*
G01*
X15255000Y-13469900D01*
G75*
G02*
X15260100Y-13475000I0J-5100D01*
G01*
X15260100Y-13645000D01*
G75*
G02*
X15255000Y-13650100I-5100J0D01*
G01*
X15085000Y-13650100D01*
G75*
G02*
X15079900Y-13645000I0J5100D01*
G01*
G37*
D13*
X15424000Y-13560000D03*
X15170000Y-13814000D03*
X15424000Y-13814000D03*
X15170000Y-14068000D03*
X15424000Y-14068000D03*
G36*
G01*
X16134900Y-11435000D02*
X16134900Y-11265000D01*
G75*
G02*
X16140000Y-11259900I5100J0D01*
G01*
X16310000Y-11259900D01*
G75*
G02*
X16315100Y-11265000I0J-5100D01*
G01*
X16315100Y-11435000D01*
G75*
G02*
X16310000Y-11440100I-5100J0D01*
G01*
X16140000Y-11440100D01*
G75*
G02*
X16134900Y-11435000I0J5100D01*
G01*
G37*
X16225000Y-11604000D03*
X16225000Y-11858000D03*
X16225000Y-12112000D03*
X16225000Y-12366000D03*
X16225000Y-12620000D03*
M02*
