%TF.GenerationSoftware,KiCad,Pcbnew,5.1.7+dfsg1-1~bpo10+1*%
%TF.CreationDate,2020-11-15T21:32:23+00:00*%
%TF.ProjectId,piggyback,70696767-7962-4616-936b-2e6b69636164,rev?*%
%TF.SameCoordinates,Original*%
%TF.FileFunction,Other,User*%
%FSLAX45Y45*%
G04 Gerber Fmt 4.5, Leading zero omitted, Abs format (unit mm)*
G04 Created by KiCad (PCBNEW 5.1.7+dfsg1-1~bpo10+1) date 2020-11-15 21:32:23*
%MOMM*%
%LPD*%
G01*
G04 APERTURE LIST*
%TA.AperFunction,Profile*%
%ADD10C,0.050000*%
%TD*%
%ADD11C,0.050000*%
G04 APERTURE END LIST*
D10*
X16350000Y-14150000D02*
G75*
G03*
X16350000Y-14150000I-150000J0D01*
G01*
X16350000Y-6150000D02*
G75*
G03*
X16350000Y-6150000I-150000J0D01*
G01*
X4550000Y-6150000D02*
G75*
G03*
X4550000Y-6150000I-150000J0D01*
G01*
X4550000Y-14150000D02*
G75*
G03*
X4550000Y-14150000I-150000J0D01*
G01*
X16510000Y-5842000D02*
X4064000Y-5842000D01*
X16510000Y-14478000D02*
X16510000Y-5842000D01*
X4064000Y-14478000D02*
X16510000Y-14478000D01*
X4064000Y-5842000D02*
X4064000Y-14478000D01*
D11*
X4106030Y-13538873D02*
X4459584Y-13185320D01*
X4459584Y-13185320D02*
X5364680Y-14090416D01*
X5364680Y-14090416D02*
X5011127Y-14443970D01*
X5011127Y-14443970D02*
X4106030Y-13538873D01*
X5445000Y-8420000D02*
X5445000Y-7870000D01*
X5445000Y-7870000D02*
X4355000Y-7870000D01*
X4355000Y-7870000D02*
X4355000Y-8420000D01*
X4355000Y-8420000D02*
X5445000Y-8420000D01*
X7866000Y-11593000D02*
X7866000Y-13167000D01*
X7866000Y-11593000D02*
X5784000Y-11593000D01*
X5784000Y-13167000D02*
X7866000Y-13167000D01*
X5784000Y-13167000D02*
X5784000Y-11593000D01*
X8324000Y-13167000D02*
X8324000Y-11593000D01*
X8324000Y-13167000D02*
X10406000Y-13167000D01*
X10406000Y-11593000D02*
X8324000Y-11593000D01*
X10406000Y-11593000D02*
X10406000Y-13167000D01*
X12946000Y-11593000D02*
X12946000Y-13167000D01*
X12946000Y-11593000D02*
X10864000Y-11593000D01*
X10864000Y-13167000D02*
X12946000Y-13167000D01*
X10864000Y-13167000D02*
X10864000Y-11593000D01*
X13445000Y-13105000D02*
X13445000Y-12735000D01*
X13635000Y-13105000D02*
X13445000Y-13105000D01*
X13635000Y-12735000D02*
X13635000Y-13105000D01*
X13445000Y-12735000D02*
X13635000Y-12735000D01*
X7132000Y-14831000D02*
X7132000Y-13596000D01*
X6012000Y-14831000D02*
X7132000Y-14831000D01*
X6012000Y-13596000D02*
X6012000Y-14831000D01*
X7132000Y-13596000D02*
X6012000Y-13596000D01*
X9672000Y-14831000D02*
X9672000Y-13596000D01*
X8552000Y-14831000D02*
X9672000Y-14831000D01*
X8552000Y-13596000D02*
X8552000Y-14831000D01*
X9672000Y-13596000D02*
X8552000Y-13596000D01*
X12212000Y-13596000D02*
X11092000Y-13596000D01*
X11092000Y-13596000D02*
X11092000Y-14831000D01*
X11092000Y-14831000D02*
X12212000Y-14831000D01*
X12212000Y-14831000D02*
X12212000Y-13596000D01*
X13860000Y-14564000D02*
X13860000Y-13954000D01*
X13860000Y-13954000D02*
X14740000Y-13954000D01*
X14740000Y-13954000D02*
X14740000Y-14564000D01*
X13860000Y-14564000D02*
X14740000Y-14564000D01*
X7335000Y-11401000D02*
X7335000Y-11071000D01*
X7335000Y-11401000D02*
X7585000Y-11401000D01*
X7585000Y-11071000D02*
X7335000Y-11071000D01*
X7585000Y-11071000D02*
X7585000Y-11401000D01*
X7331000Y-11071000D02*
X7331000Y-11401000D01*
X7331000Y-11071000D02*
X7081000Y-11071000D01*
X7081000Y-11401000D02*
X7331000Y-11401000D01*
X7081000Y-11401000D02*
X7081000Y-11071000D01*
X6827000Y-11401000D02*
X6827000Y-11071000D01*
X6827000Y-11401000D02*
X7077000Y-11401000D01*
X7077000Y-11071000D02*
X6827000Y-11071000D01*
X7077000Y-11071000D02*
X7077000Y-11401000D01*
X10125000Y-11071000D02*
X10125000Y-11401000D01*
X10125000Y-11071000D02*
X9875000Y-11071000D01*
X9875000Y-11401000D02*
X10125000Y-11401000D01*
X9875000Y-11401000D02*
X9875000Y-11071000D01*
X9621000Y-11401000D02*
X9621000Y-11071000D01*
X9621000Y-11401000D02*
X9871000Y-11401000D01*
X9871000Y-11071000D02*
X9621000Y-11071000D01*
X9871000Y-11071000D02*
X9871000Y-11401000D01*
X9617000Y-11071000D02*
X9617000Y-11401000D01*
X9617000Y-11071000D02*
X9367000Y-11071000D01*
X9367000Y-11401000D02*
X9617000Y-11401000D01*
X9367000Y-11401000D02*
X9367000Y-11071000D01*
X12415000Y-11401000D02*
X12415000Y-11071000D01*
X12415000Y-11401000D02*
X12665000Y-11401000D01*
X12665000Y-11071000D02*
X12415000Y-11071000D01*
X12665000Y-11071000D02*
X12665000Y-11401000D01*
X12411000Y-11071000D02*
X12411000Y-11401000D01*
X12411000Y-11071000D02*
X12161000Y-11071000D01*
X12161000Y-11401000D02*
X12411000Y-11401000D01*
X12161000Y-11401000D02*
X12161000Y-11071000D01*
X11907000Y-11401000D02*
X11907000Y-11071000D01*
X11907000Y-11401000D02*
X12157000Y-11401000D01*
X12157000Y-11071000D02*
X11907000Y-11071000D01*
X12157000Y-11071000D02*
X12157000Y-11401000D01*
X7241000Y-10833000D02*
X7241000Y-10503000D01*
X7241000Y-10833000D02*
X7491000Y-10833000D01*
X7491000Y-10503000D02*
X7241000Y-10503000D01*
X7491000Y-10503000D02*
X7491000Y-10833000D01*
X7491000Y-9995000D02*
X7491000Y-10325000D01*
X7491000Y-9995000D02*
X7241000Y-9995000D01*
X7241000Y-10325000D02*
X7491000Y-10325000D01*
X7241000Y-10325000D02*
X7241000Y-9995000D01*
X7241000Y-9817000D02*
X7241000Y-9487000D01*
X7241000Y-9817000D02*
X7491000Y-9817000D01*
X7491000Y-9487000D02*
X7241000Y-9487000D01*
X7491000Y-9487000D02*
X7491000Y-9817000D01*
X14305000Y-13377000D02*
X14495000Y-13377000D01*
X14495000Y-13377000D02*
X14495000Y-13747000D01*
X14495000Y-13747000D02*
X14305000Y-13747000D01*
X14305000Y-13747000D02*
X14305000Y-13377000D01*
X14055000Y-13747000D02*
X14055000Y-13377000D01*
X14245000Y-13747000D02*
X14055000Y-13747000D01*
X14245000Y-13377000D02*
X14245000Y-13747000D01*
X14055000Y-13377000D02*
X14245000Y-13377000D01*
X7017000Y-10853000D02*
X7017000Y-10483000D01*
X7207000Y-10853000D02*
X7017000Y-10853000D01*
X7207000Y-10483000D02*
X7207000Y-10853000D01*
X7017000Y-10483000D02*
X7207000Y-10483000D01*
X7017000Y-9975000D02*
X7207000Y-9975000D01*
X7207000Y-9975000D02*
X7207000Y-10345000D01*
X7207000Y-10345000D02*
X7017000Y-10345000D01*
X7017000Y-10345000D02*
X7017000Y-9975000D01*
X7017000Y-9837000D02*
X7017000Y-9467000D01*
X7207000Y-9837000D02*
X7017000Y-9837000D01*
X7207000Y-9467000D02*
X7207000Y-9837000D01*
X7017000Y-9467000D02*
X7207000Y-9467000D01*
X15144000Y-13216000D02*
X15144000Y-11876000D01*
X13804000Y-13216000D02*
X13804000Y-11876000D01*
X13804000Y-11876000D02*
X15144000Y-11876000D01*
X13804000Y-13216000D02*
X15144000Y-13216000D01*
X6772000Y-10755000D02*
X6772000Y-9565000D01*
X4912000Y-10755000D02*
X4912000Y-9565000D01*
X4912000Y-9565000D02*
X6772000Y-9565000D01*
X4912000Y-10755000D02*
X6772000Y-10755000D01*
X15420000Y-12425000D02*
X15660000Y-12425000D01*
X15660000Y-12775000D02*
X15420000Y-12775000D01*
X15660000Y-12425000D02*
X15660000Y-12775000D01*
X15420000Y-12775000D02*
X15420000Y-12425000D01*
X10035000Y-10837000D02*
X10035000Y-10507000D01*
X10035000Y-10837000D02*
X10285000Y-10837000D01*
X10285000Y-10507000D02*
X10035000Y-10507000D01*
X10285000Y-10507000D02*
X10285000Y-10837000D01*
X10285000Y-9995000D02*
X10285000Y-10325000D01*
X10285000Y-9995000D02*
X10035000Y-9995000D01*
X10035000Y-10325000D02*
X10285000Y-10325000D01*
X10035000Y-10325000D02*
X10035000Y-9995000D01*
X10285000Y-9483000D02*
X10285000Y-9813000D01*
X10285000Y-9483000D02*
X10035000Y-9483000D01*
X10035000Y-9813000D02*
X10285000Y-9813000D01*
X10035000Y-9813000D02*
X10035000Y-9483000D01*
X12829000Y-10833000D02*
X12829000Y-10503000D01*
X12829000Y-10833000D02*
X13079000Y-10833000D01*
X13079000Y-10503000D02*
X12829000Y-10503000D01*
X13079000Y-10503000D02*
X13079000Y-10833000D01*
X15873000Y-10503000D02*
X15873000Y-10833000D01*
X15873000Y-10503000D02*
X15623000Y-10503000D01*
X15623000Y-10833000D02*
X15873000Y-10833000D01*
X15623000Y-10833000D02*
X15623000Y-10503000D01*
X13079000Y-9995000D02*
X13079000Y-10325000D01*
X13079000Y-9995000D02*
X12829000Y-9995000D01*
X12829000Y-10325000D02*
X13079000Y-10325000D01*
X12829000Y-10325000D02*
X12829000Y-9995000D01*
X15623000Y-10325000D02*
X15623000Y-9995000D01*
X15623000Y-10325000D02*
X15873000Y-10325000D01*
X15873000Y-9995000D02*
X15623000Y-9995000D01*
X15873000Y-9995000D02*
X15873000Y-10325000D01*
X12829000Y-9817000D02*
X12829000Y-9487000D01*
X12829000Y-9817000D02*
X13079000Y-9817000D01*
X13079000Y-9487000D02*
X12829000Y-9487000D01*
X13079000Y-9487000D02*
X13079000Y-9817000D01*
X15873000Y-9487000D02*
X15873000Y-9817000D01*
X15873000Y-9487000D02*
X15623000Y-9487000D01*
X15623000Y-9817000D02*
X15873000Y-9817000D01*
X15623000Y-9817000D02*
X15623000Y-9487000D01*
X9811000Y-10857000D02*
X9811000Y-10487000D01*
X10001000Y-10857000D02*
X9811000Y-10857000D01*
X10001000Y-10487000D02*
X10001000Y-10857000D01*
X9811000Y-10487000D02*
X10001000Y-10487000D01*
X9811000Y-9975000D02*
X10001000Y-9975000D01*
X10001000Y-9975000D02*
X10001000Y-10345000D01*
X10001000Y-10345000D02*
X9811000Y-10345000D01*
X9811000Y-10345000D02*
X9811000Y-9975000D01*
X9811000Y-9833000D02*
X9811000Y-9463000D01*
X10001000Y-9833000D02*
X9811000Y-9833000D01*
X10001000Y-9463000D02*
X10001000Y-9833000D01*
X9811000Y-9463000D02*
X10001000Y-9463000D01*
X12605000Y-10483000D02*
X12795000Y-10483000D01*
X12795000Y-10483000D02*
X12795000Y-10853000D01*
X12795000Y-10853000D02*
X12605000Y-10853000D01*
X12605000Y-10853000D02*
X12605000Y-10483000D01*
X12605000Y-10345000D02*
X12605000Y-9975000D01*
X12795000Y-10345000D02*
X12605000Y-10345000D01*
X12795000Y-9975000D02*
X12795000Y-10345000D01*
X12605000Y-9975000D02*
X12795000Y-9975000D01*
X12605000Y-9467000D02*
X12795000Y-9467000D01*
X12795000Y-9467000D02*
X12795000Y-9837000D01*
X12795000Y-9837000D02*
X12605000Y-9837000D01*
X12605000Y-9837000D02*
X12605000Y-9467000D01*
X15399000Y-10853000D02*
X15399000Y-10483000D01*
X15589000Y-10853000D02*
X15399000Y-10853000D01*
X15589000Y-10483000D02*
X15589000Y-10853000D01*
X15399000Y-10483000D02*
X15589000Y-10483000D01*
X15399000Y-9975000D02*
X15589000Y-9975000D01*
X15589000Y-9975000D02*
X15589000Y-10345000D01*
X15589000Y-10345000D02*
X15399000Y-10345000D01*
X15399000Y-10345000D02*
X15399000Y-9975000D01*
X15399000Y-9837000D02*
X15399000Y-9467000D01*
X15589000Y-9837000D02*
X15399000Y-9837000D01*
X15589000Y-9467000D02*
X15589000Y-9837000D01*
X15399000Y-9467000D02*
X15589000Y-9467000D01*
X9566000Y-10755000D02*
X9566000Y-9565000D01*
X7706000Y-10755000D02*
X7706000Y-9565000D01*
X7706000Y-9565000D02*
X9566000Y-9565000D01*
X7706000Y-10755000D02*
X9566000Y-10755000D01*
X10500000Y-10755000D02*
X12360000Y-10755000D01*
X10500000Y-9565000D02*
X12360000Y-9565000D01*
X10500000Y-10755000D02*
X10500000Y-9565000D01*
X12360000Y-10755000D02*
X12360000Y-9565000D01*
X15154000Y-10755000D02*
X15154000Y-9565000D01*
X13294000Y-10755000D02*
X13294000Y-9565000D01*
X13294000Y-9565000D02*
X15154000Y-9565000D01*
X13294000Y-10755000D02*
X15154000Y-10755000D01*
X7864000Y-13776000D02*
G75*
G03*
X7864000Y-13776000I-275000J0D01*
G01*
X10404000Y-13776000D02*
G75*
G03*
X10404000Y-13776000I-275000J0D01*
G01*
X12944000Y-13776000D02*
G75*
G03*
X12944000Y-13776000I-275000J0D01*
G01*
X15315000Y-12805000D02*
X15685000Y-12805000D01*
X15315000Y-12995000D02*
X15315000Y-12805000D01*
X15685000Y-12995000D02*
X15315000Y-12995000D01*
X15685000Y-12805000D02*
X15685000Y-12995000D01*
X5445000Y-7020000D02*
X5445000Y-6470000D01*
X5445000Y-6470000D02*
X4355000Y-6470000D01*
X4355000Y-6470000D02*
X4355000Y-7020000D01*
X4355000Y-7020000D02*
X5445000Y-7020000D01*
X4355000Y-7720000D02*
X5445000Y-7720000D01*
X4355000Y-7170000D02*
X4355000Y-7720000D01*
X5445000Y-7170000D02*
X4355000Y-7170000D01*
X5445000Y-7720000D02*
X5445000Y-7170000D01*
X4355000Y-9120000D02*
X5445000Y-9120000D01*
X4355000Y-8570000D02*
X4355000Y-9120000D01*
X5445000Y-8570000D02*
X4355000Y-8570000D01*
X5445000Y-9120000D02*
X5445000Y-8570000D01*
X6945000Y-7020000D02*
X6945000Y-6470000D01*
X6945000Y-6470000D02*
X5855000Y-6470000D01*
X5855000Y-6470000D02*
X5855000Y-7020000D01*
X5855000Y-7020000D02*
X6945000Y-7020000D01*
X5855000Y-7720000D02*
X6945000Y-7720000D01*
X5855000Y-7170000D02*
X5855000Y-7720000D01*
X6945000Y-7170000D02*
X5855000Y-7170000D01*
X6945000Y-7720000D02*
X6945000Y-7170000D01*
X6945000Y-8420000D02*
X6945000Y-7870000D01*
X6945000Y-7870000D02*
X5855000Y-7870000D01*
X5855000Y-7870000D02*
X5855000Y-8420000D01*
X5855000Y-8420000D02*
X6945000Y-8420000D01*
X5855000Y-9120000D02*
X6945000Y-9120000D01*
X5855000Y-8570000D02*
X5855000Y-9120000D01*
X6945000Y-8570000D02*
X5855000Y-8570000D01*
X6945000Y-9120000D02*
X6945000Y-8570000D01*
X8445000Y-7020000D02*
X8445000Y-6470000D01*
X8445000Y-6470000D02*
X7355000Y-6470000D01*
X7355000Y-6470000D02*
X7355000Y-7020000D01*
X7355000Y-7020000D02*
X8445000Y-7020000D01*
X7355000Y-7720000D02*
X8445000Y-7720000D01*
X7355000Y-7170000D02*
X7355000Y-7720000D01*
X8445000Y-7170000D02*
X7355000Y-7170000D01*
X8445000Y-7720000D02*
X8445000Y-7170000D01*
X8445000Y-8420000D02*
X8445000Y-7870000D01*
X8445000Y-7870000D02*
X7355000Y-7870000D01*
X7355000Y-7870000D02*
X7355000Y-8420000D01*
X7355000Y-8420000D02*
X8445000Y-8420000D01*
X7355000Y-9120000D02*
X8445000Y-9120000D01*
X7355000Y-8570000D02*
X7355000Y-9120000D01*
X8445000Y-8570000D02*
X7355000Y-8570000D01*
X8445000Y-9120000D02*
X8445000Y-8570000D01*
X8855000Y-7020000D02*
X9945000Y-7020000D01*
X8855000Y-6470000D02*
X8855000Y-7020000D01*
X9945000Y-6470000D02*
X8855000Y-6470000D01*
X9945000Y-7020000D02*
X9945000Y-6470000D01*
X8855000Y-7720000D02*
X9945000Y-7720000D01*
X8855000Y-7170000D02*
X8855000Y-7720000D01*
X9945000Y-7170000D02*
X8855000Y-7170000D01*
X9945000Y-7720000D02*
X9945000Y-7170000D01*
X9945000Y-8420000D02*
X9945000Y-7870000D01*
X9945000Y-7870000D02*
X8855000Y-7870000D01*
X8855000Y-7870000D02*
X8855000Y-8420000D01*
X8855000Y-8420000D02*
X9945000Y-8420000D01*
X8855000Y-9120000D02*
X9945000Y-9120000D01*
X8855000Y-8570000D02*
X8855000Y-9120000D01*
X9945000Y-8570000D02*
X8855000Y-8570000D01*
X9945000Y-9120000D02*
X9945000Y-8570000D01*
X11495000Y-7020000D02*
X11495000Y-6470000D01*
X11495000Y-6470000D02*
X10405000Y-6470000D01*
X10405000Y-6470000D02*
X10405000Y-7020000D01*
X10405000Y-7020000D02*
X11495000Y-7020000D01*
X10405000Y-7720000D02*
X11495000Y-7720000D01*
X10405000Y-7170000D02*
X10405000Y-7720000D01*
X11495000Y-7170000D02*
X10405000Y-7170000D01*
X11495000Y-7720000D02*
X11495000Y-7170000D01*
X11495000Y-8420000D02*
X11495000Y-7870000D01*
X11495000Y-7870000D02*
X10405000Y-7870000D01*
X10405000Y-7870000D02*
X10405000Y-8420000D01*
X10405000Y-8420000D02*
X11495000Y-8420000D01*
X10405000Y-9120000D02*
X11495000Y-9120000D01*
X10405000Y-8570000D02*
X10405000Y-9120000D01*
X11495000Y-8570000D02*
X10405000Y-8570000D01*
X11495000Y-9120000D02*
X11495000Y-8570000D01*
X14595000Y-7020000D02*
X14595000Y-6470000D01*
X14595000Y-6470000D02*
X13505000Y-6470000D01*
X13505000Y-6470000D02*
X13505000Y-7020000D01*
X13505000Y-7020000D02*
X14595000Y-7020000D01*
X13505000Y-7720000D02*
X14595000Y-7720000D01*
X13505000Y-7170000D02*
X13505000Y-7720000D01*
X14595000Y-7170000D02*
X13505000Y-7170000D01*
X14595000Y-7720000D02*
X14595000Y-7170000D01*
X14595000Y-8420000D02*
X14595000Y-7870000D01*
X14595000Y-7870000D02*
X13505000Y-7870000D01*
X13505000Y-7870000D02*
X13505000Y-8420000D01*
X13505000Y-8420000D02*
X14595000Y-8420000D01*
X14595000Y-9120000D02*
X14595000Y-8570000D01*
X14595000Y-8570000D02*
X13505000Y-8570000D01*
X13505000Y-8570000D02*
X13505000Y-9120000D01*
X13505000Y-9120000D02*
X14595000Y-9120000D01*
X13053000Y-7020000D02*
X13053000Y-6470000D01*
X13053000Y-6470000D02*
X11963000Y-6470000D01*
X11963000Y-6470000D02*
X11963000Y-7020000D01*
X11963000Y-7020000D02*
X13053000Y-7020000D01*
X11963000Y-7720000D02*
X13053000Y-7720000D01*
X11963000Y-7170000D02*
X11963000Y-7720000D01*
X13053000Y-7170000D02*
X11963000Y-7170000D01*
X13053000Y-7720000D02*
X13053000Y-7170000D01*
X13053000Y-8420000D02*
X13053000Y-7870000D01*
X13053000Y-7870000D02*
X11963000Y-7870000D01*
X11963000Y-7870000D02*
X11963000Y-8420000D01*
X11963000Y-8420000D02*
X13053000Y-8420000D01*
X11965000Y-9120000D02*
X13055000Y-9120000D01*
X11965000Y-8570000D02*
X11965000Y-9120000D01*
X13055000Y-8570000D02*
X11965000Y-8570000D01*
X13055000Y-9120000D02*
X13055000Y-8570000D01*
X16095000Y-7020000D02*
X16095000Y-6470000D01*
X16095000Y-6470000D02*
X15005000Y-6470000D01*
X15005000Y-6470000D02*
X15005000Y-7020000D01*
X15005000Y-7020000D02*
X16095000Y-7020000D01*
X16095000Y-7720000D02*
X16095000Y-7170000D01*
X16095000Y-7170000D02*
X15005000Y-7170000D01*
X15005000Y-7170000D02*
X15005000Y-7720000D01*
X15005000Y-7720000D02*
X16095000Y-7720000D01*
X15005000Y-8408000D02*
X16095000Y-8408000D01*
X15005000Y-7858000D02*
X15005000Y-8408000D01*
X16095000Y-7858000D02*
X15005000Y-7858000D01*
X16095000Y-8408000D02*
X16095000Y-7858000D01*
X15005000Y-9120000D02*
X16095000Y-9120000D01*
X15005000Y-8570000D02*
X15005000Y-9120000D01*
X16095000Y-8570000D02*
X15005000Y-8570000D01*
X16095000Y-9120000D02*
X16095000Y-8570000D01*
X5490000Y-13171000D02*
X5490000Y-11546000D01*
X4270000Y-13171000D02*
X5490000Y-13171000D01*
X4270000Y-11546000D02*
X4270000Y-13171000D01*
X5490000Y-11546000D02*
X4270000Y-11546000D01*
X15605000Y-13380000D02*
X14990000Y-13380000D01*
X15605000Y-14245000D02*
X15605000Y-13380000D01*
X14990000Y-14245000D02*
X15605000Y-14245000D01*
X14990000Y-13380000D02*
X14990000Y-14245000D01*
X16405000Y-11170000D02*
X16045000Y-11170000D01*
X16405000Y-12800000D02*
X16405000Y-11170000D01*
X16045000Y-12800000D02*
X16405000Y-12800000D01*
X16045000Y-11170000D02*
X16045000Y-12800000D01*
X15595000Y-11365000D02*
X15595000Y-11735000D01*
X15405000Y-11365000D02*
X15595000Y-11365000D01*
X15405000Y-11735000D02*
X15405000Y-11365000D01*
X15595000Y-11735000D02*
X15405000Y-11735000D01*
X15995000Y-12415000D02*
X15995000Y-12785000D01*
X15805000Y-12415000D02*
X15995000Y-12415000D01*
X15805000Y-12785000D02*
X15805000Y-12415000D01*
X15995000Y-12785000D02*
X15805000Y-12785000D01*
X15345000Y-11365000D02*
X15345000Y-11735000D01*
X15155000Y-11365000D02*
X15345000Y-11365000D01*
X15155000Y-11735000D02*
X15155000Y-11365000D01*
X15345000Y-11735000D02*
X15155000Y-11735000D01*
X14905000Y-11735000D02*
X14905000Y-11365000D01*
X15095000Y-11735000D02*
X14905000Y-11735000D01*
X15095000Y-11365000D02*
X15095000Y-11735000D01*
X14905000Y-11365000D02*
X15095000Y-11365000D01*
X14950000Y-13825000D02*
X14950000Y-14195000D01*
X14760000Y-13825000D02*
X14950000Y-13825000D01*
X14760000Y-14195000D02*
X14760000Y-13825000D01*
X14950000Y-14195000D02*
X14760000Y-14195000D01*
X16445000Y-12850000D02*
X15705000Y-12850000D01*
X16445000Y-13850000D02*
X16445000Y-12850000D01*
X15705000Y-13850000D02*
X16445000Y-13850000D01*
X15705000Y-12850000D02*
X15705000Y-13850000D01*
M02*
