%TF.GenerationSoftware,KiCad,Pcbnew,5.1.7+dfsg1-1~bpo10+1*%
%TF.CreationDate,2020-11-15T21:32:23+00:00*%
%TF.ProjectId,piggyback,70696767-7962-4616-936b-2e6b69636164,rev?*%
%TF.SameCoordinates,Original*%
%TF.FileFunction,OtherDrawing,Comment*%
%FSLAX45Y45*%
G04 Gerber Fmt 4.5, Leading zero omitted, Abs format (unit mm)*
G04 Created by KiCad (PCBNEW 5.1.7+dfsg1-1~bpo10+1) date 2020-11-15 21:32:23*
%MOMM*%
%LPD*%
G01*
G04 APERTURE LIST*
%TA.AperFunction,Profile*%
%ADD10C,0.050000*%
%TD*%
%ADD11C,0.080000*%
G04 APERTURE END LIST*
D10*
X16350000Y-14150000D02*
G75*
G03*
X16350000Y-14150000I-150000J0D01*
G01*
X16350000Y-6150000D02*
G75*
G03*
X16350000Y-6150000I-150000J0D01*
G01*
X4550000Y-6150000D02*
G75*
G03*
X4550000Y-6150000I-150000J0D01*
G01*
X4550000Y-14150000D02*
G75*
G03*
X4550000Y-14150000I-150000J0D01*
G01*
X16510000Y-5842000D02*
X4064000Y-5842000D01*
X16510000Y-14478000D02*
X16510000Y-5842000D01*
X4064000Y-14478000D02*
X16510000Y-14478000D01*
X4064000Y-5842000D02*
X4064000Y-14478000D01*
D11*
X14128571Y-14491369D02*
X14128571Y-14441369D01*
X14147619Y-14441369D01*
X14152381Y-14443750D01*
X14154762Y-14446131D01*
X14157143Y-14450893D01*
X14157143Y-14458036D01*
X14154762Y-14462798D01*
X14152381Y-14465178D01*
X14147619Y-14467559D01*
X14128571Y-14467559D01*
X14207143Y-14486607D02*
X14204762Y-14488988D01*
X14197619Y-14491369D01*
X14192857Y-14491369D01*
X14185714Y-14488988D01*
X14180952Y-14484226D01*
X14178571Y-14479464D01*
X14176190Y-14469940D01*
X14176190Y-14462798D01*
X14178571Y-14453274D01*
X14180952Y-14448512D01*
X14185714Y-14443750D01*
X14192857Y-14441369D01*
X14197619Y-14441369D01*
X14204762Y-14443750D01*
X14207143Y-14446131D01*
X14245238Y-14465178D02*
X14252381Y-14467559D01*
X14254762Y-14469940D01*
X14257143Y-14474702D01*
X14257143Y-14481845D01*
X14254762Y-14486607D01*
X14252381Y-14488988D01*
X14247619Y-14491369D01*
X14228571Y-14491369D01*
X14228571Y-14441369D01*
X14245238Y-14441369D01*
X14250000Y-14443750D01*
X14252381Y-14446131D01*
X14254762Y-14450893D01*
X14254762Y-14455655D01*
X14252381Y-14460417D01*
X14250000Y-14462798D01*
X14245238Y-14465178D01*
X14228571Y-14465178D01*
X14316667Y-14465178D02*
X14333333Y-14465178D01*
X14340476Y-14491369D02*
X14316667Y-14491369D01*
X14316667Y-14441369D01*
X14340476Y-14441369D01*
X14383333Y-14491369D02*
X14383333Y-14441369D01*
X14383333Y-14488988D02*
X14378571Y-14491369D01*
X14369048Y-14491369D01*
X14364286Y-14488988D01*
X14361905Y-14486607D01*
X14359524Y-14481845D01*
X14359524Y-14467559D01*
X14361905Y-14462798D01*
X14364286Y-14460417D01*
X14369048Y-14458036D01*
X14378571Y-14458036D01*
X14383333Y-14460417D01*
X14428571Y-14458036D02*
X14428571Y-14498512D01*
X14426190Y-14503274D01*
X14423809Y-14505655D01*
X14419048Y-14508036D01*
X14411905Y-14508036D01*
X14407143Y-14505655D01*
X14428571Y-14488988D02*
X14423809Y-14491369D01*
X14414286Y-14491369D01*
X14409524Y-14488988D01*
X14407143Y-14486607D01*
X14404762Y-14481845D01*
X14404762Y-14467559D01*
X14407143Y-14462798D01*
X14409524Y-14460417D01*
X14414286Y-14458036D01*
X14423809Y-14458036D01*
X14428571Y-14460417D01*
X14471428Y-14488988D02*
X14466667Y-14491369D01*
X14457143Y-14491369D01*
X14452381Y-14488988D01*
X14450000Y-14484226D01*
X14450000Y-14465178D01*
X14452381Y-14460417D01*
X14457143Y-14458036D01*
X14466667Y-14458036D01*
X14471428Y-14460417D01*
X14473809Y-14465178D01*
X14473809Y-14469940D01*
X14450000Y-14474702D01*
M02*
