%TF.GenerationSoftware,KiCad,Pcbnew,5.1.7+dfsg1-1~bpo10+1*%
%TF.CreationDate,2020-11-15T21:32:21+00:00*%
%TF.ProjectId,piggyback,70696767-7962-4616-936b-2e6b69636164,rev?*%
%TF.SameCoordinates,Original*%
%TF.FileFunction,Paste,Top*%
%TF.FilePolarity,Positive*%
%FSLAX45Y45*%
G04 Gerber Fmt 4.5, Leading zero omitted, Abs format (unit mm)*
G04 Created by KiCad (PCBNEW 5.1.7+dfsg1-1~bpo10+1) date 2020-11-15 21:32:21*
%MOMM*%
%LPD*%
G01*
G04 APERTURE LIST*
%TA.AperFunction,Profile*%
%ADD10C,0.050000*%
%TD*%
%ADD11R,1.500000X1.900000*%
%ADD12R,0.400000X1.350000*%
%ADD13R,0.550000X1.500000*%
%ADD14R,1.500000X0.550000*%
%ADD15R,0.600000X2.000000*%
%ADD16R,1.900000X0.400000*%
%ADD17R,1.300000X1.550000*%
G04 APERTURE END LIST*
D10*
X16350000Y-14150000D02*
G75*
G03*
X16350000Y-14150000I-150000J0D01*
G01*
X16350000Y-6150000D02*
G75*
G03*
X16350000Y-6150000I-150000J0D01*
G01*
X4550000Y-6150000D02*
G75*
G03*
X4550000Y-6150000I-150000J0D01*
G01*
X4550000Y-14150000D02*
G75*
G03*
X4550000Y-14150000I-150000J0D01*
G01*
X16510000Y-5842000D02*
X4064000Y-5842000D01*
X16510000Y-14478000D02*
X16510000Y-5842000D01*
X4064000Y-14478000D02*
X16510000Y-14478000D01*
X4064000Y-5842000D02*
X4064000Y-14478000D01*
G36*
G01*
X13495000Y-12760000D02*
X13585000Y-12760000D01*
G75*
G02*
X13610000Y-12785000I0J-25000D01*
G01*
X13610000Y-12850000D01*
G75*
G02*
X13585000Y-12875000I-25000J0D01*
G01*
X13495000Y-12875000D01*
G75*
G02*
X13470000Y-12850000I0J25000D01*
G01*
X13470000Y-12785000D01*
G75*
G02*
X13495000Y-12760000I25000J0D01*
G01*
G37*
G36*
G01*
X13495000Y-12965000D02*
X13585000Y-12965000D01*
G75*
G02*
X13610000Y-12990000I0J-25000D01*
G01*
X13610000Y-13055000D01*
G75*
G02*
X13585000Y-13080000I-25000J0D01*
G01*
X13495000Y-13080000D01*
G75*
G02*
X13470000Y-13055000I0J25000D01*
G01*
X13470000Y-12990000D01*
G75*
G02*
X13495000Y-12965000I25000J0D01*
G01*
G37*
D11*
X14400000Y-14323750D03*
D12*
X14235000Y-14053750D03*
X14170000Y-14053750D03*
X14430000Y-14053750D03*
X14365000Y-14053750D03*
X14300000Y-14053750D03*
D11*
X14200000Y-14323750D03*
G36*
G01*
X14355000Y-13607000D02*
X14445000Y-13607000D01*
G75*
G02*
X14470000Y-13632000I0J-25000D01*
G01*
X14470000Y-13697000D01*
G75*
G02*
X14445000Y-13722000I-25000J0D01*
G01*
X14355000Y-13722000D01*
G75*
G02*
X14330000Y-13697000I0J25000D01*
G01*
X14330000Y-13632000D01*
G75*
G02*
X14355000Y-13607000I25000J0D01*
G01*
G37*
G36*
G01*
X14355000Y-13402000D02*
X14445000Y-13402000D01*
G75*
G02*
X14470000Y-13427000I0J-25000D01*
G01*
X14470000Y-13492000D01*
G75*
G02*
X14445000Y-13517000I-25000J0D01*
G01*
X14355000Y-13517000D01*
G75*
G02*
X14330000Y-13492000I0J25000D01*
G01*
X14330000Y-13427000D01*
G75*
G02*
X14355000Y-13402000I25000J0D01*
G01*
G37*
G36*
G01*
X14105000Y-13402000D02*
X14195000Y-13402000D01*
G75*
G02*
X14220000Y-13427000I0J-25000D01*
G01*
X14220000Y-13492000D01*
G75*
G02*
X14195000Y-13517000I-25000J0D01*
G01*
X14105000Y-13517000D01*
G75*
G02*
X14080000Y-13492000I0J25000D01*
G01*
X14080000Y-13427000D01*
G75*
G02*
X14105000Y-13402000I25000J0D01*
G01*
G37*
G36*
G01*
X14105000Y-13607000D02*
X14195000Y-13607000D01*
G75*
G02*
X14220000Y-13632000I0J-25000D01*
G01*
X14220000Y-13697000D01*
G75*
G02*
X14195000Y-13722000I-25000J0D01*
G01*
X14105000Y-13722000D01*
G75*
G02*
X14080000Y-13697000I0J25000D01*
G01*
X14080000Y-13632000D01*
G75*
G02*
X14105000Y-13607000I25000J0D01*
G01*
G37*
G36*
G01*
X7067000Y-10508000D02*
X7157000Y-10508000D01*
G75*
G02*
X7182000Y-10533000I0J-25000D01*
G01*
X7182000Y-10598000D01*
G75*
G02*
X7157000Y-10623000I-25000J0D01*
G01*
X7067000Y-10623000D01*
G75*
G02*
X7042000Y-10598000I0J25000D01*
G01*
X7042000Y-10533000D01*
G75*
G02*
X7067000Y-10508000I25000J0D01*
G01*
G37*
G36*
G01*
X7067000Y-10713000D02*
X7157000Y-10713000D01*
G75*
G02*
X7182000Y-10738000I0J-25000D01*
G01*
X7182000Y-10803000D01*
G75*
G02*
X7157000Y-10828000I-25000J0D01*
G01*
X7067000Y-10828000D01*
G75*
G02*
X7042000Y-10803000I0J25000D01*
G01*
X7042000Y-10738000D01*
G75*
G02*
X7067000Y-10713000I25000J0D01*
G01*
G37*
G36*
G01*
X7067000Y-10205000D02*
X7157000Y-10205000D01*
G75*
G02*
X7182000Y-10230000I0J-25000D01*
G01*
X7182000Y-10295000D01*
G75*
G02*
X7157000Y-10320000I-25000J0D01*
G01*
X7067000Y-10320000D01*
G75*
G02*
X7042000Y-10295000I0J25000D01*
G01*
X7042000Y-10230000D01*
G75*
G02*
X7067000Y-10205000I25000J0D01*
G01*
G37*
G36*
G01*
X7067000Y-10000000D02*
X7157000Y-10000000D01*
G75*
G02*
X7182000Y-10025000I0J-25000D01*
G01*
X7182000Y-10090000D01*
G75*
G02*
X7157000Y-10115000I-25000J0D01*
G01*
X7067000Y-10115000D01*
G75*
G02*
X7042000Y-10090000I0J25000D01*
G01*
X7042000Y-10025000D01*
G75*
G02*
X7067000Y-10000000I25000J0D01*
G01*
G37*
G36*
G01*
X7067000Y-9492000D02*
X7157000Y-9492000D01*
G75*
G02*
X7182000Y-9517000I0J-25000D01*
G01*
X7182000Y-9582000D01*
G75*
G02*
X7157000Y-9607000I-25000J0D01*
G01*
X7067000Y-9607000D01*
G75*
G02*
X7042000Y-9582000I0J25000D01*
G01*
X7042000Y-9517000D01*
G75*
G02*
X7067000Y-9492000I25000J0D01*
G01*
G37*
G36*
G01*
X7067000Y-9697000D02*
X7157000Y-9697000D01*
G75*
G02*
X7182000Y-9722000I0J-25000D01*
G01*
X7182000Y-9787000D01*
G75*
G02*
X7157000Y-9812000I-25000J0D01*
G01*
X7067000Y-9812000D01*
G75*
G02*
X7042000Y-9787000I0J25000D01*
G01*
X7042000Y-9722000D01*
G75*
G02*
X7067000Y-9697000I25000J0D01*
G01*
G37*
D13*
X14074000Y-13116000D03*
X14154000Y-13116000D03*
X14234000Y-13116000D03*
X14314000Y-13116000D03*
X14394000Y-13116000D03*
X14474000Y-13116000D03*
X14554000Y-13116000D03*
X14634000Y-13116000D03*
X14714000Y-13116000D03*
X14794000Y-13116000D03*
X14874000Y-13116000D03*
D14*
X15044000Y-12946000D03*
X15044000Y-12866000D03*
X15044000Y-12786000D03*
X15044000Y-12706000D03*
X15044000Y-12626000D03*
X15044000Y-12546000D03*
X15044000Y-12466000D03*
X15044000Y-12386000D03*
X15044000Y-12306000D03*
X15044000Y-12226000D03*
X15044000Y-12146000D03*
D13*
X14874000Y-11976000D03*
X14794000Y-11976000D03*
X14714000Y-11976000D03*
X14634000Y-11976000D03*
X14554000Y-11976000D03*
X14474000Y-11976000D03*
X14394000Y-11976000D03*
X14314000Y-11976000D03*
X14234000Y-11976000D03*
X14154000Y-11976000D03*
X14074000Y-11976000D03*
D14*
X13904000Y-12146000D03*
X13904000Y-12226000D03*
X13904000Y-12306000D03*
X13904000Y-12386000D03*
X13904000Y-12466000D03*
X13904000Y-12546000D03*
X13904000Y-12626000D03*
X13904000Y-12706000D03*
X13904000Y-12786000D03*
X13904000Y-12866000D03*
X13904000Y-12946000D03*
D15*
X5016500Y-10630000D03*
X5143500Y-10630000D03*
X5270500Y-10630000D03*
X5397500Y-10630000D03*
X5524500Y-10630000D03*
X5651500Y-10630000D03*
X5778500Y-10630000D03*
X5905500Y-10630000D03*
X6032500Y-10630000D03*
X6159500Y-10630000D03*
X6286500Y-10630000D03*
X6413500Y-10630000D03*
X6540500Y-10630000D03*
X6667500Y-10630000D03*
X6667500Y-9690000D03*
X6540500Y-9690000D03*
X6413500Y-9690000D03*
X6286500Y-9690000D03*
X6159500Y-9690000D03*
X6032500Y-9690000D03*
X5905500Y-9690000D03*
X5778500Y-9690000D03*
X5651500Y-9690000D03*
X5524500Y-9690000D03*
X5397500Y-9690000D03*
X5270500Y-9690000D03*
X5143500Y-9690000D03*
X5016500Y-9690000D03*
D16*
X15540000Y-12480000D03*
X15540000Y-12600000D03*
X15540000Y-12720000D03*
G36*
G01*
X9861000Y-10512000D02*
X9951000Y-10512000D01*
G75*
G02*
X9976000Y-10537000I0J-25000D01*
G01*
X9976000Y-10602000D01*
G75*
G02*
X9951000Y-10627000I-25000J0D01*
G01*
X9861000Y-10627000D01*
G75*
G02*
X9836000Y-10602000I0J25000D01*
G01*
X9836000Y-10537000D01*
G75*
G02*
X9861000Y-10512000I25000J0D01*
G01*
G37*
G36*
G01*
X9861000Y-10717000D02*
X9951000Y-10717000D01*
G75*
G02*
X9976000Y-10742000I0J-25000D01*
G01*
X9976000Y-10807000D01*
G75*
G02*
X9951000Y-10832000I-25000J0D01*
G01*
X9861000Y-10832000D01*
G75*
G02*
X9836000Y-10807000I0J25000D01*
G01*
X9836000Y-10742000D01*
G75*
G02*
X9861000Y-10717000I25000J0D01*
G01*
G37*
G36*
G01*
X9861000Y-10205000D02*
X9951000Y-10205000D01*
G75*
G02*
X9976000Y-10230000I0J-25000D01*
G01*
X9976000Y-10295000D01*
G75*
G02*
X9951000Y-10320000I-25000J0D01*
G01*
X9861000Y-10320000D01*
G75*
G02*
X9836000Y-10295000I0J25000D01*
G01*
X9836000Y-10230000D01*
G75*
G02*
X9861000Y-10205000I25000J0D01*
G01*
G37*
G36*
G01*
X9861000Y-10000000D02*
X9951000Y-10000000D01*
G75*
G02*
X9976000Y-10025000I0J-25000D01*
G01*
X9976000Y-10090000D01*
G75*
G02*
X9951000Y-10115000I-25000J0D01*
G01*
X9861000Y-10115000D01*
G75*
G02*
X9836000Y-10090000I0J25000D01*
G01*
X9836000Y-10025000D01*
G75*
G02*
X9861000Y-10000000I25000J0D01*
G01*
G37*
G36*
G01*
X9861000Y-9488000D02*
X9951000Y-9488000D01*
G75*
G02*
X9976000Y-9513000I0J-25000D01*
G01*
X9976000Y-9578000D01*
G75*
G02*
X9951000Y-9603000I-25000J0D01*
G01*
X9861000Y-9603000D01*
G75*
G02*
X9836000Y-9578000I0J25000D01*
G01*
X9836000Y-9513000D01*
G75*
G02*
X9861000Y-9488000I25000J0D01*
G01*
G37*
G36*
G01*
X9861000Y-9693000D02*
X9951000Y-9693000D01*
G75*
G02*
X9976000Y-9718000I0J-25000D01*
G01*
X9976000Y-9783000D01*
G75*
G02*
X9951000Y-9808000I-25000J0D01*
G01*
X9861000Y-9808000D01*
G75*
G02*
X9836000Y-9783000I0J25000D01*
G01*
X9836000Y-9718000D01*
G75*
G02*
X9861000Y-9693000I25000J0D01*
G01*
G37*
G36*
G01*
X12655000Y-10713000D02*
X12745000Y-10713000D01*
G75*
G02*
X12770000Y-10738000I0J-25000D01*
G01*
X12770000Y-10803000D01*
G75*
G02*
X12745000Y-10828000I-25000J0D01*
G01*
X12655000Y-10828000D01*
G75*
G02*
X12630000Y-10803000I0J25000D01*
G01*
X12630000Y-10738000D01*
G75*
G02*
X12655000Y-10713000I25000J0D01*
G01*
G37*
G36*
G01*
X12655000Y-10508000D02*
X12745000Y-10508000D01*
G75*
G02*
X12770000Y-10533000I0J-25000D01*
G01*
X12770000Y-10598000D01*
G75*
G02*
X12745000Y-10623000I-25000J0D01*
G01*
X12655000Y-10623000D01*
G75*
G02*
X12630000Y-10598000I0J25000D01*
G01*
X12630000Y-10533000D01*
G75*
G02*
X12655000Y-10508000I25000J0D01*
G01*
G37*
G36*
G01*
X12655000Y-10000000D02*
X12745000Y-10000000D01*
G75*
G02*
X12770000Y-10025000I0J-25000D01*
G01*
X12770000Y-10090000D01*
G75*
G02*
X12745000Y-10115000I-25000J0D01*
G01*
X12655000Y-10115000D01*
G75*
G02*
X12630000Y-10090000I0J25000D01*
G01*
X12630000Y-10025000D01*
G75*
G02*
X12655000Y-10000000I25000J0D01*
G01*
G37*
G36*
G01*
X12655000Y-10205000D02*
X12745000Y-10205000D01*
G75*
G02*
X12770000Y-10230000I0J-25000D01*
G01*
X12770000Y-10295000D01*
G75*
G02*
X12745000Y-10320000I-25000J0D01*
G01*
X12655000Y-10320000D01*
G75*
G02*
X12630000Y-10295000I0J25000D01*
G01*
X12630000Y-10230000D01*
G75*
G02*
X12655000Y-10205000I25000J0D01*
G01*
G37*
G36*
G01*
X12655000Y-9697000D02*
X12745000Y-9697000D01*
G75*
G02*
X12770000Y-9722000I0J-25000D01*
G01*
X12770000Y-9787000D01*
G75*
G02*
X12745000Y-9812000I-25000J0D01*
G01*
X12655000Y-9812000D01*
G75*
G02*
X12630000Y-9787000I0J25000D01*
G01*
X12630000Y-9722000D01*
G75*
G02*
X12655000Y-9697000I25000J0D01*
G01*
G37*
G36*
G01*
X12655000Y-9492000D02*
X12745000Y-9492000D01*
G75*
G02*
X12770000Y-9517000I0J-25000D01*
G01*
X12770000Y-9582000D01*
G75*
G02*
X12745000Y-9607000I-25000J0D01*
G01*
X12655000Y-9607000D01*
G75*
G02*
X12630000Y-9582000I0J25000D01*
G01*
X12630000Y-9517000D01*
G75*
G02*
X12655000Y-9492000I25000J0D01*
G01*
G37*
G36*
G01*
X15449000Y-10508000D02*
X15539000Y-10508000D01*
G75*
G02*
X15564000Y-10533000I0J-25000D01*
G01*
X15564000Y-10598000D01*
G75*
G02*
X15539000Y-10623000I-25000J0D01*
G01*
X15449000Y-10623000D01*
G75*
G02*
X15424000Y-10598000I0J25000D01*
G01*
X15424000Y-10533000D01*
G75*
G02*
X15449000Y-10508000I25000J0D01*
G01*
G37*
G36*
G01*
X15449000Y-10713000D02*
X15539000Y-10713000D01*
G75*
G02*
X15564000Y-10738000I0J-25000D01*
G01*
X15564000Y-10803000D01*
G75*
G02*
X15539000Y-10828000I-25000J0D01*
G01*
X15449000Y-10828000D01*
G75*
G02*
X15424000Y-10803000I0J25000D01*
G01*
X15424000Y-10738000D01*
G75*
G02*
X15449000Y-10713000I25000J0D01*
G01*
G37*
G36*
G01*
X15449000Y-10205000D02*
X15539000Y-10205000D01*
G75*
G02*
X15564000Y-10230000I0J-25000D01*
G01*
X15564000Y-10295000D01*
G75*
G02*
X15539000Y-10320000I-25000J0D01*
G01*
X15449000Y-10320000D01*
G75*
G02*
X15424000Y-10295000I0J25000D01*
G01*
X15424000Y-10230000D01*
G75*
G02*
X15449000Y-10205000I25000J0D01*
G01*
G37*
G36*
G01*
X15449000Y-10000000D02*
X15539000Y-10000000D01*
G75*
G02*
X15564000Y-10025000I0J-25000D01*
G01*
X15564000Y-10090000D01*
G75*
G02*
X15539000Y-10115000I-25000J0D01*
G01*
X15449000Y-10115000D01*
G75*
G02*
X15424000Y-10090000I0J25000D01*
G01*
X15424000Y-10025000D01*
G75*
G02*
X15449000Y-10000000I25000J0D01*
G01*
G37*
G36*
G01*
X15449000Y-9492000D02*
X15539000Y-9492000D01*
G75*
G02*
X15564000Y-9517000I0J-25000D01*
G01*
X15564000Y-9582000D01*
G75*
G02*
X15539000Y-9607000I-25000J0D01*
G01*
X15449000Y-9607000D01*
G75*
G02*
X15424000Y-9582000I0J25000D01*
G01*
X15424000Y-9517000D01*
G75*
G02*
X15449000Y-9492000I25000J0D01*
G01*
G37*
G36*
G01*
X15449000Y-9697000D02*
X15539000Y-9697000D01*
G75*
G02*
X15564000Y-9722000I0J-25000D01*
G01*
X15564000Y-9787000D01*
G75*
G02*
X15539000Y-9812000I-25000J0D01*
G01*
X15449000Y-9812000D01*
G75*
G02*
X15424000Y-9787000I0J25000D01*
G01*
X15424000Y-9722000D01*
G75*
G02*
X15449000Y-9697000I25000J0D01*
G01*
G37*
D15*
X7810500Y-10630000D03*
X7937500Y-10630000D03*
X8064500Y-10630000D03*
X8191500Y-10630000D03*
X8318500Y-10630000D03*
X8445500Y-10630000D03*
X8572500Y-10630000D03*
X8699500Y-10630000D03*
X8826500Y-10630000D03*
X8953500Y-10630000D03*
X9080500Y-10630000D03*
X9207500Y-10630000D03*
X9334500Y-10630000D03*
X9461500Y-10630000D03*
X9461500Y-9690000D03*
X9334500Y-9690000D03*
X9207500Y-9690000D03*
X9080500Y-9690000D03*
X8953500Y-9690000D03*
X8826500Y-9690000D03*
X8699500Y-9690000D03*
X8572500Y-9690000D03*
X8445500Y-9690000D03*
X8318500Y-9690000D03*
X8191500Y-9690000D03*
X8064500Y-9690000D03*
X7937500Y-9690000D03*
X7810500Y-9690000D03*
X10604500Y-9690000D03*
X10731500Y-9690000D03*
X10858500Y-9690000D03*
X10985500Y-9690000D03*
X11112500Y-9690000D03*
X11239500Y-9690000D03*
X11366500Y-9690000D03*
X11493500Y-9690000D03*
X11620500Y-9690000D03*
X11747500Y-9690000D03*
X11874500Y-9690000D03*
X12001500Y-9690000D03*
X12128500Y-9690000D03*
X12255500Y-9690000D03*
X12255500Y-10630000D03*
X12128500Y-10630000D03*
X12001500Y-10630000D03*
X11874500Y-10630000D03*
X11747500Y-10630000D03*
X11620500Y-10630000D03*
X11493500Y-10630000D03*
X11366500Y-10630000D03*
X11239500Y-10630000D03*
X11112500Y-10630000D03*
X10985500Y-10630000D03*
X10858500Y-10630000D03*
X10731500Y-10630000D03*
X10604500Y-10630000D03*
X13398500Y-10630000D03*
X13525500Y-10630000D03*
X13652500Y-10630000D03*
X13779500Y-10630000D03*
X13906500Y-10630000D03*
X14033500Y-10630000D03*
X14160500Y-10630000D03*
X14287500Y-10630000D03*
X14414500Y-10630000D03*
X14541500Y-10630000D03*
X14668500Y-10630000D03*
X14795500Y-10630000D03*
X14922500Y-10630000D03*
X15049500Y-10630000D03*
X15049500Y-9690000D03*
X14922500Y-9690000D03*
X14795500Y-9690000D03*
X14668500Y-9690000D03*
X14541500Y-9690000D03*
X14414500Y-9690000D03*
X14287500Y-9690000D03*
X14160500Y-9690000D03*
X14033500Y-9690000D03*
X13906500Y-9690000D03*
X13779500Y-9690000D03*
X13652500Y-9690000D03*
X13525500Y-9690000D03*
X13398500Y-9690000D03*
G36*
G01*
X15660000Y-12855000D02*
X15660000Y-12945000D01*
G75*
G02*
X15635000Y-12970000I-25000J0D01*
G01*
X15570000Y-12970000D01*
G75*
G02*
X15545000Y-12945000I0J25000D01*
G01*
X15545000Y-12855000D01*
G75*
G02*
X15570000Y-12830000I25000J0D01*
G01*
X15635000Y-12830000D01*
G75*
G02*
X15660000Y-12855000I0J-25000D01*
G01*
G37*
G36*
G01*
X15455000Y-12855000D02*
X15455000Y-12945000D01*
G75*
G02*
X15430000Y-12970000I-25000J0D01*
G01*
X15365000Y-12970000D01*
G75*
G02*
X15340000Y-12945000I0J25000D01*
G01*
X15340000Y-12855000D01*
G75*
G02*
X15365000Y-12830000I25000J0D01*
G01*
X15430000Y-12830000D01*
G75*
G02*
X15455000Y-12855000I0J-25000D01*
G01*
G37*
G36*
G01*
X15545000Y-11710000D02*
X15455000Y-11710000D01*
G75*
G02*
X15430000Y-11685000I0J25000D01*
G01*
X15430000Y-11620000D01*
G75*
G02*
X15455000Y-11595000I25000J0D01*
G01*
X15545000Y-11595000D01*
G75*
G02*
X15570000Y-11620000I0J-25000D01*
G01*
X15570000Y-11685000D01*
G75*
G02*
X15545000Y-11710000I-25000J0D01*
G01*
G37*
G36*
G01*
X15545000Y-11505000D02*
X15455000Y-11505000D01*
G75*
G02*
X15430000Y-11480000I0J25000D01*
G01*
X15430000Y-11415000D01*
G75*
G02*
X15455000Y-11390000I25000J0D01*
G01*
X15545000Y-11390000D01*
G75*
G02*
X15570000Y-11415000I0J-25000D01*
G01*
X15570000Y-11480000D01*
G75*
G02*
X15545000Y-11505000I-25000J0D01*
G01*
G37*
G36*
G01*
X15945000Y-12760000D02*
X15855000Y-12760000D01*
G75*
G02*
X15830000Y-12735000I0J25000D01*
G01*
X15830000Y-12670000D01*
G75*
G02*
X15855000Y-12645000I25000J0D01*
G01*
X15945000Y-12645000D01*
G75*
G02*
X15970000Y-12670000I0J-25000D01*
G01*
X15970000Y-12735000D01*
G75*
G02*
X15945000Y-12760000I-25000J0D01*
G01*
G37*
G36*
G01*
X15945000Y-12555000D02*
X15855000Y-12555000D01*
G75*
G02*
X15830000Y-12530000I0J25000D01*
G01*
X15830000Y-12465000D01*
G75*
G02*
X15855000Y-12440000I25000J0D01*
G01*
X15945000Y-12440000D01*
G75*
G02*
X15970000Y-12465000I0J-25000D01*
G01*
X15970000Y-12530000D01*
G75*
G02*
X15945000Y-12555000I-25000J0D01*
G01*
G37*
G36*
G01*
X15295000Y-11710000D02*
X15205000Y-11710000D01*
G75*
G02*
X15180000Y-11685000I0J25000D01*
G01*
X15180000Y-11620000D01*
G75*
G02*
X15205000Y-11595000I25000J0D01*
G01*
X15295000Y-11595000D01*
G75*
G02*
X15320000Y-11620000I0J-25000D01*
G01*
X15320000Y-11685000D01*
G75*
G02*
X15295000Y-11710000I-25000J0D01*
G01*
G37*
G36*
G01*
X15295000Y-11505000D02*
X15205000Y-11505000D01*
G75*
G02*
X15180000Y-11480000I0J25000D01*
G01*
X15180000Y-11415000D01*
G75*
G02*
X15205000Y-11390000I25000J0D01*
G01*
X15295000Y-11390000D01*
G75*
G02*
X15320000Y-11415000I0J-25000D01*
G01*
X15320000Y-11480000D01*
G75*
G02*
X15295000Y-11505000I-25000J0D01*
G01*
G37*
G36*
G01*
X14955000Y-11390000D02*
X15045000Y-11390000D01*
G75*
G02*
X15070000Y-11415000I0J-25000D01*
G01*
X15070000Y-11480000D01*
G75*
G02*
X15045000Y-11505000I-25000J0D01*
G01*
X14955000Y-11505000D01*
G75*
G02*
X14930000Y-11480000I0J25000D01*
G01*
X14930000Y-11415000D01*
G75*
G02*
X14955000Y-11390000I25000J0D01*
G01*
G37*
G36*
G01*
X14955000Y-11595000D02*
X15045000Y-11595000D01*
G75*
G02*
X15070000Y-11620000I0J-25000D01*
G01*
X15070000Y-11685000D01*
G75*
G02*
X15045000Y-11710000I-25000J0D01*
G01*
X14955000Y-11710000D01*
G75*
G02*
X14930000Y-11685000I0J25000D01*
G01*
X14930000Y-11620000D01*
G75*
G02*
X14955000Y-11595000I25000J0D01*
G01*
G37*
G36*
G01*
X14900000Y-14170000D02*
X14810000Y-14170000D01*
G75*
G02*
X14785000Y-14145000I0J25000D01*
G01*
X14785000Y-14080000D01*
G75*
G02*
X14810000Y-14055000I25000J0D01*
G01*
X14900000Y-14055000D01*
G75*
G02*
X14925000Y-14080000I0J-25000D01*
G01*
X14925000Y-14145000D01*
G75*
G02*
X14900000Y-14170000I-25000J0D01*
G01*
G37*
G36*
G01*
X14900000Y-13965000D02*
X14810000Y-13965000D01*
G75*
G02*
X14785000Y-13940000I0J25000D01*
G01*
X14785000Y-13875000D01*
G75*
G02*
X14810000Y-13850000I25000J0D01*
G01*
X14900000Y-13850000D01*
G75*
G02*
X14925000Y-13875000I0J-25000D01*
G01*
X14925000Y-13940000D01*
G75*
G02*
X14900000Y-13965000I-25000J0D01*
G01*
G37*
D17*
X16300000Y-12952500D03*
X16300000Y-13747500D03*
X15850000Y-12952500D03*
X15850000Y-13747500D03*
M02*
