%TF.GenerationSoftware,KiCad,Pcbnew,5.1.7+dfsg1-1~bpo10+1*%
%TF.CreationDate,2020-11-15T21:32:23+00:00*%
%TF.ProjectId,piggyback,70696767-7962-4616-936b-2e6b69636164,rev?*%
%TF.SameCoordinates,Original*%
%TF.FileFunction,Plated,1,2,PTH,Mixed*%
%TF.FilePolarity,Positive*%
%FSLAX46Y46*%
G04 Gerber Fmt 4.6, Leading zero omitted, Abs format (unit mm)*
G04 Created by KiCad (PCBNEW 5.1.7+dfsg1-1~bpo10+1) date 2020-11-15 21:32:23*
%MOMM*%
%LPD*%
G01*
G04 APERTURE LIST*
%TA.AperFunction,ViaDrill*%
%ADD10C,0.400000*%
%TD*%
G04 aperture for slot hole*
%TA.AperFunction,ComponentDrill*%
%ADD11C,0.600000*%
%TD*%
%TA.AperFunction,ComponentDrill*%
%ADD12C,0.750000*%
%TD*%
%TA.AperFunction,ComponentDrill*%
%ADD13C,0.800000*%
%TD*%
%TA.AperFunction,ComponentDrill*%
%ADD14C,0.850000*%
%TD*%
%TA.AperFunction,ComponentDrill*%
%ADD15C,1.000000*%
%TD*%
%TA.AperFunction,ComponentDrill*%
%ADD16C,1.300000*%
%TD*%
G04 APERTURE END LIST*
D10*
X50000000Y-104500000D03*
X51300000Y-104500000D03*
X52600000Y-104500000D03*
X54000000Y-104600000D03*
X55400000Y-104600000D03*
X56600000Y-104600000D03*
X57900000Y-104600000D03*
X59100000Y-104600000D03*
X64200000Y-108700000D03*
X65400000Y-107800000D03*
X68700000Y-109600000D03*
X69200000Y-98800000D03*
X69200000Y-102400000D03*
X71700000Y-109600000D03*
X77900000Y-104600000D03*
X79200000Y-104600000D03*
X80500000Y-104600000D03*
X81700000Y-104600000D03*
X83000000Y-104600000D03*
X84200000Y-104600000D03*
X85500000Y-104600000D03*
X86800000Y-104600000D03*
X92200000Y-108700000D03*
X93400000Y-107800000D03*
X96400000Y-109600000D03*
X97100000Y-97800000D03*
X97100000Y-102100000D03*
X99100000Y-109700000D03*
X105900000Y-104400000D03*
X107200000Y-104400000D03*
X108400000Y-104400000D03*
X109700000Y-104400000D03*
X111000000Y-104400000D03*
X112200000Y-104400000D03*
X113500000Y-104400000D03*
X114800000Y-104400000D03*
X117000000Y-104000000D03*
X118750000Y-102250000D03*
X120100000Y-108700000D03*
X121300000Y-107800000D03*
X124600000Y-109600000D03*
X125000000Y-97500000D03*
X125000000Y-102200000D03*
X125700000Y-106700000D03*
X131300000Y-126000000D03*
X131900000Y-125000000D03*
X132500000Y-124000000D03*
X133100000Y-123000000D03*
X133700000Y-122000000D03*
X133800000Y-104500000D03*
X134300000Y-121000000D03*
X135100000Y-104500000D03*
X136400000Y-104500000D03*
X137600000Y-104500000D03*
X138900000Y-104500000D03*
X140200000Y-104500000D03*
X141500000Y-104500000D03*
X142700000Y-104500000D03*
X143000000Y-115900000D03*
X143900000Y-115300000D03*
X144000000Y-129250000D03*
X144400000Y-138700000D03*
X144500000Y-133000000D03*
X144800000Y-114700000D03*
X145000000Y-104000000D03*
X145500000Y-110000000D03*
X146750000Y-102250000D03*
X147700000Y-127900000D03*
X147750000Y-137500000D03*
X148000000Y-108700000D03*
X149300000Y-107800000D03*
X149600000Y-110200000D03*
X152100000Y-127100000D03*
X152200000Y-124700000D03*
X152600000Y-98500000D03*
X153000000Y-123900000D03*
X154400000Y-130800000D03*
X154750000Y-119250000D03*
X155750000Y-120500000D03*
X156900000Y-104200000D03*
X157100000Y-109600000D03*
D11*
%TO.C,J4*%
X139500000Y-142887500D02*
X139500000Y-143587500D01*
X146500000Y-143587500D02*
X146500000Y-142887500D01*
D12*
%TO.C,J21*%
X106500000Y-68000000D03*
X108500000Y-68000000D03*
X110500000Y-68000000D03*
X112500000Y-68000000D03*
%TO.C,J29*%
X122080000Y-68000000D03*
X124080000Y-68000000D03*
X126080000Y-68000000D03*
X128080000Y-68000000D03*
%TO.C,J34*%
X152500000Y-75000000D03*
X154500000Y-75000000D03*
X156500000Y-75000000D03*
X158500000Y-75000000D03*
%TO.C,J13*%
X76000000Y-68000000D03*
X78000000Y-68000000D03*
X80000000Y-68000000D03*
X82000000Y-68000000D03*
%TO.C,J16*%
X76000000Y-89000000D03*
X78000000Y-89000000D03*
X80000000Y-89000000D03*
X82000000Y-89000000D03*
%TO.C,J24*%
X106500000Y-89000000D03*
X108500000Y-89000000D03*
X110500000Y-89000000D03*
X112500000Y-89000000D03*
%TO.C,J7*%
X46000000Y-82000000D03*
X48000000Y-82000000D03*
X50000000Y-82000000D03*
X52000000Y-82000000D03*
%TO.C,J9*%
X61000000Y-68000000D03*
X63000000Y-68000000D03*
X65000000Y-68000000D03*
X67000000Y-68000000D03*
%TO.C,J19*%
X91000000Y-82000000D03*
X93000000Y-82000000D03*
X95000000Y-82000000D03*
X97000000Y-82000000D03*
%TO.C,J27*%
X137500000Y-82000000D03*
X139500000Y-82000000D03*
X141500000Y-82000000D03*
X143500000Y-82000000D03*
%TO.C,J32*%
X122100000Y-89000000D03*
X124100000Y-89000000D03*
X126100000Y-89000000D03*
X128100000Y-89000000D03*
%TO.C,J6*%
X46000000Y-75000000D03*
X48000000Y-75000000D03*
X50000000Y-75000000D03*
X52000000Y-75000000D03*
%TO.C,J35*%
X152500000Y-81880000D03*
X154500000Y-81880000D03*
X156500000Y-81880000D03*
X158500000Y-81880000D03*
%TO.C,J10*%
X61000000Y-75000000D03*
X63000000Y-75000000D03*
X65000000Y-75000000D03*
X67000000Y-75000000D03*
%TO.C,J14*%
X76000000Y-75000000D03*
X78000000Y-75000000D03*
X80000000Y-75000000D03*
X82000000Y-75000000D03*
%TO.C,J22*%
X106500000Y-75000000D03*
X108500000Y-75000000D03*
X110500000Y-75000000D03*
X112500000Y-75000000D03*
%TO.C,J17*%
X91000000Y-68000000D03*
X93000000Y-68000000D03*
X95000000Y-68000000D03*
X97000000Y-68000000D03*
%TO.C,J25*%
X137500000Y-68000000D03*
X139500000Y-68000000D03*
X141500000Y-68000000D03*
X143500000Y-68000000D03*
%TO.C,J12*%
X61000000Y-89000000D03*
X63000000Y-89000000D03*
X65000000Y-89000000D03*
X67000000Y-89000000D03*
%TO.C,J30*%
X122080000Y-75000000D03*
X124080000Y-75000000D03*
X126080000Y-75000000D03*
X128080000Y-75000000D03*
%TO.C,J20*%
X91000000Y-89000000D03*
X93000000Y-89000000D03*
X95000000Y-89000000D03*
X97000000Y-89000000D03*
%TO.C,J28*%
X137500000Y-89000000D03*
X139500000Y-89000000D03*
X141500000Y-89000000D03*
X143500000Y-89000000D03*
%TO.C,J33*%
X152500000Y-68000000D03*
X154500000Y-68000000D03*
X156500000Y-68000000D03*
X158500000Y-68000000D03*
%TO.C,J36*%
X152500000Y-89000000D03*
X154500000Y-89000000D03*
X156500000Y-89000000D03*
X158500000Y-89000000D03*
%TO.C,J15*%
X76000000Y-82000000D03*
X78000000Y-82000000D03*
X80000000Y-82000000D03*
X82000000Y-82000000D03*
%TO.C,J23*%
X106500000Y-82000000D03*
X108500000Y-82000000D03*
X110500000Y-82000000D03*
X112500000Y-82000000D03*
%TO.C,J5*%
X46000000Y-68000000D03*
X48000000Y-68000000D03*
X50000000Y-68000000D03*
X52000000Y-68000000D03*
%TO.C,J26*%
X137500000Y-75000000D03*
X139500000Y-75000000D03*
X141500000Y-75000000D03*
X143500000Y-75000000D03*
%TO.C,J11*%
X61000000Y-82000000D03*
X63000000Y-82000000D03*
X65000000Y-82000000D03*
X67000000Y-82000000D03*
%TO.C,J31*%
X122080000Y-82000000D03*
X124080000Y-82000000D03*
X126080000Y-82000000D03*
X128080000Y-82000000D03*
%TO.C,J8*%
X46000000Y-89000000D03*
X48000000Y-89000000D03*
X50000000Y-89000000D03*
X52000000Y-89000000D03*
%TO.C,J18*%
X91000000Y-75000000D03*
X93000000Y-75000000D03*
X95000000Y-75000000D03*
X97000000Y-75000000D03*
D13*
%TO.C,C3*%
X125440000Y-137760000D03*
X127940000Y-137760000D03*
%TO.C,A3*%
X110160000Y-117440000D03*
X110160000Y-130140000D03*
X112700000Y-117440000D03*
X112700000Y-130140000D03*
X115240000Y-117440000D03*
X115240000Y-130140000D03*
X117780000Y-117440000D03*
X117780000Y-130140000D03*
X120320000Y-117440000D03*
X120320000Y-130140000D03*
X122860000Y-117440000D03*
X122860000Y-130140000D03*
X125400000Y-117440000D03*
X125400000Y-130140000D03*
X127940000Y-117440000D03*
X127940000Y-130140000D03*
%TO.C,A2*%
X84760000Y-117440000D03*
X84760000Y-130140000D03*
X87300000Y-117440000D03*
X87300000Y-130140000D03*
X89840000Y-117440000D03*
X89840000Y-130140000D03*
X92380000Y-117440000D03*
X92380000Y-130140000D03*
X94920000Y-117440000D03*
X94920000Y-130140000D03*
X97460000Y-117440000D03*
X97460000Y-130140000D03*
X100000000Y-117440000D03*
X100000000Y-130140000D03*
X102540000Y-117440000D03*
X102540000Y-130140000D03*
%TO.C,C1*%
X74640000Y-137760000D03*
X77140000Y-137760000D03*
%TO.C,A1*%
X59360000Y-117440000D03*
X59360000Y-130140000D03*
X61900000Y-117440000D03*
X61900000Y-130140000D03*
X64440000Y-117440000D03*
X64440000Y-130140000D03*
X66980000Y-117440000D03*
X66980000Y-130140000D03*
X69520000Y-117440000D03*
X69520000Y-130140000D03*
X72060000Y-117440000D03*
X72060000Y-130140000D03*
X74600000Y-117440000D03*
X74600000Y-130140000D03*
X77140000Y-117440000D03*
X77140000Y-130140000D03*
%TO.C,C2*%
X100040000Y-137760000D03*
X102540000Y-137760000D03*
D14*
%TO.C,J4*%
X140500000Y-140537500D03*
X145500000Y-140537500D03*
D15*
%TO.C,J2*%
X87300000Y-137760000D03*
X89840000Y-137760000D03*
X92380000Y-137760000D03*
X94920000Y-137760000D03*
%TO.C,J1*%
X61900000Y-137760000D03*
X64440000Y-137760000D03*
X66980000Y-137760000D03*
X69520000Y-137760000D03*
%TO.C,J3*%
X112700000Y-137760000D03*
X115240000Y-137760000D03*
X117780000Y-137760000D03*
X120320000Y-137760000D03*
%TO.C,J39*%
X162250000Y-113500000D03*
X162250000Y-116040000D03*
X162250000Y-118580000D03*
X162250000Y-121120000D03*
X162250000Y-123660000D03*
X162250000Y-126200000D03*
%TO.C,J38*%
X151700000Y-135600000D03*
X151700000Y-138140000D03*
X151700000Y-140680000D03*
X154240000Y-135600000D03*
X154240000Y-138140000D03*
X154240000Y-140680000D03*
D16*
%TO.C,J37*%
X48500000Y-118500000D03*
X48500000Y-123580000D03*
X48500000Y-128660000D03*
M02*
