%TF.GenerationSoftware,KiCad,Pcbnew,5.1.7+dfsg1-1~bpo10+1*%
%TF.CreationDate,2020-11-15T21:32:23+00:00*%
%TF.ProjectId,piggyback,70696767-7962-4616-936b-2e6b69636164,rev?*%
%TF.SameCoordinates,Original*%
%TF.FileFunction,Other,Fab,Top*%
%FSLAX45Y45*%
G04 Gerber Fmt 4.5, Leading zero omitted, Abs format (unit mm)*
G04 Created by KiCad (PCBNEW 5.1.7+dfsg1-1~bpo10+1) date 2020-11-15 21:32:23*
%MOMM*%
%LPD*%
G01*
G04 APERTURE LIST*
%TA.AperFunction,Profile*%
%ADD10C,0.050000*%
%TD*%
%ADD11C,0.100000*%
%ADD12C,0.150000*%
%ADD13C,0.080000*%
G04 APERTURE END LIST*
D10*
X16350000Y-14150000D02*
G75*
G03*
X16350000Y-14150000I-150000J0D01*
G01*
X16350000Y-6150000D02*
G75*
G03*
X16350000Y-6150000I-150000J0D01*
G01*
X4550000Y-6150000D02*
G75*
G03*
X4550000Y-6150000I-150000J0D01*
G01*
X4550000Y-14150000D02*
G75*
G03*
X4550000Y-14150000I-150000J0D01*
G01*
X16510000Y-5842000D02*
X4064000Y-5842000D01*
X16510000Y-14478000D02*
X16510000Y-5842000D01*
X4064000Y-14478000D02*
X16510000Y-14478000D01*
X4064000Y-5842000D02*
X4064000Y-14478000D01*
D11*
X5311000Y-8411000D02*
X5436000Y-8411000D01*
X5436000Y-8411000D02*
X5436000Y-8286000D01*
X5395000Y-8370000D02*
X5395000Y-7920000D01*
X5395000Y-7920000D02*
X4405000Y-7920000D01*
X4405000Y-7920000D02*
X4405000Y-8370000D01*
X4405000Y-8370000D02*
X5395000Y-8370000D01*
X7841000Y-13141000D02*
X5936000Y-13141000D01*
X7841000Y-11617000D02*
X7841000Y-13141000D01*
X5809000Y-11617000D02*
X7841000Y-11617000D01*
X5809000Y-13014000D02*
X5809000Y-11617000D01*
X5936000Y-13141000D02*
X5809000Y-13014000D01*
X8476000Y-13141000D02*
X8349000Y-13014000D01*
X8349000Y-13014000D02*
X8349000Y-11617000D01*
X8349000Y-11617000D02*
X10381000Y-11617000D01*
X10381000Y-11617000D02*
X10381000Y-13141000D01*
X10381000Y-13141000D02*
X8476000Y-13141000D01*
X12921000Y-13141000D02*
X11016000Y-13141000D01*
X12921000Y-11617000D02*
X12921000Y-13141000D01*
X10889000Y-11617000D02*
X12921000Y-11617000D01*
X10889000Y-13014000D02*
X10889000Y-11617000D01*
X11016000Y-13141000D02*
X10889000Y-13014000D01*
X13480000Y-13020000D02*
X13480000Y-12820000D01*
X13600000Y-13020000D02*
X13480000Y-13020000D01*
X13600000Y-12820000D02*
X13600000Y-13020000D01*
X13480000Y-12820000D02*
X13600000Y-12820000D01*
X6158000Y-14180000D02*
X6158000Y-14780000D01*
X6222000Y-14780000D02*
X6158000Y-14780000D01*
X6222000Y-14180000D02*
X6222000Y-14780000D01*
X6158000Y-13744000D02*
X6158000Y-13926000D01*
X6222000Y-13744000D02*
X6158000Y-13744000D01*
X6222000Y-13744000D02*
X6222000Y-13926000D01*
X6412000Y-14180000D02*
X6412000Y-14780000D01*
X6476000Y-14780000D02*
X6412000Y-14780000D01*
X6476000Y-14180000D02*
X6476000Y-14780000D01*
X6412000Y-13744000D02*
X6412000Y-13926000D01*
X6476000Y-13744000D02*
X6412000Y-13744000D01*
X6476000Y-13744000D02*
X6476000Y-13926000D01*
X6666000Y-14180000D02*
X6666000Y-14780000D01*
X6730000Y-14780000D02*
X6666000Y-14780000D01*
X6730000Y-14180000D02*
X6730000Y-14780000D01*
X6666000Y-13744000D02*
X6666000Y-13926000D01*
X6730000Y-13744000D02*
X6666000Y-13744000D01*
X6730000Y-13744000D02*
X6730000Y-13926000D01*
X6920000Y-14180000D02*
X6920000Y-14780000D01*
X6984000Y-14780000D02*
X6920000Y-14780000D01*
X6984000Y-14180000D02*
X6984000Y-14780000D01*
X6920000Y-13744000D02*
X6920000Y-13926000D01*
X6984000Y-13744000D02*
X6920000Y-13744000D01*
X6984000Y-13744000D02*
X6984000Y-13926000D01*
X7015500Y-13926000D02*
X7079000Y-13989500D01*
X6063000Y-13926000D02*
X7015500Y-13926000D01*
X6063000Y-14180000D02*
X6063000Y-13926000D01*
X7079000Y-14180000D02*
X6063000Y-14180000D01*
X7079000Y-13989500D02*
X7079000Y-14180000D01*
X8698000Y-14180000D02*
X8698000Y-14780000D01*
X8762000Y-14780000D02*
X8698000Y-14780000D01*
X8762000Y-14180000D02*
X8762000Y-14780000D01*
X8698000Y-13744000D02*
X8698000Y-13926000D01*
X8762000Y-13744000D02*
X8698000Y-13744000D01*
X8762000Y-13744000D02*
X8762000Y-13926000D01*
X8952000Y-14180000D02*
X8952000Y-14780000D01*
X9016000Y-14780000D02*
X8952000Y-14780000D01*
X9016000Y-14180000D02*
X9016000Y-14780000D01*
X8952000Y-13744000D02*
X8952000Y-13926000D01*
X9016000Y-13744000D02*
X8952000Y-13744000D01*
X9016000Y-13744000D02*
X9016000Y-13926000D01*
X9206000Y-14180000D02*
X9206000Y-14780000D01*
X9270000Y-14780000D02*
X9206000Y-14780000D01*
X9270000Y-14180000D02*
X9270000Y-14780000D01*
X9206000Y-13744000D02*
X9206000Y-13926000D01*
X9270000Y-13744000D02*
X9206000Y-13744000D01*
X9270000Y-13744000D02*
X9270000Y-13926000D01*
X9460000Y-14180000D02*
X9460000Y-14780000D01*
X9524000Y-14780000D02*
X9460000Y-14780000D01*
X9524000Y-14180000D02*
X9524000Y-14780000D01*
X9460000Y-13744000D02*
X9460000Y-13926000D01*
X9524000Y-13744000D02*
X9460000Y-13744000D01*
X9524000Y-13744000D02*
X9524000Y-13926000D01*
X9555500Y-13926000D02*
X9619000Y-13989500D01*
X8603000Y-13926000D02*
X9555500Y-13926000D01*
X8603000Y-14180000D02*
X8603000Y-13926000D01*
X9619000Y-14180000D02*
X8603000Y-14180000D01*
X9619000Y-13989500D02*
X9619000Y-14180000D01*
X12159000Y-13989500D02*
X12159000Y-14180000D01*
X12159000Y-14180000D02*
X11143000Y-14180000D01*
X11143000Y-14180000D02*
X11143000Y-13926000D01*
X11143000Y-13926000D02*
X12095500Y-13926000D01*
X12095500Y-13926000D02*
X12159000Y-13989500D01*
X12064000Y-13744000D02*
X12064000Y-13926000D01*
X12064000Y-13744000D02*
X12000000Y-13744000D01*
X12000000Y-13744000D02*
X12000000Y-13926000D01*
X12064000Y-14180000D02*
X12064000Y-14780000D01*
X12064000Y-14780000D02*
X12000000Y-14780000D01*
X12000000Y-14180000D02*
X12000000Y-14780000D01*
X11810000Y-13744000D02*
X11810000Y-13926000D01*
X11810000Y-13744000D02*
X11746000Y-13744000D01*
X11746000Y-13744000D02*
X11746000Y-13926000D01*
X11810000Y-14180000D02*
X11810000Y-14780000D01*
X11810000Y-14780000D02*
X11746000Y-14780000D01*
X11746000Y-14180000D02*
X11746000Y-14780000D01*
X11556000Y-13744000D02*
X11556000Y-13926000D01*
X11556000Y-13744000D02*
X11492000Y-13744000D01*
X11492000Y-13744000D02*
X11492000Y-13926000D01*
X11556000Y-14180000D02*
X11556000Y-14780000D01*
X11556000Y-14780000D02*
X11492000Y-14780000D01*
X11492000Y-14180000D02*
X11492000Y-14780000D01*
X11302000Y-13744000D02*
X11302000Y-13926000D01*
X11302000Y-13744000D02*
X11238000Y-13744000D01*
X11238000Y-13744000D02*
X11238000Y-13926000D01*
X11302000Y-14180000D02*
X11302000Y-14780000D01*
X11302000Y-14780000D02*
X11238000Y-14780000D01*
X11238000Y-14180000D02*
X11238000Y-14780000D01*
X14190000Y-13987750D02*
X14190000Y-14008750D01*
X14150000Y-13987750D02*
X14150000Y-14008750D01*
X14150000Y-13987750D02*
X14190000Y-13987750D01*
X14190000Y-14008750D02*
X14170000Y-14028750D01*
X14170000Y-14028750D02*
X14150000Y-14008750D01*
X13925000Y-14538750D02*
X13925000Y-14038750D01*
X13925000Y-14038750D02*
X14675000Y-14038750D01*
X13925000Y-14538920D02*
X14675000Y-14538920D01*
X14000000Y-14468920D02*
X14600000Y-14468920D01*
X14675000Y-14538750D02*
X14675000Y-14038750D01*
X14340000Y-13462000D02*
X14460000Y-13462000D01*
X14460000Y-13462000D02*
X14460000Y-13662000D01*
X14460000Y-13662000D02*
X14340000Y-13662000D01*
X14340000Y-13662000D02*
X14340000Y-13462000D01*
X14090000Y-13662000D02*
X14090000Y-13462000D01*
X14210000Y-13662000D02*
X14090000Y-13662000D01*
X14210000Y-13462000D02*
X14210000Y-13662000D01*
X14090000Y-13462000D02*
X14210000Y-13462000D01*
X7052000Y-10768000D02*
X7052000Y-10568000D01*
X7172000Y-10768000D02*
X7052000Y-10768000D01*
X7172000Y-10568000D02*
X7172000Y-10768000D01*
X7052000Y-10568000D02*
X7172000Y-10568000D01*
X7052000Y-10060000D02*
X7172000Y-10060000D01*
X7172000Y-10060000D02*
X7172000Y-10260000D01*
X7172000Y-10260000D02*
X7052000Y-10260000D01*
X7052000Y-10260000D02*
X7052000Y-10060000D01*
X7052000Y-9752000D02*
X7052000Y-9552000D01*
X7172000Y-9752000D02*
X7052000Y-9752000D01*
X7172000Y-9552000D02*
X7172000Y-9752000D01*
X7052000Y-9552000D02*
X7172000Y-9552000D01*
D12*
X14074000Y-13046000D02*
X13974000Y-12946000D01*
X14974000Y-13046000D02*
X14074000Y-13046000D01*
X14974000Y-12046000D02*
X14974000Y-13046000D01*
X13974000Y-12046000D02*
X14974000Y-12046000D01*
X13974000Y-12946000D02*
X13974000Y-12046000D01*
X5047000Y-10535000D02*
X4947000Y-10435000D01*
X6737000Y-10535000D02*
X5047000Y-10535000D01*
X6737000Y-9785000D02*
X6737000Y-10535000D01*
X4947000Y-9785000D02*
X6737000Y-9785000D01*
X4947000Y-10435000D02*
X4947000Y-9785000D01*
D11*
X15510000Y-12450000D02*
X15620000Y-12450000D01*
X15460000Y-12500000D02*
X15460000Y-12750000D01*
X15460000Y-12500000D02*
X15510000Y-12450000D01*
X15620000Y-12750000D02*
X15620000Y-12450000D01*
X15460000Y-12750000D02*
X15620000Y-12750000D01*
X9846000Y-10772000D02*
X9846000Y-10572000D01*
X9966000Y-10772000D02*
X9846000Y-10772000D01*
X9966000Y-10572000D02*
X9966000Y-10772000D01*
X9846000Y-10572000D02*
X9966000Y-10572000D01*
X9846000Y-10060000D02*
X9966000Y-10060000D01*
X9966000Y-10060000D02*
X9966000Y-10260000D01*
X9966000Y-10260000D02*
X9846000Y-10260000D01*
X9846000Y-10260000D02*
X9846000Y-10060000D01*
X9846000Y-9748000D02*
X9846000Y-9548000D01*
X9966000Y-9748000D02*
X9846000Y-9748000D01*
X9966000Y-9548000D02*
X9966000Y-9748000D01*
X9846000Y-9548000D02*
X9966000Y-9548000D01*
X12640000Y-10568000D02*
X12760000Y-10568000D01*
X12760000Y-10568000D02*
X12760000Y-10768000D01*
X12760000Y-10768000D02*
X12640000Y-10768000D01*
X12640000Y-10768000D02*
X12640000Y-10568000D01*
X12640000Y-10260000D02*
X12640000Y-10060000D01*
X12760000Y-10260000D02*
X12640000Y-10260000D01*
X12760000Y-10060000D02*
X12760000Y-10260000D01*
X12640000Y-10060000D02*
X12760000Y-10060000D01*
X12640000Y-9552000D02*
X12760000Y-9552000D01*
X12760000Y-9552000D02*
X12760000Y-9752000D01*
X12760000Y-9752000D02*
X12640000Y-9752000D01*
X12640000Y-9752000D02*
X12640000Y-9552000D01*
X15434000Y-10768000D02*
X15434000Y-10568000D01*
X15554000Y-10768000D02*
X15434000Y-10768000D01*
X15554000Y-10568000D02*
X15554000Y-10768000D01*
X15434000Y-10568000D02*
X15554000Y-10568000D01*
X15434000Y-10060000D02*
X15554000Y-10060000D01*
X15554000Y-10060000D02*
X15554000Y-10260000D01*
X15554000Y-10260000D02*
X15434000Y-10260000D01*
X15434000Y-10260000D02*
X15434000Y-10060000D01*
X15434000Y-9752000D02*
X15434000Y-9552000D01*
X15554000Y-9752000D02*
X15434000Y-9752000D01*
X15554000Y-9552000D02*
X15554000Y-9752000D01*
X15434000Y-9552000D02*
X15554000Y-9552000D01*
D12*
X7841000Y-10535000D02*
X7741000Y-10435000D01*
X9531000Y-10535000D02*
X7841000Y-10535000D01*
X9531000Y-9785000D02*
X9531000Y-10535000D01*
X7741000Y-9785000D02*
X9531000Y-9785000D01*
X7741000Y-10435000D02*
X7741000Y-9785000D01*
X10535000Y-10435000D02*
X10535000Y-9785000D01*
X10535000Y-9785000D02*
X12325000Y-9785000D01*
X12325000Y-9785000D02*
X12325000Y-10535000D01*
X12325000Y-10535000D02*
X10635000Y-10535000D01*
X10635000Y-10535000D02*
X10535000Y-10435000D01*
X13429000Y-10535000D02*
X13329000Y-10435000D01*
X15119000Y-10535000D02*
X13429000Y-10535000D01*
X15119000Y-9785000D02*
X15119000Y-10535000D01*
X13329000Y-9785000D02*
X15119000Y-9785000D01*
X13329000Y-10435000D02*
X13329000Y-9785000D01*
D11*
X7839000Y-13776000D02*
G75*
G03*
X7839000Y-13776000I-250000J0D01*
G01*
X7802360Y-13884750D02*
X7752360Y-13884750D01*
X7777360Y-13909750D02*
X7777360Y-13859750D01*
X10317361Y-13909750D02*
X10317361Y-13859750D01*
X10342361Y-13884750D02*
X10292361Y-13884750D01*
X10379000Y-13776000D02*
G75*
G03*
X10379000Y-13776000I-250000J0D01*
G01*
X12857360Y-13909750D02*
X12857360Y-13859750D01*
X12882360Y-13884750D02*
X12832360Y-13884750D01*
X12919000Y-13776000D02*
G75*
G03*
X12919000Y-13776000I-250000J0D01*
G01*
X15400000Y-12840000D02*
X15600000Y-12840000D01*
X15400000Y-12960000D02*
X15400000Y-12840000D01*
X15600000Y-12960000D02*
X15400000Y-12960000D01*
X15600000Y-12840000D02*
X15600000Y-12960000D01*
X5311000Y-7011000D02*
X5436000Y-7011000D01*
X5436000Y-7011000D02*
X5436000Y-6886000D01*
X5395000Y-6970000D02*
X5395000Y-6520000D01*
X5395000Y-6520000D02*
X4405000Y-6520000D01*
X4405000Y-6520000D02*
X4405000Y-6970000D01*
X4405000Y-6970000D02*
X5395000Y-6970000D01*
X4405000Y-7670000D02*
X5395000Y-7670000D01*
X4405000Y-7220000D02*
X4405000Y-7670000D01*
X5395000Y-7220000D02*
X4405000Y-7220000D01*
X5395000Y-7670000D02*
X5395000Y-7220000D01*
X5436000Y-7711000D02*
X5436000Y-7586000D01*
X5311000Y-7711000D02*
X5436000Y-7711000D01*
X4405000Y-9070000D02*
X5395000Y-9070000D01*
X4405000Y-8620000D02*
X4405000Y-9070000D01*
X5395000Y-8620000D02*
X4405000Y-8620000D01*
X5395000Y-9070000D02*
X5395000Y-8620000D01*
X5436000Y-9111000D02*
X5436000Y-8986000D01*
X5311000Y-9111000D02*
X5436000Y-9111000D01*
X6811000Y-7011000D02*
X6936000Y-7011000D01*
X6936000Y-7011000D02*
X6936000Y-6886000D01*
X6895000Y-6970000D02*
X6895000Y-6520000D01*
X6895000Y-6520000D02*
X5905000Y-6520000D01*
X5905000Y-6520000D02*
X5905000Y-6970000D01*
X5905000Y-6970000D02*
X6895000Y-6970000D01*
X5905000Y-7670000D02*
X6895000Y-7670000D01*
X5905000Y-7220000D02*
X5905000Y-7670000D01*
X6895000Y-7220000D02*
X5905000Y-7220000D01*
X6895000Y-7670000D02*
X6895000Y-7220000D01*
X6936000Y-7711000D02*
X6936000Y-7586000D01*
X6811000Y-7711000D02*
X6936000Y-7711000D01*
X6811000Y-8411000D02*
X6936000Y-8411000D01*
X6936000Y-8411000D02*
X6936000Y-8286000D01*
X6895000Y-8370000D02*
X6895000Y-7920000D01*
X6895000Y-7920000D02*
X5905000Y-7920000D01*
X5905000Y-7920000D02*
X5905000Y-8370000D01*
X5905000Y-8370000D02*
X6895000Y-8370000D01*
X5905000Y-9070000D02*
X6895000Y-9070000D01*
X5905000Y-8620000D02*
X5905000Y-9070000D01*
X6895000Y-8620000D02*
X5905000Y-8620000D01*
X6895000Y-9070000D02*
X6895000Y-8620000D01*
X6936000Y-9111000D02*
X6936000Y-8986000D01*
X6811000Y-9111000D02*
X6936000Y-9111000D01*
X8311000Y-7011000D02*
X8436000Y-7011000D01*
X8436000Y-7011000D02*
X8436000Y-6886000D01*
X8395000Y-6970000D02*
X8395000Y-6520000D01*
X8395000Y-6520000D02*
X7405000Y-6520000D01*
X7405000Y-6520000D02*
X7405000Y-6970000D01*
X7405000Y-6970000D02*
X8395000Y-6970000D01*
X7405000Y-7670000D02*
X8395000Y-7670000D01*
X7405000Y-7220000D02*
X7405000Y-7670000D01*
X8395000Y-7220000D02*
X7405000Y-7220000D01*
X8395000Y-7670000D02*
X8395000Y-7220000D01*
X8436000Y-7711000D02*
X8436000Y-7586000D01*
X8311000Y-7711000D02*
X8436000Y-7711000D01*
X8311000Y-8411000D02*
X8436000Y-8411000D01*
X8436000Y-8411000D02*
X8436000Y-8286000D01*
X8395000Y-8370000D02*
X8395000Y-7920000D01*
X8395000Y-7920000D02*
X7405000Y-7920000D01*
X7405000Y-7920000D02*
X7405000Y-8370000D01*
X7405000Y-8370000D02*
X8395000Y-8370000D01*
X7405000Y-9070000D02*
X8395000Y-9070000D01*
X7405000Y-8620000D02*
X7405000Y-9070000D01*
X8395000Y-8620000D02*
X7405000Y-8620000D01*
X8395000Y-9070000D02*
X8395000Y-8620000D01*
X8436000Y-9111000D02*
X8436000Y-8986000D01*
X8311000Y-9111000D02*
X8436000Y-9111000D01*
X8905000Y-6970000D02*
X9895000Y-6970000D01*
X8905000Y-6520000D02*
X8905000Y-6970000D01*
X9895000Y-6520000D02*
X8905000Y-6520000D01*
X9895000Y-6970000D02*
X9895000Y-6520000D01*
X9936000Y-7011000D02*
X9936000Y-6886000D01*
X9811000Y-7011000D02*
X9936000Y-7011000D01*
X8905000Y-7670000D02*
X9895000Y-7670000D01*
X8905000Y-7220000D02*
X8905000Y-7670000D01*
X9895000Y-7220000D02*
X8905000Y-7220000D01*
X9895000Y-7670000D02*
X9895000Y-7220000D01*
X9936000Y-7711000D02*
X9936000Y-7586000D01*
X9811000Y-7711000D02*
X9936000Y-7711000D01*
X9811000Y-8411000D02*
X9936000Y-8411000D01*
X9936000Y-8411000D02*
X9936000Y-8286000D01*
X9895000Y-8370000D02*
X9895000Y-7920000D01*
X9895000Y-7920000D02*
X8905000Y-7920000D01*
X8905000Y-7920000D02*
X8905000Y-8370000D01*
X8905000Y-8370000D02*
X9895000Y-8370000D01*
X8905000Y-9070000D02*
X9895000Y-9070000D01*
X8905000Y-8620000D02*
X8905000Y-9070000D01*
X9895000Y-8620000D02*
X8905000Y-8620000D01*
X9895000Y-9070000D02*
X9895000Y-8620000D01*
X9936000Y-9111000D02*
X9936000Y-8986000D01*
X9811000Y-9111000D02*
X9936000Y-9111000D01*
X11361000Y-7011000D02*
X11486000Y-7011000D01*
X11486000Y-7011000D02*
X11486000Y-6886000D01*
X11445000Y-6970000D02*
X11445000Y-6520000D01*
X11445000Y-6520000D02*
X10455000Y-6520000D01*
X10455000Y-6520000D02*
X10455000Y-6970000D01*
X10455000Y-6970000D02*
X11445000Y-6970000D01*
X10455000Y-7670000D02*
X11445000Y-7670000D01*
X10455000Y-7220000D02*
X10455000Y-7670000D01*
X11445000Y-7220000D02*
X10455000Y-7220000D01*
X11445000Y-7670000D02*
X11445000Y-7220000D01*
X11486000Y-7711000D02*
X11486000Y-7586000D01*
X11361000Y-7711000D02*
X11486000Y-7711000D01*
X11361000Y-8411000D02*
X11486000Y-8411000D01*
X11486000Y-8411000D02*
X11486000Y-8286000D01*
X11445000Y-8370000D02*
X11445000Y-7920000D01*
X11445000Y-7920000D02*
X10455000Y-7920000D01*
X10455000Y-7920000D02*
X10455000Y-8370000D01*
X10455000Y-8370000D02*
X11445000Y-8370000D01*
X10455000Y-9070000D02*
X11445000Y-9070000D01*
X10455000Y-8620000D02*
X10455000Y-9070000D01*
X11445000Y-8620000D02*
X10455000Y-8620000D01*
X11445000Y-9070000D02*
X11445000Y-8620000D01*
X11486000Y-9111000D02*
X11486000Y-8986000D01*
X11361000Y-9111000D02*
X11486000Y-9111000D01*
X14461000Y-7011000D02*
X14586000Y-7011000D01*
X14586000Y-7011000D02*
X14586000Y-6886000D01*
X14545000Y-6970000D02*
X14545000Y-6520000D01*
X14545000Y-6520000D02*
X13555000Y-6520000D01*
X13555000Y-6520000D02*
X13555000Y-6970000D01*
X13555000Y-6970000D02*
X14545000Y-6970000D01*
X13555000Y-7670000D02*
X14545000Y-7670000D01*
X13555000Y-7220000D02*
X13555000Y-7670000D01*
X14545000Y-7220000D02*
X13555000Y-7220000D01*
X14545000Y-7670000D02*
X14545000Y-7220000D01*
X14586000Y-7711000D02*
X14586000Y-7586000D01*
X14461000Y-7711000D02*
X14586000Y-7711000D01*
X14461000Y-8411000D02*
X14586000Y-8411000D01*
X14586000Y-8411000D02*
X14586000Y-8286000D01*
X14545000Y-8370000D02*
X14545000Y-7920000D01*
X14545000Y-7920000D02*
X13555000Y-7920000D01*
X13555000Y-7920000D02*
X13555000Y-8370000D01*
X13555000Y-8370000D02*
X14545000Y-8370000D01*
X14461000Y-9111000D02*
X14586000Y-9111000D01*
X14586000Y-9111000D02*
X14586000Y-8986000D01*
X14545000Y-9070000D02*
X14545000Y-8620000D01*
X14545000Y-8620000D02*
X13555000Y-8620000D01*
X13555000Y-8620000D02*
X13555000Y-9070000D01*
X13555000Y-9070000D02*
X14545000Y-9070000D01*
X12919000Y-7011000D02*
X13044000Y-7011000D01*
X13044000Y-7011000D02*
X13044000Y-6886000D01*
X13003000Y-6970000D02*
X13003000Y-6520000D01*
X13003000Y-6520000D02*
X12013000Y-6520000D01*
X12013000Y-6520000D02*
X12013000Y-6970000D01*
X12013000Y-6970000D02*
X13003000Y-6970000D01*
X12013000Y-7670000D02*
X13003000Y-7670000D01*
X12013000Y-7220000D02*
X12013000Y-7670000D01*
X13003000Y-7220000D02*
X12013000Y-7220000D01*
X13003000Y-7670000D02*
X13003000Y-7220000D01*
X13044000Y-7711000D02*
X13044000Y-7586000D01*
X12919000Y-7711000D02*
X13044000Y-7711000D01*
X12919000Y-8411000D02*
X13044000Y-8411000D01*
X13044000Y-8411000D02*
X13044000Y-8286000D01*
X13003000Y-8370000D02*
X13003000Y-7920000D01*
X13003000Y-7920000D02*
X12013000Y-7920000D01*
X12013000Y-7920000D02*
X12013000Y-8370000D01*
X12013000Y-8370000D02*
X13003000Y-8370000D01*
X12015000Y-9070000D02*
X13005000Y-9070000D01*
X12015000Y-8620000D02*
X12015000Y-9070000D01*
X13005000Y-8620000D02*
X12015000Y-8620000D01*
X13005000Y-9070000D02*
X13005000Y-8620000D01*
X13046000Y-9111000D02*
X13046000Y-8986000D01*
X12921000Y-9111000D02*
X13046000Y-9111000D01*
X15961000Y-7011000D02*
X16086000Y-7011000D01*
X16086000Y-7011000D02*
X16086000Y-6886000D01*
X16045000Y-6970000D02*
X16045000Y-6520000D01*
X16045000Y-6520000D02*
X15055000Y-6520000D01*
X15055000Y-6520000D02*
X15055000Y-6970000D01*
X15055000Y-6970000D02*
X16045000Y-6970000D01*
X15961000Y-7711000D02*
X16086000Y-7711000D01*
X16086000Y-7711000D02*
X16086000Y-7586000D01*
X16045000Y-7670000D02*
X16045000Y-7220000D01*
X16045000Y-7220000D02*
X15055000Y-7220000D01*
X15055000Y-7220000D02*
X15055000Y-7670000D01*
X15055000Y-7670000D02*
X16045000Y-7670000D01*
X15055000Y-8358000D02*
X16045000Y-8358000D01*
X15055000Y-7908000D02*
X15055000Y-8358000D01*
X16045000Y-7908000D02*
X15055000Y-7908000D01*
X16045000Y-8358000D02*
X16045000Y-7908000D01*
X16086000Y-8399000D02*
X16086000Y-8274000D01*
X15961000Y-8399000D02*
X16086000Y-8399000D01*
X15055000Y-9070000D02*
X16045000Y-9070000D01*
X15055000Y-8620000D02*
X15055000Y-9070000D01*
X16045000Y-8620000D02*
X15055000Y-8620000D01*
X16045000Y-9070000D02*
X16045000Y-8620000D01*
X16086000Y-9111000D02*
X16086000Y-8986000D01*
X15961000Y-9111000D02*
X16086000Y-9111000D01*
X5001700Y-12993300D02*
X4722700Y-12714400D01*
X4977300Y-13017700D02*
X4698300Y-12738800D01*
X5001700Y-12485300D02*
X4722700Y-12206400D01*
X4977300Y-12509700D02*
X4698300Y-12230800D01*
X5001700Y-11977300D02*
X4722700Y-11698300D01*
X4977300Y-12001700D02*
X4698300Y-11722700D01*
X5240000Y-11596000D02*
X5240000Y-13120000D01*
X4620000Y-11596000D02*
X4620000Y-13120000D01*
X4370000Y-11596000D02*
X4370000Y-13120000D01*
X4370000Y-11596000D02*
X5440000Y-11596000D01*
X4320000Y-11646000D02*
X4370000Y-11596000D01*
X4320000Y-13120000D02*
X4320000Y-11646000D01*
X5440000Y-13120000D02*
X4320000Y-13120000D01*
X5440000Y-11596000D02*
X5440000Y-13120000D01*
X5050000Y-12866000D02*
G75*
G03*
X5050000Y-12866000I-200000J0D01*
G01*
X5050000Y-12358000D02*
G75*
G03*
X5050000Y-12358000I-200000J0D01*
G01*
X5050000Y-11850000D02*
G75*
G03*
X5050000Y-11850000I-200000J0D01*
G01*
X15043000Y-13560000D02*
X15170000Y-13433000D01*
X15043000Y-14195000D02*
X15043000Y-13560000D01*
X15551000Y-14195000D02*
X15043000Y-14195000D01*
X15551000Y-13433000D02*
X15551000Y-14195000D01*
X15170000Y-13433000D02*
X15551000Y-13433000D01*
X16098000Y-11286500D02*
X16161500Y-11223000D01*
X16098000Y-12747000D02*
X16098000Y-11286500D01*
X16352000Y-12747000D02*
X16098000Y-12747000D01*
X16352000Y-11223000D02*
X16352000Y-12747000D01*
X16161500Y-11223000D02*
X16352000Y-11223000D01*
X15560000Y-11450000D02*
X15560000Y-11650000D01*
X15440000Y-11450000D02*
X15560000Y-11450000D01*
X15440000Y-11650000D02*
X15440000Y-11450000D01*
X15560000Y-11650000D02*
X15440000Y-11650000D01*
X15960000Y-12500000D02*
X15960000Y-12700000D01*
X15840000Y-12500000D02*
X15960000Y-12500000D01*
X15840000Y-12700000D02*
X15840000Y-12500000D01*
X15960000Y-12700000D02*
X15840000Y-12700000D01*
X15310000Y-11450000D02*
X15190000Y-11450000D01*
X15310000Y-11650000D02*
X15310000Y-11450000D01*
X15220000Y-11650000D02*
X15310000Y-11650000D01*
X15190000Y-11620000D02*
X15220000Y-11650000D01*
X15190000Y-11450000D02*
X15190000Y-11620000D01*
X14940000Y-11650000D02*
X14940000Y-11450000D01*
X15060000Y-11650000D02*
X14940000Y-11650000D01*
X15060000Y-11450000D02*
X15060000Y-11650000D01*
X14940000Y-11450000D02*
X15060000Y-11450000D01*
X14915000Y-13910000D02*
X14915000Y-14110000D01*
X14795000Y-13910000D02*
X14915000Y-13910000D01*
X14795000Y-14110000D02*
X14795000Y-13910000D01*
X14915000Y-14110000D02*
X14795000Y-14110000D01*
X15745000Y-13050000D02*
X16405000Y-13050000D01*
X15745000Y-13650000D02*
X15745000Y-13050000D01*
X16405000Y-13650000D02*
X15745000Y-13650000D01*
X16405000Y-13050000D02*
X16405000Y-13650000D01*
X16240000Y-13350000D02*
G75*
G03*
X16240000Y-13350000I-165000J0D01*
G01*
D12*
X4866667Y-7995238D02*
X4866667Y-8066667D01*
X4861905Y-8080952D01*
X4852381Y-8090476D01*
X4838095Y-8095238D01*
X4828571Y-8095238D01*
X4904762Y-7995238D02*
X4971429Y-7995238D01*
X4928571Y-8095238D01*
X5952667Y-12450428D02*
X5952667Y-12402809D01*
X5981238Y-12459952D02*
X5881238Y-12426619D01*
X5981238Y-12393286D01*
X5981238Y-12307571D02*
X5981238Y-12364714D01*
X5981238Y-12336143D02*
X5881238Y-12336143D01*
X5895524Y-12345667D01*
X5905048Y-12355190D01*
X5909809Y-12364714D01*
X8492667Y-12450428D02*
X8492667Y-12402809D01*
X8521238Y-12459952D02*
X8421238Y-12426619D01*
X8521238Y-12393286D01*
X8430762Y-12364714D02*
X8426000Y-12359952D01*
X8421238Y-12350428D01*
X8421238Y-12326619D01*
X8426000Y-12317095D01*
X8430762Y-12312333D01*
X8440286Y-12307571D01*
X8449810Y-12307571D01*
X8464095Y-12312333D01*
X8521238Y-12369476D01*
X8521238Y-12307571D01*
X11032667Y-12450428D02*
X11032667Y-12402809D01*
X11061238Y-12459952D02*
X10961238Y-12426619D01*
X11061238Y-12393286D01*
X10961238Y-12369476D02*
X10961238Y-12307571D01*
X10999333Y-12340905D01*
X10999333Y-12326619D01*
X11004095Y-12317095D01*
X11008857Y-12312333D01*
X11018381Y-12307571D01*
X11042190Y-12307571D01*
X11051714Y-12312333D01*
X11056476Y-12317095D01*
X11061238Y-12326619D01*
X11061238Y-12355190D01*
X11056476Y-12364714D01*
X11051714Y-12369476D01*
D13*
X13557857Y-12928333D02*
X13560238Y-12930714D01*
X13562619Y-12937857D01*
X13562619Y-12942619D01*
X13560238Y-12949762D01*
X13555476Y-12954524D01*
X13550714Y-12956905D01*
X13541190Y-12959286D01*
X13534048Y-12959286D01*
X13524524Y-12956905D01*
X13519762Y-12954524D01*
X13515000Y-12949762D01*
X13512619Y-12942619D01*
X13512619Y-12937857D01*
X13515000Y-12930714D01*
X13517381Y-12928333D01*
X13529286Y-12885476D02*
X13562619Y-12885476D01*
X13510238Y-12897381D02*
X13545952Y-12909286D01*
X13545952Y-12878333D01*
D12*
X6537667Y-13998238D02*
X6537667Y-14069667D01*
X6532905Y-14083952D01*
X6523381Y-14093476D01*
X6509095Y-14098238D01*
X6499571Y-14098238D01*
X6637667Y-14098238D02*
X6580524Y-14098238D01*
X6609095Y-14098238D02*
X6609095Y-13998238D01*
X6599571Y-14012524D01*
X6590048Y-14022048D01*
X6580524Y-14026809D01*
X9077667Y-13998238D02*
X9077667Y-14069667D01*
X9072905Y-14083952D01*
X9063381Y-14093476D01*
X9049095Y-14098238D01*
X9039571Y-14098238D01*
X9120524Y-14007762D02*
X9125286Y-14003000D01*
X9134810Y-13998238D01*
X9158619Y-13998238D01*
X9168143Y-14003000D01*
X9172905Y-14007762D01*
X9177667Y-14017286D01*
X9177667Y-14026809D01*
X9172905Y-14041095D01*
X9115762Y-14098238D01*
X9177667Y-14098238D01*
X11617667Y-13998238D02*
X11617667Y-14069667D01*
X11612905Y-14083952D01*
X11603381Y-14093476D01*
X11589095Y-14098238D01*
X11579571Y-14098238D01*
X11655762Y-13998238D02*
X11717667Y-13998238D01*
X11684333Y-14036333D01*
X11698619Y-14036333D01*
X11708143Y-14041095D01*
X11712905Y-14045857D01*
X11717667Y-14055381D01*
X11717667Y-14079190D01*
X11712905Y-14088714D01*
X11708143Y-14093476D01*
X11698619Y-14098238D01*
X11670048Y-14098238D01*
X11660524Y-14093476D01*
X11655762Y-14088714D01*
X14266667Y-14233988D02*
X14266667Y-14305417D01*
X14261905Y-14319702D01*
X14252381Y-14329226D01*
X14238095Y-14333988D01*
X14228571Y-14333988D01*
X14357143Y-14267321D02*
X14357143Y-14333988D01*
X14333333Y-14229226D02*
X14309524Y-14300655D01*
X14371428Y-14300655D01*
D13*
X14422619Y-13570333D02*
X14398809Y-13587000D01*
X14422619Y-13598905D02*
X14372619Y-13598905D01*
X14372619Y-13579857D01*
X14375000Y-13575095D01*
X14377381Y-13572714D01*
X14382143Y-13570333D01*
X14389286Y-13570333D01*
X14394048Y-13572714D01*
X14396428Y-13575095D01*
X14398809Y-13579857D01*
X14398809Y-13598905D01*
X14422619Y-13522714D02*
X14422619Y-13551286D01*
X14422619Y-13537000D02*
X14372619Y-13537000D01*
X14379762Y-13541762D01*
X14384524Y-13546524D01*
X14386905Y-13551286D01*
X14172619Y-13570333D02*
X14148809Y-13587000D01*
X14172619Y-13598905D02*
X14122619Y-13598905D01*
X14122619Y-13579857D01*
X14125000Y-13575095D01*
X14127381Y-13572714D01*
X14132143Y-13570333D01*
X14139286Y-13570333D01*
X14144048Y-13572714D01*
X14146428Y-13575095D01*
X14148809Y-13579857D01*
X14148809Y-13598905D01*
X14127381Y-13551286D02*
X14125000Y-13548905D01*
X14122619Y-13544143D01*
X14122619Y-13532238D01*
X14125000Y-13527476D01*
X14127381Y-13525095D01*
X14132143Y-13522714D01*
X14136905Y-13522714D01*
X14144048Y-13525095D01*
X14172619Y-13553667D01*
X14172619Y-13522714D01*
X7134619Y-10676333D02*
X7110809Y-10693000D01*
X7134619Y-10704905D02*
X7084619Y-10704905D01*
X7084619Y-10685857D01*
X7087000Y-10681095D01*
X7089381Y-10678714D01*
X7094143Y-10676333D01*
X7101286Y-10676333D01*
X7106048Y-10678714D01*
X7108428Y-10681095D01*
X7110809Y-10685857D01*
X7110809Y-10704905D01*
X7084619Y-10659667D02*
X7084619Y-10628714D01*
X7103667Y-10645381D01*
X7103667Y-10638238D01*
X7106048Y-10633476D01*
X7108428Y-10631095D01*
X7113190Y-10628714D01*
X7125095Y-10628714D01*
X7129857Y-10631095D01*
X7132238Y-10633476D01*
X7134619Y-10638238D01*
X7134619Y-10652524D01*
X7132238Y-10657286D01*
X7129857Y-10659667D01*
X7134619Y-10168333D02*
X7110809Y-10185000D01*
X7134619Y-10196905D02*
X7084619Y-10196905D01*
X7084619Y-10177857D01*
X7087000Y-10173095D01*
X7089381Y-10170714D01*
X7094143Y-10168333D01*
X7101286Y-10168333D01*
X7106048Y-10170714D01*
X7108428Y-10173095D01*
X7110809Y-10177857D01*
X7110809Y-10196905D01*
X7101286Y-10125476D02*
X7134619Y-10125476D01*
X7082238Y-10137381D02*
X7117952Y-10149286D01*
X7117952Y-10118333D01*
X7134619Y-9660333D02*
X7110809Y-9677000D01*
X7134619Y-9688905D02*
X7084619Y-9688905D01*
X7084619Y-9669857D01*
X7087000Y-9665095D01*
X7089381Y-9662714D01*
X7094143Y-9660333D01*
X7101286Y-9660333D01*
X7106048Y-9662714D01*
X7108428Y-9665095D01*
X7110809Y-9669857D01*
X7110809Y-9688905D01*
X7084619Y-9615095D02*
X7084619Y-9638905D01*
X7108428Y-9641286D01*
X7106048Y-9638905D01*
X7103667Y-9634143D01*
X7103667Y-9622238D01*
X7106048Y-9617476D01*
X7108428Y-9615095D01*
X7113190Y-9612714D01*
X7125095Y-9612714D01*
X7129857Y-9615095D01*
X7132238Y-9617476D01*
X7134619Y-9622238D01*
X7134619Y-9634143D01*
X7132238Y-9638905D01*
X7129857Y-9641286D01*
D12*
X14419238Y-12622190D02*
X14500190Y-12622190D01*
X14509714Y-12617428D01*
X14514476Y-12612667D01*
X14519238Y-12603143D01*
X14519238Y-12584095D01*
X14514476Y-12574571D01*
X14509714Y-12569809D01*
X14500190Y-12565048D01*
X14419238Y-12565048D01*
X14428762Y-12522190D02*
X14424000Y-12517428D01*
X14419238Y-12507905D01*
X14419238Y-12484095D01*
X14424000Y-12474571D01*
X14428762Y-12469809D01*
X14438286Y-12465048D01*
X14447809Y-12465048D01*
X14462095Y-12469809D01*
X14519238Y-12526952D01*
X14519238Y-12465048D01*
X5787238Y-10236190D02*
X5868190Y-10236190D01*
X5877714Y-10231429D01*
X5882476Y-10226667D01*
X5887238Y-10217143D01*
X5887238Y-10198095D01*
X5882476Y-10188571D01*
X5877714Y-10183810D01*
X5868190Y-10179048D01*
X5787238Y-10179048D01*
X5820571Y-10088571D02*
X5887238Y-10088571D01*
X5782476Y-10112381D02*
X5853905Y-10136190D01*
X5853905Y-10074286D01*
D13*
X15543571Y-12638571D02*
X15572143Y-12638571D01*
X15512143Y-12658571D02*
X15543571Y-12638571D01*
X15512143Y-12618571D01*
X15572143Y-12567143D02*
X15572143Y-12601428D01*
X15572143Y-12584286D02*
X15512143Y-12584286D01*
X15520714Y-12590000D01*
X15526428Y-12595714D01*
X15529286Y-12601428D01*
X9928619Y-10680333D02*
X9904810Y-10697000D01*
X9928619Y-10708905D02*
X9878619Y-10708905D01*
X9878619Y-10689857D01*
X9881000Y-10685095D01*
X9883381Y-10682714D01*
X9888143Y-10680333D01*
X9895286Y-10680333D01*
X9900048Y-10682714D01*
X9902429Y-10685095D01*
X9904810Y-10689857D01*
X9904810Y-10708905D01*
X9878619Y-10637476D02*
X9878619Y-10647000D01*
X9881000Y-10651762D01*
X9883381Y-10654143D01*
X9890524Y-10658905D01*
X9900048Y-10661286D01*
X9919095Y-10661286D01*
X9923857Y-10658905D01*
X9926238Y-10656524D01*
X9928619Y-10651762D01*
X9928619Y-10642238D01*
X9926238Y-10637476D01*
X9923857Y-10635095D01*
X9919095Y-10632714D01*
X9907190Y-10632714D01*
X9902429Y-10635095D01*
X9900048Y-10637476D01*
X9897667Y-10642238D01*
X9897667Y-10651762D01*
X9900048Y-10656524D01*
X9902429Y-10658905D01*
X9907190Y-10661286D01*
X9928619Y-10168333D02*
X9904810Y-10185000D01*
X9928619Y-10196905D02*
X9878619Y-10196905D01*
X9878619Y-10177857D01*
X9881000Y-10173095D01*
X9883381Y-10170714D01*
X9888143Y-10168333D01*
X9895286Y-10168333D01*
X9900048Y-10170714D01*
X9902429Y-10173095D01*
X9904810Y-10177857D01*
X9904810Y-10196905D01*
X9878619Y-10151667D02*
X9878619Y-10118333D01*
X9928619Y-10139762D01*
X9928619Y-9656333D02*
X9904810Y-9673000D01*
X9928619Y-9684905D02*
X9878619Y-9684905D01*
X9878619Y-9665857D01*
X9881000Y-9661095D01*
X9883381Y-9658714D01*
X9888143Y-9656333D01*
X9895286Y-9656333D01*
X9900048Y-9658714D01*
X9902429Y-9661095D01*
X9904810Y-9665857D01*
X9904810Y-9684905D01*
X9900048Y-9627762D02*
X9897667Y-9632524D01*
X9895286Y-9634905D01*
X9890524Y-9637286D01*
X9888143Y-9637286D01*
X9883381Y-9634905D01*
X9881000Y-9632524D01*
X9878619Y-9627762D01*
X9878619Y-9618238D01*
X9881000Y-9613476D01*
X9883381Y-9611095D01*
X9888143Y-9608714D01*
X9890524Y-9608714D01*
X9895286Y-9611095D01*
X9897667Y-9613476D01*
X9900048Y-9618238D01*
X9900048Y-9627762D01*
X9902429Y-9632524D01*
X9904810Y-9634905D01*
X9909571Y-9637286D01*
X9919095Y-9637286D01*
X9923857Y-9634905D01*
X9926238Y-9632524D01*
X9928619Y-9627762D01*
X9928619Y-9618238D01*
X9926238Y-9613476D01*
X9923857Y-9611095D01*
X9919095Y-9608714D01*
X9909571Y-9608714D01*
X9904810Y-9611095D01*
X9902429Y-9613476D01*
X9900048Y-9618238D01*
X12722619Y-10676333D02*
X12698809Y-10693000D01*
X12722619Y-10704905D02*
X12672619Y-10704905D01*
X12672619Y-10685857D01*
X12675000Y-10681095D01*
X12677381Y-10678714D01*
X12682143Y-10676333D01*
X12689286Y-10676333D01*
X12694048Y-10678714D01*
X12696428Y-10681095D01*
X12698809Y-10685857D01*
X12698809Y-10704905D01*
X12722619Y-10652524D02*
X12722619Y-10643000D01*
X12720238Y-10638238D01*
X12717857Y-10635857D01*
X12710714Y-10631095D01*
X12701190Y-10628714D01*
X12682143Y-10628714D01*
X12677381Y-10631095D01*
X12675000Y-10633476D01*
X12672619Y-10638238D01*
X12672619Y-10647762D01*
X12675000Y-10652524D01*
X12677381Y-10654905D01*
X12682143Y-10657286D01*
X12694048Y-10657286D01*
X12698809Y-10654905D01*
X12701190Y-10652524D01*
X12703571Y-10647762D01*
X12703571Y-10638238D01*
X12701190Y-10633476D01*
X12698809Y-10631095D01*
X12694048Y-10628714D01*
X12722619Y-10192143D02*
X12698809Y-10208810D01*
X12722619Y-10220714D02*
X12672619Y-10220714D01*
X12672619Y-10201667D01*
X12675000Y-10196905D01*
X12677381Y-10194524D01*
X12682143Y-10192143D01*
X12689286Y-10192143D01*
X12694048Y-10194524D01*
X12696428Y-10196905D01*
X12698809Y-10201667D01*
X12698809Y-10220714D01*
X12722619Y-10144524D02*
X12722619Y-10173095D01*
X12722619Y-10158810D02*
X12672619Y-10158810D01*
X12679762Y-10163571D01*
X12684524Y-10168333D01*
X12686905Y-10173095D01*
X12672619Y-10113571D02*
X12672619Y-10108810D01*
X12675000Y-10104048D01*
X12677381Y-10101667D01*
X12682143Y-10099286D01*
X12691667Y-10096905D01*
X12703571Y-10096905D01*
X12713095Y-10099286D01*
X12717857Y-10101667D01*
X12720238Y-10104048D01*
X12722619Y-10108810D01*
X12722619Y-10113571D01*
X12720238Y-10118333D01*
X12717857Y-10120714D01*
X12713095Y-10123095D01*
X12703571Y-10125476D01*
X12691667Y-10125476D01*
X12682143Y-10123095D01*
X12677381Y-10120714D01*
X12675000Y-10118333D01*
X12672619Y-10113571D01*
X12722619Y-9684143D02*
X12698809Y-9700810D01*
X12722619Y-9712714D02*
X12672619Y-9712714D01*
X12672619Y-9693667D01*
X12675000Y-9688905D01*
X12677381Y-9686524D01*
X12682143Y-9684143D01*
X12689286Y-9684143D01*
X12694048Y-9686524D01*
X12696428Y-9688905D01*
X12698809Y-9693667D01*
X12698809Y-9712714D01*
X12722619Y-9636524D02*
X12722619Y-9665095D01*
X12722619Y-9650810D02*
X12672619Y-9650810D01*
X12679762Y-9655571D01*
X12684524Y-9660333D01*
X12686905Y-9665095D01*
X12722619Y-9588905D02*
X12722619Y-9617476D01*
X12722619Y-9603190D02*
X12672619Y-9603190D01*
X12679762Y-9607952D01*
X12684524Y-9612714D01*
X12686905Y-9617476D01*
X15516619Y-10700143D02*
X15492809Y-10716810D01*
X15516619Y-10728714D02*
X15466619Y-10728714D01*
X15466619Y-10709667D01*
X15469000Y-10704905D01*
X15471381Y-10702524D01*
X15476143Y-10700143D01*
X15483286Y-10700143D01*
X15488048Y-10702524D01*
X15490428Y-10704905D01*
X15492809Y-10709667D01*
X15492809Y-10728714D01*
X15516619Y-10652524D02*
X15516619Y-10681095D01*
X15516619Y-10666810D02*
X15466619Y-10666810D01*
X15473762Y-10671571D01*
X15478524Y-10676333D01*
X15480905Y-10681095D01*
X15471381Y-10633476D02*
X15469000Y-10631095D01*
X15466619Y-10626333D01*
X15466619Y-10614429D01*
X15469000Y-10609667D01*
X15471381Y-10607286D01*
X15476143Y-10604905D01*
X15480905Y-10604905D01*
X15488048Y-10607286D01*
X15516619Y-10635857D01*
X15516619Y-10604905D01*
X15516619Y-10192143D02*
X15492809Y-10208810D01*
X15516619Y-10220714D02*
X15466619Y-10220714D01*
X15466619Y-10201667D01*
X15469000Y-10196905D01*
X15471381Y-10194524D01*
X15476143Y-10192143D01*
X15483286Y-10192143D01*
X15488048Y-10194524D01*
X15490428Y-10196905D01*
X15492809Y-10201667D01*
X15492809Y-10220714D01*
X15516619Y-10144524D02*
X15516619Y-10173095D01*
X15516619Y-10158810D02*
X15466619Y-10158810D01*
X15473762Y-10163571D01*
X15478524Y-10168333D01*
X15480905Y-10173095D01*
X15466619Y-10127857D02*
X15466619Y-10096905D01*
X15485667Y-10113571D01*
X15485667Y-10106429D01*
X15488048Y-10101667D01*
X15490428Y-10099286D01*
X15495190Y-10096905D01*
X15507095Y-10096905D01*
X15511857Y-10099286D01*
X15514238Y-10101667D01*
X15516619Y-10106429D01*
X15516619Y-10120714D01*
X15514238Y-10125476D01*
X15511857Y-10127857D01*
X15516619Y-9684143D02*
X15492809Y-9700810D01*
X15516619Y-9712714D02*
X15466619Y-9712714D01*
X15466619Y-9693667D01*
X15469000Y-9688905D01*
X15471381Y-9686524D01*
X15476143Y-9684143D01*
X15483286Y-9684143D01*
X15488048Y-9686524D01*
X15490428Y-9688905D01*
X15492809Y-9693667D01*
X15492809Y-9712714D01*
X15516619Y-9636524D02*
X15516619Y-9665095D01*
X15516619Y-9650810D02*
X15466619Y-9650810D01*
X15473762Y-9655571D01*
X15478524Y-9660333D01*
X15480905Y-9665095D01*
X15483286Y-9593667D02*
X15516619Y-9593667D01*
X15464238Y-9605571D02*
X15499952Y-9617476D01*
X15499952Y-9586524D01*
D12*
X8581238Y-10236190D02*
X8662190Y-10236190D01*
X8671714Y-10231429D01*
X8676476Y-10226667D01*
X8681238Y-10217143D01*
X8681238Y-10198095D01*
X8676476Y-10188571D01*
X8671714Y-10183810D01*
X8662190Y-10179048D01*
X8581238Y-10179048D01*
X8681238Y-10079048D02*
X8681238Y-10136190D01*
X8681238Y-10107619D02*
X8581238Y-10107619D01*
X8595524Y-10117143D01*
X8605048Y-10126667D01*
X8609810Y-10136190D01*
X11375238Y-10236190D02*
X11456190Y-10236190D01*
X11465714Y-10231429D01*
X11470476Y-10226667D01*
X11475238Y-10217143D01*
X11475238Y-10198095D01*
X11470476Y-10188571D01*
X11465714Y-10183810D01*
X11456190Y-10179048D01*
X11375238Y-10179048D01*
X11375238Y-10140952D02*
X11375238Y-10079048D01*
X11413333Y-10112381D01*
X11413333Y-10098095D01*
X11418095Y-10088571D01*
X11422857Y-10083810D01*
X11432381Y-10079048D01*
X11456190Y-10079048D01*
X11465714Y-10083810D01*
X11470476Y-10088571D01*
X11475238Y-10098095D01*
X11475238Y-10126667D01*
X11470476Y-10136190D01*
X11465714Y-10140952D01*
X14169238Y-10236190D02*
X14250190Y-10236190D01*
X14259714Y-10231429D01*
X14264476Y-10226667D01*
X14269238Y-10217143D01*
X14269238Y-10198095D01*
X14264476Y-10188571D01*
X14259714Y-10183810D01*
X14250190Y-10179048D01*
X14169238Y-10179048D01*
X14169238Y-10083810D02*
X14169238Y-10131429D01*
X14216857Y-10136190D01*
X14212095Y-10131429D01*
X14207333Y-10121905D01*
X14207333Y-10098095D01*
X14212095Y-10088571D01*
X14216857Y-10083810D01*
X14226381Y-10079048D01*
X14250190Y-10079048D01*
X14259714Y-10083810D01*
X14264476Y-10088571D01*
X14269238Y-10098095D01*
X14269238Y-10121905D01*
X14264476Y-10131429D01*
X14259714Y-10136190D01*
X7572333Y-13811714D02*
X7567571Y-13816476D01*
X7553286Y-13821238D01*
X7543762Y-13821238D01*
X7529476Y-13816476D01*
X7519952Y-13806952D01*
X7515190Y-13797428D01*
X7510428Y-13778381D01*
X7510428Y-13764095D01*
X7515190Y-13745048D01*
X7519952Y-13735524D01*
X7529476Y-13726000D01*
X7543762Y-13721238D01*
X7553286Y-13721238D01*
X7567571Y-13726000D01*
X7572333Y-13730762D01*
X7667571Y-13821238D02*
X7610428Y-13821238D01*
X7639000Y-13821238D02*
X7639000Y-13721238D01*
X7629476Y-13735524D01*
X7619952Y-13745048D01*
X7610428Y-13749809D01*
X10112333Y-13811714D02*
X10107571Y-13816476D01*
X10093286Y-13821238D01*
X10083762Y-13821238D01*
X10069476Y-13816476D01*
X10059952Y-13806952D01*
X10055190Y-13797428D01*
X10050429Y-13778381D01*
X10050429Y-13764095D01*
X10055190Y-13745048D01*
X10059952Y-13735524D01*
X10069476Y-13726000D01*
X10083762Y-13721238D01*
X10093286Y-13721238D01*
X10107571Y-13726000D01*
X10112333Y-13730762D01*
X10150429Y-13730762D02*
X10155190Y-13726000D01*
X10164714Y-13721238D01*
X10188524Y-13721238D01*
X10198048Y-13726000D01*
X10202810Y-13730762D01*
X10207571Y-13740286D01*
X10207571Y-13749809D01*
X10202810Y-13764095D01*
X10145667Y-13821238D01*
X10207571Y-13821238D01*
X12652333Y-13811714D02*
X12647571Y-13816476D01*
X12633286Y-13821238D01*
X12623762Y-13821238D01*
X12609476Y-13816476D01*
X12599952Y-13806952D01*
X12595190Y-13797428D01*
X12590428Y-13778381D01*
X12590428Y-13764095D01*
X12595190Y-13745048D01*
X12599952Y-13735524D01*
X12609476Y-13726000D01*
X12623762Y-13721238D01*
X12633286Y-13721238D01*
X12647571Y-13726000D01*
X12652333Y-13730762D01*
X12685667Y-13721238D02*
X12747571Y-13721238D01*
X12714238Y-13759333D01*
X12728524Y-13759333D01*
X12738048Y-13764095D01*
X12742809Y-13768857D01*
X12747571Y-13778381D01*
X12747571Y-13802190D01*
X12742809Y-13811714D01*
X12738048Y-13816476D01*
X12728524Y-13821238D01*
X12699952Y-13821238D01*
X12690428Y-13816476D01*
X12685667Y-13811714D01*
D13*
X15491667Y-12917857D02*
X15489286Y-12920238D01*
X15482143Y-12922619D01*
X15477381Y-12922619D01*
X15470238Y-12920238D01*
X15465476Y-12915476D01*
X15463095Y-12910714D01*
X15460714Y-12901190D01*
X15460714Y-12894048D01*
X15463095Y-12884524D01*
X15465476Y-12879762D01*
X15470238Y-12875000D01*
X15477381Y-12872619D01*
X15482143Y-12872619D01*
X15489286Y-12875000D01*
X15491667Y-12877381D01*
X15536905Y-12872619D02*
X15513095Y-12872619D01*
X15510714Y-12896428D01*
X15513095Y-12894048D01*
X15517857Y-12891667D01*
X15529762Y-12891667D01*
X15534524Y-12894048D01*
X15536905Y-12896428D01*
X15539286Y-12901190D01*
X15539286Y-12913095D01*
X15536905Y-12917857D01*
X15534524Y-12920238D01*
X15529762Y-12922619D01*
X15517857Y-12922619D01*
X15513095Y-12920238D01*
X15510714Y-12917857D01*
D12*
X4866667Y-6595238D02*
X4866667Y-6666667D01*
X4861905Y-6680952D01*
X4852381Y-6690476D01*
X4838095Y-6695238D01*
X4828571Y-6695238D01*
X4961905Y-6595238D02*
X4914286Y-6595238D01*
X4909524Y-6642857D01*
X4914286Y-6638095D01*
X4923810Y-6633333D01*
X4947619Y-6633333D01*
X4957143Y-6638095D01*
X4961905Y-6642857D01*
X4966667Y-6652381D01*
X4966667Y-6676190D01*
X4961905Y-6685714D01*
X4957143Y-6690476D01*
X4947619Y-6695238D01*
X4923810Y-6695238D01*
X4914286Y-6690476D01*
X4909524Y-6685714D01*
X4866667Y-7295238D02*
X4866667Y-7366667D01*
X4861905Y-7380952D01*
X4852381Y-7390476D01*
X4838095Y-7395238D01*
X4828571Y-7395238D01*
X4957143Y-7295238D02*
X4938095Y-7295238D01*
X4928571Y-7300000D01*
X4923810Y-7304762D01*
X4914286Y-7319048D01*
X4909524Y-7338095D01*
X4909524Y-7376190D01*
X4914286Y-7385714D01*
X4919048Y-7390476D01*
X4928571Y-7395238D01*
X4947619Y-7395238D01*
X4957143Y-7390476D01*
X4961905Y-7385714D01*
X4966667Y-7376190D01*
X4966667Y-7352381D01*
X4961905Y-7342857D01*
X4957143Y-7338095D01*
X4947619Y-7333333D01*
X4928571Y-7333333D01*
X4919048Y-7338095D01*
X4914286Y-7342857D01*
X4909524Y-7352381D01*
X4866667Y-8695238D02*
X4866667Y-8766667D01*
X4861905Y-8780952D01*
X4852381Y-8790476D01*
X4838095Y-8795238D01*
X4828571Y-8795238D01*
X4928571Y-8738095D02*
X4919048Y-8733333D01*
X4914286Y-8728571D01*
X4909524Y-8719048D01*
X4909524Y-8714286D01*
X4914286Y-8704762D01*
X4919048Y-8700000D01*
X4928571Y-8695238D01*
X4947619Y-8695238D01*
X4957143Y-8700000D01*
X4961905Y-8704762D01*
X4966667Y-8714286D01*
X4966667Y-8719048D01*
X4961905Y-8728571D01*
X4957143Y-8733333D01*
X4947619Y-8738095D01*
X4928571Y-8738095D01*
X4919048Y-8742857D01*
X4914286Y-8747619D01*
X4909524Y-8757143D01*
X4909524Y-8776190D01*
X4914286Y-8785714D01*
X4919048Y-8790476D01*
X4928571Y-8795238D01*
X4947619Y-8795238D01*
X4957143Y-8790476D01*
X4961905Y-8785714D01*
X4966667Y-8776190D01*
X4966667Y-8757143D01*
X4961905Y-8747619D01*
X4957143Y-8742857D01*
X4947619Y-8738095D01*
X6366667Y-6595238D02*
X6366667Y-6666667D01*
X6361905Y-6680952D01*
X6352381Y-6690476D01*
X6338095Y-6695238D01*
X6328571Y-6695238D01*
X6419048Y-6695238D02*
X6438095Y-6695238D01*
X6447619Y-6690476D01*
X6452381Y-6685714D01*
X6461905Y-6671428D01*
X6466667Y-6652381D01*
X6466667Y-6614286D01*
X6461905Y-6604762D01*
X6457143Y-6600000D01*
X6447619Y-6595238D01*
X6428571Y-6595238D01*
X6419048Y-6600000D01*
X6414286Y-6604762D01*
X6409524Y-6614286D01*
X6409524Y-6638095D01*
X6414286Y-6647619D01*
X6419048Y-6652381D01*
X6428571Y-6657143D01*
X6447619Y-6657143D01*
X6457143Y-6652381D01*
X6461905Y-6647619D01*
X6466667Y-6638095D01*
X6319048Y-7295238D02*
X6319048Y-7366667D01*
X6314286Y-7380952D01*
X6304762Y-7390476D01*
X6290476Y-7395238D01*
X6280952Y-7395238D01*
X6419048Y-7395238D02*
X6361905Y-7395238D01*
X6390476Y-7395238D02*
X6390476Y-7295238D01*
X6380952Y-7309524D01*
X6371428Y-7319048D01*
X6361905Y-7323809D01*
X6480952Y-7295238D02*
X6490476Y-7295238D01*
X6500000Y-7300000D01*
X6504762Y-7304762D01*
X6509524Y-7314286D01*
X6514286Y-7333333D01*
X6514286Y-7357143D01*
X6509524Y-7376190D01*
X6504762Y-7385714D01*
X6500000Y-7390476D01*
X6490476Y-7395238D01*
X6480952Y-7395238D01*
X6471428Y-7390476D01*
X6466667Y-7385714D01*
X6461905Y-7376190D01*
X6457143Y-7357143D01*
X6457143Y-7333333D01*
X6461905Y-7314286D01*
X6466667Y-7304762D01*
X6471428Y-7300000D01*
X6480952Y-7295238D01*
X6319048Y-7995238D02*
X6319048Y-8066667D01*
X6314286Y-8080952D01*
X6304762Y-8090476D01*
X6290476Y-8095238D01*
X6280952Y-8095238D01*
X6419048Y-8095238D02*
X6361905Y-8095238D01*
X6390476Y-8095238D02*
X6390476Y-7995238D01*
X6380952Y-8009524D01*
X6371428Y-8019048D01*
X6361905Y-8023809D01*
X6514286Y-8095238D02*
X6457143Y-8095238D01*
X6485714Y-8095238D02*
X6485714Y-7995238D01*
X6476190Y-8009524D01*
X6466667Y-8019048D01*
X6457143Y-8023809D01*
X6319048Y-8695238D02*
X6319048Y-8766667D01*
X6314286Y-8780952D01*
X6304762Y-8790476D01*
X6290476Y-8795238D01*
X6280952Y-8795238D01*
X6419048Y-8795238D02*
X6361905Y-8795238D01*
X6390476Y-8795238D02*
X6390476Y-8695238D01*
X6380952Y-8709524D01*
X6371428Y-8719048D01*
X6361905Y-8723810D01*
X6457143Y-8704762D02*
X6461905Y-8700000D01*
X6471428Y-8695238D01*
X6495238Y-8695238D01*
X6504762Y-8700000D01*
X6509524Y-8704762D01*
X6514286Y-8714286D01*
X6514286Y-8723810D01*
X6509524Y-8738095D01*
X6452381Y-8795238D01*
X6514286Y-8795238D01*
X7819048Y-6595238D02*
X7819048Y-6666667D01*
X7814286Y-6680952D01*
X7804762Y-6690476D01*
X7790476Y-6695238D01*
X7780952Y-6695238D01*
X7919048Y-6695238D02*
X7861905Y-6695238D01*
X7890476Y-6695238D02*
X7890476Y-6595238D01*
X7880952Y-6609524D01*
X7871428Y-6619048D01*
X7861905Y-6623809D01*
X7952381Y-6595238D02*
X8014286Y-6595238D01*
X7980952Y-6633333D01*
X7995238Y-6633333D01*
X8004762Y-6638095D01*
X8009524Y-6642857D01*
X8014286Y-6652381D01*
X8014286Y-6676190D01*
X8009524Y-6685714D01*
X8004762Y-6690476D01*
X7995238Y-6695238D01*
X7966667Y-6695238D01*
X7957143Y-6690476D01*
X7952381Y-6685714D01*
X7819048Y-7295238D02*
X7819048Y-7366667D01*
X7814286Y-7380952D01*
X7804762Y-7390476D01*
X7790476Y-7395238D01*
X7780952Y-7395238D01*
X7919048Y-7395238D02*
X7861905Y-7395238D01*
X7890476Y-7395238D02*
X7890476Y-7295238D01*
X7880952Y-7309524D01*
X7871428Y-7319048D01*
X7861905Y-7323809D01*
X8004762Y-7328571D02*
X8004762Y-7395238D01*
X7980952Y-7290476D02*
X7957143Y-7361905D01*
X8019048Y-7361905D01*
X7819048Y-7995238D02*
X7819048Y-8066667D01*
X7814286Y-8080952D01*
X7804762Y-8090476D01*
X7790476Y-8095238D01*
X7780952Y-8095238D01*
X7919048Y-8095238D02*
X7861905Y-8095238D01*
X7890476Y-8095238D02*
X7890476Y-7995238D01*
X7880952Y-8009524D01*
X7871428Y-8019048D01*
X7861905Y-8023809D01*
X8009524Y-7995238D02*
X7961905Y-7995238D01*
X7957143Y-8042857D01*
X7961905Y-8038095D01*
X7971428Y-8033333D01*
X7995238Y-8033333D01*
X8004762Y-8038095D01*
X8009524Y-8042857D01*
X8014286Y-8052381D01*
X8014286Y-8076190D01*
X8009524Y-8085714D01*
X8004762Y-8090476D01*
X7995238Y-8095238D01*
X7971428Y-8095238D01*
X7961905Y-8090476D01*
X7957143Y-8085714D01*
X7819048Y-8695238D02*
X7819048Y-8766667D01*
X7814286Y-8780952D01*
X7804762Y-8790476D01*
X7790476Y-8795238D01*
X7780952Y-8795238D01*
X7919048Y-8795238D02*
X7861905Y-8795238D01*
X7890476Y-8795238D02*
X7890476Y-8695238D01*
X7880952Y-8709524D01*
X7871428Y-8719048D01*
X7861905Y-8723810D01*
X8004762Y-8695238D02*
X7985714Y-8695238D01*
X7976190Y-8700000D01*
X7971428Y-8704762D01*
X7961905Y-8719048D01*
X7957143Y-8738095D01*
X7957143Y-8776190D01*
X7961905Y-8785714D01*
X7966667Y-8790476D01*
X7976190Y-8795238D01*
X7995238Y-8795238D01*
X8004762Y-8790476D01*
X8009524Y-8785714D01*
X8014286Y-8776190D01*
X8014286Y-8752381D01*
X8009524Y-8742857D01*
X8004762Y-8738095D01*
X7995238Y-8733333D01*
X7976190Y-8733333D01*
X7966667Y-8738095D01*
X7961905Y-8742857D01*
X7957143Y-8752381D01*
X9319048Y-6595238D02*
X9319048Y-6666667D01*
X9314286Y-6680952D01*
X9304762Y-6690476D01*
X9290476Y-6695238D01*
X9280952Y-6695238D01*
X9419048Y-6695238D02*
X9361905Y-6695238D01*
X9390476Y-6695238D02*
X9390476Y-6595238D01*
X9380952Y-6609524D01*
X9371429Y-6619048D01*
X9361905Y-6623809D01*
X9452381Y-6595238D02*
X9519048Y-6595238D01*
X9476190Y-6695238D01*
X9319048Y-7295238D02*
X9319048Y-7366667D01*
X9314286Y-7380952D01*
X9304762Y-7390476D01*
X9290476Y-7395238D01*
X9280952Y-7395238D01*
X9419048Y-7395238D02*
X9361905Y-7395238D01*
X9390476Y-7395238D02*
X9390476Y-7295238D01*
X9380952Y-7309524D01*
X9371429Y-7319048D01*
X9361905Y-7323809D01*
X9476190Y-7338095D02*
X9466667Y-7333333D01*
X9461905Y-7328571D01*
X9457143Y-7319048D01*
X9457143Y-7314286D01*
X9461905Y-7304762D01*
X9466667Y-7300000D01*
X9476190Y-7295238D01*
X9495238Y-7295238D01*
X9504762Y-7300000D01*
X9509524Y-7304762D01*
X9514286Y-7314286D01*
X9514286Y-7319048D01*
X9509524Y-7328571D01*
X9504762Y-7333333D01*
X9495238Y-7338095D01*
X9476190Y-7338095D01*
X9466667Y-7342857D01*
X9461905Y-7347619D01*
X9457143Y-7357143D01*
X9457143Y-7376190D01*
X9461905Y-7385714D01*
X9466667Y-7390476D01*
X9476190Y-7395238D01*
X9495238Y-7395238D01*
X9504762Y-7390476D01*
X9509524Y-7385714D01*
X9514286Y-7376190D01*
X9514286Y-7357143D01*
X9509524Y-7347619D01*
X9504762Y-7342857D01*
X9495238Y-7338095D01*
X9319048Y-7995238D02*
X9319048Y-8066667D01*
X9314286Y-8080952D01*
X9304762Y-8090476D01*
X9290476Y-8095238D01*
X9280952Y-8095238D01*
X9419048Y-8095238D02*
X9361905Y-8095238D01*
X9390476Y-8095238D02*
X9390476Y-7995238D01*
X9380952Y-8009524D01*
X9371429Y-8019048D01*
X9361905Y-8023809D01*
X9466667Y-8095238D02*
X9485714Y-8095238D01*
X9495238Y-8090476D01*
X9500000Y-8085714D01*
X9509524Y-8071428D01*
X9514286Y-8052381D01*
X9514286Y-8014286D01*
X9509524Y-8004762D01*
X9504762Y-8000000D01*
X9495238Y-7995238D01*
X9476190Y-7995238D01*
X9466667Y-8000000D01*
X9461905Y-8004762D01*
X9457143Y-8014286D01*
X9457143Y-8038095D01*
X9461905Y-8047619D01*
X9466667Y-8052381D01*
X9476190Y-8057143D01*
X9495238Y-8057143D01*
X9504762Y-8052381D01*
X9509524Y-8047619D01*
X9514286Y-8038095D01*
X9319048Y-8695238D02*
X9319048Y-8766667D01*
X9314286Y-8780952D01*
X9304762Y-8790476D01*
X9290476Y-8795238D01*
X9280952Y-8795238D01*
X9361905Y-8704762D02*
X9366667Y-8700000D01*
X9376190Y-8695238D01*
X9400000Y-8695238D01*
X9409524Y-8700000D01*
X9414286Y-8704762D01*
X9419048Y-8714286D01*
X9419048Y-8723810D01*
X9414286Y-8738095D01*
X9357143Y-8795238D01*
X9419048Y-8795238D01*
X9480952Y-8695238D02*
X9490476Y-8695238D01*
X9500000Y-8700000D01*
X9504762Y-8704762D01*
X9509524Y-8714286D01*
X9514286Y-8733333D01*
X9514286Y-8757143D01*
X9509524Y-8776190D01*
X9504762Y-8785714D01*
X9500000Y-8790476D01*
X9490476Y-8795238D01*
X9480952Y-8795238D01*
X9471429Y-8790476D01*
X9466667Y-8785714D01*
X9461905Y-8776190D01*
X9457143Y-8757143D01*
X9457143Y-8733333D01*
X9461905Y-8714286D01*
X9466667Y-8704762D01*
X9471429Y-8700000D01*
X9480952Y-8695238D01*
X10869048Y-6595238D02*
X10869048Y-6666667D01*
X10864286Y-6680952D01*
X10854762Y-6690476D01*
X10840476Y-6695238D01*
X10830952Y-6695238D01*
X10911905Y-6604762D02*
X10916667Y-6600000D01*
X10926190Y-6595238D01*
X10950000Y-6595238D01*
X10959524Y-6600000D01*
X10964286Y-6604762D01*
X10969048Y-6614286D01*
X10969048Y-6623809D01*
X10964286Y-6638095D01*
X10907143Y-6695238D01*
X10969048Y-6695238D01*
X11064286Y-6695238D02*
X11007143Y-6695238D01*
X11035714Y-6695238D02*
X11035714Y-6595238D01*
X11026190Y-6609524D01*
X11016667Y-6619048D01*
X11007143Y-6623809D01*
X10869048Y-7295238D02*
X10869048Y-7366667D01*
X10864286Y-7380952D01*
X10854762Y-7390476D01*
X10840476Y-7395238D01*
X10830952Y-7395238D01*
X10911905Y-7304762D02*
X10916667Y-7300000D01*
X10926190Y-7295238D01*
X10950000Y-7295238D01*
X10959524Y-7300000D01*
X10964286Y-7304762D01*
X10969048Y-7314286D01*
X10969048Y-7323809D01*
X10964286Y-7338095D01*
X10907143Y-7395238D01*
X10969048Y-7395238D01*
X11007143Y-7304762D02*
X11011905Y-7300000D01*
X11021429Y-7295238D01*
X11045238Y-7295238D01*
X11054762Y-7300000D01*
X11059524Y-7304762D01*
X11064286Y-7314286D01*
X11064286Y-7323809D01*
X11059524Y-7338095D01*
X11002381Y-7395238D01*
X11064286Y-7395238D01*
X10869048Y-7995238D02*
X10869048Y-8066667D01*
X10864286Y-8080952D01*
X10854762Y-8090476D01*
X10840476Y-8095238D01*
X10830952Y-8095238D01*
X10911905Y-8004762D02*
X10916667Y-8000000D01*
X10926190Y-7995238D01*
X10950000Y-7995238D01*
X10959524Y-8000000D01*
X10964286Y-8004762D01*
X10969048Y-8014286D01*
X10969048Y-8023809D01*
X10964286Y-8038095D01*
X10907143Y-8095238D01*
X10969048Y-8095238D01*
X11002381Y-7995238D02*
X11064286Y-7995238D01*
X11030952Y-8033333D01*
X11045238Y-8033333D01*
X11054762Y-8038095D01*
X11059524Y-8042857D01*
X11064286Y-8052381D01*
X11064286Y-8076190D01*
X11059524Y-8085714D01*
X11054762Y-8090476D01*
X11045238Y-8095238D01*
X11016667Y-8095238D01*
X11007143Y-8090476D01*
X11002381Y-8085714D01*
X10869048Y-8695238D02*
X10869048Y-8766667D01*
X10864286Y-8780952D01*
X10854762Y-8790476D01*
X10840476Y-8795238D01*
X10830952Y-8795238D01*
X10911905Y-8704762D02*
X10916667Y-8700000D01*
X10926190Y-8695238D01*
X10950000Y-8695238D01*
X10959524Y-8700000D01*
X10964286Y-8704762D01*
X10969048Y-8714286D01*
X10969048Y-8723810D01*
X10964286Y-8738095D01*
X10907143Y-8795238D01*
X10969048Y-8795238D01*
X11054762Y-8728571D02*
X11054762Y-8795238D01*
X11030952Y-8690476D02*
X11007143Y-8761905D01*
X11069048Y-8761905D01*
X13969048Y-6595238D02*
X13969048Y-6666667D01*
X13964286Y-6680952D01*
X13954762Y-6690476D01*
X13940476Y-6695238D01*
X13930952Y-6695238D01*
X14011905Y-6604762D02*
X14016667Y-6600000D01*
X14026190Y-6595238D01*
X14050000Y-6595238D01*
X14059524Y-6600000D01*
X14064286Y-6604762D01*
X14069048Y-6614286D01*
X14069048Y-6623809D01*
X14064286Y-6638095D01*
X14007143Y-6695238D01*
X14069048Y-6695238D01*
X14159524Y-6595238D02*
X14111905Y-6595238D01*
X14107143Y-6642857D01*
X14111905Y-6638095D01*
X14121428Y-6633333D01*
X14145238Y-6633333D01*
X14154762Y-6638095D01*
X14159524Y-6642857D01*
X14164286Y-6652381D01*
X14164286Y-6676190D01*
X14159524Y-6685714D01*
X14154762Y-6690476D01*
X14145238Y-6695238D01*
X14121428Y-6695238D01*
X14111905Y-6690476D01*
X14107143Y-6685714D01*
X13969048Y-7295238D02*
X13969048Y-7366667D01*
X13964286Y-7380952D01*
X13954762Y-7390476D01*
X13940476Y-7395238D01*
X13930952Y-7395238D01*
X14011905Y-7304762D02*
X14016667Y-7300000D01*
X14026190Y-7295238D01*
X14050000Y-7295238D01*
X14059524Y-7300000D01*
X14064286Y-7304762D01*
X14069048Y-7314286D01*
X14069048Y-7323809D01*
X14064286Y-7338095D01*
X14007143Y-7395238D01*
X14069048Y-7395238D01*
X14154762Y-7295238D02*
X14135714Y-7295238D01*
X14126190Y-7300000D01*
X14121428Y-7304762D01*
X14111905Y-7319048D01*
X14107143Y-7338095D01*
X14107143Y-7376190D01*
X14111905Y-7385714D01*
X14116667Y-7390476D01*
X14126190Y-7395238D01*
X14145238Y-7395238D01*
X14154762Y-7390476D01*
X14159524Y-7385714D01*
X14164286Y-7376190D01*
X14164286Y-7352381D01*
X14159524Y-7342857D01*
X14154762Y-7338095D01*
X14145238Y-7333333D01*
X14126190Y-7333333D01*
X14116667Y-7338095D01*
X14111905Y-7342857D01*
X14107143Y-7352381D01*
X13969048Y-7995238D02*
X13969048Y-8066667D01*
X13964286Y-8080952D01*
X13954762Y-8090476D01*
X13940476Y-8095238D01*
X13930952Y-8095238D01*
X14011905Y-8004762D02*
X14016667Y-8000000D01*
X14026190Y-7995238D01*
X14050000Y-7995238D01*
X14059524Y-8000000D01*
X14064286Y-8004762D01*
X14069048Y-8014286D01*
X14069048Y-8023809D01*
X14064286Y-8038095D01*
X14007143Y-8095238D01*
X14069048Y-8095238D01*
X14102381Y-7995238D02*
X14169048Y-7995238D01*
X14126190Y-8095238D01*
X13969048Y-8695238D02*
X13969048Y-8766667D01*
X13964286Y-8780952D01*
X13954762Y-8790476D01*
X13940476Y-8795238D01*
X13930952Y-8795238D01*
X14011905Y-8704762D02*
X14016667Y-8700000D01*
X14026190Y-8695238D01*
X14050000Y-8695238D01*
X14059524Y-8700000D01*
X14064286Y-8704762D01*
X14069048Y-8714286D01*
X14069048Y-8723810D01*
X14064286Y-8738095D01*
X14007143Y-8795238D01*
X14069048Y-8795238D01*
X14126190Y-8738095D02*
X14116667Y-8733333D01*
X14111905Y-8728571D01*
X14107143Y-8719048D01*
X14107143Y-8714286D01*
X14111905Y-8704762D01*
X14116667Y-8700000D01*
X14126190Y-8695238D01*
X14145238Y-8695238D01*
X14154762Y-8700000D01*
X14159524Y-8704762D01*
X14164286Y-8714286D01*
X14164286Y-8719048D01*
X14159524Y-8728571D01*
X14154762Y-8733333D01*
X14145238Y-8738095D01*
X14126190Y-8738095D01*
X14116667Y-8742857D01*
X14111905Y-8747619D01*
X14107143Y-8757143D01*
X14107143Y-8776190D01*
X14111905Y-8785714D01*
X14116667Y-8790476D01*
X14126190Y-8795238D01*
X14145238Y-8795238D01*
X14154762Y-8790476D01*
X14159524Y-8785714D01*
X14164286Y-8776190D01*
X14164286Y-8757143D01*
X14159524Y-8747619D01*
X14154762Y-8742857D01*
X14145238Y-8738095D01*
X12427048Y-6595238D02*
X12427048Y-6666667D01*
X12422286Y-6680952D01*
X12412762Y-6690476D01*
X12398476Y-6695238D01*
X12388952Y-6695238D01*
X12469905Y-6604762D02*
X12474667Y-6600000D01*
X12484190Y-6595238D01*
X12508000Y-6595238D01*
X12517524Y-6600000D01*
X12522286Y-6604762D01*
X12527048Y-6614286D01*
X12527048Y-6623809D01*
X12522286Y-6638095D01*
X12465143Y-6695238D01*
X12527048Y-6695238D01*
X12574667Y-6695238D02*
X12593714Y-6695238D01*
X12603238Y-6690476D01*
X12608000Y-6685714D01*
X12617524Y-6671428D01*
X12622286Y-6652381D01*
X12622286Y-6614286D01*
X12617524Y-6604762D01*
X12612762Y-6600000D01*
X12603238Y-6595238D01*
X12584190Y-6595238D01*
X12574667Y-6600000D01*
X12569905Y-6604762D01*
X12565143Y-6614286D01*
X12565143Y-6638095D01*
X12569905Y-6647619D01*
X12574667Y-6652381D01*
X12584190Y-6657143D01*
X12603238Y-6657143D01*
X12612762Y-6652381D01*
X12617524Y-6647619D01*
X12622286Y-6638095D01*
X12427048Y-7295238D02*
X12427048Y-7366667D01*
X12422286Y-7380952D01*
X12412762Y-7390476D01*
X12398476Y-7395238D01*
X12388952Y-7395238D01*
X12465143Y-7295238D02*
X12527048Y-7295238D01*
X12493714Y-7333333D01*
X12508000Y-7333333D01*
X12517524Y-7338095D01*
X12522286Y-7342857D01*
X12527048Y-7352381D01*
X12527048Y-7376190D01*
X12522286Y-7385714D01*
X12517524Y-7390476D01*
X12508000Y-7395238D01*
X12479428Y-7395238D01*
X12469905Y-7390476D01*
X12465143Y-7385714D01*
X12588952Y-7295238D02*
X12598476Y-7295238D01*
X12608000Y-7300000D01*
X12612762Y-7304762D01*
X12617524Y-7314286D01*
X12622286Y-7333333D01*
X12622286Y-7357143D01*
X12617524Y-7376190D01*
X12612762Y-7385714D01*
X12608000Y-7390476D01*
X12598476Y-7395238D01*
X12588952Y-7395238D01*
X12579428Y-7390476D01*
X12574667Y-7385714D01*
X12569905Y-7376190D01*
X12565143Y-7357143D01*
X12565143Y-7333333D01*
X12569905Y-7314286D01*
X12574667Y-7304762D01*
X12579428Y-7300000D01*
X12588952Y-7295238D01*
X12427048Y-7995238D02*
X12427048Y-8066667D01*
X12422286Y-8080952D01*
X12412762Y-8090476D01*
X12398476Y-8095238D01*
X12388952Y-8095238D01*
X12465143Y-7995238D02*
X12527048Y-7995238D01*
X12493714Y-8033333D01*
X12508000Y-8033333D01*
X12517524Y-8038095D01*
X12522286Y-8042857D01*
X12527048Y-8052381D01*
X12527048Y-8076190D01*
X12522286Y-8085714D01*
X12517524Y-8090476D01*
X12508000Y-8095238D01*
X12479428Y-8095238D01*
X12469905Y-8090476D01*
X12465143Y-8085714D01*
X12622286Y-8095238D02*
X12565143Y-8095238D01*
X12593714Y-8095238D02*
X12593714Y-7995238D01*
X12584190Y-8009524D01*
X12574667Y-8019048D01*
X12565143Y-8023809D01*
X12429048Y-8695238D02*
X12429048Y-8766667D01*
X12424286Y-8780952D01*
X12414762Y-8790476D01*
X12400476Y-8795238D01*
X12390952Y-8795238D01*
X12467143Y-8695238D02*
X12529048Y-8695238D01*
X12495714Y-8733333D01*
X12510000Y-8733333D01*
X12519524Y-8738095D01*
X12524286Y-8742857D01*
X12529048Y-8752381D01*
X12529048Y-8776190D01*
X12524286Y-8785714D01*
X12519524Y-8790476D01*
X12510000Y-8795238D01*
X12481428Y-8795238D01*
X12471905Y-8790476D01*
X12467143Y-8785714D01*
X12567143Y-8704762D02*
X12571905Y-8700000D01*
X12581428Y-8695238D01*
X12605238Y-8695238D01*
X12614762Y-8700000D01*
X12619524Y-8704762D01*
X12624286Y-8714286D01*
X12624286Y-8723810D01*
X12619524Y-8738095D01*
X12562381Y-8795238D01*
X12624286Y-8795238D01*
X15469048Y-6595238D02*
X15469048Y-6666667D01*
X15464286Y-6680952D01*
X15454762Y-6690476D01*
X15440476Y-6695238D01*
X15430952Y-6695238D01*
X15507143Y-6595238D02*
X15569048Y-6595238D01*
X15535714Y-6633333D01*
X15550000Y-6633333D01*
X15559524Y-6638095D01*
X15564286Y-6642857D01*
X15569048Y-6652381D01*
X15569048Y-6676190D01*
X15564286Y-6685714D01*
X15559524Y-6690476D01*
X15550000Y-6695238D01*
X15521428Y-6695238D01*
X15511905Y-6690476D01*
X15507143Y-6685714D01*
X15602381Y-6595238D02*
X15664286Y-6595238D01*
X15630952Y-6633333D01*
X15645238Y-6633333D01*
X15654762Y-6638095D01*
X15659524Y-6642857D01*
X15664286Y-6652381D01*
X15664286Y-6676190D01*
X15659524Y-6685714D01*
X15654762Y-6690476D01*
X15645238Y-6695238D01*
X15616667Y-6695238D01*
X15607143Y-6690476D01*
X15602381Y-6685714D01*
X15469048Y-7295238D02*
X15469048Y-7366667D01*
X15464286Y-7380952D01*
X15454762Y-7390476D01*
X15440476Y-7395238D01*
X15430952Y-7395238D01*
X15507143Y-7295238D02*
X15569048Y-7295238D01*
X15535714Y-7333333D01*
X15550000Y-7333333D01*
X15559524Y-7338095D01*
X15564286Y-7342857D01*
X15569048Y-7352381D01*
X15569048Y-7376190D01*
X15564286Y-7385714D01*
X15559524Y-7390476D01*
X15550000Y-7395238D01*
X15521428Y-7395238D01*
X15511905Y-7390476D01*
X15507143Y-7385714D01*
X15654762Y-7328571D02*
X15654762Y-7395238D01*
X15630952Y-7290476D02*
X15607143Y-7361905D01*
X15669048Y-7361905D01*
X15469048Y-7983238D02*
X15469048Y-8054667D01*
X15464286Y-8068952D01*
X15454762Y-8078476D01*
X15440476Y-8083238D01*
X15430952Y-8083238D01*
X15507143Y-7983238D02*
X15569048Y-7983238D01*
X15535714Y-8021333D01*
X15550000Y-8021333D01*
X15559524Y-8026095D01*
X15564286Y-8030857D01*
X15569048Y-8040381D01*
X15569048Y-8064190D01*
X15564286Y-8073714D01*
X15559524Y-8078476D01*
X15550000Y-8083238D01*
X15521428Y-8083238D01*
X15511905Y-8078476D01*
X15507143Y-8073714D01*
X15659524Y-7983238D02*
X15611905Y-7983238D01*
X15607143Y-8030857D01*
X15611905Y-8026095D01*
X15621428Y-8021333D01*
X15645238Y-8021333D01*
X15654762Y-8026095D01*
X15659524Y-8030857D01*
X15664286Y-8040381D01*
X15664286Y-8064190D01*
X15659524Y-8073714D01*
X15654762Y-8078476D01*
X15645238Y-8083238D01*
X15621428Y-8083238D01*
X15611905Y-8078476D01*
X15607143Y-8073714D01*
X15469048Y-8695238D02*
X15469048Y-8766667D01*
X15464286Y-8780952D01*
X15454762Y-8790476D01*
X15440476Y-8795238D01*
X15430952Y-8795238D01*
X15507143Y-8695238D02*
X15569048Y-8695238D01*
X15535714Y-8733333D01*
X15550000Y-8733333D01*
X15559524Y-8738095D01*
X15564286Y-8742857D01*
X15569048Y-8752381D01*
X15569048Y-8776190D01*
X15564286Y-8785714D01*
X15559524Y-8790476D01*
X15550000Y-8795238D01*
X15521428Y-8795238D01*
X15511905Y-8790476D01*
X15507143Y-8785714D01*
X15654762Y-8695238D02*
X15635714Y-8695238D01*
X15626190Y-8700000D01*
X15621428Y-8704762D01*
X15611905Y-8719048D01*
X15607143Y-8738095D01*
X15607143Y-8776190D01*
X15611905Y-8785714D01*
X15616667Y-8790476D01*
X15626190Y-8795238D01*
X15645238Y-8795238D01*
X15654762Y-8790476D01*
X15659524Y-8785714D01*
X15664286Y-8776190D01*
X15664286Y-8752381D01*
X15659524Y-8742857D01*
X15654762Y-8738095D01*
X15645238Y-8733333D01*
X15626190Y-8733333D01*
X15616667Y-8738095D01*
X15611905Y-8742857D01*
X15607143Y-8752381D01*
X4485238Y-12438952D02*
X4556667Y-12438952D01*
X4570952Y-12443714D01*
X4580476Y-12453238D01*
X4585238Y-12467524D01*
X4585238Y-12477048D01*
X4485238Y-12400857D02*
X4485238Y-12338952D01*
X4523333Y-12372286D01*
X4523333Y-12358000D01*
X4528095Y-12348476D01*
X4532857Y-12343714D01*
X4542381Y-12338952D01*
X4566190Y-12338952D01*
X4575714Y-12343714D01*
X4580476Y-12348476D01*
X4585238Y-12358000D01*
X4585238Y-12386571D01*
X4580476Y-12396095D01*
X4575714Y-12400857D01*
X4485238Y-12305619D02*
X4485238Y-12238952D01*
X4585238Y-12281809D01*
X15242238Y-13894952D02*
X15313667Y-13894952D01*
X15327952Y-13899714D01*
X15337476Y-13909238D01*
X15342238Y-13923524D01*
X15342238Y-13933048D01*
X15242238Y-13856857D02*
X15242238Y-13794952D01*
X15280333Y-13828286D01*
X15280333Y-13814000D01*
X15285095Y-13804476D01*
X15289857Y-13799714D01*
X15299381Y-13794952D01*
X15323190Y-13794952D01*
X15332714Y-13799714D01*
X15337476Y-13804476D01*
X15342238Y-13814000D01*
X15342238Y-13842571D01*
X15337476Y-13852095D01*
X15332714Y-13856857D01*
X15285095Y-13737809D02*
X15280333Y-13747333D01*
X15275571Y-13752095D01*
X15266048Y-13756857D01*
X15261286Y-13756857D01*
X15251762Y-13752095D01*
X15247000Y-13747333D01*
X15242238Y-13737809D01*
X15242238Y-13718762D01*
X15247000Y-13709238D01*
X15251762Y-13704476D01*
X15261286Y-13699714D01*
X15266048Y-13699714D01*
X15275571Y-13704476D01*
X15280333Y-13709238D01*
X15285095Y-13718762D01*
X15285095Y-13737809D01*
X15289857Y-13747333D01*
X15294619Y-13752095D01*
X15304143Y-13756857D01*
X15323190Y-13756857D01*
X15332714Y-13752095D01*
X15337476Y-13747333D01*
X15342238Y-13737809D01*
X15342238Y-13718762D01*
X15337476Y-13709238D01*
X15332714Y-13704476D01*
X15323190Y-13699714D01*
X15304143Y-13699714D01*
X15294619Y-13704476D01*
X15289857Y-13709238D01*
X15285095Y-13718762D01*
X16170238Y-12065952D02*
X16241667Y-12065952D01*
X16255952Y-12070714D01*
X16265476Y-12080238D01*
X16270238Y-12094524D01*
X16270238Y-12104048D01*
X16170238Y-12027857D02*
X16170238Y-11965952D01*
X16208333Y-11999286D01*
X16208333Y-11985000D01*
X16213095Y-11975476D01*
X16217857Y-11970714D01*
X16227381Y-11965952D01*
X16251190Y-11965952D01*
X16260714Y-11970714D01*
X16265476Y-11975476D01*
X16270238Y-11985000D01*
X16270238Y-12013571D01*
X16265476Y-12023095D01*
X16260714Y-12027857D01*
X16270238Y-11918333D02*
X16270238Y-11899286D01*
X16265476Y-11889762D01*
X16260714Y-11885000D01*
X16246428Y-11875476D01*
X16227381Y-11870714D01*
X16189286Y-11870714D01*
X16179762Y-11875476D01*
X16175000Y-11880238D01*
X16170238Y-11889762D01*
X16170238Y-11908809D01*
X16175000Y-11918333D01*
X16179762Y-11923095D01*
X16189286Y-11927857D01*
X16213095Y-11927857D01*
X16222619Y-11923095D01*
X16227381Y-11918333D01*
X16232143Y-11908809D01*
X16232143Y-11889762D01*
X16227381Y-11880238D01*
X16222619Y-11875476D01*
X16213095Y-11870714D01*
D13*
X15517857Y-11558333D02*
X15520238Y-11560714D01*
X15522619Y-11567857D01*
X15522619Y-11572619D01*
X15520238Y-11579762D01*
X15515476Y-11584524D01*
X15510714Y-11586905D01*
X15501190Y-11589286D01*
X15494048Y-11589286D01*
X15484524Y-11586905D01*
X15479762Y-11584524D01*
X15475000Y-11579762D01*
X15472619Y-11572619D01*
X15472619Y-11567857D01*
X15475000Y-11560714D01*
X15477381Y-11558333D01*
X15472619Y-11515476D02*
X15472619Y-11525000D01*
X15475000Y-11529762D01*
X15477381Y-11532143D01*
X15484524Y-11536905D01*
X15494048Y-11539286D01*
X15513095Y-11539286D01*
X15517857Y-11536905D01*
X15520238Y-11534524D01*
X15522619Y-11529762D01*
X15522619Y-11520238D01*
X15520238Y-11515476D01*
X15517857Y-11513095D01*
X15513095Y-11510714D01*
X15501190Y-11510714D01*
X15496428Y-11513095D01*
X15494048Y-11515476D01*
X15491667Y-11520238D01*
X15491667Y-11529762D01*
X15494048Y-11534524D01*
X15496428Y-11536905D01*
X15501190Y-11539286D01*
X15922619Y-12632143D02*
X15898809Y-12648809D01*
X15922619Y-12660714D02*
X15872619Y-12660714D01*
X15872619Y-12641667D01*
X15875000Y-12636905D01*
X15877381Y-12634524D01*
X15882143Y-12632143D01*
X15889286Y-12632143D01*
X15894048Y-12634524D01*
X15896428Y-12636905D01*
X15898809Y-12641667D01*
X15898809Y-12660714D01*
X15922619Y-12584524D02*
X15922619Y-12613095D01*
X15922619Y-12598809D02*
X15872619Y-12598809D01*
X15879762Y-12603571D01*
X15884524Y-12608333D01*
X15886905Y-12613095D01*
X15872619Y-12539286D02*
X15872619Y-12563095D01*
X15896428Y-12565476D01*
X15894048Y-12563095D01*
X15891667Y-12558333D01*
X15891667Y-12546428D01*
X15894048Y-12541667D01*
X15896428Y-12539286D01*
X15901190Y-12536905D01*
X15913095Y-12536905D01*
X15917857Y-12539286D01*
X15920238Y-12541667D01*
X15922619Y-12546428D01*
X15922619Y-12558333D01*
X15920238Y-12563095D01*
X15917857Y-12565476D01*
X15272619Y-11586905D02*
X15222619Y-11586905D01*
X15222619Y-11575000D01*
X15225000Y-11567857D01*
X15229762Y-11563095D01*
X15234524Y-11560714D01*
X15244048Y-11558333D01*
X15251190Y-11558333D01*
X15260714Y-11560714D01*
X15265476Y-11563095D01*
X15270238Y-11567857D01*
X15272619Y-11575000D01*
X15272619Y-11586905D01*
X15272619Y-11510714D02*
X15272619Y-11539286D01*
X15272619Y-11525000D02*
X15222619Y-11525000D01*
X15229762Y-11529762D01*
X15234524Y-11534524D01*
X15236905Y-11539286D01*
X15022619Y-11582143D02*
X14998809Y-11598809D01*
X15022619Y-11610714D02*
X14972619Y-11610714D01*
X14972619Y-11591667D01*
X14975000Y-11586905D01*
X14977381Y-11584524D01*
X14982143Y-11582143D01*
X14989286Y-11582143D01*
X14994048Y-11584524D01*
X14996428Y-11586905D01*
X14998809Y-11591667D01*
X14998809Y-11610714D01*
X15022619Y-11534524D02*
X15022619Y-11563095D01*
X15022619Y-11548809D02*
X14972619Y-11548809D01*
X14979762Y-11553571D01*
X14984524Y-11558333D01*
X14986905Y-11563095D01*
X14972619Y-11491667D02*
X14972619Y-11501190D01*
X14975000Y-11505952D01*
X14977381Y-11508333D01*
X14984524Y-11513095D01*
X14994048Y-11515476D01*
X15013095Y-11515476D01*
X15017857Y-11513095D01*
X15020238Y-11510714D01*
X15022619Y-11505952D01*
X15022619Y-11496428D01*
X15020238Y-11491667D01*
X15017857Y-11489286D01*
X15013095Y-11486905D01*
X15001190Y-11486905D01*
X14996428Y-11489286D01*
X14994048Y-11491667D01*
X14991667Y-11496428D01*
X14991667Y-11505952D01*
X14994048Y-11510714D01*
X14996428Y-11513095D01*
X15001190Y-11515476D01*
X14872857Y-14018333D02*
X14875238Y-14020714D01*
X14877619Y-14027857D01*
X14877619Y-14032619D01*
X14875238Y-14039762D01*
X14870476Y-14044524D01*
X14865714Y-14046905D01*
X14856190Y-14049286D01*
X14849048Y-14049286D01*
X14839524Y-14046905D01*
X14834762Y-14044524D01*
X14830000Y-14039762D01*
X14827619Y-14032619D01*
X14827619Y-14027857D01*
X14830000Y-14020714D01*
X14832381Y-14018333D01*
X14827619Y-14001667D02*
X14827619Y-13968333D01*
X14877619Y-13989762D01*
D12*
X16565476Y-13483333D02*
X16570238Y-13469048D01*
X16570238Y-13445238D01*
X16565476Y-13435714D01*
X16560714Y-13430952D01*
X16551190Y-13426190D01*
X16541667Y-13426190D01*
X16532143Y-13430952D01*
X16527381Y-13435714D01*
X16522619Y-13445238D01*
X16517857Y-13464286D01*
X16513095Y-13473809D01*
X16508333Y-13478571D01*
X16498809Y-13483333D01*
X16489286Y-13483333D01*
X16479762Y-13478571D01*
X16475000Y-13473809D01*
X16470238Y-13464286D01*
X16470238Y-13440476D01*
X16475000Y-13426190D01*
X16470238Y-13392857D02*
X16570238Y-13369048D01*
X16498809Y-13350000D01*
X16570238Y-13330952D01*
X16470238Y-13307143D01*
X16570238Y-13216667D02*
X16570238Y-13273809D01*
X16570238Y-13245238D02*
X16470238Y-13245238D01*
X16484524Y-13254762D01*
X16494048Y-13264286D01*
X16498809Y-13273809D01*
M02*
